<svg width="265" height="265" viewBox="0 0 265 265" xmlns="http://www.w3.org/2000/svg">
<path fill-rule="evenodd" clip-rule="evenodd" d="M43 26C34.1634 26 27 33.1634 27 42V110C27 118.837 34.1634 126 43 126H111C119.837 126 127 118.837 127 110V42C127 33.1634 119.837 26 111 26H43ZM213 26H165C150.641 26 139 37.6406 139 52V100C139 114.359 150.641 126 165 126H213C227.359 126 239 114.359 239 100V52C239 37.6406 227.359 26 213 26ZM149 52C149 43.1634 156.163 36 165 36H213C221.837 36 229 43.1634 229 52V100C229 108.837 221.837 116 213 116H165C156.163 116 149 108.837 149 100V52ZM165 138H213C227.359 138 239 149.641 239 164V212C239 226.359 227.359 238 213 238H165C150.641 238 139 226.359 139 212V164C139 149.641 150.641 138 165 138ZM165 148C156.163 148 149 155.163 149 164V212C149 220.837 156.163 228 165 228H213C221.837 228 229 220.837 229 212V164C229 155.163 221.837 148 213 148H165ZM101 138H53C38.6406 138 27 149.641 27 164V212C27 226.359 38.6406 238 53 238H101C115.359 238 127 226.359 127 212V164C127 149.641 115.359 138 101 138ZM37 164C37 155.163 44.1634 148 53 148H101C109.837 148 117 155.163 117 164V212C117 220.837 109.837 228 101 228H53C44.1634 228 37 220.837 37 212V164Z"/>
</svg>
