<svg width="265" height="265" viewBox="0 0 265 265" fill="none" xmlns="http://www.w3.org/2000/svg">
<path fill-rule="evenodd" clip-rule="evenodd" d="M216 23H48C33.6406 23 22 34.6406 22 49V217C22 231.359 33.6406 243 48 243H216C230.359 243 242 231.359 242 217V49C242 34.6406 230.359 23 216 23ZM32 49C32 40.1634 39.1634 33 48 33H216C224.837 33 232 40.1634 232 49V217C232 225.837 224.837 233 216 233H48C39.1634 233 32 225.837 32 217V49ZM214 132C214 129.239 211.761 127 209 127L59 127C56.2386 127 54 129.239 54 132C54 134.761 56.2386 137 59 137L209 137C211.761 137 214 134.761 214 132Z" fill="#232323"/>
</svg>
