<svg width="265" height="265" viewBox="0 0 265 265" fill="none" xmlns="http://www.w3.org/2000/svg">
<path d="M213.038 148.969C217.369 149.847 221.628 147.049 222.118 142.658C223.272 132.326 222.628 121.853 220.197 111.704C217.143 98.9568 211.341 87.0306 203.197 76.7592C195.053 66.4879 184.764 58.1193 173.049 52.2388C161.335 46.3583 148.476 43.1078 135.374 42.7145C122.272 42.3212 109.242 44.7946 97.1957 49.9618C85.1491 55.129 74.3766 62.8653 65.6315 72.6297C56.8863 82.394 50.3796 93.9508 46.5663 106.492C43.5305 116.476 42.2601 126.893 42.7915 137.274C43.0173 141.687 47.1014 144.736 51.4765 144.119L71.2807 141.327C75.6557 140.711 78.6397 136.654 78.6756 132.235C78.7175 127.073 79.4996 121.93 81.0093 116.965C83.2973 109.44 87.2013 102.506 92.4484 96.6474C97.6955 90.7887 104.159 86.147 111.387 83.0467C118.615 79.9463 126.433 78.4623 134.294 78.6983C142.155 78.9343 149.87 80.8846 156.899 84.4129C163.928 87.9412 170.102 92.9623 174.988 99.1251C179.874 105.288 183.355 112.444 185.188 120.092C186.397 125.139 186.869 130.32 186.601 135.475C186.372 139.888 189.107 144.116 193.437 144.994L213.038 148.969Z"/>
</svg>
