<svg width="265" height="265" viewBox="0 0 265 265" xmlns="http://www.w3.org/2000/svg">
<path fill-rule="evenodd" clip-rule="evenodd" d="M53.4508 31.253C46.972 28.7466 40.5969 35.1217 43.1033 41.6005L77.1521 129.616C79.8087 136.483 89.5477 136.418 92.1123 129.516L106.182 91.652C107.074 89.2492 109.065 87.4197 111.534 86.7319L137.917 79.3829C145.334 77.317 145.837 66.9929 138.657 64.2151L53.4508 31.253ZM45.5862 100H49.612L63.1625 135.027C70.8001 154.77 98.7998 154.583 106.173 134.74L118.999 100.224L119.802 100H219.414C230.231 100 239 107.659 239 117.108V221.892C239 231.341 230.231 239 219.414 239H45.5862C34.7691 239 26 231.341 26 221.892V117.108C26 107.659 34.769 100 45.5862 100Z"/>
</svg>


