<svg width="265" height="265" viewBox="0 0 265 265" fill="none" xmlns="http://www.w3.org/2000/svg">
<path fill-rule="evenodd" clip-rule="evenodd" d="M51 39C42.1634 39 35 46.1634 35 55V91C35 99.8366 42.1634 107 51 107H87C95.8366 107 103 99.8366 103 91V55C103 46.1634 95.8366 39 87 39H51ZM228 44.0001C230.761 44.0001 233 46.2387 233 49.0001C233 51.7615 230.761 54.0001 228 54.0001L132 54.0001C129.239 54.0001 127 51.7615 127 49C127 46.2386 129.239 44 132 44L228 44.0001ZM233 91C233 88.2386 230.761 86 228 86L132 85.9999C129.239 85.9999 127 88.2385 127 91C127 93.7614 129.239 96 132 96L228 96.0001C230.761 96.0001 233 93.7615 233 91ZM233 133C233 130.239 230.761 128 228 128L38 128C35.2386 128 33 130.239 33 133C33 135.761 35.2386 138 38 138L228 138C230.761 138 233 135.761 233 133ZM233 175C233 172.239 230.761 170 228 170L38 170C35.2386 170 33 172.239 33 175C33 177.761 35.2386 180 38 180L228 180C230.761 180 233 177.762 233 175ZM228 212C230.761 212 233 214.239 233 217C233 219.762 230.761 222 228 222L38 222C35.2386 222 33 219.761 33 217C33 214.239 35.2386 212 38 212L228 212Z" fill="#232323"/>
</svg>
