<svg width="265" height="265" viewBox="0 0 265 265" xmlns="http://www.w3.org/2000/svg">
<path fill-rule="evenodd" clip-rule="evenodd" d="M67 208H121C126.523 208 131 203.523 131 198C131 192.477 126.523 188 121 188H77L77 144C77 138.477 72.5228 134 67 134C61.4772 134 57 138.477 57 144L57 198C57 203.523 61.4772 208 67 208ZM197 58L143 58C137.477 58 133 62.4772 133 68C133 73.5228 137.477 78 143 78L187 78L187 122C187 127.523 191.477 132 197 132C202.523 132 207 127.523 207 122V68C207 62.4772 202.523 58 197 58Z"/>
</svg>
