<svg width="265" height="265" viewBox="0 0 265 265" fill="none" xmlns="http://www.w3.org/2000/svg">
<path fill-rule="evenodd" clip-rule="evenodd" d="M216 23H48C33.6406 23 22 34.6406 22 49V217C22 231.359 33.6406 243 48 243H216C230.359 243 242 231.359 242 217V49C242 34.6406 230.359 23 216 23ZM32 49C32 40.1634 39.1634 33 48 33H216C224.837 33 232 40.1634 232 49V217C232 225.837 224.837 233 216 233H48C39.1634 233 32 225.837 32 217V49ZM140.56 66.3435C137.865 58.0517 126.135 58.0517 123.44 66.3435L113.141 98.0426C111.936 101.751 108.48 104.261 104.581 104.261H71.2509C62.5324 104.261 58.9074 115.418 65.9608 120.543L92.9257 140.134C96.0801 142.426 97.4 146.488 96.1951 150.196L85.8955 181.895C83.2013 190.187 92.6916 197.082 99.7451 191.957L126.71 172.366C129.864 170.075 134.136 170.075 137.29 172.366L164.255 191.957C171.308 197.082 180.799 190.187 178.105 181.895L167.805 150.196C166.6 146.488 167.92 142.426 171.074 140.134L198.039 120.543C205.093 115.418 201.468 104.261 192.749 104.261H159.419C155.52 104.261 152.064 101.751 150.859 98.0426L140.56 66.3435Z" fill="#232323"/>
</svg>
