<svg fill="none" height="24" viewBox="0 0 24 24" width="24" xmlns="http://www.w3.org/2000/svg"><path clip-rule="evenodd" d="m14.3291 20.0004c-.067 0-.136-.003-.205-.01-.88-.087-1.57-.708-1.76-1.583l-2.68299-12.39198-2.763 6.38198c-.159.366-.52.603-.918.603h-3c-.553 0-1-.448-1-1 0-.553.447-1 1-1h2.344l2.506-5.78898c.355-.816 1.137-1.291 2.026-1.202.87999.087 1.56999.708 1.75999 1.583l2.683 12.39198 2.763-6.382c.159-.366.519-.602.918-.602h3c.553 0 1 .447 1 1 0 .552-.447 1-1 1h-2.344l-2.506 5.788c-.327.753-1.028 1.212-1.821 1.212" fill="#6b7280" fill-rule="evenodd"/></svg>