<svg viewBox="0 0 64 64" fill="none" xmlns="http://www.w3.org/2000/svg">
<path fill-rule="evenodd" clip-rule="evenodd" d="M19.1697 45.3334L18.2336 42.1629H9.59937L8.66071 45.3334H2.6665L11.3339 19.2309H16.5016L25.2761 45.3334H19.1697ZM13.9356 26.6865L10.9513 37.4272H16.8485L13.9356 26.6865ZM25.9419 19.2309H31.63V45.3334H25.9419V19.2309ZM33.1604 40.0004C33.4155 38.7125 33.867 37.4779 34.497 36.3473C35.0429 35.39 35.7264 34.534 36.5248 33.8114C37.3411 33.0835 38.2032 32.4248 39.1087 31.8355C39.8229 31.3876 40.4861 30.9556 41.1008 30.5476C41.6671 30.1743 42.2053 29.7583 42.7129 29.2997C43.1516 28.905 43.5215 28.4331 43.8046 27.8998C44.0775 27.3691 44.2127 26.7718 44.2051 26.1665C44.2051 25.1213 43.9398 24.3693 43.4067 23.9107C42.8479 23.4408 42.1466 23.1958 41.4299 23.22C40.6139 23.1958 39.8221 23.5114 39.2286 24.0973C38.6394 24.6813 38.3435 25.6572 38.3435 27.0251H32.7651C32.7544 25.8908 32.9482 24.7646 33.3364 23.7053C33.7088 22.7001 34.2827 21.7961 35.0199 21.0575C35.8004 20.2842 36.7212 19.6869 37.7237 19.3056C38.9 18.8621 40.1438 18.6461 41.3942 18.6683C42.4655 18.663 43.5368 18.8203 44.5673 19.1349C45.5263 19.4203 46.4293 19.9002 47.22 20.5509C47.998 21.2068 48.6229 22.0494 49.0412 23.012C49.5131 24.1293 49.7427 25.3452 49.7172 26.5718C49.7299 27.6118 49.5029 28.6357 49.0565 29.5583C48.6306 30.4329 48.0873 31.2382 47.4445 31.9422C46.817 32.6328 46.1258 33.2488 45.3835 33.7901C44.6438 34.3234 43.9704 34.7767 43.371 35.15C42.5394 35.7473 41.8507 36.2619 41.3074 36.6966C40.8404 37.0601 40.4051 37.4661 40.0066 37.9098C39.7065 38.2421 39.4763 38.6363 39.3306 39.0671C39.1974 39.5131 39.1336 39.9786 39.1419 40.4457H49.5437V45.3334H32.6936C32.6634 43.5433 32.8199 41.7551 33.1604 40.0004ZM50.6201 23.8147C51.5922 23.8359 52.5634 23.7419 53.5152 23.5347C54.1529 23.404 54.7498 23.1187 55.265 22.6974C55.6808 22.3267 55.9792 21.8334 56.1322 21.2788C56.3057 20.6122 56.3873 19.9189 56.3746 19.2256H61.3332V45.3334H55.6119V28.0677H50.6201V23.8147Z" fill="#141414"/>
</svg>