<svg width="64" height="64" viewBox="0 0 64 64" fill="none" xmlns="http://www.w3.org/2000/svg">
<path d="M31.873 55.999C32.9775 56.0063 33.8666 56.9073 33.8594 58.0117C33.852 59.1163 32.9512 60.0053 31.8467 59.998C31.8169 59.9979 31.7866 59.9984 31.7568 59.998C30.6526 59.9861 29.7667 59.0809 29.7783 57.9766C29.7901 56.8724 30.6947 55.9868 31.7988 55.998C31.8233 55.9983 31.8485 55.9989 31.873 55.999ZM39.1533 54.6006C40.1765 54.1847 41.3438 54.677 41.7597 55.7002C42.1755 56.7233 41.6831 57.8896 40.6601 58.3057C40.6464 58.3113 40.6319 58.3177 40.6181 58.3232C40.6045 58.3288 40.5908 58.3344 40.5771 58.3398C39.5523 58.7517 38.3875 58.2543 37.9756 57.2295C37.5639 56.2047 38.0603 55.0399 39.0849 54.6279L39.1533 54.6006ZM21.9199 55.5303C22.3533 54.5144 23.528 54.0423 24.5439 54.4756C24.5551 54.4804 24.5669 54.4855 24.5781 54.4902C24.5893 54.495 24.6011 54.4992 24.6123 54.5039C25.6297 54.9334 26.106 56.1065 25.6767 57.124C25.2473 58.1417 24.0743 58.6189 23.0566 58.1895L22.9746 58.1543C21.9588 57.7208 21.4865 56.5462 21.9199 55.5303ZM45.3447 50.5225C46.1309 49.7468 47.397 49.756 48.1728 50.542C48.9486 51.3282 48.9404 52.5943 48.1543 53.3701C48.1332 53.391 48.112 53.4119 48.0908 53.4326C47.3016 54.2054 46.0355 54.1915 45.2627 53.4023C44.4901 52.6131 44.5029 51.3469 45.292 50.5742C45.3095 50.5571 45.3272 50.5397 45.3447 50.5225ZM15.5957 50.2627C16.3849 49.49 17.651 49.503 18.4238 50.292C18.4409 50.3095 18.4584 50.3273 18.4756 50.3447C19.2513 51.1309 19.2422 52.397 18.456 53.1729C17.6698 53.9485 16.4037 53.9404 15.6279 53.1543C15.6071 53.1332 15.5861 53.112 15.5654 53.0908C14.7928 52.3016 14.8066 51.0354 15.5957 50.2627ZM31.5 20C40.6127 20 48 27.3873 48 36.5C48 45.6127 40.6127 53 31.5 53C22.3873 52.9999 15 45.6127 15 36.5C15 27.3873 22.3873 20.0001 31.5 20ZM49.5039 44.3857C49.9333 43.3684 51.1065 42.8922 52.124 43.3213C53.1417 43.7507 53.6189 44.9237 53.1894 45.9414L53.1543 46.0234C52.7209 47.0394 51.5462 47.5115 50.5303 47.0781C49.5145 46.6446 49.0422 45.47 49.4756 44.4541C49.4804 44.4428 49.4854 44.4312 49.4902 44.4199C49.495 44.4087 49.4991 44.397 49.5039 44.3857ZM11.7685 42.9756C12.7933 42.5638 13.9581 43.0602 14.3701 44.085L14.3974 44.1533C14.8134 45.1766 14.3211 46.3438 13.2978 46.7598C12.2748 47.1755 11.1084 46.683 10.6924 45.6602C10.6868 45.6464 10.6804 45.6319 10.6748 45.6182C10.6693 45.6045 10.6637 45.5908 10.6582 45.5771C10.2464 44.5524 10.7438 43.3876 11.7685 42.9756ZM32.1269 23.207C30.691 23.2491 27.547 33.0599 27.4297 37.2314C27.3652 39.5352 29.2406 41.3506 31.6191 41.2861C33.9978 41.2214 35.9791 39.3009 36.0439 36.9971C36.161 32.8249 33.5628 23.1695 32.1269 23.207ZM53.0117 35.1387C54.1162 35.146 55.0053 36.0469 54.998 37.1514C54.9978 37.1811 54.9983 37.2114 54.998 37.2412C54.9862 38.3455 54.0809 39.2313 52.9765 39.2197C51.8724 39.2079 50.9867 38.3034 50.998 37.1992C50.9983 37.1747 50.9988 37.1496 50.999 37.125C51.0064 36.0206 51.9073 35.1315 53.0117 35.1387ZM11.0215 34.7783C12.1257 34.7901 13.0113 35.6947 13 36.7988C12.9997 36.8234 12.9992 36.8485 12.999 36.873C12.9917 37.9776 12.0908 38.8666 10.9863 38.8594C9.88187 38.8519 8.99268 37.9511 8.99998 36.8467C9.00018 36.8169 8.99967 36.7866 8.99998 36.7568C9.01185 35.6526 9.91722 34.7668 11.0215 34.7783ZM50.7002 27.2383C51.7232 26.8225 52.8895 27.3151 53.3056 28.3379C53.3112 28.3517 53.3176 28.3661 53.3232 28.3799C53.3287 28.3935 53.3343 28.4073 53.3398 28.4209C53.7518 29.4458 53.2543 30.6105 52.2295 31.0225C51.2047 31.4342 50.0398 30.9379 49.6279 29.9131L49.6006 29.8447C49.1848 28.8215 49.6771 27.6542 50.7002 27.2383ZM10.8437 27.9746C11.2771 26.9587 12.4518 26.4867 13.4678 26.9199C14.4837 27.3533 14.9558 28.528 14.5224 29.5439C14.5176 29.5552 14.5126 29.5668 14.5078 29.5781C14.503 29.5893 14.4989 29.6011 14.4941 29.6123C14.0646 30.6297 12.8915 31.106 11.874 30.6768C10.8565 30.2472 10.3792 29.0742 10.8086 28.0566L10.8437 27.9746ZM45.542 20.8252C46.3281 20.0495 47.5943 20.0577 48.3701 20.8438C48.3909 20.8648 48.4119 20.8861 48.4326 20.9072C49.2054 21.6964 49.1915 22.9626 48.4023 23.7354C47.6131 24.508 46.347 24.4952 45.5742 23.7061C45.5571 23.6886 45.5396 23.6708 45.5224 23.6533C44.7469 22.8671 44.7559 21.601 45.542 20.8252ZM15.9072 20.5654C16.6964 19.7927 17.9625 19.8066 18.7353 20.5957C19.5081 21.3849 19.4952 22.6511 18.706 23.4238C18.6885 23.441 18.6708 23.4583 18.6533 23.4756C17.8671 24.2512 16.601 24.2422 15.8252 23.4561C15.0496 22.6698 15.0577 21.4037 15.8437 20.6279C15.8648 20.6071 15.886 20.5862 15.9072 20.5654ZM38.3213 16.874C38.7507 15.8564 39.9238 15.3793 40.9414 15.8086L41.0234 15.8438C42.0394 16.2772 42.5115 17.4518 42.0781 18.4678C41.6447 19.4837 40.4701 19.9559 39.4541 19.5225C39.4429 19.5177 39.4311 19.5126 39.4199 19.5078C39.4087 19.5031 39.3969 19.4989 39.3857 19.4941C38.3684 19.0646 37.8921 17.8915 38.3213 16.874ZM23.4209 15.6582C24.4457 15.2463 25.6104 15.7438 26.0224 16.7686C26.4343 17.7934 25.9379 18.9582 24.9131 19.3701L24.8447 19.3975C23.8215 19.8133 22.6542 19.3211 22.2383 18.2979C21.8226 17.2748 22.3151 16.1085 23.3379 15.6924C23.3516 15.6868 23.3661 15.6804 23.3799 15.6748C23.3935 15.6693 23.4072 15.6637 23.4209 15.6582ZM32.2412 14C33.3455 14.0118 34.2313 14.9171 34.2197 16.0215C34.208 17.1257 33.3034 18.0114 32.1992 18C32.1747 17.9997 32.1495 17.9992 32.125 17.999C31.0206 17.9916 30.1314 17.0908 30.1387 15.9863C30.146 14.8819 31.047 13.9928 32.1514 14C32.1811 14.0002 32.2115 13.9997 32.2412 14ZM38 5C39.6568 5 41 6.34315 41 8C41 9.65685 39.6568 11 38 11H26C24.3432 10.9999 23 9.65682 23 8C23 6.34318 24.3432 5.00006 26 5H38Z" fill="black"/>
</svg>
