<svg width="64" height="64" viewBox="0 0 64 64" fill="none" xmlns="http://www.w3.org/2000/svg">
<path d="M31.874 55.999C32.9785 56.0063 33.8675 56.9073 33.8603 58.0117C33.853 59.1163 32.9522 60.0053 31.8476 59.998C31.8179 59.9979 31.7875 59.9984 31.7578 59.998C30.6536 59.9861 29.7677 59.0809 29.7793 57.9766C29.7911 56.8724 30.6957 55.9868 31.7998 55.998C31.8243 55.9983 31.8495 55.9989 31.874 55.999ZM39.1543 54.6006C40.1775 54.1847 41.3447 54.677 41.7607 55.7002C42.1765 56.7233 41.684 57.8896 40.6611 58.3057C40.6473 58.3113 40.6329 58.3177 40.6191 58.3232C40.6055 58.3288 40.5917 58.3344 40.5781 58.3398C39.5533 58.7517 38.3885 58.2543 37.9765 57.2295C37.5648 56.2047 38.0612 55.0399 39.0859 54.6279L39.1543 54.6006ZM21.9209 55.5303C22.3543 54.5144 23.529 54.0423 24.5449 54.4756C24.5561 54.4804 24.5679 54.4855 24.5791 54.4902C24.5902 54.495 24.6021 54.4992 24.6133 54.5039C25.6307 54.9334 26.1069 56.1065 25.6777 57.124C25.2483 58.1417 24.0753 58.6189 23.0576 58.1895L22.9756 58.1543C21.9597 57.7208 21.4875 56.5462 21.9209 55.5303ZM45.3457 50.5225C46.1318 49.7468 47.398 49.756 48.1738 50.542C48.9495 51.3282 48.9414 52.5943 48.1553 53.3701C48.1341 53.391 48.113 53.4119 48.0918 53.4326C47.3026 54.2054 46.0364 54.1915 45.2637 53.4023C44.4911 52.6131 44.5039 51.3469 45.2929 50.5742C45.3105 50.5571 45.3282 50.5397 45.3457 50.5225ZM15.5967 50.2627C16.3858 49.49 17.652 49.503 18.4248 50.292C18.4419 50.3095 18.4593 50.3273 18.4765 50.3447C19.2523 51.1309 19.2432 52.397 18.457 53.1729C17.6708 53.9485 16.4047 53.9404 15.6289 53.1543C15.6081 53.1332 15.5871 53.112 15.5664 53.0908C14.7938 52.3016 14.8076 51.0354 15.5967 50.2627ZM32 21C40.8365 21 48 28.1634 48 37C48 45.8366 40.8365 53 32 53C23.1635 52.9999 16 45.8365 16 37C16 28.1635 23.1635 21.0001 32 21ZM37.5127 16.8477C37.8198 15.7251 38.9835 15.0554 40.0732 15.4639C42.7876 16.4814 45.2912 18.0053 47.4482 19.9609C50.1269 22.3895 52.1961 25.4153 53.4863 28.793C54.7765 32.1706 55.2514 35.8054 54.874 39.4014C54.57 42.2969 53.7198 45.1019 52.375 47.6699C51.8351 48.7009 50.5212 48.9776 49.5439 48.3457C48.5667 47.7137 48.2988 46.413 48.8174 45.3711C49.8144 43.368 50.4479 41.1974 50.6826 38.9609C50.9909 36.0239 50.6026 33.0556 49.5488 30.2969C48.495 27.5382 46.8059 25.0666 44.6181 23.083C42.9521 21.5725 41.0326 20.3771 38.9541 19.5488C37.8729 19.118 37.2056 17.9702 37.5127 16.8477ZM11.7695 42.9756C12.7943 42.5638 13.9591 43.0602 14.3711 44.085L14.3984 44.1533C14.8143 45.1766 14.3221 46.3438 13.2988 46.7598C12.2757 47.1755 11.1094 46.683 10.6933 45.6602C10.6877 45.6464 10.6813 45.6319 10.6758 45.6182C10.6703 45.6045 10.6646 45.5908 10.6592 45.5771C10.2474 44.5524 10.7448 43.3876 11.7695 42.9756ZM34.1572 32.5869C32.1943 31.3789 29.6843 32.0953 28.5508 34.1875C27.4175 36.2799 28.09 38.955 30.0527 40.1631C33.6072 42.3505 43.2675 44.9292 43.9531 43.667C44.6365 42.4037 37.7117 34.7748 34.1572 32.5869ZM11.0224 34.7783C12.1266 34.7901 13.0123 35.6947 13.001 36.7988C13.0007 36.8234 13.0001 36.8485 13 36.873C12.9927 37.9776 12.0918 38.8666 10.9873 38.8594C9.88285 38.8519 8.99366 37.9511 9.00096 36.8467C9.00115 36.8169 9.00065 36.7866 9.00096 36.7568C9.01283 35.6526 9.91819 34.7668 11.0224 34.7783ZM10.8447 27.9746C11.2781 26.9587 12.4528 26.4867 13.4687 26.9199C14.4847 27.3533 14.9568 28.528 14.5234 29.5439C14.5186 29.5552 14.5136 29.5668 14.5088 29.5781C14.504 29.5893 14.4998 29.6011 14.4951 29.6123C14.0656 30.6297 12.8925 31.106 11.875 30.6768C10.8575 30.2472 10.3801 29.0742 10.8096 28.0566L10.8447 27.9746ZM15.9082 20.5654C16.6973 19.7927 17.9635 19.8066 18.7363 20.5957C19.509 21.3849 19.4962 22.6511 18.707 23.4238C18.6895 23.441 18.6717 23.4583 18.6543 23.4756C17.8681 24.2512 16.6019 24.2422 15.8262 23.4561C15.0506 22.6698 15.0586 21.4037 15.8447 20.6279C15.8658 20.6071 15.887 20.5862 15.9082 20.5654ZM23.4219 15.6582C24.4467 15.2463 25.6114 15.7438 26.0234 16.7686C26.4353 17.7934 25.9389 18.9582 24.914 19.3701L24.8457 19.3975C23.8225 19.8133 22.6552 19.3211 22.2392 18.2979C21.8236 17.2748 22.3161 16.1085 23.3388 15.6924C23.3526 15.6868 23.3671 15.6804 23.3808 15.6748C23.3945 15.6693 23.4082 15.6637 23.4219 15.6582ZM32.2422 14C33.3465 14.0118 34.2322 14.9171 34.2207 16.0215C34.2089 17.1257 33.3044 18.0114 32.2002 18C32.1757 17.9997 32.1505 17.9992 32.126 17.999C31.0215 17.9916 30.1324 17.0908 30.1396 15.9863C30.147 14.8819 31.0479 13.9928 32.1523 14C32.1821 14.0002 32.2124 13.9997 32.2422 14ZM38 5C39.6568 5 41 6.34315 41 8C41 9.65685 39.6568 11 38 11H26C24.3432 10.9999 23 9.65682 23 8C23 6.34318 24.3432 5.00006 26 5H38Z" fill="black"/>
</svg>
