<svg width="64" height="64" viewBox="0 0 64 64" fill="none" xmlns="http://www.w3.org/2000/svg">
<path d="M31.8729 55.999C32.9774 56.0064 33.8664 56.9073 33.8592 58.0117C33.8519 59.1162 32.9511 60.0053 31.8465 59.998C31.8168 59.9979 31.7864 59.9984 31.7567 59.998C30.6525 59.9861 29.7666 59.0809 29.7782 57.9766C29.79 56.8724 30.6946 55.9868 31.7987 55.998C31.8232 55.9983 31.8484 55.9989 31.8729 55.999ZM39.1532 54.6006C40.1764 54.1847 41.3436 54.677 41.7596 55.7002C42.1754 56.7233 41.6829 57.8896 40.66 58.3057C40.6463 58.3113 40.6318 58.3177 40.618 58.3232C40.6044 58.3287 40.5906 58.3344 40.577 58.3398C39.5522 58.7517 38.3874 58.2543 37.9754 57.2295C37.5637 56.2047 38.0601 55.0399 39.0848 54.6279L39.1532 54.6006ZM21.9198 55.5303C22.3532 54.5144 23.5279 54.0424 24.5438 54.4756C24.555 54.4804 24.5668 54.4855 24.578 54.4902C24.5891 54.495 24.601 54.4992 24.6122 54.5039C25.6296 54.9334 26.1058 56.1065 25.6766 57.124C25.2472 58.1417 24.0742 58.6189 23.0565 58.1895L22.9745 58.1543C21.9586 57.7208 21.4864 56.5462 21.9198 55.5303ZM45.3446 50.5225C46.1308 49.7468 47.3969 49.756 48.1727 50.542C48.9484 51.3282 48.9403 52.5943 48.1542 53.3701C48.133 53.391 48.1119 53.4119 48.0907 53.4326C47.3015 54.2054 46.0353 54.1915 45.2626 53.4023C44.49 52.6131 44.5028 51.3469 45.2919 50.5742C45.3094 50.5571 45.3271 50.5397 45.3446 50.5225ZM32.4999 21C41.6125 21 48.9999 28.3873 48.9999 37.5C48.9999 46.6127 41.6125 54 32.4999 54C23.3872 53.9999 15.9999 46.6127 15.9999 37.5C15.9999 28.3873 23.3872 21.0001 32.4999 21ZM15.5956 50.2627C16.3847 49.49 17.6509 49.503 18.4237 50.292C18.4408 50.3095 18.4582 50.3273 18.4754 50.3447C19.2511 51.1309 19.2421 52.397 18.4559 53.1729C17.6697 53.9485 16.4036 53.9404 15.6278 53.1543C15.607 53.1332 15.586 53.112 15.5653 53.0908C14.7927 52.3016 14.8065 51.0354 15.5956 50.2627ZM49.5038 44.3857C49.9332 43.3684 51.1064 42.8922 52.1239 43.3213C53.1415 43.7507 53.6187 44.9238 53.1893 45.9414L53.1542 46.0234C52.7208 47.0394 51.5461 47.5115 50.5301 47.0781C49.5143 46.6446 49.0421 45.47 49.4754 44.4541C49.4803 44.4428 49.4853 44.4312 49.4901 44.4199C49.4949 44.4087 49.499 44.397 49.5038 44.3857ZM11.7684 42.9756C12.7932 42.5638 13.958 43.0603 14.37 44.085L14.3973 44.1533C14.8132 45.1766 14.321 46.3438 13.2977 46.7598C12.2747 47.1755 11.1083 46.683 10.6922 45.6602C10.6866 45.6464 10.6802 45.6319 10.6747 45.6182C10.6692 45.6045 10.6635 45.5908 10.6581 45.5771C10.2463 44.5524 10.7437 43.3876 11.7684 42.9756ZM43.242 27.8594C42.2715 26.8005 32.7979 30.8505 29.5682 33.4941C27.7847 34.9541 27.6403 37.5601 29.2469 39.3154C30.8537 41.0706 33.6021 41.3094 35.3856 39.8496C38.6151 37.2057 44.2106 28.9201 43.242 27.8594ZM53.0116 35.1387C54.1161 35.146 55.0051 36.0469 54.9979 37.1514C54.9977 37.1811 54.9982 37.2114 54.9979 37.2412C54.9861 38.3455 54.0808 39.2313 52.9764 39.2197C51.8723 39.2079 50.9865 38.3034 50.9979 37.1992C50.9982 37.1747 50.9987 37.1496 50.9989 37.125C51.0063 36.0206 51.9072 35.1315 53.0116 35.1387ZM11.0213 34.7783C12.1255 34.7901 13.0112 35.6947 12.9999 36.7988C12.9996 36.8234 12.999 36.8485 12.9989 36.873C12.9916 37.9775 12.0907 38.8666 10.9862 38.8594C9.88175 38.8519 8.99256 37.9511 8.99986 36.8467C9.00006 36.8169 8.99955 36.7866 8.99986 36.7568C9.01173 35.6526 9.91709 34.7668 11.0213 34.7783ZM50.7001 27.2383C51.7231 26.8225 52.8894 27.3151 53.3055 28.3379C53.3111 28.3517 53.3175 28.3661 53.3231 28.3799C53.3286 28.3935 53.3342 28.4073 53.3397 28.4209C53.7516 29.4458 53.2542 30.6105 52.2294 31.0225C51.2046 31.4342 50.0397 30.9379 49.6278 29.9131L49.6004 29.8447C49.1847 28.8215 49.6769 27.6542 50.7001 27.2383ZM10.8436 27.9746C11.277 26.9587 12.4517 26.4867 13.4676 26.9199C14.4835 27.3534 14.9557 28.528 14.5223 29.5439C14.5175 29.5552 14.5125 29.5668 14.5077 29.5781C14.5029 29.5893 14.4987 29.6011 14.494 29.6123C14.0645 30.6297 12.8914 31.106 11.8739 30.6768C10.8564 30.2472 10.379 29.0742 10.8085 28.0566L10.8436 27.9746ZM37.5126 16.8477C37.8197 15.7251 38.9833 15.0554 40.0731 15.4639C43.7341 16.8362 46.9862 19.1196 49.5194 22.0977C50.2732 22.9841 50.0374 24.3058 49.0858 24.9756C48.1341 25.6454 46.8277 25.4079 46.0555 24.5371C44.1103 22.3432 41.6778 20.6342 38.954 19.5488C37.8728 19.118 37.2055 17.9702 37.5126 16.8477ZM15.9071 20.5654C16.6963 19.7927 17.9624 19.8066 18.7352 20.5957C19.5079 21.3849 19.4951 22.6511 18.7059 23.4238C18.6884 23.441 18.6706 23.4584 18.6532 23.4756C17.867 24.2512 16.6008 24.2422 15.8251 23.4561C15.0495 22.6698 15.0575 21.4037 15.8436 20.6279C15.8647 20.6071 15.8859 20.5862 15.9071 20.5654ZM23.4208 15.6582C24.4456 15.2463 25.6103 15.7438 26.0223 16.7686C26.4341 17.7934 25.9377 18.9582 24.9129 19.3701L24.8446 19.3975C23.8214 19.8133 22.6541 19.3211 22.2381 18.2979C21.8225 17.2748 22.315 16.1085 23.3378 15.6924C23.3515 15.6868 23.366 15.6804 23.3797 15.6748C23.3934 15.6693 23.4071 15.6637 23.4208 15.6582ZM32.2411 14C33.3454 14.0118 34.2311 14.9172 34.2196 16.0215C34.2078 17.1257 33.3033 18.0114 32.1991 18C32.1746 17.9997 32.1494 17.9992 32.1249 17.999C31.0204 17.9916 30.1313 17.0908 30.1385 15.9863C30.1459 14.8819 31.0468 13.9928 32.1512 14C32.181 14.0002 32.2113 13.9997 32.2411 14ZM37.9999 5C39.6567 5.00002 40.9999 6.34316 40.9999 8C40.9999 9.65684 39.6567 11 37.9999 11H25.9999C24.3431 10.9999 22.9999 9.65682 22.9999 8C22.9999 6.34318 24.3431 5.00006 25.9999 5H37.9999Z" fill="black"/>
</svg>