<svg fill="none" height="24" viewBox="0 0 24 24" width="24" xmlns="http://www.w3.org/2000/svg"><path clip-rule="evenodd" d="m13 13c0 .552-.448 1-1 1s-1-.448-1-1v-4c0-.552.448-1 1-1s1 .448 1 1zm-1 3.9999c-.552 0-1-.448-1-1s.448-1 1-1 1 .448 1 1-.448 1-1 1zm10.561-.6969-7.672-12.719c-.599-.992-1.679-1.584-2.889-1.584s-2.28999.592-2.88899 1.584l-7.672 12.719c-.567998.943-.584998 2.077-.045 3.033.579 1.027 1.704 1.664 2.934 1.664h15.34399c1.23 0 2.355-.637 2.934-1.664.54-.956.523-2.09-.045-3.033z" fill="#6b7280" fill-rule="evenodd"/></svg>