<svg fill="none" height="64" viewBox="0 0 64 64" width="64" xmlns="http://www.w3.org/2000/svg"><path clip-rule="evenodd" d="m34.6668 34.667c0 1.472-1.1946 2.6667-2.6666 2.6667s-2.6667-1.1947-2.6667-2.6667v-13.3333c0-1.472 1.1947-2.6667 2.6667-2.6667s2.6666 1.1947 2.6666 2.6667zm-2.6666 10.6663c-1.472 0-2.6667-1.1946-2.6667-2.6666s1.1947-2.6667 2.6667-2.6667 2.6666 1.1947 2.6666 2.6667-1.1946 2.6666-2.6666 2.6666zm0-39.9998c-14.728 0-26.6667 11.9387-26.6667 26.6667s11.9387 26.6666 26.6667 26.6666 26.6666-11.9386 26.6666-26.6666-11.9386-26.6667-26.6666-26.6667z" fill="#6b7280" fill-rule="evenodd"/></svg>