<svg fill="none" height="64" viewBox="0 0 64 64" width="64" xmlns="http://www.w3.org/2000/svg"><path clip-rule="evenodd" d="m34.6667 34.6668c0 1.472-1.1947 2.6667-2.6667 2.6667s-2.6667-1.1947-2.6667-2.6667v-10.6666c0-1.472 1.1947-2.6667 2.6667-2.6667s2.6667 1.1947 2.6667 2.6667zm-2.6667 10.6665c-1.472 0-2.6667-1.1946-2.6667-2.6666s1.1947-2.6667 2.6667-2.6667 2.6667 1.1947 2.6667 2.6667-1.1947 2.6666-2.6667 2.6666zm28.1627-1.8585-20.4587-33.9173c-1.5973-2.64534-4.4773-4.224-7.704-4.224s-6.1067 1.57866-7.704 4.224l-20.45868 33.9173c-1.51466 2.5147-1.56 5.5387-.12 8.088 1.544 2.7387 4.544 4.4374 7.82398 4.4374h40.9174c3.28 0 6.28-1.6987 7.824-4.4374 1.44-2.5493 1.3946-5.5733-.12-8.088z" fill="#6b7280" fill-rule="evenodd"/></svg>