<svg width="24" height="24" viewBox="0 0 24 24" fill="none" xmlns="http://www.w3.org/2000/svg">
<g id="Icon/Fill/alert-triangle">
<path id="Mask" fill-rule="evenodd" clip-rule="evenodd" d="M13.0001 13C13.0001 13.552 12.5521 14 12.0001 14C11.4481 14 11.0001 13.552 11.0001 13V9C11.0001 8.448 11.4481 8 12.0001 8C12.5521 8 13.0001 8.448 13.0001 9V13ZM12.0001 17C11.4481 17 11.0001 16.552 11.0001 16C11.0001 15.448 11.4481 15 12.0001 15C12.5521 15 13.0001 15.448 13.0001 16C13.0001 16.552 12.5521 17 12.0001 17ZM22.5611 16.303L14.8891 3.584C14.2901 2.592 13.2101 2 12.0001 2C10.7901 2 9.71006 2.592 9.11106 3.584L1.43906 16.303C0.871058 17.246 0.854058 18.38 1.39406 19.336C1.97306 20.363 3.09806 21 4.32806 21H19.6721C20.9021 21 22.0271 20.363 22.6061 19.336C23.1461 18.38 23.1291 17.246 22.5611 16.303Z" fill="#423F3D"/>
</g>
</svg>
