<svg width="24" height="24" viewBox="0 0 24 24" fill="none" xmlns="http://www.w3.org/2000/svg">
<g id="Icon/Fill/all-done">
<path id="Mask" fill-rule="evenodd" clip-rule="evenodd" d="M16.6161 6.2129C16.1821 5.8709 15.5541 5.9489 15.2131 6.3839L8.15809 15.3919L4.77909 11.1949C4.43109 10.7659 3.80309 10.6959 3.37309 11.0429C2.94209 11.3899 2.87509 12.0199 3.22009 12.4489L7.38909 17.6269C7.58009 17.8629 7.86609 17.9999 8.16909 17.9999H8.17609C8.48009 17.9979 8.76809 17.8569 8.95609 17.6159L16.7871 7.6159C17.1281 7.1819 17.0521 6.5529 16.6161 6.2129ZM21.6161 6.2129C21.1811 5.8709 20.5541 5.9489 20.2131 6.3839L13.1581 15.3919L12.5541 14.6429L11.2891 16.2599L12.3891 17.6269C12.5801 17.8629 12.8661 17.9999 13.1691 17.9999H13.1761C13.4801 17.9979 13.7681 17.8569 13.9561 17.6159L21.7871 7.6159C22.1281 7.1819 22.0521 6.5529 21.6161 6.2129ZM9.97979 11.4445L8.71279 13.0605L8.22079 12.4495C7.87479 12.0195 7.94179 11.3895 8.37279 11.0425C8.80379 10.6965 9.43279 10.7655 9.77879 11.1955L9.97979 11.4445Z" fill="#423F3D"/>
</g>
</svg>
