<svg fill="none" height="64" viewBox="0 0 64 64" width="64" xmlns="http://www.w3.org/2000/svg"><path clip-rule="evenodd" d="m32 5c-14.9117 0-27 12.0883-27 27s12.0883 27 27 27 27-12.0883 27-27-12.0883-27-27-27zm-23.02106 26.9999c0-12.7142 10.30686-23.02109 23.02106-23.02109v11.36859c6.4327.0034 11.6465 5.2192 11.6465 11.6527s-5.2138 11.6493-11.6465 11.6526v11.368h.0908l-.0908.0002c-12.7142 0-23.02106-10.3069-23.02106-23.021zm11.35276 0c0-6.4356 5.217-11.6526 11.6526-11.6526v23.3053c-6.4356 0-11.6526-5.2171-11.6526-11.6527z" fill="#6b7280" fill-rule="evenodd"/></svg>