<svg width="64" height="64" viewBox="0 0 64 64" fill="none" xmlns="http://www.w3.org/2000/svg">
<path d="M61.3334 28.6903L61.3334 35.309C61.3334 37.4557 61.3334 39.229 61.216 40.669C61.0934 42.1703 60.8294 43.549 60.1707 44.8423C59.1481 46.8493 57.5163 48.481 55.5094 49.5037C54.216 50.1623 52.8374 50.4263 51.3387 50.549C49.8934 50.6663 48.1227 50.6663 45.9787 50.6663L18.024 50.6663C15.8774 50.6663 14.104 50.6663 12.664 50.549C11.1627 50.4263 9.78404 50.1623 8.49071 49.5037C6.48373 48.481 4.85201 46.8493 3.82937 44.8423C3.17071 43.549 2.90671 42.1703 2.78404 40.6717C2.66671 39.229 2.66671 37.4557 2.66671 35.3117L2.66671 28.6903C2.66671 26.5437 2.66671 24.7703 2.78404 23.3303C2.90671 21.829 3.17071 20.4503 3.82938 19.157C4.85201 17.15 6.48373 15.5183 8.49071 14.4957C9.78404 13.837 11.1627 13.573 12.6614 13.4503C14.1067 13.333 15.8774 13.333 18.0214 13.333L45.9787 13.333C48.1254 13.333 49.8987 13.333 51.3387 13.4503C52.84 13.573 54.2187 13.837 55.512 14.4957C57.519 15.5183 59.1507 17.15 60.1734 19.157C60.832 20.4503 61.096 21.829 61.2187 23.3277C61.3334 24.773 61.3334 26.5463 61.3334 28.6903Z" fill="black"/>
</svg>
