<svg width="64" height="64" viewBox="0 0 64 64" fill="none" xmlns="http://www.w3.org/2000/svg">
<path d="M23.3573 8H40.6427C42.7893 8 44.5627 8 46.0027 8.11733C47.504 8.24 48.8827 8.504 50.176 9.16267C52.183 10.1853 53.8147 11.817 54.8373 13.824C55.496 15.1173 55.76 16.496 55.8827 17.9947C56 19.44 56 21.2107 56 23.3547V40.6427C56 42.7893 56 44.5627 55.8827 46.0027C55.76 47.504 55.496 48.8827 54.8373 50.176C53.8147 52.183 52.183 53.8147 50.176 54.8373C48.8827 55.496 47.504 55.76 46.0053 55.8827C44.5627 56 42.7893 56 40.6453 56H23.3547C21.208 56 19.4347 56 17.9947 55.8827C16.4933 55.76 15.1147 55.496 13.8213 54.8373C11.8144 53.8147 10.1826 52.183 9.16 50.176C8.50133 48.8827 8.23733 47.504 8.11467 46.0053C8 44.56 8 42.7893 8 40.6453V23.3547C8 21.208 8 19.4347 8.11733 17.9947C8.24 16.4933 8.504 15.1147 9.16267 13.8213C10.1853 11.8144 11.817 10.1826 13.824 9.16C15.1173 8.50133 16.496 8.23733 17.9947 8.11467C19.44 8 21.2133 8 23.3573 8Z" fill="black"/>
</svg>
