<svg width="64" height="64" viewBox="0 0 64 64" fill="none" xmlns="http://www.w3.org/2000/svg">
<path d="M28.6907 2.6665H35.3094C37.456 2.6665 39.2294 2.6665 40.6694 2.78384C42.1707 2.9065 43.5494 3.1705 44.8427 3.82917C46.8497 4.8518 48.4814 6.48353 49.504 8.4905C50.1627 9.78384 50.4267 11.1625 50.5494 12.6612C50.6667 14.1065 50.6667 15.8772 50.6667 18.0212V45.9758C50.6667 48.1225 50.6667 49.8958 50.5494 51.3358C50.4267 52.8372 50.1627 54.2158 49.504 55.5092C48.4814 57.5161 46.8497 59.1479 44.8427 60.1705C43.5494 60.8292 42.1707 61.0932 40.672 61.2158C39.2294 61.3332 37.456 61.3332 35.312 61.3332H28.6907C26.544 61.3332 24.7707 61.3332 23.3307 61.2158C21.8294 61.0932 20.4507 60.8292 19.1574 60.1705C17.1504 59.1479 15.5187 57.5161 14.496 55.5092C13.8374 54.2158 13.5734 52.8372 13.4507 51.3385C13.3334 49.8932 13.3334 48.1225 13.3334 45.9785V18.0212C13.3334 15.8745 13.3334 14.1012 13.4507 12.6612C13.5734 11.1598 13.8374 9.78117 14.496 8.48784C15.5187 6.48087 17.1504 4.84914 19.1574 3.8265C20.4507 3.16784 21.8294 2.90384 23.328 2.78117C24.7734 2.6665 26.5467 2.6665 28.6907 2.6665Z" fill="black"/>
</svg>
