<svg fill="none" height="64" viewBox="0 0 64 64" width="64" xmlns="http://www.w3.org/2000/svg"><path clip-rule="evenodd" d="m48 18.6668h-32c-1.4693 0-2.6666-1.1973-2.6666-2.6666 0-1.4694 1.1973-2.6667 2.6666-2.6667h32c1.472 0 2.6667 1.1973 2.6667 2.6667 0 1.4693-1.1947 2.6666-2.6667 2.6666zm-8 16.3572c0 1.2693-1.04 2.3093-2.3093 2.3093h-11.3814c-1.2693 0-2.3093-1.04-2.3093-2.3093v-.7147c0-1.2693 1.04-2.3093 2.3093-2.3093h11.3814c1.2693 0 2.3093 1.04 2.3093 2.3093zm8-27.024h-32c-4.4107 0-8 3.5893-8 8 0 2.3547 1.04267 4.4533 2.6667 5.92v26.08c0 4.4107 3.5893 8 8 8h26.6666c4.4107 0 8-3.5893 8-8v-26.08c1.624-1.4667 2.6667-3.5653 2.6667-5.92 0-4.4107-3.5893-8-8-8z" fill="#6b7280" fill-rule="evenodd"/></svg>