<svg width="24" height="24" viewBox="0 0 24 24" fill="none" xmlns="http://www.w3.org/2000/svg">
<g id="Icon/Fill/arrow-down-1">
<path id="Mask" fill-rule="evenodd" clip-rule="evenodd" d="M12 17C11.494 17 11.01 16.767 10.674 16.358L6.46103 11.26C5.95703 10.649 5.85603 9.782 6.20203 9.049C6.50703 8.402 7.11403 8 7.78703 8H16.213C16.886 8 17.493 8.402 17.798 9.049C18.144 9.782 18.043 10.649 17.54 11.259L13.326 16.358C12.99 16.767 12.506 17 12 17Z" fill="#231F20"/>
<mask id="mask0" mask-type="alpha" maskUnits="userSpaceOnUse" x="5" y="8" width="14" height="9">
<path id="Mask_2" fill-rule="evenodd" clip-rule="evenodd" d="M12 17C11.494 17 11.01 16.767 10.674 16.358L6.46103 11.26C5.95703 10.649 5.85603 9.782 6.20203 9.049C6.50703 8.402 7.11403 8 7.78703 8H16.213C16.886 8 17.493 8.402 17.798 9.049C18.144 9.782 18.043 10.649 17.54 11.259L13.326 16.358C12.99 16.767 12.506 17 12 17Z" fill="white"/>
</mask>
<g mask="url(#mask0)">
<g id="&#240;&#159;&#142;&#168; Color">
<rect id="Base" width="24" height="24" fill="#0D1C2E"/>
</g>
</g>
</g>
</svg>
