<svg fill="none" height="64" viewBox="0 0 64 64" width="64" xmlns="http://www.w3.org/2000/svg"><path clip-rule="evenodd" d="m27.0366 41.8411-7.632-8c-.1147-.12-.1707-.2693-.2587-.4026-.096-.144-.2107-.272-.2773-.432-.1307-.3227-.2027-.664-.2027-1.0054 0-.3493.072-.696.2053-1.0213.136-.3253.3307-.6213.5787-.8667l7.9973-7.9973c1.0427-1.0427 2.7307-1.0427 3.7707 0 1.0427 1.04 1.0427 2.728 0 3.7707l-3.448 3.448h14.896c1.4747 0 2.6667 1.192 2.6667 2.6666 0 1.472-1.192 2.6667-2.6667 2.6667h-15.1013l3.3306 3.4907c1.016 1.0666.9787 2.752-.088 3.7706-1.0666 1.0187-2.7546.976-3.7706-.088zm31.6292-9.84c0-14.7066-11.9626-26.66663-26.6666-26.66663s-26.66668 11.96003-26.66668 26.66663c0 14.704 11.96268 26.6667 26.66668 26.6667s26.6666-11.9627 26.6666-26.6667z" fill="#6b7280" fill-rule="evenodd"/></svg>