<svg fill="none" height="24" viewBox="0 0 24 24" width="24" xmlns="http://www.w3.org/2000/svg"><path clip-rule="evenodd" d="m4.99998 13h11.86502l-3.633 4.36c-.354.424-.296 1.055.128 1.408.425.354 1.055.296 1.409-.128l5-6c.039-.047.058-.102.087-.154.024-.042.053-.078.071-.124.045-.115.072-.236.072-.358 0-.001.001-.003.001-.004s-.001-.003-.001-.004c0-.122-.027-.243-.072-.358-.018-.046-.047-.082-.071-.124-.029-.052-.048-.107-.087-.154l-5-6c-.199-.237-.483-.36-.769-.36-.226 0-.453.076-.64.232-.424.353-.482.984-.128 1.408l3.633 4.36h-11.86502c-.552 0-1 .448-1 1s.448 1 1 1" fill="#6b7280" fill-rule="evenodd"/></svg>