<svg width="24" height="24" viewBox="0 0 24 24" fill="none" xmlns="http://www.w3.org/2000/svg">
<g id="Icon/Fill/arrowhead-left">
<path id="Mask" fill-rule="evenodd" clip-rule="evenodd" d="M18.7685 6.64019L14.2925 12.0112L18.6075 17.3732C18.9535 17.8032 18.8855 18.4322 18.4555 18.7792C18.2705 18.9282 18.0485 19.0002 17.8285 19.0002C17.5365 19.0002 17.2465 18.8722 17.0485 18.6272L12.2205 12.6272C11.9225 12.2562 11.9265 11.7252 12.2315 11.3602L17.2315 5.36019C17.5855 4.93519 18.2155 4.87919 18.6405 5.23219C19.0645 5.58519 19.1215 6.21619 18.7685 6.64019ZM10.2321 5.35989C10.5851 4.93589 11.2151 4.87889 11.6401 5.23189C12.0641 5.58589 12.1211 6.21589 11.7681 6.63989L7.2921 12.0109L11.6071 17.3729C11.9531 17.8029 11.8851 18.4329 11.4551 18.7789C11.2701 18.9279 11.0491 18.9999 10.8281 18.9999C10.5361 18.9999 10.2461 18.8729 10.0491 18.6269L5.2211 12.6269C4.9221 12.2559 4.9271 11.7259 5.2321 11.3599L10.2321 5.35989Z" fill="#231F20"/>
<mask id="mask0" mask-type="alpha" maskUnits="userSpaceOnUse" x="5" y="5" width="14" height="15">
<path id="Mask_2" fill-rule="evenodd" clip-rule="evenodd" d="M18.7685 6.64019L14.2925 12.0112L18.6075 17.3732C18.9535 17.8032 18.8855 18.4322 18.4555 18.7792C18.2705 18.9282 18.0485 19.0002 17.8285 19.0002C17.5365 19.0002 17.2465 18.8722 17.0485 18.6272L12.2205 12.6272C11.9225 12.2562 11.9265 11.7252 12.2315 11.3602L17.2315 5.36019C17.5855 4.93519 18.2155 4.87919 18.6405 5.23219C19.0645 5.58519 19.1215 6.21619 18.7685 6.64019ZM10.2321 5.35989C10.5851 4.93589 11.2151 4.87889 11.6401 5.23189C12.0641 5.58589 12.1211 6.21589 11.7681 6.63989L7.2921 12.0109L11.6071 17.3729C11.9531 17.8029 11.8851 18.4329 11.4551 18.7789C11.2701 18.9279 11.0491 18.9999 10.8281 18.9999C10.5361 18.9999 10.2461 18.8729 10.0491 18.6269L5.2211 12.6269C4.9221 12.2559 4.9271 11.7259 5.2321 11.3599L10.2321 5.35989Z" fill="white"/>
</mask>
<g mask="url(#mask0)">
<g id="&#240;&#159;&#142;&#168; Color">
<rect id="Base" width="24" height="24" fill="#0D1C2E"/>
</g>
</g>
</g>
</svg>
