<svg fill="none" height="24" viewBox="0 0 24 24" width="24" xmlns="http://www.w3.org/2000/svg"><path clip-rule="evenodd" d="m13.8613 8.30951 2.862 2.99999c.043.045.064.101.097.151.036.054.079.102.104.162.049.121.076.249.076.377 0 .131-.027.261-.077.383-.051.122-.124.233-.217.325l-2.999 2.999c-.391.391-1.024.391-1.414 0-.391-.39-.391-1.023 0-1.414l1.293-1.293h-5.58596c-.553 0-1-.447-1-1 0-.552.447-1 1-1h5.66296l-1.249-1.30899c-.381-.4-.367-1.032.033-1.414s1.033-.366 1.414.033zm-11.86098 3.68999c0 5.515 4.486 10 9.99998 10 5.514 0 10-4.485 10-10 0-5.51399-4.486-9.99999-10-9.99999-5.51398 0-9.99998 4.486-9.99998 9.99999z" fill="#6b7280" fill-rule="evenodd"/></svg>