<svg fill="none" height="64" viewBox="0 0 64 64" width="64" xmlns="http://www.w3.org/2000/svg"><path clip-rule="evenodd" d="m31.9722 19.4465-14.2987 11.5066c-1.1467.9227-2.824.7414-3.7493-.4053-.9227-1.1493-.7414-2.8267.4053-3.752l16-12.8747c.9893-.7946 2.4027-.7866 3.3787.032l16 13.3334c1.1333.9413 1.2853 2.6213.3413 3.7546-.528.632-1.2853.96-2.048.96-.6027 0-1.208-.2053-1.7067-.6186zm-1.6439 13.1424c.9894-.7973 2.4027-.7866 3.3787.0294l16 13.3333c1.1307.944 1.2827 2.624.3413 3.7547-.528.6346-1.2853.96-2.0506.96-.6 0-1.2054-.2027-1.704-.6187l-14.3227-11.9333-14.2987 11.504c-1.1466.9253-2.824.744-3.7493-.4054-.9253-1.1466-.7413-2.824.4053-3.7493z" fill="#6b7280" fill-rule="evenodd"/></svg>