<svg fill="none" height="64" viewBox="0 0 64 64" width="64" xmlns="http://www.w3.org/2000/svg"><path d="m34.7549 11.9932c1.9714-1.9591 5.1553-1.959 7.127 0l.0058.0048 12.6426 12.6368c1.959 1.9699 1.9593 5.1512.002 7.122l-.002.003-18.9902 19.1875h12.9004c1.3956 0 2.5283 1.131 2.5283 2.5263-.0002 1.3951-1.1328 2.5264-2.5283 2.5264h-26.5371c-.6796 0-1.3313-.2745-1.8067-.7598l-10.62694-10.8496-.00781-.0078c-1.95177-1.9713-1.94936-5.1482.00781-7.1162l.00586-.0049 25.27438-25.2637zm-19.1709-3.9932c1.142 0 2.0683.92488 2.0684 2.0664 0 1.9026 1.5428 3.4453 3.4463 3.4453 1.1419.0001 2.0671.9251 2.0673 2.0664 0 1.1416-.9253 2.0674-2.0673 2.0674-1.9035 0-3.4463 1.5427-3.4463 3.4453-.0002 1.1415-.9264 2.0664-2.0684 2.0664-1.1419-.0001-2.0672-.925-2.0674-2.0664 0-1.9026-1.5438-3.4453-3.4472-3.4453-1.1419-.0002-2.06741-.9259-2.06741-2.0674.00021-1.1412.92564-2.0662 2.06741-2.0664 1.9034 0 3.4472-1.5427 3.4472-3.4453.0001-1.14146.9255-2.06631 2.0674-2.0664z" fill="#000"/></svg>