<svg fill="none" height="64" viewBox="0 0 64 64" width="64" xmlns="http://www.w3.org/2000/svg"><path clip-rule="evenodd" d="m36.9636 22.1587 7.632 8c.1147.12.1707.2693.2587.4027.096.144.2106.272.2773.432.1307.3226.2027.664.2027 1.0053 0 .3493-.072.696-.2054 1.0213-.136.3254-.3306.6214-.5786.8667l-7.9974 7.9973c-1.0426 1.0427-2.7306 1.0427-3.7706 0-1.0427-1.04-1.0427-2.728 0-3.7706l3.448-3.448h-14.896c-1.4747 0-2.6667-1.192-2.6667-2.6667 0-1.472 1.192-2.6667 2.6667-2.6667h15.1013l-3.3307-3.4906c-1.016-1.0667-.9786-2.752.088-3.7707 1.0667-1.0187 2.7547-.976 3.7707.088zm-31.62937 9.84c0 14.7067 11.96267 26.6667 26.66667 26.6667s26.6667-11.96 26.6667-26.6667c0-14.704-11.9627-26.66667-26.6667-26.66667s-26.66667 11.96267-26.66667 26.66667z" fill="#6b7280" fill-rule="evenodd"/></svg>