<svg width="24" height="24" viewBox="0 0 24 24" fill="none" xmlns="http://www.w3.org/2000/svg">
<g id="Icon/Fill/arrow-circle-down">
<path id="Mask" fill-rule="evenodd" clip-rule="evenodd" d="M15.6904 13.8613L12.6904 16.7233C12.6454 16.7663 12.5894 16.7873 12.5394 16.8203C12.4854 16.8563 12.4374 16.8993 12.3774 16.9243C12.2564 16.9733 12.1284 17.0003 12.0004 17.0003C11.8694 17.0003 11.7394 16.9733 11.6174 16.9233C11.4954 16.8723 11.3844 16.7993 11.2924 16.7063L8.29343 13.7073C7.90243 13.3163 7.90243 12.6833 8.29343 12.2933C8.68343 11.9023 9.31643 11.9023 9.70743 12.2933L11.0004 13.5863V8.00031C11.0004 7.44731 11.4474 7.00031 12.0004 7.00031C12.5524 7.00031 13.0004 7.44731 13.0004 8.00031V13.6633L14.3094 12.4143C14.7094 12.0333 15.3414 12.0473 15.7234 12.4473C16.1054 12.8473 16.0894 13.4803 15.6904 13.8613ZM12.0004 2.00031C6.48543 2.00031 2.00043 6.48631 2.00043 12.0003C2.00043 17.5143 6.48543 22.0003 12.0004 22.0003C17.5144 22.0003 22.0004 17.5143 22.0004 12.0003C22.0004 6.48631 17.5144 2.00031 12.0004 2.00031Z" fill="#231F20"/>
<mask id="mask0" mask-type="alpha" maskUnits="userSpaceOnUse" x="2" y="2" width="21" height="21">
<path id="Mask_2" fill-rule="evenodd" clip-rule="evenodd" d="M15.6904 13.8613L12.6904 16.7233C12.6454 16.7663 12.5894 16.7873 12.5394 16.8203C12.4854 16.8563 12.4374 16.8993 12.3774 16.9243C12.2564 16.9733 12.1284 17.0003 12.0004 17.0003C11.8694 17.0003 11.7394 16.9733 11.6174 16.9233C11.4954 16.8723 11.3844 16.7993 11.2924 16.7063L8.29343 13.7073C7.90243 13.3163 7.90243 12.6833 8.29343 12.2933C8.68343 11.9023 9.31643 11.9023 9.70743 12.2933L11.0004 13.5863V8.00031C11.0004 7.44731 11.4474 7.00031 12.0004 7.00031C12.5524 7.00031 13.0004 7.44731 13.0004 8.00031V13.6633L14.3094 12.4143C14.7094 12.0333 15.3414 12.0473 15.7234 12.4473C16.1054 12.8473 16.0894 13.4803 15.6904 13.8613ZM12.0004 2.00031C6.48543 2.00031 2.00043 6.48631 2.00043 12.0003C2.00043 17.5143 6.48543 22.0003 12.0004 22.0003C17.5144 22.0003 22.0004 17.5143 22.0004 12.0003C22.0004 6.48631 17.5144 2.00031 12.0004 2.00031Z" fill="white"/>
</mask>
<g mask="url(#mask0)">
<g id="&#240;&#159;&#142;&#168; Color">
<rect id="Base" width="24" height="24" fill="#0D1C2E"/>
</g>
</g>
</g>
</svg>
