<svg fill="none" height="64" viewBox="0 0 64 64" width="64" xmlns="http://www.w3.org/2000/svg"><path clip-rule="evenodd" d="m41.841 36.9637-8 7.632c-.12.1147-.2693.1707-.4027.2587-.144.096-.272.2107-.432.2773-.3226.1307-.664.2027-1.0053.2027-.3493 0-.696-.072-1.0213-.2053-.3254-.136-.6214-.3307-.8667-.5787l-7.9973-7.9973c-1.0427-1.0427-1.0427-2.7307 0-3.7707 1.04-1.0427 2.728-1.0427 3.7706 0l3.448 3.448v-14.896c0-1.4747 1.192-2.6667 2.6667-2.6667 1.472 0 2.6667 1.192 2.6667 2.6667v15.1013l3.4906-3.3306c1.0667-1.016 2.752-.9787 3.7707.088 1.0187 1.0666.976 2.7546-.088 3.7706zm-9.84-31.62947c-14.7066 0-26.66665 11.96267-26.66665 26.66667s11.96005 26.6667 26.66665 26.6667c14.704 0 26.6667-11.9627 26.6667-26.6667s-11.9627-26.66667-26.6667-26.66667z" fill="#6b7280" fill-rule="evenodd"/></svg>