<svg fill="none" height="24" viewBox="0 0 24 24" width="24" xmlns="http://www.w3.org/2000/svg"><path clip-rule="evenodd" d="m8.30952 10.1386 2.99998-2.86202c.045-.043.101-.064.151-.097.054-.036.102-.079.162-.104.121-.049.249-.076.377-.076.131 0 .261.027.383.077.122.051.233.124.325.217l2.999 2.99902c.391.391.391 1.024 0 1.414-.39.391-1.023.391-1.414 0l-1.293-1.293v5.586c0 .553-.447 1-1 1-.552 0-1-.447-1-1v-5.663l-1.30898 1.249c-.4.381-1.032.367-1.414-.033s-.366-1.033.033-1.414zm3.68998 11.8609c5.515 0 10-4.486 10-10 0-5.51399-4.485-9.99999-10-9.99999-5.51399 0-9.99999 4.486-9.99999 9.99999 0 5.514 4.486 10 9.99999 10z" fill="#6b7280" fill-rule="evenodd"/></svg>