<svg fill="none" height="24" viewBox="0 0 24 24" width="24" xmlns="http://www.w3.org/2000/svg"><path clip-rule="evenodd" d="m10.1387 15.6905-2.86199-3c-.043-.045-.064-.101-.097-.151-.036-.054-.079-.102-.104-.162-.049-.121-.076-.249-.076-.377 0-.131.027-.261.077-.383.051-.122.124-.233.217-.325l2.99899-2.99901c.391-.391 1.024-.391 1.414 0 .391.39.391 1.023 0 1.414l-1.293 1.29301h5.586c.553 0 1 .447 1 1 0 .552-.447 1-1 1h-5.663l1.249 1.309c.381.4.367 1.032-.033 1.414s-1.033.366-1.414-.033zm11.861-3.69c0-5.51501-4.486-10.00001-10-10.00001-5.51401 0-10.00001 4.485-10.00001 10.00001 0 5.514 4.486 10 10.00001 10 5.514 0 10-4.486 10-10z" fill="#6b7280" fill-rule="evenodd"/></svg>