<svg fill="none" height="24" viewBox="0 0 24 24" width="24" xmlns="http://www.w3.org/2000/svg"><path clip-rule="evenodd" d="m19 11.0002h-11.86502l3.63302-4.36005c.354-.424.296-1.055-.128-1.408-.425-.354-1.05502-.296-1.40802.128l-5 6.00005c-.039.047-.059.102-.088.154-.024.042-.053.078-.071.124-.045.115-.072.236-.072.358 0 .001-.001.003-.001.004s.001.003.001.004c0 .122.027.243.072.358.018.046.047.082.071.124.029.052.049.107.088.154l5 6c.198.237.482.36.768.36.22602 0 .45302-.076.64002-.232.424-.353.482-.984.128-1.408l-3.63302-4.36h11.86502c.552 0 1-.448 1-1s-.448-1-1-1" fill="#6b7280" fill-rule="evenodd"/></svg>