<svg fill="none" height="64" viewBox="0 0 64 64" width="64" xmlns="http://www.w3.org/2000/svg"><path clip-rule="evenodd" d="m22.1587 27.0364 8-7.632c.12-.1146.2694-.1706.4027-.2586.144-.096.272-.2107.432-.2774.3227-.1306.664-.2026 1.0053-.2026.3494 0 .696.072 1.0214.2053.3253.136.6213.3307.8666.5787l7.9974 7.9973c1.0426 1.0427 1.0426 2.7307 0 3.7707-1.04 1.0426-2.728 1.0426-3.7707 0l-3.448-3.448v14.896c0 1.4746-1.192 2.6666-2.6667 2.6666-1.472 0-2.6666-1.192-2.6666-2.6666v-15.1014l-3.4907 3.3307c-1.0667 1.016-2.752.9787-3.7707-.088-1.0186-1.0667-.976-2.7547.088-3.7707zm9.84 31.6292c14.7067 0 26.6667-11.9627 26.6667-26.6667s-11.96-26.66662-26.6667-26.66662c-14.704 0-26.66667 11.96262-26.66667 26.66662s11.96267 26.6667 26.66667 26.6667z" fill="#6b7280" fill-rule="evenodd"/></svg>