<svg fill="none" height="64" viewBox="0 0 64 64" width="64" xmlns="http://www.w3.org/2000/svg"><path clip-rule="evenodd" d="m32.0004 32.0004c-.6054 0-1.2134-.2053-1.7067-.6187l-16-13.3333c-1.1307-.944-1.2827-2.624-.3413-3.7546.944-1.1334 2.6213-1.2827 3.7546-.3414l14.3227 11.9333 14.2987-11.5039c1.1466-.9227 2.8293-.7414 3.7493.4053.9253 1.1467.7413 2.824-.4053 3.7493l-16 12.8747c-.488.392-1.08.5893-1.672.5893zm.029 12.5536 14.2986-11.5067c1.1467-.92 2.8294-.7386 3.7494.4054.9226 1.1493.7413 2.8266-.4054 3.752l-15.9999 12.8746c-.488.392-1.08.5867-1.672.5867-.608 0-1.2134-.2053-1.7067-.6187l-16-13.3333c-1.1333-.9413-1.2853-2.6213-.3413-3.7547.9413-1.1306 2.6213-1.2853 3.7546-.3413z" fill="#6b7280" fill-rule="evenodd"/></svg>