<svg fill="none" height="24" viewBox="0 0 24 24" width="24" xmlns="http://www.w3.org/2000/svg"><path clip-rule="evenodd" d="m13.9514 5.37276 4.828 6.00004c.299.371.294.901-.011 1.267l-5 6c-.198.237-.482.36-.769.36-.225 0-.452-.076-.639-.232-.425-.353-.482-.984-.128-1.408l4.476-5.371-4.316-5.36204c-.346-.43-.278-1.06.153-1.406.43-.347 1.059-.278 1.406.152zm-8.40618-.152c.43-.346 1.059-.278 1.406.152l4.82798 6.00004c.298.371.294.901-.011 1.267l-4.99998 6c-.198.237-.482.36-.769.36-.225 0-.452-.076-.639-.232-.425-.353-.482-.984-.128-1.408l4.475-5.371-4.315-5.36204c-.346-.43-.277-1.06.153-1.406z" fill="#6b7280" fill-rule="evenodd"/></svg>