<svg width="24" height="24" viewBox="0 0 24 24" fill="none" xmlns="http://www.w3.org/2000/svg">
<g id="Icon/Fill/arrow-circle-left">
<path id="Mask" fill-rule="evenodd" clip-rule="evenodd" d="M10.1387 15.6904L7.27669 12.6904C7.2337 12.6454 7.21269 12.5894 7.17969 12.5394C7.14369 12.4854 7.10069 12.4374 7.0757 12.3774C7.02669 12.2564 6.99969 12.1284 6.99969 12.0004C6.99969 11.8694 7.02669 11.7394 7.07669 11.6174C7.12769 11.4954 7.2007 11.3844 7.29369 11.2924L10.2927 8.29343C10.6837 7.90243 11.3167 7.90243 11.7067 8.29343C12.0977 8.68343 12.0977 9.31643 11.7067 9.70743L10.4137 11.0004H15.9997C16.5527 11.0004 16.9997 11.4474 16.9997 12.0004C16.9997 12.5524 16.5527 13.0004 15.9997 13.0004H10.3367L11.5857 14.3094C11.9667 14.7094 11.9527 15.3414 11.5527 15.7234C11.1527 16.1054 10.5197 16.0894 10.1387 15.6904ZM21.9997 12.0004C21.9997 6.48543 17.5137 2.00043 11.9997 2.00043C6.48569 2.00043 1.99969 6.48543 1.99969 12.0004C1.99969 17.5144 6.48569 22.0004 11.9997 22.0004C17.5137 22.0004 21.9997 17.5144 21.9997 12.0004Z" fill="#231F20"/>
<mask id="mask0" mask-type="alpha" maskUnits="userSpaceOnUse" x="1" y="2" width="21" height="21">
<path id="Mask_2" fill-rule="evenodd" clip-rule="evenodd" d="M10.1387 15.6904L7.27669 12.6904C7.2337 12.6454 7.21269 12.5894 7.17969 12.5394C7.14369 12.4854 7.10069 12.4374 7.0757 12.3774C7.02669 12.2564 6.99969 12.1284 6.99969 12.0004C6.99969 11.8694 7.02669 11.7394 7.07669 11.6174C7.12769 11.4954 7.2007 11.3844 7.29369 11.2924L10.2927 8.29343C10.6837 7.90243 11.3167 7.90243 11.7067 8.29343C12.0977 8.68343 12.0977 9.31643 11.7067 9.70743L10.4137 11.0004H15.9997C16.5527 11.0004 16.9997 11.4474 16.9997 12.0004C16.9997 12.5524 16.5527 13.0004 15.9997 13.0004H10.3367L11.5857 14.3094C11.9667 14.7094 11.9527 15.3414 11.5527 15.7234C11.1527 16.1054 10.5197 16.0894 10.1387 15.6904ZM21.9997 12.0004C21.9997 6.48543 17.5137 2.00043 11.9997 2.00043C6.48569 2.00043 1.99969 6.48543 1.99969 12.0004C1.99969 17.5144 6.48569 22.0004 11.9997 22.0004C17.5137 22.0004 21.9997 17.5144 21.9997 12.0004Z" fill="white"/>
</mask>
<g mask="url(#mask0)">
<g id="&#240;&#159;&#142;&#168; Color">
<rect id="Base" width="24" height="24" fill="#0D1C2E"/>
</g>
</g>
</g>
</svg>
