<svg viewBox="0 0 64 64" fill="none" xmlns="http://www.w3.org/2000/svg">
<path fill-rule="evenodd" clip-rule="evenodd" d="M10.667 10.5C12.1396 10.5002 13.333 11.6943 13.333 13.167V51C13.3328 52.4725 12.1395 53.6658 10.667 53.666C9.19434 53.666 8.00017 52.4726 8 51V13.167C8 11.6942 9.19423 10.5 10.667 10.5Z M54 10.5C55.4726 10.5002 56.666 11.6943 56.666 13.167V51C56.6658 52.4725 55.4725 53.6658 54 53.666C52.5273 53.666 51.3332 52.4726 51.333 51V13.167C51.333 11.6942 52.5272 10.5 54 10.5Z M32.0811 20.1143C33.1224 19.0733 34.8103 19.0731 35.8516 20.1143L44.6328 28.8955C46.5853 30.8482 46.7086 33.9395 45 36.0342L44.6328 36.4375L35.8516 45.2188C34.8102 46.2601 33.1225 46.2599 32.0811 45.2188C31.0397 44.1774 31.0397 42.4896 32.0811 41.4482L38.1953 35.333H17.9658C16.4932 35.3329 15.3 34.1396 15.2998 32.667C15.2998 31.1943 16.4931 30.0001 17.9658 30H38.1953L32.0811 23.8857C31.0397 22.8443 31.0397 21.1557 32.0811 20.1143Z" fill="#141414"/>
</svg>