<svg fill="none" height="64" viewBox="0 0 64 64" width="64" xmlns="http://www.w3.org/2000/svg"><path clip-rule="evenodd" d="m50.0488 35.6265c-.944-1.1307-2.624-1.2853-3.7547-.3413l-11.6266 9.688v-31.64c0-1.472-1.1947-2.6667-2.6667-2.6667s-2.6667 1.1947-2.6667 2.6667v31.64l-11.6266-9.688c-1.1334-.944-2.8134-.7894-3.7547.3413-.944 1.1307-.792 2.8133.3413 3.7547l16 13.3333c.1254.1067.2747.1573.4134.2373.1093.064.2053.1387.3253.1867.312.1227.6373.1947.968.1947s.656-.072.968-.1947c.12-.048.216-.1227.3253-.1867.1387-.08.288-.1306.4134-.2373l16-13.3333c1.1306-.9414 1.2853-2.624.3413-3.7547z" fill="#6b7280" fill-rule="evenodd"/></svg>