<svg fill="none" height="24" viewBox="0 0 24 24" width="24" xmlns="http://www.w3.org/2000/svg"><path clip-rule="evenodd" d="m15.6904 13.8613-3 2.862c-.045.043-.101.064-.151.097-.054.036-.102.079-.162.104-.121.049-.249.076-.377.076-.131 0-.261-.027-.383-.077-.122-.051-.233-.124-.325-.217l-2.99901-2.999c-.391-.391-.391-1.024 0-1.414.39-.391 1.023-.391 1.414 0l1.29301 1.293v-5.58599c0-.553.447-1 1-1 .552 0 1 .447 1 1v5.66299l1.309-1.249c.4-.381 1.032-.367 1.414.033s.366 1.033-.033 1.414zm-3.69-11.86106c-5.515 0-10 4.486-10 9.99996 0 5.514 4.485 10 10 10 5.514 0 10-4.486 10-10 0-5.51396-4.486-9.99996-10-9.99996z" fill="#6b7280" fill-rule="evenodd"/></svg>