<svg fill="none" height="64" viewBox="0 0 64 64" width="64" xmlns="http://www.w3.org/2000/svg"><path clip-rule="evenodd" d="m29.8176 40.2418c-4.544 0-8.2427-3.6986-8.2427-8.2426s3.6987-8.2427 8.2427-8.2427 8.2426 3.6987 8.2426 8.2427-3.6986 8.2426-8.2426 8.2426zm4.728-34.79162c-8.0027-.752-15.8293 2.08267-21.464 7.75732-5.63735 5.672-8.41335 13.52-7.61335 21.528.95467 9.5253 6.95735 17.8187 15.66935 21.64 3.4853 1.528 7.1813 2.2773 10.8507 2.2773 5.7813 0 11.5013-1.864 16.224-5.48 1.1706-.896 1.392-2.5706.496-3.7413-.896-1.1653-2.568-1.3867-3.7387-.4933-6.1813 4.7333-14.4907 5.704-21.6907 2.552-6.848-3.0027-11.752-9.7867-12.504-17.288-.64-6.4134 1.5787-12.696 6.0907-17.2374 4.5067-4.5386 10.7787-6.8106 17.1867-6.2026 10.8133 1.0053 19.28 10.5973 19.28 21.8373v1.8c0 1.248-.496 2.4107-1.4 3.2747-.9014.864-2.096 1.3066-3.3414 1.2533-2.384-.104-4.3253-2.3467-4.3253-4.9973v-11.5307c0-1.4747-1.192-2.6667-2.6667-2.6667-1.3573 0-2.4293 1.0214-2.6 2.3334-2.4213-2.24-5.632-3.6427-9.1813-3.6427-7.4853 0-13.576 6.0933-13.576 13.576 0 7.4853 6.0907 13.576 13.576 13.576 4.5333 0 8.5307-2.256 10.9973-5.68 1.72 2.5067 4.448 4.224 7.5414 4.36 2.7013.144 5.2986-.848 7.264-2.728 1.9653-1.88 3.0453-4.4107 3.0453-7.128v-1.8c0-13.9653-10.592-25.88799-24.12-27.14932z" fill="#6b7280" fill-rule="evenodd"/></svg>