<svg fill="none" height="24" viewBox="0 0 24 24" width="24" xmlns="http://www.w3.org/2000/svg"><path clip-rule="evenodd" d="m11.1816 15.0908c-1.70403 0-3.09103-1.387-3.09103-3.091s1.387-3.09099 3.09103-3.09099c1.704 0 3.091 1.38699 3.091 3.09099s-1.387 3.091-3.091 3.091zm1.773-13.04686c-3.00104-.282-5.93604.781-8.04904 2.909-2.114 2.127-3.155 5.06996-2.855 8.07296.358 3.572 2.609 6.682 5.876 8.115 1.307.573 2.69304.854 4.06904.854 2.168 0 4.313-.699 6.084-2.055.439-.336.522-.964.186-1.403-.336-.437-.963-.52-1.402-.185-2.318 1.775-5.434 2.139-8.13404.957-2.568-1.126-4.407-3.67-4.689-6.483-.24-2.405.592-4.76096 2.284-6.46396 1.69-1.702 4.04204-2.554 6.44504-2.326 4.055.377 7.23 3.974 7.23 8.18896v.675c0 .468-.186.904-.525 1.228-.338.324-.786.49-1.253.47-.894-.039-1.622-.88-1.622-1.874v-4.32396c0-.553-.447-1-1-1-.509 0-.911.383-.975.875-.908-.84-2.112-1.366-3.443-1.366-2.80704 0-5.09104 2.285-5.09104 5.09096 0 2.807 2.284 5.091 5.09104 5.091 1.7 0 3.199-.846 4.124-2.13.645.94 1.668 1.584 2.828 1.635 1.013.054 1.987-.318 2.724-1.023s1.142-1.654 1.142-2.673v-.675c0-5.23696-3.972-9.70796-9.045-10.18096z" fill="#6b7280" fill-rule="evenodd"/></svg>