<svg fill="none" height="64" viewBox="0 0 64 64" width="64" xmlns="http://www.w3.org/2000/svg"><path clip-rule="evenodd" d="m32 58.6668c-8.824 0-16-6.8186-16-15.1946v-27.12c0-6.0747 5.184-11.0187 11.5547-11.0187 6.3733 0 11.5573 4.944 11.5573 11.0187l-.016 27.1386c0 3.7707-3.192 6.84-7.112 6.84s-7.1093-3.0693-7.1093-6.8426l.0133-25.0427c.0027-1.472 1.1973-2.664 2.6667-2.664h.0026c1.472 0 2.6667 1.1947 2.664 2.6693l-.0133 25.04c0 .8294.7947 1.5067 1.776 1.5067s1.7787-.6773 1.7787-1.5093l.016-27.1387c0-3.1333-2.792-5.6827-6.224-5.6827-3.4294 0-6.2214 2.5494-6.2214 5.6854v27.12c0 5.4373 4.784 9.8613 10.6667 9.8613s10.6667-4.424 10.6667-9.8613v-27.12c0-1.4747 1.1946-2.6667 2.6666-2.6667s2.6667 1.192 2.6667 2.6667v27.12c0 8.376-7.176 15.1946-16 15.1946z" fill="#6b7280" fill-rule="evenodd"/></svg>