<svg width="64" height="64" viewBox="0 0 64 64" fill="none" xmlns="http://www.w3.org/2000/svg">
  <path
    d="M32.2625 28.0885C33.2175 28.0885 34.0824 28.3321 34.8562 28.818C35.6464 29.3038 36.2716 29.9489 36.7325 30.7528C37.1935 31.557 37.425 32.4288 37.425 33.367C37.4249 34.8243 36.9134 36.0809 35.8925 37.1363C34.8883 38.1748 33.6784 38.6945 32.2625 38.6945C30.8301 38.6945 29.6034 38.1749 28.5825 37.1363C27.5782 36.0809 27.0764 34.8243 27.0762 33.367C27.0762 31.9429 27.5781 30.7105 28.5825 29.6718C29.6033 28.6164 30.8301 28.0885 32.2625 28.0885Z
      M39.9925 5.2203C42.627 4.73445 44.7268 5.0521 46.2912 6.17455C47.8719 7.29705 48.9011 9.18263 49.3787 11.8298L50.6062 18.7908H55.8737C58.5411 18.7908 60.5585 19.4858 61.925 20.8763C63.3081 22.2502 64 24.2778 64 26.9584V50.8323C64 53.5127 63.3081 55.5406 61.925 56.9145C60.5585 58.3047 58.5411 59 55.8737 59H22.185C19.5015 58.9999 17.4765 58.3046 16.11 56.9145C14.7433 55.5406 14.06 53.5127 14.06 50.8323V50.708L13.665 50.7821C11.0305 51.2347 8.92193 50.9073 7.34122 49.8015C5.77731 48.6791 4.75617 46.7945 4.27872 44.1475L0.203721 20.6503C-0.257317 18.0032 0.0642715 15.8836 1.16747 14.292C2.28716 12.6837 4.16431 11.6363 6.79872 11.1505L39.9925 5.2203ZM22.4575 23.7165C21.3052 23.7165 20.4242 24.026 19.815 24.6456C19.2222 25.2488 18.925 26.1623 18.925 27.3853V48.114L24.31 43.2937C24.7709 42.9085 25.2315 42.6147 25.6925 42.4136C26.1533 42.2129 26.6227 42.1123 27.1 42.1122C27.6104 42.1122 28.105 42.2128 28.5825 42.4136C29.0764 42.5981 29.554 42.9084 30.015 43.344L33.8925 46.9124L43.6237 38.1408C44.1175 37.6885 44.6283 37.3624 45.155 37.1614C45.6982 36.9604 46.2661 36.8601 46.8587 36.8601C47.435 36.8601 48.0037 36.9687 48.5637 37.1865C49.1233 37.4043 49.6341 37.7304 50.095 38.1659L59.135 46.8094V27.3853C59.135 26.1623 58.822 25.2488 58.1962 24.6456C57.5871 24.0257 56.7134 23.7165 55.5775 23.7165H22.4575ZM43.2775 10.5729C42.5694 10.0872 41.6644 9.93543 40.5612 10.1196L7.93497 15.9757C6.79889 16.1768 5.97539 16.6377 5.46497 17.3581C4.971 18.0618 4.8309 19.0171 5.04497 20.2234L8.99622 42.8907C9.21026 44.0969 9.66344 44.9435 10.355 45.4295C11.063 45.9151 11.9851 46.0571 13.1212 45.8564L14.06 45.6869V26.9584C14.06 24.261 14.7433 22.2251 16.11 20.8512C17.4765 19.4776 19.5014 18.7909 22.185 18.7908H45.6712L44.6862 13.0854C44.4723 11.8959 44.0019 11.0588 43.2775 10.5729Z"
    fill="#141414"
    fill-rule="evenodd"
    clip-rule="evenodd"
  />
</svg>