<svg fill="none" height="64" viewBox="0 0 64 64" width="64" xmlns="http://www.w3.org/2000/svg"><path clip-rule="evenodd" d="m24.7828 56.0002c-4.416 0-8.6134-1.776-11.8187-5-6.36799-6.408-6.62932-16.568-.584-22.6507l19.696-19.81334c2.0507-2.064 4.8187-3.20266 7.792-3.20266 3.1813 0 6.2053 1.27733 8.512 3.59733 4.5893 4.61597 4.7653 11.95197.3893 16.35197l-19.72 19.8107c-1.2773 1.288-2.9973 1.9947-4.8426 1.9947-1.9494 0-3.7974-.7787-5.2-2.1894-2.808-2.8293-2.896-7.3386-.1947-10.0586l18.2-18.28c1.04-1.0454 2.7253-1.0507 3.7707-.0107 1.0426 1.04 1.048 2.728.008 3.7707l-18.1974 18.2826c-.64.6454-.552 1.784.1974 2.536.3893.392.9066.616 1.416.616.2933 0 .7146-.072 1.0613-.4213l19.72-19.8107c2.312-2.328 2.1387-6.288-.3893-8.832-2.4187-2.432-6.5227-2.624-8.7414-.3946l-19.696 19.8133c-3.984 4.008-3.7226 10.7973.5867 15.1307 2.1947 2.2106 5.048 3.4266 8.0347 3.4266 2.6693 0 5.144-1.008 6.9626-2.8373l19.6987-19.8133c1.0373-1.0427 2.7253-1.0507 3.7707-.0107 1.0426 1.04 1.048 2.7253.0106 3.7707l-19.6986 19.8133c-2.8267 2.8427-6.6427 4.4107-10.744 4.4107z" fill="#6b7280" fill-rule="evenodd"/></svg>