<svg width="64" height="64" viewBox="0 0 64 64" fill="none" xmlns="http://www.w3.org/2000/svg">
<path d="M40.6426 8C42.7892 8 44.5629 7.99985 46.0029 8.11719C47.5042 8.23986 48.8825 8.50446 50.1758 9.16309C52.1828 10.1857 53.8143 11.8172 54.8369 13.8242C55.4956 15.1176 55.7601 16.4965 55.8828 17.9951C56.0001 19.4403 56 21.2108 56 23.3545V40.6426C56 42.7892 56.0001 44.5629 55.8828 46.0029C55.7601 47.5042 55.4955 48.8825 54.8369 50.1758C53.8143 52.1828 52.1828 53.8143 50.1758 54.8369C48.8824 55.4956 47.5035 55.7601 46.0049 55.8828C44.5623 56.0001 42.7892 56 40.6455 56H23.3545C21.2081 56 19.435 56.0001 17.9951 55.8828C16.4938 55.7601 15.1146 55.4956 13.8213 54.8369C11.8144 53.8143 10.1828 52.1827 9.16016 50.1758C8.50153 48.8825 8.23692 47.5035 8.11426 46.0049C7.99963 44.5597 8 42.7892 8 40.6455V23.3545C8 21.2081 7.99989 19.435 8.11719 17.9951C8.23985 16.4938 8.50442 15.1146 9.16309 13.8213C10.1857 11.8144 11.8173 10.1828 13.8242 9.16016C15.1175 8.50153 16.4965 8.23692 17.9951 8.11426C19.4404 7.99963 21.2137 8 23.3574 8H40.6426ZM31.9824 19C31.3025 19 30.7043 19.1849 30.1885 19.5537C29.6729 19.8995 29.2275 20.4645 28.8525 21.248L19.8496 40.6455C19.5449 41.2678 19.4395 41.8328 19.5332 42.3398C19.6504 42.847 19.9081 43.2511 20.3066 43.5508C20.7286 43.8504 21.2684 44 21.9248 44C22.6748 44 23.2372 43.8271 23.6123 43.4814C24.0109 43.1126 24.3866 42.5246 24.7383 41.7178L26.1709 38.3984H37.7695L39.2266 41.7178C39.5548 42.5015 39.9306 43.0775 40.3525 43.4463C40.7979 43.8151 41.4189 43.9999 42.2158 44C42.8488 44 43.3651 43.8616 43.7637 43.585C44.1621 43.2853 44.3964 42.882 44.4668 42.375C44.5606 41.8448 44.4552 41.2679 44.1504 40.6455L35.0771 21.248C34.7256 20.4645 34.2919 19.8995 33.7764 19.5537C33.2606 19.1849 32.6623 19 31.9824 19ZM31.9824 25.0166L35.9385 34.2148H27.9854L31.9121 25.0166H31.9824Z" fill="black"/>
</svg>
