<svg fill="none" height="24" viewBox="0 0 24 24" width="24" xmlns="http://www.w3.org/2000/svg"><path clip-rule="evenodd" d="m12 4.00006c2.206 0 4 1.794 4 4 0 2.20604-1.794 4.00004-4 4.00004-2.20599 0-3.99999-1.794-3.99999-4.00004 0-2.206 1.794-4 3.99999-4zm6.969 16.75094-2.309-8.979c.836-1.032 1.34-2.343 1.34-3.772 0-3.309-2.691-6-6-6s-6 2.691-6 6c0 1.429.504 2.74 1.34 3.772l-2.309 8.979c-.1.392.044.805.367 1.048s.76.265 1.108.063l5.33-3.129 5.68 3.142c.151.084.318.125.484.125.217 0 .433-.07.612-.209.316-.244.456-.653.357-1.04z" fill="#6b7280" fill-rule="evenodd"/></svg>