<svg fill="none" height="64" viewBox="0 0 64 64" width="64" xmlns="http://www.w3.org/2000/svg"><path clip-rule="evenodd" d="m32.0001 10.6668c5.8826 0 10.6666 4.784 10.6666 10.6666 0 5.8827-4.784 10.6667-10.6666 10.6667-5.8827 0-10.6667-4.784-10.6667-10.6667 0-5.8826 4.784-10.6666 10.6667-10.6666zm18.5839 44.6691-6.1573-23.944c2.2294-2.752 3.5733-6.248 3.5733-10.0586 0-8.824-7.176-16.00005-16-16.00005s-16 7.17605-16 16.00005c0 3.8106 1.344 7.3066 3.5734 10.0586l-6.1574 23.944c-.2666 1.0453.1174 2.1467.9787 2.7947s2.0267.7066 2.9547.168l14.2133-8.344 15.1467 8.3786c.4026.224.848.3334 1.2906.3334.5787 0 1.1547-.1867 1.632-.5574.8427-.6506 1.216-1.7413.952-2.7733z" fill="#6b7280" fill-rule="evenodd"/></svg>