<svg width="24" height="24" viewBox="0 0 24 24" fill="none" xmlns="http://www.w3.org/2000/svg">
<g id="Icon/Fill/award">
<path id="Mask" fill-rule="evenodd" clip-rule="evenodd" d="M12 3.99991C14.206 3.99991 16 5.79391 16 7.99991C16 10.2059 14.206 11.9999 12 11.9999C9.79402 11.9999 8.00002 10.2059 8.00002 7.99991C8.00002 5.79391 9.79402 3.99991 12 3.99991ZM18.969 20.7509L16.66 11.7719C17.496 10.7399 18 9.42891 18 7.99991C18 4.69091 15.309 1.99991 12 1.99991C8.69102 1.99991 6.00002 4.69091 6.00002 7.99991C6.00002 9.42891 6.50402 10.7399 7.34002 11.7719L5.03102 20.7509C4.93102 21.1429 5.07502 21.5559 5.39802 21.7989C5.72102 22.0419 6.15802 22.0639 6.50602 21.8619L11.836 18.7329L17.516 21.8749C17.667 21.9589 17.834 21.9999 18 21.9999C18.217 21.9999 18.433 21.9299 18.612 21.7909C18.928 21.5469 19.068 21.1379 18.969 20.7509Z" fill="#231F20"/>
<mask id="mask0" mask-type="alpha" maskUnits="userSpaceOnUse" x="4" y="2" width="16" height="20">
<path id="Mask_2" fill-rule="evenodd" clip-rule="evenodd" d="M12 3.99991C14.206 3.99991 16 5.79391 16 7.99991C16 10.2059 14.206 11.9999 12 11.9999C9.79402 11.9999 8.00002 10.2059 8.00002 7.99991C8.00002 5.79391 9.79402 3.99991 12 3.99991ZM18.969 20.7509L16.66 11.7719C17.496 10.7399 18 9.42891 18 7.99991C18 4.69091 15.309 1.99991 12 1.99991C8.69102 1.99991 6.00002 4.69091 6.00002 7.99991C6.00002 9.42891 6.50402 10.7399 7.34002 11.7719L5.03102 20.7509C4.93102 21.1429 5.07502 21.5559 5.39802 21.7989C5.72102 22.0419 6.15802 22.0639 6.50602 21.8619L11.836 18.7329L17.516 21.8749C17.667 21.9589 17.834 21.9999 18 21.9999C18.217 21.9999 18.433 21.9299 18.612 21.7909C18.928 21.5469 19.068 21.1379 18.969 20.7509Z" fill="white"/>
</mask>
<g mask="url(#mask0)">
<g id="&#240;&#159;&#142;&#168; Color">
<rect id="Base" width="24" height="24" fill="#0D1C2E"/>
</g>
</g>
</g>
</svg>
