<svg width="24" height="24" viewBox="0 0 24 24" fill="none" xmlns="http://www.w3.org/2000/svg">
<g id="Icon/Fill/backspace">
<path id="Mask" fill-rule="evenodd" clip-rule="evenodd" d="M16.7069 13.293C17.0979 13.684 17.0979 14.316 16.7069 14.707C16.5119 14.902 16.2559 15 15.9999 15C15.7439 15 15.4879 14.902 15.2929 14.707L13.9999 13.414L12.7069 14.707C12.5119 14.902 12.2559 15 11.9999 15C11.7439 15 11.4879 14.902 11.2929 14.707C10.9019 14.316 10.9019 13.684 11.2929 13.293L12.5859 12L11.2929 10.707C10.9019 10.316 10.9019 9.684 11.2929 9.293C11.6839 8.902 12.3159 8.902 12.7069 9.293L13.9999 10.586L15.2929 9.293C15.6839 8.902 16.3159 8.902 16.7069 9.293C17.0979 9.684 17.0979 10.316 16.7069 10.707L15.4139 12L16.7069 13.293ZM20.1409 4H10.3699C9.62194 4 8.90494 4.277 8.35194 4.781C8.31294 4.815 8.27794 4.854 8.24594 4.894L2.22194 12.373C1.88994 12.785 1.93594 13.384 2.32694 13.74L8.35194 19.219C8.90494 19.723 9.62194 20 10.3699 20H20.1409C21.1659 20 21.9999 19.185 21.9999 18.182V5.818C21.9999 4.815 21.1659 4 20.1409 4Z" fill="#231F20"/>
<mask id="mask0" mask-type="alpha" maskUnits="userSpaceOnUse" x="2" y="4" width="20" height="16">
<path id="Mask_2" fill-rule="evenodd" clip-rule="evenodd" d="M16.7069 13.293C17.0979 13.684 17.0979 14.316 16.7069 14.707C16.5119 14.902 16.2559 15 15.9999 15C15.7439 15 15.4879 14.902 15.2929 14.707L13.9999 13.414L12.7069 14.707C12.5119 14.902 12.2559 15 11.9999 15C11.7439 15 11.4879 14.902 11.2929 14.707C10.9019 14.316 10.9019 13.684 11.2929 13.293L12.5859 12L11.2929 10.707C10.9019 10.316 10.9019 9.684 11.2929 9.293C11.6839 8.902 12.3159 8.902 12.7069 9.293L13.9999 10.586L15.2929 9.293C15.6839 8.902 16.3159 8.902 16.7069 9.293C17.0979 9.684 17.0979 10.316 16.7069 10.707L15.4139 12L16.7069 13.293ZM20.1409 4H10.3699C9.62194 4 8.90494 4.277 8.35194 4.781C8.31294 4.815 8.27794 4.854 8.24594 4.894L2.22194 12.373C1.88994 12.785 1.93594 13.384 2.32694 13.74L8.35194 19.219C8.90494 19.723 9.62194 20 10.3699 20H20.1409C21.1659 20 21.9999 19.185 21.9999 18.182V5.818C21.9999 4.815 21.1659 4 20.1409 4Z" fill="white"/>
</mask>
<g mask="url(#mask0)">
<g id="&#240;&#159;&#142;&#168; Color">
<rect id="Base" width="24" height="24" fill="#0D1C2E"/>
</g>
</g>
</g>
</svg>
