<svg fill="none" height="64" viewBox="0 0 64 64" width="64" xmlns="http://www.w3.org/2000/svg"><path clip-rule="evenodd" d="m44.5521 35.4475c1.0426 1.0427 1.0426 2.728 0 3.7707-.52.52-1.2027.7813-1.8854.7813-.6826 0-1.3653-.2613-1.8853-.7813l-3.448-3.448-3.448 3.448c-.52.52-1.2027.7813-1.8853.7813-.6827 0-1.3654-.2613-1.8854-.7813-1.0426-1.0427-1.0426-2.728 0-3.7707l3.448-3.448-3.448-3.448c-1.0426-1.0427-1.0426-2.728 0-3.7707 1.0427-1.0426 2.728-1.0426 3.7707 0l3.448 3.448 3.448-3.448c1.0427-1.0426 2.728-1.0426 3.7707 0 1.0426 1.0427 1.0426 2.728 0 3.7707l-3.448 3.448zm9.1572-24.781h-26.056c-1.9946 0-3.9066.7387-5.3813 2.0827-.104.0906-.1973.1946-.2827.3013l-16.06396 19.944c-.88533 1.0987-.76266 2.696.28 3.6453l16.06666 14.6107c1.4747 1.344 3.3867 2.0827 5.3813 2.0827h26.056c2.7334 0 4.9574-2.1734 4.9574-4.848v-32.9707c0-2.6747-2.224-4.848-4.9574-4.848z" fill="#6b7280" fill-rule="evenodd"/></svg>