<svg fill="none" height="24" viewBox="0 0 24 24" width="24" xmlns="http://www.w3.org/2000/svg"><path clip-rule="evenodd" d="m16.707 13.2929c.391.391.391 1.023 0 1.414-.195.195-.451.293-.707.293s-.512-.098-.707-.293l-1.293-1.293-1.293 1.293c-.195.195-.451.293-.707.293s-.512-.098-.707-.293c-.391-.391-.391-1.023 0-1.414l1.293-1.293-1.293-1.293c-.391-.391-.391-1.02303 0-1.41403s1.023-.391 1.414 0l1.293 1.29303 1.293-1.29303c.391-.391 1.023-.391 1.414 0s.391 1.02303 0 1.41403l-1.293 1.293zm3.434-9.2929h-9.771c-.74801 0-1.46501.277-2.01801.781-.039.034-.074.073-.106.113l-6.024 7.479c-.332.412-.286 1.011.105 1.367l6.025 5.479c.553.504 1.27.781 2.01801.781h9.771c1.025 0 1.859-.815 1.859-1.818v-12.364c0-1.003-.834-1.818-1.859-1.818z" fill="#6b7280" fill-rule="evenodd"/></svg>