<svg viewBox="0 0 64 64" fill="none" xmlns="http://www.w3.org/2000/svg">
<path fill-rule="evenodd" clip-rule="evenodd" d="M14.1914 10.2345C13.1831 9.00035 11.3884 8.83659 10.1828 9.86875C8.97716 10.9009 8.81718 12.7381 9.82545 13.9723L20.1929 26.6626C21.2012 27.8968 22.9959 28.0605 24.2015 27.0284C25.4071 25.9962 25.5671 24.159 24.5588 22.9248L14.1914 10.2345Z M46.0998 15.2699C47.1108 14.0382 46.955 12.2006 45.7517 11.1655C44.5485 10.1305 42.7534 10.2901 41.7423 11.5218L27.6081 28.7417C26.5971 29.9735 26.7529 31.8111 27.9562 32.8461C29.1595 33.8811 30.9545 33.7216 31.9656 32.4898L46.0998 15.2699Z M32.4592 31.1249C32.4592 29.516 31.1851 28.2117 29.6134 28.2117C28.0418 28.2117 26.7677 29.516 26.7677 31.1249V53.0856C26.7677 54.6945 28.0418 55.9988 29.6134 55.9988C31.1851 55.9988 32.4592 54.6945 32.4592 53.0856V31.1249Z M49.5334 40.0891C49.5334 38.4802 48.2593 37.176 46.6877 37.176C45.116 37.176 43.8419 38.4802 43.8419 40.0891V53.0863C43.8419 54.6952 45.116 55.9994 46.6877 55.9994C48.2593 55.9994 49.5334 54.6952 49.5334 53.0863V40.0891Z M53.4738 29.7807C53.4738 27.9243 52.0037 26.4194 50.1902 26.4194C48.3768 26.4194 46.9067 27.9243 46.9067 29.7807C46.9067 31.6371 48.3768 33.142 50.1902 33.142C52.0037 33.142 53.4738 31.6371 53.4738 29.7807Z" fill="#141414"/>
</svg>