<svg fill="none" height="24" viewBox="0 0 24 24" width="24" xmlns="http://www.w3.org/2000/svg"><path clip-rule="evenodd" d="m11.2769 13h-4.27702c-.356 0-.686-.19-.865-.498s-.18-.689-.003-.998l3.145-5.504h-5.11c-1.195 0-2.167 1.089-2.167 2.429v7.142c0 1.34.972 2.429 2.167 2.429h4.253zm4.5566-7h-4.253l-2.85702 5h4.27702c.356 0 .686.19.864.498.179.308.18.689.004.998l-3.145 5.504h5.11c1.195 0 2.167-1.089 2.167-2.429v-7.142c0-1.34-.972-2.429-2.167-2.429zm4.1665 4c0-.552.448-1 1-1s1 .448 1 1v4c0 .552-.448 1-1 1s-1-.448-1-1z" fill="#6b7280" fill-rule="evenodd"/></svg>