<svg fill="none" height="64" viewBox="0 0 64 64" width="64" xmlns="http://www.w3.org/2000/svg"><path clip-rule="evenodd" d="m30.0717 34.6667h-11.4054c-.9493 0-1.8293-.5067-2.3066-1.328-.4774-.8214-.48-1.8374-.008-2.6614l8.3866-14.6773h-13.6266c-3.18669 0-5.77869 2.904-5.77869 6.4773v19.0454c0 3.5733 2.592 6.4773 5.77869 6.4773h11.3413zm12.1509-18.6667h-11.3413l-7.6187 13.3333h11.4053c.9494 0 1.8294.5067 2.304 1.328.4774.8214.48 1.8374.0107 2.6614l-8.3867 14.6773h13.6267c3.1867 0 5.7787-2.904 5.7787-6.4773v-19.0454c0-3.5733-2.592-6.4773-5.7787-6.4773zm11.1107 10.6667c0-1.472 1.1946-2.6667 2.6666-2.6667s2.6667 1.1947 2.6667 2.6667v10.6666c0 1.472-1.1947 2.6667-2.6667 2.6667s-2.6666-1.1947-2.6666-2.6667z" fill="#6b7280" fill-rule="evenodd"/></svg>