<svg width="24" height="24" viewBox="0 0 24 24" fill="none" xmlns="http://www.w3.org/2000/svg">
<g id="Icon/Fill/battery">
<path id="Mask" fill-rule="evenodd" clip-rule="evenodd" d="M4.16649 6H15.8335C17.0285 6 18.0005 7.089 18.0005 8.429V15.571C18.0005 16.911 17.0285 18 15.8335 18H4.16649C2.97149 18 2.00049 16.911 2.00049 15.571V8.429C2.00049 7.089 2.97149 6 4.16649 6ZM20 10C20 9.448 20.448 9 21 9C21.552 9 22 9.448 22 10V14C22 14.552 21.552 15 21 15C20.448 15 20 14.552 20 14V10Z" fill="#000000"/>
</g>
</svg>
