<svg fill="none" height="24" viewBox="0 0 24 24" width="24" xmlns="http://www.w3.org/2000/svg"><path clip-rule="evenodd" d="m9.40526 9.66931c.60504 0 .95904.325.95904.85299 0 .566-.38304.886-1.25104.886h-.853v-1.73899zm5.35924 1.51899c-.626 0-1.038.478-1.038 1.096v.009h2.061v-.009c0-.623-.402-1.096-1.023-1.096zm-5.27775 1.1153h-1.227v1.934h.959c1.02095 0 1.43795-.325 1.43795-.944 0-.614-.413-.99-1.16995-.99zm7.53815.7499h-3.298v.132c0 .732.441 1.196 1.091 1.196.509 0 .868-.236.975-.628h1.184c-.121.774-.791 1.543-2.169 1.543-1.411 0-2.333-.828-2.333-2.306v-.442c0-1.415.926-2.252 2.28-2.252 1.402 0 2.27.896 2.27 2.283zm-3.775-3.35105h3v-.5h-3zm-3.55206 5.50005h-2.723v-6.49999h2.728c1.16996 0 1.93696.606 1.93696 1.60099 0 .79-.475 1.267-1.122 1.424v.056c.786.077 1.457.611 1.457 1.586 0 1.163-.949 1.833-2.27696 1.833zm2.30206-13.20299c-5.52303 0-10.00003 4.478-10.00003 9.99999 0 5.523 4.477 10 10.00003 10 5.523 0 10-4.477 10-10 0-5.52199-4.477-9.99999-10-9.99999z" fill="#6b7280" fill-rule="evenodd"/></svg>