<svg fill="none" height="64" viewBox="0 0 64 64" width="64" xmlns="http://www.w3.org/2000/svg"><path clip-rule="evenodd" d="m25.0807 25.7848c1.6133 0 2.5573.8667 2.5573 2.2747 0 1.5093-1.0213 2.3627-3.336 2.3627h-2.2746v-4.6374zm14.2914 4.0508c-1.6693 0-2.768 1.2747-2.768 2.9227v.024h5.496v-.024c0-1.6614-1.072-2.9227-2.728-2.9227zm-14.0741 2.974h-3.272v5.1574h2.5573c2.7227 0 3.8347-.8667 3.8347-2.5174 0-1.6373-1.1013-2.64-3.12-2.64zm20.1017 1.9998h-8.7947v.352c0 1.952 1.176 3.1893 2.9093 3.1893 1.3574 0 2.3147-.6293 2.6-1.6747h3.1574c-.3227 2.064-2.1094 4.1147-5.784 4.1147-3.7627 0-6.2214-2.208-6.2214-6.1493v-1.1787c0-3.7733 2.4694-6.0053 6.08-6.0053 3.7387 0 6.0534 2.3893 6.0534 6.088zm-10.0667-8.9362h8v-1.3333h-8zm-9.4721 14.6668h-7.2613v-17.3333h7.2747c3.12 0 5.1653 1.616 5.1653 4.2693 0 2.1067-1.2667 3.3787-2.992 3.7974v.1493c2.096.2053 3.8853 1.6293 3.8853 4.2293 0 3.1014-2.5306 4.888-6.072 4.888zm6.1388-35.20797c-14.728 0-26.66669 11.94137-26.66669 26.66667 0 14.728 11.93869 26.6667 26.66669 26.6667s26.6666-11.9387 26.6666-26.6667c0-14.7253-11.9386-26.66667-26.6666-26.66667z" fill="#6b7280" fill-rule="evenodd"/></svg>