<svg width="24" height="24" viewBox="0 0 24 24" fill="none" xmlns="http://www.w3.org/2000/svg">
<g id="Icon/Fill/behance">
<path id="Mask" fill-rule="evenodd" clip-rule="evenodd" d="M9.40528 9.6695C10.0103 9.6695 10.3643 9.9945 10.3643 10.5225C10.3643 11.0885 9.98128 11.4085 9.11328 11.4085H8.26028V9.6695H9.40528ZM14.7646 11.1885C14.1386 11.1885 13.7266 11.6665 13.7266 12.2845V12.2935H15.7876V12.2845C15.7876 11.6615 15.3856 11.1885 14.7646 11.1885ZM9.48678 12.3037H8.25978V14.2377H9.21878C10.2398 14.2377 10.6568 13.9127 10.6568 13.2937C10.6568 12.6797 10.2438 12.3037 9.48678 12.3037ZM17.0249 13.0537H13.7269V13.1857C13.7269 13.9177 14.1679 14.3817 14.8179 14.3817C15.3269 14.3817 15.6859 14.1457 15.7929 13.7537H16.9769C16.8559 14.5277 16.1859 15.2967 14.8079 15.2967C13.3969 15.2967 12.4749 14.4687 12.4749 12.9907V12.5487C12.4749 11.1337 13.4009 10.2967 14.7549 10.2967C16.1569 10.2967 17.0249 11.1927 17.0249 12.5797V13.0537ZM13.2499 9.7027H16.2499V9.2027H13.2499V9.7027ZM9.69788 15.2027H6.97488V8.7027H9.70288C10.8729 8.7027 11.6399 9.3087 11.6399 10.3037C11.6399 11.0937 11.1649 11.5707 10.5179 11.7277V11.7837C11.3039 11.8607 11.9749 12.3947 11.9749 13.3697C11.9749 14.5327 11.0259 15.2027 9.69788 15.2027ZM11.9999 1.9997C6.47688 1.9997 1.99988 6.4777 1.99988 11.9997C1.99988 17.5227 6.47688 21.9997 11.9999 21.9997C17.5229 21.9997 21.9999 17.5227 21.9999 11.9997C21.9999 6.4777 17.5229 1.9997 11.9999 1.9997Z" fill="#231F20"/>
<mask id="mask0" mask-type="alpha" maskUnits="userSpaceOnUse" x="1" y="1" width="21" height="21">
<path id="Mask_2" fill-rule="evenodd" clip-rule="evenodd" d="M9.40528 9.6695C10.0103 9.6695 10.3643 9.9945 10.3643 10.5225C10.3643 11.0885 9.98128 11.4085 9.11328 11.4085H8.26028V9.6695H9.40528ZM14.7646 11.1885C14.1386 11.1885 13.7266 11.6665 13.7266 12.2845V12.2935H15.7876V12.2845C15.7876 11.6615 15.3856 11.1885 14.7646 11.1885ZM9.48678 12.3037H8.25978V14.2377H9.21878C10.2398 14.2377 10.6568 13.9127 10.6568 13.2937C10.6568 12.6797 10.2438 12.3037 9.48678 12.3037ZM17.0249 13.0537H13.7269V13.1857C13.7269 13.9177 14.1679 14.3817 14.8179 14.3817C15.3269 14.3817 15.6859 14.1457 15.7929 13.7537H16.9769C16.8559 14.5277 16.1859 15.2967 14.8079 15.2967C13.3969 15.2967 12.4749 14.4687 12.4749 12.9907V12.5487C12.4749 11.1337 13.4009 10.2967 14.7549 10.2967C16.1569 10.2967 17.0249 11.1927 17.0249 12.5797V13.0537ZM13.2499 9.7027H16.2499V9.2027H13.2499V9.7027ZM9.69788 15.2027H6.97488V8.7027H9.70288C10.8729 8.7027 11.6399 9.3087 11.6399 10.3037C11.6399 11.0937 11.1649 11.5707 10.5179 11.7277V11.7837C11.3039 11.8607 11.9749 12.3947 11.9749 13.3697C11.9749 14.5327 11.0259 15.2027 9.69788 15.2027ZM11.9999 1.9997C6.47688 1.9997 1.99988 6.4777 1.99988 11.9997C1.99988 17.5227 6.47688 21.9997 11.9999 21.9997C17.5229 21.9997 21.9999 17.5227 21.9999 11.9997C21.9999 6.4777 17.5229 1.9997 11.9999 1.9997Z" fill="white"/>
</mask>
<g mask="url(#mask0)">
<g id="&#240;&#159;&#142;&#168; Color">
<rect id="Base" width="24" height="24" fill="#0D1C2E"/>
</g>
</g>
</g>
</svg>
