<svg fill="none" height="64" viewBox="0 0 64 64" width="64" xmlns="http://www.w3.org/2000/svg"><path clip-rule="evenodd" d="m37.3334 48.9098c0 2.3973-2.4427 4.424-5.3334 4.424-2.8906 0-5.3333-2.0267-5.3333-4.424v-.9094h10.6667zm17.3892-8.3572-4.8027-4.808v-11.9147c0-9.2826-6.672-17.16529-15.5226-18.33863-5.1227-.68-10.296.88267-14.176 4.28534-3.904 3.41869-6.1414 8.33869-6.1414 13.49599l-.0026 12.472-4.80005 4.8107c-1.25067 1.2507-1.62133 3.1173-.944 4.752.68 1.6346 2.26135 2.6933 4.03205 2.6933h8.968v.9094c0 5.3813 4.784 9.7573 10.6666 9.7573 5.8827 0 10.6667-4.376 10.6667-9.7573v-.9094h8.9653c1.7707 0 3.352-1.056 4.0294-2.6933.68-1.6347.3093-3.5014-.9387-4.7547z" fill="#6b7280" fill-rule="evenodd"/></svg>