<svg fill="none" height="24" viewBox="0 0 24 24" width="24" xmlns="http://www.w3.org/2000/svg"><path clip-rule="evenodd" d="m14 18.3412c0 .899-.916 1.659-2 1.659s-2-.76-2-1.659v-.341h4zm6.521-3.1339-1.801-1.803v-4.46804c0-3.481-2.502-6.437-5.821-6.877-1.921-.255-3.86101.331-5.31601 1.607-1.464 1.282-2.303 3.127-2.303 5.061l-.001 4.67704-1.8 1.804c-.469.469-.608 1.169-.354 1.782.255.613.848 1.01 1.512 1.01h3.363v.341c0 2.018 1.794 3.659 4.00001 3.659 2.206 0 4-1.641 4-3.659v-.341h3.362c.664 0 1.257-.396 1.511-1.01.255-.613.116-1.313-.352-1.783z" fill="#6b7280" fill-rule="evenodd"/></svg>