<svg fill="none" height="64" viewBox="0 0 64 64" width="64" xmlns="http://www.w3.org/2000/svg"><path clip-rule="evenodd" d="m19.0052 11.4633 3.9094 3.9067 25.408 25.4107 5.3146 5.3146.816.8134c.504-.4347.9414-.9547 1.208-1.6.68-1.6347.3094-3.504-.9386-4.7547l-4.8027-4.8107v-11.912c0-9.2827-6.672-17.16799-15.5227-18.33866-5.1226-.68266-10.296.88267-14.176 4.28534-.5173.45332-1.0026.93602-1.4613 1.44002zm18.3282 37.4465c0 2.3973-2.4427 4.424-5.3334 4.424-2.8906 0-5.3333-2.0267-5.3333-4.424v-.9093h10.6667zm5.0105.9761-1.5627-1.5627-3.5866-3.584-.184-.1866-19.4747-19.4747-3.3707-3.3707c-.0453.52-.0853 1.04-.0853 1.5654l-.0026 12.472-4.80005 4.8106c-1.25067 1.2507-1.62133 3.1174-.944 4.752.68 1.6347 2.26135 2.6934 4.03205 2.6934h8.9679v.9093c0 5.3813 4.784 9.7573 10.6667 9.7573 5.4453 0 9.8987-3.7626 10.536-8.5893zm9.4079-1.905 3.4666 3.4667c1.0427 1.0426 1.0427 2.728 0 3.7706-.52.52-1.2026.7814-1.8853.7814s-1.3653-.2614-1.8853-.7814l-7.2187-7.2186-1.5627-1.5627-3.5866-3.5867-.184-.184-19.4747-19.4746-4.672-4.6694-5.96799-5.9706c-1.04267-1.0427-1.04267-2.72802 0-3.77068 1.04267-1.04267 2.72799-1.04267 3.77069 0l4.568 4.56798 3.9093 3.9067 25.408 25.4106z" fill="#6b7280" fill-rule="evenodd"/></svg>