<svg fill="none" height="24" viewBox="0 0 24 24" width="24" xmlns="http://www.w3.org/2000/svg"><path clip-rule="evenodd" d="m7.12698 4.29859 1.466 1.465 9.52802 9.52901 1.993 1.993.306.305c.189-.163.353-.358.453-.6.255-.613.116-1.314-.352-1.783l-1.801-1.804v-4.46701c0-3.481-2.502-6.438-5.821-6.877-1.921-.256-3.86102.331-5.31602 1.607-.194.17-.376.351-.548.54zm6.87302 14.04241c0 .899-.916 1.659-2 1.659s-2-.76-2-1.659v-.341h4zm1.879.3661-.586-.586-1.345-1.344-.069-.07-7.30301-7.30304-1.264-1.264c-.017.195-.032.39-.032.587l-.001 4.67704-1.8 1.804c-.469.469-.608 1.169-.354 1.782.255.613.848 1.01 1.512 1.01h3.363v.341c0 2.018 1.794 3.659 4.00001 3.659 2.042 0 3.712-1.411 3.951-3.221zm3.528-.7144 1.3 1.3c.391.391.391 1.023 0 1.414-.195.195-.451.293-.707.293s-.512-.098-.707-.293l-2.707-2.707-.586-.586-1.345-1.345-.069-.069-7.30301-7.30301-1.752-1.751-2.238-2.239c-.391-.391-.391-1.023 0-1.414s1.023-.391 1.414 0l1.713 1.713 1.466 1.465 9.52801 9.52901z" fill="#6b7280" fill-rule="evenodd"/></svg>