<svg width="24" height="24" viewBox="0 0 24 24" fill="none" xmlns="http://www.w3.org/2000/svg">
<g id="Icon/Fill/bell-off">
<path id="Mask" fill-rule="evenodd" clip-rule="evenodd" d="M7.12697 4.29877L8.59297 5.76377L18.121 15.2928L20.114 17.2858L20.42 17.5908C20.609 17.4278 20.773 17.2328 20.873 16.9908C21.128 16.3778 20.989 15.6768 20.521 15.2078L18.72 13.4038V8.93677C18.72 5.45577 16.218 2.49877 12.899 2.05977C10.978 1.80377 9.03797 2.39077 7.58297 3.66677C7.38897 3.83677 7.20697 4.01777 7.03497 4.20677L7.12697 4.29877ZM14 18.3413C14 19.2403 13.084 20.0003 12 20.0003C10.916 20.0003 9.99997 19.2403 9.99997 18.3413V18.0003H14V18.3413ZM15.879 18.7073L15.293 18.1213L13.948 16.7773L13.879 16.7073L6.57597 9.40427L5.31197 8.14027C5.29497 8.33527 5.27997 8.53027 5.27997 8.72727L5.27897 13.4043L3.47897 15.2083C3.00997 15.6773 2.87097 16.3773 3.12497 16.9903C3.37997 17.6033 3.97297 18.0003 4.63697 18.0003H7.99997V18.3413C7.99997 20.3593 9.79397 22.0003 12 22.0003C14.042 22.0003 15.712 20.5893 15.951 18.7793L15.879 18.7073ZM19.407 17.993L20.707 19.293C21.098 19.684 21.098 20.316 20.707 20.707C20.512 20.902 20.256 21 20 21C19.744 21 19.488 20.902 19.293 20.707L16.586 18L16 17.414L14.655 16.069L14.586 16L7.28297 8.69697L5.53097 6.94597L3.29297 4.70697C2.90197 4.31597 2.90197 3.68397 3.29297 3.29297C3.68397 2.90197 4.31597 2.90197 4.70697 3.29297L6.41997 5.00597L7.88597 6.47097L17.414 16L19.407 17.993Z" fill="#231F20"/>
<mask id="mask0" mask-type="alpha" maskUnits="userSpaceOnUse" x="2" y="2" width="20" height="21">
<path id="Mask_2" fill-rule="evenodd" clip-rule="evenodd" d="M7.12697 4.29877L8.59297 5.76377L18.121 15.2928L20.114 17.2858L20.42 17.5908C20.609 17.4278 20.773 17.2328 20.873 16.9908C21.128 16.3778 20.989 15.6768 20.521 15.2078L18.72 13.4038V8.93677C18.72 5.45577 16.218 2.49877 12.899 2.05977C10.978 1.80377 9.03797 2.39077 7.58297 3.66677C7.38897 3.83677 7.20697 4.01777 7.03497 4.20677L7.12697 4.29877ZM14 18.3413C14 19.2403 13.084 20.0003 12 20.0003C10.916 20.0003 9.99997 19.2403 9.99997 18.3413V18.0003H14V18.3413ZM15.879 18.7073L15.293 18.1213L13.948 16.7773L13.879 16.7073L6.57597 9.40427L5.31197 8.14027C5.29497 8.33527 5.27997 8.53027 5.27997 8.72727L5.27897 13.4043L3.47897 15.2083C3.00997 15.6773 2.87097 16.3773 3.12497 16.9903C3.37997 17.6033 3.97297 18.0003 4.63697 18.0003H7.99997V18.3413C7.99997 20.3593 9.79397 22.0003 12 22.0003C14.042 22.0003 15.712 20.5893 15.951 18.7793L15.879 18.7073ZM19.407 17.993L20.707 19.293C21.098 19.684 21.098 20.316 20.707 20.707C20.512 20.902 20.256 21 20 21C19.744 21 19.488 20.902 19.293 20.707L16.586 18L16 17.414L14.655 16.069L14.586 16L7.28297 8.69697L5.53097 6.94597L3.29297 4.70697C2.90197 4.31597 2.90197 3.68397 3.29297 3.29297C3.68397 2.90197 4.31597 2.90197 4.70697 3.29297L6.41997 5.00597L7.88597 6.47097L17.414 16L19.407 17.993Z" fill="white"/>
</mask>
<g mask="url(#mask0)">
<g id="&#240;&#159;&#142;&#168; Color">
<rect id="Base" width="24" height="24" fill="#0D1C2E"/>
</g>
</g>
</g>
</svg>
