<svg viewBox="0 0 64 64" fill="none" xmlns="http://www.w3.org/2000/svg">
<path fill-rule="evenodd" clip-rule="evenodd" d="M32.5339 33.8673C33.2703 33.8673 33.8673 34.4642 33.8673 35.2006C33.8673 35.937 33.2703 36.5339 32.5339 36.5339H28.5339V33.8673H32.5339Z M32.5339 25.8673C33.2703 25.8673 33.8673 26.4642 33.8673 27.2006C33.8673 27.937 33.2703 28.5339 32.5339 28.5339H28.5339V25.8673H32.5339Z M31.2006 4.53394C45.9215 4.5501 57.8511 16.4797 57.8673 31.2006C57.8673 45.9282 45.9282 57.8673 31.2006 57.8673C16.473 57.8673 4.53394 45.9282 4.53394 31.2006C4.53394 16.473 16.473 4.53394 31.2006 4.53394ZM31.2006 17.8673C29.7278 17.8673 28.5339 19.0612 28.5339 20.5339H23.2006V41.8673H28.5339C28.5339 43.34 29.7278 44.5339 31.2006 44.5339C32.6734 44.5339 33.8673 43.34 33.8673 41.8673V41.7345C36.9717 41.1008 39.2012 38.3691 39.2006 35.2006C39.1959 33.7534 38.7158 32.3476 37.8334 31.2006C38.7162 30.0538 39.1963 28.6478 39.2006 27.2006C39.2 24.0331 36.9707 21.3028 33.8673 20.6694V20.5339C33.8673 19.0612 32.6734 17.8673 31.2006 17.8673Z" fill="#141414"/>
</svg>