<svg fill="none" height="64" viewBox="0 0 64 64" width="64" xmlns="http://www.w3.org/2000/svg"><path clip-rule="evenodd" d="m34.6667 48.6653v-10.856l6.5787 6.344zm0-33.3044 6.6587 4.6214-6.6587 6.2853zm1.6774 16.6564 10.7066-10.1067c.6693-.6347 1.0107-1.52.9414-2.432-.0721-.9147-.5467-1.7413-1.3067-2.2667l-12.464-8.65062c-.9573-.672-2.2-.74667-3.24-.20533-1.016.53066-1.648 1.56533-1.648 2.69865v16.5493l-8.5147-10.6053c-.9253-1.152-2.6-1.3333-3.7493-.4107-1.1493.92-1.3333 2.6-.4107 3.7467l9.264 11.5387-9.3466 11.8053c-.9147 1.1547-.72 2.8293.4346 3.7467.4907.3866 1.0747.5733 1.656.5733.784 0 1.5627-.344 2.0907-1.0107l8.576-10.8293v16.784c0 1.1307.6267 2.1627 1.6347 2.696.464.2427.9653.3627 1.4666.3627.6187 0 1.2347-.184 1.7707-.5494l12.3786-8.496c.76-.5226 1.24-1.3466 1.312-2.2586.0747-.9094-.2613-1.7947-.92-2.4267z" fill="#6b7280" fill-rule="evenodd"/></svg>