<svg viewBox="0 0 64 64" fill="none" xmlns="http://www.w3.org/2000/svg">
<path fill-rule="evenodd" clip-rule="evenodd" d="M57.5 7.40671C56.0946 6.23152 54.4477 5.38016 52.6762 4.91309C50.9047 4.44602 49.0521 4.37469 47.25 4.70417L37.695 6.4392C35.489 6.84431 33.4832 7.97929 32 9.66175C30.5129 7.97638 28.5014 6.84115 26.29 6.4392L16.75 4.70417C14.9479 4.3744 13.0953 4.44479 11.3234 4.91036C9.55155 5.37593 7.90366 6.2253 6.49641 7.39835C5.08917 8.57139 3.95697 10.0394 3.17996 11.6985C2.40295 13.3577 2.00012 15.1673 2 16.9994L2 43.9823C2.00014 46.9093 3.02744 49.7435 4.90283 51.9908C6.77822 54.2381 9.38277 55.756 12.2625 56.28L27.9775 59.1375C30.6374 59.6208 33.3626 59.6208 36.0225 59.1375L51.75 56.28C54.6274 55.7534 57.2291 54.2344 59.102 51.9873C60.9749 49.7403 62.0004 46.9075 62 43.9823V16.9994C62.0011 15.1679 61.5985 13.3588 60.8207 11.7008C60.0429 10.0427 58.9091 8.57657 57.5 7.40671ZM29.5 54.3199C29.29 54.2899 29.08 54.2549 28.87 54.2174L13.1575 51.3624C11.4294 51.048 9.86648 50.137 8.74122 48.7883C7.61595 47.4396 6.99973 45.7388 7 43.9823V16.9994C7 15.0102 7.79018 13.1025 9.1967 11.696C10.6032 10.2894 12.5109 9.49924 14.5 9.49924C14.9527 9.50032 15.4045 9.54132 15.85 9.62175L25.4 11.3718C26.549 11.582 27.5882 12.188 28.3371 13.0844C29.086 13.9809 29.4975 15.1112 29.5 16.2793V54.3199ZM57 43.9823C57.0003 45.7388 56.384 47.4396 55.2588 48.7883C54.1335 50.137 52.5706 51.048 50.8425 51.3624L35.13 54.2174C34.92 54.2549 34.71 54.2899 34.5 54.3199V16.2793C34.4998 15.1084 34.9106 13.9745 35.6608 13.0753C36.411 12.1762 37.4529 11.5689 38.605 11.3593L48.1575 9.60925C49.2393 9.41242 50.3511 9.45587 51.4143 9.73652C52.4774 10.0172 53.4658 10.5282 54.3095 11.2333C55.1532 11.9384 55.8316 12.8204 56.2965 13.8169C56.7615 14.8133 57.0016 15.8998 57 16.9994V43.9823Z" fill="#141414"/>
</svg>