<svg width="24" height="24" viewBox="0 0 24 24" fill="none" xmlns="http://www.w3.org/2000/svg">
<g id="Icon/Fill/bookmark">
<path id="Mask" fill-rule="evenodd" clip-rule="evenodd" d="M6 21C5.83 21 5.66 20.957 5.507 20.87C5.194 20.693 5 20.36 5 20V5.333C5 4.047 5.987 3 7.2 3H16.8C18.013 3 19 4.047 19 5.333V20C19 20.355 18.811 20.685 18.504 20.864C18.197 21.044 17.818 21.046 17.508 20.871L11.836 17.663L6.515 20.857C6.356 20.952 6.178 21 6 21Z" fill="#231F20"/>
<mask id="mask0" mask-type="alpha" maskUnits="userSpaceOnUse" x="5" y="3" width="14" height="19">
<path id="Mask_2" fill-rule="evenodd" clip-rule="evenodd" d="M6 21C5.83 21 5.66 20.957 5.507 20.87C5.194 20.693 5 20.36 5 20V5.333C5 4.047 5.987 3 7.2 3H16.8C18.013 3 19 4.047 19 5.333V20C19 20.355 18.811 20.685 18.504 20.864C18.197 21.044 17.818 21.046 17.508 20.871L11.836 17.663L6.515 20.857C6.356 20.952 6.178 21 6 21Z" fill="white"/>
</mask>
<g mask="url(#mask0)">
<g id="&#240;&#159;&#142;&#168; Color">
<rect id="Base" width="24" height="24" fill="#0D1C2E"/>
</g>
</g>
</g>
</svg>
