<svg fill="none" height="64" viewBox="0 0 64 64" width="64" xmlns="http://www.w3.org/2000/svg"><path clip-rule="evenodd" d="m26.6667 14.6668c0-.736.5974-1.3333 1.3334-1.3333h8c.736 0 1.3333.5973 1.3333 1.3333v4h-10.6667zm-8 41.3332h26.6667v-37.3333h-2.6667v-4c0-3.6747-2.992-6.6667-6.6666-6.6667h-8c-3.6747 0-6.6667 2.992-6.6667 6.6667v4h-2.6667zm32-37.3335v37.3333c4.4107 0 8-3.5893 8-8v-21.3333c0-4.4107-3.5893-8-8-8zm-45.33333 8c0-4.4107 3.58934-8 8.00003-8v37.3333c-4.41069 0-8.00003-3.5893-8.00003-8z" fill="#6b7280" fill-rule="evenodd"/></svg>