<svg width="24" height="24" viewBox="0 0 24 24" fill="none" xmlns="http://www.w3.org/2000/svg">
<g id="Icon/Fill/browser">
<path id="Mask" fill-rule="evenodd" clip-rule="evenodd" d="M19 18.0346C19 18.5866 18.551 19.0346 18 19.0346H6C5.449 19.0346 5 18.5866 5 18.0346V11.0346H19V18.0346ZM8 6.03461C8.552 6.03461 9 6.48161 9 7.03461C9 7.58761 8.552 8.03461 8 8.03461C7.448 8.03461 7 7.58761 7 7.03461C7 6.48161 7.448 6.03461 8 6.03461ZM12 6.03461C12.552 6.03461 13 6.48161 13 7.03461C13 7.58761 12.552 8.03461 12 8.03461C11.448 8.03461 11 7.58761 11 7.03461C11 6.48161 11.448 6.03461 12 6.03461ZM18 3.03461H6C4.346 3.03461 3 4.38061 3 6.03461V9.03461V11.0346V18.0346C3 19.6886 4.346 21.0346 6 21.0346H18C19.654 21.0346 21 19.6886 21 18.0346V11.0346V9.03461V6.03461C21 4.38061 19.654 3.03461 18 3.03461Z" fill="#000000"/>
</g>
</svg>
