<svg fill="none" height="64" viewBox="0 0 64 64" width="64" xmlns="http://www.w3.org/2000/svg"><path clip-rule="evenodd" d="m50.6667 48.0929c0 1.472-1.1973 2.6667-2.6667 2.6667h-32c-1.4693 0-2.6666-1.1947-2.6666-2.6667v-18.6666h37.3333zm-29.3334-32.0001c1.472 0 2.6667 1.192 2.6667 2.6666 0 1.4747-1.1947 2.6667-2.6667 2.6667s-2.6667-1.192-2.6667-2.6667c0-1.4746 1.1947-2.6666 2.6667-2.6666zm10.6667 0c1.472 0 2.6667 1.192 2.6667 2.6666 0 1.4747-1.1947 2.6667-2.6667 2.6667s-2.6666-1.192-2.6666-2.6667c0-1.4746 1.1946-2.6666 2.6666-2.6666zm16-8.00003h-32c-4.4107 0-8 3.58933-8 8.00003v8 5.3333 18.6667c0 4.4106 3.5893 8 8 8h32c4.4107 0 8-3.5894 8-8v-18.6667-5.3333-8c0-4.4107-3.5893-8.00003-8-8.00003z" fill="#6b7280" fill-rule="evenodd"/></svg>