<svg fill="none" height="24" viewBox="0 0 24 24" width="24" xmlns="http://www.w3.org/2000/svg"><path clip-rule="evenodd" d="m16.3757 4.66785c.777-.777 2.047-.915 2.886-.207.493.417.746 1.002.738 1.596.007.537-.198 1.066-.602 1.47l-6.485 6.49095c-.183.184-.481.184-.665 0l-2.273-2.275c-.184-.184-.184-.483 0-.667zm-12.32172 11.74615c.032-1.836 1.275-3.496 3.07-3.866 2.92302-.603 5.33802 2.194 4.04302 5.19-.584 1.35-1.97102 2.177-3.44002 2.203h-.002l-3.246.059c-.266.005-.484-.213-.479-.479z" fill="#6b7280" fill-rule="evenodd"/></svg>