<svg fill="none" height="64" viewBox="0 0 64 64" width="64" xmlns="http://www.w3.org/2000/svg"><path clip-rule="evenodd" d="m43.6687 12.4474c2.072-2.072 5.4586-2.44 7.696-.552 1.3146 1.112 1.9893 2.672 1.968 4.256.0186 1.432-.528 2.8427-1.6054 3.92l-17.2933 17.3094c-.488.4906-1.2827.4906-1.7733 0l-6.0614-6.0667c-.4906-.4907-.4906-1.288 0-1.7787zm-32.858 31.323c.0854-4.896 3.4-9.3226 8.1867-10.3093 7.7947-1.608 14.2347 5.8507 10.7813 13.84-1.5573 3.6-5.256 5.8053-9.1733 5.8747h-.0053l-8.656.1573c-.7094.0134-1.2907-.568-1.2774-1.2773z" fill="#6b7280" fill-rule="evenodd"/></svg>