<svg width="24" height="24" viewBox="0 0 24 24" fill="none" xmlns="http://www.w3.org/2000/svg">
<g id="Icon/Fill/brush">
<path id="Mask" fill-rule="evenodd" clip-rule="evenodd" d="M16.3757 4.66789C17.1527 3.89089 18.4227 3.75289 19.2617 4.46089C19.7547 4.87789 20.0077 5.4629 19.9997 6.0569C20.0067 6.59389 19.8017 7.12289 19.3977 7.52689L12.9127 14.0179C12.7297 14.2019 12.4317 14.2019 12.2477 14.0179L9.97466 11.7429C9.79066 11.5589 9.79066 11.2599 9.97466 11.0759L16.3757 4.66789ZM4.05396 16.4139C4.08596 14.5779 5.32896 12.9179 7.12396 12.5479C10.047 11.9449 12.462 14.7419 11.167 17.7379C10.583 19.0879 9.19596 19.9149 7.72696 19.9409H7.72496L4.47896 19.9999C4.21296 20.0049 3.99496 19.7869 3.99996 19.5209L4.05396 16.4139Z" fill="#231F20"/>
<mask id="mask0" mask-type="alpha" maskUnits="userSpaceOnUse" x="3" y="4" width="17" height="16">
<path id="Mask_2" fill-rule="evenodd" clip-rule="evenodd" d="M16.3757 4.66789C17.1527 3.89089 18.4227 3.75289 19.2617 4.46089C19.7547 4.87789 20.0077 5.4629 19.9997 6.0569C20.0067 6.59389 19.8017 7.12289 19.3977 7.52689L12.9127 14.0179C12.7297 14.2019 12.4317 14.2019 12.2477 14.0179L9.97466 11.7429C9.79066 11.5589 9.79066 11.2599 9.97466 11.0759L16.3757 4.66789ZM4.05396 16.4139C4.08596 14.5779 5.32896 12.9179 7.12396 12.5479C10.047 11.9449 12.462 14.7419 11.167 17.7379C10.583 19.0879 9.19596 19.9149 7.72696 19.9409H7.72496L4.47896 19.9999C4.21296 20.0049 3.99496 19.7869 3.99996 19.5209L4.05396 16.4139Z" fill="white"/>
</mask>
<g mask="url(#mask0)">
<g id="&#240;&#159;&#142;&#168; Color">
<rect id="Base" width="24" height="24" fill="#0D1C2E"/>
</g>
</g>
</g>
</svg>
