<svg fill="none" height="64" viewBox="0 0 64 64" width="64" xmlns="http://www.w3.org/2000/svg"><path d="m49.0174 8c.9167 0 1.8248.18089 2.6718.53223.8472.35139 1.6173.86638 2.2657 1.51567.6482.6493 1.1628 1.421 1.5136 2.2695.3508.8483.5313 1.7575.5313 2.6758 0 .9182-.1806 1.8274-.5313 2.6757-.3508.8484-.8654 1.6193-1.5136 2.2686l-7.75 7.7646 1.1084 1.1104c1.4257 1.428 2.2265 3.3654 2.2265 5.3848 0 2.0193-.801 3.9558-2.2265 5.3838l-2.0391 2.0429c-.6517.6527-1.5363 1.0195-2.458 1.0196-.3048 0-.6058-.04-.8955-.1172-.1148.2303-.2345.456-.3565.6767-.535.9693-1.193 1.9668-1.9238 2.9531-.0357.0521-.073.1027-.1123.1514-.3642.486-.7454.9689-1.1377 1.4444-2.4409 2.9598-5.5072 5.8656-8.0186 7.5888-.0829.057-.1693.1083-.2587.1543-.8791.4524-1.8815.6064-2.8555.4385-.9739-.168-1.8674-.6484-2.5449-1.3691-.0361-.0383-.0711-.0776-.1045-.1182l-15.82327-19.2324c-.38323-.4714-.63751-1.0344-.7373-1.6338-.09972-.5993-.04186-1.2142.16796-1.7842.20994-.5705.56478-1.0766 1.0293-1.4678.4628-.3896 1.01881-.6518 1.61331-.7617 2.7412-.5129 5.0346-1.128 7.0703-2.2226 1.5642-.8413 3.0418-2.003 4.4473-3.7286-.6191-.6473-.9658-1.51-.9659-2.4082 0-.9232.3659-1.809 1.0176-2.4619l2.04-2.043c1.4259-1.4277 3.3596-2.2304 5.376-2.2304 2.0162 0 3.9493.8027 5.375 2.2304l1.1094 1.1104 7.752-7.7646c.6484-.64939 1.4183-1.16423 2.2656-1.51567.847-.35138 1.7549-.53218 2.6719-.53223zm-20.9532 43.0977c1.6196-1.1767 3.5887-2.9793 5.3858-4.9629l-12.2159-3.3369zm-2.2861-24.0743c-1.7031 2.0006-3.5618 3.4619-5.583 4.5489-2.0277 1.0903-4.1576 1.7701-6.3272 2.2715l2.086 2.5361 20.7158 5.6592c.261-.3994.496-.787.7012-1.1582.3495-.6334.5713-1.1468.7041-1.543zm23.2393-14.2236c-.2877.0001-.5723.0568-.8379.167-.2655.1102-.5068.272-.71.4756l-8.6836 8.6963c-.6518.6527-1.5362 1.0195-2.458 1.0195-.9219 0-1.806-.3668-2.458-1.0195l-2.04-2.042c-.5269-.5277-1.2412-.8252-1.9864-.8252-.7451 0-1.4601.2967-1.9873.8242l-1.1084 1.1113 16.0684 16.0909 1.1084-1.1104c.5269-.5277.8232-1.2439.8232-1.9902 0-.7464-.2963-1.4623-.8232-1.9903l-2.0391-2.0429c-.6518-.6528-1.0185-1.5387-1.0185-2.462 0-.9231.3658-1.809 1.0175-2.4619l8.6817-8.6963c.2029-.2034.3644-.4451.4746-.7109.11-.2661.167-.5518.167-.8398 0-.2879-.0571-.5729-.167-.8389-.1102-.2661-.2714-.5083-.4746-.7119-.2035-.2037-.4452-.3654-.711-.4756-.2656-.1101-.5504-.167-.8378-.167z" fill="#000"/></svg>