<svg fill="none" height="64" viewBox="0 0 64 64" width="64" xmlns="http://www.w3.org/2000/svg"><path d="m44.0146 39.1258-1.914 1.9111c-1.4023 1.4038-4.4288 2.086-7.7774.6397-3.5537-1.5377-5.2772-.7745-6.5595.5596-1.3896 1.4458-10.0262 11.2702-12.0225 13.2666-1.9964 1.9964-5.2331 1.9964-7.2295 0-1.99607-1.9964-1.99607-5.2326 0-7.2305 1.9965-1.9964 12.0838-10.7111 13.2676-12.0225 1.2382-1.3749 2.0962-3.0042.5586-6.5595-1.4462-3.3469-.7652-6.3751.6386-7.7774l1.9112-1.9131zm-30.5449 11.4199c-.7414-.7414-1.9451-.7414-2.6865 0-.741.7415-.7413 1.9433 0 2.6846.7413.7414 1.945.7412 2.6865 0 .7414-.7414.7413-1.9431 0-2.6846zm25.1582-42.53806c.937-.06312 1.8546.29384 2.5195.98242l2.3692 2.45414c.3141.3254.3771.8297.1533 1.2275l-2.5889 4.5967 4.3536-2.7422c.3841-.2442.8815-.1825 1.2001.1475l8.4229 8.7246c.665.6872 1.0114 1.6383.9502 2.6103-.0626.9705-.5252 1.8686-1.2686 2.461l-10.7275 8.5302-15.9971-16.5674 8.2364-11.11128c.5719-.77154 1.4384-1.25021 2.3769-1.31348z" fill="#000"/></svg>