<svg fill="none" height="64" viewBox="0 0 64 64" width="64" xmlns="http://www.w3.org/2000/svg"><path clip-rule="evenodd" d="m34.6668 13.3335c0 1.4747-1.1946 2.6667-2.6666 2.6667s-2.6667-1.192-2.6667-2.6667v-5.33334c0-1.47466 1.1947-2.66666 2.6667-2.66666s2.6666 1.192 2.6666 2.66666zm-15.9999 18.6668c0-7.352 5.9813-13.3333 13.3333-13.3333s13.3333 5.9813 13.3333 13.3333c0 4.2107-2.0106 8.1654-5.3333 10.656v10.6774c0 2.9413-2.392 5.3333-5.3333 5.3333h-5.3334c-2.9413 0-5.3333-2.392-5.3333-5.3333v-10.6774c-3.3253-2.4906-5.3333-6.4453-5.3333-10.656zm37.3332-2.6668h-5.3333c-1.4747 0-2.6667 1.192-2.6667 2.6667 0 1.4746 1.192 2.6666 2.6667 2.6666h5.3333c1.4747 0 2.6667-1.192 2.6667-2.6666 0-1.4747-1.192-2.6667-2.6667-2.6667zm-47.99994 0h5.33334c1.472 0 2.6667 1.192 2.6667 2.6667 0 1.4746-1.1947 2.6666-2.6667 2.6666h-5.33334c-1.472 0-2.66666-1.192-2.66666-2.6666 0-1.4747 1.19466-2.6667 2.66666-2.6667zm12.42594-12.2187-3.8374-3.7066c-1.0586-1.0214-2.744-.9894-3.7706.0693-1.024 1.056-.9947 2.7467.064 3.7707l3.8373 3.704c.52.5013 1.1867.7493 1.8533.7493.6987 0 1.3947-.2747 1.9174-.816 1.024-1.056.9946-2.7467-.064-3.7707zm26.9857-3.702c1.056-1.0214 2.752-.992 3.768.064 1.024 1.056.9947 2.7466-.064 3.768l-3.8373 3.7066c-.5147.4987-1.184.7494-1.8507.7494-.6986 0-1.3973-.2747-1.9173-.816-1.024-1.056-.9947-2.7467.064-3.768z" fill="#6b7280" fill-rule="evenodd"/></svg>