<svg fill="none" height="24" viewBox="0 0 24 24" width="24" xmlns="http://www.w3.org/2000/svg"><path clip-rule="evenodd" d="m13 5c0 .553-.448 1-1 1s-1-.447-1-1v-2c0-.553.448-1 1-1s1 .447 1 1zm-5.99995 7.0001c0-2.75704 2.243-5.00004 4.99995-5.00004 2.757 0 5 2.243 5 5.00004 0 1.579-.754 3.062-2 3.996v4.004c0 1.103-.897 2-2 2h-2c-1.10295 0-1.99995-.897-1.99995-2v-4.004c-1.247-.934-2-2.417-2-3.996zm13.99995-1.0001h-2c-.553 0-1 .447-1 1s.447 1 1 1h2c.553 0 1-.447 1-1s-.447-1-1-1zm-17.99997 0h2c.552 0 1 .447 1 1s-.448 1-1 1h-2c-.552 0-1-.447-1-1s.448-1 1-1zm4.65971-4.582-1.439-1.39c-.397-.383-1.029-.371-1.414.026-.384.396-.373 1.03.024 1.414l1.439 1.389c.195.188.445.281.695.281.262 0 .523-.103.719-.306.384-.396.373-1.03-.024-1.414zm10.11966-1.38827c.396-.383 1.032-.372 1.413.024.384.396.373 1.03-.024 1.413l-1.439 1.39c-.193.187-.444.281-.694.281-.262 0-.524-.103-.719-.306-.384-.396-.373-1.03.024-1.413z" fill="#6b7280" fill-rule="evenodd"/></svg>