<svg fill="none" height="24" viewBox="0 0 24 24" width="24" xmlns="http://www.w3.org/2000/svg"><path clip-rule="evenodd" d="m19 10.9999h-13.99998v-3.99997c0-.551.449-1 1-1h1v1c0 .55.45 1 1 1s1-.45 1-1v-1h5.99998v1c0 .55.45 1 1 1s1-.45 1-1v-1h1c.551 0 1 .449 1 1zm-3 6h-4c-.55 0-1-.45-1-1s.45-1 1-1h4c.55 0 1 .45 1 1s-.45 1-1 1zm-8.00002 0c-.55 0-1-.45-1-1s.45-1 1-1 1 .45 1 1-.45 1-1 1zm10.00002-12.9999h-1v-1c0-.55-.45-1-1-1s-1 .45-1 1v1h-6v-1c0-.55-.45-1-1-1s-1 .45-1 1v1h-1c-1.654 0-3 1.346-3 3v12c0 1.654 1.346 3 3 3h12c1.654 0 3-1.346 3-3v-12c0-1.654-1.346-3-3-3z" fill="#6b7280" fill-rule="evenodd"/></svg>