<svg fill="none" height="24" viewBox="0 0 24 24" width="24" xmlns="http://www.w3.org/2000/svg"><path clip-rule="evenodd" d="m12 12.5001c-.827 0-1.5.673-1.5 1.5s.673 1.5 1.5 1.5 1.5-.673 1.5-1.5-.673-1.5-1.5-1.5zm0 4.9999c-1.93 0-3.49997-1.57-3.49997-3.5s1.56997-3.5 3.49997-3.5 3.5 1.57 3.5 3.5-1.57 3.5-3.5 3.5zm-2-11.99993c0-.276.225-.5.5-.5h3c.275 0 .5.224.5.5v1.49999h-4zm9 1.49993h-3v-1.5c0-1.378-1.121-2.5-2.5-2.5h-3c-1.37898 0-2.49998 1.122-2.49998 2.5v1.5h-3c-1.654 0-3 1.346-3 3v8c0 1.654 1.346 3 3 3h13.99998c1.654 0 3-1.346 3-3v-8c0-1.654-1.346-3-3-3z" fill="#6b7280" fill-rule="evenodd"/></svg>