<svg fill="none" height="64" viewBox="0 0 64 64" width="64" xmlns="http://www.w3.org/2000/svg"><path clip-rule="evenodd" d="m32.0001 33.3335c-2.2053 0-4 1.7947-4 4s1.7947 4 4 4c2.2054 0 4-1.7947 4-4s-1.7946-4-4-4zm.0001 13.3332c-5.1467 0-9.3333-4.1867-9.3333-9.3334 0-5.1466 4.1866-9.3333 9.3333-9.3333s9.3333 4.1867 9.3333 9.3333c0 5.1467-4.1866 9.3334-9.3333 9.3334zm-5.3333-31.9999c0-.736.6-1.3333 1.3333-1.3333h8c.7333 0 1.3333.5973 1.3333 1.3333v4h-10.6666zm23.9999 3.9999h-8v-4c0-3.6747-2.9893-6.6667-6.6666-6.6667h-8c-3.6774 0-6.6667 2.992-6.6667 6.6667v4h-8c-4.41067 0-8 3.5893-8 8v21.3333c0 4.4107 3.58933 8 8 8h37.3333c4.4107 0 8-3.5893 8-8v-21.3333c0-4.4107-3.5893-8-8-8z" fill="#6b7280" fill-rule="evenodd"/></svg>