<svg viewBox="0 0 64 64" fill="none" xmlns="http://www.w3.org/2000/svg">
<path fill-rule="evenodd" clip-rule="evenodd" d="M50.667 10.667C55.0851 10.6672 58.667 14.2488 58.667 18.667V45.333C58.667 49.7512 55.0851 53.3328 50.667 53.333H13.333C8.91484 53.3329 5.33301 49.7512 5.33301 45.333V18.667C5.33301 14.2488 8.91484 10.6671 13.333 10.667H50.667ZM18.667 36.333C17.1943 36.333 16 37.5273 16 39C16 40.4728 17.1942 41.667 18.667 41.667H29.333C30.8058 41.667 32 40.4728 32 39C32 37.5273 30.8057 36.333 29.333 36.333H18.667ZM40 36.333C38.5273 36.333 37.3331 37.5273 37.333 39C37.333 40.4728 38.5272 41.667 40 41.667H45.333C46.8058 41.667 48 40.4728 48 39C48 37.5273 46.8057 36.333 45.333 36.333H40ZM18.667 25.667C17.1944 25.667 16.0002 26.8604 16 28.333C16 29.8058 17.1942 31 18.667 31H24C25.4728 31 26.667 29.8058 26.667 28.333C26.6668 26.8604 25.4726 25.667 24 25.667H18.667ZM34.667 25.667C33.1944 25.667 32.0002 26.8604 32 28.333C32 29.8058 33.1942 31 34.667 31H45.333C46.8058 31 48 29.8058 48 28.333C47.9998 26.8604 46.8056 25.667 45.333 25.667H34.667Z" fill="#141414"/>
</svg>