<svg fill="none" height="64" viewBox="0 0 64 64" width="64" xmlns="http://www.w3.org/2000/svg"><path clip-rule="evenodd" d="m53.2333 43.5001c0 1.3065-1.0602 2.3667-2.3666 2.3667s-2.3667-1.0602-2.3667-2.3667c0-1.3064 1.0603-2.3666 2.3667-2.3666s2.3666 1.0602 2.3666 2.3666zm-28.4 0c0 1.3065-1.0602 2.3667-2.3666 2.3667s-2.3667-1.0602-2.3667-2.3667c0-1.3064 1.0603-2.3666 2.3667-2.3666s2.3666 1.0602 2.3666 2.3666zm30.7667-13.0644v5.964h-7.1v-11.6416zm3.8458-2.9841-10.9458-8.7566v-5.9617c0-2.6104-1.9241-4.7333-4.2908-4.7333h-26.9208c-2.3643 0-4.2884 2.1229-4.2884 4.7333v23.6667c0 2.0661 1.2141 3.808 2.8897 4.4541-.3313.8188-.523 1.7087-.523 2.6459 0 3.9145 3.1855 7.1 7.1 7.1 3.9144 0 7.1-3.1855 7.1-7.1 0-.8354-.1704-1.6235-.4379-2.3667h7.5379 7.5378c-.2674.7432-.4378 1.5313-.4378 2.3667 0 3.9145 3.1855 7.1 7.1 7.1 3.9144 0 7.1-3.1855 7.1-7.1 0-.8354-.1704-1.6235-.4379-2.3667h.4379c1.3087 0 2.3666-1.0579 2.3666-2.3666v-9.4667c0-.7195-.3266-1.3987-.8875-1.8484zm-59.4458 29.5484c0-1.6569 1.34315-3 3-3h58c1.6569 0 3 1.3431 3 3s-1.3431 3-3 3h-58c-1.65685 0-3-1.3431-3-3zm3-12c-1.65685 0-3 1.3431-3 3s1.34315 3 3 3h5c1.65685 0 3-1.3431 3-3s-1.34315-3-3-3z" fill="#6b7280" fill-rule="evenodd"/></svg>