<svg width="24" height="24" viewBox="0 0 24 24" fill="none" xmlns="http://www.w3.org/2000/svg">
<g id="Icon/Fill/car">
<path id="Mask" fill-rule="evenodd" clip-rule="evenodd" d="M18.9794 17.9999C18.9794 18.5519 18.5314 18.9999 17.9794 18.9999C17.4274 18.9999 16.9794 18.5519 16.9794 17.9999C16.9794 17.4479 17.4274 16.9999 17.9794 16.9999C18.5314 16.9999 18.9794 17.4479 18.9794 17.9999ZM6.97937 17.9999C6.97937 18.5519 6.53137 18.9999 5.97937 18.9999C5.42737 18.9999 4.97937 18.5519 4.97937 17.9999C4.97937 17.4479 5.42737 16.9999 5.97937 16.9999C6.53137 16.9999 6.97937 17.4479 6.97937 17.9999ZM19.9794 12.4799V14.9999H16.9794V10.0809L19.9794 12.4799ZM21.6044 11.2189L16.9794 7.51891V4.99991C16.9794 3.89691 16.1664 2.99991 15.1664 2.99991H3.79137C2.79237 2.99991 1.97937 3.89691 1.97937 4.99991V14.9999C1.97937 15.8729 2.49237 16.6089 3.20037 16.8819C3.06037 17.2279 2.97937 17.6039 2.97937 17.9999C2.97937 19.6539 4.32537 20.9999 5.97937 20.9999C7.63337 20.9999 8.97937 19.6539 8.97937 17.9999C8.97937 17.6469 8.90737 17.3139 8.79437 16.9999H11.9794H15.1644C15.0514 17.3139 14.9794 17.6469 14.9794 17.9999C14.9794 19.6539 16.3254 20.9999 17.9794 20.9999C19.6334 20.9999 20.9794 19.6539 20.9794 17.9999C20.9794 17.6469 20.9074 17.3139 20.7944 16.9999H20.9794C21.5324 16.9999 21.9794 16.5529 21.9794 15.9999V11.9999C21.9794 11.6959 21.8414 11.4089 21.6044 11.2189Z" fill="#231F20"/>
<mask id="mask0" mask-type="alpha" maskUnits="userSpaceOnUse" x="1" y="3" width="21" height="18">
<path id="Mask_2" fill-rule="evenodd" clip-rule="evenodd" d="M18.9794 17.9999C18.9794 18.5519 18.5314 18.9999 17.9794 18.9999C17.4274 18.9999 16.9794 18.5519 16.9794 17.9999C16.9794 17.4479 17.4274 16.9999 17.9794 16.9999C18.5314 16.9999 18.9794 17.4479 18.9794 17.9999ZM6.97937 17.9999C6.97937 18.5519 6.53137 18.9999 5.97937 18.9999C5.42737 18.9999 4.97937 18.5519 4.97937 17.9999C4.97937 17.4479 5.42737 16.9999 5.97937 16.9999C6.53137 16.9999 6.97937 17.4479 6.97937 17.9999ZM19.9794 12.4799V14.9999H16.9794V10.0809L19.9794 12.4799ZM21.6044 11.2189L16.9794 7.51891V4.99991C16.9794 3.89691 16.1664 2.99991 15.1664 2.99991H3.79137C2.79237 2.99991 1.97937 3.89691 1.97937 4.99991V14.9999C1.97937 15.8729 2.49237 16.6089 3.20037 16.8819C3.06037 17.2279 2.97937 17.6039 2.97937 17.9999C2.97937 19.6539 4.32537 20.9999 5.97937 20.9999C7.63337 20.9999 8.97937 19.6539 8.97937 17.9999C8.97937 17.6469 8.90737 17.3139 8.79437 16.9999H11.9794H15.1644C15.0514 17.3139 14.9794 17.6469 14.9794 17.9999C14.9794 19.6539 16.3254 20.9999 17.9794 20.9999C19.6334 20.9999 20.9794 19.6539 20.9794 17.9999C20.9794 17.6469 20.9074 17.3139 20.7944 16.9999H20.9794C21.5324 16.9999 21.9794 16.5529 21.9794 15.9999V11.9999C21.9794 11.6959 21.8414 11.4089 21.6044 11.2189Z" fill="white"/>
</mask>
<g mask="url(#mask0)">
<g id="&#240;&#159;&#142;&#168; Color">
<rect id="Base" width="24" height="24" fill="#0D1C2E"/>
</g>
</g>
</g>
</svg>
