<svg fill="none" height="64" viewBox="0 0 64 64" width="64" xmlns="http://www.w3.org/2000/svg"><path clip-rule="evenodd" d="m50.6117 47.9999c0 1.472-1.1947 2.6667-2.6667 2.6667s-2.6667-1.1947-2.6667-2.6667 1.1947-2.6666 2.6667-2.6666 2.6667 1.1946 2.6667 2.6666zm-32 0c0 1.472-1.1947 2.6667-2.6667 2.6667s-2.6667-1.1947-2.6667-2.6667 1.1947-2.6666 2.6667-2.6666 2.6667 1.1946 2.6667 2.6666zm34.6666-14.7204v6.72h-8v-13.1173zm4.3334-3.3624-12.3334-9.8667v-6.7173c0-2.9413-2.168-5.33334-4.8346-5.33334h-30.3334c-2.66398 0-4.83198 2.39204-4.83198 5.33334v26.6667c0 2.328 1.368 4.2906 3.256 5.0186-.37333.9227-.58933 1.9254-.58933 2.9814 0 4.4106 3.58931 8 8.00001 8s8-3.5894 8-8c0-.9414-.192-1.8294-.4933-2.6667h8.4933 8.4933c-.3013.8373-.4933 1.7253-.4933 2.6667 0 4.4106 3.5893 8 8 8s8-3.5894 8-8c0-.9414-.192-1.8294-.4933-2.6667h.4933c1.4747 0 2.6666-1.192 2.6666-2.6667v-10.6666c0-.8107-.3679-1.576-.9999-2.0827z" fill="#6b7280" fill-rule="evenodd"/></svg>