<svg viewBox="0 0 64 64" fill="none" xmlns="http://www.w3.org/2000/svg">
<path fill-rule="evenodd" clip-rule="evenodd" d="M35.1572 24.7822C36.4366 24.7304 37.669 24.8097 38.8811 25.2483C40.5012 25.837 41.9248 26.8659 42.9931 28.2067L43.4306 28.8004C44.1525 29.8713 44.5257 31.0486 44.7848 32.303C45.0375 33.5267 45.2224 35.0433 45.4436 36.8525L46.3603 44.3473C46.583 46.1577 46.7728 47.6766 46.8239 48.9254C46.8761 50.2055 46.7974 51.4371 46.3551 52.652C45.6804 54.5022 44.4385 56.0951 42.8056 57.1963C41.736 57.9171 40.5603 58.2904 39.3056 58.5504C38.081 58.804 36.5616 58.9878 34.7509 59.2093L34.7535 59.2119L27.2588 60.1285C25.4485 60.3514 23.9296 60.5389 22.6806 60.5895C21.402 60.6411 20.1707 60.5654 18.9593 60.1259C17.3393 59.5363 15.9154 58.5088 14.8473 57.1676L14.4098 56.5739C13.6884 55.5031 13.315 54.325 13.0556 53.0713C12.9292 52.4598 12.82 51.7741 12.7145 51.0166L12.3942 48.5218L11.4775 41.0244L11.1806 38.527C11.0995 37.7659 11.0393 37.0735 11.014 36.4489C10.9622 35.1691 11.041 33.9373 11.4801 32.7249L11.4827 32.7197C12.1573 30.8697 13.3997 29.2791 15.0322 28.178L15.4384 27.9228C16.3967 27.3649 17.4346 27.0514 18.5322 26.8239C19.7565 26.5702 21.2741 26.3838 23.0843 26.1624L30.5817 25.2457C32.3904 25.0229 33.9081 24.8329 35.1572 24.7822ZM25.3785 37.0973C25.0811 37.1284 24.7957 37.2393 24.5556 37.4176C24.316 37.5959 24.1269 37.8348 24.0114 38.1103C23.8958 38.3862 23.8582 38.689 23.8994 38.9853L25.1364 47.7952C25.1776 48.0913 25.2988 48.3715 25.4853 48.6051C25.672 48.8386 25.9192 49.0177 26.1989 49.1233C26.4789 49.2288 26.7844 49.2564 27.0791 49.2041C27.3735 49.1515 27.6496 49.0219 27.8759 48.8265L34.1051 43.4593C35.0266 42.6682 34.8197 41.1899 33.7145 40.6832L26.2483 37.2405C25.9767 37.1157 25.6759 37.0664 25.3785 37.0973Z M36.527 13.014C37.7763 13.0646 39.2933 13.2546 41.1025 13.4775L41.0999 13.4801L48.5999 14.3942L51.0947 14.7145C51.853 14.8201 52.5401 14.9291 53.152 15.0556C54.4056 15.315 55.5814 15.6882 56.652 16.4098L57.2457 16.8473C58.3957 17.7631 59.3154 18.9368 59.9254 20.2744L60.2041 20.9567C60.6438 22.1685 60.722 23.4015 60.6702 24.6806C60.6196 25.9299 60.4322 27.448 60.2093 29.2588L59.29 36.7535C59.0686 38.5641 58.8848 40.0811 58.6311 41.3056C58.3711 42.5607 57.9956 43.7358 57.2744 44.8056C56.1732 46.4385 54.5831 47.6805 52.7327 48.3551L52.7301 48.3525C52.5293 48.4271 52.3265 48.494 52.1207 48.5478L51.8525 48.6051C50.5175 48.8126 49.2149 47.9794 48.8655 46.6442C48.4932 45.2196 49.3473 43.7617 50.7718 43.389L50.8785 43.3551L50.9046 43.3447C51.6971 43.0555 52.3808 42.5232 52.8525 41.8239L52.9853 41.5947C53.1206 41.3259 53.263 40.9183 53.4072 40.2223C53.606 39.2628 53.764 37.9999 53.9957 36.1051L54.915 28.6077C55.1483 26.7128 55.2998 25.4445 55.3395 24.4645C55.3778 23.5172 55.2959 23.0693 55.191 22.7796C54.9385 22.0858 54.4996 21.4768 53.9254 21.0192L53.6702 20.8317C53.4139 20.6591 52.9996 20.4691 52.0713 20.277C51.1105 20.0783 49.8453 19.9219 47.9489 19.6884L40.4515 18.7692C38.5584 18.5359 37.2907 18.3844 36.3108 18.3447C35.3665 18.3065 34.9156 18.3854 34.6233 18.4905C33.8309 18.7798 33.1497 19.3145 32.678 20.014L32.6754 20.0192C32.5591 20.1909 32.4333 20.4374 32.3082 20.8629C31.893 22.2758 30.4112 23.0852 28.9983 22.6702C27.5862 22.2546 26.7788 20.7728 27.1937 19.3603C27.4355 18.5373 27.7664 17.7599 28.2588 17.0322C29.3601 15.3994 30.95 14.1572 32.8004 13.4827L32.803 13.4801C34.0154 13.041 35.2473 12.9622 36.527 13.014Z M24.6147 13.396C25.2541 13.2674 25.7142 12.7058 25.7142 12.0537C25.7142 11.4015 25.2541 10.8399 24.6147 10.7114H23.7286C21.3604 10.3763 19.4993 8.5155 19.1641 6.14765L19.0299 5.26174C19.001 4.5563 18.4203 3.99941 17.7142 4C17.0446 4.00484 16.4767 4.49314 16.3717 5.15436V6.04026C16.07 8.48427 14.1442 10.4098 11.6998 10.7114H10.8137C10.1742 10.8399 9.71419 11.4015 9.71419 12.0537C9.71419 12.7058 10.1742 13.2674 10.8137 13.396H11.6998C14.068 13.7311 15.9291 15.5918 16.2643 17.9597V18.8456C16.3693 19.5068 16.9372 19.9951 17.6068 20C18.2749 20.005 18.8407 19.5086 18.9225 18.8456L19.0567 17.9597C19.4033 15.5575 21.3186 13.6866 23.7286 13.396H24.6147Z M13.9337 23.5973C14.36 23.5116 14.6667 23.1372 14.6667 22.7024C14.6667 22.2677 14.36 21.8933 13.9337 21.8076H13.343C11.7641 21.5842 10.5234 20.3437 10.2999 18.7651L10.2104 18.1745C10.1912 17.7042 9.8041 17.3329 9.33333 17.3333C8.88693 17.3366 8.50834 17.6621 8.43833 18.1029V18.6935C8.23723 20.3228 6.95333 21.6065 5.32371 21.8076H4.73301C4.3067 21.8933 4 22.2677 4 22.7024C4 23.1372 4.3067 23.5116 4.73301 23.5973H5.32371C6.90255 23.8207 8.14327 25.0612 8.36673 26.6398V27.2304C8.43674 27.6712 8.81533 27.9967 9.26173 28C9.70712 28.0033 10.0843 27.6724 10.1388 27.2304L10.2283 26.6398C10.4594 25.0384 11.7363 23.7911 13.343 23.5973H13.9337Z" fill="#141414"/>
</svg>