<svg fill="none" height="64" viewBox="0 0 64 64" width="64" xmlns="http://www.w3.org/2000/svg"><path clip-rule="evenodd" d="m14.9316 8h34.1361c3.824 0 6.9333 3.3227 6.9333 7.4053v33.1894c0 4.0826-3.1093 7.4053-6.9333 7.4053h-3.7334c-1.4746 0-2.6666-1.192-2.6666-2.6667 0-1.4746 1.192-2.6666 2.6666-2.6666h3.7334c.8666 0 1.6-.9494 1.6-2.072v-33.1894c0-1.1226-.7334-2.072-1.6-2.072h-34.1361c-.8666 0-1.5973.9494-1.5973 2.072v3.2614c0 1.4746-1.1947 2.6666-2.6667 2.6666-1.47462 0-2.66662-1.192-2.66662-2.6666v-3.2614c0-4.0826 3.10932-7.4053 6.93062-7.4053zm-6.90692 32.453c-.20267-1.4587.81866-2.8054 2.27732-3.0054 3.7867-.5173 7.4827.7227 10.1707 3.408 3.5653 3.5707 4.5333 9.0374 2.4026 13.6054-.4533.968-1.4133 1.5386-2.4186 1.5386-.3787 0-.7627-.0799-1.1254-.2506-1.3333-.6213-1.912-2.208-1.2906-3.544 1.1866-2.5413.6506-5.5893-1.3387-7.576-1.4987-1.496-3.5627-2.1813-5.672-1.9014-1.47466.2107-2.80532-.816-3.00532-2.2746zm2.27472-13.5806c-1.45869.2027-2.47736 1.5494-2.27469 3.008.20267 1.456 1.544 2.4774 3.00799 2.272 5.0427-.688 9.9947.96 13.592 4.5547 4.1493 4.152 5.7093 10.2373 4.0667 15.8827-.4107 1.4133.4026 2.8933 1.816 3.304.2506.072.5013.1066.744.1066 1.1573 0 2.2213-.7546 2.56-1.9226 2.1867-7.5094.1093-15.6107-5.416-21.1414-4.7867-4.7866-11.3707-7-18.096-6.064zm-2.29801 23.7943c0-1.4747 1.192-2.6667 2.66671-2.6667 1.4746 0 2.6666 1.192 2.6666 2.6667 0 1.4746-1.192 2.6666-2.6666 2.6666-1.47471 0-2.66671-1.192-2.66671-2.6666z" fill="#6b7280" fill-rule="evenodd"/></svg>