<svg width="24" height="24" viewBox="0 0 24 24" fill="none" xmlns="http://www.w3.org/2000/svg">
<g id="Icon/Fill/cast">
<path id="Mask" fill-rule="evenodd" clip-rule="evenodd" d="M5.59943 3H18.4004C19.8344 3 21.0004 4.246 21.0004 5.777V18.223C21.0004 19.754 19.8344 21 18.4004 21H17.0004C16.4474 21 16.0004 20.553 16.0004 20C16.0004 19.447 16.4474 19 17.0004 19H18.4004C18.7254 19 19.0004 18.644 19.0004 18.223V5.777C19.0004 5.356 18.7254 5 18.4004 5H5.59943C5.27443 5 5.00043 5.356 5.00043 5.777V7C5.00043 7.553 4.55243 8 4.00043 8C3.44743 8 3.00043 7.553 3.00043 7V5.777C3.00043 4.246 4.16643 3 5.59943 3ZM3.00933 15.17C2.93333 14.623 3.31633 14.118 3.86333 14.043C5.28333 13.849 6.66933 14.314 7.67733 15.321C9.01433 16.66 9.37733 18.71 8.57833 20.423C8.40833 20.786 8.04833 21 7.67133 21C7.52933 21 7.38533 20.97 7.24933 20.906C6.74933 20.673 6.53233 20.078 6.76533 19.577C7.21033 18.624 7.00933 17.481 6.26333 16.736C5.70133 16.175 4.92733 15.918 4.13633 16.023C3.58333 16.102 3.08433 15.717 3.00933 15.17ZM3.86233 10.0771C3.31533 10.1531 2.93333 10.6581 3.00933 11.2051C3.08533 11.7511 3.58833 12.1341 4.13733 12.0571C6.02833 11.7991 7.88533 12.4171 9.23433 13.7651C10.7903 15.3221 11.3753 17.6041 10.7593 19.7211C10.6053 20.2511 10.9103 20.8061 11.4403 20.9601C11.5343 20.9871 11.6283 21.0001 11.7193 21.0001C12.1533 21.0001 12.5523 20.7171 12.6793 20.2791C13.4993 17.4631 12.7203 14.4251 10.6483 12.3511C8.85333 10.5561 6.38433 9.7261 3.86233 10.0771ZM3.00003 19C3.00003 18.447 3.44703 18 4.00003 18C4.55303 18 5.00003 18.447 5.00003 19C5.00003 19.553 4.55303 20 4.00003 20C3.44703 20 3.00003 19.553 3.00003 19Z" fill="#231F20"/>
<mask id="mask0" mask-type="alpha" maskUnits="userSpaceOnUse" x="2" y="3" width="20" height="18">
<path id="Mask_2" fill-rule="evenodd" clip-rule="evenodd" d="M5.59943 3H18.4004C19.8344 3 21.0004 4.246 21.0004 5.777V18.223C21.0004 19.754 19.8344 21 18.4004 21H17.0004C16.4474 21 16.0004 20.553 16.0004 20C16.0004 19.447 16.4474 19 17.0004 19H18.4004C18.7254 19 19.0004 18.644 19.0004 18.223V5.777C19.0004 5.356 18.7254 5 18.4004 5H5.59943C5.27443 5 5.00043 5.356 5.00043 5.777V7C5.00043 7.553 4.55243 8 4.00043 8C3.44743 8 3.00043 7.553 3.00043 7V5.777C3.00043 4.246 4.16643 3 5.59943 3ZM3.00933 15.17C2.93333 14.623 3.31633 14.118 3.86333 14.043C5.28333 13.849 6.66933 14.314 7.67733 15.321C9.01433 16.66 9.37733 18.71 8.57833 20.423C8.40833 20.786 8.04833 21 7.67133 21C7.52933 21 7.38533 20.97 7.24933 20.906C6.74933 20.673 6.53233 20.078 6.76533 19.577C7.21033 18.624 7.00933 17.481 6.26333 16.736C5.70133 16.175 4.92733 15.918 4.13633 16.023C3.58333 16.102 3.08433 15.717 3.00933 15.17ZM3.86233 10.0771C3.31533 10.1531 2.93333 10.6581 3.00933 11.2051C3.08533 11.7511 3.58833 12.1341 4.13733 12.0571C6.02833 11.7991 7.88533 12.4171 9.23433 13.7651C10.7903 15.3221 11.3753 17.6041 10.7593 19.7211C10.6053 20.2511 10.9103 20.8061 11.4403 20.9601C11.5343 20.9871 11.6283 21.0001 11.7193 21.0001C12.1533 21.0001 12.5523 20.7171 12.6793 20.2791C13.4993 17.4631 12.7203 14.4251 10.6483 12.3511C8.85333 10.5561 6.38433 9.7261 3.86233 10.0771ZM3.00003 19C3.00003 18.447 3.44703 18 4.00003 18C4.55303 18 5.00003 18.447 5.00003 19C5.00003 19.553 4.55303 20 4.00003 20C3.44703 20 3.00003 19.553 3.00003 19Z" fill="white"/>
</mask>
<g mask="url(#mask0)">
<g id="&#240;&#159;&#142;&#168; Color">
<rect id="Base" width="24" height="24" fill="#0D1C2E"/>
</g>
</g>
</g>
</svg>
