<svg viewBox="0 0 64 64" fill="none" xmlns="http://www.w3.org/2000/svg">
<path fill-rule="evenodd" clip-rule="evenodd" d="M27.7265 5.66404C32.7756 4.88376 37.7633 5.49708 42.2525 7.36456L43.2239 8.55727L43.1458 8.84112L42.1301 13.3151C41.8869 14.3843 41.051 15.2204 39.9817 15.4635L35.5077 16.4791C33.4571 16.9455 32.0006 18.7695 31.9999 20.8724C32 22.9757 33.4567 24.8018 35.5077 25.2682L39.9817 26.2838C41.051 26.527 41.8869 27.363 42.1301 28.4323L43.1458 32.9062C43.6121 34.9569 45.4361 36.4134 47.539 36.414C49.6424 36.414 51.4684 34.9573 51.9348 32.9062L52.9505 28.4323L53.0702 28.0416C53.4078 27.1629 54.1638 26.4965 55.0989 26.2838L57.2577 25.7916L58.1979 26.9479C58.7712 29.9604 58.8286 33.106 58.3359 36.2734C56.6395 47.1449 47.8813 56.1581 37.0338 58.1927C31.8181 59.1713 26.5011 58.6075 21.6614 56.5625C21.2374 56.3865 20.6012 56.2028 19.9452 56.3281L8.52337 58.6146C8.34811 58.6489 8.17516 58.664 8.00254 58.664C7.30145 58.664 6.62104 58.3892 6.11712 57.8828C5.48528 57.2535 5.20945 56.3485 5.38535 55.4739L7.67441 44.0416C7.77569 43.5271 7.69602 42.9518 7.43744 42.3359C5.39224 37.5015 4.82605 32.1846 5.80723 26.9635C7.84193 16.1185 16.8548 7.36023 27.7265 5.66404ZM32.7525 29.3333C31.8365 29.3337 31.0944 30.0762 31.0937 30.9922C31.0935 32.52 29.8534 33.7604 28.3255 33.7604C27.4095 33.7611 26.6671 34.5033 26.6666 35.4192C26.6667 36.3355 27.4093 37.08 28.3255 37.0807C29.8533 37.0807 31.0935 38.3185 31.0937 39.8463C31.0938 40.7627 31.8362 41.5074 32.7525 41.5078C33.6692 41.5078 34.4139 40.763 34.414 39.8463C34.4142 38.3187 35.652 37.0809 37.1796 37.0807C38.0963 37.0807 38.8409 36.3359 38.8411 35.4192C38.8406 34.5028 38.0961 33.7604 37.1796 33.7604C35.6519 33.7602 34.4141 32.5199 34.414 30.9922C34.4133 30.076 33.6689 29.3333 32.7525 29.3333Z M47.539 7.99998C48.3976 7.99998 49.1429 8.59505 49.3333 9.43227L50.3515 13.9062C50.8222 15.9759 52.438 17.5919 54.5077 18.0625L58.9817 19.0807C59.8185 19.271 60.4134 20.0143 60.414 20.8724C60.414 21.7309 59.8189 22.4763 58.9817 22.6666L54.5077 23.6849C54.2493 23.7437 53.9981 23.8209 53.7551 23.914C53.5118 24.0073 53.2771 24.1171 53.052 24.2422C52.8266 24.3674 52.6106 24.5071 52.4062 24.6614C51.3865 25.4317 50.6456 26.5479 50.3515 27.8411L49.3333 32.3151C49.1429 33.1522 48.3976 33.7474 47.539 33.7474C47.3246 33.7472 47.1176 33.7095 46.9244 33.6406L46.6458 33.5156C46.2012 33.268 45.8663 32.8384 45.7473 32.3151L44.7291 27.8411C44.3173 26.0299 43.0281 24.5669 41.3255 23.914C41.0825 23.8209 40.8313 23.7436 40.5729 23.6849L36.0989 22.6666C35.8628 22.6129 35.6479 22.5123 35.4583 22.3802C34.9755 22.0443 34.6666 21.4889 34.6666 20.8724C34.6672 20.0143 35.2621 19.271 36.0989 19.0807L40.5729 18.0625C42.5131 17.6212 44.0546 16.1735 44.6275 14.289C44.6658 14.1634 44.6997 14.0356 44.7291 13.9062L45.7473 9.43227C45.9376 8.59544 46.6809 8.00052 47.539 7.99998Z" fill="#141414"/>
</svg>