<svg fill="none" height="24" viewBox="0 0 24 24" width="24" xmlns="http://www.w3.org/2000/svg"><path clip-rule="evenodd" d="m16.2954 9.60511-4.568 5.99999c-.188.247-.479.393-.789.395h-.007c-.307 0-.597-.142-.787-.384l-2.43205-3.107c-.34-.434-.264-1.063.171-1.403.435-.341 1.063-.265 1.404.171l1.63305 2.086 3.784-4.96899c.334-.439.962-.525 1.402-.19.439.335.524.962.189 1.401zm1.705-6.60487h-12.00003c-1.655 0-3 1.345-3 3v11.99996c0 1.654 1.345 3 3 3h12.00003c1.654 0 3-1.346 3-3v-11.99996c0-1.655-1.346-3-3-3z" fill="#6b7280" fill-rule="evenodd"/></svg>