<svg fill="none" height="64" viewBox="0 0 64 64" width="64" xmlns="http://www.w3.org/2000/svg"><path clip-rule="evenodd" d="m43.4543 25.614-12.1814 16c-.5013.6586-1.2773 1.048-2.104 1.0533h-.0186c-.8187 0-1.592-.3787-2.0987-1.024l-6.4853-8.2853c-.9067-1.1574-.704-2.8347.456-3.7414 1.16-.9093 2.8346-.7066 3.744.456l4.3546 5.5627 10.0907-13.2507c.8907-1.1706 2.5653-1.4 3.7387-.5066 1.1706.8933 1.3973 2.5653.504 3.736zm4.5467-17.61302h-32c-4.4134 0-8.00002 3.58662-8.00002 8.00002v32c0 4.4106 3.58662 8 8.00002 8h32c4.4106 0 8-3.5894 8-8v-32c0-4.4134-3.5894-8.00002-8-8.00002z" fill="#6b7280" fill-rule="evenodd"/></svg>