<svg fill="none" height="64" viewBox="0 0 64 64" width="64" xmlns="http://www.w3.org/2000/svg"><path clip-rule="evenodd" d="m43.4545 25.6145-12.1813 16c-.5013.6586-1.2773 1.048-2.104 1.0533h-.0187c-.8186 0-1.592-.3787-2.0986-1.024l-6.4854-8.2853c-.9066-1.1574-.704-2.8347.456-3.7414 1.1574-.9093 2.8373-.7066 3.744.456l4.3547 5.5627 10.0906-13.2507c.8907-1.1706 2.5627-1.4 3.7387-.5066 1.1707.8933 1.3974 2.5653.504 3.736zm-11.4534-20.28003c-14.728 0-26.66663 11.93863-26.66663 26.66663 0 14.7254 11.93863 26.6667 26.66663 26.6667s26.6667-11.9413 26.6667-26.6667c0-14.728-11.9387-26.66663-26.6667-26.66663z" fill="#6b7280" fill-rule="evenodd"/></svg>