<svg fill="none" height="64" viewBox="0 0 64 64" width="64" xmlns="http://www.w3.org/2000/svg"><path clip-rule="evenodd" d="m55.9918 29.2644h.008c1.4693 0 2.664 1.1893 2.6667 2.6587.0213 7.1226-2.7334 13.8293-7.7574 18.88-5.0213 5.0506-11.7093 7.8426-18.832 7.864h-.0773c-7.096 0-13.7707-2.752-18.8027-7.7574-5.05064-5.0213-7.84264-11.7093-7.86397-18.832-.02133-7.1253 2.73333-13.8293 7.75737-18.88 5.0213-5.05063 11.7093-7.84263 18.832-7.86396 2.12.032 4.28.24533 6.3493.74133 1.4293.34667 2.312 1.78667 1.9653 3.21867-.344 1.42936-1.792 2.30936-3.216 1.96796-1.656-.4-3.4133-.568-5.0826-.5946-5.6987.016-11.0507 2.2506-15.0667 6.2906-4.0187 4.04-6.2213 9.4054-6.2053 15.104.016 5.6987 2.2506 11.048 6.2906 15.0667 4.0267 4.0027 9.3654 6.2053 15.0427 6.2053h.0613c5.6987-.016 11.0507-2.2506 15.0667-6.2906 4.0187-4.0427 6.2213-9.4054 6.2053-15.104-.0026-1.472 1.1867-2.672 2.6587-2.6747zm-33.8774.8503c1.0427-1.0426 2.728-1.0426 3.7707 0l5.984 5.984 16.792-19.1893c.9707-1.1013 2.6533-1.2187 3.7627-.248 1.1066.968 1.2186 2.6533.248 3.7627l-18.6667 21.3333c-.4853.5547-1.1787.8827-1.9173.9093h-.088c-.7067 0-1.384-.28-1.8854-.7813l-8-8c-1.0426-1.0427-1.0426-2.728 0-3.7707z" fill="#6b7280" fill-rule="evenodd"/></svg>