<svg width="24" height="24" viewBox="0 0 24 24" fill="none" xmlns="http://www.w3.org/2000/svg">
<g id="Icon/Fill/checkmark-square Copy">
<path id="Mask" fill-rule="evenodd" clip-rule="evenodd" d="M16.2954 9.60549L11.7274 15.6055C11.5394 15.8525 11.2484 15.9985 10.9384 16.0005H10.9314C10.6244 16.0005 10.3344 15.8585 10.1444 15.6165L7.71237 12.5095C7.37237 12.0755 7.44837 11.4465 7.88337 11.1065C8.31837 10.7655 8.94637 10.8415 9.28737 11.2775L10.9204 13.3635L14.7044 8.39449C15.0384 7.95549 15.6664 7.86949 16.1064 8.20449C16.5454 8.53949 16.6304 9.16649 16.2954 9.60549ZM18.0004 3.00049H6.00037C4.34537 3.00049 3.00037 4.34549 3.00037 6.00049V18.0005C3.00037 19.6545 4.34537 21.0005 6.00037 21.0005H18.0004C19.6544 21.0005 21.0004 19.6545 21.0004 18.0005V6.00049C21.0004 4.34549 19.6544 3.00049 18.0004 3.00049Z" fill="#231F20"/>
<mask id="mask0" mask-type="alpha" maskUnits="userSpaceOnUse" x="3" y="3" width="19" height="19">
<path id="Mask_2" fill-rule="evenodd" clip-rule="evenodd" d="M16.2954 9.60549L11.7274 15.6055C11.5394 15.8525 11.2484 15.9985 10.9384 16.0005H10.9314C10.6244 16.0005 10.3344 15.8585 10.1444 15.6165L7.71237 12.5095C7.37237 12.0755 7.44837 11.4465 7.88337 11.1065C8.31837 10.7655 8.94637 10.8415 9.28737 11.2775L10.9204 13.3635L14.7044 8.39449C15.0384 7.95549 15.6664 7.86949 16.1064 8.20449C16.5454 8.53949 16.6304 9.16649 16.2954 9.60549ZM18.0004 3.00049H6.00037C4.34537 3.00049 3.00037 4.34549 3.00037 6.00049V18.0005C3.00037 19.6545 4.34537 21.0005 6.00037 21.0005H18.0004C19.6544 21.0005 21.0004 19.6545 21.0004 18.0005V6.00049C21.0004 4.34549 19.6544 3.00049 18.0004 3.00049Z" fill="white"/>
</mask>
<g mask="url(#mask0)">
<g id="&#240;&#159;&#142;&#168; Color">
<rect id="Base" width="24" height="24" fill="#0D1C2E"/>
</g>
</g>
</g>
</svg>
