<svg fill="none" height="24" viewBox="0 0 24 24" width="24" xmlns="http://www.w3.org/2000/svg"><path clip-rule="evenodd" d="m16.2954 9.60549-4.568 6.00001c-.188.247-.479.393-.789.395h-.007c-.307 0-.597-.142-.787-.384l-2.432-3.107c-.34-.434-.264-1.063.171-1.403.434-.341 1.064-.265 1.404.171l1.633 2.086 3.784-4.96901c.334-.439.961-.525 1.402-.19.439.335.524.962.189 1.401zm-4.295-7.605c-5.52302 0-10.00002 4.477-10.00002 10.00001 0 5.522 4.477 10 10.00002 10 5.523 0 10-4.478 10-10 0-5.52301-4.477-10.00001-10-10.00001z" fill="#6b7280" fill-rule="evenodd"/></svg>