<svg fill="none" height="24" viewBox="0 0 24 24" width="24" xmlns="http://www.w3.org/2000/svg"><path clip-rule="evenodd" d="m19 12.8332c0-.552.448-1 1-1s1 .448 1 1v5.566c0 1.434-1.167 2.601-2.6 2.601h-12.8c-1.433 0-2.6-1.167-2.6-2.601v-12.79896c0-1.434 1.167-2.6 2.6-2.6h9.567c.552 0 1 .447 1 1 0 .552-.448 1-1 1h-9.567c-.331 0-.6.269-.6.6v12.79896c0 .331.269.601.6.601h12.8c.331 0 .6-.27.6-.601zm-9.6904-1.8868c.4-.382 1.032-.366 1.414.033l1.505 1.578 6.053-6.25299c.383-.396 1.016-.408 1.414-.023.397.384.407 1.017.023 1.414l-6.777 6.99999c-.188.195-.447.305-.718.305h-.004c-.272-.001-.532-.113-.72-.31l-2.223-2.33c-.382-.4-.366-1.033.033-1.414z" fill="#6b7280" fill-rule="evenodd"/></svg>