<svg fill="none" height="64" viewBox="0 0 64 64" width="64" xmlns="http://www.w3.org/2000/svg"><path d="m32 5.33301c14.7039 0 26.6669 11.96309 26.667 26.66699 0 14.704-11.963 26.667-26.667 26.667s-26.66699-11.963-26.66699-26.667c.00009-14.7039 11.96309-26.66699 26.66699-26.66699zm-10.667 23.20119c-.9193.0001-1.8001.3656-2.4502 1.0156-.65.6501-1.0156 1.5309-1.0156 2.4502s.3656 1.8001 1.0156 2.4502c.6501.65 1.5309 1.0155 2.4502 1.0156.9194 0 1.8011-.3655 2.4512-1.0156.6499-.6501 1.0156-1.531 1.0156-2.4502s-.3657-1.8001-1.0156-2.4502c-.6501-.6501-1.5318-1.0156-2.4512-1.0156zm10.667 0c-.9194 0-1.8001.3655-2.4502 1.0156s-1.0156 1.5308-1.0156 2.4502c0 .4548.0888.905.2627 1.3252.1742.4206.431.8031.7529 1.125s.7044.5787 1.125.7529c.4202.1738.8705.2627 1.3252.2627.4548 0 .905-.0888 1.3252-.2627.4206-.1742.8031-.431 1.125-.7529s.5787-.7044.7529-1.125c.1739-.4202.2627-.8705.2627-1.3252 0-.9194-.3655-1.8001-1.0156-2.4502s-1.5308-1.0156-2.4502-1.0156zm10.667 0c-.9194 0-1.8011.3655-2.4512 1.0156-.6499.6501-1.0156 1.5309-1.0156 2.4502 0 .4548.0898.9049.2637 1.3252.1741.4204.4302.8032.7519 1.125.3218.3218.7046.5787 1.125.7529.4203.1739.8714.2627 1.3262.2627.4547 0 .905-.0888 1.3252-.2627.4206-.1742.8031-.431 1.125-.7529.3218-.3219.5787-.7045.7529-1.125.1738-.4202.2627-.8705.2627-1.3252 0-.9193-.3656-1.8001-1.0156-2.4502-.65-.65-1.531-1.0155-2.4502-1.0156z" fill="#000"/></svg>