<svg fill="none" height="64" viewBox="0 0 64 64" width="64" xmlns="http://www.w3.org/2000/svg"><path d="m34.7451 5.47168c13.438 1.37412 23.9219 12.72752 23.9219 26.52832 0 2.1511-.2613 4.2415-.7422 6.2451-3.792 10.1073-9.1318 14.7816-14.2187 16.5801-5.3365 1.8861-10.968.8146-15.3077-1.4863-6.7059-3.5559-8.9359-10.2492-7.9013-16.1641 1.052-6.0107 5.2626-10.5073 10.9687-10.5078 1.4727-.0001 2.667-1.1943 2.667-2.667s-1.1943-2.6669-2.667-2.667c-9.0458.0005-14.8682 7.1769-16.2236 14.9248-1.3569 7.7595 1.5566 16.7982 10.3701 21.6328-11.6419-2.8627-20.27929-13.3654-20.27929-25.8906 0-2.6944.40037-5.2954 1.14355-7.7471 3.70634-8.5202 8.60254-12.6104 13.28414-14.2656 5.3366-1.88621 10.9669-.81452 15.3067 1.4863 6.7061 3.5559 8.936 10.2491 7.9014 16.1641-1.0524 6.0106-5.2625 10.5078-10.9688 10.5078-1.4727.0001-2.667 1.1943-2.667 2.667.0005 1.4723 1.1946 2.6669 2.667 2.667 9.046 0 14.8679-7.177 16.2236-14.9248 1.3718-7.8443-1.6176-17.0001-10.6582-21.79396-.8898-.47172-1.834-.90441-2.8203-1.28906z" fill="#000"/></svg>