<svg fill="none" height="64" viewBox="0 0 64 64" width="64" xmlns="http://www.w3.org/2000/svg"><path clip-rule="evenodd" d="m21.3333 21.3335h21.3333c1.472 0 2.6667-1.192 2.6667-2.6667v-10.66664c0-1.47466-1.1947-2.66666-2.6667-2.66666h-21.3333c-1.472 0-2.6667 1.192-2.6667 2.66666v10.66664c0 1.4747 1.1947 2.6667 2.6667 2.6667zm26.6667-2.6665v-8c4.4107 0 8 3.5893 8 8v32c0 4.4107-3.5893 8-8 8h-32c-4.4107 0-8-3.5893-8-8v-32c0-4.4107 3.5893-8 8-8v8c0 2.9413 2.392 5.3333 5.3333 5.3333h21.3334c2.9413 0 5.3333-2.392 5.3333-5.3333z" fill="#6b7280" fill-rule="evenodd"/></svg>