<svg fill="none" height="64" viewBox="0 0 64 64" width="64" xmlns="http://www.w3.org/2000/svg"><path clip-rule="evenodd" d="m39.2188 35.4477c1.0426 1.0427 1.0426 2.7281 0 3.7707-.52.52-1.2027.7813-1.8854.7813-.6826 0-1.3653-.2613-1.8853-.7813l-3.448-3.448-3.448 3.448c-.52.52-1.2027.7813-1.8853.7813-.6827 0-1.3654-.2613-1.8854-.7813-1.0426-1.0426-1.0426-2.728 0-3.7707l3.448-3.448-3.448-3.448c-1.0426-1.0426-1.0426-2.728 0-3.7706 1.0427-1.0427 2.728-1.0427 3.7707 0l3.448 3.448 3.448-3.448c1.0427-1.0427 2.728-1.0427 3.7707 0 1.0426 1.0426 1.0426 2.728 0 3.7706l-3.448 3.448zm-7.2186-30.11445c-14.704 0-26.6667 11.96265-26.6667 26.66665s11.9627 26.6667 26.6667 26.6667 26.6666-11.9627 26.6666-26.6667-11.9626-26.66665-26.6666-26.66665z" fill="#6b7280" fill-rule="evenodd"/></svg>