<svg fill="none" height="64" viewBox="0 0 64 64" width="64" xmlns="http://www.w3.org/2000/svg"><path clip-rule="evenodd" d="m39.2186 35.448c1.0427 1.0427 1.0427 2.728 0 3.7707-.52.52-1.2026.7813-1.8853.7813s-1.3653-.2613-1.8853-.7813l-3.448-3.448-3.448 3.448c-.52.52-1.2027.7813-1.8854.7813-.6826 0-1.3653-.2613-1.8853-.7813-1.0427-1.0427-1.0427-2.728 0-3.7707l3.448-3.448-3.448-3.448c-1.0427-1.0427-1.0427-2.728 0-3.7707 1.0427-1.0426 2.728-1.0426 3.7707 0l3.448 3.448 3.448-3.448c1.0426-1.0426 2.728-1.0426 3.7706 0 1.0427 1.0427 1.0427 2.728 0 3.7707l-3.448 3.448zm8.7814-27.448h-32c-4.4107 0-8 3.5893-8 8v32c0 4.4107 3.5893 8 8 8h32c4.4107 0 8-3.5893 8-8v-32c0-4.4107-3.5893-8-8-8z" fill="#6b7280" fill-rule="evenodd"/></svg>