<svg fill="none" height="24" viewBox="0 0 24 24" width="24" xmlns="http://www.w3.org/2000/svg"><path clip-rule="evenodd" d="m14.707 13.2929c.391.391.391 1.023 0 1.414-.195.195-.451.293-.707.293s-.512-.098-.707-.293l-1.293-1.293-1.293 1.293c-.195.195-.451.293-.70701.293-.256 0-.512-.098-.707-.293-.391-.391-.391-1.023 0-1.414l1.29301-1.293-1.29301-1.293c-.391-.391-.391-1.02297 0-1.41397s1.02301-.391 1.41401 0l1.293 1.29297 1.293-1.29297c.391-.391 1.023-.391 1.414 0s.391 1.02297 0 1.41397l-1.293 1.293zm-2.707-11.2929c-5.51398 0-9.99998 4.486-9.99998 10s4.486 10 9.99998 10c5.514 0 10-4.486 10-10s-4.486-10-10-10z" fill="#6b7280" fill-rule="evenodd"/></svg>