<svg fill="none" height="64" viewBox="0 0 64 64" width="64" xmlns="http://www.w3.org/2000/svg"><path clip-rule="evenodd" d="m58.2559 28.8728c.0569.1814.1138.363.1515.5517.1654.8347.2587 1.6933.2587 2.576 0 .8213-.096 1.6293-.2453 2.4267-.0331.1817-.0775.3559-.122.5303-.0201.0789-.0403.1579-.0594.2377-.1333.5306-.2906 1.0506-.4853 1.56-.1013.264-.2053.5226-.3227.7786-.232.5067-.5013.992-.7973 1.4694-.046.074-.0898.1491-.1335.2242-.0729.1252-.1458.2504-.2292.3704-.0243.0346-.045.0705-.0655.1061-.0222.0384-.0442.0766-.0705.1126-.0206.0294-.0493.0483-.0776.0669-.023.0151-.0458.0301-.0637.0504-2.432 3.2587-6.2827 5.4-10.6613 5.4h-.032c-.064-1.2426-.536-2.4666-1.464-3.4266-.9974-1.0374-2.3974-1.632-3.8374-1.632-.9493 0-1.864.248-2.6666.7146v-8.9893c0-2.9413-2.392-5.3333-5.3334-5.3333-2.9386 0-5.3333 2.392-5.3333 5.3333v8.7093c-.8027-.4613-1.7147-.7093-2.6667-.7093-1.424 0-2.7626.5547-3.7706 1.5627-1.04 1.0373-1.56 2.4053-1.56 3.7706h-.0027c-4.3787 0-8.2293-2.1413-10.65867-5.4-.01869-.0198-.04147-.0346-.06431-.0494-.02931-.0189-.05871-.0379-.07969-.0679-.0282-.0386-.05145-.0797-.07479-.1209-.0186-.0329-.03726-.0659-.05854-.0978-.08512-.1225-.16046-.2505-.23572-.3784-.04264-.0725-.08526-.1449-.12962-.2162-.29333-.4774-.56533-.9627-.79733-1.4694-.11356-.2478-.21214-.498-.31265-.7532l-.01002-.0254c-.192-.5094-.352-1.0294-.48266-1.56-.01687-.0675-.0343-.1345-.0517-.2013-.0486-.1866-.09696-.3723-.1323-.5667-.14667-.7974-.24534-1.6054-.24534-2.4267 0-.8827.096-1.7413.25867-2.576.03886-.1943.09807-.3812.15727-.5679.03422-.108.06845-.216.09873-.3254.01115-.041.02226-.0819.03337-.1229.12713-.4686.25428-.9373.4333-1.3811.09659-.2415.21518-.4675.33413-.6941.05181-.0988.1037-.1976.15387-.2979.01706-.0339.03407-.0678.05105-.1016.18741-.3732.372-.7408.59695-1.0904.17005-.2691.3627-.5174.5555-.7658.04603-.0593.09208-.1186.13783-.1782l.00945-.0122c.25812-.3319.51405-.6609.80122-.9692.25727-.2774.53362-.5262.81327-.778.01601-.0144.03203-.0289.04806-.0433.31467-.2827.63467-.5547.97597-.8053.3174-.2347.6427-.448.9814-.6507.3733-.2293.7546-.4347 1.1493-.624.3467-.168.6933-.32 1.056-.456.432-.1653.8773-.296 1.3307-.4133.36-.096.712-.1894 1.0853-.2507.0705-.0129.1389-.0315.2072-.0501.0869-.0237.1738-.0473.2648-.0592 2.1893-6.3574 8.2533-10.78671 15.1333-10.78671 6.8827 0 12.9467 4.42931 15.1334 10.78671.0912.0119.1791.0356.2669.0593.0687.0186.1375.0371.2077.05.3707.0613.7254.1547 1.0827.2507.4533.1173.8987.248 1.3307.4133.3626.136.712.288 1.056.456.3946.1893.776.3947 1.1493.624.3387.2027.6667.416.984.6507.3387.2506.6587.5226.9733.8053.2987.2667.5894.528.864.8213.2907.312.5494.6454.808.9814.0339.0436.0678.087.1016.1304.2063.2645.4112.5272.5944.8136.2216.3482.4054.7142.5921 1.0859.0177.0353.0354.0707.0533.1061.0501.1003.102.1992.1538.2979.119.2266.2376.4526.3342.6941.182.4452.3096.9153.4371 1.3854.0107.0395.0214.079.0322.1186.0308.1149.0663.2282.1018.3416zm-23.5888 18.1769 3.48-3.36c1.0613-1.0213 2.7493-.992 3.7706.0667 1.024 1.0613.9947 2.7493-.064 3.7707l-8 7.7253c-.52.496-1.1866.7467-1.8533.7467-.6827 0-1.3653-.2587-1.8853-.7814l-8-8c-1.0427-1.04-1.0427-2.728 0-3.7706 1.04-1.04 2.728-1.04 3.7706 0l3.448 3.448v-14.896c0-1.4747 1.1947-2.6667 2.6667-2.6667s2.6667 1.192 2.6667 2.6667z" fill="#6b7280" fill-rule="evenodd"/></svg>