<svg fill="none" height="64" viewBox="0 0 64 64" width="64" xmlns="http://www.w3.org/2000/svg"><path clip-rule="evenodd" d="m58.0782 30.328-12.8747-16c-.928-1.1467-2.6053-1.3333-3.7493-.4053-1.1493.9226-1.328 2.6-.408 3.7493l11.5093 14.2987-11.9386 14.32c-.9414 1.1333-.7894 2.816.3413 3.76.5013.4133 1.104.616 1.7067.616.7653 0 1.5226-.3254 2.0506-.9574l13.3334-16c.8133-.9786.8266-2.392.0293-3.3813zm-46.6328 1.7005 11.9387-14.32c.9413-1.1333.7867-2.816-.3413-3.7573-1.136-.9413-2.8134-.7893-3.76.3413l-13.33337 16c-.81066.976-.824 2.3894-.02666 3.3787l12.87463 16c.528.6533 1.2987.9947 2.08.9947.5867 0 1.1787-.192 1.6694-.5867 1.1493-.9253 1.328-2.6027.4053-3.752zm26.7033-1.6709c1.056-1.024 2.7493-.9893 3.7706.0667 1.0214 1.0586.992 2.7466-.0666 3.7706l-8 7.7254c-.5174.496-1.1867.7466-1.8534.7466-.6826 0-1.3626-.2613-1.8853-.7813l-8-8c-1.04-1.0427-1.04-2.7307 0-3.7707 1.0427-1.0426 2.7307-1.0426 3.7707 0l3.448 3.4454v-12.2267c0-1.4747 1.1946-2.6667 2.6666-2.6667 1.4747 0 2.6667 1.192 2.6667 2.6667v12.384z" fill="#6b7280" fill-rule="evenodd"/></svg>