<svg width="64" height="64" viewBox="0 0 64 64" fill="none" xmlns="http://www.w3.org/2000/svg">
<path d="M34.8187 9.76132C35.2786 8.48765 36.6373 7.74505 37.9794 8.08046C39.4112 8.4384 40.2814 9.88773 39.9239 11.3195L29.2619 53.9751L29.181 54.2387C28.7211 55.5124 27.3624 56.2549 26.0202 55.9196C24.5884 55.5616 23.7181 54.1123 24.0757 52.6805L34.7377 10.0249L34.8187 9.76132ZM16.7807 19.4471C17.8244 18.4034 19.5163 18.4034 20.56 19.4471C21.6031 20.4909 21.6036 22.1829 20.56 23.2264L11.7851 31.9987L20.56 40.7736L20.7427 40.9772C21.5988 42.0267 21.5379 43.5743 20.56 44.5529C19.5814 45.5315 18.0314 45.5947 16.9817 44.7382L16.7807 44.5529L6.11606 33.891C5.07232 32.8472 5.07232 31.1528 6.11606 30.1091L16.7807 19.4471ZM43.4396 19.4471C44.4178 18.469 45.9656 18.4067 47.0154 19.2618L47.219 19.4471L57.8836 30.1091L58.0611 30.3074C58.4504 30.7829 58.6666 31.3814 58.6666 32.0013C58.6663 32.7097 58.3845 33.39 57.8836 33.891L47.219 44.5529C46.1752 45.5967 44.4834 45.5967 43.4396 44.5529C42.3964 43.5091 42.3961 41.8172 43.4396 40.7736L52.212 31.9987L43.4396 23.2264L43.2569 23.0228C42.4007 21.9733 42.4616 20.4257 43.4396 19.4471Z" fill="#141414"/>
</svg>
