<svg fill="none" height="24" viewBox="0 0 24 24" width="24" xmlns="http://www.w3.org/2000/svg"><path clip-rule="evenodd" d="m16.9513 5.37294 4.828 5.99996c.299.371.294.901-.011 1.268l-5 6c-.198.237-.482.359-.769.359-.226 0-.452-.076-.64-.231-.424-.354-.481-.985-.128-1.41l4.477-5.37-4.316-5.36196c-.345-.431-.278-1.06.153-1.406.43-.348 1.059-.278 1.406.152zm-9.7197-.0136c.353-.424.982-.481 1.409-.128.424.354.481.984.128 1.409l-4.477 5.36996 4.316 5.363c.345.43.278 1.059-.153 1.406-.184.148-.406.221-.626.221-.292 0-.582-.128-.78-.373l-4.828-6c-.299-.372-.294-.902.011-1.268z" fill="#6b7280" fill-rule="evenodd"/></svg>