<svg fill="none" height="64" viewBox="0 0 64 64" width="64" xmlns="http://www.w3.org/2000/svg"><path clip-rule="evenodd" d="m43.7746 23.9971 6.8933.0027c1.472 0 2.6667 1.1946 2.6667 2.6693-.0027 1.472-1.1973 2.664-2.6667 2.664h-.0026l-13.2667-.008c-1.4667 0-2.6587-1.1867-2.6667-2.6533l-.064-13.3254c-.008-1.472 1.1787-2.672 2.6534-2.68h.0133c1.4667 0 2.6587 1.184 2.6667 2.6534l.032 6.8746 8.7466-8.7466c1.0427-1.0427 2.7307-1.0427 3.7734 0 1.04 1.0426 1.04 2.728 0 3.7706zm-30.4294 10.67 13.3254.0666c1.4666.008 2.6533 1.1974 2.6533 2.664l.0107 13.2667c0 1.472-1.1947 2.6693-2.6667 2.6693-1.4747 0-2.6667-1.1946-2.6667-2.664l-.0053-6.8933-8.776 8.776c-.5227.52-1.2053.7813-1.8853.7813-.6827 0-1.3654-.2613-1.8854-.7813-1.0426-1.0427-1.0426-2.7307 0-3.7707l8.744-8.7466-6.872-.0347c-1.4746-.008-2.6613-1.2107-2.6533-2.68.0053-1.4693 1.2-2.6533 2.6667-2.6533z" fill="#6b7280" fill-rule="evenodd"/></svg>