<svg fill="none" height="24" viewBox="0 0 24 24" width="24" xmlns="http://www.w3.org/2000/svg"><path clip-rule="evenodd" d="m6.3662 14.9396 5.579-5.58 2.696 2.696-2.79 2.796m7.551-7.51507-2.739-2.739c-.768-.768-1.986-.796-2.715-.068l-2.003 2.002-1.238-1.238c-.391-.391-1.02397-.391-1.41397 0-.391.39-.391 1.023 0 1.414l1.23797 1.238-5.57897 5.57997c-.325.325-.527.757-.569 1.214l-.379 4.17c-.027.296.079.588.289.798.188.188.443.293.707.293.03 0 .06-.001.091-.004l4.17-.379c.457-.042.88797-.244 1.21297-.57l5.58-5.579 1.239 1.239c.195.195.451.293.707.293s.512-.098.707-.293c.39-.391.39-1.024 0-1.414l-1.238-1.239 2.001-2.003c.73-.72897.7-1.94697-.068-2.71497z" fill="#6b7280" fill-rule="evenodd"/></svg>