<svg width="24" height="24" viewBox="0 0 24 24" fill="none" xmlns="http://www.w3.org/2000/svg">
<g id="Icon/Fill/color-palette">
<path id="Mask" fill-rule="evenodd" clip-rule="evenodd" d="M16.75 7.7988C16.032 8.2128 15.115 7.9668 14.701 7.2498C14.287 6.5318 14.533 5.6148 15.25 5.2008C15.968 4.7868 16.885 5.0328 17.299 5.7498C17.713 6.4678 17.467 7.3848 16.75 7.7988ZM11 6.9998C10.172 6.9998 9.50002 6.3278 9.50002 5.4998C9.50002 4.6718 10.172 3.9998 11 3.9998C11.828 3.9998 12.5 4.6718 12.5 5.4998C12.5 6.3278 11.828 6.9998 11 6.9998ZM8.29902 9.2498C7.88502 9.9668 6.96802 10.2128 6.25002 9.7988C5.53302 9.3848 5.28702 8.4678 5.70102 7.7498C6.11502 7.0328 7.03202 6.7868 7.75002 7.2008C8.46702 7.6148 8.71302 8.5318 8.29902 9.2498ZM6.83902 14.7428C6.15202 15.2068 5.22002 15.0258 4.75702 14.3388C4.29302 13.6528 4.47502 12.7198 5.16102 12.2568C5.84802 11.7928 6.78002 11.9748 7.24302 12.6608C7.70702 13.3478 7.52502 14.2798 6.83902 14.7428ZM19.54 5.0848C17.617 3.1008 14.814 1.9928 11.906 1.9998H11.905C6.96102 2.0418 2.74102 5.7518 2.09202 10.6308C1.71002 13.4908 2.56202 16.3718 4.43002 18.5338C6.29802 20.6978 9.00702 21.9608 11.861 21.9998H11.898C13.099 21.9998 14.157 21.2128 14.426 20.1138C14.625 19.2918 14.418 18.4578 13.858 17.8258C13.777 17.7358 13.73 17.6158 13.73 17.5008C13.73 17.2258 13.955 17.0008 14.23 17.0008H15.881C19.073 17.0008 21.872 14.4028 21.993 11.3288C22.085 9.0288 21.214 6.8118 19.54 5.0848Z" fill="#231F20"/>
<mask id="mask0" mask-type="alpha" maskUnits="userSpaceOnUse" x="2" y="1" width="20" height="21">
<path id="Mask_2" fill-rule="evenodd" clip-rule="evenodd" d="M16.75 7.7988C16.032 8.2128 15.115 7.9668 14.701 7.2498C14.287 6.5318 14.533 5.6148 15.25 5.2008C15.968 4.7868 16.885 5.0328 17.299 5.7498C17.713 6.4678 17.467 7.3848 16.75 7.7988ZM11 6.9998C10.172 6.9998 9.50002 6.3278 9.50002 5.4998C9.50002 4.6718 10.172 3.9998 11 3.9998C11.828 3.9998 12.5 4.6718 12.5 5.4998C12.5 6.3278 11.828 6.9998 11 6.9998ZM8.29902 9.2498C7.88502 9.9668 6.96802 10.2128 6.25002 9.7988C5.53302 9.3848 5.28702 8.4678 5.70102 7.7498C6.11502 7.0328 7.03202 6.7868 7.75002 7.2008C8.46702 7.6148 8.71302 8.5318 8.29902 9.2498ZM6.83902 14.7428C6.15202 15.2068 5.22002 15.0258 4.75702 14.3388C4.29302 13.6528 4.47502 12.7198 5.16102 12.2568C5.84802 11.7928 6.78002 11.9748 7.24302 12.6608C7.70702 13.3478 7.52502 14.2798 6.83902 14.7428ZM19.54 5.0848C17.617 3.1008 14.814 1.9928 11.906 1.9998H11.905C6.96102 2.0418 2.74102 5.7518 2.09202 10.6308C1.71002 13.4908 2.56202 16.3718 4.43002 18.5338C6.29802 20.6978 9.00702 21.9608 11.861 21.9998H11.898C13.099 21.9998 14.157 21.2128 14.426 20.1138C14.625 19.2918 14.418 18.4578 13.858 17.8258C13.777 17.7358 13.73 17.6158 13.73 17.5008C13.73 17.2258 13.955 17.0008 14.23 17.0008H15.881C19.073 17.0008 21.872 14.4028 21.993 11.3288C22.085 9.0288 21.214 6.8118 19.54 5.0848Z" fill="white"/>
</mask>
<g mask="url(#mask0)">
<g id="&#240;&#159;&#142;&#168; Color">
<rect id="Base" width="24" height="24" fill="#0D1C2E"/>
</g>
</g>
</g>
</svg>
