<svg fill="none" height="64" viewBox="0 0 64 64" width="64" xmlns="http://www.w3.org/2000/svg"><path clip-rule="evenodd" d="m44.6665 20.7966c-1.9147 1.104-4.36.448-5.464-1.464-1.104-1.9147-.448-4.36 1.464-5.464 1.9147-1.104 4.36-.448 5.464 1.464 1.104 1.9147.448 4.36-1.464 5.464zm-15.3334-2.1305c-2.208 0-4-1.792-4-4s1.792-4 4-4 4 1.792 4 4-1.792 4-4 4zm-7.2026 6c-1.104 1.912-3.5493 2.568-5.464 1.464-1.912-1.104-2.568-3.5493-1.464-5.464 1.104-1.912 3.5493-2.568 5.464-1.464 1.912 1.104 2.568 3.5493 1.464 5.464zm-3.8933 14.6477c-1.832 1.2373-4.3173.7546-5.552-1.0774-1.2373-1.8293-.752-4.3173 1.0774-5.552 1.832-1.2373 4.3173-.752 5.5519 1.0774 1.2374 1.832.752 4.3173-1.0773 5.552zm33.8694-25.7545c-5.128-5.29069-12.6027-8.24536-20.3574-8.22669h-.0026c-13.184.112-24.43738 10.00529-26.16805 23.01599-1.01867 7.6267 1.25333 15.3093 6.23465 21.0747 4.9814 5.7706 12.2054 9.1386 19.816 9.2426h.0987c3.2027 0 6.024-2.0986 6.7413-5.0293.5307-2.192-.0213-4.416-1.5146-6.1013-.216-.24-.3414-.56-.3414-.8667 0-.7333.6-1.3333 1.3334-1.3333h4.4026c8.512 0 15.976-6.928 16.2987-15.1254.2453-6.1333-2.0773-12.0453-6.5413-16.6506z" fill="#6b7280" fill-rule="evenodd"/></svg>