<svg fill="none" height="24" viewBox="0 0 24 24" width="24" xmlns="http://www.w3.org/2000/svg"><path clip-rule="evenodd" d="m16.75 7.79879c-.718.414-1.635.168-2.049-.549-.414-.718-.168-1.635.549-2.049.718-.414 1.635-.168 2.049.549.414.718.168 1.635-.549 2.049zm-5.75-.79894c-.828 0-1.50004-.672-1.50004-1.5s.67204-1.5 1.50004-1.5 1.5.672 1.5 1.5-.672 1.5-1.5 1.5zm-2.70103 2.25c-.414.717-1.331.96305-2.049.549-.717-.414-.963-1.331-.549-2.049.414-.717 1.331-.963 2.049-.549.717.414.963 1.331.549 2.049zm-1.45998 5.49285c-.687.464-1.619.283-2.082-.404-.464-.686-.282-1.619.404-2.082.687-.464 1.619-.282 2.082.404.464.687.282 1.619-.404 2.082zm12.70101-9.65791c-1.923-1.984-4.726-3.092-7.634-3.085h-.001c-4.94401.042-9.16401 3.752-9.81301 8.63101-.382 2.86.47 5.741 2.338 7.903 1.868 2.164 4.577 3.427 7.43101 3.466h.037c1.201 0 2.259-.787 2.528-1.886.199-.822-.008-1.656-.568-2.288-.081-.09-.128-.21-.128-.325 0-.275.225-.5.5-.5h1.651c3.192 0 5.991-2.598 6.112-5.672.092-2.30001-.779-4.51701-2.453-6.24401z" fill="#6b7280" fill-rule="evenodd"/></svg>