<svg fill="none" height="64" viewBox="0 0 64 64" width="64" xmlns="http://www.w3.org/2000/svg"><path clip-rule="evenodd" d="m28.7918 35.2342 4.5121-1.824 1.9039-4.6454-4.512 1.824zm13.6758-10.1149-4.656 11.3547c-.272.6667-.8 1.192-1.4667 1.464l-11.2347 4.536c-.328.1307-.6666.192-.9973.192-.7227 0-1.4-.312-1.9013-.8267-.048-.0453-.0987-.0826-.144-.128-.024-.0293-.04-.064-.0614-.0933-.6346-.736-.8693-1.776-.4746-2.7387l4.656-11.3546c.272-.6667.8026-1.192 1.4693-1.4614l11.2347-4.5386c1.0506-.416 2.2-.1174 2.9306.656.776.736 1.0747 1.888.6454 2.9386zm-10.4667-19.78629c-14.704 0-26.66667 11.96269-26.66667 26.66669s11.96267 26.6666 26.66667 26.6666 26.6667-11.9626 26.6667-26.6666-11.9627-26.66669-26.6667-26.66669z" fill="#6b7280" fill-rule="evenodd"/></svg>