<svg width="24" height="24" viewBox="0 0 24 24" fill="none" xmlns="http://www.w3.org/2000/svg">
<g id="Icon/Fill/compass">
<path id="Mask" fill-rule="evenodd" clip-rule="evenodd" d="M10.7969 13.2129L12.4889 12.5289L13.2029 10.7869L11.5109 11.4709L10.7969 13.2129ZM15.9253 9.41989L14.1793 13.6779C14.0773 13.9279 13.8793 14.1249 13.6293 14.2269L9.41631 15.9279C9.29331 15.9769 9.16631 15.9999 9.04231 15.9999C8.77131 15.9999 8.51731 15.8829 8.32931 15.6899C8.31131 15.6729 8.29231 15.6589 8.27531 15.6419C8.26631 15.6309 8.26031 15.6179 8.25231 15.6069C8.01431 15.3309 7.92631 14.9409 8.07431 14.5799L9.82031 10.3219C9.92231 10.0719 10.1213 9.87489 10.3713 9.77389L14.5843 8.07189C14.9783 7.91589 15.4093 8.02789 15.6833 8.31789C15.9743 8.59389 16.0863 9.02589 15.9253 9.41989ZM12.0003 1.99989C6.48631 1.99989 2.00031 6.48589 2.00031 11.9999C2.00031 17.5139 6.48631 21.9999 12.0003 21.9999C17.5143 21.9999 22.0003 17.5139 22.0003 11.9999C22.0003 6.48589 17.5143 1.99989 12.0003 1.99989Z" fill="#231F20"/>
<mask id="mask0" mask-type="alpha" maskUnits="userSpaceOnUse" x="2" y="1" width="21" height="21">
<path id="Mask_2" fill-rule="evenodd" clip-rule="evenodd" d="M10.7969 13.2129L12.4889 12.5289L13.2029 10.7869L11.5109 11.4709L10.7969 13.2129ZM15.9253 9.41989L14.1793 13.6779C14.0773 13.9279 13.8793 14.1249 13.6293 14.2269L9.41631 15.9279C9.29331 15.9769 9.16631 15.9999 9.04231 15.9999C8.77131 15.9999 8.51731 15.8829 8.32931 15.6899C8.31131 15.6729 8.29231 15.6589 8.27531 15.6419C8.26631 15.6309 8.26031 15.6179 8.25231 15.6069C8.01431 15.3309 7.92631 14.9409 8.07431 14.5799L9.82031 10.3219C9.92231 10.0719 10.1213 9.87489 10.3713 9.77389L14.5843 8.07189C14.9783 7.91589 15.4093 8.02789 15.6833 8.31789C15.9743 8.59389 16.0863 9.02589 15.9253 9.41989ZM12.0003 1.99989C6.48631 1.99989 2.00031 6.48589 2.00031 11.9999C2.00031 17.5139 6.48631 21.9999 12.0003 21.9999C17.5143 21.9999 22.0003 17.5139 22.0003 11.9999C22.0003 6.48589 17.5143 1.99989 12.0003 1.99989Z" fill="white"/>
</mask>
<g mask="url(#mask0)">
<g id="&#240;&#159;&#142;&#168; Color">
<rect id="Base" width="24" height="24" fill="#0D1C2E"/>
</g>
</g>
</g>
</svg>
