<svg fill="none" height="24" viewBox="0 0 24 24" width="24" xmlns="http://www.w3.org/2000/svg"><path clip-rule="evenodd" d="m10.7969 13.2129 1.692-.684.714-1.742-1.692.684zm5.1284-3.79303-1.746 4.25803c-.102.25-.3.447-.55.549l-4.21298 1.701c-.123.049-.25.072-.374.072-.271 0-.525-.117-.713-.31-.018-.017-.037-.031-.054-.048-.009-.011-.015-.024-.023-.035-.238-.276-.326-.666-.178-1.027l1.746-4.258c.102-.25.30098-.44703.55098-.54803l4.213-1.702c.394-.156.825-.044 1.099.246.291.276.403.708.242 1.102zm-3.925-7.41987c-5.51398 0-9.99998 4.486-9.99998 10s4.486 10 9.99998 10c5.514 0 10-4.486 10-10s-4.486-10-10-10z" fill="#6b7280" fill-rule="evenodd"/></svg>