<svg fill="none" height="64" viewBox="0 0 64 64" width="64" xmlns="http://www.w3.org/2000/svg"><path clip-rule="evenodd" d="m24 32.0002v2.6666h-8.888c-.9813 0-1.7786-.7973-1.7786-1.7786v-17.776c0-.9814.7973-1.7787 1.7786-1.7787h17.776c.9814 0 1.7787.7973 1.7787 1.7787v8.888h-2.6667c-4.4106 0-8 3.5893-8 8zm24-8.0002h-8v-8.888c0-3.9227-3.1893-7.112-7.112-7.112h-17.776c-3.9227 0-7.112 3.1893-7.112 7.112v17.776c0 3.9227 3.1893 7.112 7.112 7.112h8.888v8c0 4.4107 3.5893 8 8 8h16c4.4107 0 8-3.5893 8-8v-16c0-4.4107-3.5893-8-8-8z" fill="#6b7280" fill-rule="evenodd"/></svg>