<svg fill="none" height="24" viewBox="0 0 24 24" width="24" xmlns="http://www.w3.org/2000/svg"><path clip-rule="evenodd" d="m9.00002 12.0001v1h-3.333c-.368 0-.667-.299-.667-.667v-6.66603c0-.368.299-.667.667-.667h6.66598c.368 0 .667.299.667.667v3.333h-1c-1.654 0-2.99998 1.34603-2.99998 3.00003zm8.99998-3.0001h-3v-3.333c0-1.471-1.196-2.667-2.667-2.667h-6.666c-1.471 0-2.667 1.196-2.667 2.667v6.666c0 1.471 1.196 2.667 2.667 2.667h3.333v3c0 1.654 1.346 3 3 3h6c1.654 0 3-1.346 3-3v-6c0-1.654-1.346-3-3-3z" fill="#6b7280" fill-rule="evenodd"/></svg>