<svg fill="none" height="64" viewBox="0 0 64 64" width="64" xmlns="http://www.w3.org/2000/svg"><path clip-rule="evenodd" d="m53.2549 15.9895c-.0054-1.4693-1.2-2.656-2.6667-2.656h-.0107c-1.472.0053-2.6613 1.2053-2.656 2.6773l.056 13.3334c0 .712-.272 1.384-.7733 1.888-.504.5066-1.1707.7866-1.8827.7893l-23.784.0987 7.1627-9.0294c.9147-1.1546.72-2.832-.432-3.7466-1.152-.9147-2.8293-.7174-3.7467.432l-10.6106 13.376c-.776.9786-.768 2.36.0133 3.3333l10.72 13.288c.528.6533 1.2987.992 2.0773.992.5894 0 1.1814-.1947 1.6747-.592 1.144-.9227 1.3253-2.6027.4-3.7493l-7.2373-8.9707 23.784-.0987c2.136-.008 4.1413-.848 5.648-2.3653 1.504-1.5173 2.328-3.5307 2.32-5.6667z" fill="#6b7280" fill-rule="evenodd"/></svg>