<svg fill="none" height="64" viewBox="0 0 64 64" width="64" xmlns="http://www.w3.org/2000/svg"><path clip-rule="evenodd" d="m50.0821 38.3345c-.92-1.152-2.6-1.336-3.7467-.416l-9.0026 7.2v-23.784c0-4.4134-3.5867-8-8-8h-13.3334c-1.472 0-2.6666 1.192-2.6666 2.6666 0 1.472 1.1946 2.6667 2.6666 2.6667h13.3334c1.472 0 2.6666 1.1947 2.6666 2.6667v23.784l-9-7.2c-1.1466-.92-2.8266-.736-3.7493.416-.92 1.1493-.7333 2.8293.4187 3.7466l13.3333 10.6667c.4853.3893 1.0747.5867 1.664.5867s1.1787-.1974 1.6667-.5867l13.3333-10.6667c1.1493-.9173 1.336-2.5973.416-3.7466z" fill="#6b7280" fill-rule="evenodd"/></svg>