<svg fill="none" height="64" viewBox="0 0 64 64" width="64" xmlns="http://www.w3.org/2000/svg"><path clip-rule="evenodd" d="m42.6665 26.6669h-23.784l7.2-9c.92-1.152.7333-2.8293-.416-3.7493-1.1493-.9173-2.8293-.736-3.7493.416l-10.6667 13.3333c-.7787.976-.7787 2.3574 0 3.3334l10.6667 13.3333c.528.6587 1.3013 1 2.0826 1 .5867 0 1.1734-.192 1.6667-.584 1.1493-.92 1.336-2.5973.416-3.7493l-7.2-9h23.784c1.4693 0 2.6667 1.1973 2.6667 2.6666v13.3334c0 1.472 1.1946 2.6666 2.6666 2.6666s2.6667-1.1946 2.6667-2.6666v-13.3334c0-4.4106-3.5893-8-8-8z" fill="#6b7280" fill-rule="evenodd"/></svg>