<svg width="24" height="24" viewBox="0 0 24 24" fill="none" xmlns="http://www.w3.org/2000/svg">
<g id="Icon/Fill/corner-left-down">
<path id="Mask" fill-rule="evenodd" clip-rule="evenodd" d="M18 5H13C11.346 5 10 6.346 10 8V16.919L6.62503 14.219C6.19403 13.875 5.56303 13.944 5.21903 14.375C4.87403 14.807 4.94403 15.436 5.37503 15.781L10.375 19.781C10.558 19.927 10.779 20 11 20C11.221 20 11.442 19.927 11.625 19.781L16.625 15.781C17.056 15.436 17.126 14.807 16.781 14.375C16.437 13.944 15.807 13.874 15.375 14.219L12 16.919V8C12 7.449 12.449 7 13 7H18C18.552 7 19 6.552 19 6C19 5.448 18.552 5 18 5Z" fill="#231F20"/>
<mask id="mask0" mask-type="alpha" maskUnits="userSpaceOnUse" x="4" y="5" width="15" height="15">
<path id="Mask_2" fill-rule="evenodd" clip-rule="evenodd" d="M18 5H13C11.346 5 10 6.346 10 8V16.919L6.62503 14.219C6.19403 13.875 5.56303 13.944 5.21903 14.375C4.87403 14.807 4.94403 15.436 5.37503 15.781L10.375 19.781C10.558 19.927 10.779 20 11 20C11.221 20 11.442 19.927 11.625 19.781L16.625 15.781C17.056 15.436 17.126 14.807 16.781 14.375C16.437 13.944 15.807 13.874 15.375 14.219L12 16.919V8C12 7.449 12.449 7 13 7H18C18.552 7 19 6.552 19 6C19 5.448 18.552 5 18 5Z" fill="white"/>
</mask>
<g mask="url(#mask0)">
<g id="&#240;&#159;&#142;&#168; Color">
<rect id="Base" width="24" height="24" fill="#0D1C2E"/>
</g>
</g>
</g>
</svg>
