<svg width="24" height="24" viewBox="0 0 24 24" fill="none" xmlns="http://www.w3.org/2000/svg">
<g id="Icon/Fill/corner-up-right">
<path id="Mask" fill-rule="evenodd" clip-rule="evenodd" d="M19.7812 10.3755L15.7812 5.37551C15.4342 4.94451 14.8062 4.87351 14.3752 5.21951C13.9442 5.56351 13.8742 6.19351 14.2192 6.62451L16.9202 10.0005H8.00018C6.34518 10.0005 5.00018 11.3455 5.00018 13.0005V18.0005C5.00018 18.5525 5.44818 19.0005 6.00018 19.0005C6.55218 19.0005 7.00018 18.5525 7.00018 18.0005V13.0005C7.00018 12.4485 7.44818 12.0005 8.00018 12.0005H16.9202L14.2192 15.3755C13.8742 15.8065 13.9442 16.4365 14.3752 16.7805C14.5592 16.9285 14.7802 17.0005 14.9992 17.0005C15.2932 17.0005 15.5832 16.8715 15.7812 16.6245L19.7812 11.6245C20.0732 11.2595 20.0732 10.7405 19.7812 10.3755Z" fill="#231F20"/>
<mask id="mask0" mask-type="alpha" maskUnits="userSpaceOnUse" x="5" y="5" width="16" height="15">
<path id="Mask_2" fill-rule="evenodd" clip-rule="evenodd" d="M19.7812 10.3755L15.7812 5.37551C15.4342 4.94451 14.8062 4.87351 14.3752 5.21951C13.9442 5.56351 13.8742 6.19351 14.2192 6.62451L16.9202 10.0005H8.00018C6.34518 10.0005 5.00018 11.3455 5.00018 13.0005V18.0005C5.00018 18.5525 5.44818 19.0005 6.00018 19.0005C6.55218 19.0005 7.00018 18.5525 7.00018 18.0005V13.0005C7.00018 12.4485 7.44818 12.0005 8.00018 12.0005H16.9202L14.2192 15.3755C13.8742 15.8065 13.9442 16.4365 14.3752 16.7805C14.5592 16.9285 14.7802 17.0005 14.9992 17.0005C15.2932 17.0005 15.5832 16.8715 15.7812 16.6245L19.7812 11.6245C20.0732 11.2595 20.0732 10.7405 19.7812 10.3755Z" fill="white"/>
</mask>
<g mask="url(#mask0)">
<g id="&#240;&#159;&#142;&#168; Color">
<rect id="Base" width="24" height="24" fill="#0D1C2E"/>
</g>
</g>
</g>
</svg>
