<svg fill="none" height="64" viewBox="0 0 64 64" width="64" xmlns="http://www.w3.org/2000/svg"><path clip-rule="evenodd" d="m52.7488 33.0011-10.6667-13.3333c-.92-1.152-2.6-1.336-3.7467-.416-1.152.9173-1.3386 2.5973-.4186 3.7467l7.2026 9.0026h-23.7866c-1.4694 0-2.6667-1.1973-2.6667-2.6666v-13.3334c0-1.4746-1.1947-2.6666-2.6667-2.6666s-2.6666 1.192-2.6666 2.6666v13.3334c0 4.4106 3.5893 8 8 8h23.7866l-7.2026 9c-.92 1.1493-.7334 2.8293.4186 3.7466.4907.3947 1.08.5867 1.664.5867.7814 0 1.5574-.344 2.0827-1.0027l10.6667-13.3333c.7786-.9733.7786-2.3573 0-3.3307z" fill="#6b7280" fill-rule="evenodd"/></svg>