<svg fill="none" height="24" viewBox="0 0 24 24" width="24" xmlns="http://www.w3.org/2000/svg"><path clip-rule="evenodd" d="m20 9.00007h-15.99997v-1c0-.55101.448-1.00001 1-1.00001h13.99997c.552 0 1 .449 1 1.00001zm-3 6.00003h-2c-.55 0-1-.45-1-1s.45-1 1-1h2c.55 0 1 .45 1 1s-.45 1-1 1zm-6 0h-4c-.55 0-1-.45-1-1s.45-1 1-1h4c.55 0 1 .45 1 1s-.45 1-1 1zm8-10.0001h-13.99998c-1.654 0-3 1.346-3 3v8c0 1.654 1.346 3 3 3h13.99998c1.654 0 3-1.346 3-3v-8c0-1.654-1.346-3-3-3z" fill="#6b7280" fill-rule="evenodd"/></svg>