<svg fill="none" height="64" viewBox="0 0 64 64" width="64" xmlns="http://www.w3.org/2000/svg"><path clip-rule="evenodd" d="m53.3335 24.0003h-42.6666v-2.6666c0-1.4694 1.1946-2.6667 2.6666-2.6667h37.3334c1.472 0 2.6666 1.1973 2.6666 2.6667zm-8 16h-5.3333c-1.4667 0-2.6667-1.2-2.6667-2.6666 0-1.4667 1.2-2.6667 2.6667-2.6667h5.3333c1.4667 0 2.6667 1.2 2.6667 2.6667 0 1.4666-1.2 2.6666-2.6667 2.6666zm-16 0h-10.6667c-1.4667 0-2.6667-1.2-2.6667-2.6666 0-1.4667 1.2-2.6667 2.6667-2.6667h10.6667c1.4666 0 2.6666 1.2 2.6666 2.6667 0 1.4666-1.2 2.6666-2.6666 2.6666zm21.3333-26.6668h-37.3333c-4.41067 0-8 3.5893-8 8v21.3333c0 4.4107 3.58933 8 8 8h37.3333c4.4107 0 8-3.5893 8-8v-21.3333c0-4.4107-3.5893-8-8-8z" fill="#6b7280" fill-rule="evenodd"/></svg>