<svg fill="none" height="24" viewBox="0 0 24 24" width="24" xmlns="http://www.w3.org/2000/svg"><path clip-rule="evenodd" d="m8.55571 16c-.306 0-.556-.249-.556-.556v-7.444h7.44499c.306 0 .555.249.555.556v7.444zm12.44399 0h-3v-7.444c0-1.41-1.146-2.556-2.555-2.556h-7.44499v-3c0-.553-.447-1-1-1-.552 0-1 .447-1 1v3h-3c-.552 0-1 .447-1 1s.448 1 1 1h3v7.444c0 1.41 1.147 2.556 2.556 2.556h7.44399v3c0 .553.448 1 1 1 .553 0 1-.447 1-1v-3h3c.553 0 1-.447 1-1s-.447-1-1-1z" fill="#6b7280" fill-rule="evenodd"/></svg>