<svg fill="none" height="24" viewBox="0 0 24 24" width="24" xmlns="http://www.w3.org/2000/svg"><path clip-rule="evenodd" d="m12 10.503 8.512-3.57799c-.146-.149-.311-.282-.511-.375l-7.2-3.374c-.505-.235-1.097-.235-1.602 0l-7.19999 3.374c-.2.093-.365.226-.511.375zm-.75 1.3241-8.25-3.46796v7.72896c-.005.641.379 1.229.99 1.518l7.2 3.373c.0097.0046.02.0077.0303.0107.0099.003.0199.0059.0297.0103zm1.5 9.17v-9.17l8.25-3.46796v7.73796c0 .639-.387 1.224-.999 1.509l-7.2 3.373c-.0091.0046-.0187.0075-.0285.0104-.0075.0023-.0151.0046-.0225.0076z" fill="#6b7280" fill-rule="evenodd"/></svg>