<svg fill="none" height="64" viewBox="0 0 64 64" width="64" xmlns="http://www.w3.org/2000/svg"><path clip-rule="evenodd" d="m31.9999 28.0077 22.6987-9.5413c-.3894-.3974-.8294-.752-1.3627-1l-19.2-8.99738c-1.3467-.62666-2.9253-.62666-4.272 0l-19.2 8.99738c-.5333.248-.97333.6026-1.36266 1zm-2 3.531-22.00002-9.248v20.6107c-.01333 1.7093 1.01067 3.2773 2.64002 4.048l19.2 8.9946c.0259.0123.0532.0204.0809.0286.0263.0078.053.0157.0791.0274zm4 24.4534v-24.4534l22-9.248v20.6347c0 1.704-1.032 3.264-2.664 4.024l-19.2 8.9946c-.0242.0121-.05.0199-.0761.0278-.02.006-.0402.0121-.0599.0203z" fill="#6b7280" fill-rule="evenodd"/></svg>