<svg fill="none" height="24" viewBox="0 0 24 24" width="24" xmlns="http://www.w3.org/2000/svg"><path clip-rule="evenodd" d="m12 22c5.5228 0 10-4.4772 10-10 0-5.52285-4.4772-10-10-10-5.52285 0-10 4.47715-10 10 0 5.5228 4.47715 10 10 10zm-.5551-1.2839c.177.1893.4045.2839.6825.2839.2781 0 .5056-.0946.6826-.2839.1769-.1767.2654-.3975.2654-.6625v-1.3517c.698-.1052 1.3173-.2982 1.858-.5789.6446-.3407 1.1502-.7886 1.5168-1.3438.3665-.5678.5498-1.2177.5498-1.9495 0-.9338-.2844-1.6846-.8532-2.2524-.5688-.5805-1.4598-1.0032-2.6732-1.2682l-2.0666-.4542c-.6699-.1514-1.1439-.3533-1.42196-.6057-.27807-.26497-.4171-.61197-.4171-1.041 0-.58044.22751-1.04732.68256-1.40063.4676-.36593 1.1059-.54889 1.9149-.54889.6319 0 1.1754.0694 1.6305.2082.455.12618.8658.29653 1.2323.51104.2655.15142.4993.22082.7015.2082.2149-.02524.3918-.10095.5309-.22713.139-.12618.2338-.2776.2844-.45426.0505-.18927.0442-.37855-.019-.56782-.0632-.20189-.1896-.37855-.3792-.52997-.4676-.36593-1.0301-.64984-1.6874-.85173-.4906-.15367-.9519-.25251-1.384-.29653v-1.31231c0-.26498-.0948-.4858-.2844-.66246-.1769-.18927-.3981-.28391-.6636-.28391-.278 0-.5055.09464-.6825.28391-.1769.17666-.2654.39748-.2654.66246v1.34278c-.7277.09-1.3723.28595-1.93387.58782-.65726.35331-1.16916.8265-1.53571 1.41956-.36655.58044-.54982 1.2429-.54982 1.98738 0 .95899.28439 1.73499.85317 2.32809.56878.593 1.42827 1.0158 2.57843 1.2681l2.0097.4354c.493.1009.8848.2334 1.1755.3974.2907.1515.4993.3344.6257.5489.1264.2019.1896.4417.1896.7193 0 .3407-.0948.6435-.2844.9085-.177.265-.4614.4732-.8532.6246s-.9037.2271-1.5357.2271c-.8089 0-1.5041-.0883-2.08553-.265-.56878-.1892-1.03013-.3848-1.38403-.5867-.26543-.1514-.49927-.2019-.7015-.1514-.20223.0378-.37287.1388-.5119.3028-.1264.1514-.20223.3344-.22751.5489s.00632.429.09479.6435c.08848.2019.24647.3723.47399.5111.46766.265 1.03644.4984 1.70634.7003.56664.1676 1.19865.2743 1.89595.3202v1.2886c0 .265.0885.4858.2654.6625z" fill="#6b7280" fill-rule="evenodd"/></svg>