<svg fill="none" height="24" viewBox="0 0 24 24" width="24" xmlns="http://www.w3.org/2000/svg"><path clip-rule="evenodd" d="m12 22c5.5228 0 10-4.4772 10-10 0-5.52285-4.4772-10-10-10-5.52285 0-10 4.47715-10 10 0 5.5228 4.47715 10 10 10zm-4.72288-3.2937c.19707.1958.43109.2937.70205.2937h7.88883c.2833 0 .5173-.0979.702-.2937.1848-.2089.2772-.4569.2772-.7441 0-.3002-.0924-.5417-.2772-.7244-.1847-.1958-.4187-.2937-.702-.2937h-4.8035v-4.014h2.3463c.2463 0 .4496-.0784.6097-.235.1724-.1697.2586-.3785.2586-.6266 0-.261-.0862-.4699-.2586-.6265-.1601-.1567-.3634-.235-.6097-.235h-2.3463v-2.03637c0-.69184.1724-1.22051.5173-1.58601.3449-.37856.8745-.56784 1.5888-.56784.3942 0 .7883.05222 1.1824.15665.3942.10442.776.28718 1.1455.54825.2217.15664.4311.22844.6281.21538.2094-.01305.3819-.07832.5173-.1958.1478-.13054.2525-.29371.3141-.48951.0616-.19581.0554-.39814-.0185-.607-.0615-.20885-.197-.39813-.4064-.56783-.4065-.32634-.9299-.58741-1.5704-.78321-.6405-.19581-1.2748-.29371-1.9029-.29371-.973 0-1.7859.17622-2.4387.52867-.64047.35245-1.12082.84849-1.44105 1.48811-.32024.63963-.48035 1.39021-.48035 2.25175v1.93847h-.84985c-.23402 0-.43724.0783-.60968.235-.16011.1566-.24017.3655-.24017.6265 0 .2481.08006.4569.24017.6266.17244.1566.37566.235.60968.235h.84985v4.014h-.72053c-.27096 0-.50498.0979-.70205.2937-.18475.1827-.27712.4242-.27712.7244 0 .2872.09237.5352.27712.7441z" fill="#6b7280" fill-rule="evenodd"/></svg>