<svg fill="none" height="64" viewBox="0 0 64 64" width="64" xmlns="http://www.w3.org/2000/svg"><path clip-rule="evenodd" d="m31.9999 58.6668c14.7276 0 26.6667-11.939 26.6667-26.6666s-11.9391-26.6667-26.6667-26.6667-26.66665 11.9391-26.66665 26.6667 11.93905 26.6666 26.66665 26.6666zm-1.4802-3.4237c.4719.5047 1.0786.7571 1.8201.7571s1.3482-.2524 1.8201-.7571c.4719-.4711.7078-1.06.7078-1.7666v-3.6047c1.8613-.2805 3.5128-.7951 4.9547-1.5436 1.719-.9085 3.0672-2.103 4.0447-3.5836.9774-1.5142 1.4662-3.2471 1.4662-5.1987 0-2.49-.7584-4.4921-2.2752-6.0063-1.5167-1.5478-3.893-2.6751-7.1287-3.3817l-5.5108-1.2114c-1.7864-.4037-3.0504-.9421-3.7919-1.6151-.7415-.7066-1.1123-1.632-1.1123-2.776 0-1.5479.6067-2.7929 1.8201-3.735 1.2471-.9759 2.9492-1.4638 5.1064-1.4638 1.6853 0 3.1346.1851 4.348.5552 1.2134.3365 2.3088.7908 3.2863 1.3628.7078.4038 1.3314.5889 1.8706.5552.573-.0673 1.0449-.2692 1.4157-.6057.3707-.3364.6235-.7402.7584-1.2113.1348-.5047.1179-1.0095-.0506-1.5142-.1685-.5384-.5056-1.0095-1.0112-1.4133-1.2471-.9758-2.747-1.7329-4.4997-2.2713-1.3083-.4097-2.5386-.6733-3.6907-.7907v-3.4995c0-.7066-.2528-1.29545-.7584-1.76654-.4719-.50473-1.0617-.7571-1.7695-.7571-.7415 0-1.3482.25237-1.8201.7571-.4719.47109-.7078 1.05994-.7078 1.76654v3.5808c-1.9405.24-3.6594.7625-5.157 1.5675-1.7527.9422-3.1177 2.204-4.0952 3.7855-.9774 1.5478-1.4662 3.3144-1.4662 5.2997 0 2.5573.7584 4.6267 2.2751 6.2082 1.5168 1.5815 3.8088 2.7087 6.876 3.3817l5.3591 1.1609c1.3146.2691 2.3594.6225 3.1346 1.0599.7753.4038 1.3314.8917 1.6685 1.4637.337.5384.5056 1.1777.5056 1.918 0 .9085-.2528 1.7161-.7584 2.4227-.4719.7066-1.2303 1.2618-2.2751 1.6656-1.0449.4038-2.41.6057-4.0953.6057-2.1571 0-4.0109-.2355-5.5614-.7066-1.5167-.5048-2.747-1.0263-3.6907-1.5647-.7078-.4038-1.3314-.5384-1.8707-.4038-.5393.101-.9943.3702-1.365.8076-.3371.4038-.5393.8917-.6067 1.4637-.0675.572.0168 1.1441.2527 1.7161.236.5384.6573.9926 1.264 1.3628 1.2471.7066 2.7639 1.3291 4.5502 1.8675 1.5111.447 3.1964.7316 5.0559.8538v3.4364c0 .7066.2359 1.2955.7078 1.7666z" fill="#6b7280" fill-rule="evenodd"/></svg>