<svg fill="none" height="64" viewBox="0 0 64 64" width="64" xmlns="http://www.w3.org/2000/svg"><path clip-rule="evenodd" d="m31.9999 58.6668c14.7276 0 26.6667-11.939 26.6667-26.6666s-11.9391-26.6667-26.6667-26.6667-26.66665 11.9391-26.66665 26.6667 11.93905 26.6666 26.66665 26.6666zm-6.1099-9.5963c1.9898 1.0642 4.237 1.5963 6.7415 1.5963 1.6125 0 3.2249-.2574 4.8374-.7724 1.6468-.5493 3.0534-1.3732 4.2199-2.4717.4803-.4463.7719-.9269.8749-1.4418.1372-.5493.1372-1.0471 0-1.4934-.1373-.4806-.3946-.8754-.772-1.1843-.343-.3433-.7719-.515-1.2865-.515-.5146-.0343-1.0807.1545-1.6983.5664-.9263.618-1.8526 1.0643-2.7789 1.3389-.892.2403-1.8698.3605-2.9333.3605-1.3381 0-2.556-.2747-3.6538-.824-1.0979-.5836-2.0242-1.4761-2.779-2.6777-.5463-.911-.9939-2.0095-1.343-3.2956h5.7173c.6518 0 1.1836-.2231 1.5953-.6694.446-.4463.669-.9784.669-1.5963 0-.618-.223-1.1501-.669-1.5964-.4117-.4462-.9435-.6694-1.5953-.6694h-6.4393c-.03-.6126-.0449-1.2477-.0449-1.9053 0-.5687.0104-1.1008.0314-1.5963h6.4528c.6518 0 1.1836-.2231 1.5953-.6694.446-.4463.669-.9784.669-1.5963 0-.618-.223-1.1501-.669-1.5964-.4117-.4462-.9435-.6694-1.5953-.6694h-5.7165c.349-1.2784.7964-2.3598 1.3422-3.2441.7548-1.2016 1.6811-2.077 2.779-2.6262 1.0978-.5836 2.3157-.8754 3.6538-.8754 1.0292 0 2.0413.1373 3.0362.4119.9949.2747 1.8698.7038 2.6246 1.2874.5832.4463 1.1321.6694 1.6468.6694.5489-.0343.9949-.206 1.338-.5149.3774-.3433.6347-.7725.7719-1.2874.1715-.5149.1887-1.047.0515-1.5963-.1373-.5493-.4632-1.0471-.9778-1.4933-1.2694-1.0986-2.6932-1.8882-4.2714-2.3688-1.5438-.4806-3.1048-.7209-4.683-.7209-2.5045 0-4.7517.5321-6.7415 1.5963-1.9899 1.0642-3.6367 2.6262-4.9404 4.686-1.052 1.7071-1.8331 3.7325-2.3431 6.0763h-2.9575c-.6518 0-1.2007.2232-1.6467.6694-.446.412-.669.9441-.669 1.5964 0 .6522.223 1.2015.669 1.6478.446.4119.9949.6179 1.6467.6179h2.3647c-.0326.5384-.0489 1.0877-.0489 1.6478 0 .6053.0127 1.2232.0381 1.8538h-2.3539c-.6518 0-1.2007.2232-1.6467.6694-.446.412-.669.9441-.669 1.5964 0 .6522.223 1.2015.669 1.6478.446.4119.9949.6179 1.6467.6179h2.9494c.5099 2.3405 1.2936 4.3831 2.3512 6.1278 1.3037 2.0598 2.9505 3.6218 4.9404 4.686z" fill="#6b7280" fill-rule="evenodd"/></svg>