<svg fill="none" height="64" viewBox="0 0 64 64" width="64" xmlns="http://www.w3.org/2000/svg"><path clip-rule="evenodd" d="m31.9999 58.6668c14.7276 0 26.6667-11.939 26.6667-26.6666s-11.9391-26.6667-26.6667-26.6667-26.66665 11.9391-26.66665 26.6667 11.93905 26.6666 26.66665 26.6666zm-7.6824-8.8901c.5822.5934 1.4042.8901 2.4658.8901 1.096 0 1.9179-.2967 2.4659-.8901.5822-.6283.8733-1.5185.8733-2.6704v-4.1365h6.1646c.7877 0 1.3871-.192 1.7981-.576.4452-.4189.6678-.9949.6678-1.7279 0-.7331-.2226-1.2916-.6678-1.6756-.411-.4188-1.0104-.6283-1.7981-.6283h-6.1646v-3.5605h5.8564c2.5343 0 4.692-.4364 6.4729-1.3091 1.7808-.8726 3.1508-2.0944 4.1097-3.6652s1.4384-3.4209 1.4384-5.5503c0-2.1991-.4795-4.119-1.4384-5.7597-.9247-1.6406-2.3117-2.9147-4.1611-3.8223-1.8152-.9076-4.0413-1.3614-6.6784-1.3614h-8.99c-1.0617 0-1.8837.2967-2.4659.8901-.5479.5585-.8219 1.3789-.8219 2.461v13.5091h-2.3118c-.7877 0-1.4041.2095-1.8494.6283-.4109.384-.6164.9425-.6164 1.6756 0 .733.2055 1.309.6164 1.7279.4453.384 1.0617.576 1.8494.576h2.3118v3.5605h-2.3118c-.7877 0-1.4041.2095-1.8494.6283-.4109.384-.6164.9425-.6164 1.6756 0 .733.2055 1.309.6164 1.7279.4453.384 1.0617.576 1.8494.576h2.3118v4.1365c0 1.1519.2911 2.0421.8733 2.6704zm10.5826-19.583h-4.8803v-11.2052h4.8803c2.1919 0 3.8529.4712 4.9831 1.4137 1.1644.9425 1.7466 2.3912 1.7466 4.346s-.5822 3.3511-1.7466 4.1888c-1.1645.8378-2.8255 1.2567-4.9831 1.2567z" fill="#6b7280" fill-rule="evenodd"/></svg>