<svg fill="none" height="64" viewBox="0 0 64 64" width="64" xmlns="http://www.w3.org/2000/svg"><path clip-rule="evenodd" d="m31.9999 58.6668c14.7276 0 26.6667-11.939 26.6667-26.6666s-11.9391-26.6667-26.6667-26.6667-26.66665 11.9391-26.66665 26.6667 11.93905 26.6666 26.66665 26.6666zm-12.5943-8.7832c.5255.5222 1.1495.7832 1.8721.7832h21.0369c.7554 0 1.3794-.261 1.8721-.7832.4926-.5569.739-1.2183.739-1.9841 0-.8007-.2464-1.4446-.739-1.932-.4927-.5221-1.1167-.7832-1.8721-.7832h-12.8094v-10.7039h6.2569c.6569 0 1.1988-.2089 1.6258-.6266.4598-.4525.6897-1.0095.6897-1.6709 0-.6962-.2299-1.2531-.6897-1.6708-.427-.4178-.9689-.6266-1.6258-.6266h-6.2569v-5.4303c0-1.8449.4599-3.2547 1.3795-4.2294.9196-1.0095 2.332-1.5142 4.2369-1.5142 1.051 0 2.1021.1392 3.1531.4177s2.0692.7658 3.0545 1.462c.5912.4177 1.1496.6092 1.6751.5744.5583-.0348 1.0182-.2089 1.3795-.5222.3941-.3481.6733-.7832.8375-1.3053.1642-.5222.1478-1.0617-.0493-1.6187-.1642-.5569-.5255-1.0617-1.0838-1.5142-1.0839-.8703-2.4798-1.5664-4.1877-2.0886-1.7079-.5221-3.3994-.7832-5.0745-.7832-2.5947 0-4.7624.4699-6.5032 1.4098-1.7079.9398-2.9888 2.2626-3.8428 3.9683-.8539 1.7057-1.2809 3.7072-1.2809 6.0046v5.1693h-2.2663c-.624 0-1.1659.2088-1.6257.6266-.427.4177-.6405.9746-.6405 1.6708 0 .6614.2135 1.2184.6405 1.6709.4598.4177 1.0017.6266 1.6257.6266h2.2663v10.7039h-1.9214c-.7226 0-1.3466.2611-1.8721.7832-.4927.4874-.739 1.1313-.739 1.932 0 .7658.2463 1.4272.739 1.9841z" fill="#6b7280" fill-rule="evenodd"/></svg>