<svg fill="none" height="24" viewBox="0 0 24 24" width="24" xmlns="http://www.w3.org/2000/svg"><path clip-rule="evenodd" d="m12 22c5.5228 0 10-4.4772 10-10 0-5.52285-4.4772-10-10-10-5.52285 0-10 4.47715-10 10 0 5.5228 4.47715 10 10 10zm-2.88091-3.3338c.21833.2225.52656.3338.92471.3338.411 0 .7192-.1113.9247-.3338.2183-.2356.3275-.5694.3275-1.0014v-1.5512h2.3117c.2954 0 .5201-.072.6743-.216.1669-.1571.2504-.3731.2504-.648 0-.2748-.0835-.4843-.2504-.6283-.1542-.1571-.3789-.2356-.6743-.2356h-2.3117v-1.3352h2.1961c.9504 0 1.7595-.1636 2.4273-.4909.6679-.3272 1.1816-.7854 1.5412-1.3745.3596-.589.5394-1.28281.5394-2.08131 0-.82469-.1798-1.54465-.5394-2.15989-.3468-.61524-.8669-1.09304-1.5604-1.43338-.6807-.34035-1.5155-.51052-2.5044-.51052h-3.3713c-.39811 0-.70634.11127-.92468.3338-.20548.20944-.30823.51706-.30823.92286v5.06594h-.8669c-.29538 0-.52656.0785-.69352.2356-.15411.144-.23117.3534-.23117.6283s.07706.4909.23117.648c.16696.144.39814.216.69352.216h.8669v1.3352h-.8669c-.29538 0-.52656.0785-.69352.2356-.15411.144-.23117.3535-.23117.6283 0 .2749.07706.4909.23117.648.16696.144.39814.216.69352.216h.8669v1.5512c0 .432.10917.7658.3275 1.0014zm3.96851-7.3436h-1.8302v-4.20198h1.8302c.8219 0 1.4448.17672 1.8686.53015.4367.35344.655.89668.655 1.62974 0 .73309-.2183 1.25669-.655 1.57079-.4366.3142-1.0595.4713-1.8686.4713z" fill="#6b7280" fill-rule="evenodd"/></svg>