<svg fill="none" height="24" viewBox="0 0 24 24" width="24" xmlns="http://www.w3.org/2000/svg"><path clip-rule="evenodd" d="m12 22c5.5228 0 10-4.4772 10-10 0-5.52285-4.4772-10-10-10-5.52285 0-10 4.47715-10 10 0 5.5228 4.47715 10 10 10zm-2.29123-3.5986c.74623.3991 1.58893.5986 2.52803.5986.6047 0 1.2094-.0966 1.8141-.2897.6175-.2059 1.145-.5149 1.5824-.9269.1802-.1673.2895-.3475.3281-.5406.0515-.206.0515-.3927 0-.56-.0515-.1803-.148-.3283-.2895-.4442-.1286-.1287-.2894-.1931-.4824-.1931-.193-.0129-.4053.0579-.6369.2124-.3473.2318-.6947.3991-1.0421.5021-.3345.0901-.7011.1352-1.1.1352-.5017 0-.9585-.103-1.3702-.309-.4116-.2188-.759-.5536-1.04205-1.0041-.20486-.3417-.37274-.7536-.50363-1.2359h2.14398c.2444 0 .4439-.0837.5982-.251.1673-.1674.2509-.3669.2509-.5986 0-.2318-.0836-.4313-.2509-.5987-.1543-.1673-.3538-.251-.5982-.251h-2.41474c-.01123-.2297-.01684-.4679-.01684-.7145 0-.2133.00392-.4128.01177-.5986h2.41981c.2444 0 .4439-.0837.5982-.251.1673-.1674.2509-.3669.2509-.5987 0-.2317-.0836-.4312-.2509-.59858-.1543-.16736-.3538-.25104-.5982-.25104h-2.14367c.13085-.47941.29862-.88493.50332-1.21655.28305-.45057.63045-.77885 1.04205-.98483.4117-.21885.8685-.32827 1.3702-.32827.386 0 .7655.05149 1.1386.15448s.7012.26391.9842.48276c.2187.16736.4246.25103.6176.25103.2058-.01287.3731-.07724.5017-.1931.1416-.12874.238-.28966.2895-.48276.0643-.1931.0708-.39264.0193-.59862s-.1737-.39264-.3667-.56c-.476-.41195-1.0099-.70805-1.6017-.88828-.579-.18023-1.1643-.27034-1.7562-.27034-.9391 0-1.7818.19954-2.52803.59862-.7462.39908-1.36374.98483-1.85263 1.75724-.39452.64017-.68741 1.39971-.87868 2.27862h-1.10904c-.24444 0-.45029.08368-.61754.25104-.16725.15448-.25088.35398-.25088.59858s.08363.4506.25088.618c.16725.1545.3731.2317.61754.2317h.88675c-.01222.2019-.01833.4079-.01833.6179 0 .227.00476.4587.01427.6952h-.88269c-.24444 0-.45029.0837-.61754.251-.16725.1545-.25088.3541-.25088.5987 0 .2445.08363.4505.25088.6179.16725.1545.3731.2317.61754.2317h1.10601c.1912.8777.4851 1.6437.88171 2.2979.48889.7725 1.10643 1.3582 1.85263 1.7573z" fill="#6b7280" fill-rule="evenodd"/></svg>