<svg viewBox="0 0 64 64" fill="none" xmlns="http://www.w3.org/2000/svg">
<path fill-rule="evenodd" clip-rule="evenodd" d="M60.7161 14.2466C60.0953 13.9471 59.8264 14.5196 59.4646 14.812C59.34 14.9062 59.2348 15.0294 59.1297 15.1406C58.2204 16.0997 57.1595 16.7279 55.7736 16.653C53.7472 16.5418 52.0165 17.17 50.4863 18.7017C50.1612 16.8124 49.0808 15.6866 47.4382 14.9618C46.5778 14.5849 45.7076 14.2104 45.1038 13.3914C44.6833 12.8091 44.5685 12.1592 44.3582 11.5214C44.2238 11.1349 44.0894 10.7411 43.642 10.6758C43.1532 10.6009 42.9625 11.0044 42.7718 11.3426C42.0067 12.7246 41.711 14.2466 41.7403 15.788C41.8063 19.2574 43.2876 22.0213 46.2331 23.9855C46.568 24.2101 46.6535 24.4372 46.5484 24.7658C46.348 25.4423 46.1084 26.0994 45.8982 26.7783C45.7638 27.2108 45.5633 27.3026 45.094 27.1166C43.5082 26.443 42.0677 25.4752 40.8505 24.2657C38.7557 22.2653 36.8637 20.0571 34.5024 18.3272C33.9553 17.9277 33.3936 17.5481 32.8182 17.1893C30.4105 14.8772 33.136 12.9783 33.7667 12.7536C34.4267 12.5168 33.994 11.7099 31.8625 11.7195C29.731 11.7292 27.7803 12.4322 25.2944 13.3721C24.925 13.512 24.5449 13.6226 24.1578 13.703C21.8347 13.2704 19.4588 13.1873 17.1106 13.4566C12.5029 13.964 8.82406 16.119 6.11811 19.7937C2.86707 24.2101 2.10197 29.2305 3.03817 34.4636C4.02326 39.9817 6.87343 44.5503 11.2513 48.1211C15.793 51.8248 21.0216 53.6392 26.9884 53.2913C30.611 53.0859 34.6467 52.6052 39.1957 48.7976C40.3445 49.3629 41.5472 49.5876 43.5467 49.7567C45.0867 49.8993 46.568 49.6842 47.7144 49.4475C49.511 49.0706 49.3864 47.4253 48.7386 47.1257C43.4709 44.7001 44.6271 45.6882 43.5736 44.8885C46.2527 41.7574 50.2859 38.5055 51.865 27.9694C51.9872 27.1311 51.8821 26.6044 51.865 25.9279C51.8552 25.5172 51.9505 25.3553 52.4272 25.3094C53.7497 25.1738 55.0326 24.784 56.2038 24.1618C59.6162 22.3184 60.9948 19.2936 61.3199 15.6648C61.3688 15.1091 61.3101 14.539 60.7161 14.2466ZM30.9752 46.9059C25.8688 42.9388 23.3927 41.6318 22.3709 41.6873C21.4127 41.7453 21.5863 42.8253 21.7965 43.5307C22.0165 44.2265 22.3025 44.7049 22.7033 45.3161C22.982 45.7196 23.1727 46.3212 22.4271 46.773C20.782 47.778 17.9245 46.4347 17.7901 46.3695C14.4633 44.4319 11.6791 41.8758 9.72115 38.3799C7.82919 35.0144 6.72921 31.4049 6.54833 27.5514C6.49944 26.6189 6.77565 26.2903 7.7143 26.1212C8.94655 25.8881 10.2091 25.8563 11.4518 26.027C16.6632 26.7807 21.0974 29.0832 24.8177 32.7289C26.9395 34.8066 28.5454 37.2878 30.2003 39.7135C31.9603 42.2889 33.8522 44.7436 36.2624 46.7537C37.1131 47.4591 37.7901 47.9955 38.4404 48.3893C36.48 48.6067 33.2094 48.655 30.9752 46.9059ZM33.4196 31.3469C33.4191 31.2269 33.4483 31.1086 33.5045 31.0022C33.5607 30.8958 33.6422 30.8046 33.7421 30.7363C33.842 30.668 33.9572 30.6248 34.0777 30.6104C34.1982 30.596 34.3205 30.6108 34.434 30.6536C34.5786 30.7048 34.7034 30.7994 34.7911 30.9242C34.8787 31.0489 34.9248 31.1975 34.9229 31.3494C34.9232 31.4475 34.9038 31.5447 34.8657 31.6353C34.8277 31.7259 34.7718 31.8081 34.7012 31.8771C34.6307 31.9462 34.547 32.0006 34.4549 32.0374C34.3629 32.0741 34.2644 32.0924 34.1651 32.0911C34.0666 32.0914 33.969 32.0723 33.8781 32.0349C33.7871 31.9975 33.7046 31.9426 33.6354 31.8733C33.5662 31.804 33.5117 31.7217 33.4751 31.6314C33.4384 31.541 33.4179 31.4443 33.4196 31.3469ZM41.0216 35.2029C40.5328 35.3985 40.0463 35.5677 39.5794 35.5894C38.8771 35.6136 38.1878 35.3968 37.6288 34.9757C36.9591 34.4201 36.48 34.1108 36.2795 33.1444C36.2104 32.6722 36.2236 32.1917 36.3186 31.7238C36.4897 30.9338 36.2991 30.4265 35.7344 29.9674C35.2773 29.5905 34.6931 29.4866 34.0527 29.4866C33.8334 29.4741 33.6204 29.4094 33.4318 29.2982C33.1629 29.1677 32.9429 28.8392 33.1531 28.4333C33.2216 28.3028 33.5442 27.9839 33.6225 27.9259C34.4927 27.4379 35.4973 27.5973 36.4237 27.9646C37.2842 28.3125 37.9344 28.9503 38.8706 29.8539C39.8263 30.9435 39.9999 31.2455 40.545 32.0621C40.9752 32.7023 41.3663 33.3595 41.6327 34.1108C41.7965 34.5819 41.5863 34.9661 41.0216 35.2029Z" fill="#141414"/>
</svg>