<svg width="64" height="64" viewBox="0 0 64 64" fill="none" xmlns="http://www.w3.org/2000/svg">
<path d="M32.0156 55.5293L24.9082 29H39.124L32.0156 55.5293ZM26.5703 54.5225L2.56055 30.5156V30.5127C2.12191 30.0733 1.76391 29.5613 1.50195 29H19.7314L26.5703 54.5225ZM62.1357 29C61.8731 29.5622 61.5138 30.076 61.0742 30.5156L37.6055 53.9834L44.3008 29H62.1357ZM43.2793 8.02344C44.436 8.13333 45.5309 8.62005 46.3916 9.41406L60.918 22.8232C61.2918 23.1682 61.6135 23.5655 61.875 24H1.76367C2.02361 23.5675 2.3427 23.172 2.71484 22.8281L17.2432 9.41406C18.2281 8.50541 19.5203 8.00012 20.8604 8H42.7793L43.2793 8.02344Z" fill="black"/>
</svg>
