<svg width="64" height="64" viewBox="0 0 64 64" fill="none" xmlns="http://www.w3.org/2000/svg">
<path d="M62.1357 28C61.8731 28.5622 61.5138 29.076 61.0742 29.5156L35.5898 55C34.5899 55.9996 33.2323 56.5623 31.8184 56.5625C30.4043 56.5624 29.0479 55.9997 28.0479 55L2.56055 29.5156V29.5127C2.12191 29.0733 1.76391 28.5613 1.50195 28H62.1357ZM43.2793 7.02344C44.436 7.13333 45.5309 7.62005 46.3916 8.41406L60.918 21.8232C61.2918 22.1682 61.6135 22.5655 61.875 23H1.76367C2.02361 22.5675 2.3427 22.172 2.71484 21.8281L17.2432 8.41406C18.2281 7.50541 19.5203 7.00012 20.8604 7H42.7793L43.2793 7.02344Z" fill="black"/>
</svg>
