<svg width="64" height="64" viewBox="0 0 64 64" fill="none" xmlns="http://www.w3.org/2000/svg">
<path fill-rule="evenodd" clip-rule="evenodd" d="M36.2182 56.4889C35.8224 57.4041 34.9206 57.9966 33.9235 57.9966C31.4189 57.9966 29.0312 56.9733 27.2817 55.1752C25.5345 53.3794 24.5647 50.9581 24.5647 48.4473L24.5647 41.5478L14.1372 41.5478C13.1067 41.5574 12.0885 41.3377 11.153 40.9062C10.2129 40.4725 9.38151 39.8366 8.71346 39.047C8.04561 38.2576 7.55636 37.3329 7.27545 36.3384C6.99457 35.3441 6.92766 34.3003 7.07859 33.2782L10.2336 12.1301L10.2339 12.1279C10.485 10.4296 11.3264 8.86757 12.6214 7.7362C13.9147 6.60633 15.5726 5.98438 17.2924 6.00041L44.5 6.00041L44.5 34.8609L48.5 34.8609L48.5 6.00041L49.9274 6.00041C51.8257 6.00041 53.6319 6.7761 54.9526 8.13354C56.2711 9.48865 57 11.3123 57 13.1999L57 29.6487C57 31.5363 56.2711 33.3599 54.9526 34.715C53.6319 36.0725 51.8257 36.8482 49.9274 36.8482L48.7792 36.8482L44.5 36.8574L36.2182 56.4889Z" fill="#6B7280"/>
</svg>
