<svg fill="none" height="64" viewBox="0 0 64 64" width="64" xmlns="http://www.w3.org/2000/svg"><path clip-rule="evenodd" d="m29.3407 32.2027c-.005-.0669-.0076-.1345-.0076-.2027v-21.3333c0-1.47203 1.192-2.6667 2.6667-2.6667s2.6667 1.19467 2.6667 2.6667v21.3331l6.4-4.7995c1.1786-.888 2.8506-.6454 3.7333.5333.8854 1.1787.6454 2.8507-.5333 3.7333l-10.6667 8c-.472.3547-1.0373.5334-1.6.5334-.536 0-1.072-.1627-1.5333-.4854l-10.6667-7.504c-1.2053-.848-1.496-2.512-.648-3.7146.848-1.2054 2.5093-1.496 3.7147-.648zm-13.3409 13.1305v2.6668h32.0001v-2.6668c0-1.4667 1.2-2.6667 2.6667-2.6667 1.4666 0 2.6666 1.2 2.6666 2.6667v5.3333c0 .1834-.0188.3626-.0545.5358-.041.1993-.1045.3906-.1875.5712-.4225.9183-1.3523 1.5598-2.4247 1.5598h-37.3333c-1.4667 0-2.6667-1.2-2.6667-2.6666v-.0002-5.3333c0-1.4667 1.2-2.6667 2.6667-2.6667 1.4666 0 2.6666 1.2 2.6666 2.6667z" fill="#6b7280" fill-rule="evenodd"/></svg>