<svg viewBox="0 0 64 64" fill="none" xmlns="http://www.w3.org/2000/svg">
<path fill-rule="evenodd" clip-rule="evenodd" d="M53.333 40C54.8058 40 56 41.1942 56 42.667V45.333C56 51.224 51.2239 56 45.333 56H18.667C12.776 56 8 51.224 8 45.333V42.667C8 41.1942 9.19423 40 10.667 40C12.1396 40.0002 13.333 41.1944 13.333 42.667V45.333C13.333 48.2785 15.7215 50.667 18.667 50.667H45.333C48.2786 50.667 50.667 48.2785 50.667 45.333V42.667C50.667 41.1944 51.8604 40.0002 53.333 40Z M32 9C33.4376 9.00014 34.5996 10.1951 34.5996 11.667V33L40.8389 28.2002C41.988 27.3123 43.618 27.5549 44.4785 28.7334C45.3417 29.9121 45.1081 31.5842 43.959 32.4668L33.5596 40.4668C33.0995 40.8214 32.5485 40.9999 32 41C31.4774 41 30.9546 40.8373 30.5049 40.5146L20.1055 33.0107C18.9304 32.1628 18.6469 30.4985 19.4736 29.2959C20.3004 28.0906 21.9206 27.8005 23.0957 28.6484L29.4072 33.2021C29.4024 33.1354 29.4004 33.068 29.4004 33V11.667C29.4004 10.195 30.5624 9 32 9Z" fill="#141414"/>
</svg>