<svg viewBox="0 0 64 64" fill="none" xmlns="http://www.w3.org/2000/svg">
<path fill-rule="evenodd" clip-rule="evenodd" d="M24.0001 45.3333C26.9456 45.3333 29.3334 47.7211 29.3334 50.6667C29.3334 53.6122 26.9456 56 24.0001 56C21.0546 56 18.6667 53.6122 18.6667 50.6667C18.6667 47.7211 21.0546 45.3333 24.0001 45.3333Z M40.0001 45.3333C42.9456 45.3333 45.3334 47.7211 45.3334 50.6667C45.3334 53.6122 42.9456 56 40.0001 56C37.0546 56 34.6667 53.6122 34.6667 50.6667C34.6667 47.7211 37.0546 45.3333 40.0001 45.3333Z M24.0001 26.6667C26.9456 26.6667 29.3334 29.0545 29.3334 32C29.3334 34.9455 26.9456 37.3333 24.0001 37.3333C21.0546 37.3333 18.6667 34.9455 18.6667 32C18.6667 29.0545 21.0546 26.6667 24.0001 26.6667Z M40.0001 26.6667C42.9456 26.6667 45.3334 29.0545 45.3334 32C45.3334 34.9455 42.9456 37.3333 40.0001 37.3333C37.0546 37.3333 34.6667 34.9455 34.6667 32C34.6667 29.0545 37.0546 26.6667 40.0001 26.6667Z M24.0001 8C26.9456 8 29.3334 10.3878 29.3334 13.3333C29.3334 16.2789 26.9456 18.6667 24.0001 18.6667C21.0546 18.6667 18.6667 16.2789 18.6667 13.3333C18.6667 10.3878 21.0546 8 24.0001 8Z M40.0001 8C42.9456 8 45.3334 10.3878 45.3334 13.3333C45.3334 16.2789 42.9456 18.6667 40.0001 18.6667C37.0546 18.6667 34.6667 16.2789 34.6667 13.3333C34.6667 10.3878 37.0546 8 40.0001 8Z" fill="#141414"/>
</svg>