<svg fill="none" height="24" viewBox="0 0 24 24" width="24" xmlns="http://www.w3.org/2000/svg"><path clip-rule="evenodd" d="m18.9688 16.1405c1.033-2.709.499-5.906-1.627-8.10796l-4.559-4.727c-.186-.192-.442-.303-.711-.306-.269-.002-.527.105-.717.295l-2.61104 2.621zm-12.98101-7.32403c-2.176 2.96103-1.974 7.18503.647 9.89903 1.405 1.456 3.283 2.267 5.29001 2.285h.002c1.704.013 3.321-.552 4.646-1.599zm-1.2808-5.52353 16.00001 15.99996c.391.391.391 1.023 0 1.414-.195.195-.451.293-.707.293s-.512-.098-.707-.293l-16.00001-15.99996c-.391-.391-.391-1.023 0-1.414s1.023-.391 1.414 0z" fill="#6b7280" fill-rule="evenodd"/></svg>