<svg fill="none" height="64" viewBox="0 0 64 64" width="64" xmlns="http://www.w3.org/2000/svg"><path clip-rule="evenodd" d="m50.5833 43.0418c2.7547-7.224 1.3307-15.7494-4.3387-21.6214l-12.1573-12.6053c-.496-.512-1.1787-.808-1.896-.816-.7173-.00534-1.4053.28-1.912.78666l-6.9627 6.98934zm-34.6159-19.5309c-5.8027 7.896-5.264 19.16 1.7253 26.3973 3.7467 3.8827 8.7547 6.0454 14.1067 6.0934h.0053c4.544.0346 8.856-1.472 12.3894-4.264zm-3.4155-14.7283 42.6667 42.6667c1.0427 1.0426 1.0427 2.728 0 3.7706-.52.52-1.2027.7814-1.8853.7814-.6827 0-1.3654-.2614-1.8854-.7814l-42.66663-42.6666c-1.04267-1.0427-1.04267-2.72803 0-3.7707 1.04266-1.04267 2.72803-1.04267 3.77063 0z" fill="#6b7280" fill-rule="evenodd"/></svg>