<svg fill="none" height="64" viewBox="0 0 64 64" width="64" xmlns="http://www.w3.org/2000/svg"><path d="m44.4641 8.00039c1.5183-.01252 3.0245.27723 4.4297.85254 1.4049.57526 2.6813 1.42447 3.7549 2.49807 1.0736 1.0737 1.9228 2.3506 2.498 3.7558.5753 1.4053.8651 2.9113.8526 4.4297-.0126 1.5184-.3265 3.0195-.9248 4.4151-.5984 1.3955-1.4694 2.658-2.5606 3.7138l-19.043 19.045-.1562.1582c-1.2057 1.2057-2.043 2.044-3.0166 2.7099-.8622.589-1.795 1.0685-2.7754 1.4277-1.1097.406-2.2778.6004-3.96.8829l-.2216.0351-7.2442 1.208-.0703.0098c-.4061.0681-.8579.144-1.2539.1767-.4288.0303-1.1101.0402-1.834-.2675-.892-.3833-1.6023-1.0948-1.9844-1.9873-.2397-.5797-.3318-1.21-.2675-1.834.0302-.3935.1057-.8449.1738-1.251l.0127-.0732 1.208-7.2452.0351-.2187c.28-1.685.4742-2.851.8829-3.9609.3598-.9837.8356-1.9085 1.4257-2.7745.6659-.9735 1.5029-1.8113 2.711-3.0195l.1562-.1562 19.044-19.045c1.0558-1.0912 2.3183-1.96113 3.7138-2.55953 1.3955-.59837 2.8959-.91322 4.4141-.92578zm-.0391 5.17871c-1.696.0001-3.3229.6739-4.5224 1.873l-.7393.7393 9.0479 9.0459.7392-.7393c2.497-2.4972 2.4941-6.5461-.0029-9.0459-1.1995-1.1991-2.8264-1.873-4.5225-1.873z" fill="#000"/></svg>