<svg fill="none" height="64" viewBox="0 0 64 64" width="64" xmlns="http://www.w3.org/2000/svg"><path clip-rule="evenodd" d="m42.7162 28.4766-7.1867-7.1867 5.1947-5.1973 7.184 7.184zm9.0266-8.9096-.0026-.0027-7.3014-7.3013c-1.976-1.9707-5.3706-2.064-7.2426-.184l-23.9894 23.9893c-.8693.8667-1.408 2.0187-1.52 3.2373l-1.0106 11.12c-.0694.7867.2106 1.5654.7706 2.1254.504.504 1.184.7813 1.8854.7813.0826 0 .1626-.0027.2426-.0107l11.12-1.0106c1.2214-.112 2.3707-.648 3.2374-1.5147l23.992-23.992c1.9413-1.9467 1.8586-5.1947-.1814-7.2373z" fill="#6b7280" fill-rule="evenodd"/></svg>