<svg fill="none" height="24" viewBox="0 0 24 24" width="24" xmlns="http://www.w3.org/2000/svg"><path clip-rule="evenodd" d="m17.9655 6.72853-2.694-2.694-1.948 1.949 2.695 2.695zm-12.87498 11.26687c-.03.003-.06.004-.09.004-.264 0-.519-.104-.708-.293-.209-.21-.315-.502-.289-.797l.379-4.17c.042-.457.244-.889.57-1.214l8.99598-8.99597c.702-.705 1.975-.67 2.716.069l2.738 2.738.001.001c.765.766.796 1.984.068 2.714l-8.997 8.99697c-.325.325-.75598.527-1.21398.569zm-.0905 2.0044h13.99998c.55 0 1 .45 1 1s-.45 1-1 1h-13.99998c-.55 0-1-.45-1-1s.45-1 1-1z" fill="#6b7280" fill-rule="evenodd"/></svg>