<svg fill="none" height="24" viewBox="0 0 24 24" width="24" xmlns="http://www.w3.org/2000/svg"><path clip-rule="evenodd" d="m16.0186 10.6788-2.695-2.69503 1.948-1.949 2.694 2.694zm3.385-3.34113-.001-.001-2.738-2.738c-.741-.739-2.014-.774-2.716-.069l-8.99602 8.99603c-.326.325-.528.757-.57 1.214l-.379 4.17c-.026.295.079.587.289.797.189.189.444.293.707.293.031 0 .061-.001.091-.004l4.17-.379c.458-.042.88902-.243 1.21402-.568l8.997-8.997c.728-.73003.697-1.94803-.068-2.71403z" fill="#6b7280" fill-rule="evenodd"/></svg>