<svg fill="none" height="64" viewBox="0 0 64 64" width="64" xmlns="http://www.w3.org/2000/svg"><path d="m44.4639 8c1.5179-.0125 3.0238.27752 4.4287.85254 1.405.57524 2.6823 1.42546 3.7558 2.49906 1.0734 1.0734 1.9229 2.35 2.4981 3.7548.5751 1.4051.865 2.9116.8525 4.4297-.0125 1.5183-.3275 3.0197-.9258 4.4151-.5983 1.3953-1.4685 2.6581-2.5595 3.7138l-19.044 19.045-.1562.1591c-1.2054 1.2055-2.0432 2.0432-3.0166 2.709-.862.5888-1.7943 1.0686-2.7744 1.4278-1.1096.4059-2.278.6003-3.96.8828l-.2217.0351-7.2441 1.208-.0713.0108c-.4057.068-.8574.144-1.2529.1767-.4288.0303-1.1106.04-1.834-.2675-.8919-.3833-1.6033-1.0958-1.9854-1.9883-.2394-.5793-.3317-1.2104-.2676-1.834.0303-.3932.1068-.8453.1749-1.251l.0126-.0732 1.2081-7.2442.0351-.2197c.2799-1.6844.4744-2.8503.8828-3.96.3598-.9835.8348-1.9095 1.4248-2.7753.6658-.9735 1.5041-1.8107 2.7119-3.0186l.1563-.1572 19.0439-19.0449c1.0555-1.0909 2.318-1.96131 3.7129-2.55962 1.3953-.59831 2.897-.91316 4.4151-.92578zm-.0391 5.1797c-1.6959.0002-3.3231.6739-4.5225 1.873l-.7392.7393 9.0478 9.0449.7383-.7383c2.4971-2.4972 2.495-6.5461-.0019-9.0459-1.1995-1.199-2.8265-1.873-4.5225-1.873zm-31.4668-10.1797c.61 0 1.1352.43039 1.2549 1.02832.3494 1.74656 1.0321 3.23968 2.082 4.37012 1.0386 1.11816 2.5023 1.95336 4.5518 2.29496.617.1028 1.0693.6372 1.0693 1.2627-.0001.6252-.4524 1.1589-1.0693 1.2617-2.0495.3415-3.5132 1.1767-4.5518 2.2949-1.0499 1.1304-1.7326 2.6235-2.082 4.3701-.1196.598-.6449 1.0283-1.2549 1.0283s-1.1352-.4303-1.2549-1.0283c-.3494-1.7466-1.0321-3.2397-2.08201-4.3701-1.03858-1.1182-2.50226-1.9534-4.55175-2.2949-.61697-.1028-1.06919-.6365-1.06934-1.2617 0-.6255.45227-1.1599 1.06934-1.2627 2.04948-.3415 3.51318-1.17678 4.55175-2.29496 1.04991-1.13044 1.73261-2.62354 2.08201-4.37012.1197-.59793.645-1.0283 1.2549-1.02832z" fill="#000"/></svg>