<svg fill="none" height="64" viewBox="0 0 64 64" width="64" xmlns="http://www.w3.org/2000/svg"><path d="m50.6673 53.3358c1.4664.0002 2.666 1.2005 2.666 2.667-.0016 1.4652-1.2005 2.6658-2.666 2.666h-37.334c-1.465-.0008-2.6644-1.2012-2.666-2.666 0-1.4662 1.2-2.6662 2.666-2.667zm-8.1905-48.00291c1.4289-.01179 2.8465.26134 4.169.80273 1.3222.54138 2.5238 1.34126 3.5342 2.35156 1.0104 1.01054 1.8101 2.21362 2.3515 3.53612.5412 1.3223.8135 2.7402.8018 4.169-.012 1.4284-.3063 2.8413-.8692 4.1543-.5631 1.3133-1.3851 2.5004-2.4121 3.4941l-17.9218 17.9248-.1485.1514c-1.1341 1.1341-1.9219 1.9222-2.8379 2.5488-.8114.5543-1.6896 1.0057-2.6123 1.3437-1.0443.3821-2.1435.5653-3.7265.8311l-.208.0342-6.8184 1.1377-.0674.0078c-.382.0641-.8072.1361-1.1797.167-.4036.0284-1.0455.0366-1.7265-.2529-.8391-.3609-1.5078-1.0304-1.8672-1.8702-.2256-.5455-.3134-1.1393-.253-1.7265.0286-.3702.1001-.7948.1641-1.1768l.0137-.0674 1.1347-6.8203.0342-.206c.2634-1.5854.4468-2.6823.8311-3.7266.3386-.9256.7855-1.7974 1.3408-2.6123.6265-.916 1.4154-1.7043 2.5518-2.8408l.1484-.1485 17.9219-17.92476c.9937-1.0271 2.1846-1.845 3.498-2.40821 1.3132-.56298 2.7247-.86123 4.1533-.87304zm-.0361 4.87501c-1.5964 0-3.1288.6349-4.2578 1.7637l-.6953.6953 8.5156 8.5127.6953-.6953c2.3501-2.3504 2.3472-6.16-.0029-8.5127-1.1289-1.1284-2.6589-1.7636-4.2549-1.7637z" fill="#000"/></svg>