<svg fill="none" height="64" viewBox="0 0 64 64" width="64" xmlns="http://www.w3.org/2000/svg"><path clip-rule="evenodd" d="m47.908 17.9431-7.184-7.184-5.1947 5.1973 7.1867 7.1867zm-34.3332 30.045c-.08.008-.16.0107-.24.0107-.704 0-1.384-.2773-1.888-.7813-.5574-.56-.84-1.3387-.7707-2.1254l1.0107-11.12c.112-1.2186.6506-2.3706 1.52-3.2373l23.9893-23.98933c1.872-1.88 5.2667-1.78666 7.2427.184l7.3013 7.30133.0027.0027c2.04 2.0426 2.1226 5.2906.1813 7.2373l-23.992 23.992c-.8667.8667-2.016 1.4053-3.2373 1.5173zm-.2404 5.3449h37.3333c1.4667 0 2.6667 1.2 2.6667 2.6667s-1.2 2.6667-2.6667 2.6667h-37.3333c-1.4667 0-2.6667-1.2-2.6667-2.6667s1.2-2.6667 2.6667-2.6667z" fill="#6b7280" fill-rule="evenodd"/></svg>