<svg viewBox="0 0 64 64" fill="none" xmlns="http://www.w3.org/2000/svg">
<path fill-rule="evenodd" clip-rule="evenodd" d="M31.2501 10.7741C31.8204 10.607 32.4333 10.6351 32.9897 10.8574L59.6563 21.5241L60.0209 21.7038C60.8254 22.1779 61.3334 23.0471 61.3334 24.0007V40.0007C61.3333 41.4734 60.1395 42.6673 58.6667 42.6673C57.194 42.6673 56.0002 41.4734 56.0001 40.0007V27.9382L50.6667 30.071V42.6673C50.6662 46.43 47.6838 49.1197 44.5053 50.709C41.167 52.3779 36.742 53.334 32.0001 53.334C27.2581 53.334 22.8332 52.3779 19.4949 50.709C16.3163 49.1197 13.334 46.43 13.3334 42.6673V30.071L4.34383 26.4772C3.33145 26.0723 2.6668 25.091 2.66675 24.0007C2.66675 22.9103 3.33143 21.9291 4.34383 21.5241L31.0105 10.8574L31.2501 10.7741ZM12.5131 24.0007L32.0001 31.7949L51.4845 24.0007L32.0001 16.2064L12.5131 24.0007Z" fill="#141414"/>
</svg>