<svg width="64" height="64" viewBox="0 0 64 64" fill="none" xmlns="http://www.w3.org/2000/svg">
<path d="M34.7549 11.9932C36.7263 10.0341 39.9102 10.0342 41.8819 11.9932L41.8877 11.998L54.5303 24.6348C56.4893 26.6047 56.4896 29.786 54.5323 31.7568L54.5303 31.7598L35.5401 50.9473H48.4405C49.8361 50.9473 50.9688 52.0783 50.9688 53.4736C50.9686 54.8687 49.836 56 48.4405 56H21.9034C21.2238 56 20.5721 55.7255 20.0967 55.2402L9.46976 44.3906L9.46195 44.3828C7.51018 42.4115 7.51259 39.2346 9.46976 37.2666L9.47562 37.2617L34.75 11.998L34.7549 11.9932ZM15.584 8C16.726 8 17.6523 8.92488 17.6524 10.0664C17.6524 11.969 19.1952 13.5117 21.0987 13.5117C22.2406 13.5118 23.1658 14.4368 23.166 15.5781C23.166 16.7197 22.2407 17.6455 21.0987 17.6455C19.1952 17.6455 17.6524 19.1882 17.6524 21.0908C17.6522 22.2323 16.726 23.1572 15.584 23.1572C14.4421 23.1571 13.5168 22.2322 13.5166 21.0908C13.5166 19.1882 11.9728 17.6455 10.0694 17.6455C8.9275 17.6453 8.00199 16.7196 8.00199 15.5781C8.0022 14.4369 8.92763 13.5119 10.0694 13.5117C11.9728 13.5117 13.5166 11.969 13.5166 10.0664C13.5167 8.92494 14.4421 8.00009 15.584 8Z" fill="black"/>
</svg>
