<svg fill="none" height="64" viewBox="0 0 64 64" width="64" xmlns="http://www.w3.org/2000/svg"><path clip-rule="evenodd" d="m51.7521 47.9813 3.4667 3.4666c1.0426 1.0427 1.0426 2.728 0 3.7707-.52.52-1.2027.7813-1.8854.7813-.6826 0-1.3653-.2613-1.8853-.7813l-7.2187-7.2187-1.5626-1.5626-3.5867-3.5867-.184-.184-6.6728-6.6728c-.0739.0041-.1483.0061-.2232.0061-2.2053 0-4-1.7946-4-4 0-.0748.0021-.1493.0062-.2231l-8.5849-8.5849-4.6693-4.6693-5.97067-5.9707c-1.04266-1.0426-1.04266-2.72797 0-3.77063 1.04267-1.04267 2.72797-1.04267 3.77067 0l4.568 4.56803 3.9067 3.9066 10.7501 10.7502c.0739-.0041.1483-.0062.2232-.0062 2.2054 0 4 1.7947 4 4 0 .0749-.002.1493-.0061.2232l10.4434 10.4435zm-28.8377-32.6101 7.4586 7.4587c.5307-.0933 1.0694-.1627 1.6267-.1627 5.1467 0 9.3333 4.1867 9.3333 9.3334 0 .5573-.0693 1.096-.1626 1.6266l7.152 7.1547 2.224 2.224c4.0586-3.7013 6.6613-7.752 7.768-9.68.4693-.8213.4693-1.832 0-2.6533-1.7014-2.9654-11.0987-17.8294-27.0347-17.3307-3.1573.0827-6.016.7627-8.608 1.7893zm14.2804 29.368 3.5867 3.584.5467.5467c-2.592 1.0266-5.448 1.7066-8.6054 1.7866-.2186.008-.44.0107-.656.0107-15.6346 0-24.7013-14.4133-26.3813-17.3413-.46934-.8214-.46934-1.832 0-2.6534 1.10666-1.9253 3.70933-5.976 7.768-9.6773l4.0827 4.0853 5.296 5.2934c-.096.5306-.1654 1.0693-.1654 1.6266 0 5.1467 4.1867 9.3334 9.3334 9.3334.5573 0 1.096-.0694 1.6266-.1654l3.384 3.384z" fill="#6b7280" fill-rule="evenodd"/></svg>