<svg fill="none" height="24" viewBox="0 0 24 24" width="24" xmlns="http://www.w3.org/2000/svg"><path clip-rule="evenodd" d="m19.407 17.993 1.3 1.3c.391.391.391 1.023 0 1.414-.195.195-.451.293-.707.293s-.512-.098-.707-.293l-2.707-2.707-.586-.586-1.345-1.345-.069-.069-2.5023-2.5023c-.0277.0015-.0556.0023-.0837.0023-.827 0-1.5-.673-1.5-1.5 0-.0281.0008-.056.0023-.0837l-3.21929-3.21929-1.751-1.751-2.239-2.239c-.391-.391-.391-1.023 0-1.414s1.023-.391 1.414 0l1.713 1.713 1.465 1.465 4.03129 4.03129c.0277-.0015.0556-.0023.0837-.0023.827 0 1.5.673 1.5 1.5 0 .0281-.0008.056-.0023.0837l3.9163 3.9163zm-10.81415-12.22876 2.79705 2.797c.199-.035.401-.061.61-.061 1.93 0 3.5 1.56996 3.5 3.49996 0 .209-.026.411-.061.61l2.682 2.683.834.834c1.522-1.388 2.498-2.907 2.913-3.63.176-.308.176-.687 0-.995-.638-1.112-4.162-6.68596-10.138-6.49896-1.184.031-2.25604.286-3.22805.671zm5.35515 11.01296 1.345 1.344.205.205c-.972.385-2.043.64-3.227.67-.082.003-.165.004-.246.004-5.86297 0-9.26297-5.405-9.89297-6.503-.176-.308-.176-.687 0-.995.415-.722 1.391-2.24096 2.913-3.62896l1.531 1.532 1.986 1.98496c-.036.199-.062.401-.062.61 0 1.93 1.56997 3.5 3.49997 3.5.209 0 .411-.026.61-.062l1.269 1.269z" fill="#6b7280" fill-rule="evenodd"/></svg>