<svg fill="none" height="64" viewBox="0 0 64 64" width="64" xmlns="http://www.w3.org/2000/svg"><path clip-rule="evenodd" d="m32.0001 28c-2.2053 0-4 1.7947-4 4 0 2.2054 1.7947 4 4 4 2.2054 0 4-1.7946 4-4 0-2.2053-1.7946-4-4-4zm.0001 13.3332c-5.1467 0-9.3333-4.1867-9.3333-9.3333 0-5.1467 4.1866-9.3334 9.3333-9.3334s9.3333 4.1867 9.3333 9.3334c0 5.1466-4.1866 9.3333-9.3333 9.3333zm26.3146-10.6612c-1.704-2.9653-11.0986-17.8293-27.0373-17.3306-14.7387.376-23.31467 13.3626-25.592 17.3306-.46934.824-.46934 1.832 0 2.656 1.68 2.9254 10.7467 17.3387 26.3813 17.3387.216 0 .4347-.0027.656-.008 14.7387-.376 23.3147-13.3627 25.592-17.3307.4694-.824.4694-1.832 0-2.656z" fill="#6b7280" fill-rule="evenodd"/></svg>