<svg fill="none" height="24" viewBox="0 0 24 24" width="24" xmlns="http://www.w3.org/2000/svg"><path clip-rule="evenodd" d="m12 10.4999c-.827 0-1.5.673-1.5 1.5s.673 1.5 1.5 1.5 1.5-.673 1.5-1.5-.673-1.5-1.5-1.5zm0 4.9999c-1.93 0-3.49995-1.57-3.49995-3.5s1.56995-3.49998 3.49995-3.49998 3.5 1.56998 3.5 3.49998-1.57 3.5-3.5 3.5zm9.868-3.9979c-.639-1.112-4.162-6.68601-10.139-6.49901-5.52697.141-8.74297 5.01101-9.59697 6.49901-.176.309-.176.687 0 .996.63 1.097 4.03 6.502 9.89297 6.502.081 0 .163-.001.246-.003 5.527-.141 8.743-5.011 9.597-6.499.176-.309.176-.687 0-.996z" fill="#6b7280" fill-rule="evenodd"/></svg>