<svg fill="none" height="64" viewBox="0 0 64 64" width="64" xmlns="http://www.w3.org/2000/svg"><path clip-rule="evenodd" d="m45.3333 9.33333c0-.736-.6-1.33333-1.3333-1.33333h-6.6667c-7.3653 0-13.3333 5.3733-13.3333 12v7.2h-6.6667c-.736 0-1.3333.5973-1.3333 1.3333v6.9334c0 .736.5973 1.3333 1.3333 1.3333h6.6667v17.8667c0 .736.5973 1.3333 1.3333 1.3333h8c.7334 0 1.3334-.5973 1.3334-1.3333v-17.8667h6.984c.6 0 1.1253-.4 1.288-.976l1.9226-6.9333c.2374-.848-.4026-1.6907-1.2826-1.6907h-8.912v-7.2c0-1.3253 1.192-2.4 2.6666-2.4h6.6667c.7333 0 1.3333-.5973 1.3333-1.3333z" fill="#6b7280" fill-rule="evenodd"/></svg>