<svg viewBox="0 0 64 64" fill="none" xmlns="http://www.w3.org/2000/svg">
<path fill-rule="evenodd" clip-rule="evenodd" d="M48.0008 24C48.0008 26.615 49.4129 32.391 54.5269 34.9479C55.8442 35.6066 56.3782 37.2088 55.7196 38.526C55.0609 39.8433 53.4587 40.3774 52.1415 39.7188C48.848 38.072 46.6393 35.6116 45.1883 33.0547C44.2269 34.4522 43.0497 35.6877 41.704 36.7161C48.4934 39.7491 53.3342 45.8852 53.3342 53.3333C53.3342 54.8061 52.1403 56 50.6675 56C49.1947 56 33 56 33 56C33 56 14.8069 56 13.3342 56C11.8614 56 10.6675 54.8061 10.6675 53.3333C10.6675 45.886 15.5068 39.7494 22.2951 36.7161C20.9496 35.6876 19.7719 34.4522 18.8107 33.0547C17.3598 35.6112 15.1532 38.0723 11.8602 39.7188C10.5429 40.3774 8.94072 39.8433 8.28208 38.526C7.62345 37.2088 8.15752 35.6066 9.47479 34.9479C14.5887 32.391 16.0008 26.615 16.0008 24C16.0008 15.1634 23.1643 8 32.0008 8C40.8374 8 48.0008 15.1634 48.0008 24Z" fill="#141414"/>
</svg>