<svg width="24" height="24" viewBox="0 0 24 24" fill="none" xmlns="http://www.w3.org/2000/svg">
<g id="Icon/Fill/file-add">
<path id="Mask" fill-rule="evenodd" clip-rule="evenodd" d="M14.714 8C14.32 8 14 7.619 14 7.15V3.978L17.742 8H14.714ZM14 15H13V16C13 16.552 12.553 17 12 17C11.447 17 11 16.552 11 16V15H10C9.447 15 9 14.552 9 14C9 13.448 9.447 13 10 13H11V12C11 11.448 11.447 11 12 11C12.553 11 13 11.448 13 12V13H14C14.553 13 15 13.448 15 14C15 14.552 14.553 15 14 15ZM19.74 7.328L15.296 2.328C15.107 2.119 14.838 2 14.556 2H6.556C5.147 2 4 3.122 4 4.5V19.5C4 20.878 5.147 22 6.556 22H17.444C18.854 22 20 20.878 20 19.5V8C20 7.751 19.907 7.512 19.74 7.328Z" fill="#000000"/>
</g>
</svg>
