<svg fill="none" height="64" viewBox="0 0 64 64" width="64" xmlns="http://www.w3.org/2000/svg"><path clip-rule="evenodd" d="m39.2369 21.3338c-1.0507 0-1.904-1.016-1.904-2.2667v-8.4587l9.9786 10.7254zm.7626 26.6665h-16c-1.4719 0-2.6666-1.1946-2.6666-2.6666s1.1947-2.6667 2.6666-2.6667h16c1.4747 0 2.6667 1.1947 2.6667 2.6667s-1.192 2.6666-2.6667 2.6666zm-16-16.0003h8c1.472 0 2.6667 1.1947 2.6667 2.6667s-1.1947 2.6666-2.6667 2.6666h-8c-1.4719 0-2.6666-1.1946-2.6666-2.6666s1.1947-2.6667 2.6666-2.6667zm28.6401-12.4585-11.8507-13.33334c-.504-.55733-1.2213-.87466-1.9733-.87466h-21.3333c-3.7574 0-6.816 2.992-6.816 6.6667v40c0 3.6746 3.0586 6.6666 6.816 6.6666h29.0346c3.76 0 6.816-2.992 6.816-6.6666v-30.6667c0-.664-.248-1.3013-.6933-1.792z" fill="#6b7280" fill-rule="evenodd"/></svg>