<svg width="24" height="24" viewBox="0 0 24 24" fill="none" xmlns="http://www.w3.org/2000/svg">
<g id="Icon/Fill/file-remove">
<path id="Mask" fill-rule="evenodd" clip-rule="evenodd" d="M14.7139 8C14.3199 8 13.9999 7.619 13.9999 7.15V3.978L17.7419 8H14.7139ZM13.9999 15H9.99988C9.44688 15 8.99988 14.552 8.99988 14C8.99988 13.448 9.44688 13 9.99988 13H13.9999C14.5529 13 14.9999 13.448 14.9999 14C14.9999 14.552 14.5529 15 13.9999 15ZM19.7399 7.328L15.2959 2.328C15.1069 2.119 14.8379 2 14.5559 2H6.55588C5.14688 2 3.99988 3.122 3.99988 4.5V19.5C3.99988 20.878 5.14688 22 6.55588 22H17.4439C18.8539 22 19.9999 20.878 19.9999 19.5V8C19.9999 7.751 19.9069 7.512 19.7399 7.328Z" fill="#231F20"/>
<mask id="mask0" mask-type="alpha" maskUnits="userSpaceOnUse" x="3" y="2" width="17" height="20">
<path id="Mask_2" fill-rule="evenodd" clip-rule="evenodd" d="M14.7139 8C14.3199 8 13.9999 7.619 13.9999 7.15V3.978L17.7419 8H14.7139ZM13.9999 15H9.99988C9.44688 15 8.99988 14.552 8.99988 14C8.99988 13.448 9.44688 13 9.99988 13H13.9999C14.5529 13 14.9999 13.448 14.9999 14C14.9999 14.552 14.5529 15 13.9999 15ZM19.7399 7.328L15.2959 2.328C15.1069 2.119 14.8379 2 14.5559 2H6.55588C5.14688 2 3.99988 3.122 3.99988 4.5V19.5C3.99988 20.878 5.14688 22 6.55588 22H17.4439C18.8539 22 19.9999 20.878 19.9999 19.5V8C19.9999 7.751 19.9069 7.512 19.7399 7.328Z" fill="white"/>
</mask>
<g mask="url(#mask0)">
<g id="&#240;&#159;&#142;&#168; Color">
<rect id="Base" width="24" height="24" fill="#0D1C2E"/>
</g>
</g>
</g>
</svg>
