<svg fill="none" height="24" viewBox="0 0 24 24" width="24" xmlns="http://www.w3.org/2000/svg"><path clip-rule="evenodd" d="m14.7139 8.0001c-.394 0-.714-.381-.714-.85v-3.172l3.742 4.022zm.286 10h-6.00004c-.552 0-1-.448-1-1s.448-1 1-1h6.00004c.553 0 1 .448 1 1s-.447 1-1 1zm-6.00004-6.0002h3.00004c.552 0 1 .448 1 1s-.448 1-1 1h-3.00004c-.552 0-1-.448-1-1s.448-1 1-1zm10.74004-4.6719-4.444-5c-.189-.209-.458-.328-.74-.328h-8.00002c-1.409 0-2.556 1.122-2.556 2.5v15c0 1.378 1.147 2.5 2.556 2.5h10.88802c1.41 0 2.556-1.122 2.556-2.5v-11.5c0-.249-.093-.488-.26-.672z" fill="#6b7280" fill-rule="evenodd"/></svg>