<svg width="64" height="64" viewBox="0 0 64 64" fill="none" xmlns="http://www.w3.org/2000/svg">
<path fill-rule="evenodd" clip-rule="evenodd" d="M38.4004 2.66675L56 20.2664V53.3337C55.9999 55.4552 55.1572 57.4898 53.6572 58.99C52.1569 60.4903 50.1217 61.3337 48 61.3337H16C13.8783 61.3337 11.8431 60.4903 10.3428 58.99C8.84276 57.4898 8.00009 55.4552 8 53.3337V10.6667C8 8.54502 8.84248 6.50981 10.3428 5.00952C11.8431 3.50923 13.8783 2.66675 16 2.66675H38.4004ZM24 43.4666C22.5274 43.4667 21.333 44.6609 21.333 46.1335C21.3331 47.6061 22.5275 48.8004 24 48.8005H41.8662C43.3389 48.8005 44.5331 47.6062 44.5332 46.1335C44.5332 44.6608 43.3389 43.4666 41.8662 43.4666H24ZM24 32.8005C22.5275 32.8007 21.3332 33.9941 21.333 35.4666C21.3331 36.9391 22.5275 38.1334 24 38.1335H32.8662C34.3389 38.1335 35.5331 36.9392 35.5332 35.4666C35.533 33.994 34.3388 32.8005 32.8662 32.8005H24ZM35.1992 23.4666H52.7998L35.1992 5.86694V23.4666Z" fill="#141414"/>
</svg>
