<svg fill="none" height="64" viewBox="0 0 64 64" width="64" xmlns="http://www.w3.org/2000/svg"><path clip-rule="evenodd" d="m50.6667 48.6824c0 1.0933-.8907 1.984-1.984 1.984h-3.3493v-5.3334h5.3333zm-37.3333 0v-3.3494h5.3333v5.3334h-3.3493c-1.0934 0-1.984-.8907-1.984-1.984zm1.984-35.3494h3.3493v5.3333h-5.3333v-3.3493c0-1.0933.8906-1.984 1.984-1.984zm35.3493 1.984v3.3493h-5.3333v-5.3333h3.3493c1.0933 0 1.984.8907 1.984 1.984zm-5.3333 24.6823h5.3333v-5.3333h-5.3333zm0-10.6665h5.3333v-5.3333h-5.3333zm-32 10.6665h5.3333v-5.3333h-5.3333zm0-10.6665h5.3333v-5.3333h-5.3333zm35.3493-21.33329h-33.3654c-4.0346 0-7.3173 3.28529-7.3173 7.31729v33.3654c0 4.0346 3.2827 7.3173 7.3173 7.3173h33.3654c4.0346 0 7.3173-3.2827 7.3173-7.3173v-33.3654c0-4.032-3.2827-7.31729-7.3173-7.31729z" fill="#6b7280" fill-rule="evenodd"/></svg>