<svg fill="none" height="24" viewBox="0 0 24 24" width="24" xmlns="http://www.w3.org/2000/svg"><path clip-rule="evenodd" d="m13.959 18.0235c-.667.637-1.55.983-2.488.977h-.001c-.937-.008-1.81398-.369-2.46998-1.016-1.349-1.329-1.331-3.477.041-4.786l2.16298-2.068c.089-.085.209-.131.335-.13.125.001.245.049.332.135l2.129 2.101c1.349 1.33 1.331 3.477-.041 4.787m2.847-10.0371-4.593-4.691c-.382-.391-1.019-.391-1.415-.015-.214.204-.328.493-.309.788.009.14.009.278.009.426 0 2.557-.643 4.069-.998 4.443-.151-.166-.425-.602-.656-1.493-.09-.348-.36-.621-.707-.715-.349-.092-.719.007-.972.262l-.984.993c-2.911 2.967-2.907 7.801.008 10.772 1.413 1.446 3.296 2.242 5.303 2.244h.008c2.009 0 3.896-.796 5.315-2.243 2.917-2.972 2.912-7.806-.009-10.771" fill="#6b7280" fill-rule="evenodd"/></svg>