<svg fill="none" height="64" viewBox="0 0 64 64" width="64" xmlns="http://www.w3.org/2000/svg"><path clip-rule="evenodd" d="m37.224 48.0624c-1.7787 1.6987-4.1334 2.6213-6.6347 2.6053h-.0027c-2.4986-.0213-4.8373-.984-6.5866-2.7093-3.5974-3.544-3.5494-9.272.1093-12.7627l5.768-5.5146c.2373-.2267.5573-.3494.8933-.3467.3334.0027.6534.1307.8854.36l5.6773 5.6027c3.5973 3.5466 3.5493 9.272-.1093 12.7653zm7.5919-26.7655-12.248-12.50934c-1.0187-1.04267-2.7173-1.04267-3.7733-.04-.5707.544-.8747 1.31464-.824 2.10134.024.3733.024.7413.024 1.136 0 6.8187-1.7147 10.8507-2.6614 11.848-.4026-.4427-1.1333-1.6053-1.7493-3.9813-.24-.928-.96-1.656-1.8853-1.9067-.9307-.2453-1.9174.0187-2.592.6987l-2.624 2.648c-7.76269 7.912-7.75202 20.8026.0213 28.7253 3.768 3.856 8.7893 5.9787 14.1413 5.984h.0214c5.3573 0 10.3893-2.1227 14.1733-5.9813 7.7787-7.9254 7.7653-20.816-.024-28.7227z" fill="#6b7280" fill-rule="evenodd"/></svg>