<svg viewBox="0 0 64 64" fill="none" xmlns="http://www.w3.org/2000/svg">
<path fill-rule="evenodd" clip-rule="evenodd" d="M39.4498 49.0677C39.4498 49.7701 39.4528 50.4583 39.4058 51.0364C39.3563 51.6458 39.239 52.3651 38.8727 53.0885C38.3647 54.0918 37.5537 54.9079 36.5566 55.4192C35.8378 55.7878 35.1229 55.9058 34.5173 55.9557C34.2296 55.9793 33.9135 55.9894 33.5831 55.9947L32.5609 56H11.889C11.191 56 10.5071 56.0029 9.93253 55.9557C9.32699 55.9058 8.61212 55.7878 7.89328 55.4192C6.89622 54.9079 6.08523 54.0918 5.57713 53.0885C5.21087 52.3651 5.09358 51.6458 5.04403 51.0364C4.99709 50.4583 5.00004 49.7701 5.00004 49.0677V14.9323C5.00004 14.2299 4.99709 13.5417 5.04403 12.9636C5.09358 12.3542 5.21087 11.6349 5.57713 10.9115C6.08523 9.90815 6.89622 9.09206 7.89328 8.58077C8.61212 8.2122 9.32699 8.09416 9.93253 8.04431C10.5071 7.99707 11.191 8.00004 11.889 8.00004H32.5609C33.2589 8.00004 33.9428 7.99707 34.5173 8.04431C35.1229 8.09416 35.8378 8.21219 36.5566 8.58077C37.4291 9.02816 38.1591 9.70897 38.6683 10.5443L38.8727 10.9115L39.1031 11.4532C39.2925 11.9887 39.3687 12.5068 39.4058 12.9636C39.4528 13.5417 39.4498 14.2299 39.4498 14.9323V49.0677Z M53.0491 12.0104C53.7752 10.7317 55.3937 10.2876 56.6644 11.0183C57.9351 11.749 58.3765 13.3776 57.6504 14.6563L48.554 30.6771C48.0884 31.4969 48.0884 32.5031 48.554 33.3229L57.6504 49.3437C58.3765 50.6224 57.9351 52.251 56.6644 52.9817C55.3937 53.7124 53.7752 53.2683 53.0491 51.9895L43.9527 35.9687C42.5561 33.5093 42.5561 30.4907 43.9527 28.0313L53.0491 12.0104Z" fill="#141414"/>
</svg>