<svg width="24" height="24" viewBox="0 0 24 24" fill="none" xmlns="http://www.w3.org/2000/svg">
<g id="Icon/Fill/flag">
<path id="Mask" fill-rule="evenodd" clip-rule="evenodd" d="M19.2676 4.67969C18.8056 4.34569 18.2076 4.25069 17.6686 4.42669C17.0926 4.61469 16.3426 4.71369 15.4996 4.71369C14.3756 4.71369 13.3996 4.33069 12.3656 3.92569C11.2036 3.47069 10.0006 2.99969 8.49963 2.99969C5.61363 2.99969 4.49563 3.95169 4.29963 4.14369C4.10863 4.33069 3.99963 4.58869 3.99963 4.85769V11.9997V15.1427V19.9997C3.99963 20.5527 4.44763 20.9997 4.99963 20.9997C5.55263 20.9997 5.99963 20.5527 5.99963 19.9997V15.7017C6.39463 15.5267 7.17263 15.2857 8.49963 15.2857C9.62363 15.2857 10.6006 15.6687 11.6346 16.0747C12.7966 16.5297 13.9986 16.9997 15.4996 16.9997C17.3086 16.9997 18.4226 16.6217 19.0406 16.3047C19.6326 15.9977 19.9996 15.4027 19.9996 14.7487V6.10569C19.9996 5.54569 19.7266 5.01269 19.2676 4.67969Z" fill="#231F20"/>
<mask id="mask0" mask-type="alpha" maskUnits="userSpaceOnUse" x="3" y="2" width="17" height="19">
<path id="Mask_2" fill-rule="evenodd" clip-rule="evenodd" d="M19.2676 4.67969C18.8056 4.34569 18.2076 4.25069 17.6686 4.42669C17.0926 4.61469 16.3426 4.71369 15.4996 4.71369C14.3756 4.71369 13.3996 4.33069 12.3656 3.92569C11.2036 3.47069 10.0006 2.99969 8.49963 2.99969C5.61363 2.99969 4.49563 3.95169 4.29963 4.14369C4.10863 4.33069 3.99963 4.58869 3.99963 4.85769V11.9997V15.1427V19.9997C3.99963 20.5527 4.44763 20.9997 4.99963 20.9997C5.55263 20.9997 5.99963 20.5527 5.99963 19.9997V15.7017C6.39463 15.5267 7.17263 15.2857 8.49963 15.2857C9.62363 15.2857 10.6006 15.6687 11.6346 16.0747C12.7966 16.5297 13.9986 16.9997 15.4996 16.9997C17.3086 16.9997 18.4226 16.6217 19.0406 16.3047C19.6326 15.9977 19.9996 15.4027 19.9996 14.7487V6.10569C19.9996 5.54569 19.7266 5.01269 19.2676 4.67969Z" fill="white"/>
</mask>
<g mask="url(#mask0)">
<g id="&#240;&#159;&#142;&#168; Color">
<rect id="Base" width="24" height="24" fill="#0D1C2E"/>
</g>
</g>
</g>
</svg>
