<svg fill="none" height="64" viewBox="0 0 64 64" width="64" xmlns="http://www.w3.org/2000/svg"><path clip-rule="evenodd" d="m51.3802 12.4793c-1.232-.8907-2.8267-1.144-4.264-.6747-1.536.5013-3.536.7653-5.784.7653-2.9973 0-5.6-1.0213-8.3573-2.1013-3.0987-1.21333-6.3067-2.46933-10.3094-2.46933-7.696 0-10.6773 2.53863-11.2 3.05063-.5093.4987-.8 1.1867-.8 1.904v19.0454 8.3813 12.952c0 1.4747 1.1947 2.6667 2.6667 2.6667 1.4747 0 2.6667-1.192 2.6667-2.6667v-11.4613c1.0533-.4667 3.128-1.1094 6.6666-1.1094 2.9974 0 5.6027 1.0214 8.36 2.104 3.0987 1.2134 6.304 2.4667 10.3067 2.4667 4.824 0 7.7947-1.008 9.4427-1.8533 1.5786-.8187 2.5573-2.4054 2.5573-4.1494v-23.048c0-1.4933-.728-2.9146-1.952-3.8026z" fill="#6b7280" fill-rule="evenodd"/></svg>