<svg fill="none" height="24" viewBox="0 0 24 24" width="24" xmlns="http://www.w3.org/2000/svg"><path clip-rule="evenodd" d="m19.2676 4.67976c-.462-.334-1.06-.429-1.599-.253-.576.188-1.326.287-2.169.287-1.124 0-2.1-.383-3.134-.788-1.162-.455-2.365-.926-3.866-.926-2.886 0-4.004.952-4.2 1.144-.191.187-.3.445-.3.714v7.14204 3.143 4.857c0 .553.448 1 1 1 .553 0 1-.447 1-1v-4.298c.395-.175 1.173-.416 2.5-.416 1.124 0 2.101.383 3.135.789 1.162.455 2.364.925 3.865.925 1.809 0 2.923-.378 3.541-.695.592-.307.959-.902.959-1.556v-8.64304c0-.56-.273-1.093-.732-1.426" fill="#6b7280" fill-rule="evenodd"/></svg>