<svg fill="none" height="64" viewBox="0 0 64 64" width="64" xmlns="http://www.w3.org/2000/svg"><path clip-rule="evenodd" d="m29.63 61.3334c-.304 0-.6106-.0533-.912-.1626-1.152-.4187-1.872-1.5707-1.7386-2.7894l2.048-18.9147h-15.6934c-.984 0-1.888-.5413-2.352-1.4106-.464-.8694-.4106-1.92.136-2.7387l21.0347-31.46666c.6827-1.02133 1.9733-1.44533 3.128-1.02133 1.1547.41867 1.872 1.57067 1.7387 2.78933l-2.048 18.91466h15.696c.984 0 1.888.5413 2.352 1.4107.4613.8693.4106 1.92-.136 2.7386l-21.0374 31.4667c-.504.7573-1.3466 1.184-2.216 1.184z" fill="#6b7280" fill-rule="evenodd"/></svg>