<svg fill="none" height="64" viewBox="0 0 64 64" width="64" xmlns="http://www.w3.org/2000/svg"><path d="m38.1437 52.832-5.5703 6.5635-.0039.0039c-3.7283 4.4159-10.4604.5942-9.211-4.6953l.001-.0049 2.8174-12.0459h-15.5293c-4.60305-.0001-6.92231-5.3902-4.04885-8.7998l.00586-.0068 11.12109-13.1026zm-22.0225-45.78512c1.6308-1.03744 3.7944-.55645 4.832 1.07421l27.9991 44.00001c1.0377 1.6308.5575 3.7942-1.0733 4.832-1.6308 1.0377-3.7942.5566-4.832-1.0742l-28-44c-1.0375-1.6308-.5565-3.79432 1.0742-4.83202zm15.3096-2.44629c3.7283-4.415799 10.4605-.59442 9.2109 4.69531l-.001.00488-2.8173 12.04692h15.5293c4.6029.0002 6.9223 5.3893 4.0488 8.7988l-.0059.0068-11.122 13.1016-20.419-32.0869 5.5723-6.56351z" fill="#000"/></svg>