<svg fill="none" height="64" viewBox="0 0 64 64" width="64" xmlns="http://www.w3.org/2000/svg"><path clip-rule="evenodd" d="m46.2083 38.6667 6.6747-9.984c.5466-.8186.6-1.8693.136-2.7386-.464-.8694-1.368-1.4107-2.352-1.4107h-15.696l2.0506-18.91466c.1307-1.21866-.5866-2.37066-1.7413-2.78933-1.1547-.424-2.4453 0-3.128 1.02133l-8.3173 12.44266zm-28.4167-13.3329-6.6746 9.984c-.5467.8186-.6 1.8693-.136 2.7386.464.8694 1.368 1.4107 2.352 1.4107h15.696l-2.0507 18.9147c-.1307 1.2186.5867 2.3706 1.7413 2.7893.2987.1093.6054.1627.9094.1627.872 0 1.712-.4267 2.2186-1.184l8.3174-12.4427zm-5.2397-16.553 42.6667 42.6667c1.0427 1.0426 1.0427 2.728 0 3.7706-.52.52-1.2027.7814-1.8853.7814-.6827 0-1.3654-.2614-1.8854-.7814l-42.66663-42.6666c-1.04267-1.0427-1.04267-2.72804 0-3.7707 1.04266-1.04267 2.72803-1.04267 3.77063 0z" fill="#6b7280" fill-rule="evenodd"/></svg>