<svg fill="none" height="24" viewBox="0 0 24 24" width="24" xmlns="http://www.w3.org/2000/svg"><path clip-rule="evenodd" d="m17.3281 14.4999 2.503-3.744c.205-.307.225-.701.051-1.02696-.174-.326-.513-.529-.882-.529h-5.886l.769-7.093c.049-.457-.22-.889-.653-1.046-.433-.159002-.917 0-1.173.383l-3.11897 4.666zm-10.65622-4.99983-2.503 3.74403c-.205.307-.225.701-.051 1.027s.513.529.882.529h5.88602l-.769 7.093c-.049.457.22.889.653 1.046.112.041.227.061.341.061.327 0 .642-.16.832-.444l3.119-4.666zm-1.96489-6.20736 16.00001 15.99999c.391.391.391 1.023 0 1.414-.195.195-.451.293-.707.293s-.512-.098-.707-.293l-16.00001-15.99999c-.391-.391-.391-1.023 0-1.414s1.023-.391 1.414 0z" fill="#6b7280" fill-rule="evenodd"/></svg>