<svg fill="none" height="64" viewBox="0 0 64 64" width="64" xmlns="http://www.w3.org/2000/svg"><path clip-rule="evenodd" d="m19.2187 25.8851c-1.0427 1.0427-2.728 1.0427-3.7707 0l-7.99998-8c-1.04267-1.0426-1.04267-2.728 0-3.7706l7.99998-8.00003c.52-.52 1.2027-.78134 1.8853-.78134.6827 0 1.3654.26134 1.8854.78134 1.0426 1.04267 1.0426 2.72799 0 3.77066l-3.448 3.44797h31.9893c5.28 0 9.5733 4.2214 9.5733 9.4107v6.5893c0 1.4747-1.192 2.6667-2.6666 2.6667-1.4747 0-2.6667-1.192-2.6667-2.6667v-6.5893c0-2.248-1.9013-4.0773-4.24-4.0773h-31.9893l3.448 3.448c1.0426 1.0426 1.0426 2.728 0 3.7706zm29.01 24.7817h-31.9893c-5.2773 0-9.57333-4.2213-9.57333-9.4107v-6.5893c0-1.4747 1.192-2.6667 2.66666-2.6667 1.47467 0 2.66667 1.192 2.66667 2.6667v6.5893c0 2.2454 1.9013 4.0774 4.24 4.0774h31.9893l-3.448-3.448c-1.04-1.0427-1.04-2.728 0-3.7707.52-.52 1.2027-.7813 1.8854-.7813.6826 0 1.3653.2613 1.8853.7813l8 8c1.0427 1.0427 1.0427 2.728 0 3.7707l-8 8c-1.04 1.0426-2.728 1.0426-3.7707 0-1.04-1.0427-1.04-2.728 0-3.7707z" fill="#6b7280" fill-rule="evenodd"/></svg>