<svg fill="none" height="24" viewBox="0 0 24 24" width="24" xmlns="http://www.w3.org/2000/svg"><path clip-rule="evenodd" d="m7.20698 9.70711c-.391.39099-1.023.39099-1.414 0l-3-3c-.391-.391-.391-1.023 0-1.414l3-3c.195-.195.451-.293.707-.293s.512.098.707.293c.391.391.391 1.023 0 1.414l-1.293 1.293h11.99602c1.98 0 3.59 1.583 3.59 3.529v2.47099c0 .553-.447 1-1 1s-1-.447-1-1v-2.47099c0-.843-.713-1.529-1.59-1.529h-11.99602l1.293 1.293c.391.391.391 1.023 0 1.414zm10.87882 9.29309h-11.99602c-1.979 0-3.59-1.583-3.59-3.529v-2.471c0-.553.447-1 1-1s1 .447 1 1v2.471c0 .842.713 1.529 1.59 1.529h11.99602l-1.293-1.293c-.39-.391-.39-1.023 0-1.414.195-.195.451-.293.707-.293s.512.098.707.293l3 3c.391.391.391 1.023 0 1.414l-3 3c-.39.391-1.023.391-1.414 0-.39-.391-.39-1.023 0-1.414z" fill="#6b7280" fill-rule="evenodd"/></svg>