<svg fill="none" height="24" viewBox="0 0 24 24" width="24" xmlns="http://www.w3.org/2000/svg"><path clip-rule="evenodd" d="m14.293 7.20701c-.391-.391-.391-1.023 0-1.414l3-3c.391-.391 1.023-.391 1.414 0l3 3c.195.195.293.451.293.707s-.098.512-.293.707c-.391.391-1.023.391-1.414 0l-1.293-1.293v11.99599c0 1.98-1.583 3.59-3.529 3.59h-2.471c-.553 0-1-.447-1-1s.447-1 1-1h2.471c.843 0 1.529-.713 1.529-1.59v-11.99599l-1.293 1.293c-.391.391-1.023.391-1.414 0zm-9.29299 10.87879v-11.99599c0-1.979 1.583-3.59 3.529-3.59h2.47099c.553 0 1 .447 1 1s-.447 1-1 1h-2.47099c-.842 0-1.529.713-1.529 1.59v11.99599l1.293-1.293c.391-.39 1.023-.39 1.414 0 .195.195.29299.451.29299.707s-.09799.512-.29299.707l-3 3c-.391.391-1.023.391-1.414 0l-3-3c-.391-.39-.391-1.023 0-1.414.391-.39 1.023-.39 1.414 0z" fill="#6b7280" fill-rule="evenodd"/></svg>