<svg width="64" height="64" viewBox="0 0 64 64" fill="none" xmlns="http://www.w3.org/2000/svg">
<path d="M20 8H12.8C10.149 8 8 10.149 8 12.8V20H12.8V12.8H20V8ZM51.2 8H44V12.8H51.2V20H56V12.8C56 10.149 53.8509 8 51.2 8ZM12.8 56H20V51.2H12.8V44H8V51.2C8 53.8509 10.149 56 12.8 56ZM51.2 51.2H44V56H51.2C53.8509 56 56 53.8509 56 51.2V44H51.2V51.2ZM44 25.3333C44 22.3878 41.6123 20 38.6667 20H25.3333C22.3878 20 20 22.3878 20 25.3333V38.6667C20 41.6123 22.3878 44 25.3333 44H38.6667C41.6123 44 44 41.6123 44 38.6667V25.3333Z" fill="black"/>
</svg>
