<svg fill="none" height="64" viewBox="0 0 64 64" width="64" xmlns="http://www.w3.org/2000/svg"><path d="m58.667 39.8311c0 2.3206.0014 4.2131-.1172 5.747-.1208 1.5616-.3784 2.979-1.0185 4.3076l-.003.002c-.8788 1.8156-2.2229 3.3569-3.8984 4.4404l-.7363.4346c-1.305.7024-2.6996.9823-4.209 1.1123-1.4745.1269-3.2896.125-5.4844.125h-22.4004c-2.1933 0-4.0079.002-5.4824-.125-1.5101-.1301-2.905-.4106-4.211-1.1123-2.0168-1.0835-3.63087-2.799-4.63472-4.875l-.00293-.002c-.64019-1.3286-.89775-2.746-1.01855-4.3076-.11864-1.5339-.11719-3.4264-.11719-5.747v-7.8311h53.33399zm-35.7686-31.8311c.4203 0 .7247-.00001 1.0264.01563h.0156l.461.03613c1.9859.20447 3.863.98269 5.4267 2.22654l.6983.6094.0156.0137.0127.0127c.2505.2443.496.4958.7344.7529.1747.1884.3559.3699.539.5488.9084.8515 2.0398 1.3371 3.2061 1.4043.1284.0062.2757.0078.7344.0078h7.7158c2.0629 0 3.7696-.0036 5.1592.1094 1.4219.1157 2.7386.3639 3.9843.9893 1.9538.9777 3.5481 2.5388 4.6094 4.4502l.4219.8418.0019.0019c.5673 1.2632.7945 2.5988.9014 4.0684.0555.7624.0787 1.6187.0908 2.5781h-53.32029v-2.4981c0-2.3225-.00147-4.2164.11719-5.75.12074-1.5599.37994-2.9751 1.02148-4.3017 1.00338-2.0782 2.61648-3.7953 4.63472-4.87989 1.306-.70173 2.7009-.98223 4.211-1.11231 1.4745-.12697 3.2891-.125 5.4824-.125z" fill="#000"/></svg>