<svg fill="none" height="64" viewBox="0 0 64 64" width="64" xmlns="http://www.w3.org/2000/svg"><path clip-rule="evenodd" d="m37.3335 40.0003h-10.6667c-1.4667 0-2.6667-1.2-2.6667-2.6666 0-1.4667 1.2-2.6667 2.6667-2.6667h10.6667c1.4666 0 2.6666 1.2 2.6666 2.6667 0 1.4666-1.2 2.6666-2.6666 2.6666zm14.6667-21.2108h-18.736l-6.9307-8.4773c-.5067-.6187-1.2667-.9787-2.064-.9787h-12.2693c-3.6747 0-6.6667 2.9093-6.6667 6.4853v32.3627c0 3.576 2.992 6.4853 6.6667 6.4853h40c3.6746 0 6.6666-2.9093 6.6666-6.4853v-22.9067c0-3.576-2.992-6.4853-6.6666-6.4853z" fill="#6b7280" fill-rule="evenodd"/></svg>