<svg width="24" height="24" viewBox="0 0 24 24" fill="none" xmlns="http://www.w3.org/2000/svg">
<g id="Icon/Fill/folder-remove">
<path id="Mask" fill-rule="evenodd" clip-rule="evenodd" d="M14 15H10C9.45 15 9 14.55 9 14C9 13.45 9.45 13 10 13H14C14.55 13 15 13.45 15 14C15 14.55 14.55 15 14 15ZM19.5 7.046H12.474L9.875 3.867C9.685 3.635 9.4 3.5 9.101 3.5H4.5C3.122 3.5 2 4.591 2 5.932V18.068C2 19.409 3.122 20.5 4.5 20.5H19.5C20.878 20.5 22 19.409 22 18.068V9.478C22 8.137 20.878 7.046 19.5 7.046Z" fill="#231F20"/>
<mask id="mask0" mask-type="alpha" maskUnits="userSpaceOnUse" x="2" y="3" width="20" height="18">
<path id="Mask_2" fill-rule="evenodd" clip-rule="evenodd" d="M14 15H10C9.45 15 9 14.55 9 14C9 13.45 9.45 13 10 13H14C14.55 13 15 13.45 15 14C15 14.55 14.55 15 14 15ZM19.5 7.046H12.474L9.875 3.867C9.685 3.635 9.4 3.5 9.101 3.5H4.5C3.122 3.5 2 4.591 2 5.932V18.068C2 19.409 3.122 20.5 4.5 20.5H19.5C20.878 20.5 22 19.409 22 18.068V9.478C22 8.137 20.878 7.046 19.5 7.046Z" fill="white"/>
</mask>
<g mask="url(#mask0)">
<g id="&#240;&#159;&#142;&#168; Color">
<rect id="Base" width="24" height="24" fill="#0D1C2E"/>
</g>
</g>
</g>
</svg>
