<svg fill="none" height="64" viewBox="0 0 64 64" width="64" xmlns="http://www.w3.org/2000/svg"><path d="m48 8c2.1217 0 4.1569.84248 5.6572 2.3428 1.5003 1.5003 2.3428 3.5355 2.3428 5.6572v2.9736c0 1.1146-.2327 2.217-.6836 3.2364s-1.1107 1.9337-1.9355 2.6836l-11.1729 10.1601c-.2751.2497-.4949.554-.6455.8936-.1506.3397-.2292.7075-.2295 1.0791v15.9922c0 .9089-.2322 1.8027-.6748 2.5966-.4425.7938-1.0805 1.4615-1.8535 1.9395-.7732.4779-1.6564.751-2.5645.792-.9079.0409-1.811-.1514-2.624-.5576l-8-4c-.8861-.4428-1.6314-1.1234-2.1523-1.9659-.521-.8426-.7969-1.814-.7969-2.8046v-11.9922c.0001-.3713-.0775-.7385-.2275-1.0782-.1502-.3396-.3699-.6445-.6446-.8945l-11.1758-10.1601c-.82482-.7499-1.48455-1.6642-1.93551-2.6836-.45087-1.0194-.68361-2.1218-.68359-3.2364v-2.9736c0-2.1217.84248-4.1569 2.3428-5.6572 1.5003-1.50032 3.5355-2.3428 5.6572-2.3428z" fill="#000"/></svg>