<svg width="24" height="24" viewBox="0 0 24 24" fill="none" xmlns="http://www.w3.org/2000/svg">
<g id="Icon/Fill/funnel">
<path id="Mask" fill-rule="evenodd" clip-rule="evenodd" d="M13.9033 22C13.6893 22 13.4773 21.932 13.3003 21.797L9.27426 18.752C9.02426 18.563 8.87726 18.268 8.87726 17.955V14.681L4.11126 5.459C3.95126 5.149 3.96426 4.778 4.14626 4.48C4.32726 4.182 4.65126 4 5.00026 4H19.0003C19.3523 4 19.6783 4.185 19.8593 4.488C20.0393 4.79 20.0473 5.166 19.8803 5.475L14.9033 14.69V21C14.9033 21.379 14.6883 21.726 14.3483 21.896C14.2073 21.965 14.0553 22 13.9033 22Z" fill="#231F20"/>
<mask id="mask0" mask-type="alpha" maskUnits="userSpaceOnUse" x="3" y="4" width="18" height="18">
<path id="Mask_2" fill-rule="evenodd" clip-rule="evenodd" d="M13.9033 22C13.6893 22 13.4773 21.932 13.3003 21.797L9.27426 18.752C9.02426 18.563 8.87726 18.268 8.87726 17.955V14.681L4.11126 5.459C3.95126 5.149 3.96426 4.778 4.14626 4.48C4.32726 4.182 4.65126 4 5.00026 4H19.0003C19.3523 4 19.6783 4.185 19.8593 4.488C20.0393 4.79 20.0473 5.166 19.8803 5.475L14.9033 14.69V21C14.9033 21.379 14.6883 21.726 14.3483 21.896C14.2073 21.965 14.0553 22 13.9033 22Z" fill="white"/>
</mask>
<g mask="url(#mask0)">
<g id="&#240;&#159;&#142;&#168; Color">
<rect id="Base" width="24" height="24" fill="#0D1C2E"/>
</g>
</g>
</g>
</svg>
