<svg fill="none" height="64" viewBox="0 0 64 64" width="64" xmlns="http://www.w3.org/2000/svg"><path clip-rule="evenodd" d="m37.0755 58.6665c-.5706 0-1.136-.1813-1.608-.5413l-10.736-8.12c-.6666-.504-1.0586-1.2907-1.0586-2.1254v-8.7306l-12.7094-24.592c-.4266-.8267-.392-1.816.0934-2.6107.4826-.7947 1.3466-1.28 2.2773-1.28h37.3333c.9387 0 1.808.4933 2.2907 1.3013.48.8054.5013 1.808.056 2.632l-13.272 24.5734v16.8266c0 1.0107-.5734 1.936-1.48 2.3894-.376.184-.7813.2773-1.1867.2773z" fill="#6b7280" fill-rule="evenodd"/></svg>