<svg fill="none" height="24" viewBox="0 0 24 24" width="24" xmlns="http://www.w3.org/2000/svg"><path clip-rule="evenodd" d="m18.4434 20.9999h-5.625v-5.728h6.545v4.819c0 .502-.412.909-.92.909zm-13.80668-.9097v-4.818h6.54498v5.728h-5.62498c-.508 0-.92-.408-.92-.91zm15.46288-12.99944h-1.842c.179-.373.288-.786.288-1.228 0-1.578-1.285-2.863-2.864-2.863-1.881 0-3.021 1.32-3.682 2.569-.661-1.249-1.8-2.569-3.68097-2.569-1.579 0-2.865 1.285-2.865 2.863 0 .442.11.855.289 1.228h-1.842c-.497 0-.901.586-.901 1.31v3.92604c0 .723.404 1.31.901 1.31h.736 6.54497v-6.54604h1.637v6.54604h6.545.736c.497 0 .9-.587.9-1.31v-3.92604c0-.724-.403-1.31-.9-1.31zm-4.418.00006h-2.581c.386-1.016 1.18-2.454 2.581-2.454.677 0 1.228.55 1.228 1.226 0 .677-.551 1.228-1.228 1.228zm-7.36297 0c-.677 0-1.228-.551-1.228-1.228 0-.676.551-1.226 1.228-1.226 1.401 0 2.19497 1.438 2.58097 2.454z" fill="#6b7280" fill-rule="evenodd"/></svg>