<svg width="24" height="24" viewBox="0 0 24 24" fill="none" xmlns="http://www.w3.org/2000/svg">
<g id="Icon/Fill/gift">
<path id="Mask" fill-rule="evenodd" clip-rule="evenodd" d="M18.4434 21H12.8184V15.272H19.3634V20.091C19.3634 20.593 18.9514 21 18.4434 21ZM4.63673 20.0905V15.2725H11.1817V21.0005H5.55673C5.04873 21.0005 4.63673 20.5925 4.63673 20.0905ZM20.0996 7.0908H18.2576C18.4366 6.7178 18.5456 6.3048 18.5456 5.8628C18.5456 4.2848 17.2606 2.9998 15.6816 2.9998C13.8006 2.9998 12.6606 4.3198 11.9996 5.5688C11.3386 4.3198 10.1996 2.9998 8.31863 2.9998C6.73963 2.9998 5.45363 4.2848 5.45363 5.8628C5.45363 6.3048 5.56363 6.7178 5.74263 7.0908H3.90063C3.40363 7.0908 2.99963 7.6768 2.99963 8.4008V12.3268C2.99963 13.0498 3.40363 13.6368 3.90063 13.6368H4.63663H11.1816V7.0908H12.8186V13.6368H19.3636H20.0996C20.5966 13.6368 20.9996 13.0498 20.9996 12.3268V8.4008C20.9996 7.6768 20.5966 7.0908 20.0996 7.0908ZM15.6816 7.0908H13.1006C13.4866 6.0748 14.2806 4.6368 15.6816 4.6368C16.3586 4.6368 16.9096 5.1868 16.9096 5.8628C16.9096 6.5398 16.3586 7.0908 15.6816 7.0908ZM8.31863 7.0908C7.64163 7.0908 7.09063 6.5398 7.09063 5.8628C7.09063 5.1868 7.64163 4.6368 8.31863 4.6368C9.71963 4.6368 10.5136 6.0748 10.8996 7.0908H8.31863Z" fill="#231F20"/>
<mask id="mask0" mask-type="alpha" maskUnits="userSpaceOnUse" x="2" y="2" width="19" height="20">
<path id="Mask_2" fill-rule="evenodd" clip-rule="evenodd" d="M18.4434 21H12.8184V15.272H19.3634V20.091C19.3634 20.593 18.9514 21 18.4434 21ZM4.63673 20.0905V15.2725H11.1817V21.0005H5.55673C5.04873 21.0005 4.63673 20.5925 4.63673 20.0905ZM20.0996 7.0908H18.2576C18.4366 6.7178 18.5456 6.3048 18.5456 5.8628C18.5456 4.2848 17.2606 2.9998 15.6816 2.9998C13.8006 2.9998 12.6606 4.3198 11.9996 5.5688C11.3386 4.3198 10.1996 2.9998 8.31863 2.9998C6.73963 2.9998 5.45363 4.2848 5.45363 5.8628C5.45363 6.3048 5.56363 6.7178 5.74263 7.0908H3.90063C3.40363 7.0908 2.99963 7.6768 2.99963 8.4008V12.3268C2.99963 13.0498 3.40363 13.6368 3.90063 13.6368H4.63663H11.1816V7.0908H12.8186V13.6368H19.3636H20.0996C20.5966 13.6368 20.9996 13.0498 20.9996 12.3268V8.4008C20.9996 7.6768 20.5966 7.0908 20.0996 7.0908ZM15.6816 7.0908H13.1006C13.4866 6.0748 14.2806 4.6368 15.6816 4.6368C16.3586 4.6368 16.9096 5.1868 16.9096 5.8628C16.9096 6.5398 16.3586 7.0908 15.6816 7.0908ZM8.31863 7.0908C7.64163 7.0908 7.09063 6.5398 7.09063 5.8628C7.09063 5.1868 7.64163 4.6368 8.31863 4.6368C9.71963 4.6368 10.5136 6.0748 10.8996 7.0908H8.31863Z" fill="white"/>
</mask>
<g mask="url(#mask0)">
<g id="&#240;&#159;&#142;&#168; Color">
<rect id="Base" width="24" height="24" fill="#0D1C2E"/>
</g>
</g>
</g>
</svg>
