<svg fill="none" height="64" viewBox="0 0 64 64" width="64" xmlns="http://www.w3.org/2000/svg"><path clip-rule="evenodd" d="m49.1825 55.9998h-15v-15.2747h17.4533v12.8507c0 1.3387-1.0986 2.424-2.4533 2.424zm-36.8179-2.4258v-12.848h17.4533v15.2747h-15c-1.3547 0-2.4533-1.088-2.4533-2.4267zm41.2344-34.6652h-4.912c.4774-.9946.768-2.096.768-3.2746 0-4.208-3.4266-7.63469-7.6373-7.63469-5.016 0-8.056 3.51999-9.8187 6.85069-1.7626-3.3307-4.8-6.85069-9.816-6.85069-4.2106 0-7.64 3.42669-7.64 7.63469 0 1.1786.2934 2.28.7707 3.2746h-4.912c-1.32534 0-2.40268 1.5627-2.40268 3.4934v10.4693c0 1.928 1.07734 3.4933 2.40268 3.4933h1.9627 17.4533v-17.456h4.3653v17.456h17.4534 1.9626c1.3254 0 2.4-1.5653 2.4-3.4933v-10.4693c0-1.9307-1.0746-3.4934-2.4-3.4934zm-11.7814.0002h-6.8826c1.0293-2.7093 3.1466-6.544 6.8826-6.544 1.8054 0 3.2747 1.4667 3.2747 3.2694 0 1.8053-1.4693 3.2746-3.2747 3.2746zm-19.6346 0c-1.8053 0-3.2747-1.4693-3.2747-3.2746 0-1.8027 1.4694-3.2694 3.2747-3.2694 3.736 0 5.8533 3.8347 6.8827 6.544z" fill="#6b7280" fill-rule="evenodd"/></svg>