<svg fill="none" height="24" viewBox="0 0 24 24" width="24" xmlns="http://www.w3.org/2000/svg"><path clip-rule="evenodd" d="m11.9995 1c-6.07399 0-10.999988 4.82-10.999988 10.767 0 4.755 3.151998 8.791 7.522998 10.214.551.099.751-.233.751-.519 0-.255-.009-.933-.014-1.83-3.06.65-3.705-1.444-3.705-1.444-.501-1.244-1.222-1.575-1.222-1.575-.999-.668.076-.654.076-.654 1.104.076 1.684 1.109 1.684 1.109.981 1.646 2.574 1.17 3.202.895.1-.695.383-1.17.698-1.44-2.443-.271-5.011-1.195-5.011-5.32 0-1.175.429-2.136 1.133-2.889-.114-.272-.491-1.367.107-2.849 0 0 .924-.289 3.026 1.103.87699-.239 1.81799-.357 2.75299-.362.934.005 1.875.123 2.754.362 2.1-1.392 3.022-1.103 3.022-1.103.6 1.482.223 2.577.109 2.849.705.753 1.131 1.714 1.131 2.889 0 4.136-2.572 5.046-5.022 5.313.395.332.746.989.746 1.993 0 1.439-.013 2.6-.013 2.953 0 .288.198.623.756.518 4.367-1.426 7.516-5.459 7.516-10.213 0-5.947-4.925-10.767-11-10.767" fill="#6b7280" fill-rule="evenodd"/></svg>