<svg fill="none" height="64" viewBox="0 0 64 64" width="64" xmlns="http://www.w3.org/2000/svg"><path clip-rule="evenodd" d="m31.9986 2.6665c-16.1973 0-29.33332 12.8533-29.33332 28.712 0 12.68 8.40532 23.4427 20.06132 27.2374 1.4694.264 2.0027-.6214 2.0027-1.3841 0-.68-.024-2.488-.0373-4.88-8.16 1.7334-9.88-3.8506-9.88-3.8506-1.336-3.3174-3.2587-4.2-3.2587-4.2-2.66402-1.7814.2027-1.744.2027-1.744 2.944.2026 4.4906 2.9573 4.4906 2.9573 2.616 4.3894 6.864 3.12 8.5387 2.3867.2667-1.8534 1.0213-3.12 1.8613-3.84-6.5146-.7227-13.3626-3.1867-13.3626-14.1867 0-3.1333 1.144-5.696 3.0213-7.704-.304-.7253-1.3093-3.6453.2853-7.5973 0 0 2.464-.7707 8.0694 2.9413 2.3386-.6373 4.848-.952 7.3413-.9653 2.4907.0133 5 .328 7.344.9653 5.6-3.712 8.0587-2.9413 8.0587-2.9413 1.6 3.952.5946 6.872.2906 7.5973 1.88 2.008 3.016 4.5707 3.016 7.704 0 11.0293-6.8586 13.456-13.392 14.168 1.0534.8853 1.9894 2.6373 1.9894 5.3147 0 3.8373-.0347 6.9333-.0347 7.8746 0 .768.528 1.6614 2.016 1.3814 11.6453-3.8027 20.0427-14.5574 20.0427-27.2347 0-15.8587-13.1334-28.712-29.3334-28.712z" fill="#6b7280" fill-rule="evenodd"/></svg>