<svg fill="none" height="24" viewBox="0 0 24 24" width="24" xmlns="http://www.w3.org/2000/svg"><path clip-rule="evenodd" d="m14.617 19.5521c1.049-1.498 2.14-3.701 2.358-6.552h2.955c-.383 3.052-2.489 5.57-5.313 6.552zm-10.54801-6.552h2.992c.206 2.862 1.283 5.056 2.346 6.561-2.837-.977-4.953-3.5-5.338-6.561zm5.369-8.571c-1.052 1.498-2.153 3.708-2.373 6.571h-2.996c.386-3.072 2.517-5.603 5.369-6.571zm-.35899 6.5707c.306-3.27196 1.98-5.54996 2.947-6.60296 1 1.071 2.648 3.328 2.933 6.60296zm.00098 2.0003h5.88202c-.306 3.277-1.984 5.555-2.95 6.608-1.047-1.11-2.65302-3.336-2.93202-6.608zm10.85012-2.0001h-2.9521c-.205-2.849-1.27-5.036-2.328-6.539 2.808.99 4.8991 3.499 5.2801 6.539zm2.0699 1c0-5.504-4.471-9.982-9.972-9.998-.004 0-.008-.001-.013-.001-.004 0-.01-.001-.015-.001-5.51398 0-9.99998 4.487-9.99998 10 0 5.514 4.486 10 9.99998 10 .006 0 .011-.001.015-.001.002 0 .003.001.005.001.003 0 .006-.002.008-.002 5.501-.015 9.972-4.494 9.972-9.998z" fill="#6b7280" fill-rule="evenodd"/></svg>