<svg fill="none" height="64" viewBox="0 0 64 64" width="64" xmlns="http://www.w3.org/2000/svg"><path clip-rule="evenodd" d="m13.2317 42.1327c1.696.4294 3.5333.728 5.4026.728 2.88 0 5.8214-.7013 8.3654-2.6933 4.576-3.5787 4.576-8.1573 4.576-11.8373 0-2.376 0-4.4294.992-6.2507.5333-.976 1.6693-1.6533 2.984-2.44.8053-.48 1.6373-.9787 2.44-1.6053 1.7146-1.3414 2.9893-3.0694 3.7786-4.976 3.7334 1.9306 6.8267 4.9253 8.8667 8.592-3.8053.5306-9.2133 1.776-10.3013 6.7573-.288 1.3173-.3334 2.5573-.3707 3.6533-.0533 1.5547-.0987 2.784-.7653 3.9067l-.264.448c-1.7254 2.888-3.6774 6.1653-1.0454 10.744.3174.5547.672 1.088 1.0214 1.616.9173 1.3787 1.368 2.1387 1.3706 2.8827-2.5493 1.08-5.3466 1.6746-8.2826 1.6746-8.0987 0-15.1574-4.536-18.768-11.2zm18.768-36.79969c-14.704 0-26.66669 11.96529-26.66669 26.66669 0 14.704 11.96269 26.6666 26.66669 26.6666s26.6666-11.9626 26.6666-26.6666c0-14.7014-11.9626-26.66669-26.6666-26.66669z" fill="#6b7280" fill-rule="evenodd"/></svg>