<svg fill="none" height="24" viewBox="0 0 24 24" width="24" xmlns="http://www.w3.org/2000/svg"><path clip-rule="evenodd" d="m4.96187 15.7999c.636.161 1.325.273 2.026.273 1.08 0 2.183-.263 3.13703-1.01 1.716-1.342 1.716-3.059 1.716-4.439 0-.891 0-1.661.372-2.344.2-.366.626-.62 1.119-.915.302-.18.614-.367.915-.602.643-.503 1.121-1.151 1.417-1.866 1.4.724 2.56 1.847 3.325 3.222-1.427.199-3.455.666-3.863 2.534-.108.494-.125.959-.139 1.37-.02.583-.037 1.044-.287 1.465l-.099.168c-.647 1.083-1.379 2.312-.392 4.029.119.208.252.408.383.606.344.517.513.802.514 1.081-.956.405-2.005.628-3.106.628-3.03703 0-5.68403-1.701-7.03803-4.2zm7.03803-13.7999c-5.51403 0-10.00003 4.487-10.00003 10 0 5.514 4.486 10 10.00003 10 5.514 0 10-4.486 10-10 0-5.513-4.486-10-10-10z" fill="#6b7280" fill-rule="evenodd"/></svg>