<svg fill="none" height="24" viewBox="0 0 24 24" width="24" xmlns="http://www.w3.org/2000/svg"><path clip-rule="evenodd" d="m17.4951 13.9805c-.666 2.142-2.326 3.625-4.535 3.952-3.37103.499-6.68103-2.057-6.94303-5.457-.272-3.52801 2.511-6.47501 5.98403-6.47501.803 0 1.569.158 2.269.444.243.099.518.014.642-.216l1.435-2.647c.136-.253.038-.579-.224-.697-1.257-.568-2.651-.884-4.119-.884-5.62203 0-10.16103 4.636-10.00003 10.29301.147 5.161 4.407 9.479 9.56403 9.698 5.546.234 10.146-4.046 10.425-9.469.011-.198.007-1.351.003-2.027-.001-.276-.225-.495-.5-.495h-8.999c-.276 0-.5.223-.5.5v2.98c0 .275.224.5.5.5z" fill="#6b7280" fill-rule="evenodd"/></svg>