<svg fill="none" height="64" viewBox="0 0 64 64" width="64" xmlns="http://www.w3.org/2000/svg"><path clip-rule="evenodd" d="m46.6534 37.2811c-1.776 5.712-6.2026 9.6667-12.0933 10.5387-8.9893 1.3307-17.816-5.4853-18.5147-14.552-.7253-9.408 6.696-17.2667 15.9574-17.2667 2.1413 0 4.184.4214 6.0506 1.184.648.264 1.3814.0374 1.712-.576l3.8267-7.05863c.3627-.67466.1013-1.544-.5973-1.85866-3.3521-1.51467-7.0694-2.35734-10.984-2.35734-14.992 0-27.09605 12.36263-26.66671 27.44803.392 13.7626 11.75201 25.2773 25.50401 25.8613 14.7893.624 27.056-10.7893 27.8-25.2507.0293-.528.0187-3.6026.008-5.4053-.0027-.736-.6-1.32-1.3333-1.32h-23.9974c-.736 0-1.3333.5947-1.3333 1.3333v7.9467c0 .7333.5973 1.3333 1.3333 1.3333z" fill="#6b7280" fill-rule="evenodd"/></svg>