<svg fill="none" height="64" viewBox="0 0 64 64" width="64" xmlns="http://www.w3.org/2000/svg"><path clip-rule="evenodd" d="m13.3333 8h10.6667c2.9413 0 5.3333 2.392 5.3333 5.3333v10.6667c0 2.9413-2.392 5.3333-5.3333 5.3333h-10.6667c-2.9413 0-5.3333-2.392-5.3333-5.3333v-10.6667c0-2.9413 2.392-5.3333 5.3333-5.3333zm26.6667 0h10.6666c2.9414 0 5.3334 2.392 5.3334 5.3333v10.6667c0 2.9413-2.392 5.3333-5.3334 5.3333h-10.6666c-2.9414 0-5.3334-2.392-5.3334-5.3333v-10.6667c0-2.9413 2.392-5.3333 5.3334-5.3333zm-16 26.6665h-10.6667c-2.9413 0-5.3333 2.392-5.3333 5.3333v10.6667c0 2.9413 2.392 5.3333 5.3333 5.3333h10.6667c2.9413 0 5.3333-2.392 5.3333-5.3333v-10.6667c0-2.9413-2.392-5.3333-5.3333-5.3333zm16 0h10.6666c2.9414 0 5.3334 2.392 5.3334 5.3333v10.6667c0 2.9413-2.392 5.3333-5.3334 5.3333h-10.6666c-2.9414 0-5.3334-2.392-5.3334-5.3333v-10.6667c0-2.9413 2.392-5.3333 5.3334-5.3333z" fill="#6b7280" fill-rule="evenodd"/></svg>