<svg fill="none" height="24" viewBox="0 0 24 24" width="24" xmlns="http://www.w3.org/2000/svg"><path clip-rule="evenodd" d="m5 3h4c1.103 0 2 .897 2 2v4c0 1.103-.897 2-2 2h-4c-1.103 0-2-.897-2-2v-4c0-1.103.897-2 2-2zm10 0h4c1.103 0 2 .897 2 2v4c0 1.103-.897 2-2 2h-4c-1.103 0-2-.897-2-2v-4c0-1.103.897-2 2-2zm-6 9.9999h-4c-1.103 0-2 .897-2 2v4c0 1.103.897 2 2 2h4c1.103 0 2-.897 2-2v-4c0-1.103-.897-2-2-2zm6 0h4c1.103 0 2 .897 2 2v4c0 1.103-.897 2-2 2h-4c-1.103 0-2-.897-2-2v-4c0-1.103.897-2 2-2z" fill="#6b7280" fill-rule="evenodd"/></svg>