<svg width="64" height="64" viewBox="0 0 64 64" fill="none" xmlns="http://www.w3.org/2000/svg">
<path d="M58.7528 10.9131L53.4198 16.2471L52.5028 15.3301L42.5868 25.2471C47.0968 31.3616 45.8568 38.9346 39.2528 41.4971C36.5656 42.3098 34.9406 44.7782 34.9198 47.5801C34.8989 50.6113 33.8257 53.4864 31.7528 55.5801C29.6382 57.7257 26.7738 58.7262 23.6698 58.7471C19.4094 58.7783 14.7423 56.8505 11.0028 53.1631C4.54472 46.7777 3.31601 37.4859 8.33676 32.4131C10.3991 30.3196 13.2218 29.3097 16.2528 29.2471C19.0547 29.195 21.5554 27.4448 22.3368 24.7471C23.6805 18.8721 31.7326 15.6113 38.8368 21.3301L48.6698 11.4971L47.7528 10.5801L53.0868 5.24609L58.7528 10.9131ZM30.4198 23.8301C29.4717 23.8406 26.6388 24.6743 26.0868 26.7471C24.92 30.7364 21.3047 33.4967 17.0028 33.5801C15.6486 33.6114 13.6488 33.9972 12.1698 35.4971C10.7325 36.9554 10.1073 39.0907 10.4198 41.5801C10.774 44.4029 12.2743 47.2054 14.5868 49.4971C17.2116 52.0905 20.6489 53.6838 23.7528 53.6631C25.1589 53.6527 27.149 53.2885 28.6698 51.7471C30.1488 50.2473 30.4923 48.3616 30.5028 46.9971C30.5444 42.6951 33.1908 38.9555 37.1698 37.7471C40.1175 36.9971 40.2117 33.5699 40.0868 32.5801C39.9409 31.3926 39.4299 30.2155 38.7528 29.0801L33.0868 34.7471C33.5449 36.5178 33.0551 38.4448 31.6698 39.8301C29.5864 41.9133 26.253 41.9134 24.1698 39.8301C22.0865 37.7468 22.0866 34.4134 24.1698 32.3301C25.5551 30.9448 27.4821 30.455 29.2528 30.9131L34.9198 25.2471C33.4614 24.3617 31.9093 23.8197 30.4198 23.8301ZM25.4198 46.9131L22.9198 49.4131L14.5868 41.1631L17.0868 38.6631L25.4198 46.9131Z" fill="#141416"/>
</svg>
