<svg width="64" height="64" viewBox="0 0 64 64" fill="none" xmlns="http://www.w3.org/2000/svg">
<path d="M56.5024 35.0203C55.5898 33.0068 53.7646 31.9085 51.7568 31.9085C50.2966 31.9085 48.8364 32.4576 47.5587 33.739C45.0034 36.1186 43.1781 37.7661 42.448 38.1322C41.9004 38.4983 40.8053 38.3153 40.2577 37.5831C39.8926 37.0339 39.7101 36.3017 39.8927 35.2034C40.0752 34.4712 42.8131 17.0814 43.1781 14.5186C43.3606 13.2373 42.9956 11.9559 42.2655 11.0407C41.3529 10.1254 40.2577 9.57627 38.98 9.57627C37.1548 9.57627 34.9645 10.8576 34.4169 13.4203C34.2344 14.8847 33.0476 22.2068 32.5 25.6847C32.5 21.1085 32.9567 11.7729 32.9567 9.21017C32.9567 8.11186 32.5916 7.01356 31.8615 6.28136C30.9489 5.3661 29.8538 5 28.5761 5C26.3858 5 24.1955 6.46441 24.013 9.57627C24.013 12.6881 24.5 21.2915 24.5 25.1356C23.9524 22.0237 22.9178 14.5186 22.7353 13.2373C22.5528 11.0407 20.7275 9.57627 18.3547 9.57627C16.8945 9.39322 15.4343 9.94237 14.7042 11.0407C14.1566 11.5898 13.4265 12.8712 13.7915 14.8847C14.3391 18.3627 15.7699 26.2051 16.5 29.5C15.9524 28.4017 15.0692 23.8542 14.7042 22.7559C14.3391 20.7424 12.5139 19.461 10.5061 19.461C9.04589 19.461 7.76821 20.1932 6.85559 21.2915C5.94296 22.3898 5.76044 24.0373 6.30801 25.6847C7.76821 30.9932 9.59347 37.7661 11.9663 45.6373L12.1488 46.1864C14.5216 54.4237 20.3625 59 28.5761 59C34.0518 59 38.4324 56.2542 41.1703 53.8746C42.9956 52.4102 53.217 43.2576 55.5898 40.6949C57.05 39.0475 57.4151 36.8509 56.5024 35.0203Z" fill="#6B7280"/>
</svg>
