<svg fill="none" height="64" viewBox="0 0 64 64" width="64" xmlns="http://www.w3.org/2000/svg"><path clip-rule="evenodd" d="m14.9818 29.3335 7.264-14.5253c.4534-.9094 1.368-1.4747 2.384-1.4747h14.7414c1.016 0 1.9306.5653 2.384 1.4747l7.264 14.5253zm27.6854 15.9998h-10.6667c-1.4666 0-2.6666-1.2-2.6666-2.6666 0-1.4667 1.2-2.6667 2.6666-2.6667h10.6667c1.4667 0 2.6667 1.2 2.6667 2.6667 0 1.4666-1.2 2.6666-2.6667 2.6666zm-21.3334 0c-1.4667 0-2.6667-1.2-2.6667-2.6666 0-1.4667 1.2-2.6667 2.6667-2.6667 1.4666 0 2.6666 1.2 2.6666 2.6667 0 1.4666-1.2 2.6666-2.6666 2.6666zm34.104-15.088-8.912-17.824c-1.3653-2.7253-4.104-4.4213-7.1546-4.4213h-14.7414c-3.0506 0-5.792 1.696-7.1546 4.4213l-8.91205 17.824c-.368.736-.56266 1.5627-.56266 2.384v15.3707c0 4.4107 3.58931 8 8.00001 8h32c4.4107 0 8-3.5893 8-8v-15.3707c0-.8213-.1947-1.648-.5627-2.384z" fill="#6b7280" fill-rule="evenodd"/></svg>