<svg fill="none" height="64" viewBox="0 0 64 64" width="64" xmlns="http://www.w3.org/2000/svg"><path clip-rule="evenodd" d="m25.8619 37.3331 1.944-10.6667h10.3333l-1.944 10.6667zm27.4719-.0003h-11.472l1.944-10.6666h9.528c1.4667 0 2.6667-1.2 2.6667-2.6667s-1.2-2.6667-2.6667-2.6667h-8.56l1.8507-10.1626c.2667-1.46136-.752-2.87202-2.264-3.12802-1.512-.25867-2.9653.728-3.232 2.19202l-2.0213 11.0986h-10.3334l1.8507-10.1626c.2667-1.46136-.752-2.87202-2.264-3.12802-1.512-.25867-2.9653.728-3.232 2.19202l-2.0213 11.0986h-12.44c-1.46671 0-2.66671 1.2-2.66671 2.6667s1.2 2.6667 2.66671 2.6667h11.472l-1.944 10.6666h-9.528c-1.46671 0-2.66671 1.2-2.66671 2.6667s1.2 2.6667 2.66671 2.6667h8.5573l-1.8507 10.1626c-.264 1.4614.7547 2.872 2.2667 3.128 1.5093.2587 2.9653-.728 3.2293-2.192l2.0214-11.0986h10.3333l-1.8507 10.1626c-.264 1.4614.7547 2.872 2.2667 3.128 1.5093.2587 2.9653-.728 3.2293-2.192l2.0214-11.0986h12.4426c1.4667 0 2.6667-1.2 2.6667-2.6667s-1.2-2.6667-2.6667-2.6667z" fill="#6b7280" fill-rule="evenodd"/></svg>