<svg fill="none" height="64" viewBox="0 0 64 64" width="64" xmlns="http://www.w3.org/2000/svg"><path clip-rule="evenodd" d="m32.0002 5.3335c-14.704 0-26.6667 12.4-26.6667 27.6427v12.3573c0 5.8827 4.784 10.6667 10.6667 10.6667 5.8826 0 10.6666-4.784 10.6666-10.6667s-4.784-10.6667-10.6666-10.6667c-1.952 0-3.7574.5654-5.3334 1.4854v-3.176c0-12.3014 9.5707-22.3094 21.3334-22.3094 11.7626 0 21.3333 10.008 21.3333 22.3094v3.176c-1.576-.92-3.3813-1.4854-5.3333-1.4854-5.8827 0-10.6667 4.784-10.6667 10.6667s4.784 10.6667 10.6667 10.6667c5.8826 0 10.6666-4.784 10.6666-10.6667v-12.3573c0-15.2427-11.9626-27.6427-26.6666-27.6427z" fill="#6b7280" fill-rule="evenodd"/></svg>