<svg fill="none" height="64" viewBox="0 0 64 64" width="64" xmlns="http://www.w3.org/2000/svg"><path clip-rule="evenodd" d="m32 55.9998c-.7093 0-1.3867-.28-1.888-.784l-20.712-20.7466c-5.42933-5.44-5.42933-14.2907 0-19.7307 2.6213-2.624 6.1227-4.072 9.8533-4.072 3.7307 0 7.232 1.448 9.8534 4.072l2.8933 2.8987 2.8907-2.896c2.624-2.6267 6.1253-4.0747 9.856-4.0747 3.7306 0 7.232 1.448 9.8533 4.072 5.4293 5.44 5.4293 14.2907.0027 19.7307l-20.7147 20.7493c-.5013.5013-1.1787.7813-1.888.7813z" fill="#6b7280" fill-rule="evenodd"/></svg>