<svg fill="none" height="64" viewBox="0 0 64 64" width="64" xmlns="http://www.w3.org/2000/svg"><path clip-rule="evenodd" d="m8.00016 10.6665h18.66664c1.4667 0 2.6667 1.2 2.6667 2.6667 0 1.4666-1.2 2.6666-2.6667 2.6666h-18.66664c-1.46666 0-2.66666-1.2-2.66666-2.6666 0-1.4667 1.2-2.6667 2.66666-2.6667zm8.00004 18.6665h10.6666c1.4667 0 2.6667 1.2 2.6667 2.6667 0 1.4666-1.2 2.6666-2.6667 2.6666h-10.6666c-1.4667 0-2.6667-1.2-2.6667-2.6666 0-1.4667 1.2-2.6667 2.6667-2.6667zm10.6667 18.667h-5.3334c-1.4666 0-2.6666 1.2-2.6666 2.6667 0 1.4666 1.2 2.6666 2.6666 2.6666h5.3334c1.4666 0 2.6666-1.2 2.6666-2.6666 0-1.4667-1.2-2.6667-2.6666-2.6667zm24.0005-3.6167 3.48-3.36c1.0613-1.0213 2.7493-.9893 3.7706.0667 1.024 1.0613.9947 2.7493-.064 3.7706l-8 7.7254c-.52.496-1.1866.7466-1.8533.7466-.6827 0-1.3653-.2586-1.8853-.7813l-8-8c-1.0427-1.04-1.0427-2.728 0-3.7707 1.04-1.04 2.728-1.04 3.7706 0l3.448 3.448v-24.6106l-3.48 3.3573c-1.0613 1.0267-2.7466.992-3.7706-.0667-1.024-1.0586-.9947-2.7466.064-3.7706l8-7.7254c1.048-1 2.712-.9946 3.7386.0347l8 8c1.04 1.0427 1.04 2.7307 0 3.7707-.52.5226-1.2026.7813-1.8853.7813s-1.3653-.2587-1.8853-.7813l-3.448-3.448z" fill="#6b7280" fill-rule="evenodd"/></svg>