<svg fill="none" height="64" viewBox="0 0 64 64" width="64" xmlns="http://www.w3.org/2000/svg"><path clip-rule="evenodd" d="m25.8489 11.1205c1.5585-.4978 2.4208-2.16297 1.926-3.72148-.4978-1.5585-2.163-2.42072-3.7215-1.92591-11.1971 3.56442-18.72003 14.00579-18.72003 25.98209 0 15.0043 11.96153 27.2116 26.66663 27.2116 14.7052 0 26.6667-12.2073 26.6667-27.2116 0-6.7081-2.4148-13.0281-6.6844-17.9584l4.2696-.806c1.6059-.3022 2.6518-1.8577 2.3615-3.46068-.2993-1.60887-1.8519-2.66665-3.4608-2.36443l-11.8518 2.23406c-.1376.0254-.26.08103-.3825.13666-.049.02226-.0979.04451-.1479.06482-.0515.02038-.1041.03726-.1564.05402-.0921.02955-.183.05871-.2643.10598-.1508.08796-.2739.2079-.3964.32727-.0219.02136-.0438.0427-.0659.06384-.0383.03499-.0802.06654-.122.09809-.0679.05127-.1359.10257-.1891.16857-.1157.1374-.1961.2983-.2763.4589-.0184.0368-.0367.0735-.0555.11-.0224.0423-.048.0819-.0734.121-.0385.0595-.0764.1181-.1014.1842-.1186.32-.1808.6637-.1808 1.0163 0 .157.0119.3229.0385.4859l2.08 12.5806c.2637 1.6148 1.7897 2.7082 3.4045 2.4415 1.6118-.2667 2.7348-1.7778 2.4385-3.4074l-1.0578-6.4177c3.1645 3.8133 4.9482 8.6429 4.9482 13.7629 0 11.7391-9.3067 21.2857-20.7408 21.2857-11.437 0-20.7407-9.5466-20.7407-21.2857 0-9.3866 5.8607-17.5584 14.5896-20.3347zm5.7887 20.3888v-8c0-1.4747 1.192-2.6667 2.6667-2.6667s2.6667 1.192 2.6667 2.6667v10.6666c0 1.472-1.192 2.6667-2.6667 2.6667h-10.6667c-1.4746 0-2.6666-1.1947-2.6666-2.6667s1.192-2.6666 2.6666-2.6666z" fill="#6b7280" fill-rule="evenodd"/></svg>