<svg width="64" height="64" viewBox="0 0 64 64" fill="none" xmlns="http://www.w3.org/2000/svg">
<path fill-rule="evenodd" clip-rule="evenodd" d="M28.9804 8.3322C30.9671 7.88905 33.0327 7.88916 35.0194 8.3322C37.3724 8.85876 39.5091 10.2144 42.7304 12.1955L46.3671 14.4299C48.9071 15.9928 50.7278 17.0852 52.1054 18.4416L52.6679 19.0431C53.8824 20.4434 54.8018 22.0799 55.3632 23.8439C56.027 25.9341 55.9999 28.2149 55.9999 31.5939V35.8049C55.9999 38.8263 56.0014 41.2582 55.8398 43.2189C55.6752 45.2113 55.3282 46.9585 54.4999 48.5705C53.8465 49.8373 52.9993 50.9849 51.9999 51.9806V52.0002H51.9843C50.9671 53.0099 49.791 53.8607 48.496 54.5158C46.8775 55.332 45.1193 55.6777 43.1132 55.84C41.1373 55.9996 38.6877 56.0002 35.6366 56.0002H28.3632C25.3118 56.0002 22.8623 55.9997 20.8866 55.84C18.8803 55.6776 17.1228 55.3357 15.5038 54.5197C14.2093 53.8645 13.0357 53.0109 12.0194 52.0002H11.9999V51.9767C11.0031 50.9809 10.1562 49.8353 9.50381 48.5705C8.67592 46.9596 8.32448 45.2103 8.16006 43.2189C7.99846 41.258 7.9999 38.826 7.99991 35.8049V31.5939C7.99989 28.2114 7.97325 25.9371 8.63663 23.8439L8.86319 23.1877C9.43141 21.674 10.2687 20.2687 11.3319 19.0431L11.8944 18.4416C13.2727 17.0845 15.0954 15.9923 17.6327 14.4299L21.2694 12.1955C24.4912 10.2141 26.6273 8.85891 28.9804 8.3322ZM29.3319 34.6642C27.8603 34.6653 26.6683 35.8605 26.6679 37.3322V50.6564C27.2005 50.6575 27.7654 50.6642 28.3632 50.6642H35.6366C36.2348 50.6642 36.799 50.6575 37.3319 50.6564V37.3322C37.3315 35.8602 36.1398 34.6648 34.6679 34.6642H29.3319Z" fill="#141414"/>
</svg>
