<svg fill="none" height="64" viewBox="0 0 64 64" width="64" xmlns="http://www.w3.org/2000/svg"><path d="m28.9814 8.33444c1.9872-.44334 4.0489-.44329 6.0361 0h.0029c2.3541.52636 4.488 1.87916 7.711 3.86136l3.6357 2.2343c2.5413 1.5638 4.3584 2.6566 5.7364 4.0137l.5654.6016c1.2156 1.4012 2.1339 3.0362 2.6953 4.8017.6642 2.0906.6357 4.3672.6357 7.7471v4.2109c0 3.0226.0026 5.4529-.1591 7.4141-.1645 1.9931-.5123 3.7391-1.3409 5.3516l-.0029.0029c-1.3211 2.5618-3.4224 4.6414-6 5.9453l-.0029.0029c-1.6188.8165-3.3733 1.158-5.3799 1.3204-1.9767.1598-4.4264.1582-7.4795.1582h-7.2705c-3.0535 0-5.5029.0017-7.4795-.1582-2.007-.1625-3.7604-.504-5.3799-1.3204l-.0029-.0029c-2.5775-1.3039-4.6789-3.3835-6.00001-5.9453l-.00195-.0029c-.82888-1.612-1.17737-3.3586-1.3418-5.3516-.1617-1.9614-.1582-4.3917-.1582-7.4141v-4.208c0-3.3842-.02889-5.6561.63477-7.75l.22656-.6562c.56818-1.5145 1.40513-2.9194 2.46873-4.1455l.5654-.6016c1.3785-1.3572 3.1995-2.451 5.7374-4.0137l3.6347-2.2343c3.2228-1.982 5.3571-3.33487 7.711-3.86136zm-.0733 18.33396c-.3896-.0134-.7754.0788-1.1171.2666-.3418.1879-.6265.4644-.8243.8008-.1977.3364-.3016.7201-.2998 1.1104v11.6416c-.0017.3901.1021.774.2998 1.1103.1978.3361.4827.613.8243.8008.3416.1877.7277.28 1.1171.2666.3896-.0135.7687-.1319 1.0967-.3428l8.9981-5.8222c.3058-.1982.5572-.4698.7314-.7901.1742-.3204.2656-.6801.2656-1.0449s-.0915-.7245-.2656-1.0449c-.1741-.3202-.4257-.592-.7314-.7901l-8.9981-5.8193c-.328-.2109-.7071-.3293-1.0967-.3428z" fill="#000"/></svg>