<svg width="24" height="24" viewBox="0 0 24 24" fill="none" xmlns="http://www.w3.org/2000/svg">
<g id="Icon/Fill/home">
<path id="Mask" fill-rule="evenodd" clip-rule="evenodd" d="M12.7148 2.30059L20.4238 10.1846C20.7898 10.5606 20.9998 11.0846 20.9998 11.6236V19.9996C20.9998 21.1026 20.1528 21.9996 19.1118 21.9996H15.9998V12.9996C15.9998 12.4476 15.5528 11.9996 14.9998 11.9996H8.99982C8.44682 11.9996 7.99982 12.4476 7.99982 12.9996V21.9996H4.88882C3.84782 21.9996 2.99982 21.1026 2.99982 19.9996V11.6236C2.99982 11.0846 3.20982 10.5606 3.57482 10.1856L11.2848 2.30059C11.6618 1.91559 12.3378 1.91559 12.7148 2.30059ZM14 21H10V14H14V21Z" fill="#231F20"/>
<mask id="mask0" mask-type="alpha" maskUnits="userSpaceOnUse" x="2" y="2" width="19" height="20">
<path id="Mask_2" fill-rule="evenodd" clip-rule="evenodd" d="M12.7148 2.30059L20.4238 10.1846C20.7898 10.5606 20.9998 11.0846 20.9998 11.6236V19.9996C20.9998 21.1026 20.1528 21.9996 19.1118 21.9996H15.9998V12.9996C15.9998 12.4476 15.5528 11.9996 14.9998 11.9996H8.99982C8.44682 11.9996 7.99982 12.4476 7.99982 12.9996V21.9996H4.88882C3.84782 21.9996 2.99982 21.1026 2.99982 19.9996V11.6236C2.99982 11.0846 3.20982 10.5606 3.57482 10.1856L11.2848 2.30059C11.6618 1.91559 12.3378 1.91559 12.7148 2.30059ZM14 21H10V14H14V21Z" fill="white"/>
</mask>
<g mask="url(#mask0)">
<g id="&#240;&#159;&#142;&#168; Color">
<rect id="Base" width="24" height="24" fill="#0D1C2E"/>
</g>
</g>
</g>
</svg>
