<svg fill="none" height="64" viewBox="0 0 64 64" width="64" xmlns="http://www.w3.org/2000/svg"><path clip-rule="evenodd" d="m33.9062 6.13499 20.5573 21.02401c.976 1.0027 1.536 2.4 1.536 3.8373v22.336c0 2.9414-2.2587 5.3334-5.0347 5.3334h-8.2986v-24c0-1.472-1.192-2.6667-2.6667-2.6667h-16c-1.4747 0-2.6667 1.1947-2.6667 2.6667v24h-8.296c-2.776 0-5.03729-2.392-5.03729-5.3334v-22.336c0-1.4373.56-2.8346 1.53334-3.8346l20.55995-21.02671c1.0054-1.02667 2.808-1.02667 3.8134 0zm3.4272 49.86511h-10.6667v-18.6667h10.6667z" fill="#6b7280" fill-rule="evenodd"/></svg>