<svg fill="none" height="64" viewBox="0 0 64 64" width="64" xmlns="http://www.w3.org/2000/svg"><path d="m40.6436 8c2.1462 0 3.9195-.00012 5.3593.11719 1.5011.12266 2.8807.38547 4.1739 1.04394 2.0066 1.02257 3.6395 2.65547 4.6621 4.66207.6585 1.2933.9213 2.6734 1.0439 4.1719.1173 1.4452.1172 3.2158.1172 5.3594v17.2891c0 2.1462.0001 3.9195-.1172 5.3593-.1227 1.5011-.3855 2.8807-1.0439 4.1739-1.0226 2.0066-2.6555 3.6395-4.6621 4.6621-1.2933.6585-2.6734.9213-4.1719 1.0439-1.4425.1173-3.2158.1172-5.3594.1172h-17.291c-2.1462 0-3.9196.0001-5.3594-.1172-1.5013-.1227-2.8815-.3853-4.1748-1.0439-2.0067-1.0226-3.6385-2.6555-4.66112-4.6621-.65862-1.2933-.92226-2.6733-1.04492-4.1719-.11462-1.4451-.11426-3.2159-.11426-5.3594v-17.291c0-2.1462-.0001-3.9196.11719-5.3594.12266-1.5013.38533-2.8815 1.04394-4.1748 1.02257-2.0067 2.65547-3.6385 4.66207-4.66112 1.2933-.65862 2.6733-.92226 4.1719-1.04492 1.4451-.11461 3.218-.11426 5.3613-.11426zm-18.0059 26.667c-.8239.0001-1.6145.3266-2.1973.9062l-7.1074 7.0723c.0155.8067.0441 1.4973.0938 2.1094.1119 1.3543.3139 2.0517.5625 2.5342.5959 1.1637 1.5475 2.11 2.7168 2.7031.4848.2474 1.1825.4493 2.5468.5576 1.3984.1175 3.2068.1172 5.8692.1172h14.8779l-15.1641-15.0938c-.5826-.5797-1.3743-.906-2.1982-.9062zm16.0293-16c-3.6818 0-6.6668 2.9843-6.667 6.666 0 3.6819 2.9851 6.667 6.667 6.667 3.6817-.0002 6.666-2.9852 6.666-6.667-.0002-3.6816-2.9844-6.6658-6.666-6.666z" fill="#000"/></svg>