<svg fill="none" height="64" viewBox="0 0 64 64" width="64" xmlns="http://www.w3.org/2000/svg"><path d="m23.5713 24c1.9482.0001 3.7545.8444 5.2656 2.2695l.2988.292.0147.0137.0127.0146 7.0908 7.5225 2.0693-2.1963.0284-.0273c1.569-1.6017 3.4874-2.5605 5.5654-2.5606 2.0776.0003 3.9946.9592 5.5635 2.5606l.0283.0273 5.4795 5.8135h.0117v7.4853c0 5.8549-4.4997 10.7849-10.2686 10.7852h-27.4472c-5.7688-.0002-10.26858-4.9302-10.26858-10.7852v-6.9619l-.01562-.0156 10.9795-11.6475.0127-.0146.0137-.0137c1.5691-1.6018 3.4872-2.5615 5.5654-2.5615zm-14.0713 3c1.3807 0 2.5 1.1193 2.5 2.5s-1.1193 2.5-2.5 2.5c-1.38071 0-2.5-1.1193-2.5-2.5s1.11929-2.5 2.5-2.5zm43 0c1.3807 0 2.5 1.1193 2.5 2.5s-1.1193 2.5-2.5 2.5-2.5-1.1193-2.5-2.5 1.1193-2.5 2.5-2.5zm-14-12c3.0376 0 5.5 2.4624 5.5 5.5s-2.4624 5.5-5.5 5.5-5.5-2.4624-5.5-5.5 2.4624-5.5 5.5-5.5zm-29 4c1.3807 0 2.5 1.1193 2.5 2.5s-1.1193 2.5-2.5 2.5c-1.38071 0-2.5-1.1193-2.5-2.5s1.11929-2.5 2.5-2.5zm43 0c1.3807 0 2.5 1.1193 2.5 2.5s-1.1193 2.5-2.5 2.5-2.5-1.1193-2.5-2.5 1.1193-2.5 2.5-2.5zm-39-8c1.3807 0 2.5 1.1193 2.5 2.5s-1.1193 2.5-2.5 2.5-2.5-1.1193-2.5-2.5 1.1193-2.5 2.5-2.5zm37 0c1.3807 0 2.5 1.1193 2.5 2.5s-1.1193 2.5-2.5 2.5-2.5-1.1193-2.5-2.5 1.1193-2.5 2.5-2.5zm-29-4c1.3807 0 2.5 1.11929 2.5 2.5 0 1.3807-1.1193 2.5-2.5 2.5s-2.5-1.1193-2.5-2.5c0-1.38071 1.1193-2.5 2.5-2.5zm10 0c1.3807 0 2.5 1.11929 2.5 2.5 0 1.3807-1.1193 2.5-2.5 2.5s-2.5-1.1193-2.5-2.5c0-1.38071 1.1193-2.5 2.5-2.5zm10 0c1.3807 0 2.5 1.11929 2.5 2.5 0 1.3807-1.1193 2.5-2.5 2.5s-2.5-1.1193-2.5-2.5c0-1.38071 1.1193-2.5 2.5-2.5z" fill="#000"/></svg>