<svg width="24" height="24" viewBox="0 0 24 24" fill="none" xmlns="http://www.w3.org/2000/svg">
<g id="Icon/Fill/image">
<path id="Mask" fill-rule="evenodd" clip-rule="evenodd" d="M19 17.834C19 18.478 18.552 19 18 19H6L13.566 12.183C13.812 11.938 14.258 11.939 14.499 12.182L19 16.66V17.834ZM8 7C8.828 7 9.5 7.672 9.5 8.5C9.5 9.328 8.828 10 8 10C7.172 10 6.5 9.328 6.5 8.5C6.5 7.672 7.172 7 8 7ZM18 3H6C4.346 3 3 4.346 3 6V18C3 19.654 4.346 21 6 21H18C19.654 21 21 19.654 21 18V6C21 4.346 19.654 3 18 3Z" fill="#231F20"/>
<mask id="mask0" mask-type="alpha" maskUnits="userSpaceOnUse" x="3" y="3" width="18" height="18">
<path id="Mask_2" fill-rule="evenodd" clip-rule="evenodd" d="M19 17.834C19 18.478 18.552 19 18 19H6L13.566 12.183C13.812 11.938 14.258 11.939 14.499 12.182L19 16.66V17.834ZM8 7C8.828 7 9.5 7.672 9.5 8.5C9.5 9.328 8.828 10 8 10C7.172 10 6.5 9.328 6.5 8.5C6.5 7.672 7.172 7 8 7ZM18 3H6C4.346 3 3 4.346 3 6V18C3 19.654 4.346 21 6 21H18C19.654 21 21 19.654 21 18V6C21 4.346 19.654 3 18 3Z" fill="white"/>
</mask>
<g mask="url(#mask0)">
<g id="&#240;&#159;&#142;&#168; Color">
<rect id="Base" width="24" height="24" fill="#0D1C2E"/>
</g>
</g>
</g>
</svg>
