<svg fill="none" height="64" viewBox="0 0 64 64" width="64" xmlns="http://www.w3.org/2000/svg"><path clip-rule="evenodd" d="m22.2449 14.8074c.4506-.904 1.376-1.4746 2.3866-1.4746h14.7387c1.0107 0 1.9333.5706 2.384 1.4746l7.264 14.5254h-6.352c-1.472 0-2.6667 1.1946-2.6667 2.6666v5.3334c0 1.4746-1.1946 2.6666-2.6666 2.6666h-10.6667c-1.472 0-2.6667-1.192-2.6667-2.6666v-5.3334c0-1.472-1.1946-2.6666-2.6666-2.6666h-6.352zm33.1919 15.4372-8.912-17.824c-1.3626-2.72533-4.104-4.42133-7.1546-4.42133h-14.7414c-3.0506 0-5.7893 1.696-7.1546 4.42133l-8.91202 17.824c-.368.736-.56267 1.5627-.56267 2.3867v15.368c0 4.4133 3.58929 8 7.99999 8h32c4.4133 0 8-3.5867 8-8v-15.368c0-.824-.1947-1.6507-.5627-2.3867z" fill="#6b7280" fill-rule="evenodd"/></svg>