<svg fill="none" height="24" viewBox="0 0 24 24" width="24" xmlns="http://www.w3.org/2000/svg"><path clip-rule="evenodd" d="m8.3418 5.55282c.169-.339.516-.553.895-.553h5.527c.379 0 .725.214.894.553l2.724 5.44698h-2.382c-.552 0-1 .448-1 1v2c0 .553-.448 1-1 1h-4c-.552 0-1-.447-1-1v-2c0-.552-.448-1-1-1h-2.382zm12.447 5.78898-3.342-6.68404c-.511-1.022-1.539-1.658-2.683-1.658h-5.52801c-1.144 0-2.171.636-2.683 1.658l-3.342 6.68404c-.138.276-.211.586-.211.895v5.763c0 1.655 1.346 3 3 3h12.00001c1.655 0 3-1.345 3-3v-5.763c0-.309-.073-.619-.211-.895z" fill="#6b7280" fill-rule="evenodd"/></svg>