<svg width="24" height="24" viewBox="0 0 24 24" fill="none" xmlns="http://www.w3.org/2000/svg">
<g id="Icon/Fill/info">
<path id="Mask" fill-rule="evenodd" clip-rule="evenodd" d="M12 9C11.448 9 11 8.552 11 8C11 7.448 11.448 7 12 7C12.552 7 13 7.448 13 8C13 8.552 12.552 9 12 9ZM13 16C13 16.552 12.552 17 12 17C11.448 17 11 16.552 11 16V11C11 10.448 11.448 10 12 10C12.552 10 13 10.448 13 11V16ZM12 2C6.477 2 2 6.477 2 12C2 17.523 6.477 22 12 22C17.522 22 22 17.523 22 12C22 6.477 17.522 2 12 2Z" fill="#231F20"/>
<mask id="mask0" mask-type="alpha" maskUnits="userSpaceOnUse" x="2" y="2" width="20" height="20">
<path id="Mask_2" fill-rule="evenodd" clip-rule="evenodd" d="M12 9C11.448 9 11 8.552 11 8C11 7.448 11.448 7 12 7C12.552 7 13 7.448 13 8C13 8.552 12.552 9 12 9ZM13 16C13 16.552 12.552 17 12 17C11.448 17 11 16.552 11 16V11C11 10.448 11.448 10 12 10C12.552 10 13 10.448 13 11V16ZM12 2C6.477 2 2 6.477 2 12C2 17.523 6.477 22 12 22C17.522 22 22 17.523 22 12C22 6.477 17.522 2 12 2Z" fill="white"/>
</mask>
<g mask="url(#mask0)">
<g id="&#240;&#159;&#142;&#168; Color">
<rect id="Base" width="24" height="24" fill="#0D1C2E"/>
</g>
</g>
</g>
</svg>
