<svg viewBox="0 0 64 64" fill="none" xmlns="http://www.w3.org/2000/svg">
<path fill-rule="evenodd" clip-rule="evenodd" d="M12.1769 8.26245C13.1007 7.8185 14.1994 7.94254 14.9998 8.58276L41.6665 29.9161C42.299 30.4221 42.6664 31.1895 42.6665 31.9994C42.6665 32.8094 42.299 33.5767 41.6665 34.0828L14.9998 55.4161C14.1994 56.0565 13.1008 56.1805 12.1769 55.7364C11.2536 55.2922 10.6665 54.3575 10.6665 53.3328V10.6661C10.6666 9.64144 11.2536 8.70661 12.1769 8.26245Z M50.6665 10.6661C52.1391 10.6661 53.3329 11.8602 53.3332 13.3328V50.6661C53.3332 52.1389 52.1393 53.3328 50.6665 53.3328C49.1937 53.3328 47.9998 52.1389 47.9998 50.6661V13.3328C48.0001 11.8602 49.1939 10.6661 50.6665 10.6661Z" fill="#141414"/>
</svg>