<svg viewBox="0 0 64 64" fill="none" xmlns="http://www.w3.org/2000/svg">
<path fill-rule="evenodd" clip-rule="evenodd" d="M49.0001 8.58276C49.8005 7.94254 50.8992 7.8185 51.823 8.26245C52.7463 8.70661 53.3333 9.64144 53.3334 10.6661V53.3328C53.3334 54.3575 52.7464 55.2922 51.823 55.7364C50.8991 56.1805 49.8005 56.0565 49.0001 55.4161L22.3334 34.0828C21.7009 33.5767 21.3334 32.8094 21.3334 31.9994C21.3335 31.1895 21.7009 30.4221 22.3334 29.9161L49.0001 8.58276Z M13.3334 10.6661C14.806 10.6661 15.9998 11.8602 16.0001 13.3328V50.6661C16.0001 52.1389 14.8062 53.3328 13.3334 53.3328C11.8607 53.3328 10.6667 52.1389 10.6667 50.6661V13.3328C10.667 11.8602 11.8608 10.6661 13.3334 10.6661Z" fill="#141414"/>
</svg>