<svg fill="none" height="64" viewBox="0 0 64 64" width="64" xmlns="http://www.w3.org/2000/svg"><path clip-rule="evenodd" d="m13.3335 5.33325c-4.41067 0-8 3.58934-8 8.00005 0 4.4106 3.58933 8 8 8 4.4107 0 8-3.5894 8-8 0-4.41071-3.5893-8.00005-8-8.00005zm18.6666 0c-4.4106 0-8 3.58934-8 8.00005 0 4.4106 3.5894 8 8 8 4.4107 0 8-3.5894 8-8 0-4.41071-3.5893-8.00005-8-8.00005zm26.6668 8.00005c0 4.4106-3.5894 8-8 8-4.4107 0-8-3.5894-8-8 0-4.41071 3.5893-8.00005 8-8.00005 4.4106 0 8 3.58934 8 8.00005zm-45.3334 10.6664c-4.41067 0-8 3.5894-8 8 0 4.4107 3.58933 8 8 8 4.4107 0 8-3.5893 8-8 0-4.4106-3.5893-8-8-8zm10.6666 8c0-4.4106 3.5894-8 8-8 4.4107 0 8 3.5894 8 8 0 4.4107-3.5893 8-8 8-4.4106 0-8-3.5893-8-8zm26.6668-8c-4.4107 0-8 3.5894-8 8 0 4.4107 3.5893 8 8 8 4.4106 0 8-3.5893 8-8 0-4.4106-3.5894-8-8-8zm-45.3334 26.6671c0-4.4107 3.58933-8 8-8 4.4107 0 8 3.5893 8 8 0 4.4106-3.5893 8-8 8-4.41067 0-8-3.5894-8-8zm26.6666-8c-4.4106 0-8 3.5893-8 8 0 4.4106 3.5894 8 8 8 4.4107 0 8-3.5894 8-8 0-4.4107-3.5893-8-8-8zm10.6668 8c0-4.4107 3.5893-8 8-8 4.4106 0 8 3.5893 8 8 0 4.4106-3.5894 8-8 8-4.4107 0-8-3.5894-8-8z" fill="#6b7280" fill-rule="evenodd"/></svg>