<svg fill="none" height="24" viewBox="0 0 24 24" width="24" xmlns="http://www.w3.org/2000/svg"><path clip-rule="evenodd" d="m5.00003 2c-1.654 0-3 1.346-3 3s1.346 3 3 3 3-1.346 3-3-1.346-3-3-3zm6.99997 0c-1.654 0-2.99999 1.346-2.99999 3s1.34599 3 2.99999 3 3-1.346 3-3-1.346-3-3-3zm10 3c0 1.654-1.346 3-3 3s-3-1.346-3-3 1.346-3 3-3 3 1.346 3 3zm-16.99997 3.99993c-1.654 0-3 1.34597-3 2.99997s1.346 3 3 3 3-1.346 3-3-1.346-2.99997-3-2.99997zm3.99998 2.99997c0-1.654 1.34599-2.99997 2.99999-2.99997s3 1.34597 3 2.99997-1.346 3-3 3-2.99999-1.346-2.99999-3zm9.99999-2.99997c-1.654 0-3 1.34597-3 2.99997s1.346 3 3 3 3-1.346 3-3-1.346-2.99997-3-2.99997zm-16.99997 10.00017c0-1.654 1.346-3 3-3s3 1.346 3 3-1.346 3-3 3-3-1.346-3-3zm9.99997-3c-1.654 0-2.99999 1.346-2.99999 3s1.34599 3 2.99999 3 3-1.346 3-3-1.346-3-3-3zm4 3c0-1.654 1.346-3 3-3s3 1.346 3 3-1.346 3-3 3-3-1.346-3-3z" fill="#6b7280" fill-rule="evenodd"/></svg>