<svg viewBox="0 0 64 64" fill="none" xmlns="http://www.w3.org/2000/svg">
<path fill-rule="evenodd" clip-rule="evenodd" d="M42.2037 47.8403C41.9547 48.8703 41.8124 50.9257 41.7809 51.9887V56.0004C41.7799 59.3125 39.0931 61.9984 35.7809 61.9994H28.2223C24.9098 61.9988 22.2233 59.3127 22.2223 56.0004V52.3754C22.1956 51.1799 22.0348 48.9936 21.7457 47.8403H42.2037ZM27.0934 55.8012C27.0942 56.4631 27.6305 56.9993 28.2926 56.9994H35.7301C36.3919 56.999 36.9285 56.4629 36.9293 55.8012V52.0004H27.0934V55.8012Z M32.3278 2.00236C36.773 2.07022 41.0952 3.51446 44.7223 6.14299C48.3494 8.77211 51.1135 12.4652 52.6481 16.7319C54.1825 20.9986 54.4172 25.6428 53.32 30.0483C52.2226 34.4525 49.846 38.4145 46.5035 41.4106C45.5072 42.3503 44.6437 43.4245 43.9381 44.6H19.9996C19.192 43.2418 18.1851 42.0138 17.0114 40.9613C13.7568 37.8641 11.4953 33.8289 10.527 29.392C9.55932 24.9556 9.93144 20.3204 11.5895 16.103C13.248 11.8859 16.1183 8.28094 19.82 5.76408C23.522 3.24741 27.8827 1.93475 32.3278 2.00236ZM36.8903 19.9985C34.467 19.9985 34.4452 21.975 34.445 22.0092C34.4447 22.6712 34.1876 23.3065 33.7301 23.7748C33.2718 24.2433 32.6477 24.5091 31.9996 24.5092C31.3521 24.5087 30.7311 24.243 30.2731 23.7748C29.8152 23.3064 29.5585 22.6714 29.5582 22.0092C29.558 21.9752 29.5356 19.9989 27.1129 19.9985C24.6897 19.9985 24.6678 21.975 24.6676 22.0092C24.6741 23.5537 25.1485 25.0584 26.0231 26.3178C26.8982 27.5775 28.1334 28.5332 29.5582 29.0483V40.0004H34.445V29.0483C35.8696 28.5332 37.1051 27.5774 37.9801 26.3178C38.8544 25.0585 39.3291 23.5535 39.3356 22.0092C39.3354 21.9752 39.3133 19.9986 36.8903 19.9985Z" fill="#141414"/>
</svg>