<svg viewBox="0 0 64 64" fill="none" xmlns="http://www.w3.org/2000/svg">
<path fill-rule="evenodd" clip-rule="evenodd" d="M34.2631 14.0004C34.7003 14.0008 35.1317 14.107 35.519 14.31C35.9059 14.5129 36.2378 14.8064 36.4867 15.1655C36.7358 15.5248 36.8946 15.9396 36.9486 16.3735C37.0027 16.8073 36.9505 17.2482 36.7973 17.6576L35.0444 22.3334H37.7084C38.2761 22.3334 38.8333 22.488 39.3197 22.7807C39.8061 23.0733 40.2033 23.4931 40.4692 23.9946C40.735 24.4961 40.8592 25.0606 40.8285 25.6274C40.7977 26.1943 40.6131 26.7424 40.2944 27.2123L33.6283 37.9418C33.4223 38.2645 33.1384 38.5304 32.8031 38.7153C32.4679 38.9001 32.0913 38.9984 31.7084 39.0004C31.3672 38.9992 31.0303 38.9229 30.7211 38.7787C30.2159 38.5538 29.8097 38.1527 29.5795 37.6498C29.3494 37.147 29.3112 36.5776 29.4711 36.0483L31.0971 30.6664H27.2651C26.7771 30.667 26.2959 30.5533 25.8598 30.3344C25.4236 30.1154 25.0445 29.7974 24.7533 29.4057C24.4622 29.0139 24.2669 28.5593 24.183 28.0785C24.0992 27.5977 24.1295 27.1033 24.2709 26.6362L27.4203 16.2201C27.6123 15.576 28.0083 15.011 28.5483 14.6108C29.0884 14.2105 29.7442 13.9965 30.4164 14.0004H34.2631ZM30.4164 16.0834C30.1927 16.0832 29.975 16.1553 29.7953 16.2885C29.6157 16.4217 29.4832 16.6087 29.4184 16.8227L26.269 27.2397C26.2218 27.3953 26.2118 27.5599 26.2397 27.7201C26.2675 27.8803 26.3323 28.032 26.4291 28.1625C26.526 28.293 26.6521 28.399 26.7973 28.4721C26.9424 28.5451 27.1026 28.5834 27.2651 28.5834H32.4994C32.6621 28.5834 32.8229 28.6216 32.9682 28.6947C33.1134 28.7678 33.2395 28.8738 33.3363 29.0043C33.4332 29.1349 33.498 29.2865 33.5258 29.4467C33.5536 29.6069 33.5437 29.7715 33.4965 29.9272L31.4682 36.6371C31.4588 36.6618 31.4551 36.6889 31.4565 36.7153C31.4578 36.7414 31.4643 36.7671 31.476 36.7905C31.4878 36.8139 31.5046 36.8352 31.5248 36.852C31.545 36.8687 31.569 36.8809 31.5942 36.8881C31.6171 36.9028 31.6434 36.9132 31.6703 36.9174C31.6973 36.9216 31.725 36.9197 31.7514 36.9125C31.7778 36.9054 31.8024 36.8927 31.8236 36.8754C31.8447 36.8583 31.862 36.8371 31.8744 36.8129L38.5414 26.0834C38.658 25.9253 38.7272 25.7373 38.7416 25.5414C38.756 25.3455 38.7147 25.1494 38.6225 24.976C38.537 24.8071 38.406 24.6656 38.2445 24.5668C38.0831 24.4681 37.8976 24.4156 37.7084 24.4164H33.5414C33.3731 24.4165 33.2072 24.3763 33.058 24.2983C32.9088 24.2202 32.7809 24.1065 32.685 23.9682C32.5891 23.8299 32.528 23.6703 32.5072 23.5033C32.4865 23.3364 32.5068 23.1667 32.5658 23.0092L34.8471 16.9262C34.8821 16.8319 34.8938 16.7301 34.8813 16.6303C34.8687 16.5306 34.8319 16.4356 34.7748 16.353C34.7176 16.2703 34.6411 16.2026 34.5522 16.1557C34.4631 16.1088 34.3637 16.0838 34.2631 16.0834H30.4164Z M32.3276 2.00236C36.7728 2.07022 41.095 3.51451 44.7221 6.14299C48.3493 8.7721 51.1132 12.4652 52.6479 16.7319C54.1824 20.9987 54.417 25.6427 53.3197 30.0483C52.2224 34.4527 49.8459 38.4144 46.5033 41.4106C44.9715 42.8552 43.7551 44.6172 42.9408 46.5785C42.2286 48.2945 41.8358 50.1301 41.7807 51.9887V56.0004C41.7798 59.3126 39.0929 61.9993 35.7807 62.0004H28.2221C24.9095 61.9997 22.2229 59.3128 22.2221 56.0004V52.3754C22.1737 50.2079 21.6856 48.0703 20.7885 46.1059C19.8914 44.1423 18.6048 42.3903 17.0111 40.9613C13.7565 37.8641 11.495 33.829 10.5268 29.392C9.5591 24.9555 9.93111 20.3205 11.5893 16.103C13.2479 11.8859 16.118 8.28093 19.8197 5.76408C23.5217 3.24742 27.8825 1.93476 32.3276 2.00236ZM27.0932 55.8012C27.0939 56.4632 27.6303 57.0002 28.2924 57.0004H35.7299C36.3917 56.9999 36.9284 56.463 36.9291 55.8012V52.0004H27.0932V55.8012ZM32.1518 6.99846C29.3858 6.97348 26.6522 7.63776 24.1908 8.92815C21.7307 10.2183 19.613 12.0987 18.019 14.4086C16.4244 16.7197 15.4019 19.3939 15.0385 22.1977C14.6715 24.9654 14.9594 27.7827 15.8822 30.4115C16.8053 33.0404 18.3344 35.405 20.3393 37.3022C23.1525 39.9239 25.221 43.2763 26.3236 47.0014H37.6713C38.6074 43.3932 40.5569 40.144 43.2768 37.6537C45.3569 35.7898 46.9638 33.4363 47.9604 30.7983C48.9568 28.1601 49.3142 25.3121 48.9994 22.5024C48.6844 19.693 47.7058 17.0017 46.1518 14.6625C44.5975 12.3238 42.5117 10.4032 40.0736 9.06877C37.6355 7.73467 34.917 7.02365 32.1518 6.99846Z M30.4164 16.0834C30.1927 16.0832 29.975 16.1553 29.7953 16.2885C29.6157 16.4217 29.4832 16.6087 29.4184 16.8227L26.269 27.2397C26.2218 27.3953 26.2118 27.5599 26.2397 27.7201C26.2675 27.8803 26.3323 28.032 26.4291 28.1625C26.526 28.293 26.6521 28.399 26.7973 28.4721C26.9424 28.5451 27.1026 28.5834 27.2651 28.5834H32.4994C32.6621 28.5834 32.8229 28.6216 32.9682 28.6947C33.1134 28.7678 33.2395 28.8738 33.3363 29.0043C33.4332 29.1349 33.498 29.2865 33.5258 29.4467C33.5536 29.6069 33.5437 29.7715 33.4965 29.9272L31.4682 36.6371C31.4588 36.6618 31.4551 36.6889 31.4565 36.7153C31.4578 36.7414 31.4643 36.7671 31.476 36.7905C31.4878 36.8139 31.5046 36.8352 31.5248 36.852C31.545 36.8687 31.569 36.8809 31.5942 36.8881C31.6171 36.9028 31.6434 36.9132 31.6703 36.9174C31.6973 36.9216 31.725 36.9197 31.7514 36.9125C31.7778 36.9054 31.8024 36.8927 31.8236 36.8754C31.8447 36.8583 31.862 36.8371 31.8744 36.8129L38.5414 26.0834C38.658 25.9253 38.7272 25.7373 38.7416 25.5414C38.756 25.3455 38.7147 25.1494 38.6225 24.976C38.537 24.8071 38.406 24.6656 38.2445 24.5668C38.0831 24.4681 37.8976 24.4156 37.7084 24.4164H33.5414C33.3731 24.4165 33.2072 24.3763 33.058 24.2983C32.9088 24.2202 32.7809 24.1065 32.685 23.9682C32.5891 23.8299 32.528 23.6703 32.5072 23.5033C32.4865 23.3364 32.5068 23.1667 32.5658 23.0092L34.8471 16.9262C34.8821 16.8319 34.8938 16.7301 34.8813 16.6303C34.8687 16.5306 34.8319 16.4356 34.7748 16.353C34.7176 16.2703 34.6411 16.2026 34.5522 16.1557C34.4631 16.1088 34.3637 16.0838 34.2631 16.0834H30.4164Z" fill="#141414"/>
</svg>