<svg viewBox="0 0 64 64" fill="none" xmlns="http://www.w3.org/2000/svg">
<path fill-rule="evenodd" clip-rule="evenodd" d="M23.5502 14.9323C23.5502 14.2299 23.5472 13.5417 23.5942 12.9636C23.6437 12.3542 23.761 11.6349 24.1273 10.9115C24.6354 9.90816 25.4463 9.09206 26.4434 8.58077C27.1623 8.2122 27.8771 8.09417 28.4827 8.04431C28.7704 8.02066 29.0865 8.01063 29.4169 8.00525L30.4391 8.00004L51.111 8.00004C51.809 8.00004 52.4929 7.99708 53.0675 8.04431C53.673 8.09417 54.3879 8.2122 55.1067 8.58077C56.1038 9.09206 56.9148 9.90816 57.4229 10.9115C57.7891 11.6349 57.9064 12.3542 57.956 12.9636C58.0029 13.5417 58 14.23 58 14.9323V49.0677C58 49.7701 58.0029 50.4583 57.956 51.0364C57.9064 51.6458 57.7891 52.3651 57.4229 53.0885C56.9148 54.0918 56.1038 54.9079 55.1067 55.4192C54.3879 55.7878 53.673 55.9058 53.0675 55.9557C52.4929 56.0029 51.809 56 51.111 56H30.4391C29.7411 56 29.0572 56.0029 28.4827 55.9557C27.8771 55.9058 27.1623 55.7878 26.4434 55.4192C25.5709 54.9718 24.8409 54.291 24.3317 53.4557L24.1273 53.0885L23.8969 52.5468C23.7075 52.0113 23.6313 51.4932 23.5942 51.0364C23.5472 50.4583 23.5502 49.7701 23.5502 49.0677L23.5502 14.9323Z M9.95088 51.9896C9.22476 53.2683 7.60632 53.7124 6.33561 52.9817C5.0649 52.251 4.62351 50.6224 5.34963 49.3437L14.446 33.3229C14.9116 32.5031 14.9116 31.4969 14.446 30.6771L5.34963 14.6563C4.62351 13.3776 5.0649 11.749 6.33561 11.0183C7.60633 10.2876 9.22476 10.7317 9.95088 12.0105L19.0473 28.0313C20.4439 30.4907 20.4439 33.5093 19.0473 35.9687L9.95088 51.9896Z" fill="#141414"/>
</svg>