<svg fill="none" height="24" viewBox="0 0 24 24" width="24" xmlns="http://www.w3.org/2000/svg"><path clip-rule="evenodd" d="m3.24069 7.287 8.52101 4.636c.147.08.329.08.477 0l8.521-4.636c.343-.187.313-.665-.052-.812l-8.52-3.439c-.12-.048-.256-.048-.376 0l-8.52001 3.439c-.364.147-.394.625-.051.812zm17.46731 3.3693-1.83-.78-6.639 3.612c-.148.08-.33.08-.478 0l-6.63901-3.612-1.83.78c-.365.155-.395.661-.051.858l8.52001 4.897c.148.085.33.085.478 0l8.52-4.897c.344-.197.314-.703-.051-.858zm-1.557 3.7662 1.557.674c.365.158.395.671.051.871l-8.52 4.968c-.148.086-.33.086-.478 0l-8.52001-4.968c-.344-.2-.314-.713.051-.871l1.557-.674 6.91201 3.761c.148.08.33.08.478 0z" fill="#6b7280" fill-rule="evenodd"/></svg>