<svg fill="none" height="64" viewBox="0 0 64 64" width="64" xmlns="http://www.w3.org/2000/svg"><path clip-rule="evenodd" d="m8.64297 19.4322 22.72263 12.3627c.392.2133.8774.2133 1.272 0l22.7227-12.3627c.9147-.4986.8347-1.7733-.1387-2.1653l-22.72-9.17066c-.32-.128-.6826-.128-1.0026 0l-22.72003 9.17066c-.97066.392-1.05067 1.6667-.136 2.1653zm46.57833 8.9848-4.88-2.08-17.7041 9.632c-.3946.2134-.88.2134-1.2746 0l-17.704-9.632-4.88002 2.08c-.97333.4134-1.05333 1.7627-.136 2.288l22.72002 13.0587c.3946.2267.88.2267 1.2746 0l22.7201-13.0587c.9173-.5253.8373-1.8746-.136-2.288zm-4.1521 10.0432 4.1521 1.7974c.9733.4213 1.0533 1.7893.136 2.3226l-22.7201 13.2481c-.3946.2293-.88.2293-1.2746 0l-22.72002-13.2481c-.91733-.5333-.83733-1.9013.136-2.3226l4.15202-1.7974 18.432 10.0294c.3946.2133.88.2133 1.2746 0z" fill="#6b7280" fill-rule="evenodd"/></svg>