<svg width="24" height="24" viewBox="0 0 24 24" fill="none" xmlns="http://www.w3.org/2000/svg">
<g id="Icon/Fill/layout">
<path id="Mask" fill-rule="evenodd" clip-rule="evenodd" d="M21 8V6C21 4.346 19.654 3 18 3H6C4.346 3 3 4.346 3 6V8H21ZM3 10V18C3 19.654 4.346 21 6 21H11V10H3ZM13 21V10H21V18C21 19.654 19.654 21 18 21H13Z" fill="#231F20"/>
<mask id="mask0" mask-type="alpha" maskUnits="userSpaceOnUse" x="3" y="3" width="18" height="18">
<path id="Mask_2" fill-rule="evenodd" clip-rule="evenodd" d="M21 8V6C21 4.346 19.654 3 18 3H6C4.346 3 3 4.346 3 6V8H21ZM3 10V18C3 19.654 4.346 21 6 21H11V10H3ZM13 21V10H21V18C21 19.654 19.654 21 18 21H13Z" fill="white"/>
</mask>
<g mask="url(#mask0)">
<g id="&#240;&#159;&#142;&#168; Color">
<rect id="Base" width="24" height="24" fill="#0D1C2E"/>
</g>
</g>
</g>
</svg>
