<svg viewBox="0 0 64 64" fill="none" xmlns="http://www.w3.org/2000/svg">
<path fill-rule="evenodd" clip-rule="evenodd" d="M43.9999 8C47.0363 8 49.8578 8.90346 52.1978 10.4531L31.9999 30.4583L25.0676 23.6589C24.0408 22.652 22.3966 22.652 21.3697 23.6589C20.3144 24.694 20.3144 26.3945 21.3697 27.4297L31.9999 37.8568L56.1952 14.3958C57.7549 16.6818 58.6666 19.4302 58.6666 22.388C58.6659 33.2985 45.5672 43.8732 41.9166 47.2135C39.1611 49.7332 35.7576 52.7219 33.7395 54.4844C32.7416 55.3558 31.2582 55.3558 30.2603 54.4844C28.2422 52.7219 24.8388 49.7332 22.0833 47.2135C18.4327 43.8732 5.33389 33.2985 5.33325 22.388C5.33325 14.441 11.8986 8 19.9999 8C27.6834 8 31.9596 13.4149 31.9999 13.4661C32.0402 13.4149 36.3164 8 43.9999 8Z" fill="#141414"/>
</svg>