<svg width="64" height="64" viewBox="0 0 64 64" fill="none" xmlns="http://www.w3.org/2000/svg">
<path fill-rule="evenodd" clip-rule="evenodd" d="M27.7818 7.50769C28.1776 6.5925 29.0794 6 30.0765 6C32.5811 6 34.9688 7.02325 36.7183 8.82138C38.4655 10.6172 39.4353 13.0385 39.4353 15.5493V22.4488H49.8628C50.8933 22.4392 51.9115 22.6589 52.847 23.0904C53.7871 23.5241 54.6185 24.16 55.2865 24.9496C55.9544 25.739 56.4436 26.6637 56.7246 27.6582C57.0054 28.6525 57.0723 29.6963 56.9214 30.7184L53.7664 51.8665L53.7661 51.8687C53.515 53.5669 52.6736 55.129 51.3786 56.2604C50.0853 57.3903 48.4274 58.0122 46.7076 57.9962H19.5V29.1356H15.5V57.9962H14.0726C12.1743 57.9962 10.3681 57.2205 9.04738 55.863C7.72892 54.5079 7 52.6843 7 50.7967V34.3479C7 32.4603 7.72892 30.6367 9.04738 29.2816C10.3681 27.9241 12.1743 27.1484 14.0726 27.1484H15.2208L19.5 27.1392L27.7818 7.50769Z" fill="#6B7280"/>
</svg>
