<svg width="24" height="24" viewBox="0 0 24 24" fill="none" xmlns="http://www.w3.org/2000/svg">
<g id="Icon/Fill/linkedin">
<path id="Mask" fill-rule="evenodd" clip-rule="evenodd" d="M3.00003 5.25C3.00003 4.008 4.00803 3 5.25003 3C6.49203 3 7.50003 4.008 7.50003 5.25C7.50003 6.492 6.49203 7.5 5.25003 7.5C4.00803 7.5 3.00003 6.492 3.00003 5.25ZM15.1504 8.4004C11.9194 8.4004 9.29943 11.0044 9.29943 14.2144V20.0994C9.29943 20.5964 9.70343 21.0004 10.2004 21.0004H12.2994C12.7964 21.0004 13.2004 20.5964 13.2004 20.0994V14.2144C13.2004 13.0784 14.1844 12.1704 15.3524 12.2874C16.3664 12.3884 17.0994 13.3154 17.0994 14.3344V20.0994C17.0994 20.5964 17.5034 21.0004 18.0004 21.0004H20.0994C20.5964 21.0004 21.0004 20.5964 21.0004 20.0994V14.2144C21.0004 11.0044 18.3804 8.4004 15.1504 8.4004ZM6.59963 9.2998H3.90063C3.40363 9.2998 2.99963 9.7028 2.99963 10.1998V20.0998C2.99963 20.5968 3.40363 20.9998 3.90063 20.9998H6.59963C7.09663 20.9998 7.49963 20.5968 7.49963 20.0998V10.1998C7.49963 9.7028 7.09663 9.2998 6.59963 9.2998Z" fill="#231F20"/>
<mask id="mask0" mask-type="alpha" maskUnits="userSpaceOnUse" x="2" y="3" width="20" height="19">
<path id="Mask_2" fill-rule="evenodd" clip-rule="evenodd" d="M3.00003 5.25C3.00003 4.008 4.00803 3 5.25003 3C6.49203 3 7.50003 4.008 7.50003 5.25C7.50003 6.492 6.49203 7.5 5.25003 7.5C4.00803 7.5 3.00003 6.492 3.00003 5.25ZM15.1504 8.4004C11.9194 8.4004 9.29943 11.0044 9.29943 14.2144V20.0994C9.29943 20.5964 9.70343 21.0004 10.2004 21.0004H12.2994C12.7964 21.0004 13.2004 20.5964 13.2004 20.0994V14.2144C13.2004 13.0784 14.1844 12.1704 15.3524 12.2874C16.3664 12.3884 17.0994 13.3154 17.0994 14.3344V20.0994C17.0994 20.5964 17.5034 21.0004 18.0004 21.0004H20.0994C20.5964 21.0004 21.0004 20.5964 21.0004 20.0994V14.2144C21.0004 11.0044 18.3804 8.4004 15.1504 8.4004ZM6.59963 9.2998H3.90063C3.40363 9.2998 2.99963 9.7028 2.99963 10.1998V20.0998C2.99963 20.5968 3.40363 20.9998 3.90063 20.9998H6.59963C7.09663 20.9998 7.49963 20.5968 7.49963 20.0998V10.1998C7.49963 9.7028 7.09663 9.2998 6.59963 9.2998Z" fill="white"/>
</mask>
<g mask="url(#mask0)">
<g id="&#240;&#159;&#142;&#168; Color">
<rect id="Base" width="24" height="24" fill="#0D1C2E"/>
</g>
</g>
</g>
</svg>
