<svg fill="none" height="24" viewBox="0 0 24 24" width="24" xmlns="http://www.w3.org/2000/svg"><path clip-rule="evenodd" d="m3.00003 5.25c0-1.242 1.008-2.25 2.25-2.25s2.25 1.008 2.25 2.25-1.008 2.25-2.25 2.25-2.25-1.008-2.25-2.25zm12.15037 3.15033c-3.231 0-5.85098 2.60397-5.85098 5.81397v5.885c0 .497.404.901.90098.901h2.099c.497 0 .901-.404.901-.901v-5.885c0-1.136.984-2.044 2.152-1.927 1.014.101 1.747 1.028 1.747 2.047v5.765c0 .497.404.901.901.901h2.099c.497 0 .901-.404.901-.901v-5.885c0-3.21-2.62-5.81397-5.85-5.81397zm-8.55077.8995h-2.699c-.497 0-.901.403-.901.89997v9.9c0 .497.404.9.901.9h2.699c.497 0 .9-.403.9-.9v-9.9c0-.49697-.403-.89997-.9-.89997z" fill="#6b7280" fill-rule="evenodd"/></svg>