<svg fill="none" height="24" viewBox="0 0 24 24" width="24" xmlns="http://www.w3.org/2000/svg"><path clip-rule="evenodd" d="m11.5271 3.89973c2.182-2.187 5.703-2.582 8.135-.68 2.913 2.278 3.104 6.523.573 9.05997l-1.423 1.425c-.393.394-1.029.394-1.422 0-.393-.393-.393-1.032 0-1.425l1.422-1.426c1.655-1.65697 1.565-4.41197-.272-5.94997-1.627-1.363-4.069-1.103-5.568.399l-1.273 1.275c-.392.394-1.03.394-1.422 0-.39296-.393-.39696-1.028.177-1.603zm1.7659 5.39323-3.99996 4.00004c-.391.391-.391 1.023 0 1.414.195.195.451.293.70696.293.256 0 .512-.098.707-.293l4-4c.391-.391.391-1.02304 0-1.41404s-1.023-.391-1.414 0zm-1.0127 8.10364-1.274 1.271c-1.50097 1.497-3.94797 1.755-5.57597.398-1.839-1.532-1.93-4.278-.273-5.931l1.425-1.42c.393-.392.393-1.028 0-1.421-.393-.39101-1.031-.39101-1.425 0l-1.275 1.273c-2.172 2.166-2.553 5.65-.675 8.074 2.271 2.933 6.531 3.131 9.07297.597l1.425-1.42c.393-.393.393-1.028 0-1.421-.394-.393-1.031-.393-1.425 0z" fill="#6b7280" fill-rule="evenodd"/></svg>