<svg fill="none" height="64" viewBox="0 0 64 64" width="64" xmlns="http://www.w3.org/2000/svg"><path clip-rule="evenodd" d="m8.00116 14c0-3.312 2.68804-6 6.00004-6s6 2.688 6 6-2.688 6-6 6-6.00004-2.688-6.00004-6zm32.39994 8.4009c-8.616 0-15.6027 6.944-15.6027 15.504v15.6933c0 1.3254 1.0774 2.4027 2.4027 2.4027h5.5973c1.3254 0 2.4027-1.0773 2.4027-2.4027v-15.6933c0-3.0293 2.624-5.4507 5.7387-5.1387 2.704.2694 4.6586 2.7414 4.6586 5.4587v15.3733c0 1.3254 1.0774 2.4027 2.4027 2.4027h5.5973c1.3254 0 2.4027-1.0773 2.4027-2.4027v-15.6933c0-8.56-6.9867-15.504-15.6-15.504zm-22.8021 2.3986h-7.1973c-1.32534 0-2.40268 1.0747-2.40268 2.4v26.4001c0 1.3253 1.07734 2.4 2.40268 2.4h7.1973c1.3254 0 2.4-1.0747 2.4-2.4v-26.4001c0-1.3253-1.0746-2.4-2.4-2.4z" fill="#6b7280" fill-rule="evenodd"/></svg>