<svg fill="none" height="64" viewBox="0 0 64 64" width="64" xmlns="http://www.w3.org/2000/svg"><path clip-rule="evenodd" d="m24.0002 42.6667h-4.7734c-5.616 0-10.68264-4.0934-11.18131-9.6907-.568-6.32 4.41601-11.6427 10.62131-11.6427h5.3334c1.472 0 2.6666-1.192 2.6666-2.6666 0-1.4747-1.1946-2.6667-2.6666-2.6667h-4.776c-8.1307 0-15.38671 5.832-16.42137 13.896-1.25067 9.7547 6.34933 18.104 15.86397 18.104h5.3334c1.472 0 2.6666-1.192 2.6666-2.6667 0-1.4746-1.1946-2.6666-2.6666-2.6666zm-2.6668-10.6665c0 1.4746 1.1947 2.6666 2.6667 2.6666h16c1.472 0 2.6667-1.192 2.6667-2.6666 0-1.4747-1.1947-2.6667-2.6667-2.6667h-16c-1.472 0-2.6667 1.192-2.6667 2.6667zm23.3578-15.9984c8.1786 0 15.5173 5.8586 16.5173 13.9786 1.1973 9.7227-6.3867 18.0214-15.8747 18.0214h-5.3333c-1.472 0-2.6667-1.192-2.6667-2.6667s1.1947-2.6667 2.6667-2.6667h5.3333c6.2054 0 11.1894-5.3226 10.6214-11.6426-.4987-5.5974-5.5654-9.6907-11.184-9.6907h-4.7707c-1.472 0-2.6667-1.192-2.6667-2.6667 0-1.4746 1.1814-2.6666 3.3307-2.6666z" fill="#6b7280" fill-rule="evenodd"/></svg>