<svg fill="none" height="64" viewBox="0 0 64 64" width="64" xmlns="http://www.w3.org/2000/svg"><path d="m22.8115 23.9942c1.7575-.6641 3.636-.9376 5.5078-.8018 1.8715.1358 3.6928.6773 5.3379 1.5879 1.6454.9107 3.0779 2.1691 4.1992 3.6875.7674 1.04.552 2.5098-.4814 3.2822-1.0338.7724-2.4945.555-3.2627-.4844-.7234-.9795-1.6461-1.7887-2.7031-2.374-1.0571-.585-2.2251-.9333-3.4248-1.0205-1.1999-.0869-2.4053.0885-3.5332.5147-1.1279.4261-2.1529 1.0945-3.0059 1.9589l-6.4287 6.5118c-1.525 1.6067-2.3717 3.758-2.3525 5.9941.0194 2.2421.9075 4.3843 2.4677 5.9648 1.56 1.58 3.6674 2.474 5.8662 2.4932 2.1925.0193 4.3085-.8323 5.8936-2.376l3.6572-3.7051c.9074-.9192 2.3841-.9242 3.2979-.0117.9135.9131.919 2.3982.0117 3.3174l-3.6729 3.7207-.0283.0283c-2.4638 2.4108-5.768 3.748-9.2002 3.7178-3.432-.0303-6.7126-1.4254-9.1347-3.8789-2.42137-2.4529-3.79151-5.7684-3.82132-9.2305-.02964-3.4619 1.28319-6.8007 3.66212-9.2959l.0283-.0293 6.4434-6.5263c1.3242-1.3418 2.9193-2.3808 4.6767-3.0449zm-1.8115 13.0058c3.3137 0 6 2.6863 6 6s-2.6863 6-6 6-6-2.6863-6-6 2.6863-6 6-6zm22.043-28.99901c3.432.03034 6.7126 1.4245 9.1347 3.87791 2.4214 2.453 3.7924 5.7686 3.8223 9.2305.0297 3.4619-1.2842 6.8007-3.6631 9.2959l-.0283.0293-6.4424 6.5273c-1.3242 1.3416-2.9194 2.381-4.6767 3.0449-1.7575.6642-3.637.9374-5.5088.8018-1.8718-.1359-3.6927-.6783-5.3379-1.5889-1.6453-.9105-3.077-2.1683-4.1983-3.6865-.7679-1.0401-.5524-2.5097.4815-3.2822 1.034-.7725 2.4947-.5557 3.2627.4844.7234.9793 1.6452 1.7888 2.7021 2.374 1.0571.5849 2.226.9324 3.4258 1.0195 1.1998.0868 2.4045-.0885 3.5322-.5146 1.1279-.4262 2.154-1.0936 3.0069-1.958l6.4287-6.5118c1.525-1.6065 2.3706-3.7584 2.3515-5.9941-.0192-2.2421-.9076-4.3841-2.4677-5.9648-1.5598-1.5801-3.6664-2.4736-5.8653-2.4932-2.1936-.0193-4.3109.8326-5.8965 2.3779l-3.6816 3.708c-.9101.9162-2.3869.9169-3.2978.002-.9113-.9156-.9122-2.4017-.002-3.3184l3.6943-3.7197.0245-.0244c2.4638-2.41058 5.7672-3.74692 9.1992-3.71681zm-.043 6.99901c3.3137 0 6 2.6863 6 6s-2.6863 6-6 6-6-2.6863-6-6 2.6863-6 6-6z" fill="#000"/></svg>