<svg fill="none" height="64" viewBox="0 0 64 64" width="64" xmlns="http://www.w3.org/2000/svg"><path clip-rule="evenodd" d="m7.99992 10.6665h18.66668c1.4667 0 2.6667 1.2 2.6667 2.6667 0 1.4666-1.2 2.6666-2.6667 2.6666h-18.66668c-1.46667 0-2.66667-1.2-2.66667-2.6666 0-1.4667 1.2-2.6667 2.66667-2.6667zm0 18.6667h18.66668c1.4667 0 2.6667 1.2 2.6667 2.6666 0 1.4667-1.2 2.6667-2.6667 2.6667h-18.66668c-1.46667 0-2.66667-1.2-2.66667-2.6667 0-1.4666 1.2-2.6666 2.66667-2.6666zm18.66668 18.6666h-18.66668c-1.46667 0-2.66667 1.2-2.66667 2.6667s1.2 2.6667 2.66667 2.6667h18.66668c1.4667 0 2.6667-1.2 2.6667-2.6667s-1.2-2.6667-2.6667-2.6667zm24.0006-3.6169 3.4801-3.36c1.0613-1.0213 2.7493-.992 3.7706.0667 1.024 1.0613.9947 2.7493-.064 3.7707l-8 7.7253c-.52.496-1.1866.7466-1.8533.7466-.6827 0-1.3653-.2586-1.8854-.7813l-7.9999-8c-1.0427-1.04-1.0427-2.728 0-3.7706 1.04-1.0401 2.728-1.0401 3.7706 0l3.448 3.4479v-24.6106l-3.48 3.3573c-1.0587 1.024-2.7466.992-3.7706-.0667-1.024-1.0586-.9947-2.7466.064-3.7706l8-7.7254c1.0506-1.0026 2.7119-.9973 3.7386.0347l8 8c1.04 1.0427 1.04 2.7307 0 3.7707-.52.5226-1.2026.7813-1.8853.7813s-1.3653-.2587-1.8854-.7813l-3.448-3.448z" fill="#6b7280" fill-rule="evenodd"/></svg>