<svg fill="none" height="64" viewBox="0 0 64 64" width="64" xmlns="http://www.w3.org/2000/svg"><path clip-rule="evenodd" d="m8 18.6667c0-1.472 1.19467-2.6667 2.6667-2.6667 1.472 0 2.6666 1.1947 2.6666 2.6667s-1.1946 2.6666-2.6666 2.6666c-1.47203 0-2.6667-1.1946-2.6667-2.6666zm0 13.3335c0-1.472 1.19467-2.6667 2.6667-2.6667 1.472 0 2.6666 1.1947 2.6666 2.6667s-1.1946 2.6666-2.6666 2.6666c-1.47203 0-2.6667-1.1946-2.6667-2.6666zm2.6667 10.6663c-1.47203 0-2.6667 1.1947-2.6667 2.6667s1.19467 2.6666 2.6667 2.6666c1.472 0 2.6666-1.1946 2.6666-2.6666s-1.1946-2.6667-2.6666-2.6667zm10.4946-13.333h32.344c1.3734 0 2.496 1.1227 2.496 2.496v.3413c0 1.3734-1.1226 2.496-2.496 2.496h-32.344c-1.3733 0-2.4933-1.1226-2.4933-2.496v-.3413c0-1.3733 1.12-2.496 2.4933-2.496zm32.344 13.333h-32.344c-1.3733 0-2.4933 1.1227-2.4933 2.496v.3413c0 1.3734 1.12 2.496 2.4933 2.496h32.344c1.3734 0 2.496-1.1226 2.496-2.496v-.3413c0-1.3733-1.1226-2.496-2.496-2.496zm-32.344-26.6665h32.344c1.3734 0 2.496 1.1227 2.496 2.496v.3413c0 1.3734-1.1226 2.496-2.496 2.496h-32.344c-1.3733 0-2.4933-1.1226-2.4933-2.496v-.3413c0-1.3733 1.12-2.496 2.4933-2.496z" fill="#6b7280" fill-rule="evenodd"/></svg>