<svg fill="none" height="64" viewBox="0 0 64 64" width="64" xmlns="http://www.w3.org/2000/svg"><path clip-rule="evenodd" d="m26.6666 10.6665h-18.66668c-1.46667 0-2.66667 1.2-2.66667 2.6667 0 1.4666 1.2 2.6666 2.66667 2.6666h18.66668c1.4667 0 2.6667-1.2 2.6667-2.6666 0-1.4667-1.2-2.6667-2.6667-2.6667zm0 18.6667h-18.66668c-1.46667 0-2.66667 1.2-2.66667 2.6666 0 1.4667 1.2 2.6667 2.66667 2.6667h18.66668c1.4667 0 2.6667-1.2 2.6667-2.6667 0-1.4666-1.2-2.6666-2.6667-2.6666zm-18.66668 18.6666h18.66668c1.4667 0 2.6667 1.2 2.6667 2.6667s-1.2 2.6667-2.6667 2.6667h-18.66668c-1.46667 0-2.66667-1.2-2.66667-2.6667s1.2-2.6667 2.66667-2.6667zm42.66738-27.6184 3.4799-3.36c1.0614-1.0213 2.7494-.992 3.7707.0667 1.024 1.0613.9947 2.7493-.064 3.7706l-8 7.7254c-.52.496-1.1866.7466-1.8533.7466-.6827 0-1.3653-.2586-1.8854-.7813l-7.9999-8c-1.0427-1.04-1.0427-2.728 0-3.7707 1.04-1.04 2.728-1.04 3.7706 0l3.4476 3.4477c-.0001-.675-.0002-2.4906-.0002-6.8932 0 0 0-2.6667 2.6666-2.6667 2.6674 0 2.6674 2.6667 2.6674 2.6667zm-8.8141 26.5943 3.48-3.36v7.0482s0 2.6667 2.6674 2.6667c2.6666 0 2.6666-2.6667 2.6666-2.6667 0-4.4026-.0001-6.2183-.0003-6.8932l3.4477 3.4476c1.0426 1.04 2.7306 1.04 3.7706 0 1.0427-1.0426 1.0427-2.7306 0-3.7706l-8-8c-.52-.5227-1.2026-.7814-1.8853-.7814-.6667 0-1.3333.2507-1.8533.7467l-8 7.7253c-1.0587 1.0214-1.088 2.7094-.064 3.7707 1.0213 1.0587 2.7093 1.088 3.7706.0667z" fill="#6b7280" fill-rule="evenodd"/></svg>