<svg viewBox="0 0 64 64" fill="none" xmlns="http://www.w3.org/2000/svg">
<path fill-rule="evenodd" clip-rule="evenodd" d="M11.0939 36.1951C11.0939 38.1881 11.5409 39.7182 12.1251 40.6438C12.8911 41.8562 14.0336 42.3697 15.1983 42.3697C16.7006 42.3697 18.0749 42.005 20.7234 38.4204C22.219 36.395 23.9026 33.7934 25.3552 31.549L25.3553 31.5488C25.9634 30.6091 26.5311 29.732 27.0275 28.9859L29.2952 25.5762C28.1881 24.0332 27.2356 22.8589 26.5508 22.1469C25.1802 20.7222 23.4183 19.0015 20.6066 19.0015C20.5888 19.0015 20.5711 19.0016 20.5533 19.0018C20.2873 19.0047 20.0259 19.0289 19.7692 19.0733C17.8527 19.4051 16.1962 20.8631 14.7811 22.9546C12.4942 26.3323 11.0939 31.3636 11.0939 36.1951ZM5.33325 35.9936C5.33325 39.063 5.95272 41.7563 7.2139 43.8091C8.75886 46.3284 11.2534 47.9999 15.1983 47.9999C18.5237 47.9999 21.0498 46.5388 24.0081 42.6837C25.6958 40.4823 26.5508 39.1481 29.9263 33.2911L31.6067 30.378C31.7456 30.1371 31.8832 29.8986 32.0194 29.6626C32.1543 29.8789 32.29 30.0988 32.4266 30.3217L37.2097 38.1408C38.8178 40.7725 40.908 43.7002 42.6959 45.3482C45.0216 47.4954 47.1247 47.9999 49.4987 47.9999C49.7376 47.9999 49.9702 47.9923 50.1967 47.9774C51.8928 47.8656 53.2561 47.3494 54.3325 46.6303C55.4139 45.9078 56.2051 44.9801 56.7525 44.0523C57.9579 42.0105 58.6666 39.4259 58.6666 35.9083C58.6666 29.9915 57.1531 24.2578 54.0353 19.7058C51.1865 15.5494 47.4642 13.3333 43.5564 13.3333C41.2288 13.3333 38.9159 14.3497 36.772 16.1792C35.3229 17.416 33.9761 18.9772 32.7272 20.628C31.1904 18.724 29.7612 17.2729 28.3759 16.1665C25.7478 14.0665 23.231 13.3333 20.6993 13.3333C20.6993 13.3333 20.6994 13.3333 20.6993 13.3333C20.0163 13.3333 19.3469 13.4013 18.6936 13.5312C15.1653 14.2331 12.1038 16.7418 9.87537 20.1032C6.8986 24.5954 5.33325 30.4126 5.33325 35.9936ZM38.137 28.4742C37.1598 26.8811 36.2321 25.4482 35.3444 24.1593C35.5026 23.9196 35.6598 23.6855 35.8167 23.4574C38.3076 19.8328 40.5239 17.8 43.2782 17.8C45.8246 17.8 48.1394 19.448 49.9254 22.1451C52.4421 25.9477 53.5847 31.2692 53.5847 36.0645C53.5847 38.5883 53.1256 40.873 51.5167 41.8578C50.9802 42.1861 50.3164 42.3697 49.4987 42.3697C48.2099 42.3697 47.2176 41.8688 45.8005 40.1881C44.6988 38.8796 42.8164 36.1044 39.5076 30.7102L38.137 28.4742Z" fill="#141414"/>
</svg>