<svg fill="none" height="24" viewBox="0 0 24 24" width="24" xmlns="http://www.w3.org/2000/svg"><path clip-rule="evenodd" d="m11 3c0-.553.448-1 1-1s1 .447 1 1v2c0 .553-.448 1-1 1s-1-.447-1-1zm8 8h2c.552 0 1 .447 1 1s-.448 1-1 1h-2c-.552 0-1-.447-1-1s.448-1 1-1zm-12.99997 1c0-.553-.448-1-1-1h-2c-.552 0-1 .447-1 1s.448 1 1 1h2c.552 0 1-.447 1-1zm-1.19329-6.9467c.385-.396 1.017-.409 1.414-.025l1.439 1.39c.397.383.408 1.017.024 1.414-.196.203-.457.305-.719.305-.25 0-.5-.092-.695-.28l-1.439-1.39c-.397-.383-.408-1.017-.024-1.414zm12.22846 3.0844c.25 0 .5-.093.695-.28l1.439-1.39c.397-.384.408-1.018.024-1.414-.383-.396-1.015-.409-1.414-.025l-1.439 1.389c-.397.384-.408 1.018-.024 1.414.196.203.457.306.719.306zm-6.0352 10.8622c0-.553.448-1 1-1s1 .447 1 1v2c0 .553-.448 1-1 1s-1-.447-1-1zm6.73-2.8573c-.397-.383-1.03-.371-1.414.025-.384.397-.373 1.031.024 1.414l1.439 1.39c.195.188.445.28.695.28.262 0 .523-.102.719-.305.384-.397.373-1.031-.024-1.414zm-12.89895 1.39 1.439-1.39c.398-.383 1.031-.371 1.414.025.384.397.373 1.031-.024 1.414l-1.439 1.39c-.195.188-.445.28-.695.28-.262 0-.523-.102-.719-.305-.384-.397-.373-1.031.024-1.414z" fill="#6b7280" fill-rule="evenodd"/></svg>