<svg fill="none" height="64" viewBox="0 0 64 64" width="64" xmlns="http://www.w3.org/2000/svg"><path clip-rule="evenodd" d="m29.3335 8.00016c0-1.47466 1.1947-2.66666 2.6667-2.66666s2.6666 1.192 2.6666 2.66666v5.33334c0 1.4747-1.1946 2.6667-2.6666 2.6667s-2.6667-1.192-2.6667-2.6667zm21.3333 21.33334h5.3333c1.472 0 2.6667 1.192 2.6667 2.6667 0 1.4746-1.1947 2.6666-2.6667 2.6666h-5.3333c-1.472 0-2.6667-1.192-2.6667-2.6666 0-1.4747 1.1947-2.6667 2.6667-2.6667zm-34.6666 2.6667c0-1.4747-1.1947-2.6667-2.6667-2.6667h-5.33334c-1.472 0-2.66666 1.192-2.66666 2.6667 0 1.4746 1.19466 2.6666 2.66666 2.6666h5.33334c1.472 0 2.6667-1.192 2.6667-2.6666zm-3.1821-18.5246c1.0266-1.056 2.712-1.0906 3.7706-.0666l3.8374 3.7066c1.0586 1.0214 1.088 2.712.064 3.7707-.5227.5413-1.2187.8133-1.9174.8133-.6666 0-1.3333-.2453-1.8533-.7466l-3.8373-3.7067c-1.0587-1.0213-1.088-2.712-.064-3.7707zm32.6093 8.2251c.6667 0 1.3333-.248 1.8533-.7467l3.8374-3.7066c1.0586-1.024 1.088-2.7147.064-3.7707-1.0214-1.056-2.7067-1.0907-3.7707-.0667l-3.8373 3.704c-1.0587 1.024-1.088 2.7147-.064 3.7707.5226.5413 1.2186.816 1.9173.816zm-16.0939 28.966c0-1.4747 1.1947-2.6667 2.6667-2.6667s2.6666 1.192 2.6666 2.6667v5.3333c0 1.4747-1.1946 2.6667-2.6666 2.6667s-2.6667-1.192-2.6667-2.6667zm17.9467-7.6196c-1.0587-1.0213-2.7467-.9893-3.7707.0667-1.024 1.0586-.9946 2.7493.064 3.7706l3.8374 3.7067c.52.5013 1.1866.7467 1.8533.7467.6987 0 1.3947-.272 1.9173-.8134 1.024-1.0586.9947-2.7493-.064-3.7706zm-34.3973 3.7067 3.8373-3.7067c1.0613-1.0213 2.7493-.9893 3.7707.0667 1.024 1.0586.9946 2.7493-.064 3.7706l-3.8374 3.7067c-.52.5013-1.1866.7467-1.8533.7467-.6987 0-1.3947-.272-1.9173-.8134-1.024-1.0586-.9947-2.7493.064-3.7706z" fill="#6b7280" fill-rule="evenodd"/></svg>