<svg fill="none" height="64" viewBox="0 0 64 64" width="64" xmlns="http://www.w3.org/2000/svg"><path clip-rule="evenodd" d="m31.9998 37.3335c-1.472 0-2.6667 1.1947-2.6667 2.6667s1.1947 2.6666 2.6667 2.6666 2.6667-1.1946 2.6667-2.6666-1.1947-2.6667-2.6667-2.6667zm.0001 10.6665c-4.4107 0-8-3.5893-8-8s3.5893-8 8-8c4.4106 0 8 3.5893 8 8s-3.5894 8-8 8zm-5.3334-31.7037c0-3.104 2.392-5.6293 5.3333-5.6293 2.9414 0 5.3334 2.5253 5.3334 5.6293v5.0374h-10.6667zm18.6667 5.0372h-2.6667v-5.0373c0-6.0427-4.784-10.9627-10.6667-10.9627-5.8826 0-10.6666 4.92-10.6666 10.9627v5.0373h-2.6667c-4.4107 0-8 3.5893-8 8v21.3333c0 4.4107 3.5893 8 8 8h26.6667c4.4106 0 8-3.5893 8-8v-21.3333c0-4.4107-3.5894-8-8-8z" fill="#6b7280" fill-rule="evenodd"/></svg>