<svg fill="none" height="24" viewBox="0 0 24 24" width="24" xmlns="http://www.w3.org/2000/svg"><path clip-rule="evenodd" d="m12 14c-.552 0-1 .448-1 1s.448 1 1 1 1-.448 1-1-.448-1-1-1zm0 3.9999c-1.654 0-3.00001-1.346-3.00001-3s1.34601-3 3.00001-3 3 1.346 3 3-1.346 3-3 3zm-2.00003-11.88884c0-1.164.89703-2.11099 2.00003-2.11099s2 .94699 2 2.11099v1.889h-4.00003zm7.00003 1.88894h-1v-1.889c0-2.266-1.794-4.111-4-4.111-2.20603 0-4.00003 1.845-4.00003 4.111v1.889h-1c-1.654 0-3 1.346-3 3v8c0 1.654 1.346 3 3 3h10.00003c1.654 0 3-1.346 3-3v-8c0-1.654-1.346-3-3-3z" fill="#6b7280" fill-rule="evenodd"/></svg>