<svg fill="none" height="24" viewBox="0 0 24 24" width="24" xmlns="http://www.w3.org/2000/svg"><path clip-rule="evenodd" d="m7.99998 5c0 .55-.45 1-1 1h-1v12h1c.55 0 1 .45 1 1s-.45 1-1 1h-2c-.55 0-1-.45-1-1v-14c0-.55.45-1 1-1h2c.55 0 1 .45 1 1zm10.00382 2.42477 2.814 4.00003c.25.354.242.829-.018 1.175l-3 4c-.1959.262-.497.4-.801.4-.208 0-.4189-.065-.599-.2-.4419-.331-.531-.958-.2-1.399l1.801-2.401h-.001-7.99995c-.552 0-1-.447-1-1s.448-1 1-1h7.99995c.0166 0 .0319.0045.0473.0091.0126.0038.0253.0075.0387.0089l-1.7179-2.44303c-.3181-.451-.2091-1.075.243-1.393.4509-.319 1.0749-.209 1.3929.243z" fill="#6b7280" fill-rule="evenodd"/></svg>