<svg fill="none" height="64" viewBox="0 0 64 64" width="64" xmlns="http://www.w3.org/2000/svg"><path clip-rule="evenodd" d="m45.3334 10.6665h5.3333c1.4667 0 2.6667 1.2 2.6667 2.6667v37.3333c0 1.4667-1.2 2.6667-2.6667 2.6667h-5.3333c-1.4667 0-2.6667-1.2-2.6667-2.6667s1.2-2.6667 2.6667-2.6667h2.6666v-32h-2.6666c-1.4667 0-2.6667-1.2-2.6667-2.6666 0-1.4667 1.2-2.6667 2.6667-2.6667zm-17.6006 8.5345c1.184-.8827 2.8507-.6427 3.7334.5333l8 10.6667c.6933.9227.7146 2.1867.048 3.1333l-7.504 10.6667c-.52.7387-1.344 1.1333-2.184 1.1333-.528 0-1.064-.1573-1.5307-.4853-1.2053-.848-1.496-2.512-.648-3.7173l4.5813-6.512c-.0359.0035-.0696.0136-.1032.0236-.0412.0122-.082.0244-.1261.0244h-21.3333c-1.47202 0-2.66669-1.1947-2.66669-2.6667 0-1.4747 1.19467-2.6667 2.66669-2.6667h21.3333.0027l-4.8027-6.4026c-.8827-1.176-.6453-2.848.5333-3.7307z" fill="#6b7280" fill-rule="evenodd"/></svg>