<svg fill="none" height="64" viewBox="0 0 64 64" width="64" xmlns="http://www.w3.org/2000/svg"><path clip-rule="evenodd" d="m21.3332 13.3332c0 1.4666-1.2 2.6666-2.6667 2.6666h-2.6667v32h2.6667c1.4667 0 2.6667 1.2 2.6667 2.6667s-1.2 2.6667-2.6667 2.6667h-5.3333c-1.4667 0-2.6667-1.2-2.6667-2.6667v-37.3333c0-1.4667 1.2-2.6667 2.6667-2.6667h5.3333c1.4667 0 2.6667 1.2 2.6667 2.6667zm26.677 6.466 7.504 10.6667c.6666.944.6453 2.2106-.048 3.1333l-8 10.6667c-.5227.6986-1.3254 1.0666-2.136 1.0666-.5547 0-1.1174-.1733-1.5974-.5333-1.1787-.8827-1.416-2.5547-.5333-3.7307l4.8027-6.4026h-.0027-21.3334c-1.472 0-2.6666-1.192-2.6666-2.6667s1.1946-2.6667 2.6666-2.6667h21.3334c.0441 0 .0849.0122.1261.0244.0335.01.0673.0201.1032.0236l-4.5813-6.5146c-.848-1.2027-.5574-2.8667.648-3.7147 1.2026-.8506 2.8667-.5573 3.7147.648z" fill="#6b7280" fill-rule="evenodd"/></svg>