<svg fill="none" height="64" viewBox="0 0 64 64" width="64" xmlns="http://www.w3.org/2000/svg"><path d="m21.8789 38.8789c1.1716-1.1712 3.0708-1.1715 4.2422 0 1.1711 1.1715 1.1711 3.0707 0 4.2422l-13 13c-1.1714 1.1715-3.0706 1.1712-4.24218 0-1.17157-1.1716-1.17157-3.0706 0-4.2422zm16.6211-3.3789c1.1043.0004 2 .8957 2 2v5.5c0 1.1043-.8957 1.9996-2 2-1.1045 0-2-.8955-2-2v-5.5c.0001-1.1045.8955-2 2-2zm-11.041-20.0361c.7798-.7819 2.046-.7844 2.8281-.0049l.0352.0342.0019.0029.4151.3955c2.1207 1.9205 4.8858 2.9912 7.7607 2.9912 3.0662-.0002 6.0076-1.2184 8.1758-3.3867l.0322-.0322.1514-.1377c.7844-.6418 1.9434-.5981 2.6768.1328.7818.7796.784 2.0459.0048 2.8281l-.0341.0352-.002.0019c-4.4444 4.4451-4.5142 11.6078-.209 16.1377l.209.2139.0039.0049.0342.0341c.778.7835.7741 2.0497-.0088 2.8282-.7344.7297-1.8933.7717-2.6768.1289l-.1513-.1377-.0352-.0342v-.001c-4.5165-4.5086-11.8322-4.5061-16.3467.0059l-.0341.0342-.1524.1367c-.7854.6406-1.9445.5952-2.6767-.1367-.7811-.7811-.7811-2.0481 0-2.8291l.0351-.0342c4.5135-4.5147 4.5141-11.8339.002-16.3496l-.0342-.0342-.1377-.1514c-.6422-.7845-.5982-1.9432.1328-2.6767zm.041 9.0361c1.1043.0004 2 .8957 2 2s-.8957 1.9996-2 2h-5.5c-1.1046 0-2-.8954-2-2s.8954-2 2-2zm27.5 0c1.1043.0004 2 .8957 2 2s-.8957 1.9996-2 2h-5.5c-1.1045 0-2-.8954-2-2s.8955-2 2-2zm-16.5-16.5c1.1043.00037 2 .89566 2 2v5.5c0 1.1043-.8957 1.9996-2 2-1.1045 0-2-.8955-2-2v-5.5c0-1.10455.8955-1.99996 2-2z" fill="#000"/></svg>