<svg viewBox="0 0 64 64" fill="none" xmlns="http://www.w3.org/2000/svg">
<path fill-rule="evenodd" clip-rule="evenodd" d="M54.0002 17.5V21.25C54.0002 22.2869 53.1621 23.125 52.1252 23.125C51.0883 23.125 50.2502 22.2869 50.2502 21.25V17.5C50.2502 15.4319 48.5683 13.75 46.5002 13.75H42.7502C41.7133 13.75 40.8752 12.9119 40.8752 11.875C40.8752 10.8381 41.7133 10 42.7502 10H46.5002C50.6365 10 54.0002 13.3637 54.0002 17.5ZM52.1252 32.5C51.0883 32.5 50.2502 33.3381 50.2502 34.375V38.125C50.2502 40.1931 48.5683 41.875 46.5002 41.875H42.7502C41.7133 41.875 40.8752 42.7131 40.8752 43.75C40.8752 44.7869 41.7133 45.625 42.7502 45.625H46.5002C50.6365 45.625 54.0002 42.2612 54.0002 38.125V34.375C54.0002 33.3381 53.1621 32.5 52.1252 32.5ZM20.2502 23.125C21.2871 23.125 22.1252 22.2869 22.1252 21.25V17.5C22.1252 15.4319 23.8071 13.75 25.8752 13.75H29.6252C30.6621 13.75 31.5002 12.9119 31.5002 11.875C31.5002 10.8381 30.6621 10 29.6252 10H25.8752C21.739 10 18.3752 13.3637 18.3752 17.5V21.25C18.3752 22.2869 19.2133 23.125 20.2502 23.125ZM44.464 33.985C44.7677 33.3306 44.6309 32.5544 44.1208 32.0425L40.4721 28.3938L42.8046 23.4775C43.1027 22.825 42.964 22.0544 42.4558 21.5463C41.9477 21.0381 41.1771 20.8994 40.5246 21.1975L35.6083 23.53L31.9596 19.8813C31.4496 19.3713 30.6752 19.2344 30.0209 19.5363C29.3665 19.8381 28.9708 20.5169 29.029 21.2369L29.5671 26.4813L24.754 29.005C24.1071 29.3425 23.7434 30.0513 23.8465 30.775C23.9008 31.1519 24.0752 31.4894 24.3321 31.7463C24.5683 31.9825 24.8721 32.1494 25.2134 32.2169L28.4796 32.8638L9.5496 51.7994C8.81647 52.5325 8.81647 53.7175 9.5496 54.4506C9.91522 54.8162 10.3952 55 10.8752 55C11.3552 55 11.8352 54.8162 12.2008 54.4506L31.174 35.4775L31.8827 38.8375C32.0346 39.55 32.6196 40.0919 33.3452 40.1875C34.0709 40.2812 34.7758 39.9081 35.104 39.2537L37.5377 34.4388L42.7577 34.9713C43.4777 35.0331 44.1602 34.6394 44.464 33.985Z" fill="#141414"/>
</svg>