<svg viewBox="0 0 64 64" fill="none" xmlns="http://www.w3.org/2000/svg">
<path fill-rule="evenodd" clip-rule="evenodd" d="M37.9089 2.677C40.9827 2.6768 44.0272 3.2822 46.8672 4.45825C49.7068 5.6343 52.2874 7.35809 54.4609 9.53117C58.851 13.9206 61.3171 19.8752 61.3177 26.0833C61.3179 32.291 58.8527 38.2453 54.4635 42.6353L37.4922 59.6145C36.3897 60.7164 34.8921 61.3358 33.3333 61.3359C31.7744 61.3358 30.277 60.7166 29.1745 59.6145L23.0521 53.4921C21.9503 52.39 21.3314 50.8942 21.3307 49.3359C21.3307 47.777 21.9501 46.2796 23.0521 45.177L39.1302 29.0989C39.4073 28.8217 39.6285 28.4921 39.7786 28.1301C39.9288 27.7677 40.005 27.3765 40.0052 26.9843C40.0051 26.5924 39.9285 26.2032 39.7786 25.8411C39.6286 25.4788 39.4073 25.1497 39.1302 24.8723C38.8526 24.5947 38.5216 24.3741 38.1589 24.2239C37.7963 24.0738 37.4081 23.9947 37.0156 23.9947C36.6233 23.9948 36.2349 24.0738 35.8724 24.2239C35.5099 24.3741 35.1785 24.5948 34.901 24.8723L18.8229 40.9478C17.7204 42.0497 16.2255 42.6691 14.6667 42.6692C13.1077 42.6691 11.6104 42.05 10.5078 40.9478L4.38542 34.8254C3.28367 33.7233 2.66469 32.2275 2.66406 30.6692C2.66406 29.1103 3.28347 27.6129 4.38542 26.5103L21.3568 9.53377C25.7462 5.14385 31.7009 2.67765 37.9089 2.677ZM26.8229 48.9478C26.7212 49.0502 26.6641 49.1915 26.6641 49.3359C26.6647 49.4797 26.7214 49.6194 26.8229 49.7213L32.9479 55.8437C33.0503 55.9458 33.1887 56.0024 33.3333 56.0025C33.4776 56.0025 33.6164 55.9454 33.7188 55.8437L39 50.5L32 43.7708L26.8229 48.9478ZM8.15885 30.2812C8.05711 30.3836 7.9974 30.5248 7.9974 30.6692C7.99801 30.813 8.0547 30.9527 8.15625 31.0546L14.2812 37.177C14.3836 37.2791 14.522 37.3358 14.6667 37.3359C14.811 37.3358 14.9498 37.2787 15.0521 37.177L20.2292 31.9999L13.3333 25.1041L8.15885 30.2812Z" fill="#141414"/>
</svg>