<svg viewBox="0 0 64 64" fill="none" xmlns="http://www.w3.org/2000/svg">
<path fill-rule="evenodd" clip-rule="evenodd" d="M32 38.1371C28.5946 38.1371 25.8633 35.3703 25.8633 32.0005C25.8633 28.5952 28.5946 25.8638 32 25.8638C35.3698 25.8638 38.1366 28.5952 38.1366 32.0005C38.1366 35.3703 35.3698 38.1371 32 38.1371Z M19.5555 5.33325H44.4444C52.2991 5.33325 58.6666 11.7008 58.6666 19.5555V44.4444C58.6666 52.2991 52.2991 58.6666 44.4444 58.6666H19.5555C11.7008 58.6666 5.33325 52.2991 5.33325 44.4444V19.5555C5.33325 11.7008 11.7008 5.33325 19.5555 5.33325ZM52.1481 32.0005C52.1481 20.8977 43.1027 11.8523 32 11.8523C20.8972 11.8523 11.8518 20.8977 11.8518 32.0005C11.8518 43.1032 20.8972 52.1486 32 52.1486C38.8106 52.1486 43.351 48.6369 43.351 48.6369L40.6906 45.5863C40.6906 45.5863 37.1434 48.1403 32 48.1403C23.0965 48.1403 15.8602 40.904 15.8602 32.0005C15.8602 23.097 23.0965 15.8607 32 15.8607C40.9034 15.8607 48.1397 23.097 48.1397 32.0005C48.1397 36.6119 46.6499 38.1371 44.8408 38.1371C43.3156 38.1371 42.145 36.9666 42.145 35.2994V32.0005C42.145 26.3959 37.6045 21.8555 32 21.8555C26.3954 21.8555 21.8549 26.3959 21.8549 32.0005C21.8549 37.6051 26.3954 42.1455 32 42.1455C34.8377 42.1455 37.3917 40.975 39.2363 39.0949C40.4068 40.9395 42.4642 42.181 44.8408 42.181C48.9201 42.181 52.1481 38.9175 52.1481 32.0005Z" fill="#141414"/>
</svg>