<svg viewBox="0 0 64 64" fill="none" xmlns="http://www.w3.org/2000/svg">
<path fill-rule="evenodd" clip-rule="evenodd" d="M48 24C48 28.9974 45.7063 33.4565 42.1172 36.3906C44.5457 37.2641 46.765 38.4455 48.6849 39.8854C53.0506 43.1597 56 47.8875 56 53.3333C56 54.8061 54.8061 56 53.3333 56C51.8606 56 32 56 32 56C32 56 12.1394 56 10.6667 56C9.19391 56 8 54.8061 8 53.3333C8 47.8875 10.9494 43.1597 15.3151 39.8854C17.2344 38.446 19.4526 37.2641 21.8802 36.3906C18.292 33.4565 16 28.9967 16 24C16 15.1634 23.1634 8 32 8C40.8366 8 48 15.1634 48 24Z" fill="#141414"/>
</svg>