<svg fill="none" height="24" viewBox="0 0 24 24" width="24" xmlns="http://www.w3.org/2000/svg"><path clip-rule="evenodd" d="m19 17.4541-2-.898v-10.00996l2 .898zm-10-10.90796 2 .898v10.00996l-2-.898zm11.41-.66006-4-1.798c-.015-.007-.031-.008-.046-.014-.041-.016-.082-.027-.124-.038-.039-.01-.078-.019-.118-.023-.039-.005-.078-.006-.118-.006-.044 0-.087.001-.131.006-.037.004-.072.013-.108.022-.044.011-.087.023-.13.039-.014.006-.031.007-.045.014l-3.59 1.613-3.59-1.613c-.015-.007-.031-.008-.046-.014-.041-.016-.082-.027-.124-.038-.039-.01-.078-.019-.118-.023-.039-.005-.078-.006-.118-.006-.044 0-.087.001-.131.006-.037.004-.072.013-.108.022-.044.011-.087.023-.13.039-.014.006-.031.007-.045.014l-4 1.798c-.359.161-.59.518-.59.912v12.20202c0 .339.172.655.457.84.164.106.353.16.543.16.139 0 .279-.029.41-.088l3.59-1.613 3.59 1.613c.015.007.031.004.047.01.117.047.238.078.363.078s.246-.031.363-.078c.015-.006.033-.003.047-.01l3.59-1.613 3.59 1.613c.131.059.271.088.41.088.19 0 .379-.054.543-.16.285-.185.457-.501.457-.84v-12.20202c0-.394-.231-.751-.59-.912z" fill="#6b7280" fill-rule="evenodd"/></svg>