<svg viewBox="0 0 64 64" fill="none" xmlns="http://www.w3.org/2000/svg">
<path fill-rule="evenodd" clip-rule="evenodd" d="M52.4044 5C55.677 5 58.33 7.65296 58.33 10.9256V52.4044C58.33 55.4728 55.9976 57.9952 53.0092 58.2982L10.9256 58.33L10.3208 58.2982C7.53124 58.0154 5.31465 55.7988 5.03183 53.0092L5 52.4044V10.9256C5 7.65296 7.65296 5 10.9256 5H52.4044ZM21.2316 37.3359C20.3524 36.1196 18.6763 35.7414 17.3488 36.5084C16.0221 37.2764 15.5122 38.9185 16.1278 40.2871L16.2667 40.5562L16.8743 41.5313C17.5132 42.4872 18.2555 43.3928 19.0963 44.2337C19.9372 45.0745 20.8428 45.8168 21.7987 46.4557L22.7738 47.0633C24.1898 47.8815 26.0023 47.3966 26.8216 45.9812C27.6399 44.5648 27.1558 42.7494 25.7394 41.9306C24.8654 41.4251 24.0391 40.7972 23.2859 40.0441C22.7208 39.4789 22.224 38.8724 21.7987 38.2358L21.3994 37.5906L21.2316 37.3359ZM45.9812 36.5084C44.6536 35.7418 42.9773 36.1194 42.0984 37.3359L41.9306 37.5906L41.5313 38.2358C41.1059 38.8726 40.6094 39.4788 40.0441 40.0441C39.2907 40.7974 38.4648 41.425 37.5906 41.9306C36.1746 42.7494 35.6906 44.5649 36.5084 45.9812C37.2765 47.3081 38.9184 47.8181 40.2871 47.2022L40.5562 47.0633C41.874 46.3014 43.1115 45.3558 44.2337 44.2337C45.0747 43.3926 45.8167 42.4874 46.4557 41.5313L47.0633 40.5562L47.2022 40.2871C47.8181 38.9183 47.3082 37.2765 45.9812 36.5084ZM26.8216 17.3488C26.0534 16.0221 24.4116 15.5118 23.0429 16.1278L22.7738 16.2667C21.4565 17.0283 20.2181 17.9719 19.0963 19.0934C18.2553 19.9345 17.5133 20.8425 16.8743 21.7987L16.2667 22.7738L16.1278 23.0429C15.5118 24.4115 16.0221 26.0533 17.3488 26.8216C18.6765 27.5888 20.3525 27.2109 21.2316 25.9941L21.3994 25.7394L21.7987 25.0942C22.2241 24.4575 22.7206 23.8512 23.2859 23.2859C23.8512 22.7206 24.4574 22.2241 25.0942 21.7987L25.7394 21.3994C27.1558 20.5806 27.64 18.7653 26.8216 17.3488ZM40.5562 16.2667C39.1402 15.4488 37.3275 15.9335 36.5084 17.3488C35.7414 18.6763 36.1196 20.3524 37.3359 21.2316L37.5906 21.3994C38.4646 21.9049 39.2909 22.5328 40.0441 23.2859C40.6092 23.851 41.106 24.4577 41.5313 25.0942L41.9306 25.7394L42.0984 25.9941C42.9774 27.2109 44.6535 27.5886 45.9812 26.8216C47.3084 26.0535 47.8183 24.4118 47.2022 23.0429L47.0633 22.7738L46.4557 21.7987C45.8167 20.8427 45.0746 19.9344 44.2337 19.0934C43.3932 18.2532 42.4867 17.5128 41.5313 16.8743L40.5562 16.2667Z" fill="#141414"/>
</svg>