<svg fill="none" height="64" viewBox="0 0 64 64" width="64" xmlns="http://www.w3.org/2000/svg"><path clip-rule="evenodd" d="m10.4956 16h43.0106c1.3734 0 2.496 1.1227 2.496 2.496v.3413c0 1.3734-1.1226 2.496-2.496 2.496h-43.0106c-1.37338 0-2.49338-1.1226-2.49338-2.496v-.3413c0-1.3733 1.12-2.496 2.49338-2.496zm2.8377 16.0002c0 1.4746-1.1946 2.6666-2.6666 2.6666-1.47203 0-2.6667-1.192-2.6667-2.6666 0-1.4747 1.19467-2.6667 2.6667-2.6667 1.472 0 2.6666 1.192 2.6666 2.6667zm7.828-2.6667h32.344c1.3734 0 2.496 1.1227 2.496 2.496v.3413c0 1.3734-1.1226 2.496-2.496 2.496h-32.344c-1.3733 0-2.4933-1.1226-2.4933-2.496v-.3413c0-1.3733 1.12-2.496 2.4933-2.496zm32.3449 13.333h-43.0106c-1.37338 0-2.49338 1.1227-2.49338 2.496v.3413c0 1.3734 1.12 2.496 2.49338 2.496h43.0106c1.3734 0 2.496-1.1226 2.496-2.496v-.3413c0-1.3733-1.1226-2.496-2.496-2.496z" fill="#6b7280" fill-rule="evenodd"/></svg>