<svg fill="none" height="24" viewBox="0 0 24 24" width="24" xmlns="http://www.w3.org/2000/svg"><path clip-rule="evenodd" d="m3.94831 6h16.10299c.522 0 .949.427.949.949v.102c0 .522-.427.949-.949.949h-16.10299c-.522 0-.948-.427-.948-.949v-.102c0-.522.426-.949.948-.949zm16.10299 5.0001h-16.10299c-.522 0-.948.427-.948.949v.102c0 .522.426.949.948.949h16.10299c.522 0 .949-.427.949-.949v-.102c0-.522-.427-.949-.949-.949zm0 4.9998h-16.10299c-.522 0-.948.427-.948.949v.102c0 .522.426.949.948.949h16.10299c.522 0 .949-.427.949-.949v-.102c0-.522-.427-.949-.949-.949z" fill="#6b7280" fill-rule="evenodd"/></svg>