<svg fill="none" height="64" viewBox="0 0 64 64" width="64" xmlns="http://www.w3.org/2000/svg"><path clip-rule="evenodd" d="m10.5275 13.3335h42.944c1.3893 0 2.528 1.1387 2.528 2.528v.2773c0 1.3894-1.1387 2.528-2.528 2.528h-42.944c-1.38935 0-2.52802-1.1386-2.52802-2.528v-.2773c0-1.3893 1.13867-2.528 2.52802-2.528zm42.944 16h-37.7014l3.448-3.448c1.0427-1.0427 1.0427-2.728 0-3.7707-1.04-1.0426-2.728-1.0426-3.7706 0l-8.00002 8c-1.04 1.0427-1.04 2.728 0 3.7707l8.00002 8c.5226.52 1.2026.7813 1.8853.7813s1.3653-.2613 1.8853-.7813c1.0427-1.0427 1.0427-2.728 0-3.7707l-3.448-3.448h37.7014c1.3893 0 2.528-1.1386 2.528-2.528v-.2773c0-1.3893-1.1387-2.528-2.528-2.528zm0 16h-42.944c-1.38935 0-2.52802 1.1387-2.52802 2.528v.2773c0 1.3894 1.13867 2.528 2.52802 2.528h42.944c1.3893 0 2.528-1.1386 2.528-2.528v-.2773c0-1.3893-1.1387-2.528-2.528-2.528z" fill="#6b7280" fill-rule="evenodd"/></svg>