<svg fill="none" height="24" viewBox="0 0 24 24" width="24" xmlns="http://www.w3.org/2000/svg"><path clip-rule="evenodd" d="m15.9997 12.9991c-.552 0-1-.448-1-1s.448-1 1-1 1 .448 1 1-.448 1-1 1zm-4 0c-.552 0-1-.448-1-1s.448-1 1-1 1 .448 1 1-.448 1-1 1zm-4.00006 0c-.552 0-1-.448-1-1s.448-1 1-1 1 .448 1 1-.448 1-1 1zm11.07096-8.07093c-2.284-2.284-5.445-3.303-8.674-2.804-4.07696.636-7.45696 3.92-8.21996 7.98703-.367 1.958-.156 3.952.611 5.765.098.23.128.446.089.639l-.857 4.288c-.066.328.037.667.273.903.189.189.444.293.707.293.065 0 .131-.006.196-.02l4.283-.856c.246-.047.485.022.644.088 1.814.767 3.80796.977 5.76496.611 4.067-.763 7.351-4.143 7.987-8.22.503-3.228-.519-6.38903-2.804-8.67403z" fill="#6b7280" fill-rule="evenodd"/></svg>