<svg fill="none" height="64" viewBox="0 0 64 64" width="64" xmlns="http://www.w3.org/2000/svg"><path clip-rule="evenodd" d="m42.6667 31.9998c-1.472 0-2.6667-1.1946-2.6667-2.6666s1.1947-2.6667 2.6667-2.6667 2.6666 1.1947 2.6666 2.6667-1.1946 2.6666-2.6666 2.6666zm-10.6667 0c-1.472 0-2.6666-1.1946-2.6666-2.6666s1.1946-2.6667 2.6666-2.6667 2.6667 1.1947 2.6667 2.6667-1.1947 2.6666-2.6667 2.6666zm-10.6666 0c-1.472 0-2.6667-1.1946-2.6667-2.6666s1.1947-2.6667 2.6667-2.6667 2.6667 1.1947 2.6667 2.6667-1.1947 2.6666-2.6667 2.6666zm29.3333-23.9998h-37.3333c-4.41069 0-8.00003 3.5893-8.00003 8v40c0 .96.51734 1.848 1.352 2.32.408.232.86134.3467 1.31467.3467.47467 0 .94933-.1254 1.37333-.3814l12.06403-7.2373c.416-.2507.8906-.3813 1.3733-.3813h27.856c4.4107 0 8-3.5894 8-8v-26.6667c0-4.4107-3.5893-8-8-8z" fill="#6b7280" fill-rule="evenodd"/></svg>