<svg width="64" height="64" viewBox="0 0 64 64" fill="none" xmlns="http://www.w3.org/2000/svg">
<path d="M7 8.44632C6.99981 7.85148 7.14995 7.26673 7.4358 6.74899C7.72166 6.23124 8.13349 5.79814 8.63121 5.49185C9.12892 5.18555 9.69557 5.0165 10.276 5.00115C10.8564 4.98579 11.4308 5.12466 11.9433 5.40423L55.2156 28.9588C55.7545 29.2523 56.2052 29.6905 56.5196 30.2264C56.8339 30.7623 57 31.3757 57 32.0009C57 32.6261 56.8339 33.2396 56.5196 33.7755C56.2052 34.3114 55.7545 34.7495 55.2156 35.043L11.9399 58.5976C11.4273 58.8765 10.853 59.0147 10.2727 58.9988C9.69253 58.9828 9.12622 58.8133 8.6289 58.5067C8.13158 58.2001 7.72019 57.7669 7.43475 57.2491C7.14931 56.7313 6.99954 56.1467 7 55.5521V40.0282C6.99994 39.2244 7.27421 38.4459 7.77533 37.8274C8.27645 37.2089 8.97287 36.7894 9.74403 36.6416L33.9023 32.0009L9.74403 27.3603C8.97287 27.2124 8.27645 26.7929 7.77533 26.1744C7.27421 25.556 6.99994 24.7775 7 23.9737V8.44632Z" fill="#6B7280"/>
</svg>
