<svg fill="none" height="64" viewBox="0 0 64 64" width="64" xmlns="http://www.w3.org/2000/svg"><path clip-rule="evenodd" d="m42.6658 34.6645c-1.472 0-2.6666-1.1946-2.6666-2.6666s1.1946-2.6667 2.6666-2.6667 2.6667 1.1947 2.6667 2.6667-1.1947 2.6666-2.6667 2.6666zm-10.6666 0c-1.472 0-2.6667-1.1946-2.6667-2.6666s1.1947-2.6667 2.6667-2.6667 2.6667 1.1947 2.6667 2.6667-1.1947 2.6666-2.6667 2.6666zm-10.6667 0c-1.472 0-2.6667-1.1946-2.6667-2.6666s1.1947-2.6667 2.6667-2.6667 2.6666 1.1947 2.6666 2.6667-1.1946 2.6666-2.6666 2.6666zm29.5226-21.5225c-6.0906-6.09071-14.52-8.80805-23.1306-7.47738-10.872 1.696-19.88538 10.45338-21.92005 21.29868-.97867 5.2213-.416 10.5387 1.62933 15.3733.26134.6134.34134 1.1894.23734 1.704l-2.28534 11.4347c-.176.8747.09867 1.7787.728 2.408.504.504 1.184.7813 1.88534.7813.17333 0 .34933-.016.52266-.0533l11.42132-2.2827c.656-.1253 1.2934.0587 1.7173.2347 4.8374 2.0453 10.1547 2.6053 15.3734 1.6293 10.8453-2.0346 19.6027-11.048 21.2987-21.92 1.3413-8.608-1.3841-17.0373-7.4774-23.1306z" fill="#6b7280" fill-rule="evenodd"/></svg>