<svg fill="none" height="64" viewBox="0 0 64 64" width="64" xmlns="http://www.w3.org/2000/svg"><path d="m14.4512 45.038c.3426-.0726.6966-.0775 1.041-.0136s.6731.1949.9668.3857.5469.4381.7451.7266c.1981.2884.3376.6129.4102.955.0725.3424.0768.6961.0127 1.0401-.0642.344-.1956.6725-.3868.9658l-2.3252 3.5742h11.752c.7071.0001 1.3857.2808 1.8857.7803s.7803 1.1774.7803 1.8838-.2803 1.3842-.7803 1.8838c-.5.4995-1.1786.7802-1.8857.7803h-16.667c-.47991-.0003-.95094-.1298-1.36328-.375-.41227-.2453-.75067-.5973-.97949-1.0186-.22881-.4214-.33934-.897-.32032-1.376.01905-.479.16715-.9447.42871-1.3467l5.00198-7.6904c.1907-.2936.4378-.5468.7265-.7451.2888-.1983.6143-.3374.9571-.4102zm34.5771-.2695c.7055-.0429 1.3993.1954 1.9287.6631.2624.2319.4764.5136.6299.8281.1535.3144.2443.6557.2656 1.0049s-.0265.6996-.1406 1.0303c-.1142.3308-.2931.6364-.5254.8984-3.4479 3.8944-8.0158 6.7951-13.2129 8.0791-.3429.0931-.7015.1174-1.0537.0703-.3521-.0471-.6917-.1638-.998-.3437-.3062-.1799-.5728-.4197-.7852-.7041-.2124-.2845-.3658-.6086-.4512-.9532-.0853-.3446-.1011-.703-.0459-1.0537.0553-.3506.1802-.6865.3672-.9882.1871-.3018.4321-.5639.7217-.7696.2897-.2056.618-.3504.9649-.4277 4.0798-1.0096 7.7196-3.3035 10.5009-6.4414.4687-.5285 1.1286-.8496 1.834-.8926zm-17.0283-27.7685c8.2843 0 15 6.7157 15 15 0 8.2842-6.7157 15-15 15s-15-6.7158-15-15c0-8.2843 6.7157-15 15-15zm-22.61133 4.9746c.3483-.0349.70003-.0003 1.03513.1005l.25.087c.2421.0994.4684.2345.6719.4004.2714.2212.4972.4935.6631.8017.1659.3083.2695.6469.3047.9951.0351.3481.0003.7002-.1006 1.0352-.5822 1.9355-.8786 3.9458-.8799 5.9668 0 2.0617.3019 4.0753.8672 5.9931.1994.6781.1211 1.408-.2178 2.0284-.339.6204-.9118 1.081-1.5908 1.2802-.67887.1992-1.40924.1209-2.03027-.2177-.62094-.3387-1.08182-.9098-1.28125-1.5879-.71553-2.4346-1.07928-4.9588-1.08008-7.4961 0-2.6052.38429-5.1252 1.10156-7.5039.10101-.3349.26669-.6472.48828-.918.22166-.2708.49517-.4956.80371-.6611.30845-.1654.64681-.2688.99512-.3037zm45.22363.0009c.3485.0352.6867.1381.9951.3037.3086.1658.5812.3911.8028.6622.2214.271.3875.5828.4882.9179.7174 2.3762 1.1016 4.8967 1.1016 7.502-.0019 2.5365-.3668 5.0596-1.083 7.4931-.1995.6779-.6604 1.2495-1.2813 1.5879-.6207.3383-1.3508.416-2.0293.2168-.6784-.1992-1.25-.6592-1.5888-1.2793s-.4171-1.3495-.2178-2.0273c.5728-1.9456.8651-3.9632.8672-5.9912.0005-2.0208-.2946-4.031-.875-5.9668-.101-.335-.1346-.6871-.0996-1.0352.035-.348.1381-.6859.3037-.9941.1656-.308.3902-.5804.6611-.8018.2712-.2214.5837-.3873.919-.4883.3354-.1008.6875-.1347 1.0361-.0996zm-17.7109-15.94039c.3456-.05659.699-.0447 1.04.03516 4.9815 1.16767 9.5067 3.77924 13.0078 7.50683.2398.255.4269.5546.5508.8818s.1827.6758.1719 1.0254c-.0109.3498-.0913.6947-.2354 1.0137-.144.3188-.3493.6062-.6045.8457-.2552.2396-.5552.427-.8828.5508-.3275.1237-.6764.1817-1.0263.1709-.3502-.0109-.6954-.0905-1.0147-.2344s-.6068-.3495-.8467-.6045c-2.7816-2.9626-6.3775-5.0382-10.3359-5.9668-.3411-.0796-.6636-.2256-.9483-.4297-.2846-.204-.5261-.4624-.7109-.7597-.1847-.29739-.3085-.62832-.3652-.97367s-.0448-.69833.0351-1.03906c.0798-.34079.2254-.66293.4297-.94727.2043-.28428.4631-.52543.7608-.70996.2976-.18447.6289-.30859.9746-.36523zm-10.8428.03516c.341-.07986.6944-.09175 1.04-.03516.3457.05664.677.18076.9746.36523.2977.18453.5565.42569.7608.70996.2043.28434.3499.60648.4297.94727.1606.68766.0418 1.41086-.3311 2.01073-.373.6-.9698 1.0276-1.6582 1.1885-3.9584.9286-7.5543 3.0042-10.3359 5.9668-.4845.515-1.1542.8169-1.8614.8389-.7069.0218-1.3937-.2379-1.9091-.7217-.5154-.4839-.8178-1.1522-.8399-1.8584-.022-.7064.2382-1.3932.7227-1.9082 3.5014-3.72656 8.0267-6.33701 13.0078-7.50393z" fill="#000"/></svg>