<svg fill="none" height="24" viewBox="0 0 24 24" width="24" xmlns="http://www.w3.org/2000/svg"><path clip-rule="evenodd" d="m16 11.9999c-.552 0-1-.448-1-1s.448-.99997 1-.99997 1 .44797 1 .99997-.448 1-1 1zm-4 0c-.552 0-1-.448-1-1s.448-.99997 1-.99997 1 .44797 1 .99997-.448 1-1 1zm-3.99995 0c-.552 0-1-.448-1-1s.448-.99997 1-.99997 1 .44797 1 .99997-.448 1-1 1zm10.99995-8.9999h-13.99997c-1.654 0-3 1.346-3 3v15c0 .36.194.693.507.87.153.087.323.13.493.13.178 0 .356-.047.515-.143l4.524-2.714c.156-.094.334-.143.515-.143h10.44597c1.654 0 3-1.346 3-3v-10c0-1.654-1.346-3-3-3z" fill="#6b7280" fill-rule="evenodd"/></svg>