<svg fill="none" height="64" viewBox="0 0 64 64" width="64" xmlns="http://www.w3.org/2000/svg"><path clip-rule="evenodd" d="m42.6668 29.3335c0 5.8827-4.784 10.6667-10.6666 10.6667-5.8827 0-10.6667-4.784-10.6667-10.6667v-13.3333c0-5.8827 4.784-10.6667 10.6667-10.6667 5.8826 0 10.6666 4.784 10.6666 10.6667zm5.3334-2.6665c1.4746 0 2.6666 1.1947 2.6666 2.6667 0 9.3866-6.968 17.152-16 18.4533v5.5467h5.6134c1.3146 0 2.3866 1.072 2.3866 2.3866v.56c0 1.3147-1.072 2.3867-2.3866 2.3867h-16.56c-1.3147 0-2.3867-1.072-2.3867-2.3867v-.56c0-1.3146 1.072-2.3866 2.3867-2.3866h5.6133v-5.5467c-9.032-1.3013-16-9.0667-16-18.4533 0-1.472 1.192-2.6667 2.6667-2.6667 1.4746 0 2.6666 1.1947 2.6666 2.6667 0 7.352 5.9814 13.3333 13.3334 13.3333s13.3333-5.9813 13.3333-13.3333c0-1.472 1.192-2.6667 2.6667-2.6667z" fill="#6b7280" fill-rule="evenodd"/></svg>