<svg fill="none" height="24" viewBox="0 0 24 24" width="24" xmlns="http://www.w3.org/2000/svg"><path clip-rule="evenodd" d="m16 11c0 2.206-1.794 4-4 4-2.20598 0-3.99998-1.794-3.99998-4v-5c0-2.206 1.794-4 3.99998-4 2.206 0 4 1.794 4 4zm2-.9999c.553 0 1 .448 1 1 0 3.52-2.613 6.432-6 6.92v2.08h2.105c.493 0 .895.402.895.895v.21c0 .493-.402.895-.895.895h-6.20998c-.493 0-.895-.402-.895-.895v-.21c0-.493.402-.895.895-.895h2.10498v-2.08c-3.38698-.488-5.99998-3.4-5.99998-6.92 0-.552.447-1 1-1s1 .448 1 1c0 2.757 2.243 5 4.99998 5 2.757 0 5-2.243 5-5 0-.552.447-1 1-1z" fill="#6b7280" fill-rule="evenodd"/></svg>