<svg viewBox="0 0 64 64" fill="none" xmlns="http://www.w3.org/2000/svg">
<path fill-rule="evenodd" clip-rule="evenodd" d="M14.8352 9.05784C16.5625 12.7553 19.0347 19.3299 19.3635 25.3515C19.5601 28.953 18.6185 32.5218 17.3851 35.4989C16.6551 37.2613 15.8161 38.8326 15.0323 40.101C16.1451 39.6038 17.4554 39.0731 18.8631 38.5896C21.4566 37.699 24.4268 36.9526 27.1223 36.8964C31.6555 36.802 36.4485 38.0721 39.119 39.0063C38.3201 35.5609 36.3219 28.9248 30.3331 21.6913C24.9556 15.1959 18.5792 10.8722 14.8352 9.05784Z M27.559 13.6666C27.7091 13.3671 28.0623 13.2318 28.3733 13.3548C31.5284 14.6019 39.0377 18.9965 44.2405 26.7396C46.8124 30.5674 48.4397 33.494 49.4296 35.6059C49.9246 36.6617 50.2627 37.5191 50.4797 38.1879C50.692 38.8417 50.8027 39.3577 50.8102 39.7139C50.8151 39.949 50.6925 40.1682 50.4899 40.2867C50.2872 40.4051 50.0363 40.4041 49.8346 40.2842C49.5079 40.0897 48.9473 39.7835 48.346 39.5088C47.7309 39.2276 47.1319 39.0067 46.7096 38.9432C45.8076 38.8077 44.4466 39.0433 43.8612 39.19C43.692 39.2326 43.5129 39.2043 43.3645 39.1124C43.2161 39.0203 43.1113 38.8721 43.0737 38.7015C42.7662 37.304 41.3304 32.8028 38.0889 26.3567C34.8952 20.005 29.8654 15.7934 27.7959 14.5074C27.5118 14.3308 27.409 13.9661 27.559 13.6666ZM33.6108 17.8023C35.5623 19.8739 37.6272 22.5607 39.2428 25.7738C42.1504 31.5565 43.6459 35.8395 44.1798 37.7992C44.9366 37.6608 46.031 37.5317 46.901 37.6625C47.5122 37.7544 48.2482 38.0408 48.8821 38.3306C48.9958 38.3826 49.1083 38.4357 49.2183 38.4889C49.0199 37.8951 48.7124 37.121 48.2603 36.1566C47.3048 34.118 45.7129 31.2496 43.1688 27.4628C40.3075 23.2047 36.7187 19.9944 33.6108 17.8023Z M56.1873 41.6151C56.2936 41.871 56.2255 42.166 56.0184 42.3493C54.5224 43.6725 52.1392 45.5116 48.8043 47.4124C47.3819 48.2232 45.9069 48.9196 44.7302 49.4477C44.2699 49.6543 43.8523 49.8364 43.5025 49.989C43.4547 50.0098 43.4081 50.0301 43.3628 50.0499C43.9605 50.4693 44.6861 50.7993 45.5782 50.7993C46.3612 50.7993 46.8859 50.6269 47.292 50.3908C47.7153 50.1448 48.0431 49.8131 48.4332 49.4096L48.463 49.3788C48.8311 48.9981 49.2626 48.5514 49.8378 48.2118C50.4473 47.8518 51.1875 47.6264 52.1672 47.6264C53.147 47.6264 53.8703 47.8521 54.457 48.2215C54.9841 48.5534 55.3718 48.9877 55.6981 49.3531C55.7206 49.3783 55.7427 49.4031 55.7647 49.4276C56.1199 49.8242 56.4266 50.148 56.8475 50.3883C57.2563 50.6219 57.8166 50.7993 58.6916 50.7993C59.0486 50.7993 59.3377 51.0891 59.3377 51.4466C59.3377 51.8043 59.0486 52.0942 58.6916 52.0942C57.6288 52.0942 56.8408 51.8749 56.2079 51.5135C55.5871 51.159 55.159 50.6898 54.8035 50.2929L54.7678 50.2531C54.4146 49.8584 54.1384 49.5503 53.7695 49.3179C53.4113 49.0925 52.9317 48.9215 52.1672 48.9215C51.4027 48.9215 50.8914 49.0927 50.4936 49.3276C50.0769 49.5736 49.7534 49.905 49.3607 50.311L49.3488 50.3232C48.9745 50.7106 48.5341 51.1659 47.9403 51.511C47.3227 51.87 46.5716 52.0942 45.5782 52.0942C43.7552 52.0942 42.4903 51.0867 41.7156 50.3678C41.5732 50.2357 41.4488 50.1158 41.3354 50.0063C41.0284 49.7105 40.7995 49.4898 40.5037 49.3063C40.1473 49.0848 39.6815 48.9215 38.8601 48.9215C37.4649 48.9215 36.6355 49.5703 35.7794 50.3417C35.7112 50.4032 35.6421 50.4664 35.5718 50.5308C34.7966 51.2403 33.8637 52.0942 32.4648 52.0942C31.0349 52.0942 30.0098 51.2056 29.1672 50.4755C29.1187 50.4334 29.0709 50.392 29.0236 50.3514C28.0937 49.55 27.2905 48.9215 26.1341 48.9215C24.9837 48.9215 24.2194 49.5555 23.2589 50.3772L23.2247 50.4064C22.314 51.1858 21.2078 52.1323 19.5304 52.0939C17.854 52.0558 16.563 51.0232 15.5494 50.1594C15.4507 50.0752 15.3549 49.993 15.2615 49.9124C14.8498 49.5584 14.4846 49.2446 14.1202 48.9944C13.677 48.6902 13.3197 48.543 12.9998 48.5326C12.6284 48.5207 12.3237 48.5698 12.0578 48.6565C11.5842 48.811 11.1871 49.0992 10.7145 49.4995C10.6256 49.5748 10.5333 49.655 10.4371 49.7383C10.0425 50.0806 9.58469 50.4778 9.04073 50.8265C8.25402 51.3312 7.67992 51.6713 7.18082 51.7989C6.58247 51.952 6.13719 51.7964 5.69048 51.5727C5.37138 51.4127 5.24204 51.0237 5.40159 50.7039C5.56114 50.3841 5.94917 50.2543 6.26827 50.4143C6.59674 50.5791 6.70056 50.5853 6.86122 50.5441C7.12117 50.4777 7.51602 50.2672 8.34429 49.7358C8.80214 49.4423 9.17247 49.1214 9.56041 48.7855C9.66512 48.6949 9.7711 48.6032 9.88045 48.5106C10.2147 48.2274 10.5765 47.9403 10.9987 47.7109C10.4882 46.6323 9.89501 45.6097 9.63049 45.1853C9.51002 44.9923 9.49972 44.7498 9.60334 44.5469C9.70696 44.3443 9.90928 44.211 10.1361 44.1961L55.5487 41.2177C55.8247 41.1996 56.0813 41.3594 56.1873 41.6151Z M13.6925 8.22639C13.8656 8.0238 14.1449 7.94832 14.3961 8.03619C17.7311 9.20281 25.2196 13.7781 31.3469 21.1841C38.0318 29.2641 39.676 36.6117 40.2675 39.466C40.3161 39.7006 40.2316 39.9429 40.0476 40.096C39.8637 40.2488 39.6108 40.2877 39.3896 40.1968C37.3897 39.3738 32.1505 37.7483 27.3101 37.8493C24.9254 37.8991 22.2307 38.5665 19.8077 39.3994C17.3907 40.2297 15.2883 41.2095 14.1025 41.8511C13.8327 41.997 13.4978 41.9328 13.3008 41.6975C13.1037 41.4622 13.0988 41.1203 13.2891 40.8795C14.2316 39.6855 15.6484 37.4614 16.7825 34.7215C17.9173 31.9804 18.7507 28.7679 18.5769 25.5825C18.2225 19.0877 15.1226 11.7862 13.6133 8.95245C13.488 8.71716 13.5195 8.42896 13.6925 8.22639ZM15.5385 9.92662C17.1896 13.4633 19.5527 19.752 19.8669 25.5118C20.0548 28.9567 19.1548 32.3701 17.9759 35.218C17.2781 36.9035 16.4761 38.4065 15.7269 39.6198C16.7906 39.1442 18.0431 38.6366 19.3887 38.1743C21.8676 37.3224 24.7068 36.6085 27.2832 36.5547C31.6164 36.4643 36.1979 37.6791 38.7505 38.5727C37.987 35.2772 36.0767 28.9297 30.3523 22.0107C25.2122 15.7978 19.1173 11.662 15.5385 9.92662Z" fill="#141414"/>
</svg>