<svg width="24" height="24" viewBox="0 0 24 24" fill="none" xmlns="http://www.w3.org/2000/svg">
<g id="Icon/Fill/minus-square">
<g id="&#240;&#159;&#142;&#168; Color">
<path id="Mask" fill-rule="evenodd" clip-rule="evenodd" d="M15 13H9C8.45 13 8 12.55 8 12C8 11.45 8.45 11 9 11H15C15.55 11 16 11.45 16 12C16 12.55 15.55 13 15 13ZM18 3H6C4.346 3 3 4.346 3 6V18C3 19.654 4.346 21 6 21H18C19.654 21 21 19.654 21 18V6C21 4.346 19.654 3 18 3Z" fill="#231F20"/>
<mask id="mask0" mask-type="alpha" maskUnits="userSpaceOnUse" x="3" y="3" width="18" height="18">
<path id="Mask_2" fill-rule="evenodd" clip-rule="evenodd" d="M15 13H9C8.45 13 8 12.55 8 12C8 11.45 8.45 11 9 11H15C15.55 11 16 11.45 16 12C16 12.55 15.55 13 15 13ZM18 3H6C4.346 3 3 4.346 3 6V18C3 19.654 4.346 21 6 21H18C19.654 21 21 19.654 21 18V6C21 4.346 19.654 3 18 3Z" fill="white"/>
</mask>
<g mask="url(#mask0)">
<g id="&#240;&#159;&#142;&#168; Color_2">
<rect id="Base" width="24" height="24" fill="#0D1C2E"/>
</g>
</g>
</g>
</g>
</svg>
