<svg width="24" height="24" viewBox="0 0 24 24" fill="none" xmlns="http://www.w3.org/2000/svg">
<g id="Icon/Fill/monitor">
<g id="&#240;&#159;&#142;&#168; Color">
<path id="Mask" fill-rule="evenodd" clip-rule="evenodd" d="M5 3H19C20.654 3 22 4.346 22 6V11H2V6C2 4.346 3.346 3 5 3ZM5 17C3.346 17 2 15.654 2 14V13H22V14C22 15.654 20.654 17 19 17H13V19H17C17.55 19 18 19.45 18 20C18 20.55 17.55 21 17 21H7C6.45 21 6 20.55 6 20C6 19.45 6.45 19 7 19H11V17H5Z" fill="#231F20"/>
<mask id="mask0" mask-type="alpha" maskUnits="userSpaceOnUse" x="2" y="3" width="20" height="18">
<path id="Mask_2" fill-rule="evenodd" clip-rule="evenodd" d="M5 3H19C20.654 3 22 4.346 22 6V11H2V6C2 4.346 3.346 3 5 3ZM5 17C3.346 17 2 15.654 2 14V13H22V14C22 15.654 20.654 17 19 17H13V19H17C17.55 19 18 19.45 18 20C18 20.55 17.55 21 17 21H7C6.45 21 6 20.55 6 20C6 19.45 6.45 19 7 19H11V17H5Z" fill="white"/>
</mask>
<g mask="url(#mask0)">
<g id="&#240;&#159;&#142;&#168; Color_2">
<rect id="Base" width="24" height="24" fill="#0D1C2E"/>
</g>
</g>
</g>
</g>
</svg>
