<svg fill="none" height="64" viewBox="0 0 64 64" width="64" xmlns="http://www.w3.org/2000/svg"><path clip-rule="evenodd" d="m13.3335 8h37.3333c4.4107 0 8 3.5893 8 8v13.3333h-53.3333v-13.3333c0-4.4107 3.58933-8 8-8zm0 37.3332c-4.41067 0-8-3.5894-8-8v-2.6667h53.3333v2.6667c0 4.4106-3.5893 8-8 8h-16v5.3333h10.6667c1.4667 0 2.6667 1.2 2.6667 2.6667 0 1.4666-1.2 2.6666-2.6667 2.6666h-26.6667c-1.4666 0-2.6666-1.2-2.6666-2.6666 0-1.4667 1.2-2.6667 2.6666-2.6667h10.6667v-5.3333z" fill="#6b7280" fill-rule="evenodd"/></svg>