<svg fill="none" height="64" viewBox="0 0 64 64" width="64" xmlns="http://www.w3.org/2000/svg"><path clip-rule="evenodd" d="m32.7891 58.6667c-.0853 0-.168 0-.256-.0027-7.4507-.064-14.4053-3.0533-19.584-8.408-9.80532-10.1466-10.11199-26.9386-.6853-37.432 2.936-3.27198 6.52-5.73332 10.648-7.31465.9733-.37867 2.08-.144 2.824.592.7466.73333.9946 1.83466.6346 2.816-2.9813 8.14665-.952 17.36265 5.176 23.47735 6.1254 6.1147 15.368 8.144 23.5414 5.168.9813-.3627 2.0826-.1067 2.8133.6346.7333.7467.9627 1.8534.5893 2.8267-1.3973 3.6347-3.4933 6.8614-6.2293 9.5894-5.208 5.2-12.1173 8.0533-19.472 8.0533z" fill="#6b7280" fill-rule="evenodd"/></svg>