<svg width="24" height="24" viewBox="0 0 24 24" fill="none" xmlns="http://www.w3.org/2000/svg">
<g id="Icon/Fill/moon">
<path id="Mask" fill-rule="evenodd" clip-rule="evenodd" d="M12.2959 22C12.2639 22 12.2329 22 12.1999 21.999C9.40592 21.975 6.79792 20.854 4.85592 18.846C1.17892 15.041 1.06392 8.74401 4.59892 4.80901C5.69992 3.58201 7.04392 2.65901 8.59192 2.06601C8.95692 1.92401 9.37192 2.01201 9.65092 2.28801C9.93092 2.56301 10.0239 2.97601 9.88892 3.34401C8.77092 6.39901 9.53192 9.85501 11.8299 12.148C14.1269 14.441 17.5929 15.202 20.6579 14.086C21.0259 13.95 21.4389 14.046 21.7129 14.324C21.9879 14.604 22.0739 15.019 21.9339 15.384C21.4099 16.747 20.6239 17.957 19.5979 18.98C17.6449 20.93 15.0539 22 12.2959 22Z" fill="#231F20"/>
<mask id="mask0" mask-type="alpha" maskUnits="userSpaceOnUse" x="2" y="1" width="21" height="21">
<path id="Mask_2" fill-rule="evenodd" clip-rule="evenodd" d="M12.2959 22C12.2639 22 12.2329 22 12.1999 21.999C9.40592 21.975 6.79792 20.854 4.85592 18.846C1.17892 15.041 1.06392 8.74401 4.59892 4.80901C5.69992 3.58201 7.04392 2.65901 8.59192 2.06601C8.95692 1.92401 9.37192 2.01201 9.65092 2.28801C9.93092 2.56301 10.0239 2.97601 9.88892 3.34401C8.77092 6.39901 9.53192 9.85501 11.8299 12.148C14.1269 14.441 17.5929 15.202 20.6579 14.086C21.0259 13.95 21.4389 14.046 21.7129 14.324C21.9879 14.604 22.0739 15.019 21.9339 15.384C21.4099 16.747 20.6239 17.957 19.5979 18.98C17.6449 20.93 15.0539 22 12.2959 22Z" fill="white"/>
</mask>
<g mask="url(#mask0)">
<g id="&#240;&#159;&#142;&#168; Color">
<rect id="Base" width="24" height="24" fill="#0D1C2E"/>
</g>
</g>
</g>
</svg>
