<svg fill="none" height="64" viewBox="0 0 64 64" width="64" xmlns="http://www.w3.org/2000/svg"><path clip-rule="evenodd" d="m8 31.9998c0-2.944 2.3893-5.3333 5.3333-5.3333s5.3334 2.3893 5.3334 5.3333-2.3894 5.3334-5.3334 5.3334-5.3333-2.3894-5.3333-5.3334zm24-5.3333c-2.944 0-5.3334 2.3893-5.3334 5.3333s2.3894 5.3334 5.3334 5.3334 5.3333-2.3894 5.3333-5.3334-2.3893-5.3333-5.3333-5.3333zm18.6667 0c-2.944 0-5.3333 2.3893-5.3333 5.3333s2.3893 5.3334 5.3333 5.3334 5.3333-2.3894 5.3333-5.3334-2.3893-5.3333-5.3333-5.3333z" fill="#6b7280" fill-rule="evenodd"/></svg>