<svg fill="none" height="24" viewBox="0 0 24 24" width="24" xmlns="http://www.w3.org/2000/svg"><path clip-rule="evenodd" d="m21.709 11.3075-3-3.01299c-.39-.391-1.024-.394-1.414-.003-.392.39-.394 1.022-.004 1.414l1.289 1.29399h-5.58v-5.59099l1.291 1.297c.195.196.452.294.709.294.255 0 .511-.097.706-.291.391-.39.393-1.023.003-1.414l-2.987-3c-.189-.189-.407-.286-.709-.295-.265 0-.519.105-.706.292l-3.01299 3c-.391.39-.393 1.023-.003 1.414.389.391 1.022.393 1.415.003l1.29399-1.289v5.57999h-5.59199l1.297-1.29099c.392-.39.394-1.023.004-1.414s-1.024-.394-1.414-.003l-3 2.98699c-.189.187-.294.441-.295.706s.105.52.291.708l3 3.013c.195.196.452.294.709.294.255 0 .511-.097.705-.291.392-.39.394-1.023.004-1.414l-1.289-1.295h5.57999v5.592l-1.29099-1.297c-.39-.392-1.023-.394-1.415-.003-.391.39-.393 1.023-.003 1.414l2.98699 3c.188.188.442.294.707.294h.002c.265 0 .519-.105.706-.291l3.013-3c.391-.39.393-1.023.003-1.414-.39-.392-1.023-.394-1.415-.003l-1.294 1.288v-5.58h5.592l-1.297 1.292c-.392.39-.394 1.022-.004 1.414.195.196.452.294.709.294.255 0 .511-.097.705-.291l3-2.987c.189-.187.294-.441.295-.706.001-.266-.104-.52-.291-.708" fill="#6b7280" fill-rule="evenodd"/></svg>