<svg fill="none" height="64" viewBox="0 0 64 64" width="64" xmlns="http://www.w3.org/2000/svg"><path clip-rule="evenodd" d="m57.8906 30.1534-8-8.0347c-1.04-1.0427-2.7307-1.0507-3.7707-.008-1.0453 1.04-1.0506 2.7253-.0106 3.7707l3.4373 3.4506h-14.88v-14.9093l3.4427 3.4587c.52.5226 1.2053.784 1.8906.784.68 0 1.3627-.2587 1.8827-.776 1.0427-1.04 1.048-2.728.008-3.7707l-7.9653-8c-.504-.504-1.0854-.76267-1.8907-.78667-.7067 0-1.384.28-1.8827.77867l-8.0346 8c-1.0427 1.04-1.048 2.728-.008 3.7707 1.0373 1.0426 2.7253 1.048 3.7733.008l3.4507-3.4374v14.88h-14.912l3.4586-3.4426c1.0454-1.04 1.0507-2.728.0107-3.7707s-2.7307-1.0507-3.7707-.008l-7.99996 7.9653c-.504.4987-.784 1.176-.78667 1.8827s.28 1.3867.776 1.888l8.00003 8.0347c.52.5226 1.2053.784 1.8906.784.68 0 1.3627-.2587 1.88-.776 1.0454-1.04 1.0507-2.728.0107-3.7707l-3.4373-3.4533h14.88v14.912l-3.4427-3.4587c-1.04-1.0453-2.728-1.0507-3.7733-.008-1.0427 1.04-1.048 2.728-.008 3.7707l7.9653 8c.5013.5013 1.1787.784 1.8853.784h.0054c.7066 0 1.384-.28 1.8826-.776l8.0347-8c1.0427-1.04 1.048-2.728.008-3.7707-1.04-1.0453-2.728-1.0507-3.7733-.008l-3.4507 3.4347v-14.88h14.912l-3.4587 3.4453c-1.0453 1.04-1.0506 2.7253-.0106 3.7707.52.5226 1.2053.784 1.8906.784.68 0 1.3627-.2587 1.88-.776l8-7.9654c.504-.4986.784-1.176.7867-1.8826.0027-.7094-.2773-1.3867-.776-1.888z" fill="#6b7280" fill-rule="evenodd"/></svg>