<svg fill="none" height="64" viewBox="0 0 64 64" width="64" xmlns="http://www.w3.org/2000/svg"><path clip-rule="evenodd" d="m50.5262 39.9793v-29.312c0-.80802-.368-1.57602-.9974-2.08002-.632-.50667-1.464-.69867-2.248-.52267l-23.9226 5.31469c-1.2214.272-2.0907 1.3546-2.0907 2.6026v22.2427c-1.1733-.5333-2.464-.8507-3.8373-.8507-5.136 0-9.31204 4.1787-9.31204 9.3147 0 5.1333 4.17604 9.312 9.31204 9.312s9.312-4.1787 9.312-9.312c0-.4773-.0694-.9333-.1414-1.392v-27.1733l18.592-4.1334v18.92c-1.1733-.536-2.4666-.8506-3.8373-.8506-5.136 0-9.3147 4.176-9.3147 9.312s4.1787 9.312 9.3147 9.312c5.1333 0 9.312-4.176 9.312-9.312 0-.4774-.072-.9334-.1413-1.392z" fill="#6b7280" fill-rule="evenodd"/></svg>