<svg viewBox="0 0 64 64" fill="none" xmlns="http://www.w3.org/2000/svg">
<path fill-rule="evenodd" clip-rule="evenodd" d="M15.5859 13.1221L15.6221 13.0869L49.876 47.3408L49.8398 47.376L51.9697 49.5059C51.6014 49.9231 51.2193 50.3335 50.8203 50.7324C40.43 61.1227 23.5837 61.1226 13.1934 50.7324C2.80346 40.3421 2.80318 23.4956 13.1934 13.1055C13.5922 12.7067 14.0019 12.3242 14.4189 11.9561L15.5859 13.1221ZM22.001 36.1143C21.677 36.0547 21.3422 36.0235 21.001 36.0234C17.9636 36.0234 15.5013 38.4862 15.501 41.5234C15.501 44.561 17.9634 47.0234 21.001 47.0234C24.0382 47.023 26.501 44.5607 26.501 41.5234V32.001L27.2764 31.8135L22.001 26.5381V36.1143ZM18.5146 8.97949C28.7141 2.97152 42.0615 4.34704 50.8203 13.1055C59.5789 21.8642 60.9532 35.2107 54.9453 45.4102L45.001 35.4658V22.2529C45.0003 17.6116 40.5642 14.2561 36.0977 15.5176L27.4854 17.9512L18.5146 8.97949ZM32.0645 36.6016C32.0237 36.8956 32.001 37.1957 32.001 37.501C32.001 41.0908 34.9111 44.001 38.501 44.001C38.806 44.0009 39.1057 43.9773 39.3994 43.9365L32.0645 36.6016ZM41.001 31.4658L38.6113 29.0771L41.001 28.501V31.4658ZM37.1113 19.708C39.0415 19.1096 41.0006 20.5524 41.001 22.5732V24.001L35.1494 25.6143L31.1055 21.5713L37.1113 19.708Z" fill="#141414"/>
</svg>