<svg fill="none" height="64" viewBox="0 0 64 64" width="64" xmlns="http://www.w3.org/2000/svg"><path d="m53.6162 21.1055c.7641 0 1.3838.6324 1.3838 1.4121v24.2871c0 2.3973-1.8967 5.3721-6.2256 5.3721-3.8651-.0001-4.8417-2.5286-4.8418-4.2354 0-2.0995 1.2425-4.2453 4.8477-4.2441 3.2645-.0001 3.4531-.8498 3.4531-2.5284v-12.0918l-15.2187 2.5313v18.2881c-.0002 2.3972-1.897 5.1035-6.2256 5.1035-3.865-.0002-4.8418-2.5286-4.8418-4.2354 0-2.0994 1.2425-4.246 4.8476-4.246 3.265-.0001 3.4532-.8477 3.4532-2.5264v-18.6514c-.0005-.7021.5055-1.2973 1.1865-1.3974l17.9365-2.8155c.0134-.002.0267-.0042.04-.0058l.0293-.0059c.0582-.0075.1171-.0108.1758-.0107zm-34.0664-4.8418c.4104-.0004.8035.1661 1.0879.4619.2845.2958.4354.6954.419 1.1055.3834 3.9888 3.5629 7.1337 7.5556 7.4746.8277.0218 1.4875.6994 1.4873 1.5273-.011.8245-.6823 1.4873-1.5068 1.4873-3.9934.4441-7.1343 3.6183-7.5361 7.6162-.0435.8162-.7296 1.4495-1.5469 1.4268-.8088-.0216-1.4563-.6785-1.4668-1.4873-.2356-4.056-3.461-7.2985-7.5156-7.5557-.82799.0002-1.5056-.6596-1.52739-1.4873-.00533-.3997.14889-.7849.42774-1.0713s.65985-.4508 1.05955-.456c4.0136-.3452 7.1998-3.5225 7.5557-7.5352-.0055-.4014.1517-.7884.4355-1.0723.2838-.2835.6702-.4399 1.0713-.4345zm12.3848-7.2637c.5285-.00044.9637.41633.9853.94434l.1006.66306c.2508 1.7724 1.6436 3.1652 3.416 3.416h.6631c.4785.0963.8222.5169.8223 1.0049 0 .4881-.3438.9086-.8223 1.0049h-.6631c-1.8036.2176-3.2377 1.6179-3.497 3.416l-.1006.6631c-.0613.4962-.4844.868-.9844.8643-.5011-.0037-.9262-.3694-1.0049-.8643v-.6631c-.2509-1.7723-1.6436-3.1652-3.416-3.416h-.6631c-.4785-.0962-.8222-.5168-.8222-1.0049s.3437-.9086.8222-1.0049h.6631c1.8294-.2257 3.2713-1.6667 3.4971-3.4961v-.66304c.0786-.49479.5029-.86041 1.0039-.86426z" fill="#000"/></svg>