<svg width="24" height="24" viewBox="0 0 24 24" fill="none" xmlns="http://www.w3.org/2000/svg">
<g id="Icon/Fill/music">
<path id="Mask" fill-rule="evenodd" clip-rule="evenodd" d="M18.9473 14.9922V4.0002C18.9473 3.6972 18.8093 3.4092 18.5733 3.2202C18.3363 3.0302 18.0243 2.9582 17.7303 3.0242L8.75931 5.0172C8.30131 5.1192 7.97531 5.5252 7.97531 5.9932V14.3342C7.53531 14.1342 7.05131 14.0152 6.53631 14.0152C4.61031 14.0152 3.04431 15.5822 3.04431 17.5082C3.04431 19.4332 4.61031 21.0002 6.53631 21.0002C8.46231 21.0002 10.0283 19.4332 10.0283 17.5082C10.0283 17.3292 10.0023 17.1582 9.97531 16.9862V6.7962L16.9473 5.2462V12.3412C16.5073 12.1402 16.0223 12.0222 15.5083 12.0222C13.5823 12.0222 12.0153 13.5882 12.0153 15.5142C12.0153 17.4402 13.5823 19.0062 15.5083 19.0062C17.4333 19.0062 19.0003 17.4402 19.0003 15.5142C19.0003 15.3352 18.9733 15.1642 18.9473 14.9922Z" fill="#231F20"/>
<mask id="mask0" mask-type="alpha" maskUnits="userSpaceOnUse" x="3" y="3" width="17" height="19">
<path id="Mask_2" fill-rule="evenodd" clip-rule="evenodd" d="M18.9473 14.9922V4.0002C18.9473 3.6972 18.8093 3.4092 18.5733 3.2202C18.3363 3.0302 18.0243 2.9582 17.7303 3.0242L8.75931 5.0172C8.30131 5.1192 7.97531 5.5252 7.97531 5.9932V14.3342C7.53531 14.1342 7.05131 14.0152 6.53631 14.0152C4.61031 14.0152 3.04431 15.5822 3.04431 17.5082C3.04431 19.4332 4.61031 21.0002 6.53631 21.0002C8.46231 21.0002 10.0283 19.4332 10.0283 17.5082C10.0283 17.3292 10.0023 17.1582 9.97531 16.9862V6.7962L16.9473 5.2462V12.3412C16.5073 12.1402 16.0223 12.0222 15.5083 12.0222C13.5823 12.0222 12.0153 13.5882 12.0153 15.5142C12.0153 17.4402 13.5823 19.0062 15.5083 19.0062C17.4333 19.0062 19.0003 17.4402 19.0003 15.5142C19.0003 15.3352 18.9733 15.1642 18.9473 14.9922Z" fill="white"/>
</mask>
<g mask="url(#mask0)">
<g id="&#240;&#159;&#142;&#168; Color">
<rect id="Base" width="24" height="24" fill="#0D1C2E"/>
</g>
</g>
</g>
</svg>
