<svg fill="none" height="24" viewBox="0 0 24 24" width="24" xmlns="http://www.w3.org/2000/svg"><path clip-rule="evenodd" d="m18.9473 14.9922v-10.992c0-.303-.138-.591-.374-.78-.237-.19-.549-.262-.843-.196l-8.97099 1.993c-.458.102-.784.508-.784.976v8.341c-.44-.2-.924-.319-1.439-.319-1.926 0-3.492 1.567-3.492 3.493 0 1.925 1.566 3.492 3.492 3.492s3.49199-1.567 3.49199-3.492c0-.179-.026-.35-.05299-.522v-10.19l6.97199-1.55v7.095c-.44-.201-.925-.319-1.439-.319-1.926 0-3.493 1.566-3.493 3.492s1.567 3.492 3.493 3.492c1.925 0 3.492-1.566 3.492-3.492 0-.179-.027-.35-.053-.522" fill="#6b7280" fill-rule="evenodd"/></svg>