<svg fill="none" height="64" viewBox="0 0 64 64" width="64" xmlns="http://www.w3.org/2000/svg"><path clip-rule="evenodd" d="m36.4452 58.667c-.056 0-.1093-.0027-.1627-.0053-1.2053-.072-2.2106-.9467-2.4506-2.1307l-4.1014-20.1787c-.2133-1.0506-1.032-1.8693-2.0826-2.0826l-20.17869-4.104c-1.184-.2374-2.05867-1.2427-2.13067-2.448-.072-1.208.672-2.312 1.81867-2.6907l42.66669-14.2213c.9573-.3254 2.0133-.0747 2.728.6426.7147.7147.9627 1.7707.6453 2.728l-14.224 42.6667c-.3627 1.096-1.3867 1.824-2.528 1.824z" fill="#6b7280" fill-rule="evenodd"/></svg>