<svg viewBox="0 0 64 64" fill="none" xmlns="http://www.w3.org/2000/svg">
<path fill-rule="evenodd" clip-rule="evenodd" d="M8.66071 29.4051C8.66071 29.4051 13.965 21.8787 24.5559 21.1001V18.3695C12.8252 19.2756 2.66675 28.8304 2.66675 28.8304C2.66675 28.8304 8.4203 44.8257 24.5559 46.2904V43.388C12.7148 41.9554 8.66071 29.4051 8.66071 29.4051ZM24.5559 37.6158V40.2739C15.6067 38.7397 13.1226 29.7932 13.1226 29.7932C13.1226 29.7932 17.4195 25.2154 24.5559 24.473V27.3897C24.5505 27.3897 24.5467 27.3881 24.5423 27.3881C20.7967 26.9558 17.8706 30.3209 17.8706 30.3209C17.8706 30.3209 19.5107 35.9857 24.5559 37.6158ZM24.5559 13.3333V18.3695C24.9003 18.3442 25.2447 18.3226 25.5909 18.3113C38.9275 17.879 47.6172 28.8304 47.6172 28.8304C47.6172 28.8304 37.6369 40.5016 27.2389 40.5016C26.286 40.5016 25.3939 40.4165 24.5559 40.2737V43.388C25.2725 43.4755 26.0154 43.527 26.7906 43.527C36.4666 43.527 43.464 38.7746 50.2394 33.1503C51.3629 34.0154 55.962 36.1203 56.9072 37.0418C50.465 42.2288 35.4508 46.4101 26.9389 46.4101C26.1184 46.4101 25.3304 46.3622 24.5559 46.2904V50.6666H61.3334V13.3333H24.5559ZM24.5559 24.473V21.1001C24.8968 21.0772 25.2402 21.0597 25.5909 21.0491C35.1812 20.7594 41.4731 28.9747 41.4731 28.9747C41.4731 28.9747 34.6774 38.0515 27.3908 38.0515C26.3421 38.0515 25.4021 37.8894 24.5559 37.6158V27.3897C28.2895 27.8235 29.0406 29.4095 31.2853 33.0082L36.2775 28.9598C36.2775 28.9598 32.6333 24.3635 26.4901 24.3635C25.8224 24.3633 25.1834 24.4084 24.5559 24.473Z" fill="#141414"/>
</svg>