<svg viewBox="0 0 64 64" fill="none" xmlns="http://www.w3.org/2000/svg">
<path fill-rule="evenodd" clip-rule="evenodd" d="M37.3334 48.9097C37.3334 51.307 34.8907 53.3337 32 53.3337C29.1094 53.3337 26.6667 51.307 26.6667 48.9097V48.0004H37.3334V48.9097ZM54.7226 40.5526L49.9199 35.7446V23.8299C49.9199 14.5472 43.2479 6.66455 34.3973 5.49121C29.2746 4.81121 24.1013 6.37388 20.2213 9.77655C16.3173 13.1952 14.0799 18.1152 14.0799 23.2726L14.0773 35.7446L9.27725 40.5552C8.02658 41.8059 7.65592 43.6726 8.33325 45.3072C9.01325 46.9419 10.5946 48.0006 12.3653 48.0006H21.3333V48.9099C21.3333 54.2912 26.1173 58.6672 31.9999 58.6672C37.8826 58.6672 42.6666 54.2912 42.6666 48.9099V48.0006H51.6319C53.4026 48.0006 54.9839 46.9446 55.6613 45.3072C56.3413 43.6726 55.9706 41.8059 54.7226 40.5526Z" fill="#141414"/>
</svg>