<svg width="64" height="64" viewBox="0 0 64 64" fill="none" xmlns="http://www.w3.org/2000/svg">
<path d="M28.8916 40.9668C28.9816 40.9966 29.0736 41.0228 29.166 41.0488V57.377C29.166 57.4998 29.1763 57.6208 29.1914 57.7393C28.7276 57.5011 28.2909 57.1914 27.8975 56.8105C27.8848 56.7983 27.8718 56.785 27.8594 56.7725L6.41797 35.0781L6.4209 35.0752C6.18402 34.8395 5.9732 34.5824 5.79199 34.3076L28.8916 40.9668ZM57.8389 33.7783C57.6053 34.2536 57.2947 34.6926 56.9121 35.0732L56.9141 35.0752L35.4727 56.7695C35.4609 56.7814 35.4495 56.794 35.4375 56.8057C35.0433 57.1883 34.6048 57.4982 34.1396 57.7373C34.1546 57.6194 34.166 57.4992 34.166 57.377V41.0479C34.2577 41.0221 34.3492 40.9963 34.4385 40.9668L34.4404 40.9688L57.8389 33.7783ZM29.166 36.002L5.66602 29.2295C5.87336 28.8784 6.12678 28.5522 6.4209 28.2598H6.41797L27.8594 6.56543C27.871 6.55365 27.8827 6.54083 27.8945 6.5293C28.2812 6.15383 28.7107 5.84852 29.166 5.61133V36.002ZM34.166 5.61133C34.4671 5.76818 34.7569 5.95459 35.0303 6.17188L35.4375 6.5293L35.4727 6.56543L56.8828 28.2266C57.0758 28.4153 57.2503 28.6196 57.4072 28.835L34.166 35.9814V5.61133Z" fill="#141416"/>
</svg>
