<svg viewBox="0 0 64 64" fill="none" xmlns="http://www.w3.org/2000/svg">
<path fill-rule="evenodd" clip-rule="evenodd" d="M44.8658 31.3642C44.8894 31.3764 44.9102 31.394 44.9257 31.4163C44.9411 31.4388 44.951 31.4671 44.9544 31.4944V54.0309C44.3277 54.7472 43.6293 55.3993 42.8658 55.9736C40.5301 57.7304 37.7159 58.6741 34.8294 58.6663C32.9119 58.6787 31.0131 58.2668 29.2617 57.4579C27.788 56.7771 26.4499 55.825 25.3033 54.6559C27.0075 53.5059 28.6263 52.4183 28.6705 52.3902L39.4335 45.9475C39.7028 45.7885 39.9269 45.5589 40.082 45.2809C40.2375 45.002 40.3182 44.6835 40.3164 44.3616V28.6428L44.8658 31.3642Z M12.1809 38.5413L22.944 44.9814C23.2122 45.1438 23.5187 45.2288 23.8294 45.2288C24.1396 45.2286 24.4442 45.1436 24.7122 44.9814L37.8528 37.122V42.5647C37.8542 42.5922 37.8484 42.6205 37.8372 42.6455C37.826 42.6702 37.8087 42.6915 37.7877 42.708L26.9075 49.2158C25.888 49.8241 22.369 51.8412 18.5247 53.8668C17.7576 53.6688 17.0041 53.404 16.2747 53.0673C13.6384 51.8506 11.4436 49.7982 10.0065 47.2053C9.03714 45.491 8.43261 43.5824 8.23302 41.6064C8.05626 39.8562 8.19861 38.0889 8.6549 36.3981C9.81026 37.1006 12.0947 38.4898 12.1809 38.5413Z M39.1757 19.4501L50.0585 25.958C51.2689 26.6822 55.4834 28.9669 58.0481 30.8408C58.3148 31.7253 58.4978 32.641 58.5924 33.5725C58.894 36.5444 58.2759 39.5393 56.8294 42.1246C55.8805 43.8512 54.5872 45.3485 53.0351 46.5152C51.6666 47.5438 50.1238 48.2947 48.4908 48.7314V31.6298C48.4934 31.3088 48.4133 30.9917 48.2591 30.7132C48.1048 30.4352 47.8817 30.2035 47.6132 30.0439L34.4752 22.1845L39.0221 19.4632C39.0444 19.448 39.071 19.4397 39.0976 19.4371C39.1241 19.4346 39.1512 19.4394 39.1757 19.4501Z M15.5065 29.6975C15.5046 30.019 15.5858 30.3356 15.7408 30.6142C15.896 30.8926 16.1196 31.1243 16.3893 31.2835L29.5299 39.1428L24.9804 41.8642C24.9581 41.8795 24.9315 41.8877 24.9049 41.8902C24.8784 41.8926 24.8513 41.888 24.8268 41.8772L13.9466 35.3642C12.3015 34.3772 8.35105 32.4389 5.93615 30.4397C5.67774 29.5705 5.50007 28.6717 5.4075 27.7574C5.10669 24.7842 5.72478 21.7884 7.17313 19.2027C8.12218 17.4756 9.41724 15.9791 10.97 14.8121C12.3368 13.7849 13.8756 13.0329 15.5065 12.596V29.6975Z M29.1705 2.66628C31.0874 2.65395 32.9847 3.06617 34.7356 3.87462C36.3809 4.63448 37.8588 5.73186 39.0872 7.09337C37.2487 7.9965 35.3801 8.91467 35.332 8.94493L24.5716 15.385C24.3015 15.5441 24.0761 15.7757 23.9205 16.0543C23.7652 16.3328 23.6845 16.6494 23.6861 16.971L23.6783 32.6845L19.1289 29.9632C19.1052 29.9509 19.0843 29.9335 19.069 29.9111C19.0537 29.8887 19.0436 29.8628 19.0403 29.8356V16.8173C19.0411 15.4798 19.0821 10.4168 19.108 7.22878C19.7189 6.5401 20.3981 5.91174 21.1367 5.35639C23.4715 3.60091 26.2857 2.65907 29.1705 2.66628Z M46.3919 7.7366C46.8431 7.88853 47.2888 8.06381 47.7252 8.26524C50.3613 9.482 52.5565 11.5343 53.9934 14.1272C54.9628 15.8414 55.5672 17.7503 55.7669 19.7262C55.9389 21.4298 55.8043 23.1493 55.3763 24.7991C53.6475 23.8204 51.8729 22.8166 51.8216 22.7861L41.0585 16.346C40.7906 16.1843 40.486 16.0986 40.1757 16.0986C39.8657 16.0986 39.5609 16.1843 39.2929 16.346L26.1523 24.208V18.7652C26.1508 18.7375 26.1567 18.7096 26.1679 18.6845C26.1793 18.6593 26.1959 18.6361 26.2174 18.6194L37.0976 12.1168C38.4132 11.3311 43.3993 8.75236 46.3919 7.7366Z" fill="#141414"/>
</svg>