<svg fill="none" height="24" viewBox="0 0 24 24" width="24" xmlns="http://www.w3.org/2000/svg"><path clip-rule="evenodd" d="m3.00003 7h1.185c.414 1.161 1.513 2 2.815 2s2.401-.839 2.815-2h11.18497c.553 0 1-.447 1-1s-.447-1-1-1h-11.18497c-.414-1.161-1.513-2-2.815-2s-2.401.839-2.815 2h-1.185c-.553 0-1 .447-1 1s.447 1 1 1zm15.99997 2c-1.302 0-2.401.839-2.815 2h-13.18497c-.553 0-1 .447-1 1s.447 1 1 1h13.18497c.414 1.161 1.513 2 2.815 2 1.654 0 3-1.346 3-3s-1.346-3-3-3zm-5.185 8h7.185c.553 0 1 .447 1 1s-.447 1-1 1h-7.185c-.414 1.161-1.513 2-2.815 2-1.30197 0-2.40097-.839-2.81497-2h-5.185c-.553 0-1-.447-1-1s.447-1 1-1h5.185c.414-1.161 1.513-2 2.81497-2 1.302 0 2.401.839 2.815 2z" fill="#6b7280" fill-rule="evenodd"/></svg>