<svg fill="none" height="64" viewBox="0 0 64 64" width="64" xmlns="http://www.w3.org/2000/svg"><path clip-rule="evenodd" d="m18.6667 37.8254v-29.8267c0-1.472-1.192-2.66667-2.6667-2.66667s-2.6667 1.19467-2.6667 2.66667v29.8267c-3.096 1.104-5.3333 4.0373-5.3333 7.5066 0 3.472 2.2373 6.4054 5.3333 7.5094v3.1573c0 1.4747 1.192 2.6667 2.6667 2.6667s2.6667-1.192 2.6667-2.6667v-3.1573c3.096-1.104 5.3333-4.0374 5.3333-7.5094 0-3.4693-2.2373-6.4026-5.3333-7.5066zm37.3333-3.1578c0-3.472-2.2373-6.4027-5.3333-7.5067v-19.15998c0-1.47467-1.192-2.66667-2.6667-2.66667s-2.6667 1.192-2.6667 2.66667v19.15998c-3.096 1.104-5.3333 4.0347-5.3333 7.5067s2.2373 6.4027 5.3333 7.5067v13.8266c0 1.4747 1.192 2.6667 2.6667 2.6667s2.6667-1.192 2.6667-2.6667v-13.8266c3.096-1.104 5.3333-4.0347 5.3333-7.5067zm-24-29.33335c4.4107 0 8 3.58934 8 8.00005 0 3.472-2.2373 6.4026-5.3333 7.5066v35.16c0 1.4747-1.192 2.6667-2.6667 2.6667s-2.6667-1.192-2.6667-2.6667v-35.16c-3.096-1.104-5.3333-4.0346-5.3333-7.5066 0-4.41071 3.5893-8.00005 8-8.00005z" fill="#6b7280" fill-rule="evenodd"/></svg>