<svg fill="none" height="64" viewBox="0 0 64 64" width="64" xmlns="http://www.w3.org/2000/svg"><path clip-rule="evenodd" d="m8.00016 18.6669h3.16004c1.104 3.096 4.0346 5.3333 7.5066 5.3333s6.4027-2.2373 7.5067-5.3333h29.8267c1.4746 0 2.6666-1.192 2.6666-2.6667 0-1.4746-1.192-2.6666-2.6666-2.6666h-29.8267c-1.104-3.096-4.0347-5.33336-7.5067-5.33336s-6.4026 2.23736-7.5066 5.33336h-3.16004c-1.47466 0-2.66666 1.192-2.66666 2.6666 0 1.4747 1.192 2.6667 2.66666 2.6667zm42.66664 5.3333c-3.472 0-6.4026 2.2374-7.5066 5.3334h-35.16004c-1.47466 0-2.66666 1.192-2.66666 2.6666 0 1.4747 1.192 2.6667 2.66666 2.6667h35.16004c1.104 3.096 4.0346 5.3333 7.5066 5.3333 4.4107 0 8-3.5893 8-8 0-4.4106-3.5893-8-8-8zm-13.8266 21.3334h19.16c1.4746 0 2.6666 1.192 2.6666 2.6666 0 1.4747-1.192 2.6667-2.6666 2.6667h-19.16c-1.104 3.096-4.0347 5.3333-7.5067 5.3333s-6.4027-2.2373-7.5067-5.3333h-13.82664c-1.47466 0-2.66666-1.192-2.66666-2.6667 0-1.4746 1.192-2.6666 2.66666-2.6666h13.82664c1.104-3.096 4.0347-5.3334 7.5067-5.3334s6.4027 2.2374 7.5067 5.3334z" fill="#6b7280" fill-rule="evenodd"/></svg>