<svg fill="none" height="24" viewBox="0 0 24 24" width="24" xmlns="http://www.w3.org/2000/svg"><path clip-rule="evenodd" d="m7 14.1845v-11.18499c0-.552-.447-1-1-1s-1 .448-1 1v11.18499c-1.161.414-2 1.514-2 2.815 0 1.302.839 2.402 2 2.816v1.184c0 .553.447 1 1 1s1-.447 1-1v-1.184c1.161-.414 2-1.514 2-2.816 0-1.301-.839-2.401-2-2.815zm14-1.1845c0-1.302-.839-2.401-2-2.815v-7.18499c0-.553-.447-1-1-1s-1 .447-1 1v7.18499c-1.161.414-2 1.513-2 2.815s.839 2.401 2 2.815v5.185c0 .553.447 1 1 1s1-.447 1-1v-5.185c1.161-.414 2-1.513 2-2.815zm-9-10.99999c1.654 0 3 1.346 3 3 0 1.302-.839 2.401-2 2.815v13.18499c0 .553-.447 1-1 1s-1-.447-1-1v-13.18499c-1.161-.414-2-1.513-2-2.815 0-1.654 1.346-3 3-3z" fill="#6b7280" fill-rule="evenodd"/></svg>