<svg fill="none" height="24" viewBox="0 0 24 24" width="24" xmlns="http://www.w3.org/2000/svg"><path clip-rule="evenodd" d="m5.00002 8.00006h3.818v-2.99999h-3.818zm0 4.99984h3.818v-2.99997h-3.818zm3.818 4.0911c0 1.053-.856 1.909-1.909 1.909s-1.909-.856-1.909-1.909v-2.091h3.818zm1.99998-13.091c0-.553-.447-1-1-1h-5.818c-.553 0-1 .447-1 1v13.091c0 2.155 1.754 3.909 3.909 3.909s3.909-1.754 3.909-3.909zm9.182 9.1815h-2.695l-1.865 2-3.559 3.818-1.415 1.518-.449.482h9.983c.553 0 1-.447 1-1v-5.818c0-.553-.447-1-1-1zm-5.9465-7.73773 4.136 3.856c.404.377.427 1.01003.05 1.41303l-6.479 6.949c.0059-.048.0125-.0958.0191-.1437.0194-.1407.0389-.2818.0389-.4273v-2.423-5.36003-2.933l.822-.882c.181-.194.432-.308.696-.317.274-.022.524.087.717.268z" fill="#6b7280" fill-rule="evenodd"/></svg>