<svg fill="none" height="64" viewBox="0 0 64 64" width="64" xmlns="http://www.w3.org/2000/svg"><path clip-rule="evenodd" d="m13.3334 21.3335h10.1813v-8h-10.1813zm0 13.333h10.1813v-8h-10.1813zm10.1813 10.9095c0 2.808-2.2827 5.0907-5.0907 5.0907s-5.0906-2.2827-5.0906-5.0907v-5.576h10.1813zm5.3333-34.9093c0-1.4747-1.192-2.6667-2.6667-2.6667h-15.5146c-1.4747 0-2.6667 1.192-2.6667 2.6667v34.9093c0 5.7467 4.6773 10.424 10.424 10.424s10.424-4.6773 10.424-10.424zm24.4852 24.4841h-7.1866l-4.9734 5.3333-9.4906 10.1813-3.7733 4.048-1.1974 1.2854h26.6213c1.4747 0 2.6667-1.192 2.6667-2.6667v-15.5147c0-1.4746-1.192-2.6666-2.6667-2.6666zm-15.8571-20.6341 11.0293 10.2827c1.0773 1.0053 1.1387 2.6933.1333 3.768l-17.2773 18.5306c.0156-.1278.0332-.2554.0508-.383.0519-.3754.1039-.7516.1039-1.1396v-6.4614-14.2933-7.8213l2.192-2.352c.4826-.5174 1.152-.8214 1.856-.8454.7306-.0586 1.3973.232 1.912.7147z" fill="#6b7280" fill-rule="evenodd"/></svg>