<svg fill="none" height="64" viewBox="0 0 64 64" width="64" xmlns="http://www.w3.org/2000/svg"><path clip-rule="evenodd" d="m40.0001 47.5677-4.9493-14.8453 14.848-14.8507zm6.128-33.4668-14.848 14.848-14.848-4.9493zm12.5121-6.23984c-.0134-.248-.0587-.488-.1414-.72-.0266-.08266-.056-.16266-.0933-.24266-.128-.28534-.2907-.55467-.52-.784-.2293-.22934-.4987-.392-.7867-.52-.0773-.03734-.1546-.06667-.2373-.09334-.2373-.08266-.48-.13066-.7333-.144-.0587-.00266-.112-.016-.1734-.016-.2666.00534-.536.04267-.7973.128l-48 16.00004c-1.09067.3653-1.824 1.3813-1.824 2.5306 0 1.1494.73333 2.168 1.824 2.5307l22.7333 7.5787 7.5814 22.736c.3626 1.088 1.3786 1.8213 2.528 1.8213 1.1493 0 2.1653-.7333 2.528-1.8213l16-48.00004c.0853-.264.1253-.53066.128-.79733.0026-.064-.0134-.12267-.016-.18667z" fill="#6b7280" fill-rule="evenodd"/></svg>