<svg fill="none" height="24" viewBox="0 0 24 24" width="24" xmlns="http://www.w3.org/2000/svg"><path clip-rule="evenodd" d="m15 17.8379-1.856-5.567 5.568-5.56897zm2.298-12.55003-5.568 5.56803-5.56802-1.85604zm4.692-2.33994c-.005-.093-.022-.183-.053-.27-.01-.031-.021-.061-.035-.091-.048-.107-.109-.208-.195-.294s-.187-.147-.295-.195c-.029-.014-.058-.025-.089-.035-.089-.031-.18-.049-.275-.054-.022-.001-.042-.006-.065-.006-.1.002-.201.016-.299.048l-17.99998 6c-.409.137-.684.518-.684.949s.275.813.684.949l8.52498 2.84197 2.843 8.526c.136.408.517.683.948.683s.812-.275.948-.683l6-17.99997c.032-.099.047-.199.048-.299.001-.024-.005-.046-.006-.07z" fill="#6b7280" fill-rule="evenodd"/></svg>