<svg width="24" height="24" viewBox="0 0 24 24" fill="none" xmlns="http://www.w3.org/2000/svg">
<g id="Icon/Fill/pause-circle">
<path id="Mask" fill-rule="evenodd" clip-rule="evenodd" d="M15.9995 15C15.9995 15.55 15.5495 16 14.9995 16C14.4495 16 13.9995 15.55 13.9995 15V9C13.9995 8.45 14.4495 8 14.9995 8C15.5495 8 15.9995 8.45 15.9995 9V15ZM9.99951 15C9.99951 15.55 9.54951 16 8.99951 16C8.44951 16 7.99951 15.55 7.99951 15V9C7.99951 8.45 8.44951 8 8.99951 8C9.54951 8 9.99951 8.45 9.99951 9V15ZM11.9995 2C6.48551 2 1.99951 6.486 1.99951 12C1.99951 17.514 6.48551 22 11.9995 22C17.5145 22 21.9995 17.514 21.9995 12C21.9995 6.486 17.5145 2 11.9995 2Z" fill="#231F20"/>
<mask id="mask0" mask-type="alpha" maskUnits="userSpaceOnUse" x="1" y="2" width="21" height="20">
<path id="Mask_2" fill-rule="evenodd" clip-rule="evenodd" d="M15.9995 15C15.9995 15.55 15.5495 16 14.9995 16C14.4495 16 13.9995 15.55 13.9995 15V9C13.9995 8.45 14.4495 8 14.9995 8C15.5495 8 15.9995 8.45 15.9995 9V15ZM9.99951 15C9.99951 15.55 9.54951 16 8.99951 16C8.44951 16 7.99951 15.55 7.99951 15V9C7.99951 8.45 8.44951 8 8.99951 8C9.54951 8 9.99951 8.45 9.99951 9V15ZM11.9995 2C6.48551 2 1.99951 6.486 1.99951 12C1.99951 17.514 6.48551 22 11.9995 22C17.5145 22 21.9995 17.514 21.9995 12C21.9995 6.486 17.5145 2 11.9995 2Z" fill="white"/>
</mask>
<g mask="url(#mask0)">
<g id="&#240;&#159;&#142;&#168; Color">
<rect id="Base" width="24" height="24" fill="#0D1C2E"/>
</g>
</g>
</g>
</svg>
