<svg fill="none" height="64" viewBox="0 0 64 64" width="64" xmlns="http://www.w3.org/2000/svg"><path clip-rule="evenodd" d="m42.6654 40.0002c0 1.4666-1.2 2.6666-2.6667 2.6666s-2.6667-1.2-2.6667-2.6666v-16c0-1.4667 1.2-2.6667 2.6667-2.6667s2.6667 1.2 2.6667 2.6667zm-16 0c0 1.4666-1.2 2.6666-2.6667 2.6666s-2.6667-1.2-2.6667-2.6666v-16c0-1.4667 1.2-2.6667 2.6667-2.6667s2.6667 1.2 2.6667 2.6667zm5.3333-34.6667c-14.704 0-26.66667 11.9627-26.66667 26.6667s11.96267 26.6666 26.66667 26.6666c14.7067 0 26.6667-11.9626 26.6667-26.6666s-11.96-26.6667-26.6667-26.6667z" fill="#6b7280" fill-rule="evenodd"/></svg>