<svg fill="none" height="64" viewBox="0 0 64 64" width="64" xmlns="http://www.w3.org/2000/svg"><path clip-rule="evenodd" d="m24.0002 29.3333c5.8826 0 10.6666-4.784 10.6666-10.6666 0-5.8827-4.784-10.6667-10.6666-10.6667-5.8827 0-10.6667 4.784-10.6667 10.6667 0 5.8826 4.784 10.6666 10.6667 10.6666zm21.3333 5.3332c4.4107 0 8-3.5893 8-8s-3.5893-8-8-8-8 3.5893-8 8 3.5893 8 8 8zm13.3333 16c0 1.472-1.192 2.6667-2.6666 2.6667h-13.3334c0 1.472-1.192 2.6666-2.6666 2.6666h-32.00004c-1.47466 0-2.66666-1.1946-2.66666-2.6666 0-10.2934 8.376-18.6667 18.6667-18.6667 5.1386 0 9.7946 2.088 13.1733 5.456 2.3173-1.792 5.1707-2.7893 8.16-2.7893 7.352 0 13.3333 5.9813 13.3333 13.3333z" fill="#6b7280" fill-rule="evenodd"/></svg>