<svg width="24" height="24" viewBox="0 0 24 24" fill="none" xmlns="http://www.w3.org/2000/svg">
<g id="Icon/Fill/people">
<path id="Mask" fill-rule="evenodd" clip-rule="evenodd" d="M9 11C11.206 11 13 9.206 13 7C13 4.794 11.206 3 9 3C6.794 3 5 4.794 5 7C5 9.206 6.794 11 9 11ZM17 13C18.654 13 20 11.654 20 10C20 8.346 18.654 7 17 7C15.346 7 14 8.346 14 10C14 11.654 15.346 13 17 13ZM22 19C22 19.552 21.553 20 21 20H16C16 20.552 15.553 21 15 21H3C2.447 21 2 20.552 2 20C2 16.14 5.141 13 9 13C10.927 13 12.673 13.783 13.94 15.046C14.809 14.374 15.879 14 17 14C19.757 14 22 16.243 22 19Z" fill="#231F20"/>
<mask id="mask0" mask-type="alpha" maskUnits="userSpaceOnUse" x="2" y="3" width="20" height="18">
<path id="Mask_2" fill-rule="evenodd" clip-rule="evenodd" d="M9 11C11.206 11 13 9.206 13 7C13 4.794 11.206 3 9 3C6.794 3 5 4.794 5 7C5 9.206 6.794 11 9 11ZM17 13C18.654 13 20 11.654 20 10C20 8.346 18.654 7 17 7C15.346 7 14 8.346 14 10C14 11.654 15.346 13 17 13ZM22 19C22 19.552 21.553 20 21 20H16C16 20.552 15.553 21 15 21H3C2.447 21 2 20.552 2 20C2 16.14 5.141 13 9 13C10.927 13 12.673 13.783 13.94 15.046C14.809 14.374 15.879 14 17 14C19.757 14 22 16.243 22 19Z" fill="white"/>
</mask>
<g mask="url(#mask0)">
<g id="&#240;&#159;&#142;&#168; Color">
<rect id="Base" width="24" height="24" fill="#0D1C2E"/>
</g>
</g>
</g>
</svg>
