<svg fill="none" height="24" viewBox="0 0 24 24" width="24" xmlns="http://www.w3.org/2000/svg"><path clip-rule="evenodd" d="m9.00002 11c2.20598 0 3.99998-1.794 3.99998-4s-1.794-4-3.99998-4c-2.20601 0-4.00001 1.794-4.00001 4s1.794 4 4.00001 4zm7.99998 1.9999c1.654 0 3-1.346 3-2.99996 0-1.65401-1.346-3.00001-3-3.00001s-3 1.346-3 3.00001c0 1.65396 1.346 2.99996 3 2.99996zm5 6c0 .552-.447 1-1 1h-5c0 .552-.447 1-1 1h-11.99998c-.553 0-1-.448-1-1 0-3.86 3.141-7 7-7 1.92698 0 3.67298.783 4.93998 2.046.869-.672 1.939-1.046 3.06-1.046 2.757 0 5 2.243 5 5z" fill="#6b7280" fill-rule="evenodd"/></svg>