<svg fill="none" height="64" viewBox="0 0 64 64" width="64" xmlns="http://www.w3.org/2000/svg"><path clip-rule="evenodd" d="m26.6667 29.3333c5.8826 0 10.6666-4.784 10.6666-10.6666 0-5.8827-4.784-10.6667-10.6666-10.6667-5.8827 0-10.6667 4.784-10.6667 10.6667 0 5.8826 4.784 10.6666 10.6667 10.6666zm29.3333-13.3335h-2.6667v-2.6666c0-1.4667-1.2-2.6667-2.6667-2.6667-1.4666 0-2.6666 1.2-2.6666 2.6667v2.6666h-2.6667c-1.4667 0-2.6667 1.2-2.6667 2.6667s1.2 2.6667 2.6667 2.6667h2.6667v2.6666c0 1.4667 1.2 2.6667 2.6666 2.6667 1.4667 0 2.6667-1.2 2.6667-2.6667v-2.6666h2.6667c1.4666 0 2.6666-1.2 2.6666-2.6667s-1.2-2.6667-2.6666-2.6667zm-10.6667 37.3334c0 1.472-1.192 2.6666-2.6666 2.6666h-32c-1.4747 0-2.6667-1.1946-2.6667-2.6666 0-10.2934 8.376-18.6667 18.6667-18.6667 10.2906 0 18.6666 8.3733 18.6666 18.6667z" fill="#6b7280" fill-rule="evenodd"/></svg>