<svg fill="none" height="24" viewBox="0 0 24 24" width="24" xmlns="http://www.w3.org/2000/svg"><path clip-rule="evenodd" d="m10 11c2.206 0 4-1.794 4-4s-1.794-4-4-4-4 1.794-4 4 1.794 4 4 4zm11.6563-6.75447c-.417-.362-1.048-.319-1.411.098l-1.866 2.145-.634-.709c-.367-.412-.999-.447-1.412-.078-.411.368-.447 1.001-.078 1.412l1.389 1.553c.19.212.461.333.745.333h.007c.287-.002.56-.127.748-.343l2.611-3c.362-.417.318-1.049-.099-1.411zm-4.6563 15.75437c0 .552-.447 1-1 1h-12c-.553 0-1-.448-1-1 0-3.86 3.141-7 7-7s7 3.14 7 7z" fill="#6b7280" fill-rule="evenodd"/></svg>