<svg fill="none" height="64" viewBox="0 0 64 64" width="64" xmlns="http://www.w3.org/2000/svg"><path clip-rule="evenodd" d="m26.6667 29.3333c5.8826 0 10.6666-4.784 10.6666-10.6666 0-5.8827-4.784-10.6667-10.6666-10.6667-5.8827 0-10.6667 4.784-10.6667 10.6667 0 5.8826 4.784 10.6666 10.6667 10.6666zm31.0834-18.0119c-1.112-.9653-2.7947-.8506-3.7627.2614l-4.976 5.72-1.6906-1.8907c-.9787-1.0987-2.664-1.192-3.7654-.208-1.096.9813-1.192 2.6693-.208 3.7653l3.704 4.1414c.5067.5653 1.2294.888 1.9867.888h.0187c.7653-.0054 1.4933-.3387 1.9946-.9147l6.9627-8c.9653-1.112.848-2.7973-.264-3.7627zm-12.4168 42.0118c0 1.472-1.192 2.6666-2.6666 2.6666h-32c-1.4747 0-2.6667-1.1946-2.6667-2.6666 0-10.2934 8.376-18.6667 18.6667-18.6667 10.2906 0 18.6666 8.3733 18.6666 18.6667z" fill="#6b7280" fill-rule="evenodd"/></svg>