<svg fill="none" height="64" viewBox="0 0 64 64" width="64" xmlns="http://www.w3.org/2000/svg"><path clip-rule="evenodd" d="m26.6667 29.3333c5.8826 0 10.6666-4.784 10.6666-10.6666 0-5.8827-4.784-10.6667-10.6666-10.6667-5.8827 0-10.6667 4.784-10.6667 10.6667 0 5.8826 4.784 10.6666 10.6667 10.6666zm27.9061-9.3336 1.9547-1.952c1.0747-1.0774 1.0747-2.8347 0-3.9094-1.0747-1.0746-2.832-1.0746-3.9067 0l-1.9546 1.9547-1.952-1.9547c-1.0774-1.0746-2.8347-1.0746-3.9094 0-1.072 1.0747-1.072 2.832 0 3.9094l1.9547 1.952-1.9547 1.952c-1.072 1.0773-1.072 2.8346 0 3.9093 1.0747 1.0747 2.832 1.0747 3.9094 0l1.952-1.9547 1.9546 1.9547c1.0747 1.0747 2.832 1.0747 3.9067 0s1.0747-2.832 0-3.9093zm-9.2395 33.3335c0 1.4746-1.192 2.6666-2.6666 2.6666h-32c-1.4747 0-2.6667-1.192-2.6667-2.6666 0-10.2907 8.376-18.6667 18.6667-18.6667 10.2906 0 18.6666 8.376 18.6666 18.6667z" fill="#6b7280" fill-rule="evenodd"/></svg>