<svg fill="none" height="64" viewBox="0 0 64 64" width="64" xmlns="http://www.w3.org/2000/svg"><path clip-rule="evenodd" d="m34.6668 10.6668c10.2907 0 18.6667 8.376 18.6667 18.6667 0 1.4747 1.192 2.6667 2.6666 2.6667 1.4747 0 2.6667-1.192 2.6667-2.6667 0-13.2347-10.7653-24-24-24-1.472 0-2.6667 1.192-2.6667 2.66666 0 1.47467 1.1947 2.66664 2.6667 2.66664zm0 10.6665c4.4107 0 8 3.5894 8 8 0 1.4747 1.192 2.6667 2.6667 2.6667 1.4746 0 2.6666-1.192 2.6666-2.6667 0-7.352-5.9813-13.3333-13.3333-13.3333-1.472 0-2.6667 1.192-2.6667 2.6667 0 1.4746 1.1947 2.6666 2.6667 2.6666zm21.4134 19.3673c.896.2053 1.624.856 1.9226 1.7227.2187.6266.3867 1.28.4934 1.9466.112.664.1706 1.3414.1706 2.032 0 6.7627-5.5013 12.2667-12.2666 12.2667-22.6427 0-41.0667-18.4213-41.0667-41.0693 0-6.7627 5.504-12.26403 12.2667-12.26403.6933 0 1.3786.05867 2.0426.17334.648.104 1.3014.26933 1.9334.488.8693.30133 1.52 1.02933 1.7253 1.92533l3.6507 15.90136c.2026.8773-.0507 1.7946-.672 2.4426-.3654.3814-.3734.3894-3.68 2.1174 2.6773 5.8 7.3306 10.4346 13.0133 13.024 1.7333-3.3094 1.7413-3.32 2.12-3.6854.6507-.6213 1.5653-.8693 2.4427-.6746z" fill="#6b7280" fill-rule="evenodd"/></svg>