<svg width="24" height="24" viewBox="0 0 24 24" fill="none" xmlns="http://www.w3.org/2000/svg">
<g id="Icon/Fill/phone-off">
<path id="Mask" fill-rule="evenodd" clip-rule="evenodd" d="M9.27337 12.0547C8.97137 11.6087 8.70137 11.1387 8.47437 10.6447C9.71337 9.9947 9.71737 9.99169 9.85437 9.84969C10.0874 9.60669 10.1824 9.26169 10.1074 8.93369L8.73837 2.96969C8.66137 2.63369 8.41737 2.36169 8.09137 2.24869C7.85437 2.16569 7.60837 2.10469 7.36537 2.06569C7.11637 2.02269 6.86037 1.99969 6.59937 1.99969C4.06337 1.99969 2.00037 4.06369 2.00037 6.59969C2.00037 10.1657 3.22937 13.4437 5.27137 16.0567L9.27337 12.0547ZM21.9355 16.6387C21.8955 16.3887 21.8325 16.1437 21.7505 15.9087C21.6385 15.5827 21.3665 15.3387 21.0305 15.2617L15.0665 13.8927C14.7375 13.8197 14.3935 13.9117 14.1505 14.1457L14.1499 14.1463C14.0075 14.2827 14.0036 14.2864 13.3545 15.5277C12.8605 15.3027 12.3895 15.0327 11.9425 14.7287L7.94347 18.7287C10.5565 20.7707 13.8335 21.9997 17.4005 21.9997C19.9365 21.9997 21.9995 19.9367 21.9995 17.4007C21.9995 17.1417 21.9775 16.8867 21.9355 16.6387ZM18.4823 4.26069C18.8303 3.91269 19.3923 3.91269 19.7393 4.26069C20.0873 4.60769 20.0873 5.16969 19.7393 5.51769L5.51727 19.7397C5.17027 20.0867 4.60727 20.0867 4.26027 19.7397C4.08727 19.5667 4.00027 19.3387 4.00027 19.1117C4.00027 18.8837 4.08727 18.6567 4.26027 18.4827L18.4823 4.26069Z" fill="#231F20"/>
<mask id="mask0" mask-type="alpha" maskUnits="userSpaceOnUse" x="2" y="1" width="20" height="21">
<path id="Mask_2" fill-rule="evenodd" clip-rule="evenodd" d="M9.27337 12.0547C8.97137 11.6087 8.70137 11.1387 8.47437 10.6447C9.71337 9.9947 9.71737 9.99169 9.85437 9.84969C10.0874 9.60669 10.1824 9.26169 10.1074 8.93369L8.73837 2.96969C8.66137 2.63369 8.41737 2.36169 8.09137 2.24869C7.85437 2.16569 7.60837 2.10469 7.36537 2.06569C7.11637 2.02269 6.86037 1.99969 6.59937 1.99969C4.06337 1.99969 2.00037 4.06369 2.00037 6.59969C2.00037 10.1657 3.22937 13.4437 5.27137 16.0567L9.27337 12.0547ZM21.9355 16.6387C21.8955 16.3887 21.8325 16.1437 21.7505 15.9087C21.6385 15.5827 21.3665 15.3387 21.0305 15.2617L15.0665 13.8927C14.7375 13.8197 14.3935 13.9117 14.1505 14.1457L14.1499 14.1463C14.0075 14.2827 14.0036 14.2864 13.3545 15.5277C12.8605 15.3027 12.3895 15.0327 11.9425 14.7287L7.94347 18.7287C10.5565 20.7707 13.8335 21.9997 17.4005 21.9997C19.9365 21.9997 21.9995 19.9367 21.9995 17.4007C21.9995 17.1417 21.9775 16.8867 21.9355 16.6387ZM18.4823 4.26069C18.8303 3.91269 19.3923 3.91269 19.7393 4.26069C20.0873 4.60769 20.0873 5.16969 19.7393 5.51769L5.51727 19.7397C5.17027 20.0867 4.60727 20.0867 4.26027 19.7397C4.08727 19.5667 4.00027 19.3387 4.00027 19.1117C4.00027 18.8837 4.08727 18.6567 4.26027 18.4827L18.4823 4.26069Z" fill="white"/>
</mask>
<g mask="url(#mask0)">
<g id="&#240;&#159;&#142;&#168; Color">
<rect id="Base" width="24" height="24" fill="#0D1C2E"/>
</g>
</g>
</g>
</svg>
