<svg fill="none" height="64" viewBox="0 0 64 64" width="64" xmlns="http://www.w3.org/2000/svg"><path clip-rule="evenodd" d="m56.2845 0h-25.126c-2.4705 0-4.4918 1.96364-4.4918 4.36364v6.54546h4.4918v-2.66668h25.126v50.42428h-25.126v-5.5758h-4.4918v6.5455c0 2.4 2.0213 4.3636 4.4918 4.3636h25.126c2.4705 0 4.4918-1.9636 4.4918-4.3636v-55.27276c0-2.4-2.0213-4.36364-4.4918-4.36364zm-9.4697 5.33333h-8.2963c-.6518 0-1.1852-.6-1.1852-1.33333s.5334-1.33333 1.1852-1.33333h8.2963c.6519 0 1.1852.6 1.1852 1.33333s-.5333 1.33333-1.1852 1.33333zm-13.6296 41.18537c1.1449 0 2.0741-.9292 2.0741-2.0741s-.9292-2.074-2.0741-2.074-2.0741.9291-2.0741 2.074.9292 2.0741 2.0741 2.0741zm-24.88884 0c1.14489 0 2.07404-.9292 2.07404-2.0741s-.92915-2.074-2.07404-2.074-2.07408.9291-2.07408 2.074.92919 2.0741 2.07408 2.0741zm29.03694-8.2968v-5.2267l-6.2222-4.9757v10.2024zm-6.2222-15.5158 9.5926 7.674c.4916.3941.7778.9894.7778 1.6199v8.2963c0 1.147-.9271 2.0741-2.0741 2.0741h-.3837c.2344.6512.3837 1.3419.3837 2.074 0 3.4306-2.7917 6.2223-6.2222 6.2223s-6.2222-2.7917-6.2222-6.2223c0-.7321.1493-1.4228.3837-2.074h-6.606-6.6059c.2344.6512.3837 1.3419.3837 2.074 0 3.4306-2.7917 6.2223-6.2222 6.2223-3.43052 0-6.22223-2.7917-6.22223-6.2223 0-.8213.168-1.6011.45837-2.3188-1.46844-.5662-2.53244-2.0927-2.53244-3.9034v-20.7407c0-2.2877 1.68622-4.1482 3.75822-4.1482h23.59258c2.0741 0 3.7603 1.8605 3.7603 4.1482z" fill="#6b7280" fill-rule="evenodd"/></svg>