<svg fill="none" height="24" viewBox="0 0 24 24" width="24" xmlns="http://www.w3.org/2000/svg"><path clip-rule="evenodd" d="m21.7505 15.9085c.082.235.145.48.185.73.042.248.064.503.064.762 0 2.536-2.063 4.599-4.599 4.599-8.492 0-15.401-6.908-15.401-15.39999 0-2.536 2.064-4.6 4.6-4.6.261 0 .517.023.766.066.243.039.489.1.726.183.325.113.57.385.647.721l1.369 5.964c.075.328-.02.673-.253.916-.13681.14281-.14099.145-1.37488.79229l-.00512.0027c.991 2.162 2.74 3.908 4.88 4.883.6491-1.2412.653-1.245.7954-1.3814l.0006-.0006c.243-.234.587-.326.916-.253l5.964 1.369c.336.077.608.321.72.647zm-4.4827-7.21042c-.404.402-1.063.402-1.466 0-.402-.403-.402-1.062 0-1.466l.733-.732-.733-.733c-.402-.403-.402-1.062 0-1.465.403-.403 1.062-.403 1.466 0l.732.733.733-.733c.403-.403 1.062-.403 1.465 0s.403 1.062 0 1.465l-.733.733.733.732c.403.404.403 1.063 0 1.466-.403.402-1.062.402-1.465 0l-.733-.733z" fill="#6b7280" fill-rule="evenodd"/></svg>