<svg fill="none" height="64" viewBox="0 0 64 64" width="64" xmlns="http://www.w3.org/2000/svg"><path clip-rule="evenodd" d="m56.2846 0h-25.126c-2.4705 0-4.4919 1.96364-4.4919 4.36364v6.30306h4.4919v-2.42428h25.126v50.42428h-25.126v-5.3334h-4.4919v6.3031c0 2.4 2.0214 4.3636 4.4919 4.3636h25.126c2.4705 0 4.4918-1.9636 4.4918-4.3636v-55.27276c0-2.4-2.0213-4.36364-4.4918-4.36364zm-9.4697 5.33333h-8.2963c-.6519 0-1.1852-.6-1.1852-1.33333s.5333-1.33333 1.1852-1.33333h8.2963c.6519 0 1.1852.6 1.1852 1.33333s-.5333 1.33333-1.1852 1.33333zm-21.3121 16.30397c0 4.5797-3.7244 8.304-8.3041 8.304-4.5796 0-8.30395-3.7243-8.30395-8.304 0-4.5796 3.72435-8.304 8.30395-8.304 4.5797 0 8.3041 3.7244 8.3041 8.304zm14.5319 6.2278c0 3.4337-2.7942 6.228-6.228 6.228-3.4337 0-6.228-2.7943-6.228-6.228s2.7943-6.228 6.228-6.228c3.4338 0 6.228 2.7943 6.228 6.228zm2.076 20.76c1.1481 0 2.076-.9301 2.076-2.076 0-5.7236-4.6564-10.38-10.38-10.38-2.3272 0-4.5485.7764-6.3525 2.1715-2.6303-2.622-6.255-4.2475-10.2555-4.2475-8.01124 0-14.53195 6.5186-14.53195 14.532 0 1.1459.92797 2.076 2.076 2.076h24.91195c1.1481 0 2.076-.9301 2.076-2.076z" fill="#6b7280" fill-rule="evenodd"/></svg>