<svg fill="none" height="24" viewBox="0 0 24 24" width="24" xmlns="http://www.w3.org/2000/svg"><path clip-rule="evenodd" d="m17.3999 22c-8.49204 0-15.40004-6.908-15.40004-15.4 0-2.537 2.064-4.6 4.6-4.6.26 0 .517.022.766.065.243.039.488.101.725.183.326.113.57.386.647.722l1.37004 5.964c.075.328-.02.672-.25304.916-.137.142-.14.145-1.38.794 1.004 2.174 2.74904 3.913 4.88004 4.883.649-1.241.653-1.245.795-1.381.245-.234.59-.325.917-.253l5.964 1.369c.335.077.608.321.721.646.082.236.143.48.184.731.042.247.064.503.064.761 0 2.537-2.063 4.6-4.6 4.6" fill="#6b7280" fill-rule="evenodd"/></svg>