<svg fill="none" height="24" viewBox="0 0 24 24" width="24" xmlns="http://www.w3.org/2000/svg"><path clip-rule="evenodd" d="m21.1067 0h-9.4223c-.9264 0-1.6844.736363-1.6844 1.63636v2.36364h1.6844v-.90909h9.4223v18.90909h-9.4223v-2h-1.6844v2.3636c0 .9.758 1.6364 1.6844 1.6364h9.4223c.9264 0 1.6844-.7364 1.6844-1.6364v-20.72724c0-.899997-.758-1.63636-1.6844-1.63636zm-3.5511 2h-3.1112c-.2444 0-.4444-.225-.4444-.5s.2-.5.4444-.5h3.1112c.2444 0 .4444.225.4444.5s-.2.5-.4444.5zm-7.9921 6.114c0 1.71737-1.39663 3.114-3.114 3.114s-3.114-1.39663-3.114-3.114 1.39663-3.114 3.114-3.114 3.114 1.39663 3.114 3.114zm5.4495 2.3354c0 1.2876-1.0479 2.3355-2.3355 2.3355s-2.3355-1.0479-2.3355-2.3355c0-1.28763 1.0479-2.3355 2.3355-2.3355s2.3355 1.04787 2.3355 2.3355zm.7785 7.785c.4305 0 .7785-.3488.7785-.7785 0-2.1463-1.7462-3.8925-3.8925-3.8925-.8727 0-1.7057.2912-2.3822.8143-.98637-.9832-2.34563-1.5928-3.8458-1.5928-3.00423 0-5.4495 2.4445-5.4495 5.4495 0 .4297.34799.7785.7785.7785h9.342c.4305 0 .7785-.3488.7785-.7785z" fill="#6b7280" fill-rule="evenodd"/></svg>