<svg fill="none" height="24" viewBox="0 0 24 24" width="24" xmlns="http://www.w3.org/2000/svg"><path clip-rule="evenodd" d="m21.1067 0h-9.4223c-.9264 0-1.6844.736363-1.6844 1.63636v2.45455h1.6844v-1h9.4223v18.90909h-9.4223v-2.0909h-1.6844v2.4545c0 .9.758 1.6364 1.6844 1.6364h9.4223c.9264 0 1.6844-.7364 1.6844-1.6364v-20.72724c0-.899997-.758-1.63636-1.6844-1.63636zm-3.5511 2h-3.1112c-.2444 0-.4444-.225-.4444-.5s.2-.5.4444-.5h3.1112c.2444 0 .4444.225.4444.5s-.2.5-.4444.5zm-5.1112 15.4445c.4294 0 .7778-.3484.7778-.7778 0-.4293-.3484-.7777-.7778-.7777-.4293 0-.7777.3484-.7777.7777 0 .4294.3484.7778.7777.7778zm-9.33326 0c.42933 0 .77777-.3484.77777-.7778 0-.4293-.34844-.7777-.77777-.7777-.42934 0-.77778.3484-.77778.7777 0 .4294.34844.7778.77778.7778zm10.88886-3.1113v-1.96l-2.3333-1.8659v3.8259zm-2.3333-5.81842 3.5972 2.87782c.1843.1477.2917.371.2917.6074v3.1111c0 .4301-.3477.7778-.7778.7778h-.1439c.0879.2442.1439.5032.1439.7778 0 1.2864-1.0469 2.3333-2.3334 2.3333-1.2864 0-2.3333-1.0469-2.3333-2.3333 0-.2746.056-.5336.1439-.7778h-2.47722-2.47722c.08788.2442.14388.5032.14388.7778 0 1.2864-1.04688 2.3333-2.33333 2.3333-1.28644 0-2.333332-1.0469-2.333332-2.3333 0-.308.063-.6005.171889-.8696-.550667-.2123-.949667-.7848-.949667-1.4638v-7.77774c0-.85789.632333-1.55556 1.40933-1.55556h8.84727c.7777 0 1.4101.69767 1.4101 1.55556z" fill="#6b7280" fill-rule="evenodd"/></svg>