<svg fill="none" height="64" viewBox="0 0 64 64" width="64" xmlns="http://www.w3.org/2000/svg"><path clip-rule="evenodd" d="m24.7291 32.1456c-.8053-1.1893-1.5253-2.4427-2.1306-3.76 3.304-1.7333 3.3146-1.7413 3.68-2.12.6213-.648.8746-1.568.6746-2.4427l-3.6506-15.90396c-.2054-.896-.856-1.62133-1.7254-1.92266-.632-.22134-1.288-.384-1.936-.488-.664-.11467-1.3466-.176-2.0426-.176-6.7627 0-12.26403 5.50402-12.26403 12.26662 0 9.5094 3.27734 18.2507 8.72263 25.2187zm33.7657 12.2243c-.1067-.6667-.2747-1.32-.4934-1.9467-.2986-.8693-1.024-1.52-1.92-1.7253l-15.904-3.6507c-.8773-.1947-1.7946.0507-2.4426.6747l-.0016.0015c-.3798.3638-.3902.3738-2.1211 3.6838-1.3173-.6-2.5733-1.32-3.7653-2.1307l-10.664 10.6667c6.968 5.4453 15.7066 8.7227 25.2186 8.7227 6.7627 0 12.264-5.5014 12.264-12.264 0-.6907-.0586-1.3707-.1706-2.032zm-9.2087-33.0081c.928-.928 2.4267-.928 3.352 0 .928.9253.928 2.424 0 3.352l-37.9253 37.9253c-.9253.9254-2.4267.9254-3.352 0-.4613-.4613-.6933-1.0693-.6933-1.6746 0-.608.232-1.2134.6933-1.6774z" fill="#6b7280" fill-rule="evenodd"/></svg>