<svg fill="none" height="24" viewBox="0 0 24 24" width="24" xmlns="http://www.w3.org/2000/svg"><path clip-rule="evenodd" d="m9.2734 12.0545c-.302-.446-.572-.916-.799-1.41 1.239-.64999 1.243-.65299 1.38-.79499.233-.243.328-.588.253-.916l-1.369-5.964c-.077-.336-.321-.608-.647-.721-.237-.083-.483-.144-.726-.183-.249-.043-.505-.066-.766-.066-2.536 0-4.599 2.064-4.599 4.6 0 3.56599 1.229 6.84399 3.271 9.45699zm12.6621 4.5841c-.04-.25-.103-.495-.185-.73-.112-.326-.384-.57-.72-.647l-5.964-1.369c-.329-.073-.673.019-.916.253l-.0006.0006c-.1424.1364-.1463.1402-.7954 1.3814-.494-.225-.965-.495-1.412-.799l-3.99899 4c2.61299 2.042 5.88999 3.271 9.45699 3.271 2.536 0 4.599-2.063 4.599-4.599 0-.259-.022-.514-.064-.762zm-3.4532-12.37802c.348-.348.91-.348 1.257 0 .348.347.348.909 0 1.257l-14.22204 14.22202c-.347.347-.91.347-1.257 0-.173-.173-.26-.401-.26-.628 0-.228.087-.455.26-.629z" fill="#6b7280" fill-rule="evenodd"/></svg>