<svg fill="none" height="64" viewBox="0 0 64 64" width="64" xmlns="http://www.w3.org/2000/svg"><path clip-rule="evenodd" d="m58.0014 42.423c.2186.6266.3866 1.2799.4933 1.9466.112.6613.1707 1.3413.1707 2.032 0 6.7627-5.5014 12.264-12.264 12.264-22.6454 0-41.06937-18.4213-41.06937-41.0667 0-6.7626 5.50397-12.26662 12.26667-12.26662.696 0 1.3787.06133 2.0427.176.648.104 1.304.26666 1.936.488.8666.30133 1.52 1.02666 1.7253 1.92266l3.6507 15.90396c.2.8747-.0534 1.7947-.6747 2.4427-.3648.3808-.376.3867-3.6664 2.1129l-.0136.0071c2.6427 5.7653 7.3067 10.4213 13.0133 13.0213 1.7309-3.3099 1.7413-3.3199 2.1211-3.6837l.0016-.0016c.648-.624 1.5653-.8693 2.4427-.6747l15.904 3.6507c.896.2054 1.6213.856 1.92 1.7254zm-11.9538-19.2279c-1.0774 1.072-2.8347 1.072-3.9094 0-1.072-1.0746-1.072-2.832 0-3.9093l1.9547-1.952-1.9547-1.9547c-1.072-1.0746-1.072-2.832 0-3.9067 1.0747-1.0746 2.832-1.0746 3.9094 0l1.952 1.9547 1.9546-1.9547c1.0747-1.0746 2.832-1.0746 3.9067 0 1.0747 1.0747 1.0747 2.8321 0 3.9067l-1.9547 1.9547 1.9547 1.952c1.0747 1.0773 1.0747 2.8347 0 3.9093-1.0747 1.072-2.832 1.072-3.9067 0l-1.9546-1.9546z" fill="#6b7280" fill-rule="evenodd"/></svg>