<svg fill="none" height="64" viewBox="0 0 64 64" width="64" xmlns="http://www.w3.org/2000/svg"><path clip-rule="evenodd" d="m46.3997 58.6668c-22.6454 0-41.06669-18.4213-41.06669-41.0666 0-6.7654 5.50399-12.2667 12.26669-12.2667.6933 0 1.3786.05866 2.0426.17333.648.104 1.3014.26933 1.9334.488.8693.30133 1.52 1.02933 1.7253 1.92533l3.6533 15.90404c.2.8746-.0533 1.792-.6746 2.4426-.3654.3787-.3734.3867-3.68 2.1174 2.6773 5.7973 7.3306 10.4346 13.0133 13.0213 1.7307-3.3093 1.7413-3.32 2.12-3.6827.6533-.624 1.5733-.8666 2.4453-.6746l15.904 3.6506c.8934.2054 1.6214.856 1.9227 1.7227.2187.6293.3813 1.28.4907 1.9493.112.6587.1706 1.3414.1706 2.0294 0 6.7653-5.5013 12.2666-12.2666 12.2666z" fill="#6b7280" fill-rule="evenodd"/></svg>