<svg fill="none" height="24" viewBox="0 0 24 24" width="24" xmlns="http://www.w3.org/2000/svg"><path clip-rule="evenodd" d="m13 4c3.859 0 7 3.141 7 7 0 .553.447 1 1 1s1-.447 1-1c0-4.963-4.037-9-9-9-.552 0-1 .447-1 1s.448 1 1 1zm0 3.99994c1.654 0 3 1.34599 3 2.99996 0 .553.447 1 1 1s1-.447 1-1c0-2.75696-2.243-4.99997-5-4.99997-.552 0-1 .447-1 1.00001 0 .55299.448 1 1 1zm8.03 7.26226c.336.077.609.321.721.646.082.235.145.48.185.73.042.249.064.503.064.762 0 2.536-2.063 4.6-4.6 4.6-8.49099 0-15.39998-6.908-15.39998-15.401 0-2.536 2.064-4.599 4.6-4.599.25999 0 .517.022.766.065.243.039.488.101.725.183.326.113.57.386.647.722l1.36898 5.963c.076.329-.019.673-.25198.916-.137.143-.14.146-1.38.794 1.004 2.175 2.74898 3.913 4.87998 4.884.65-1.241.653-1.245.795-1.382.244-.233.587-.326.916-.253z" fill="#6b7280" fill-rule="evenodd"/></svg>