<svg width="64" height="64" viewBox="0 0 64 64" fill="none" xmlns="http://www.w3.org/2000/svg">
<path d="M32 5.33301C37.891 5.33302 42.667 10.109 42.667 16V21.333H48C53.8909 21.3332 58.666 26.1091 58.666 32V48C58.6658 53.8908 53.8908 58.6658 48 58.666H32C26.1092 58.6659 21.3332 53.8908 21.333 48V42.666H16C10.1091 42.666 5.33318 37.8909 5.33301 32V16C5.33301 10.109 10.109 5.33301 16 5.33301H32ZM38.7051 33.7129C37.8813 33.2189 36.8534 33.2064 36.0176 33.6797C35.1825 34.1533 34.666 35.0399 34.666 36V44C34.6662 44.9601 35.1824 45.8469 36.0176 46.3203C36.8534 46.7936 37.8813 46.7801 38.7051 46.2861L45.3721 42.2861C46.1749 41.8042 46.6659 40.9364 46.666 40C46.666 39.0634 46.1751 38.1949 45.3721 37.7129L38.7051 33.7129ZM21.3252 27.7637C19.8569 26.2956 17.4761 26.2956 16.0078 27.7637L10.7627 33.0078C11.2341 35.4712 13.3992 37.333 16 37.333H21.333V32C21.333 30.7353 21.554 29.5222 21.958 28.3965L21.3252 27.7637ZM16 10.666C13.0545 10.666 10.667 13.0545 10.667 16V25.5625L12.2373 23.9922C15.7666 20.4638 21.4734 20.4435 25.0293 23.9287C26.899 22.3124 29.3347 21.3331 32 21.333H37.333V16C37.333 13.0545 34.9455 10.666 32 10.666H16ZM18.667 13.333C20.1396 13.3332 21.333 14.5274 21.333 16V16.0254C21.333 17.498 20.1396 18.6922 18.667 18.6924C17.1942 18.6924 16 17.4981 16 16.0254V16C16 14.5272 17.1942 13.333 18.667 13.333Z" fill="#141414"/>
</svg>
