<svg width="64" height="64" viewBox="0 0 64 64" fill="none" xmlns="http://www.w3.org/2000/svg">
<path fill-rule="evenodd" clip-rule="evenodd" d="M50.6666 5.3335C55.6696 5.3335 58.6664 10.2597 58.6666 14.8569V49.1434C58.6664 53.7406 55.6696 58.6668 50.6666 58.6668H13.3333C8.33025 58.6668 5.33341 53.7406 5.33325 49.1434V14.8569C5.33341 10.2597 8.33025 5.3335 13.3333 5.3335H50.6666ZM13.3333 10.6668C12.4454 10.6668 10.6667 11.8804 10.6666 14.8569V49.1434C10.6667 52.12 12.4454 53.3335 13.3333 53.3335H23.9999C22.5272 53.3335 21.3333 52.1396 21.3333 50.6668V37.3335C19.8605 37.3335 18.6666 36.1396 18.6666 34.6668V10.6668H13.3333ZM29.3333 34.6668C29.3333 36.1396 28.1393 37.3335 26.6666 37.3335V50.6668C26.6666 52.1396 25.4727 53.3335 23.9999 53.3335H39.9999C38.5272 53.3335 37.3333 52.1396 37.3333 50.6668V37.3335C35.8605 37.3335 34.6666 36.1396 34.6666 34.6668V10.6668H29.3333V34.6668ZM45.3332 34.6668C45.3332 36.1396 44.1393 37.3335 42.6666 37.3335V50.6668C42.6666 52.1396 41.4727 53.3335 39.9999 53.3335H50.6666C51.5544 53.3335 53.3331 52.12 53.3332 49.1434V14.8569C53.3331 11.8804 51.5544 10.6668 50.6666 10.6668H45.3332V34.6668Z" fill="#141416"/>
</svg>
