<svg fill="none" height="24" viewBox="0 0 24 24" width="24" xmlns="http://www.w3.org/2000/svg"><path clip-rule="evenodd" d="m12.9345 11.9777h8.149c.542 0 .966.472.912 1.011-.544 5.426-5.416 9.578-11.114 8.948-4.585-.506-8.312-4.233-8.819-8.818-.628-5.69805 3.522-10.57105 8.949-11.11405.54-.054 1.011.369 1.011.911v8.15105c0 .503.408.911.912.911zm8.2325-1.6445h-6.667c-.46 0-.833-.37205-.833-.83305v-6.667c0-.46.373-.833.833-.833 4.135 0 7.5 3.364 7.5 7.5 0 .461-.373.83305-.833.83305z" fill="#6b7280" fill-rule="evenodd"/></svg>