<svg width="24" height="24" viewBox="0 0 24 24" fill="none" xmlns="http://www.w3.org/2000/svg">
<g id="Icon/Fill/pie-chart">
<path id="Mask" fill-rule="evenodd" clip-rule="evenodd" d="M20.2735 8.6666C19.9075 6.1156 17.8845 4.0926 15.3335 3.7266V8.6666H20.2735ZM21.1665 10.3326H14.5005C14.0405 10.3326 13.6665 9.9606 13.6665 9.4996V2.8326C13.6665 2.3726 14.0405 1.9996 14.5005 1.9996C18.6355 1.9996 22.0005 5.3646 22.0005 9.4996C22.0005 9.9606 21.6265 10.3326 21.1665 10.3326ZM12.9345 11.9776H21.0835C21.6255 11.9776 22.0495 12.4496 21.9955 12.9886C21.4515 18.4146 16.5795 22.5666 10.8815 21.9366C6.29651 21.4306 2.56951 17.7036 2.06251 13.1186C1.43451 7.4206 5.58451 2.5476 11.0115 2.0046C11.5515 1.9506 12.0225 2.3736 12.0225 2.9156V11.0666C12.0225 11.5696 12.4305 11.9776 12.9345 11.9776Z" fill="#231F20"/>
<mask id="mask0" mask-type="alpha" maskUnits="userSpaceOnUse" x="1" y="1" width="22" height="21">
<path id="Mask_2" fill-rule="evenodd" clip-rule="evenodd" d="M20.2735 8.6666C19.9075 6.1156 17.8845 4.0926 15.3335 3.7266V8.6666H20.2735ZM21.1665 10.3326H14.5005C14.0405 10.3326 13.6665 9.9606 13.6665 9.4996V2.8326C13.6665 2.3726 14.0405 1.9996 14.5005 1.9996C18.6355 1.9996 22.0005 5.3646 22.0005 9.4996C22.0005 9.9606 21.6265 10.3326 21.1665 10.3326ZM12.9345 11.9776H21.0835C21.6255 11.9776 22.0495 12.4496 21.9955 12.9886C21.4515 18.4146 16.5795 22.5666 10.8815 21.9366C6.29651 21.4306 2.56951 17.7036 2.06251 13.1186C1.43451 7.4206 5.58451 2.5476 11.0115 2.0046C11.5515 1.9506 12.0225 2.3736 12.0225 2.9156V11.0666C12.0225 11.5696 12.4305 11.9776 12.9345 11.9776Z" fill="white"/>
</mask>
<g mask="url(#mask0)">
<g id="&#240;&#159;&#142;&#168; Color">
<rect id="Base" width="24" height="24" fill="#0D1C2E"/>
</g>
</g>
</g>
</svg>
