<svg fill="none" height="64" viewBox="0 0 64 64" width="64" xmlns="http://www.w3.org/2000/svg"><path clip-rule="evenodd" d="m34.4921 31.9406h21.7307c1.4453 0 2.576 1.2586 2.432 2.696-1.4507 14.4693-14.4427 25.5413-29.6374 23.8613-12.2266-1.3493-22.16529-11.288-23.51729-23.5147-1.67467-15.1946 9.39199-28.1893 23.86399-29.6373 1.44-.144 2.696.984 2.696 2.42933v21.73597c0 1.3414 1.088 2.4294 2.432 2.4294zm21.9533-4.3844h-17.7786c-1.2267 0-2.2214-.992-2.2214-2.2214v-17.77862c0-1.22667.9947-2.22133 2.2214-2.22133 11.0266 0 20 8.97065 20 19.99995 0 1.2294-.9947 2.2214-2.2214 2.2214z" fill="#6b7280" fill-rule="evenodd"/></svg>