<svg viewBox="0 0 64 64" fill="none" xmlns="http://www.w3.org/2000/svg">
<path fill-rule="evenodd" clip-rule="evenodd" d="M6.11479 6.11479C7.15619 5.07339 8.84422 5.07339 9.88562 6.11479L57.8856 54.1148C58.9268 55.1562 58.9269 56.8443 57.8856 57.8856C56.8443 58.9269 55.1562 58.9268 54.1148 57.8856L40.5575 44.3283L39.8309 46.271C39.6973 46.6271 39.4879 46.95 39.219 47.219L35.219 51.219C34.1776 52.2603 32.4895 52.2601 31.4481 51.219L24.0002 43.771L13.8856 53.8856C12.8443 54.9269 11.1562 54.9268 10.1148 53.8856C9.07339 52.8442 9.07339 51.1562 10.1148 50.1148L20.2294 40.0002L12.7815 32.5523C11.7401 31.5109 11.7401 29.8229 12.7815 28.7815L16.7815 24.7815C17.0504 24.5125 17.3733 24.3032 17.7294 24.1695L19.6695 23.4403L6.11479 9.88562C5.07339 8.84422 5.07339 7.15619 6.11479 6.11479Z M36.7815 8.78146C37.8229 7.74006 39.5109 7.74006 40.5523 8.78146L55.219 23.4481C56.2601 24.4895 56.2603 26.1776 55.219 27.219C54.3693 28.0686 53.0892 28.2245 52.0809 27.6877L45.219 34.5549C44.4368 35.3371 43.2896 35.5311 42.3257 35.1382C41.9961 35.0076 41.6857 34.8089 41.4195 34.5419L29.5471 22.6382C29.5149 22.6091 29.4818 22.5807 29.4507 22.5497C28.6048 21.7037 28.4457 20.4308 28.9742 19.4247C29.0974 19.1879 29.2568 18.9643 29.4559 18.7658L31.6955 16.5315L36.3101 11.9169C35.7751 10.909 35.9326 9.63031 36.7815 8.78146Z" fill="#141414"/>
</svg>