<svg fill="none" height="64" viewBox="0 0 64 64" width="64" xmlns="http://www.w3.org/2000/svg"><path clip-rule="evenodd" d="m31.9999 21.3335c-2.2054 0-4 1.7947-4 4s1.7946 4 4 4c2.2053 0 4-1.7947 4-4s-1.7947-4-4-4zm-.0001 13.3332c-5.1466 0-9.3333-4.1867-9.3333-9.3334 0-5.1466 4.1867-9.3333 9.3333-9.3333 5.1467 0 9.3334 4.1867 9.3334 9.3333 0 5.1467-4.1867 9.3334-9.3334 9.3334zm0-29.3332c-11.7626 0-21.3333 9.4773-21.3333 21.128 0 14.5973 18.7973 30.8773 19.5973 31.5627.5014.4293 1.1174.6426 1.736.6426.6187 0 1.2347-.2133 1.736-.6426.8-.6854 19.5974-16.9654 19.5974-31.5627 0-11.6507-9.5707-21.128-21.3334-21.128z" fill="#6b7280" fill-rule="evenodd"/></svg>