<svg fill="none" height="24" viewBox="0 0 24 24" width="24" xmlns="http://www.w3.org/2000/svg"><path clip-rule="evenodd" d="m12 8c-.827 0-1.5.673-1.5 1.5s.673 1.5 1.5 1.5 1.5-.673 1.5-1.5-.673-1.5-1.5-1.5zm0 4.9999c-1.93 0-3.50002-1.57-3.50002-3.49997 0-1.93 1.57002-3.5 3.50002-3.5s3.5 1.57 3.5 3.5c0 1.92997-1.57 3.49997-3.5 3.49997zm0-10.9999c-4.41102 0-8.00002 3.554-8.00002 7.923 0 5.474 7.04902 11.579 7.34902 11.836.188.161.419.241.651.241s.463-.08.651-.241c.3-.257 7.349-6.362 7.349-11.836 0-4.369-3.589-7.923-8-7.923z" fill="#6b7280" fill-rule="evenodd"/></svg>