<svg viewBox="0 0 64 64" fill="none" xmlns="http://www.w3.org/2000/svg">
<path fill-rule="evenodd" clip-rule="evenodd" d="M45.3334 5.33325C49.7517 5.33325 53.3334 8.91497 53.3334 13.3333V50.6666C53.3334 55.0849 49.7517 58.6666 45.3334 58.6666H18.6667C14.2485 58.6666 10.6667 55.0849 10.6667 50.6666V13.3333C10.6667 8.91497 14.2485 5.33325 18.6667 5.33325H45.3334ZM42.6798 45.3332C41.2072 45.3334 40.0131 46.5273 40.0131 47.9999C40.0131 49.4726 41.2072 50.6664 42.6798 50.6666H42.7058L42.9792 50.6536C44.324 50.5171 45.3725 49.3807 45.3725 47.9999C45.3725 46.6191 44.324 45.4827 42.9792 45.3463L42.7058 45.3332H42.6798ZM32.0001 18.6666C31.2654 18.6666 30.568 18.969 30.0678 19.4947L29.8673 19.7343L21.8673 30.401C21.1566 31.3489 21.1566 32.6509 21.8673 33.5989L29.8673 44.2655L30.0678 44.5051C30.568 45.0309 31.2654 45.3332 32.0001 45.3332C32.8394 45.3332 33.6293 44.937 34.1329 44.2655L42.1329 33.5989C42.8436 32.6509 42.8436 31.3489 42.1329 30.401L34.1329 19.7343C33.6293 19.0628 32.8394 18.6666 32.0001 18.6666ZM21.3204 13.3333C19.8476 13.3333 18.6537 14.5272 18.6537 15.9999C18.6537 17.4727 19.8476 18.6666 21.3204 18.6666H21.3464L21.6199 18.6536C22.9644 18.5168 24.0131 17.3805 24.0131 15.9999C24.0131 14.6193 22.9644 13.483 21.6199 13.3463L21.3464 13.3333H21.3204Z" fill="#141414"/>
</svg>