<svg fill="none" height="24" viewBox="0 0 24 24" width="24" xmlns="http://www.w3.org/2000/svg"><path clip-rule="evenodd" d="m11.5 14.5992 2.809-2.6-2.809-2.59895zm4.48-1.4206-3.642 3.37c-.319.296-.734.451-1.157.451-.233 0-.47-.048-.693-.145-.60998-.266-.98798-.835-.98798-1.485v-6.74002c0-.649.378-1.219.98798-1.484.626-.275 1.353-.155 1.851.306l3.641 3.37002c.331.305.52.735.52 1.178 0 .444-.189.873-.52 1.179zm-3.98-11.17909c-5.51398 0-9.99998 4.487-9.99998 9.99999 0 5.514 4.486 10 9.99998 10 5.514 0 10-4.486 10-10 0-5.51299-4.486-9.99999-10-9.99999z" fill="#6b7280" fill-rule="evenodd"/></svg>