<svg fill="none" height="64" viewBox="0 0 64 64" width="64" xmlns="http://www.w3.org/2000/svg"><path clip-rule="evenodd" d="m30.6669 38.9316 7.4906-6.9334-7.4906-6.9306zm11.9466-3.7885-9.712 8.9867c-.8507.7893-1.9573 1.2026-3.0853 1.2026-.6214 0-1.2534-.128-1.848-.3866-1.6267-.7094-2.6347-2.2267-2.6347-3.96v-17.9734c0-1.7306 1.008-3.2506 2.6347-3.9573 1.6693-.7333 3.608-.4133 4.936.816l9.7093 8.9867c.8827.8133 1.3867 1.96 1.3867 3.1413 0 1.184-.504 2.328-1.3867 3.144zm-10.6133-29.81082c-14.704 0-26.6667 11.96532-26.6667 26.66662 0 14.704 11.9627 26.6667 26.6667 26.6667s26.6666-11.9627 26.6666-26.6667c0-14.7013-11.9626-26.66662-26.6666-26.66662z" fill="#6b7280" fill-rule="evenodd"/></svg>