<svg fill="none" height="64" viewBox="0 0 64 64" width="64" xmlns="http://www.w3.org/2000/svg"><path clip-rule="evenodd" d="m40.0002 34.6668h-5.3334v5.3334c0 1.4666-1.2 2.6666-2.6666 2.6666-1.4667 0-2.6667-1.2-2.6667-2.6666v-5.3334h-5.3333c-1.4667 0-2.6667-1.2-2.6667-2.6666 0-1.4667 1.2-2.6667 2.6667-2.6667h5.3333v-5.3333c0-1.4667 1.2-2.6667 2.6667-2.6667 1.4666 0 2.6666 1.2 2.6666 2.6667v5.3333h5.3334c1.4666 0 2.6666 1.2 2.6666 2.6667 0 1.4666-1.2 2.6666-2.6666 2.6666zm-8-29.3333c-14.704 0-26.6667 11.9627-26.6667 26.6667s11.9627 26.6666 26.6667 26.6666 26.6666-11.9626 26.6666-26.6666-11.9626-26.6667-26.6666-26.6667z" fill="#6b7280" fill-rule="evenodd"/></svg>