<svg fill="none" height="64" viewBox="0 0 64 64" width="64" xmlns="http://www.w3.org/2000/svg"><path clip-rule="evenodd" d="m40 34.6668h-5.3333v5.3334c0 1.4666-1.2 2.6666-2.6667 2.6666-1.4666 0-2.6666-1.2-2.6666-2.6666v-5.3334h-5.3334c-1.4666 0-2.6666-1.2-2.6666-2.6666 0-1.4667 1.2-2.6667 2.6666-2.6667h5.3334v-5.3333c0-1.4667 1.2-2.6667 2.6666-2.6667 1.4667 0 2.6667 1.2 2.6667 2.6667v5.3333h5.3333c1.4667 0 2.6667 1.2 2.6667 2.6667 0 1.4666-1.2 2.6666-2.6667 2.6666zm8-26.6668h-32c-4.4107 0-8 3.5893-8 8v32c0 4.4107 3.5893 8 8 8h32c4.4107 0 8-3.5893 8-8v-32c0-4.4107-3.5893-8-8-8z" fill="#6b7280" fill-rule="evenodd"/></svg>