<svg width="24" height="24" viewBox="0 0 24 24" fill="none" xmlns="http://www.w3.org/2000/svg">
<g id="Icon/Fill/plus-square">
<path id="Mask" fill-rule="evenodd" clip-rule="evenodd" d="M15 13H13V15C13 15.55 12.55 16 12 16C11.45 16 11 15.55 11 15V13H9C8.45 13 8 12.55 8 12C8 11.45 8.45 11 9 11H11V9C11 8.45 11.45 8 12 8C12.55 8 13 8.45 13 9V11H15C15.55 11 16 11.45 16 12C16 12.55 15.55 13 15 13ZM18 3H6C4.346 3 3 4.346 3 6V18C3 19.654 4.346 21 6 21H18C19.654 21 21 19.654 21 18V6C21 4.346 19.654 3 18 3Z" fill="#000000"/>
</g>
</svg>
