<svg fill="none" height="24" viewBox="0 0 24 24" width="24" xmlns="http://www.w3.org/2000/svg"><path clip-rule="evenodd" d="m13 12c0 .553-.448 1-1 1s-1-.447-1-1v-10c0-.553.448-1 1-1s1 .447 1 1zm2.2389-8.45883c.253-.491.857-.682 1.347-.43 3.339 1.727 5.414 5.132 5.414 8.88903 0 5.513-4.486 10-10 10-5.51404 0-10.00004-4.487-10.00004-10 0-3.75703 2.075-7.16203 5.415-8.88903.489-.253 1.093-.062 1.347.43.254.49.061 1.093-.429 1.347-2.673 1.381-4.333 4.106-4.333 7.11203 0 4.411 3.589 8 8.00004 8 4.411 0 8-3.589 8-8 0-3.00603-1.66-5.73103-4.332-7.11203-.491-.254-.683-.857-.429-1.347z" fill="#6b7280" fill-rule="evenodd"/></svg>