<svg fill="none" height="64" viewBox="0 0 64 64" width="64" xmlns="http://www.w3.org/2000/svg"><path clip-rule="evenodd" d="m34.6666 31.9998c0 1.4747-1.1947 2.6667-2.6667 2.6667s-2.6666-1.192-2.6666-2.6667v-26.66663c0-1.47467 1.1946-2.66667 2.6666-2.66667s2.6667 1.192 2.6667 2.66667zm5.9704-22.55684c.6747-1.30934 2.2853-1.81867 3.592-1.14667 8.904 4.60531 14.4373 13.68531 14.4373 23.70401 0 14.7013-11.9626 26.6666-26.6666 26.6666s-26.66669-11.9653-26.66669-26.6666c0-10.0187 5.53329-19.0987 14.43999-23.70401 1.304-.67467 2.9147-.16533 3.592 1.14667.6773 1.30664.1627 2.91464-1.144 3.59204-7.128 3.6826-11.5547 10.9493-11.5547 18.9653 0 11.7627 9.5707 21.3333 21.3334 21.3333 11.7626 0 21.3333-9.5706 21.3333-21.3333 0-8.016-4.4267-15.2827-11.552-18.9653-1.3093-.6774-1.8213-2.2854-1.144-3.59204z" fill="#6b7280" fill-rule="evenodd"/></svg>