<svg fill="none" height="24" viewBox="0 0 24 24" width="24" xmlns="http://www.w3.org/2000/svg"><path clip-rule="evenodd" d="m11.5605 11.5605c-.586.586-1.535.586-2.121 0s-.586-1.536 0-2.12095c.586-.586 1.535-.586 2.121 0 .586.58495.586 1.53495 0 2.12095zm9.907.021-6.417-6.41702c-.165-.165-.382-.267-.614-.288l-9.34399-.872c-.297-.03-.589.077-.8.288s-.316.504-.289.8l.872 9.34402c.023.232.124.45.289.614l6.41699 6.418c.355.353.82.53 1.285.53s.93-.177 1.285-.531l7.316-7.316c.343-.342.532-.799.532-1.285s-.189-.942-.532-1.285z" fill="#6b7280" fill-rule="evenodd"/></svg>