<svg fill="none" height="64" viewBox="0 0 64 64" width="64" xmlns="http://www.w3.org/2000/svg"><path clip-rule="evenodd" d="m30.8279 30.828c-1.5627 1.5627-4.0933 1.5627-5.656 0-1.5627-1.5626-1.5627-4.096 0-5.656 1.5627-1.5626 4.0933-1.5626 5.656 0 1.5627 1.56 1.5627 4.0934 0 5.656zm26.4187.0559-17.112-17.112c-.44-.44-1.0187-.712-1.6373-.768l-24.9174-2.3254c-.792-.08-1.5707.2054-2.1333.768-.5627.5627-.8427 1.344-.7707 2.1334l2.3253 24.9173c.0614.6187.3307 1.2.7707 1.6373l17.112 17.1147c.9467.9413 2.1867 1.4133 3.4267 1.4133s2.48-.472 3.4267-1.416l19.5093-19.5093c.9147-.912 1.4187-2.1307 1.4187-3.4267s-.504-2.512-1.4187-3.4266z" fill="#6b7280" fill-rule="evenodd"/></svg>