<svg width="24" height="24" viewBox="0 0 24 24" fill="none" xmlns="http://www.w3.org/2000/svg">
<g id="Icon/Fill/pricetag">
<path id="Mask" fill-rule="evenodd" clip-rule="evenodd" d="M11.5606 11.5605C10.9746 12.1465 10.0256 12.1465 9.43956 11.5605C8.85356 10.9745 8.85356 10.0245 9.43956 9.43948C10.0256 8.85348 10.9746 8.85348 11.5606 9.43948C12.1466 10.0245 12.1466 10.9745 11.5606 11.5605ZM21.4676 11.5815L15.0506 5.16448C14.8856 4.99948 14.6686 4.89748 14.4366 4.87648L5.09256 4.00448C4.79556 3.97448 4.50356 4.08148 4.29256 4.29248C4.08156 4.50348 3.97656 4.79648 4.00356 5.09248L4.87556 14.4365C4.89856 14.6685 4.99956 14.8865 5.16456 15.0505L11.5816 21.4685C11.9366 21.8215 12.4016 21.9985 12.8666 21.9985C13.3316 21.9985 13.7966 21.8215 14.1516 21.4675L21.4676 14.1515C21.8106 13.8095 21.9996 13.3525 21.9996 12.8665C21.9996 12.3805 21.8106 11.9245 21.4676 11.5815Z" fill="#231F20"/>
<mask id="mask0" mask-type="alpha" maskUnits="userSpaceOnUse" x="3" y="3" width="19" height="19">
<path id="Mask_2" fill-rule="evenodd" clip-rule="evenodd" d="M11.5606 11.5605C10.9746 12.1465 10.0256 12.1465 9.43956 11.5605C8.85356 10.9745 8.85356 10.0245 9.43956 9.43948C10.0256 8.85348 10.9746 8.85348 11.5606 9.43948C12.1466 10.0245 12.1466 10.9745 11.5606 11.5605ZM21.4676 11.5815L15.0506 5.16448C14.8856 4.99948 14.6686 4.89748 14.4366 4.87648L5.09256 4.00448C4.79556 3.97448 4.50356 4.08148 4.29256 4.29248C4.08156 4.50348 3.97656 4.79648 4.00356 5.09248L4.87556 14.4365C4.89856 14.6685 4.99956 14.8865 5.16456 15.0505L11.5816 21.4685C11.9366 21.8215 12.4016 21.9985 12.8666 21.9985C13.3316 21.9985 13.7966 21.8215 14.1516 21.4675L21.4676 14.1515C21.8106 13.8095 21.9996 13.3525 21.9996 12.8665C21.9996 12.3805 21.8106 11.9245 21.4676 11.5815Z" fill="white"/>
</mask>
<g mask="url(#mask0)">
<g id="&#240;&#159;&#142;&#168; Color">
<rect id="Base" width="24" height="24" fill="#0D1C2E"/>
</g>
</g>
</g>
</svg>
