<svg fill="none" height="24" viewBox="0 0 24 24" width="24" xmlns="http://www.w3.org/2000/svg"><path clip-rule="evenodd" d="m7.5 19v-4h9l.002 4zm.51401-13.99993h7.98599v1.99999h-7.99299zm11.34899 1.99993h-1.363v-2c0-1.103-.822-2-1.833-2h-8.33398c-1.011 0-1.833.897-1.833 2v2h-1.363c-1.454 0-2.637 1.196-2.637 2.667v6.666c0 1.471 1.183 2.667 2.637 2.667h.863c0 1.103.897 2 2 2h8.99998c1.103 0 2-.897 2-2h.863c1.454 0 2.637-1.196 2.637-2.667v-6.666c0-1.471-1.183-2.667-2.637-2.667z" fill="#6b7280" fill-rule="evenodd"/></svg>