<svg width="64" height="64" viewBox="0 0 64 64" fill="none" xmlns="http://www.w3.org/2000/svg">
<path fill-rule="evenodd" clip-rule="evenodd" d="M32.7866 10.6668C20.57 10.6668 10.6666 20.5703 10.6666 32.7868C10.6666 38.3812 12.7433 43.4904 16.168 47.3858C20.2605 42.529 26.3245 39.6587 32.7866 39.6587C39.2487 39.6587 45.3127 42.529 49.4052 47.3858C52.8298 43.4904 54.9066 38.3812 54.9066 32.7868C54.9066 20.5703 45.0031 10.6668 32.7866 10.6668ZM5.33325 32.7868C5.33325 17.6248 17.6245 5.3335 32.7866 5.3335C47.9486 5.3335 60.2399 17.6248 60.2399 32.7868C60.2399 47.9489 47.9486 60.2402 32.7866 60.2402C17.6245 60.2402 5.33325 47.9489 5.33325 32.7868ZM20.5866 27.0668C20.5866 20.329 26.0487 14.8668 32.7866 14.8668C39.5245 14.8668 44.9866 20.329 44.9866 27.0668C44.9866 33.8047 39.5245 39.2668 32.7866 39.2668C26.0487 39.2668 20.5866 33.8047 20.5866 27.0668Z" fill="#141416"/>
</svg>
