<svg viewBox="0 0 64 64" fill="none" xmlns="http://www.w3.org/2000/svg">
<path fill-rule="evenodd" clip-rule="evenodd" d="M15.1464 2.00797C18.2755 1.90959 22.0136 2.72671 24.7348 4.2082C27.1537 5.53638 29.0417 7.5935 30.1003 10.0565C30.3424 10.6229 30.5089 11.1967 30.6774 11.7851C30.7399 11.3157 30.852 10.8091 30.9278 10.334C31.0498 9.53183 31.1439 8.72579 31.2095 7.91767C31.2493 7.4515 31.2718 6.9836 31.2764 6.51592C31.2826 5.84129 31.1477 5.27861 31.6469 4.69629C32.4359 3.77668 35.8906 2.83825 35.8098 4.81365C35.692 7.67161 35.098 10.7578 34.239 13.5279C34.5882 13.5955 35.1265 13.6357 35.497 13.6848C36.1076 13.7703 36.7165 13.8731 37.3205 13.9941C48.2534 16.2172 55.7369 25.1792 56.2724 35.7354C58.554 36.2573 58.6096 38.9391 56.2366 39.5403C56.2142 39.8622 56.1825 40.184 56.1431 40.5044C55.3644 46.6038 51.8298 52.373 46.7716 56.1517C43.1482 58.8348 38.7997 60.482 34.2333 60.901C20.7005 62.0945 8.98365 52.3545 7.78538 39.5556C7.60582 39.5102 7.38985 39.4527 7.22102 39.3812C6.6964 39.1589 6.29123 38.739 6.10267 38.2219C5.92708 37.7158 5.9782 37.1626 6.24463 36.694C6.58982 36.0772 7.07511 35.853 7.73114 35.6652C7.77303 35.187 7.81932 34.7086 7.87079 34.2316C8.57972 27.9801 11.8535 22.2495 16.9768 18.2915C15.6841 17.5065 15.5291 17.3929 14.357 16.372C13.5612 15.4897 13.0724 14.9388 12.7977 14.1992C12.2711 12.7806 11.801 10.7322 11.4717 9.26018C11.2792 8.40003 10.3056 3.07444 10.6441 2.53774C11.1978 2.13835 14.4102 2.02502 15.1464 2.00797ZM27.6801 44.8632C26.8412 44.9992 26.8978 45.5898 27.0488 46.2397C27.8807 49.8189 32.2052 51.5198 35.1946 48.8578C35.7642 48.2952 36.1779 47.6629 36.448 46.9417C36.7106 46.2386 37.2616 44.815 35.8363 45.0738C35.4141 45.15 34.9877 45.2324 34.5622 45.3052C32.899 45.5882 31.2773 45.4729 29.6341 45.1505C29.1774 45.0645 28.1231 44.872 27.6801 44.8632ZM41.353 28.7343C37.6222 28.9083 34.7458 31.9232 34.9269 35.4689C35.1089 39.0139 38.2791 41.749 42.0097 41.5782C45.7422 41.4066 48.6216 38.3909 48.4405 34.8437C48.2586 31.2963 45.0854 28.5609 41.353 28.7343ZM21.9326 28.7365C18.2126 28.9376 15.3636 31.9601 15.5607 35.4963C15.7579 39.0322 18.9267 41.7507 22.6482 41.5771C26.3896 41.4021 29.2698 38.3716 29.072 34.8162C28.8738 31.2612 25.6726 28.535 21.9326 28.7365ZM42.0374 30.7668C42.7052 30.7056 43.2471 30.7585 43.8725 31.0026C44.9479 31.4164 45.7999 32.2228 46.2327 33.2379C47.6597 36.5684 44.6409 40.5656 40.7817 38.9436C40.2022 38.6629 39.6974 38.2616 39.3056 37.7711C38.3212 36.5585 38.2602 35.4454 38.4596 34.0068C39.0482 34.8319 39.9845 35.3017 40.8856 34.5376C41.2091 34.2685 41.3945 33.8812 41.3946 33.4748C41.4036 32.4221 40.5952 32.0116 39.5884 32.0281C40.2427 31.2826 41.023 30.8993 42.0374 30.7668ZM22.7324 30.7602C23.4179 30.711 23.9417 30.7668 24.579 31.0278C25.6458 31.4708 26.4796 32.2974 26.893 33.3224C28.2594 36.6531 25.2116 40.6008 21.3463 38.9129C19.3516 37.8501 18.7263 36.0331 19.105 33.9892C19.5354 34.7374 20.274 35.1573 21.1501 34.7603C22.4395 34.176 22.2863 32.3505 20.8697 32.0457C20.6395 31.9959 20.4465 32.0081 20.2141 32.0149C20.9234 31.251 21.6577 30.8882 22.7324 30.7602ZM14.028 4.78184C13.823 4.79359 13.634 4.80516 13.4279 4.80597C14.0249 5.46483 14.9618 6.23349 15.6484 6.84388C17.3163 8.32646 19.0112 9.77385 20.6065 11.331C21.2904 11.9985 22.0836 12.714 22.692 13.4391C22.1569 13.4979 20.0631 13.6996 19.9902 14.2529C20.0886 14.4639 20.2955 14.5544 20.52 14.6324C21.6177 15.014 22.7742 14.9531 23.89 14.7037C24.3485 15.1041 24.8695 15.7135 25.2784 16.1757C26.0518 17.047 26.8093 17.9319 27.5509 18.8278L29.3328 18.8596L30.143 18.8936C29.708 18.4216 29.2877 17.9375 28.8516 17.4666C27.5798 16.0936 26.1803 14.8387 24.7925 13.574C24.8893 13.0077 25.2136 10.2715 24.3609 10.1015C24.1988 10.1658 24.1255 10.2435 24.0631 10.4129C23.8274 11.053 23.7086 11.6952 23.4826 12.351C21.0514 10.3013 18.5824 8.29133 16.0778 6.32288C15.715 6.03214 14.3826 4.86883 14.0915 4.77307L14.028 4.78184Z" fill="#141414"/>
</svg>