<svg fill="none" height="24" viewBox="0 0 24 24" width="24" xmlns="http://www.w3.org/2000/svg"><path clip-rule="evenodd" d="m13 12.8369v1.163c0 .553-.447 1-1 1s-1-.447-1-1v-2c0-.553.447-1 1-1 .827 0 1.5-.673 1.5-1.49997 0-.827-.673-1.5-1.5-1.5s-1.5.673-1.5 1.5c0 .55297-.447.99997-.99995.99997-.553 0-1-.447-1-.99997 0-1.93 1.56995-3.5 3.49995-3.5s3.5 1.57 3.5 3.5c0 1.57997-1.06 2.90297-2.5 3.33697zm-1 5.1632c-.553 0-1-.447-1-1s.447-1 1-1 1 .447 1 1-.447 1-1 1zm0-16.0001c-5.51397 0-9.99997 4.486-9.99997 10s4.486 10 9.99997 10c5.514 0 10-4.486 10-10s-4.486-10-10-10z" fill="#6b7280" fill-rule="evenodd"/></svg>