<svg fill="none" height="64" viewBox="0 0 64 64" width="64" xmlns="http://www.w3.org/2000/svg"><path clip-rule="evenodd" d="m31.9998 10.6665c7.352 0 13.3334 5.9813 13.3334 13.3333 0 6.4374-4.5894 11.8267-10.6667 13.0614v2.9386c0 1.4747-1.192 2.6667-2.6667 2.6667-1.4746 0-2.6666-1.192-2.6666-2.6667v-5.3333c0-1.4747 1.192-2.6667 2.6666-2.6667 4.4107 0 8-3.5893 8-8 0-4.4106-3.5893-8-8-8-4.4106 0-8 3.5894-8 8 0 1.4747-1.192 2.6667-2.6666 2.6667-1.4747 0-2.6667-1.192-2.6667-2.6667 0-7.352 5.9813-13.3333 13.3333-13.3333zm-2.6667 40.0002c0-1.4747 1.192-2.6667 2.6667-2.6667s2.6667 1.192 2.6667 2.6667c0 1.4746-1.192 2.6666-2.6667 2.6666s-2.6667-1.192-2.6667-2.6666z" fill="#6b7280" fill-rule="evenodd"/></svg>