<svg fill="none" height="64" viewBox="0 0 64 64" width="64" xmlns="http://www.w3.org/2000/svg"><path clip-rule="evenodd" d="m34.6669 34.2315v3.1013c0 1.4747-1.192 2.6667-2.6667 2.6667s-2.6667-1.192-2.6667-2.6667v-5.3333c0-1.4747 1.192-2.6667 2.6667-2.6667 2.2053 0 4-1.7946 4-4 0-2.2053-1.7947-4-4-4s-4 1.7947-4 4c0 1.4747-1.192 2.6667-2.6667 2.6667-1.4746 0-2.6666-1.192-2.6666-2.6667 0-5.1466 4.1866-9.3333 9.3333-9.3333s9.3333 4.1867 9.3333 9.3333c0 4.2134-2.8266 7.7414-6.6666 8.8987zm-2.6667 13.7683c-1.4747 0-2.6667-1.192-2.6667-2.6666 0-1.4747 1.192-2.6667 2.6667-2.6667 1.4746 0 2.6666 1.192 2.6666 2.6667 0 1.4746-1.192 2.6666-2.6666 2.6666zm0-42.66679c-14.704 0-26.6667 11.96269-26.6667 26.66669s11.9627 26.6666 26.6667 26.6666 26.6666-11.9626 26.6666-26.6666-11.9626-26.66669-26.6666-26.66669z" fill="#6b7280" fill-rule="evenodd"/></svg>