<svg viewBox="0 0 64 64" fill="none" xmlns="http://www.w3.org/2000/svg">
<path fill-rule="evenodd" clip-rule="evenodd" d="M34.6669 34.2317V37.3331C34.6669 38.8077 33.4749 39.9997 32.0002 39.9997C30.5255 39.9997 29.3335 38.8077 29.3335 37.3331V31.9997C29.3335 30.5251 30.5255 29.3331 32.0002 29.3331C34.2055 29.3331 36.0002 27.5384 36.0002 25.3331C36.0002 23.1277 34.2055 21.3331 32.0002 21.3331C29.7949 21.3331 28.0002 23.1277 28.0002 25.3331C28.0002 26.8077 26.8082 27.9997 25.3335 27.9997C23.8589 27.9997 22.6669 26.8077 22.6669 25.3331C22.6669 20.1864 26.8535 15.9997 32.0002 15.9997C37.1469 15.9997 41.3335 20.1864 41.3335 25.3331C41.3335 29.5464 38.5069 33.0744 34.6669 34.2317ZM32.0002 48.0001C30.5255 48.0001 29.3335 46.8081 29.3335 45.3334C29.3335 43.8588 30.5255 42.6668 32.0002 42.6668C33.4748 42.6668 34.6668 43.8588 34.6668 45.3334C34.6668 46.8081 33.4748 48.0001 32.0002 48.0001ZM32.0002 5.33325C17.2962 5.33325 5.3335 17.2959 5.3335 31.9999C5.3335 46.7039 17.2962 58.6666 32.0002 58.6666C46.7042 58.6666 58.6668 46.7039 58.6668 31.9999C58.6668 17.2959 46.7042 5.33325 32.0002 5.33325Z" fill="#141414"/>
</svg>