<svg viewBox="0 0 64 64" fill="none" xmlns="http://www.w3.org/2000/svg">
<path fill-rule="evenodd" clip-rule="evenodd" d="M27.7444 5.35043C26.6794 5.34367 25.6132 5.3369 24.5509 5.36661C24.0227 5.50186 23.7956 5.77187 23.5231 6.23307C22.9398 7.2208 22.3753 8.2209 21.8109 9.22084C21.4648 9.83413 21.1187 10.4474 20.7682 11.0576C20.4051 11.69 20.0403 12.3217 19.6754 12.9536C18.6996 14.6433 17.7233 16.3338 16.7781 18.0398L12.2007 18.033C12.0287 18.0328 11.8332 18.0276 11.6277 18.0221C11.0722 18.0073 10.443 17.9906 10.0036 18.0662C9.77481 18.1063 9.56325 18.215 9.39651 18.3783C9.07443 18.6968 8.42371 19.8909 7.96781 20.7274C7.82378 20.9917 7.69918 21.2204 7.61055 21.3744L6.2598 23.7236C6.19067 23.8442 6.11986 23.9647 6.04894 24.0853C5.87423 24.3824 5.6988 24.6807 5.54602 24.9872C5.45785 25.164 5.33549 25.421 5.33353 25.6208C5.33134 25.8437 5.45102 26.1134 5.54847 26.3092C5.71552 26.6447 5.9063 26.9714 6.09624 27.2967C6.16377 27.4123 6.2312 27.5278 6.29742 27.6434L7.58005 29.8812C8.07437 30.7441 8.57291 31.6056 9.0716 32.4672C10.1981 34.4137 11.3253 36.3614 12.4063 38.3305L12.3866 38.3722C12.2145 38.7325 12.0063 39.0822 11.7997 39.4293C11.7101 39.5798 11.6208 39.7297 11.5349 39.8799L9.93216 42.6812C9.85477 42.8154 9.76946 42.9536 9.68238 43.0946C9.42605 43.5096 9.15442 43.9495 9.02475 44.3874C8.95449 44.6247 8.98663 44.8584 9.06614 45.088C9.17843 45.4122 9.36569 45.7241 9.54731 46.0266C9.60149 46.1169 9.65518 46.2063 9.70622 46.2949L10.7566 48.121L12.0593 50.4123C12.1215 50.5217 12.1828 50.6327 12.2444 50.7441C12.4207 51.0634 12.5988 51.3859 12.8052 51.6813C12.946 51.8829 13.0842 52.0511 13.3086 52.16C13.4505 52.2287 13.59 52.2734 13.7483 52.2831C14.2517 52.3139 14.7619 52.3081 15.2697 52.3023C15.4621 52.3002 15.6542 52.298 15.8454 52.2978L19.5737 52.2965L24.5783 52.3015C24.8306 52.3016 25.0834 52.3029 25.3365 52.3042C26.1014 52.3082 26.8686 52.3121 27.6307 52.2848C28.2417 53.2514 28.8057 54.262 29.367 55.2677C29.5767 55.6433 29.7859 56.0184 29.9972 56.3902C30.0879 56.5499 30.1768 56.7164 30.2666 56.8845C30.5001 57.322 30.7398 57.771 31.0351 58.1428C31.1952 58.3444 31.391 58.5303 31.647 58.5894C32.1009 58.694 33.1425 58.6685 33.9526 58.6487C34.236 58.6417 34.4911 58.6355 34.6828 58.6358L37.7948 58.6401C37.946 58.6401 38.0978 58.6415 38.25 58.643C38.6727 58.6469 39.0977 58.6509 39.5168 58.6244C39.7885 58.5323 40.0246 58.4278 40.2071 58.1942C40.4698 57.8576 40.6853 57.4638 40.8954 57.08C40.9606 56.961 41.0252 56.843 41.0905 56.7279L42.5091 54.2297L45.6875 48.6664C45.8826 48.3258 46.0805 47.9866 46.2784 47.6473C46.6099 47.0791 46.9415 46.5107 47.2599 45.9358C48.2568 45.9837 49.2648 45.9745 50.2692 45.9654C50.6854 45.9616 51.1009 45.9579 51.5148 45.9582C51.6992 45.9583 51.9145 45.9632 52.1435 45.9685C52.7892 45.9835 53.5442 46.001 54.0277 45.9184C54.2508 45.8804 54.4469 45.7706 54.6115 45.6161C54.9066 45.3385 55.2075 44.7726 55.4556 44.3057C55.5331 44.1601 55.6054 44.0241 55.6708 43.9095L57.9592 39.9042C58.0099 39.8157 58.0619 39.7274 58.114 39.6388C58.2561 39.3973 58.399 39.1543 58.5183 38.9033C58.6019 38.727 58.6611 38.5358 58.6664 38.3392C58.6717 38.1499 58.629 37.998 58.547 37.8292C58.3158 37.3533 58.0417 36.891 57.7694 36.4319C57.6648 36.2555 57.5605 36.0796 57.459 35.9036L55.7462 32.9057C55.2821 32.096 54.8239 31.2813 54.3654 30.4662C53.4572 28.8517 52.5482 27.2357 51.5921 25.6542L53.8746 21.6867C53.9715 21.5173 54.0783 21.3417 54.1873 21.1624C54.4893 20.6657 54.8091 20.1398 54.9874 19.6344C55.0569 19.437 55.0618 19.2643 55.0076 19.0625C54.8999 18.6606 54.6535 18.2553 54.4229 17.8761C54.3527 17.7607 54.284 17.6476 54.2211 17.5379L53.0498 15.4995L51.895 13.4698C51.8371 13.3682 51.7801 13.2655 51.7231 13.1625C51.5771 12.8992 51.4304 12.6346 51.2665 12.3853C51.1418 12.1962 50.9802 11.9818 50.7841 11.8641C50.6119 11.7608 50.4251 11.7244 50.2284 11.7107C49.831 11.683 49.4261 11.6879 49.0242 11.6927C48.879 11.6945 48.7342 11.6963 48.5902 11.6965L45.6621 11.7005L36.3563 11.7012C36.0053 10.9941 35.5872 10.2886 35.1737 9.59098C34.9788 9.26214 34.7849 8.93504 34.5996 8.61033C34.4585 8.36307 34.3142 8.09816 34.1669 7.8278C33.8202 7.19134 33.4571 6.5247 33.0803 5.98706C32.9557 5.80938 32.7543 5.53371 32.5465 5.45879C32.3741 5.39666 32.1679 5.37215 31.9858 5.36079C31.3439 5.32074 30.6867 5.33281 30.0335 5.3448C29.7198 5.35055 29.4069 5.3563 29.0972 5.35624C28.6467 5.35615 28.1957 5.35329 27.7444 5.35043ZM19.3845 16.0142C19.5931 15.5301 19.8937 15.041 20.1893 14.56C20.3557 14.2893 20.5205 14.0212 20.6663 13.7581C21.4392 12.364 22.2371 10.9834 23.0349 9.60285C23.6105 8.60699 24.1862 7.61074 24.7523 6.60992L27.1585 10.8058C27.2937 11.0421 27.4317 11.2779 27.5699 11.5139C27.8497 11.992 28.1305 12.4716 28.3895 12.9585C27.9295 13.8237 27.4339 14.6749 26.9393 15.5245L26.9374 15.5277C26.7146 15.9103 26.4909 16.2946 26.2719 16.6777C26.12 16.9434 25.9708 17.2148 25.8209 17.4874C25.4784 18.1105 25.1326 18.7397 24.744 19.3195C26.4169 19.2876 28.0936 19.2961 29.7691 19.3045C30.5275 19.3083 31.2866 19.3121 32.0441 19.3122L51.1149 19.3136C51.3993 19.3138 51.6856 19.3179 51.9725 19.3221C52.5798 19.3308 53.19 19.3396 53.7908 19.311C52.804 20.979 51.8496 22.6699 50.8962 24.3591L50.8932 24.3645C50.6498 24.7957 50.4065 25.2267 50.1628 25.6573C46.236 25.6982 42.3078 25.6859 38.38 25.6737C36.4741 25.6678 34.5674 25.6619 32.6618 25.662L27.6254 25.6667L26.1906 25.6749C26.1259 25.6752 26.0588 25.6771 25.9908 25.679C25.8013 25.6843 25.6038 25.6898 25.4266 25.6632C24.9486 25.5871 24.4534 25.593 23.9606 25.5989C23.6845 25.6022 23.409 25.6055 23.1379 25.5944C22.8084 25.074 22.5095 24.5262 22.2111 23.9795C22.0212 23.6313 21.8314 23.2835 21.6341 22.9435C20.9754 21.8097 20.3266 20.67 19.6877 19.5248C19.5627 19.3051 19.4355 19.0869 19.3083 18.8687C19.0556 18.4355 18.803 18.0024 18.569 17.5578C18.5973 17.508 18.644 17.4295 18.701 17.3334C18.9465 16.9202 19.3844 16.1829 19.3845 16.0142ZM41.8811 27.5391L47.8819 27.5401C48.1805 27.5402 48.4805 27.5444 48.7811 27.5486C49.5445 27.5593 50.3117 27.57 51.0676 27.5132C51.2442 27.6115 51.509 28.1022 51.7064 28.4679C51.7795 28.6034 51.8435 28.722 51.8902 28.7968L51.9454 28.7937C52.5656 29.7732 53.146 30.8157 53.721 31.8484C53.975 32.3046 54.2283 32.7595 54.4831 33.2056C54.7912 33.7454 55.1045 34.2837 55.4179 34.8225C56.096 35.9879 56.7752 37.1553 57.406 38.3424L50.1482 38.349L47.8307 34.3029C47.7013 34.0776 47.5664 33.8518 47.4309 33.6249C47.1085 33.0853 46.7824 32.5395 46.5192 31.9812C45.9809 33.0286 45.3806 34.0543 44.7823 35.0765C44.5278 35.5114 44.2736 35.9457 44.0248 36.3808L34.3984 53.2108C34.1336 53.6727 33.8732 54.1391 33.6125 54.606L33.611 54.6086C33.088 55.5451 32.5638 56.4838 32.0021 57.3913C31.6972 56.8197 31.3717 56.2574 31.0466 55.6959C30.917 55.4722 30.787 55.2476 30.6589 55.0235L28.3692 51.0286C28.8818 50.0931 29.4177 49.1687 29.9533 48.2448C30.2103 47.8013 30.4685 47.356 30.7228 46.9116L39.1378 32.2071C39.3436 31.8473 39.5465 31.4842 39.7497 31.1206C40.1603 30.3856 40.5722 29.6483 41.011 28.9349C41.212 28.8203 41.7515 27.791 41.8811 27.5391ZM17.5027 19.3136L10.2345 19.3142C10.8793 20.3957 11.5005 21.4933 12.1214 22.5902C12.3706 23.0305 12.6202 23.4714 12.8708 23.9105L17.1464 31.3896C18.0206 32.9213 18.9017 34.4499 19.7829 35.9787C21.4498 38.8705 23.1171 41.7631 24.7388 44.6786L17.4994 44.6797C16.8722 45.7252 16.271 46.7889 15.6702 47.8519C15.4158 48.3019 15.1615 48.7519 14.9053 49.2002C14.7954 49.3925 14.6875 49.5877 14.5792 49.7834C14.344 50.2087 14.1076 50.6363 13.8476 51.0406C15.2401 51.059 16.6336 51.0544 18.0267 51.0498C18.6812 51.0476 19.3356 51.0454 19.9898 51.0457C20.4562 51.0457 20.9238 51.0501 21.3918 51.0545C22.3134 51.0632 23.2375 51.072 24.1553 51.047C24.3985 50.9136 25.3973 50.9444 26.004 50.9632C26.1559 50.9679 26.2837 50.9718 26.3684 50.9722C27.4667 49.01 28.5806 47.0567 29.71 45.1125C29.9484 44.7126 30.1819 44.3097 30.4105 43.904C30.4488 43.8361 30.4865 43.767 30.5243 43.6976C30.6398 43.4858 30.7567 43.2713 30.8981 43.0802L30.9251 43.0445L30.9479 43.0131C30.9792 42.9712 30.8063 42.6878 30.6142 42.3729C30.3998 42.0215 30.1615 41.6308 30.1566 41.4931C30.1562 41.4825 30.1563 41.4717 30.1565 41.4609L30.1567 41.4448C30.0164 41.1469 29.8453 40.8589 29.6757 40.5734C29.6192 40.4782 29.5627 40.3831 29.5077 40.2882L28.5618 38.6384L20.1696 23.9553C19.8962 23.4772 19.6259 22.9957 19.3554 22.5136C18.7517 21.4379 18.1467 20.3599 17.5027 19.3136Z" fill="#141414"/>
</svg>