<svg fill="none" height="24" viewBox="0 0 24 24" width="24" xmlns="http://www.w3.org/2000/svg"><path clip-rule="evenodd" d="m12 7.00006c-2.75697 0-4.99997 2.24301-4.99997 5.00004 0 2.757 2.243 5 4.99997 5 2.757 0 5-2.243 5-5 0-2.75703-2.243-5.00004-5-5.00004zm0 13.00004c-4.41097 0-7.99997-3.589-7.99997-8 0-4.41104 3.589-8.00003 7.99997-8.00003 4.411 0 8 3.58899 8 8.00003 0 4.411-3.589 8-8 8zm0-18.0001c-5.51398 0-9.99998 4.486-9.99998 10s4.486 10 9.99998 10c5.514 0 10-4.486 10-10s-4.486-10-10-10z" fill="#6b7280" fill-rule="evenodd"/></svg>