<svg fill="none" height="64" viewBox="0 0 64 64" width="64" xmlns="http://www.w3.org/2000/svg"><path clip-rule="evenodd" d="m9.33333 29.3338c0-5.176 2.50137-10.1333 7.05067-13.9573 1.1253-.952 1.272-2.6347.3253-3.76-.952-1.1254-2.632-1.272-3.76-.3254-5.77063 4.8587-8.9493 11.2667-8.9493 18.0427s3.17867 13.184 8.9493 18.0427c.5014.4186 1.1094.624 1.7147.624.76 0 1.5147-.3227 2.0453-.9494.9467-1.1253.8-2.808-.3253-3.76-4.5493-3.824-7.05067-8.7813-7.05067-13.9573zm22.66667-8.0002c-4.4107 0-8 3.5894-8 8 0 3.504 2.28 6.4587 5.4267 7.536-.0105.0561-.0253.1101-.0401.1639-.0267.0972-.0533.1937-.0533.3001v16c0 1.4747 1.192 2.6667 2.6667 2.6667s2.6667-1.192 2.6667-2.6667v-16c0-.1064-.0266-.2029-.0533-.3001-.0148-.0538-.0296-.1078-.0401-.1639 3.1467-1.0773 5.4267-4.032 5.4267-7.536 0-4.4106-3.5893-8-8-8zm8.6283-4.3826c.944-1.1253 2.6266-1.2746 3.7546-.3226 4.0534 3.408 6.2827 7.9226 6.2827 12.7066s-2.2293 9.296-6.2827 12.704c-.4986.424-1.1093.6294-1.7146.6294-.76 0-1.5147-.3227-2.04-.952-.952-1.1254-.8054-2.808.3226-3.7547 2.824-2.3813 4.3814-5.4453 4.3814-8.6267 0-3.184-1.5574-6.248-4.3814-8.6293-1.128-.9467-1.2746-2.6293-.3226-3.7547zm-17.256-.0002c-.944-1.128-2.624-1.2773-3.7547-.3227-4.0533 3.408-6.2853 7.9227-6.2853 12.7067 0 4.7813 2.232 9.296 6.2853 12.704.4987.4213 1.1093.6293 1.712.6293.7627 0 1.5173-.3253 2.0427-.952.9493-1.1253.8053-2.808-.3227-3.7546-2.8267-2.3814-4.384-5.4454-4.384-8.6267 0-3.184 1.5573-6.248 4.384-8.6293 1.128-.9467 1.272-2.6294.3227-3.7547zm23.9199-5.3333c.9493-1.1253 2.6267-1.2693 3.7573-.3253 5.7707 4.856 8.9494 11.2667 8.9494 18.0427s-3.1787 13.184-8.9494 18.04c-.4986.4186-1.1093.6266-1.7146.6266-.76 0-1.5147-.3226-2.0427-.952-.9493-1.1253-.8027-2.808.3253-3.7573 4.5467-3.8267 7.048-8.7813 7.048-13.9573 0-5.1787-2.5013-10.1334-7.048-13.96-1.128-.9494-1.2746-2.632-.3253-3.7574z" fill="#6b7280" fill-rule="evenodd"/></svg>