<svg width="24" height="24" viewBox="0 0 24 24" fill="none" xmlns="http://www.w3.org/2000/svg">
<g id="Icon/Fill/radio-button-on">
<path id="Mask" fill-rule="evenodd" clip-rule="evenodd" d="M12 6.99989C9.243 6.99989 7 9.24289 7 11.9999C7 14.7569 9.243 16.9999 12 16.9999C14.757 16.9999 17 14.7569 17 11.9999C17 9.24289 14.757 6.99989 12 6.99989ZM12 19.9999C7.589 19.9999 4 16.4109 4 11.9999C4 7.58889 7.589 3.99989 12 3.99989C16.411 3.99989 20 7.58889 20 11.9999C20 16.4109 16.411 19.9999 12 19.9999ZM12 1.99989C6.486 1.99989 2 6.48589 2 11.9999C2 17.5139 6.486 21.9999 12 21.9999C17.514 21.9999 22 17.5139 22 11.9999C22 6.48589 17.514 1.99989 12 1.99989Z" fill="#000000"/>
</g>
</svg>
