<svg fill="none" height="64" viewBox="0 0 64 64" width="64" xmlns="http://www.w3.org/2000/svg"><path clip-rule="evenodd" d="m32.0002 18.6665c-7.352 0-13.3333 5.9814-13.3333 13.3334s5.9813 13.3333 13.3333 13.3333 13.3333-5.9813 13.3333-13.3333-5.9813-13.3334-13.3333-13.3334zm0 34.6667c-11.7627 0-21.3333-9.5707-21.3333-21.3334 0-11.7626 9.5706-21.3333 21.3333-21.3333s21.3333 9.5707 21.3333 21.3333c0 11.7627-9.5706 21.3334-21.3333 21.3334zm0-48.00019c-14.704 0-26.6667 11.96269-26.6667 26.66669s11.9627 26.6666 26.6667 26.6666 26.6666-11.9626 26.6666-26.6666-11.9626-26.66669-26.6666-26.66669z" fill="#6b7280" fill-rule="evenodd"/></svg>