<svg fill="none" height="64" viewBox="0 0 64 64" width="64" xmlns="http://www.w3.org/2000/svg"><path d="m29.9878 36.4632c.6459-5.4844 5.6161-9.4079 11.1006-8.7627l10.9248 1.2861c5.4848.6459 9.4073 5.6168 8.7617 11.1016l-1.2861 10.9238c-.6458 5.485-5.6157 9.4085-11.1006 8.7627l-10.9248-1.2861c-5.4844-.6463-9.4075-5.617-8.7617-11.1016zm17.7666 9.291c-1.6562.0006-2.9998 1.3437-3 3 0 1.6565 1.3436 2.9994 3 3 1.6568 0 3-1.3431 3-3-.0002-1.6566-1.3433-3-3-3zm-7-10c-1.6562.0007-2.9998 1.3438-3 3 0 1.6565 1.3437 2.9994 3 3 1.6568 0 3-1.3431 3-3-.0002-1.6566-1.3433-3-3-3zm-18.7148-30.41111c5.3342-1.42898 10.8184 1.73619 12.248 7.07031l2.8467 10.625c.2106.7862.3181 1.5762.3369 2.3555-5.0702.9052-9.17 5.0309-9.8037 10.4101l-.0156.128-8.2139 2.2011c-5.3346 1.4294-10.81768-1.7366-12.24708-7.0713l-2.84766-10.625c-1.42894-5.3343 1.73702-10.81756 7.07134-12.24703zm-1.2842 13.41111c-1.6566.0001-2.9997 1.3435-3 3 0 1.6568 1.3432 2.9999 3 3 1.6566-.0002 3-1.3433 3-3-.0004-1.6564-1.3436-2.9997-3-3z" fill="#000"/></svg>