<svg width="24" height="24" viewBox="0 0 24 24" fill="none" xmlns="http://www.w3.org/2000/svg">
<g id="Icon/Fill/recording">
<path id="Mask" fill-rule="evenodd" clip-rule="evenodd" d="M18 8C15.794 8 14 9.794 14 12C14 12.731 14.212 13.409 14.557 14H9.443C9.788 13.409 10 12.731 10 12C10 9.794 8.206 8 6 8C3.794 8 2 9.794 2 12C2 14.206 3.794 16 6 16H18C20.206 16 22 14.206 22 12C22 9.794 20.206 8 18 8Z" fill="#231F20"/>
<mask id="mask0" mask-type="alpha" maskUnits="userSpaceOnUse" x="2" y="8" width="20" height="8">
<path id="Mask_2" fill-rule="evenodd" clip-rule="evenodd" d="M18 8C15.794 8 14 9.794 14 12C14 12.731 14.212 13.409 14.557 14H9.443C9.788 13.409 10 12.731 10 12C10 9.794 8.206 8 6 8C3.794 8 2 9.794 2 12C2 14.206 3.794 16 6 16H18C20.206 16 22 14.206 22 12C22 9.794 20.206 8 18 8Z" fill="white"/>
</mask>
<g mask="url(#mask0)">
<g id="&#240;&#159;&#142;&#168; Color">
<rect id="Base" width="24" height="24" fill="#0D1C2E"/>
</g>
</g>
</g>
</svg>
