<svg fill="none" height="64" viewBox="0 0 64 64" width="64" xmlns="http://www.w3.org/2000/svg"><path clip-rule="evenodd" d="m10 12c0-4.41828 3.5817-8 8-8h28c4.4183 0 8 3.58172 8 8v39c0 4.4183-3.5817 8-8 8h-28c-4.4183 0-8-3.5817-8-8zm26 36.5c0 1.3807-1.1193 2.5-2.5 2.5h-15c-1.3807 0-2.5-1.1193-2.5-2.5s1.1193-2.5 2.5-2.5h15c1.3807 0 2.5 1.1193 2.5 2.5zm-9.5-7.5c1.3807 0 2.5-1.1193 2.5-2.5s-1.1193-2.5-2.5-2.5h-8c-1.3807 0-2.5 1.1193-2.5 2.5s1.1193 2.5 2.5 2.5zm20.5-18c0 1.9778-.5865 3.9112-1.6853 5.5557s-2.6606 2.9262-4.4879 3.6831c-1.8272.7569-3.8379.9549-5.7777.5691-1.9398-.3859-3.7216-1.3383-5.1202-2.7368-1.3985-1.3986-2.3509-3.1804-2.7368-5.1202-.3858-1.9398-.1878-3.9505.5691-5.7777.7569-1.8273 2.0386-3.3891 3.6831-4.4879s3.5779-1.6853 5.5557-1.6853v10zm-3.1732-12.2388c-1.2132-.5025-2.5136-.7612-3.8268-.7612v10h10c0-1.3132-.2587-2.6136-.7612-3.8268-.5026-1.2133-1.2391-2.3157-2.1677-3.2443s-2.031-1.6651-3.2443-2.1677z" fill="#6b7280" fill-rule="evenodd"/></svg>