<svg width="24" height="24" viewBox="0 0 24 24" fill="none" xmlns="http://www.w3.org/2000/svg">
<g id="Icon/Fill/rewind-right">
<path id="Mask" fill-rule="evenodd" clip-rule="evenodd" d="M20.8584 10.6738L15.7594 6.45981C15.1504 5.95781 14.2824 5.85681 13.5494 6.20081C12.9024 6.50681 12.5004 7.11381 12.5004 7.78681V10.3778L7.75943 6.45981C7.15043 5.95781 6.28143 5.85681 5.54943 6.20081C4.90243 6.50681 4.50043 7.11381 4.50043 7.78681V16.2128C4.50043 16.8858 4.90243 17.4928 5.54943 17.7988C5.83843 17.9348 6.14943 18.0008 6.45543 18.0008C6.92643 18.0008 7.39043 17.8438 7.75943 17.5388L12.5004 13.6228V16.2128C12.5004 16.8858 12.9024 17.4928 13.5494 17.7988C13.8384 17.9348 14.1494 18.0008 14.4554 18.0008C14.9264 18.0008 15.3904 17.8438 15.7594 17.5388L20.8584 13.3258C21.2664 12.9898 21.5004 12.5058 21.5004 11.9998C21.5004 11.4938 21.2664 11.0098 20.8584 10.6738Z" fill="#231F20"/>
<mask id="mask0" mask-type="alpha" maskUnits="userSpaceOnUse" x="4" y="5" width="18" height="14">
<path id="Mask_2" fill-rule="evenodd" clip-rule="evenodd" d="M20.8584 10.6738L15.7594 6.45981C15.1504 5.95781 14.2824 5.85681 13.5494 6.20081C12.9024 6.50681 12.5004 7.11381 12.5004 7.78681V10.3778L7.75943 6.45981C7.15043 5.95781 6.28143 5.85681 5.54943 6.20081C4.90243 6.50681 4.50043 7.11381 4.50043 7.78681V16.2128C4.50043 16.8858 4.90243 17.4928 5.54943 17.7988C5.83843 17.9348 6.14943 18.0008 6.45543 18.0008C6.92643 18.0008 7.39043 17.8438 7.75943 17.5388L12.5004 13.6228V16.2128C12.5004 16.8858 12.9024 17.4928 13.5494 17.7988C13.8384 17.9348 14.1494 18.0008 14.4554 18.0008C14.9264 18.0008 15.3904 17.8438 15.7594 17.5388L20.8584 13.3258C21.2664 12.9898 21.5004 12.5058 21.5004 11.9998C21.5004 11.4938 21.2664 11.0098 20.8584 10.6738Z" fill="white"/>
</mask>
<g mask="url(#mask0)">
<g id="&#240;&#159;&#142;&#168; Color">
<rect id="Base" width="24" height="24" fill="#0D1C2E"/>
</g>
</g>
</g>
</svg>
