<svg fill="none" height="64" viewBox="0 0 64 64" width="64" xmlns="http://www.w3.org/2000/svg"><path clip-rule="evenodd" d="m55.6223 28.4634-13.5973-11.2373c-1.624-1.3387-3.9387-1.608-5.8934-.6907-1.7253.816-2.7973 2.4347-2.7973 4.2293v6.9094l-12.6427-10.448c-1.624-1.3387-3.9413-1.608-5.8933-.6907-1.7253.816-2.7973 2.4347-2.7973 4.2293v22.4694c0 1.7946 1.072 3.4133 2.7973 4.2293.7707.3627 1.6.5387 2.416.5387 1.256 0 2.4933-.4187 3.4773-1.232l12.6427-10.4427v6.9067c0 1.7946 1.072 3.4133 2.7973 4.2293.7707.3627 1.6.5387 2.416.5387 1.256 0 2.4934-.4187 3.4774-1.232l13.5973-11.2347c1.088-.896 1.712-2.1867 1.712-3.536s-.624-2.64-1.712-3.536z" fill="#6b7280" fill-rule="evenodd"/></svg>