<svg fill="none" height="24" viewBox="0 0 24 24" width="24" xmlns="http://www.w3.org/2000/svg"><path clip-rule="evenodd" d="m20.8584 10.6738-5.099-4.21396c-.609-.502-1.477-.603-2.21-.259-.647.306-1.049.913-1.049 1.586v2.59096l-4.74103-3.91796c-.609-.502-1.478-.603-2.21-.259-.647.306-1.049.913-1.049 1.586v8.42596c0 .673.402 1.28 1.049 1.586.289.136.6.202.906.202.471 0 .935-.157 1.304-.462l4.74103-3.916v2.59c0 .673.402 1.28 1.049 1.586.289.136.6.202.906.202.471 0 .935-.157 1.304-.462l5.099-4.213c.408-.336.642-.82.642-1.326s-.234-.99-.642-1.326" fill="#6b7280" fill-rule="evenodd"/></svg>