<svg fill="none" height="24" viewBox="0 0 24 24" width="24" xmlns="http://www.w3.org/2000/svg"><path clip-rule="evenodd" d="m18.4502 6.20121c-.734-.345-1.601-.243-2.209.26l-4.741 3.91599v-2.58999c0-.673-.403-1.28-1.05-1.586-.73401-.345-1.60101-.243-2.20901.26l-5.1 4.21299c-.407.336-.641.82-.641 1.326s.234.99.641 1.326l5.1 4.214c.368.304.832.461 1.303.461.307 0 .61701-.067.90601-.202.647-.306 1.05-.913 1.05-1.586v-2.591l4.741 3.918c.368.304.832.461 1.303.461.307 0 .617-.067.906-.202.647-.306 1.05-.913 1.05-1.586v-8.42599c0-.673-.403-1.28-1.05-1.586" fill="#6b7280" fill-rule="evenodd"/></svg>