<svg viewBox="0 0 64 64" fill="none" xmlns="http://www.w3.org/2000/svg">
<path fill-rule="evenodd" clip-rule="evenodd" d="M45.3327 8C51.2238 8 55.9994 12.7756 55.9994 18.6667C55.9994 18.7151 55.9995 18.7642 55.9968 18.8125C55.4414 28.9947 49.1385 37.9132 39.8536 41.8802C39.1084 47.6143 35.7342 52.7213 30.6661 55.6432C29.8896 56.0909 28.9386 56.1179 28.1374 55.7161C27.3371 55.3143 26.7928 54.5377 26.6869 53.6484C26.5606 52.586 26.3442 51.5513 26.0489 50.5521C22.0119 54.6598 16.2151 56.7443 10.3223 55.9766C9.12311 55.8201 8.1791 54.8764 8.02285 53.6771C7.25535 47.7842 9.34181 41.9874 13.4499 37.9505C12.4508 37.6552 11.4159 37.4414 10.3536 37.3151C9.46356 37.2093 8.685 36.6632 8.28327 35.862C7.88176 35.0612 7.90922 34.1122 8.35618 33.3359C11.2782 28.2675 16.3873 24.8909 22.1218 24.1458C26.0892 14.8615 35.0076 8.56037 45.1895 8.00521C45.2372 8.00262 45.285 8.00002 45.3327 8ZM18.7182 40.4635C15.3795 42.8772 13.3526 46.6996 13.2077 50.7917C17.3001 50.6472 21.1245 48.6226 23.5385 45.2839C22.2413 43.3968 20.6052 41.7608 18.7182 40.4635ZM39.9994 18.6667C37.0542 18.667 34.6661 21.0547 34.6661 24C34.6661 26.9453 37.0542 29.333 39.9994 29.3333C42.9449 29.3333 45.3327 26.9455 45.3327 24C45.3327 21.0545 42.9449 18.6667 39.9994 18.6667Z" fill="#141414"/>
</svg>