<svg fill="none" height="64" viewBox="0 0 64 64" width="64" xmlns="http://www.w3.org/2000/svg"><path clip-rule="evenodd" d="m58.6667 10.6665c0 4.4183-3.5818 8-8 8-3.4867 0-6.4524-2.2306-7.5481-5.3426l-.0339-.0009c-.2271-.0059-.5655-.0131-.9992-.0174-.8678-.0086-2.1144-.0057-3.6129.0408-3.0079.0933-6.9795.3612-10.9191 1.0484-3.9854.6953-7.7112 1.7826-10.3731 3.3922-2.6023 1.5734-3.8471 3.4028-3.8471 5.6812 0 1.4758.4239 2.3695 1.0132 3.009.6494.7048 1.713 1.3268 3.3382 1.8156 3.2875.9887 7.7832 1.1445 12.8251 1.3192l.2493.0086c4.8854.1695 10.3163.3705 14.5129 1.7917 2.1499.7281 4.1997 1.8439 5.7122 3.6328 1.554 1.8378 2.3491 4.1595 2.3491 6.9109.0001 4.6673-2.5059 7.9099-5.8303 10.0006-3.2115 2.0197-7.3066 3.0698-11.1156 3.6291-3.8568.5663-7.6767.664-10.5077.6247-.8991-.0124-1.7044-.0388-2.3864-.0692-1.1372 3.0331-4.0631 5.192-7.4933 5.192-4.4183 0-8-3.5818-8-8 0-4.4183 3.5817-8 8-8 3.5355 0 6.5353 2.2934 7.5929 5.4737.6603.0307 1.459.0582 2.3607.0707 2.6691.037 6.1825-.0582 9.659-.5687 3.5244-.5174 6.7626-1.4278 9.0511-2.867 2.1756-1.3683 3.3363-3.0829 3.3363-5.4859 0-1.6657-.4549-2.7181-1.0884-3.4674-.675-.7983-1.7502-1.4829-3.3503-2.0248-3.3034-1.1187-7.8725-1.3356-12.9871-1.5131l-.6726-.0231c-4.6788-.1598-9.7856-.3343-13.7529-1.5274-2.1248-.639-4.1863-1.6397-5.7244-3.3089-1.59819-1.7345-2.4243-3.966-2.4243-6.6231 0-4.7892 2.8624-8.0935 6.4208-10.2451 3.4988-2.1155 7.9873-3.34456 12.2162-4.08226 4.2747-.7457 8.5174-1.02736 11.6702-1.12524 1.5819-.04911 2.9022-.0523 3.8313-.04308.4074.00404.7401.01048.9872.01652 1.1013-3.10154 4.0618-5.32254 7.541-5.32254 4.4182 0 8 3.58173 8 8z" fill="#6b7280" fill-rule="evenodd"/></svg>