<svg viewBox="0 0 64 64" fill="none" xmlns="http://www.w3.org/2000/svg">
<path fill-rule="evenodd" clip-rule="evenodd" d="M44.7856 55.9703C38.9623 56.5047 34.123 49.6971 30.3921 46.2551C28.5048 59.8245 8 58.555 8 44.7762V19.234C8 17.2251 8.53237 15.1747 9.59928 13.4537C11.5673 10.1317 15.3811 7.95702 19.2364 8.00064H44.7856C58.566 8.00064 59.8794 28.4999 46.2627 30.343L52.7427 36.7798C59.838 43.4631 54.5056 56.256 44.7877 55.9681L44.7856 55.9703ZM44.7856 23.6226C50.5281 23.7033 50.5281 14.6839 44.7856 14.7668H29.5717C30.7193 17.1858 30.4335 20.9986 30.4728 23.6226H44.7856Z" fill="#141414"/>
</svg>