<svg fill="none" height="64" viewBox="0 0 64 64" width="64" xmlns="http://www.w3.org/2000/svg"><path clip-rule="evenodd" d="m40.7789 10.3413 12.8773 12.8774c1.4987 1.4986 2.344 3.536 2.344 5.6586v19.1227c0 4.4187-3.5813 8-8 8h-5.3333v-10.6667c0-2.9413-2.3947-5.3333-5.3333-5.3333h-10.6667c-2.9413 0-5.3333 2.392-5.3333 5.3333v10.6667h-5.3334c-4.4186 0-7.99996-3.5813-7.99996-8v-32c0-4.4187 3.58136-8 7.99996-8h5.3334v18.6667c0 1.472 1.192 2.6666 2.6666 2.6666h16c1.4747 0 2.6667-1.1946 2.6667-2.6666s-1.192-2.6667-2.6667-2.6667h-13.3333v-16h8.4587c2.12 0 4.1546.84267 5.6533 2.3413zm-14.1123 34.9922h10.6667l.0026 10.6667h-10.6693z" fill="#6b7280" fill-rule="evenodd"/></svg>