<svg fill="none" height="64" viewBox="0 0 64 64" width="64" xmlns="http://www.w3.org/2000/svg"><path clip-rule="evenodd" d="m21.3333 10.6665c-1.4666 0-2.6666 1.2-2.6666 2.6667v40c0 1.4666 1.2 2.6666 2.6666 2.6666 1.4667 0 2.6667-1.2 2.6667-2.6666v-40c0-1.4667-1.2-2.6667-2.6667-2.6667zm10.6667 8c-1.4667 0-2.6667 1.0154-2.6667 2.2564v24.8205c0 1.2411 1.2 2.2564 2.6667 2.2564s2.6667-1.0153 2.6667-2.2564v-24.8205c0-1.241-1.2-2.2564-2.6667-2.2564zm-24 5.3333c0-1.4666 1.2-2.6666 2.6667-2.6666 1.4666 0 2.6666 1.2 2.6666 2.6666v18.6667c0 1.4667-1.2 2.6667-2.6666 2.6667-1.4667 0-2.6667-1.2-2.6667-2.6667zm45.3333 0c-1.4666 0-2.6666 1.2-2.6666 2.6667v18.6667c0 1.4666 1.2 2.6666 2.6666 2.6666 1.4667 0 2.6667-1.2 2.6667-2.6666v-18.6667c0-1.4667-1.2-2.6667-2.6667-2.6667zm-13.3333-10.6666c0-1.4667 1.2-2.6667 2.6667-2.6667 1.4666 0 2.6666 1.2 2.6666 2.6667v40c0 1.4666-1.2 2.6666-2.6666 2.6666-1.4667 0-2.6667-1.2-2.6667-2.6666z" fill="#6b7280" fill-rule="evenodd"/></svg>