<svg width="64" height="64" viewBox="0 0 64 64" fill="none" xmlns="http://www.w3.org/2000/svg">
<path d="M48 8C53.891 8 58.667 12.776 58.667 18.667V45.333C58.667 51.224 53.891 56 48 56H16C10.109 56 5.33301 51.224 5.33301 45.333V18.667C5.33301 12.776 10.109 8.00002 16 8H48ZM25.333 33.334C22.3876 33.3342 20 35.7216 20 38.667C20.0001 41.6123 22.3877 43.9998 25.333 44C28.2785 44 30.6669 41.6124 30.667 38.667C30.667 35.7215 28.2785 33.334 25.333 33.334ZM38.667 33.334C35.7215 33.334 33.333 35.7215 33.333 38.667C33.3331 41.6124 35.7215 44 38.667 44C41.6123 43.9998 43.9999 41.6123 44 38.667C44 35.7216 41.6124 33.3341 38.667 33.334ZM25.333 20C22.3877 20.0002 20.0002 22.3877 20 25.333C20 28.2784 22.3876 30.6668 25.333 30.667C28.2785 30.667 30.667 28.2785 30.667 25.333C30.6668 22.3876 28.2784 20 25.333 20ZM38.667 20C35.7216 20 33.3332 22.3876 33.333 25.333C33.333 28.2785 35.7215 30.667 38.667 30.667C41.6124 30.6668 44 28.2784 44 25.333C43.9998 22.3877 41.6123 20.0002 38.667 20Z" fill="black"/>
</svg>
