<svg width="64" height="64" viewBox="0 0 64 64" fill="none" xmlns="http://www.w3.org/2000/svg">
<path d="M48 8C53.891 8.00004 58.667 12.776 58.667 18.667V45.333C58.667 51.224 53.891 56 48 56H16C10.109 56 5.33301 51.224 5.33301 45.333V18.667C5.33301 12.776 10.109 8 16 8H48ZM25.333 26.667C22.3876 26.6672 20 29.0546 20 32C20.0001 34.9453 22.3877 37.3328 25.333 37.333C28.2785 37.333 30.6669 34.9454 30.667 32C30.667 29.0545 28.2785 26.667 25.333 26.667ZM38.667 26.667C35.7215 26.667 33.333 29.0545 33.333 32C33.3331 34.9454 35.7215 37.333 38.667 37.333C41.6123 37.3328 43.9999 34.9453 44 32C44 29.0546 41.6123 26.6672 38.667 26.667Z" fill="black"/>
</svg>
