<svg width="64" height="64" viewBox="0 0 64 64" fill="none" xmlns="http://www.w3.org/2000/svg">
<path d="M7.65397 49.2939C6.17698 49.2939 5 48.0938 5 46.6399V17.654C5 16.177 6.17698 15 7.65397 15C9.13096 15 10.3079 16.177 10.3079 17.654V46.6399C10.3079 48.0938 9.13096 49.2939 7.65397 49.2939ZM49.0789 20.9772C49.0789 19.6848 48.0404 18.6463 46.748 18.6463H17.7852C16.4928 18.6463 15.4543 19.6848 15.4543 20.9772V43.3167C15.4543 44.609 16.4928 45.6475 17.7852 45.6475H46.748C48.0404 45.6475 49.0789 44.609 49.0789 43.3167V20.9772ZM54.2253 46.6399C54.2253 48.0938 55.4253 49.2939 56.8793 49.2939C58.3332 49.2939 59.5332 48.0938 59.5332 46.6399V17.654C59.5332 16.9501 59.2536 16.275 58.7559 15.7773C58.2582 15.2796 57.5831 15 56.8793 15C56.1754 15 55.5003 15.2796 55.0026 15.7773C54.5049 16.275 54.2253 16.9501 54.2253 17.654V46.6399Z" fill="#141414"/>
</svg>
