<svg fill="none" height="64" viewBox="0 0 64 64" width="64" xmlns="http://www.w3.org/2000/svg"><path clip-rule="evenodd" d="m32.0001 28c-2.2053 0-4 1.7947-4 4s1.7947 4 4 4c2.2054 0 4-1.7947 4-4s-1.7946-4-4-4zm.0001 13.3337c-5.1467 0-9.3333-4.1867-9.3333-9.3334 0-5.1466 4.1866-9.3333 9.3333-9.3333s9.3333 4.1867 9.3333 9.3333c0 5.1467-4.1866 9.3334-9.3333 9.3334zm22.1786-16.3335h-2.8906c-.392 0-.6587-.312-.8214-.704-.1226-.296-.1546-.7067.1254-.9867l2.0533-2.0427c.848-.8453 1.3173-1.9733 1.3173-3.168 0-1.2-.464-2.3253-1.312-3.1706l-3.576-3.576c-1.744-1.74937-4.5893-1.74404-6.3386 0l-2.0534 2.056c-.2773.28-.688.2453-1.0746.0853-.2934-.12-.608-.3893-.608-.7813v-2.90937c0-2.464-2.0027-4.46933-4.4694-4.46933h-5.0453c-2.4747 0-4.4853 2.01333-4.4853 4.488v2.8907c0 .392-.312.6586-.704.8213-.296.1253-.7094.1573-.9867-.1253l-2.04-2.0507c-.848-.8507-1.9733-1.3173-3.1707-1.3173h-.0053c-1.1973 0-2.3227.464-3.168 1.312l-3.5733 3.5733c-1.7467 1.744-1.7467 4.5867 0 6.3387l2.056 2.0533c.2773.2773.2453.6907.0853 1.0747-.12.2933-.3893.608-.7813.608h-2.90937c-2.464 0-4.46933 2.0026-4.46933 4.4693v5.0453c0 2.4747 2.01333 4.4854 4.488 4.4854h2.8907c.392 0 .6586.312.8213.704.1227.296.1547.7066-.1253.9866l-2.0507 2.04c-.8507.848-1.3173 1.9734-1.3173 3.1707-.0027 1.2.464 2.3253 1.312 3.1733l3.5733 3.5734c1.744 1.7493 4.5893 1.744 6.3387 0l2.0533-2.056c.28-.2747.6907-.2427 1.0747-.0854.2933.12.608.3894.608.7814v2.9093c0 2.464 2.0026 4.4693 4.4693 4.4693h5.0453c2.4747 0 4.4854-2.0133 4.4854-4.488v-2.8906c0-.392.312-.6587.704-.8214.2933-.1226.7066-.1546.9866.1254l2.04 2.0506c.848.8507 1.9734 1.3174 3.1707 1.3174h.0053c1.1974 0 2.3227-.464 3.168-1.312l3.5734-3.5734c1.7466-1.744 1.7466-4.5866 0-6.3386l-2.056-2.0534c-.2774-.2773-.2454-.6906-.12-.9866 0-.0054.0346-.0854.0346-.088.12-.2934.3894-.608.7814-.608h2.9093c2.464 0 4.4693-2.0027 4.4693-4.4694v-5.0453c0-2.4747-2.0133-4.4853-4.488-4.4853z" fill="#6b7280" fill-rule="evenodd"/></svg>