<svg fill="none" height="24" viewBox="0 0 24 24" width="24" xmlns="http://www.w3.org/2000/svg"><path clip-rule="evenodd" d="m12 10.4999c-.827 0-1.5.673-1.5 1.5s.673 1.5 1.5 1.5 1.5-.673 1.5-1.5-.673-1.5-1.5-1.5zm0 5.0002c-1.93 0-3.50002-1.57-3.50002-3.5s1.57002-3.50003 3.50002-3.50003 3.5 1.57003 3.5 3.50003-1.57 3.5-3.5 3.5zm9.892-5.1811-.787-2.521c-.188-.605-.598-1.094-1.153-1.378-.541-.277-1.156-.324-1.732-.132l-.34.113c-.536.181-1.134.081-1.593-.264l-.107-.081c-.437-.328-.696-.863-.694-1.429l.002-.279c.002-.635-.24-1.23-.683-1.675-.429-.431-.996-.669-1.598-.67l-2.547-.003h-.004c-1.25403 0-2.27803 1.042-2.28303 2.326l-.001.241c-.002.598-.277 1.162-.733 1.51l-.129.098c-.513.39-1.178.501-1.777.297-.558-.191-1.155-.15-1.683.116-.54.273-.939.747-1.124 1.334l-.816 2.595c-.387 1.232.263 2.524 1.48 2.941l.164.056c.518.177.935.629 1.119 1.211l.055.168c.219.646.143 1.327-.231 1.857-.72 1.023-.501 2.466.489 3.216l2.072 1.574c.398.302.869.46 1.356.46.115 0 .231-.008.347-.026.612-.096 1.14903-.431 1.51103-.944l.231-.328c.332-.472.839-.751 1.428-.767.587-.033 1.147.273 1.497.777l.118.172c.359.518.895.858 1.509.957.609.097 1.216-.054 1.711-.428l2.061-1.556c.994-.749 1.222-2.197.508-3.229l-.261-.375c-.328-.474-.424-1.091-.258-1.652.181-.612.633-1.092 1.21-1.286l.201-.067c1.187-.397 1.844-1.711 1.465-2.929z" fill="#6b7280" fill-rule="evenodd"/></svg>