<svg fill="none" height="24" viewBox="0 0 24 24" width="24" xmlns="http://www.w3.org/2000/svg"><path clip-rule="evenodd" d="m12 10.4999c-.827 0-1.5.673-1.5 1.5s.673 1.5 1.5 1.5 1.5-.673 1.5-1.5-.673-1.5-1.5-1.5zm0 5.0002c-1.93 0-3.49995-1.57-3.49995-3.5s1.56995-3.50003 3.49995-3.50003 3.5 1.57003 3.5 3.50003-1.57 3.5-3.5 3.5zm8.317-6.1251h-1.084c-.147 0-.247-.117-.308-.264-.046-.111-.058-.265.047-.37l.77-.766c.318-.317.494-.74.494-1.188 0-.45-.174-.872-.492-1.189l-1.341-1.341c-.654-.656-1.721-.654-2.377 0l-.77.771c-.104.105-.258.092-.403.032-.11-.045-.228-.146-.228-.293v-1.091c0-.924-.751-1.676-1.676-1.676h-1.892c-.928 0-1.68197.755-1.68197 1.683v1.084c0 .147-.117.247-.264.308-.111.047-.266.059-.37-.047l-.765-.769c-.318-.319-.74-.494-1.189-.494h-.002c-.449 0-.871.174-1.188.492l-1.34 1.34c-.655.654-.655 1.72 0 2.377l.771.77c.104.104.092.259.032.403-.045.11-.146.228-.293.228h-1.091c-.924 0-1.676.751-1.676 1.676v1.892c0 .928.755 1.682 1.683 1.682h1.084c.147 0 .247.117.308.264.046.111.058.265-.047.37l-.769.765c-.319.318-.494.74-.494 1.189-.001.45.174.872.492 1.19l1.34 1.34c.654.656 1.721.654 2.377 0l.77-.771c.105-.103.259-.091.403-.032.11.045.228.146.228.293v1.091c0 .924.75097 1.676 1.67597 1.676h1.892c.928 0 1.682-.755 1.682-1.683v-1.084c0-.147.117-.247.264-.308.11-.046.265-.058.37.047l.765.769c.318.319.74.494 1.189.494h.002c.449 0 .871-.174 1.188-.492l1.34-1.34c.655-.654.655-1.72 0-2.377l-.771-.77c-.104-.104-.092-.259-.045-.37 0-.002.013-.032.013-.033.045-.11.146-.228.293-.228h1.091c.924 0 1.676-.751 1.676-1.676v-1.892c0-.928-.755-1.682-1.683-1.682z" fill="#6b7280" fill-rule="evenodd"/></svg>