<svg fill="none" height="64" viewBox="0 0 64 64" width="64" xmlns="http://www.w3.org/2000/svg"><path clip-rule="evenodd" d="m32.0001 28c-2.2054 0-4 1.7947-4 4s1.7946 4 4 4c2.2053 0 4-1.7947 4-4s-1.7947-4-4-4zm-.0001 13.3337c-5.1466 0-9.3333-4.1867-9.3333-9.3334 0-5.1466 4.1867-9.3333 9.3333-9.3333 5.1467 0 9.3334 4.1867 9.3334 9.3333 0 5.1467-4.1867 9.3334-9.3334 9.3334zm26.3787-13.8162-2.0987-6.7227c-.5014-1.6133-1.5947-2.9173-3.0747-3.6746-1.4427-.7387-3.0826-.864-4.6186-.352l-.9067.3013c-1.4294.4827-3.024.216-4.248-.704l-.2853-.216c-1.1654-.8747-1.8561-2.3013-1.8507-3.8107l.0053-.744c.0054-1.6933-.64-3.27997-1.8213-4.46664-1.144-1.14933-2.656-1.784-4.2613-1.78666l-6.792-.008h-.0107c-3.344 0-6.0747 2.77866-6.088 6.2027l-.0027.6426c-.0053 1.5947-.7386 3.0987-1.9546 4.0267l-.344.2613c-1.368 1.04-3.1414 1.336-4.7387.792-1.488-.5093-3.08-.4-4.488.3094-1.44001.728-2.50401 1.992-2.99734 3.5573l-2.176 6.92c-1.032 3.2853.70133 6.7307 3.94667 7.8427l.43737.1493c1.3813.472 2.4933 1.6773 2.984 3.2293l.1466.448c.584 1.7227.3814 3.5387-.616 4.952-1.92 2.728-1.336 6.576 1.304 8.576l5.5254 4.1974c1.0613.8053 2.3173 1.2266 3.616 1.2266.3066 0 .616-.0213.9253-.0693 1.632-.256 3.064-1.1493 4.0293-2.5173l.616-.8747c.8854-1.2587 2.2374-2.0027 3.808-2.0453 1.5654-.088 3.0587.728 3.992 2.072l.3147.4586c.9573 1.3814 2.3867 2.288 4.024 2.552 1.624.2587 3.2427-.144 4.5627-1.1413l5.4959-4.1493c2.6507-1.9974 3.2587-5.8587 1.3547-8.6107l-.696-1c-.8746-1.264-1.1307-2.9093-.688-4.4053.4827-1.632 1.688-2.912 3.2267-3.4294l.536-.1786c3.1653-1.0587 4.9173-4.5627 3.9067-7.8107z" fill="#6b7280" fill-rule="evenodd"/></svg>