<svg width="24" height="24" viewBox="0 0 24 24" fill="none" xmlns="http://www.w3.org/2000/svg">
<g id="Icon/Fill/settings">
<path id="Mask" fill-rule="evenodd" clip-rule="evenodd" d="M12 10.5C11.173 10.5 10.5 11.173 10.5 12C10.5 12.827 11.173 13.5 12 13.5C12.827 13.5 13.5 12.827 13.5 12C13.5 11.173 12.827 10.5 12 10.5ZM12 15.5C10.07 15.5 8.5 13.93 8.5 12C8.5 10.07 10.07 8.5 12 8.5C13.93 8.5 15.5 10.07 15.5 12C15.5 13.93 13.93 15.5 12 15.5ZM21.892 10.319L21.105 7.798C20.917 7.193 20.507 6.704 19.952 6.42C19.411 6.143 18.796 6.096 18.22 6.288L17.88 6.401C17.344 6.582 16.746 6.482 16.287 6.137L16.18 6.056C15.743 5.728 15.484 5.193 15.486 4.627L15.488 4.348C15.49 3.713 15.248 3.118 14.805 2.673C14.376 2.242 13.809 2.004 13.207 2.003L10.66 2H10.656C9.402 2 8.378 3.042 8.373 4.326L8.372 4.567C8.37 5.165 8.095 5.729 7.639 6.077L7.51 6.175C6.997 6.565 6.332 6.676 5.733 6.472C5.175 6.281 4.578 6.322 4.05 6.588C3.51 6.861 3.111 7.335 2.926 7.922L2.11 10.517C1.723 11.749 2.373 13.041 3.59 13.458L3.754 13.514C4.272 13.691 4.689 14.143 4.873 14.725L4.928 14.893C5.147 15.539 5.071 16.22 4.697 16.75C3.977 17.773 4.196 19.216 5.186 19.966L7.258 21.54C7.656 21.842 8.127 22 8.614 22C8.729 22 8.845 21.992 8.961 21.974C9.573 21.878 10.11 21.543 10.472 21.03L10.703 20.702C11.035 20.23 11.542 19.951 12.131 19.935C12.718 19.902 13.278 20.208 13.628 20.712L13.746 20.884C14.105 21.402 14.641 21.742 15.255 21.841C15.864 21.938 16.471 21.787 16.966 21.413L19.027 19.857C20.021 19.108 20.249 17.66 19.535 16.628L19.274 16.253C18.946 15.779 18.85 15.162 19.016 14.601C19.197 13.989 19.649 13.509 20.226 13.315L20.427 13.248C21.614 12.851 22.271 11.537 21.892 10.319Z" fill="#231F20"/>
<mask id="mask0" mask-type="alpha" maskUnits="userSpaceOnUse" x="1" y="2" width="21" height="20">
<path id="Mask_2" fill-rule="evenodd" clip-rule="evenodd" d="M12 10.5C11.173 10.5 10.5 11.173 10.5 12C10.5 12.827 11.173 13.5 12 13.5C12.827 13.5 13.5 12.827 13.5 12C13.5 11.173 12.827 10.5 12 10.5ZM12 15.5C10.07 15.5 8.5 13.93 8.5 12C8.5 10.07 10.07 8.5 12 8.5C13.93 8.5 15.5 10.07 15.5 12C15.5 13.93 13.93 15.5 12 15.5ZM21.892 10.319L21.105 7.798C20.917 7.193 20.507 6.704 19.952 6.42C19.411 6.143 18.796 6.096 18.22 6.288L17.88 6.401C17.344 6.582 16.746 6.482 16.287 6.137L16.18 6.056C15.743 5.728 15.484 5.193 15.486 4.627L15.488 4.348C15.49 3.713 15.248 3.118 14.805 2.673C14.376 2.242 13.809 2.004 13.207 2.003L10.66 2H10.656C9.402 2 8.378 3.042 8.373 4.326L8.372 4.567C8.37 5.165 8.095 5.729 7.639 6.077L7.51 6.175C6.997 6.565 6.332 6.676 5.733 6.472C5.175 6.281 4.578 6.322 4.05 6.588C3.51 6.861 3.111 7.335 2.926 7.922L2.11 10.517C1.723 11.749 2.373 13.041 3.59 13.458L3.754 13.514C4.272 13.691 4.689 14.143 4.873 14.725L4.928 14.893C5.147 15.539 5.071 16.22 4.697 16.75C3.977 17.773 4.196 19.216 5.186 19.966L7.258 21.54C7.656 21.842 8.127 22 8.614 22C8.729 22 8.845 21.992 8.961 21.974C9.573 21.878 10.11 21.543 10.472 21.03L10.703 20.702C11.035 20.23 11.542 19.951 12.131 19.935C12.718 19.902 13.278 20.208 13.628 20.712L13.746 20.884C14.105 21.402 14.641 21.742 15.255 21.841C15.864 21.938 16.471 21.787 16.966 21.413L19.027 19.857C20.021 19.108 20.249 17.66 19.535 16.628L19.274 16.253C18.946 15.779 18.85 15.162 19.016 14.601C19.197 13.989 19.649 13.509 20.226 13.315L20.427 13.248C21.614 12.851 22.271 11.537 21.892 10.319Z" fill="white"/>
</mask>
<g mask="url(#mask0)">
<g id="&#240;&#159;&#142;&#168; Color">
<rect id="Base" width="24" height="24" fill="#0D1C2E"/>
</g>
</g>
</g>
</svg>
