<svg fill="none" height="64" viewBox="0 0 64 64" width="64" xmlns="http://www.w3.org/2000/svg"><path clip-rule="evenodd" d="m34.6665 19.046c-.856-.2213-1.7413-.3787-2.6667-.3787-.9253 0-1.8106.1574-2.6666.3787v-11.04535c0-1.47467 1.1946-2.66667 2.6666-2.66667s2.6667 1.192 2.6667 2.66667zm-20.0013 28.9547c-.608 0-1.216-.2053-1.7173-.6266-5.7707-4.8587-8.94936-11.264-8.94936-18.04s3.17866-13.1814 8.94936-18.04c1.1253-.952 2.808-.8054 3.76.3226.9466 1.1254.8026 2.808-.3227 3.7574-4.5493 3.8266-7.05333 8.7866-7.05333 13.96 0 5.1733 2.50403 10.1333 7.05333 13.96 1.1253.9493 1.2693 2.632.3227 3.7573-.528.6267-1.2827.9493-2.0427.9493zm17.3346-15.9999c-1.4693 0-2.6666-1.1946-2.6666-2.6666s1.1973-2.6667 2.6666-2.6667c1.4694 0 2.6667 1.1947 2.6667 2.6667s-1.1973 2.6666-2.6667 2.6666zm0 7.9996c-.9253 0-1.8106-.1573-2.6666-.3787v13.712c0 1.4747 1.1946 2.6667 2.6666 2.6667s2.6667-1.192 2.6667-2.6667v-13.712c-.856.2214-1.7413.3787-2.6667.3787zm8.6253 1.7201c.5307.624 1.2827.9466 2.0427.9466.608 0 1.216-.2053 1.7173-.6266 4.0507-3.4134 6.2827-7.9254 6.2827-12.7067s-2.232-9.2933-6.2827-12.7067c-1.1253-.9493-2.8107-.8026-3.76.32-.9467 1.128-.8027 2.8107.3227 3.76 2.8293 2.3787 4.3866 5.4454 4.3866 8.6267s-1.5573 6.248-4.3866 8.6267c-1.1254.9493-1.2694 2.632-.3227 3.76zm-19.2932.9466c-.608 0-1.216-.2053-1.7173-.6266-4.0507-3.4134-6.2827-7.9254-6.2827-12.7067s2.232-9.2933 6.2827-12.7067c1.1253-.9493 2.808-.8053 3.76.32.9466 1.128.8026 2.8107-.3227 3.76-2.8293 2.3787-4.3867 5.4454-4.3867 8.6267s1.5574 6.248 4.3867 8.6267c1.1253.9493 1.2693 2.632.3227 3.76-.528.624-1.2827.9466-2.0427.9466zm25.96 4.3839c.528.6266 1.2826.9493 2.0426.9493.608 0 1.216-.2053 1.7174-.6267 5.7706-4.8586 8.9493-11.264 8.9493-18.04s-3.1787-13.1813-8.9493-18.04c-1.128-.9493-2.8107-.8053-3.76.3227-.9467 1.1253-.8027 2.808.3226 3.7573 4.5494 3.8267 7.0534 8.7867 7.0534 13.96 0 5.1734-2.504 10.1334-7.0534 13.96-1.1253.9494-1.2693 2.632-.3226 3.7574z" fill="#6b7280" fill-rule="evenodd"/></svg>