<svg fill="none" height="24" viewBox="0 0 24 24" width="24" xmlns="http://www.w3.org/2000/svg"><path clip-rule="evenodd" d="m13 7.14224c-.321-.08299-.653-.142-1-.142s-.679.05901-1 .142v-4.142c0-.553.448-1 1-1s1 .447 1 1zm-7.50052 10.85806c-.228 0-.456-.077-.644-.235-2.164-1.822-3.356-4.224-3.356-6.765 0-2.54102 1.192-4.94302 3.356-6.76502.422-.357 1.053-.302 1.41.121.355.422.301 1.053-.121 1.409-1.706 1.435-2.645 3.295-2.645 5.23502 0 1.94.939 3.8 2.645 5.235.422.356.476.987.121 1.409-.198.235-.481.356-.766.356zm6.50052-6c-.551 0-1-.448-1-1s.449-1 1-1 1 .448 1 1-.449 1-1 1zm0 2.9998c-.347 0-.679-.059-1-.142v5.142c0 .553.448 1 1 1s1-.447 1-1v-5.142c-.321.083-.653.142-1 .142zm3.2344.6451c.199.234.481.355.766.355.228 0 .456-.077.644-.235 1.519-1.28 2.356-2.972 2.356-4.765 0-1.79302-.837-3.48502-2.356-4.76502-.422-.356-1.054-.301-1.41.12-.355.423-.301 1.054.121 1.41 1.061.892 1.645 2.042 1.645 3.23502 0 1.193-.584 2.343-1.645 3.235-.422.356-.476.987-.121 1.41zm-7.2349.355c-.228 0-.456-.077-.644-.235-1.519-1.28-2.356-2.972-2.356-4.765 0-1.79302.837-3.48502 2.356-4.76502.422-.356 1.053-.302 1.41.12.355.423.301 1.054-.121 1.41-1.061.892-1.645 2.042-1.645 3.23502 0 1.193.584 2.343 1.645 3.235.422.356.476.987.121 1.41-.198.234-.481.355-.766.355zm9.735 1.6439c.198.235.481.356.766.356.228 0 .456-.077.644-.235 2.164-1.822 3.356-4.224 3.356-6.765 0-2.54099-1.192-4.94299-3.356-6.76499-.423-.356-1.054-.302-1.41.121-.355.422-.301 1.053.121 1.409 1.706 1.435 2.645 3.295 2.645 5.23499 0 1.94-.939 3.8-2.645 5.235-.422.356-.476.987-.121 1.409z" fill="#6b7280" fill-rule="evenodd"/></svg>