<svg fill="none" height="24" viewBox="0 0 24 24" width="24" xmlns="http://www.w3.org/2000/svg"><path clip-rule="evenodd" d="m18 15.0002c-.817 0-1.557.33-2.099.861l-7.93498-3.526c.013-.111.034-.221.034-.335s-.021-.224-.034-.335l7.93498-3.52596c.542.531 1.282.861 2.099.861 1.654 0 3-1.346 3-3s-1.346-3-3-3-3 1.346-3 3c0 .114.021.224.034.335l-7.93498 3.526c-.542-.531-1.282-.861-2.099-.861-1.654 0-3 1.34596-3 2.99996s1.346 3 3 3c.817 0 1.557-.33 2.099-.861l7.93498 3.526c-.013.111-.034.221-.034.335 0 1.654 1.346 3 3 3s3-1.346 3-3-1.346-3-3-3" fill="#6b7280" fill-rule="evenodd"/></svg>