<svg fill="none" height="64" viewBox="0 0 64 64" width="64" xmlns="http://www.w3.org/2000/svg"><path clip-rule="evenodd" d="m48.0002 40.001c-2.1787 0-4.152.88-5.5974 2.296l-21.16-9.4027c.0347-.296.0907-.5893.0907-.8933s-.056-.5974-.0907-.8934l21.16-9.4026c1.4454 1.416 3.4187 2.296 5.5974 2.296 4.4106 0 8-3.5894 8-8 0-4.4107-3.5894-8.00002-8-8.00002-4.4107 0-8 3.58932-8 8.00002 0 .304.056.5973.0906.8933l-21.16 9.4027c-1.4453-1.416-3.4186-2.296-5.5973-2.296-4.41067 0-8 3.5893-8 8 0 4.4106 3.58933 8 8 8 2.1787 0 4.152-.88 5.5973-2.296l21.16 9.4026c-.0346.296-.0906.5894-.0906.8934 0 4.4106 3.5893 8 8 8 4.4106 0 8-3.5894 8-8 0-4.4107-3.5894-8-8-8z" fill="#6b7280" fill-rule="evenodd"/></svg>