<svg fill="none" height="64" viewBox="0 0 64 64" width="64" xmlns="http://www.w3.org/2000/svg"><path clip-rule="evenodd" d="m50.2369 42.6964c3.6987-6.1706 5.7627-13.3173 5.7627-20.7493v-.3867c0-1.92-1.04-3.6986-2.7173-4.648l-18.6694-10.50131c-1.6106-.90667-3.6133-.904-5.2266.00267l-9.8774 5.55464zm-40.28599-25.2033c-1.20266 1.0026-1.94933 2.472-1.94933 4.0666v.3867c0 14.5653 7.88532 28.048 20.57862 35.1893l.808.456c.8054.4533 1.7094.6773 2.6134.6773.9013 0 1.8053-.2266 2.6133-.68l.8053-.4533c2.992-1.6827 5.704-3.728 8.1254-6.048zm-1.16964-8.71072c1.04266-1.04267 2.72803-1.04267 3.77063 0l42.6667 42.66662c1.0427 1.0427 1.0427 2.728 0 3.7707-.52.52-1.2027.7813-1.8853.7813-.6827 0-1.3654-.2613-1.8854-.7813l-42.66663-42.6667c-1.04267-1.0426-1.04267-2.72796 0-3.77062z" fill="#6b7280" fill-rule="evenodd"/></svg>