<svg fill="none" height="24" viewBox="0 0 24 24" width="24" xmlns="http://www.w3.org/2000/svg"><path clip-rule="evenodd" d="m18.8389 16.0112c1.387-2.314 2.161-4.994 2.161-7.78104v-.145c0-.72-.39-1.387-1.019-1.743l-7.001-3.938c-.604-.34-1.355-.339-1.96.001l-3.70403 2.083zm-15.10751-9.45131c-.451.376-.731.927-.731 1.525v.145c0 5.46201 2.957 10.51801 7.71701 13.19601l.303.171c.302.17.641.254.98.254.338 0 .677-.085.98-.255l.302-.17c1.122-.631 2.139-1.398 3.047-2.268zm-.4384-3.2665c.391-.391 1.023-.391 1.414 0l16.00001 16.00001c.391.391.391 1.023 0 1.414-.195.195-.451.293-.707.293s-.512-.098-.707-.293l-16.00001-16.00001c-.391-.391-.391-1.023 0-1.414z" fill="#6b7280" fill-rule="evenodd"/></svg>