<svg fill="none" height="24" viewBox="0 0 24 24" width="24" xmlns="http://www.w3.org/2000/svg"><path clip-rule="evenodd" d="m21.083 6.94824c-.367-.594-1.003-.948-1.701-.948h-12.79998l-.617-2.263c-.119-.435-.514-.737-.965-.737h-2c-.553 0-1 .448-1 1s.447 1 1 1h1.236l2.799 10.26296c.119.435.514.737.965.737h8.99998c.379 0 .725-.214.895-.553l3.276-6.55296c.312-.625.279-1.352-.088-1.946zm-13.583 11.05176c-.828 0-1.5.671-1.5 1.5s.672 1.5 1.5 1.5 1.5-.671 1.5-1.5-.672-1.5-1.5-1.5zm8.5 1.5c0-.829.672-1.5 1.5-1.5s1.5.671 1.5 1.5-.672 1.5-1.5 1.5-1.5-.671-1.5-1.5z" fill="#6b7280" fill-rule="evenodd"/></svg>