<svg fill="none" height="24" viewBox="0 0 24 24" width="24" xmlns="http://www.w3.org/2000/svg"><path clip-rule="evenodd" d="m16.0002 2v-1c0-.55-.45-1-1-1s-1 .45-1 1v1h-1c-.55 0-1 .45-1 1s.45 1 1 1h1v1c0 .55.45 1 1 1s1-.45 1-1v-1h1c.55 0 1-.45 1-1s-.45-1-1-1zm7.0828 6.948c-.367-.594-1.003-.948-1.701-.948h-12.8l-.617-2.263c-.119-.435-.514-.737-.965-.737h-2c-.553 0-1 .448-1 1s.447 1 1 1h1.236l2.799 10.263c.119.435.514.737.965.737h9c.379 0 .725-.214.895-.553l3.276-6.553c.313-.625.279-1.352-.088-1.946zm-13.58276 11.052c-.828 0-1.5.671-1.5 1.5s.672 1.5 1.5 1.5c.82796 0 1.49996-.671 1.49996-1.5s-.672-1.5-1.49996-1.5zm8.49996 1.5c0-.829.672-1.5 1.5-1.5s1.5.671 1.5 1.5-.672 1.5-1.5 1.5-1.5-.671-1.5-1.5zm-13.0002-.5h-4c-.55 0-1 .45-1 1s.45 1 1 1h4c.55 0 1-.45 1-1s-.45-1-1-1zm-4-5h2c.55 0 1 .45 1 1s-.45 1-1 1h-2c-.55 0-1-.45-1-1s.45-1 1-1z" fill="#6b7280" fill-rule="evenodd"/></svg>