<svg fill="none" height="64" viewBox="0 0 64 64" width="64" xmlns="http://www.w3.org/2000/svg"><path clip-rule="evenodd" d="m56.2215 18.5285c-.9787-1.584-2.6747-2.528-4.536-2.528h-34.1333l-1.6454-6.03468c-.3173-1.16-1.3706-1.96533-2.5733-1.96533h-5.33334c-1.47466 0-2.66666 1.19466-2.66666 2.66671 0 1.472 1.192 2.6666 2.66666 2.6666h3.29604l7.464 27.368c.3173 1.16 1.3706 1.9654 2.5733 1.9654h24c1.0107 0 1.9333-.5707 2.3867-1.4747l8.736-17.4747c.832-1.6666.744-3.6053-.2347-5.1893zm-36.2214 29.4715c-2.208 0-4 1.7893-4 4 0 2.2106 1.792 4 4 4s4-1.7894 4-4c0-2.2107-1.792-4-4-4zm22.6668 4c0-2.2107 1.792-4 4-4s4 1.7893 4 4c0 2.2106-1.792 4-4 4s-4-1.7894-4-4z" fill="#6b7280" fill-rule="evenodd"/></svg>