<svg fill="none" height="64" viewBox="0 0 64 64" width="64" xmlns="http://www.w3.org/2000/svg"><path clip-rule="evenodd" d="m49.8907 38.1187c-1.04-1.0453-2.7307-1.0507-3.7707-.008-1.0453 1.04-1.0507 2.728-.0107 3.7707l.7814.7866h-4.224c-5.8827 0-10.6667-4.7866-10.6667-10.6666 0-5.8827 4.784-10.6667 10.6667-10.6667h4.2346l-.7813.776c-1.0453 1.04-1.0507 2.728-.0107 3.7707.52.5226 1.2054.7866 1.8907.7866.68 0 1.3627-.2613 1.88-.7786l5.3333-5.3094c.504-.4986.784-1.176.7867-1.8826.0027-.7094-.2773-1.3867-.776-1.888l-5.3333-5.3574c-1.04-1.0453-2.7307-1.0506-3.7707-.008-1.0453 1.04-1.0507 2.728-.0107 3.7707l.7814.7867h-4.224c-5.5627 0-10.4667 2.8533-13.3334 7.1733-2.8666-4.32-7.7706-7.1733-13.3333-7.1733h-5.3333c-1.4747 0-2.6667 1.192-2.6667 2.6666 0 1.472 1.192 2.6667 2.6667 2.6667h5.3333c5.8827 0 10.6667 4.784 10.6667 10.6667 0 5.88-4.784 10.6666-10.6667 10.6666h-5.3333c-1.4747 0-2.6667 1.192-2.6667 2.6667 0 1.472 1.192 2.6667 2.6667 2.6667h5.3333c5.5627 0 10.4667-2.856 13.3333-7.176 2.8667 4.32 7.7707 7.176 13.3334 7.176h4.2346l-.7813.776c-1.0453 1.04-1.0507 2.728-.0107 3.7706.52.5227 1.2054.7867 1.8907.7867.68 0 1.3627-.2613 1.88-.7787l5.3333-5.3093c.504-.4987.784-1.176.7867-1.8827.0027-.7093-.2773-1.3866-.776-1.888z" fill="#6b7280" fill-rule="evenodd"/></svg>