<svg fill="none" height="64" viewBox="0 0 64 64" width="64" xmlns="http://www.w3.org/2000/svg"><path clip-rule="evenodd" d="m50.6667 27.4883c-1.472 0-2.6667-1.1946-2.6667-2.6666l-.0026-5.048-32.7787 32.7786c-.52.52-1.2027.7814-1.8854.7814-.6826 0-1.3653-.2614-1.8853-.7814-1.0427-1.0426-1.0427-2.7306 0-3.7706l16.7654-16.7654-15.5521-15.5493c-1.0426-1.0427-1.0426-2.7307 0-3.7707 1.0427-1.0426 2.728-1.0426 3.7707 0l15.552 15.5494 12.2187-12.2214-5.0373-.024c-1.472-.008-2.6614-1.208-2.6534-2.68s1.272-2.6266 2.68-2.6533l11.48.056c1.4667.008 2.6534 1.2 2.6534 2.6667l.008 11.4293c0 1.472-1.192 2.6667-2.664 2.6693zm-.0004 8.9898h.0134c1.4746.008 2.6613 1.208 2.6533 2.68l-.056 11.2213c.0853.776-.128 1.5787-.7253 2.1734-.52.52-1.2027.7813-1.8854.7813-.0406 0-.0803-.011-.1201-.0221-.0309-.0085-.0618-.0171-.0932-.0206l-11.272.008c-1.472 0-2.6667-1.1946-2.6667-2.6666s1.192-2.6667 2.664-2.6667l5.0107-.0027-7.408-7.4106c-1.0427-1.0427-1.0427-2.7307 0-3.7707 1.0427-1.0427 2.7307-1.0427 3.7707 0l7.4213 7.4213.0267-5.072c.008-1.4693 1.2-2.6533 2.6666-2.6533z" fill="#6b7280" fill-rule="evenodd"/></svg>