<svg fill="none" height="64" viewBox="0 0 64 64" width="64" xmlns="http://www.w3.org/2000/svg"><path clip-rule="evenodd" d="m43.8672 16.5364c-1.9573-.92-4.272-.648-5.8906.6933l-13.6 11.2347c-.1414.1173-.2507.2533-.376.384v-10.1813c0-1.4747-1.1947-2.6667-2.6667-2.6667s-2.6667 1.192-2.6667 2.6667v26.6666c0 1.4747 1.1947 2.6667 2.6667 2.6667s2.6667-1.192 2.6667-2.6667v-10.184c.1253.1307.2346.2694.376.3867l13.6 11.2373c.9813.8107 2.2186 1.2294 3.4746 1.2294.8187 0 1.6454-.1787 2.416-.5387 1.7254-.816 2.8-2.4347 2.8-4.2293v-22.4694c0-1.7946-1.0746-3.4133-2.8-4.2293z" fill="#6b7280" fill-rule="evenodd"/></svg>