<svg fill="none" height="24" viewBox="0 0 24 24" width="24" xmlns="http://www.w3.org/2000/svg"><path clip-rule="evenodd" d="m16.4502 6.20121c-.734-.345-1.602-.243-2.209.26l-5.10001 4.21299c-.053.044-.094.095-.141.144v-3.81799c0-.553-.448-1-1-1s-1 .447-1 1v9.99999c0 .553.448 1 1 1s1-.447 1-1v-3.819c.047.049.088.101.141.145l5.10001 4.214c.368.304.832.461 1.303.461.307 0 .617-.067.906-.202.647-.306 1.05-.913 1.05-1.586v-8.42599c0-.673-.403-1.28-1.05-1.586" fill="#6b7280" fill-rule="evenodd"/></svg>