<svg fill="none" height="24" viewBox="0 0 24 24" width="24" xmlns="http://www.w3.org/2000/svg"><path clip-rule="evenodd" d="m16 6.00003c-.552 0-1 .447-1 1v3.81797c-.047-.048-.088-.1-.142-.144l-5.09898-4.21397c-.609-.502-1.477-.604-2.209-.259-.648.306-1.05.913-1.05 1.586v8.42597c0 .673.402 1.28 1.05 1.586.289.136.599.202.906.202.471 0 .935-.157 1.303-.462l5.09998-4.213c.053-.044.094-.096.141-.144v3.818c0 .553.448 1 1 1s1-.447 1-1v-9.99997c0-.553-.448-1-1-1" fill="#6b7280" fill-rule="evenodd"/></svg>