<svg fill="none" height="64" viewBox="0 0 64 64" width="64" xmlns="http://www.w3.org/2000/svg"><path clip-rule="evenodd" d="m42.6668 16.0003c-1.472 0-2.6666 1.192-2.6666 2.6667v10.1813c-.1254-.128-.2347-.2666-.3787-.384l-13.5973-11.2373c-1.624-1.3387-3.9387-1.6107-5.8907-.6907-1.728.816-2.8 2.4347-2.8 4.2294v22.4693c0 1.7946 1.072 3.4133 2.8 4.2293.7707.3627 1.5973.5387 2.416.5387 1.256 0 2.4933-.4187 3.4747-1.232l13.6-11.2347c.1413-.1173.2506-.256.376-.384v10.1814c0 1.4746 1.1946 2.6666 2.6666 2.6666s2.6667-1.192 2.6667-2.6666v-26.6667c0-1.4747-1.1947-2.6667-2.6667-2.6667z" fill="#6b7280" fill-rule="evenodd"/></svg>