<svg fill="none" height="64" viewBox="0 0 64 64" width="64" xmlns="http://www.w3.org/2000/svg"><path clip-rule="evenodd" d="m10.6669 32.0006c0-4.9227 1.6933-9.4453 4.5013-13.0587l29.8907 29.8907c-3.6134 2.8107-8.136 4.5013-13.0587 4.5013-11.7627 0-21.3333-9.5706-21.3333-21.3333zm42.6666-.0003c0 4.9227-1.6934 9.4454-4.5014 13.0587l-29.8906-29.8907c3.6133-2.8106 8.136-4.5013 13.0586-4.5013 11.7627 0 21.3334 9.5707 21.3334 21.3333zm-21.3333-26.6668c-14.704 0-26.6667 11.9627-26.6667 26.6667s11.9627 26.6666 26.6667 26.6666 26.6666-11.9626 26.6666-26.6666-11.9626-26.6667-26.6666-26.6667z" fill="#6b7280" fill-rule="evenodd"/></svg>