<svg fill="none" height="24" viewBox="0 0 24 24" width="24" xmlns="http://www.w3.org/2000/svg"><path clip-rule="evenodd" d="m4.00005 12.0002c0-1.846.635-3.54204 1.688-4.89704l11.20905 11.20904c-1.3551 1.054-3.0511 1.688-4.8971 1.688-4.41095 0-7.99995-3.589-7.99995-8zm15.99995-.0001c0 1.846-.635 3.542-1.688 4.897l-11.20899-11.20903c1.355-1.054 3.05099-1.688 4.89699-1.688 4.411 0 8 3.589 8 8.00003zm-8-10.0001c-5.51397 0-9.99997 4.486-9.99997 10s4.486 10 9.99997 10c5.514 0 10-4.486 10-10s-4.486-10-10-10z" fill="#6b7280" fill-rule="evenodd"/></svg>