<svg fill="none" height="64" viewBox="0 0 64 64" width="64" xmlns="http://www.w3.org/2000/svg"><path clip-rule="evenodd" d="m38.6665 21.3348h-13.3333c-1.4747 0-2.6667-1.192-2.6667-2.6667 0-1.4746 1.192-2.6666 2.6667-2.6666h13.3333c1.4747 0 2.6667 1.192 2.6667 2.6666 0 1.4747-1.192 2.6667-2.6667 2.6667zm-6.6666 26.6667c-2.208 0-4-1.792-4-4s1.792-4 4-4 4 1.792 4 4-1.792 4-4 4zm13.3333-42.66654h-26.6667c-4.4107 0-8 3.58933-8 8.00004v37.3333c0 4.4107 3.5893 8 8 8h26.6667c4.4106 0 8-3.5893 8-8v-37.3333c0-4.41071-3.5894-8.00004-8-8.00004z" fill="#6b7280" fill-rule="evenodd"/></svg>