<svg fill="none" height="24" viewBox="0 0 24 24" width="24" xmlns="http://www.w3.org/2000/svg"><path clip-rule="evenodd" d="m12 22c5.5228 0 10-4.4772 10-10 0-5.52285-4.4772-10-10-10-5.52285 0-10 4.47715-10 10 0 5.5228 4.47715 10 10 10zm5-12.5c0 .83-.67 1.5-1.5 1.5s-1.5-.67-1.5-1.5.67-1.5 1.5-1.5 1.5.67 1.5 1.5zm-7 0c0 .83-.66999 1.5-1.49999 1.5s-1.5-.67-1.5-1.5.67-1.5 1.5-1.5 1.49999.67 1.49999 1.5zm7.11 4.5c-.8 2.04-2.78 3.5-5.11 3.5-2.32999 0-4.30999-1.46-5.10999-3.5z" fill="#84818a" fill-rule="evenodd"/></svg>