<svg fill="none" height="64" viewBox="0 0 64 64" width="64" xmlns="http://www.w3.org/2000/svg"><path clip-rule="evenodd" d="m31.9999 58.6666c14.7276 0 26.6667-11.9391 26.6667-26.6667s-11.9391-26.66665-26.6667-26.66665-26.66665 11.93905-26.66665 26.66665 11.93905 26.6667 26.66665 26.6667zm13.3334-33.3333c0 2.2133-1.7867 4-4 4s-4-1.7867-4-4c0-2.2134 1.7867-4 4-4s4 1.7866 4 4zm-18.6667 0c0 2.2133-1.7866 4-4 4-2.2133 0-4-1.7867-4-4 0-2.2134 1.7867-4 4-4 2.2134 0 4 1.7866 4 4zm18.96 12c-2.1333 5.44-7.4133 9.3333-13.6266 9.3333-6.2134 0-11.4934-3.8933-13.6267-9.3333z" fill="#84818a" fill-rule="evenodd"/></svg>