<svg viewBox="0 0 64 64" fill="none" xmlns="http://www.w3.org/2000/svg">
<path fill-rule="evenodd" clip-rule="evenodd" d="M23.8562 7.00879C25.9833 6.13431 28.2992 5.81929 30.5828 6.09277C33.5264 6.43065 36.1506 7.68255 38.4539 9.84668C38.4847 9.87613 38.5221 9.89796 38.5632 9.90918C38.6045 9.92037 38.6486 9.92103 38.6902 9.91113C41.8015 9.14713 44.7893 9.41604 47.6599 10.7188L47.7947 10.7832L48.1375 10.9531C51.1341 12.5056 53.2823 14.8602 54.5808 18.0137C55.1947 19.5153 55.5039 21.079 55.5105 22.7109C55.5539 23.9243 55.4201 25.1378 55.113 26.3125C55.0978 26.3719 55.0986 26.4347 55.114 26.4941C55.1295 26.5534 55.1596 26.6079 55.2019 26.6523C56.9377 28.4132 58.1443 30.6262 58.6843 33.0391C59.5367 37.237 58.6665 41.0198 56.074 44.3896L55.6746 44.876C53.9576 46.8404 51.7033 48.2601 49.1902 48.9609C49.1359 48.9773 49.0863 49.0064 49.0457 49.0459C49.0049 49.0855 48.9746 49.1345 48.9568 49.1885C48.3937 50.8136 47.8261 52.2003 46.7751 53.5869C44.1274 57.0805 40.2332 59.0245 35.8474 58.998C32.3518 58.9825 29.2534 57.7035 26.5505 55.1641C26.5097 55.1263 26.4593 55.0999 26.405 55.0879C26.3509 55.076 26.2947 55.0788 26.2419 55.0957C25.098 55.4645 23.9447 55.5172 22.697 55.5039C20.708 55.4875 18.7486 55.0183 16.9685 54.1309C15.1045 53.2063 13.4825 51.859 12.2302 50.1973C11.7819 49.601 11.3373 49.045 11.0105 48.3848C10.5636 47.4747 10.1986 46.5265 9.91968 45.5518C9.33211 43.3356 9.31969 41.0058 9.88257 38.7832C9.90024 38.7306 9.9057 38.6741 9.89819 38.6191C9.88786 38.5653 9.85927 38.5167 9.81812 38.4805C8.45662 37.1037 7.41663 35.4427 6.77124 33.6172C6.34347 32.4927 6.09434 31.3081 6.03491 30.1064C5.92844 28.5265 6.06935 26.9392 6.45093 25.4023C7.44467 22.1231 9.34111 19.5503 12.1433 17.6865C12.766 17.2714 13.3557 16.9487 13.9099 16.7168C14.5315 16.4586 15.1678 16.2354 15.8142 16.0479C15.8596 16.0345 15.9009 16.01 15.9343 15.9766C15.9679 15.943 15.9923 15.9011 16.0056 15.8555C16.4872 14.1203 17.3172 12.5012 18.4441 11.0967C19.9457 9.23078 21.7496 7.86781 23.8562 7.00879ZM25.988 23.8965C23.4396 22.0857 19.9586 22.9848 18.6755 25.8291C18.011 27.2997 17.8811 28.8499 18.283 30.4795L18.6033 31.7734L19.1775 33.8711C19.4094 35.0481 19.8622 36.1235 20.5291 37.0996L20.5945 37.1953C20.9478 37.6126 21.3344 37.9944 21.7517 38.3389C24.8125 40.8542 28.9846 39.1756 29.8171 35.417L29.9275 34.9473L29.9539 34.7705C30.0863 33.8873 30.0464 33.0215 29.8367 32.1758C29.4676 30.6773 29.0652 29.1869 28.6306 27.7061C28.1514 26.0764 27.2709 24.8063 25.988 23.8965ZM41.6755 20.2617C39.772 18.4906 36.8374 18.4264 34.947 20.2041C34.2094 20.8975 33.6973 21.8298 33.408 22.998C33.1205 24.1843 33.1204 25.4222 33.408 26.6084L33.4382 26.7275L33.5603 27.125C33.8407 28.0524 34.1011 28.9666 34.3396 29.8652C34.5869 30.7992 34.7861 31.4241 34.9363 31.7422C36.2039 34.4054 38.9552 36.3225 41.9519 35.1035C44.7363 33.9684 45.5755 30.6651 44.9441 27.9932C44.8491 27.589 44.7449 27.1868 44.6345 26.7871C44.3469 25.6219 44.0316 24.4637 43.6892 23.3135C43.3315 22.1917 42.6604 21.1759 41.6755 20.2617ZM25.8044 30.6162C26.0432 30.6162 26.2722 30.7111 26.4412 30.8799C26.6101 31.0489 26.7058 31.2786 26.7058 31.5176C26.7057 31.7564 26.6101 31.9854 26.4412 32.1543C26.2722 32.3232 26.0433 32.418 25.8044 32.418C25.5656 32.418 25.3367 32.3231 25.1677 32.1543C24.9988 31.9854 24.9032 31.7564 24.9031 31.5176C24.9031 31.2786 24.9988 31.0489 25.1677 30.8799C25.3367 30.7111 25.5657 30.6162 25.8044 30.6162ZM21.9216 25.3184C22.021 25.2919 22.1143 25.3255 22.2048 25.416C22.6353 25.8575 23.0659 26.2944 23.5007 26.7314C23.5388 26.7675 23.5852 26.7948 23.6355 26.8096L25.4246 27.2705C25.5482 27.3014 25.6236 27.3655 25.6501 27.4648C25.6789 27.5664 25.645 27.6636 25.5544 27.752L24.239 29.0439C24.2207 29.0639 24.2046 29.0863 24.1921 29.1104C24.178 29.1329 24.1666 29.1571 24.1589 29.1826C24.0044 29.7788 23.8501 30.3755 23.7 30.9717C23.669 31.0931 23.6023 31.1708 23.5007 31.1973C23.4015 31.2236 23.3067 31.1903 23.2185 31.0977C22.7879 30.6582 22.3567 30.2214 21.9216 29.7842C21.8825 29.7484 21.8358 29.7211 21.7849 29.7061L19.9968 29.2451C19.8732 29.2142 19.798 29.1475 19.7693 29.0459C19.7451 28.9489 19.7777 28.8541 19.8679 28.7637C20.3095 28.3353 20.7471 27.9023 21.1843 27.4717C21.2039 27.4523 21.2205 27.4297 21.2332 27.4053C21.2465 27.3832 21.2572 27.3597 21.2644 27.335C21.419 26.7387 21.5732 26.1421 21.7234 25.5459C21.7543 25.4224 21.8203 25.3472 21.9216 25.3184ZM40.9509 26.5596C41.0731 26.5535 41.1956 26.5727 41.3103 26.6152C41.425 26.6578 41.5303 26.7233 41.6189 26.8076C41.7075 26.892 41.7777 26.994 41.8259 27.1064C41.8741 27.2188 41.8992 27.3397 41.8992 27.4619C41.8992 27.5843 41.8741 27.7059 41.8259 27.8184C41.7777 27.9306 41.7074 28.032 41.6189 28.1162C41.5303 28.2006 41.425 28.266 41.3103 28.3086C41.1956 28.3512 41.0731 28.3703 40.9509 28.3643C40.7115 28.3641 40.4815 28.2689 40.3123 28.0996C40.143 27.9303 40.0486 27.7004 40.0486 27.4609C40.0486 27.2215 40.143 26.9916 40.3123 26.8223C40.4815 26.653 40.7115 26.5577 40.9509 26.5576V26.5596ZM37.074 21.2705C37.1754 21.2442 37.2729 21.2778 37.3611 21.3682C37.7893 21.8096 38.2177 22.2465 38.6482 22.6836C38.687 22.7204 38.7337 22.7482 38.7849 22.7637L40.5671 23.2275C40.6907 23.2585 40.7659 23.3265 40.7947 23.4258C40.8212 23.5252 40.7878 23.6207 40.6951 23.709L39.3787 24.9961C39.343 25.0348 39.3162 25.0809 39.2996 25.1309L38.8357 26.915C38.8048 27.0386 38.7388 27.1138 38.6375 27.1426C38.5381 27.1669 38.4426 27.1335 38.3542 27.043C37.9259 26.6014 37.4955 26.1638 37.0671 25.7266C37.0478 25.7071 37.0251 25.6913 37.0007 25.6787C36.9789 25.6651 36.9552 25.6543 36.9304 25.6475L35.1453 25.1836C35.022 25.1527 34.9472 25.0866 34.9207 24.9854C34.8942 24.886 34.9268 24.7927 35.0173 24.7021C35.459 24.2738 35.8965 23.8456 36.3337 23.415C36.3533 23.3956 36.3699 23.3731 36.3826 23.3486C36.3967 23.3268 36.408 23.3031 36.4158 23.2783L36.8796 21.498C36.9106 21.3722 36.9746 21.2992 37.074 21.2705Z" fill="#141414"/>
</svg>