<svg fill="none" height="24" viewBox="0 0 24 24" width="24" xmlns="http://www.w3.org/2000/svg"><path clip-rule="evenodd" d="m13 8.00055c0 .552-.448 1-1 1s-1-.448-1-1 .448-1 1-1 1 .448 1 1zm-2.5 7.49995c0-.827.673-1.5 1.5-1.5s1.5.673 1.5 1.5-.673 1.5-1.5 1.5-1.5-.673-1.5-1.5zm1.5 3.4999c-1.93 0-3.50002-1.57-3.50002-3.5s1.57002-3.5 3.50002-3.5 3.5 1.57 3.5 3.5-1.57 3.5-3.5 3.5zm0-13.99991c1.654 0 3 1.346 3 3s-1.346 3.00001-3 3.00001-3-1.34601-3-3.00001 1.346-3 3-3zm5-3h-10.00002c-1.654 0-3 1.346-3 3v14.00001c0 1.654 1.346 3 3 3h10.00002c1.654 0 3-1.346 3-3v-14.00001c0-1.654-1.346-3-3-3z" fill="#6b7280" fill-rule="evenodd"/></svg>