<svg fill="none" height="64" viewBox="0 0 64 64" width="64" xmlns="http://www.w3.org/2000/svg"><path clip-rule="evenodd" d="m34.6666 21.3351c0 1.472-1.1947 2.6667-2.6667 2.6667s-2.6666-1.1947-2.6666-2.6667 1.1946-2.6666 2.6666-2.6666 2.6667 1.1946 2.6667 2.6666zm-6.6667 19.9999c0-2.2054 1.7946-4 4-4 2.2053 0 4 1.7946 4 4 0 2.2053-1.7947 4-4 4-2.2054 0-4-1.7947-4-4zm3.9999 9.3331c-5.1466 0-9.3333-4.1866-9.3333-9.3333s4.1867-9.3333 9.3333-9.3333c5.1467 0 9.3334 4.1866 9.3334 9.3333s-4.1867 9.3333-9.3334 9.3333zm.0001-37.3331c4.4106 0 8 3.5893 8 8 0 4.4106-3.5894 8-8 8-4.4107 0-8-3.5894-8-8 0-4.4107 3.5893-8 8-8zm13.3333-8.00004h-26.6667c-4.4107 0-8 3.58933-8 8.00004v37.3333c0 4.4107 3.5893 8 8 8h26.6667c4.4106 0 8-3.5893 8-8v-37.3333c0-4.41071-3.5894-8.00004-8-8.00004z" fill="#6b7280" fill-rule="evenodd"/></svg>