<svg width="64" height="64" viewBox="0 0 64 64" fill="none" xmlns="http://www.w3.org/2000/svg">
<path d="M29.3333 34.6666H10.6667C9.19391 34.6666 8 33.4727 8 32C8 30.5272 9.19391 29.3333 10.6667 29.3333H29.3333C29.3333 21.9695 35.3029 16 42.6667 16H49.5625L46.1146 12.5521C45.0732 11.5107 45.0732 9.82263 46.1146 8.78123C47.156 7.73983 48.844 7.73983 49.8854 8.78123L56 14.8958C58.0825 16.9786 58.0825 20.3547 56 22.4375L49.8854 28.5521C48.844 29.5935 47.156 29.5935 46.1146 28.5521C45.0732 27.5107 45.0732 25.8226 46.1146 24.7812L49.5625 21.3333H42.6667C38.2484 21.3333 34.6667 24.915 34.6667 29.3333V34.6666C34.6667 39.0849 38.2484 42.6666 42.6667 42.6666H49.5625L46.1146 39.2187C45.0732 38.1773 45.0732 36.4893 46.1146 35.4479C47.156 34.4065 48.844 34.4065 49.8854 35.4479L56 41.5625C58.0825 43.6452 58.0825 47.0214 56 49.1041L49.8854 55.2187C48.844 56.2601 47.156 56.2601 46.1146 55.2187C45.0732 54.1773 45.0732 52.4893 46.1146 51.4479L49.5625 48H42.6667C35.3029 48 29.3333 42.0304 29.3333 34.6666Z" fill="#141414"/>
</svg>
