<svg width="24" height="24" viewBox="0 0 24 24" fill="none" xmlns="http://www.w3.org/2000/svg">
<g id="Icon/Fill/square">
<path id="Mask" fill-rule="evenodd" clip-rule="evenodd" d="M6 5C5.449 5 5 5.449 5 6V18C5 18.551 5.449 19 6 19H18C18.551 19 19 18.551 19 18V6C19 5.449 18.551 5 18 5H6ZM18 21H6C4.346 21 3 19.654 3 18V6C3 4.346 4.346 3 6 3H18C19.654 3 21 4.346 21 6V18C21 19.654 19.654 21 18 21Z" fill="#231F20"/>
<mask id="mask0" mask-type="alpha" maskUnits="userSpaceOnUse" x="3" y="3" width="18" height="18">
<path id="Mask_2" fill-rule="evenodd" clip-rule="evenodd" d="M6 5C5.449 5 5 5.449 5 6V18C5 18.551 5.449 19 6 19H18C18.551 19 19 18.551 19 18V6C19 5.449 18.551 5 18 5H6ZM18 21H6C4.346 21 3 19.654 3 18V6C3 4.346 4.346 3 6 3H18C19.654 3 21 4.346 21 6V18C21 19.654 19.654 21 18 21Z" fill="white"/>
</mask>
<g mask="url(#mask0)">
<g id="&#240;&#159;&#142;&#168; Color">
<rect id="Base" width="24" height="24" fill="#0D1C2E"/>
</g>
</g>
</g>
</svg>
