<svg viewBox="0 0 64 64" fill="none" xmlns="http://www.w3.org/2000/svg">
<path fill-rule="evenodd" clip-rule="evenodd" d="M20.4595 53.3333C30.794 53.3333 37.5156 47.7416 37.5156 39.3298C37.5156 32.8063 33.4274 28.6611 26.1176 26.9444L21.4244 25.5063C17.3074 24.5621 14.9044 23.4283 15.4706 20.5319C15.9416 18.1223 17.3507 16.7621 20.6275 16.7621C31.0445 16.7621 34.904 20.5319 34.904 20.5319V11.4648C34.904 11.4648 31.1464 8 20.6275 8C10.7131 8 5.33325 13.2116 5.33325 21.2801C5.33325 27.8036 9.0615 31.5973 16.6233 33.3998C17.1526 33.535 17.4231 33.6045 17.4348 33.6082C18.585 33.9718 20.1371 34.4523 22.0911 35.0496C25.956 35.9938 26.9499 36.9959 26.9499 40.0002C26.9499 42.7469 24.1564 44.3082 20.4595 44.3082C9.80981 44.3082 5.33325 38.8043 5.33325 38.8043V48.85C5.33325 48.85 8.13266 53.3333 20.4595 53.3333Z M52.4202 52.6546C56.0786 52.6546 58.8029 49.951 58.8029 46.2931C58.8029 42.5557 56.1564 39.9316 52.4202 39.9316C48.7618 39.9316 46.1153 42.5557 46.1153 46.2931C46.1153 50.0305 48.7618 52.6546 52.4202 52.6546Z" fill="#141414"/>
</svg>