<svg fill="none" height="64" viewBox="0 0 64 64" width="64" xmlns="http://www.w3.org/2000/svg"><path d="m26.8206 8.52368c2.3929-4.25358 8.5013-4.25358 10.8916 0l5.2158 9.27932c.0882.1571.2091.2934.3545.3994s.3121.1792.4883.2148l10.4092 2.1075c4.7753.9684 6.6606 6.7967 3.3652 10.3906l-7.1885 7.8418c-.1213.1327-.2133.2905-.2685.4619s-.0727.3533-.0518.5322l1.2198 10.583c.5575 4.8504-4.3825 8.4521-8.8106 6.4209l-9.6592-4.4345c-.1632-.0749-.341-.1133-.5205-.1133-.1792 0-.3565.0385-.5195.1133l-9.6563 4.4345c-4.4281 2.0315-9.3716-1.5704-8.8115-6.4209l1.2197-10.583c.0206-.179.0029-.3609-.0527-.5322-.0557-.1714-.1478-.3294-.2695-.4619l-7.1885-7.8418c-3.2954-3.5964-1.40769-9.4223 3.3652-10.3906l10.4121-2.1075c.1759-.0353.342-.1083.4873-.2138.1454-.1056.2671-.2408.3555-.3975z" fill="#000"/></svg>