<svg fill="none" height="24" viewBox="0 0 24 24" width="24" xmlns="http://www.w3.org/2000/svg"><path clip-rule="evenodd" d="m17.5616 21.0007c-.158 0-.317-.037-.463-.113l-5.099-2.664-5.09802 2.664c-.338.175-.746.145-1.052-.079-.308-.224-.461-.603-.396-.978l.971-5.628-4.12-3.985c-.274-.26505-.373-.66305-.256-1.02705.117-.362.43-.627.808-.681l5.7-.828 2.54802-5.126c.338-.68 1.453-.68 1.791 0l2.548 5.126 5.7.828c.378.054.691.319.808.681.117.364.018.762-.256 1.02705l-4.12 3.985.971 5.628c.065.375-.089.754-.396.978-.174.128-.381.192-.589.192" fill="#6b7280" fill-rule="evenodd"/></svg>