<svg fill="none" height="64" viewBox="0 0 64 64" width="64" xmlns="http://www.w3.org/2000/svg"><path clip-rule="evenodd" d="m46.8307 56.002c-.4213 0-.8453-.0987-1.2346-.3014l-13.5973-7.1039-13.5947 7.1039c-.9013.4667-1.9893.3867-2.8053-.2106-.8214-.5973-1.2294-1.608-1.056-2.608l2.5893-15.008-10.98668-10.6267c-.73067-.7066-.99467-1.768-.68267-2.7386.312-.9654 1.14667-1.672 2.15467-1.816l15.19998-2.208 6.7947-13.66938c.9013-1.81333 3.8747-1.81333 4.776 0l6.7947 13.66938 15.2 2.208c1.008.144 1.8426.8506 2.1546 1.816.312.9706.048 2.032-.6826 2.7386l-10.9867 10.6267 2.5893 15.008c.1734 1-.2373 2.0107-1.056 2.608-.464.3413-1.016.512-1.5707.512z" fill="#6b7280" fill-rule="evenodd"/></svg>