<svg fill="none" height="64" viewBox="0 0 64 64" width="64" xmlns="http://www.w3.org/2000/svg"><path clip-rule="evenodd" d="m32.0002 16.0002c1.472 0 2.6666-1.192 2.6666-2.6667v-5.33334c0-1.47466-1.1946-2.66666-2.6666-2.66666s-2.6667 1.192-2.6667 2.66666v5.33334c0 1.4747 1.1947 2.6667 2.6667 2.6667zm23.9999 13.3333h-5.3333c-1.472 0-2.6667 1.192-2.6667 2.6667 0 1.4746 1.1947 2.6666 2.6667 2.6666h5.3333c1.472 0 2.6667-1.192 2.6667-2.6666 0-1.4747-1.1947-2.6667-2.6667-2.6667zm-42.6666 0c1.472 0 2.6667 1.192 2.6667 2.6667 0 1.4746-1.1947 2.6666-2.6667 2.6666h-5.33334c-1.472 0-2.66666-1.192-2.66666-2.6666 0-1.4747 1.19466-2.6667 2.66666-2.6667zm3.2552-15.9245c-1.0586-1.0214-2.7466-.9894-3.7706.0666-1.024 1.0587-.9947 2.7494.064 3.7707l3.8373 3.7067c.52.5013 1.1867.7466 1.8533.7466.6987 0 1.3947-.272 1.9174-.8133 1.024-1.0587.9946-2.7493-.064-3.7707zm30.692 7.5451c-.52.4987-1.1866.7467-1.8533.7467-.6987 0-1.3947-.2747-1.9173-.816-1.024-1.056-.9947-2.7467.064-3.7707l3.8373-3.704c1.064-1.0213 2.7493-.9893 3.7707.0667 1.024 1.056.9946 2.7466-.064 3.7706zm-15.2805 27.0459c-1.472 0-2.6667 1.192-2.6667 2.6667v5.3333c0 1.4747 1.1947 2.6667 2.6667 2.6667s2.6666-1.192 2.6666-2.6667v-5.3333c0-1.4747-1.1946-2.6667-2.6666-2.6667zm11.5093-4.8862c1.024-1.056 2.712-1.088 3.7707-.0667l3.8373 3.7067c1.0587 1.0213 1.088 2.712.064 3.7706-.5226.5414-1.2186.8134-1.9173.8134-.6667 0-1.3333-.2454-1.8533-.7467l-3.8374-3.7067c-1.0586-1.0213-1.088-2.712-.064-3.7706zm-26.7893-.0667-3.8373 3.7067c-1.0587 1.0213-1.088 2.712-.064 3.7706.5226.5414 1.2186.8134 1.9173.8134.6667 0 1.3333-.2454 1.8533-.7467l3.8374-3.7067c1.0586-1.0213 1.088-2.712.064-3.7706-1.0214-1.056-2.7094-1.088-3.7707-.0667zm4.6133-11.0469c0-5.8827 4.784-10.6667 10.6667-10.6667 5.8826 0 10.6666 4.784 10.6666 10.6667 0 5.8826-4.784 10.6666-10.6666 10.6666-5.8827 0-10.6667-4.784-10.6667-10.6666z" fill="#6b7280" fill-rule="evenodd"/></svg>