<svg fill="none" height="24" viewBox="0 0 24 24" width="24" xmlns="http://www.w3.org/2000/svg"><path clip-rule="evenodd" d="m12 6c.552 0 1-.447 1-1v-2c0-.553-.448-1-1-1s-1 .447-1 1v2c0 .553.448 1 1 1zm9 5h-2c-.552 0-1 .447-1 1s.448 1 1 1h2c.552 0 1-.447 1-1s-.448-1-1-1zm-15.99998 0c.552 0 1 .447 1 1s-.448 1-1 1h-2c-.552 0-1-.447-1-1s.448-1 1-1zm1.2207-5.9717c-.397-.383-1.03-.371-1.414.025-.384.397-.373 1.031.024 1.414l1.439 1.39c.195.188.445.28.695.28.262 0 .523-.102.719-.305.384-.397.373-1.031-.024-1.414zm11.50948 2.82943c-.195.187-.445.28-.695.28-.262 0-.523-.103-.719-.306-.384-.396-.373-1.03.024-1.414l1.439-1.389c.399-.383 1.031-.371 1.414.025.384.396.373 1.03-.024 1.414zm-5.7302 10.14217c-.552 0-1 .447-1 1v2c0 .553.448 1 1 1s1-.447 1-1v-2c0-.553-.448-1-1-1zm4.316-1.8323c.384-.396 1.017-.408 1.414-.025l1.439 1.39c.397.383.408 1.017.024 1.414-.196.203-.457.305-.719.305-.25 0-.5-.092-.695-.28l-1.439-1.39c-.397-.383-.408-1.017-.024-1.414zm-10.04597-.025-1.439 1.39c-.397.383-.408 1.017-.024 1.414.196.203.457.305.719.305.25 0 .5-.092.695-.28l1.439-1.39c.397-.383.408-1.017.024-1.414-.383-.396-1.016-.408-1.414-.025zm1.72999-4.1426c0-2.206 1.79399-4 3.99998-4 2.206 0 4 1.794 4 4s-1.794 4-4 4c-2.20599 0-3.99998-1.794-3.99998-4z" fill="#6b7280" fill-rule="evenodd"/></svg>