<svg viewBox="0 0 64 64" fill="none" xmlns="http://www.w3.org/2000/svg">
<path fill-rule="evenodd" clip-rule="evenodd" d="M31.9999 5.33325C46.7275 5.33325 58.6666 17.2723 58.6666 31.9999C58.6666 46.7275 46.7275 58.6666 31.9999 58.6666C17.2723 58.6666 5.33325 46.7275 5.33325 31.9999C5.33325 17.2723 17.2723 5.33325 31.9999 5.33325ZM45.0832 19.2655C43.8797 19.287 42.0309 19.9293 33.1458 23.6249C30.0328 24.9197 23.8116 27.5976 14.4843 31.6614C12.9704 32.2635 12.1769 32.8537 12.1041 33.4296C11.9654 34.5359 13.5584 34.8823 15.5624 35.5338C17.196 36.0648 19.3937 36.686 20.5364 36.7109C21.5728 36.7332 22.7306 36.304 24.0077 35.427C32.7233 29.5437 37.2227 26.5692 37.5051 26.5051C37.7041 26.46 37.9796 26.4048 38.1666 26.5702C38.3529 26.7358 38.3373 27.0492 38.3176 27.1353C38.1593 27.8104 29.9819 35.2483 29.4999 35.7473C27.6994 37.6174 25.6504 38.7643 28.8098 40.8463C31.5433 42.6476 33.1342 43.7971 35.9504 45.6431C37.7503 46.823 39.1624 48.2204 41.0207 48.0494C41.8757 47.9705 42.7597 47.1659 43.2082 44.7681C44.2684 39.1004 46.3517 26.8226 46.8332 21.7629C46.8754 21.3196 46.8212 20.7516 46.7786 20.5025C46.7359 20.2535 46.6463 19.8978 46.3228 19.6353C45.9394 19.3251 45.3477 19.2609 45.0832 19.2655Z" fill="#141414"/>
</svg>