<svg fill="none" height="64" viewBox="0 0 64 64" width="64" xmlns="http://www.w3.org/2000/svg"><path clip-rule="evenodd" d="m53.3333 10.6665h-42.6666c-1.4747 0-2.6667 1.192-2.6667 2.6667v8c0 1.4746 1.192 2.6666 2.6667 2.6666 1.4746 0 2.6666-1.192 2.6666-2.6666v-5.3334h16v34.6667h-5.3333c-1.4747 0-2.6667 1.192-2.6667 2.6667 0 1.4746 1.192 2.6666 2.6667 2.6666h16c1.4747 0 2.6667-1.192 2.6667-2.6666 0-1.4747-1.192-2.6667-2.6667-2.6667h-5.3333v-34.6667h16v5.3334c0 1.4746 1.192 2.6666 2.6666 2.6666 1.4747 0 2.6667-1.192 2.6667-2.6666v-8c0-1.4747-1.192-2.6667-2.6667-2.6667z" fill="#6b7280" fill-rule="evenodd"/></svg>