<svg viewBox="0 0 64 64" fill="none" xmlns="http://www.w3.org/2000/svg">
<path fill-rule="evenodd" clip-rule="evenodd" d="M50.6667 18.6667V13.3333H34.6667V50.6667H40C41.4728 50.6667 42.6667 51.8606 42.6667 53.3333C42.6667 54.8061 41.4728 56 40 56H24C22.5272 56 21.3333 54.8061 21.3333 53.3333C21.3333 51.8606 22.5272 50.6667 24 50.6667H29.3333V13.3333H13.3333V18.6667C13.3333 20.1394 12.1394 21.3333 10.6667 21.3333C9.19391 21.3333 8 20.1394 8 18.6667V10.6667C8 9.19391 9.19391 8 10.6667 8H53.3333C54.8061 8 56 9.19391 56 10.6667V18.6667C56 20.1394 54.8061 21.3333 53.3333 21.3333C51.8606 21.3333 50.6667 20.1394 50.6667 18.6667Z" fill="#141414"/>
</svg>