<svg fill="none" height="24" viewBox="0 0 24 24" width="24" xmlns="http://www.w3.org/2000/svg"><path clip-rule="evenodd" d="m15 5.00007v4.54h-2v-4.54c0-.551.448-1 1-1 .267 0 .514.102.713.306.184.181.287.427.287.694zm-6 11.99993c0 2.757 2.243 5 5 5s5-2.243 5-5c0-1.58-.754-3.063-2-3.997v-8.003c0-.811-.316-1.566-.873-2.108-.561-.575-1.315-.892-2.127-.892-1.654 0-3 1.346-3 3v8.003c-1.246.934-2 2.417-2 3.997zm-5.99998-10h4c.55 0 1-.45 1-1s-.45-1-1-1h-4c-.55 0-1 .45-1 1s.45 1 1 1z" fill="#6b7280" fill-rule="evenodd"/></svg>