<svg fill="none" height="24" viewBox="0 0 24 24" width="24" xmlns="http://www.w3.org/2000/svg"><path clip-rule="evenodd" d="m15 9.54007v-4.54c0-.267-.103-.513-.287-.694-.199-.204-.446-.306-.713-.306-.552 0-1 .449-1 1v4.54zm-1 12.45993c-2.757 0-5-2.243-5-5 0-1.58.754-3.063 2-3.997v-8.003c0-1.654 1.346-3 3-3 .812 0 1.566.317 2.127.892.557.542.873 1.297.873 2.108v8.003c1.246.934 2 2.417 2 3.997 0 2.757-2.243 5-5 5zm-9.99997-15h-1.00001c-.55 0-1-.45-1-1s.45-1 1-1h1.00001v-1.00007c0-.55.45-1 1-1s1 .45 1 1v1.00007h.99999c.55 0 1 .45 1 1s-.45 1-1 1h-.99999v.99994c0 .55-.45 1-1 1s-1-.45-1-1z" fill="#6b7280" fill-rule="evenodd"/></svg>