<svg fill="none" height="64" viewBox="0 0 64 64" width="64" xmlns="http://www.w3.org/2000/svg"><path clip-rule="evenodd" d="m34.6665 25.4403v-12.1066c0-.712-.2747-1.368-.7654-1.8507-.5306-.544-1.1893-.816-1.9013-.816-1.472 0-2.6667 1.1973-2.6667 2.6667v12.1066zm-2.6667 33.2265c-7.352 0-13.3333-5.9813-13.3333-13.3333 0-4.2133 2.0107-8.168 5.3333-10.6587v-21.3413c0-4.41067 3.5894-8 8-8 2.1654 0 4.176.84533 5.672 2.37866 1.4854 1.44534 2.328 3.45864 2.328 5.62134v21.3413c3.3227 2.4907 5.3334 6.4454 5.3334 10.6587 0 7.352-5.9814 13.3333-13.3334 13.3333z" fill="#6b7280" fill-rule="evenodd"/></svg>