<svg width="24" height="24" viewBox="0 0 24 24" fill="none" xmlns="http://www.w3.org/2000/svg">
<g id="Icon/Fill/thermometer-plus">
<path id="Mask" fill-rule="evenodd" clip-rule="evenodd" d="M15 9.54V5C15 4.733 14.897 4.487 14.713 4.306C14.514 4.102 14.267 4 14 4C13.448 4 13 4.449 13 5V9.54H15ZM14 22C11.243 22 9 19.757 9 17C9 15.42 9.754 13.937 11 13.003V5C11 3.346 12.346 2 14 2C14.812 2 15.566 2.317 16.127 2.892C16.684 3.434 17 4.189 17 5V13.003C18.246 13.937 19 15.42 19 17C19 19.757 16.757 22 14 22ZM4 7H3C2.45 7 2 6.55 2 6C2 5.45 2.45 5 3 5H4V4C4 3.45 4.45 3 5 3C5.55 3 6 3.45 6 4V5H7C7.55 5 8 5.45 8 6C8 6.55 7.55 7 7 7H6V8C6 8.55 5.55 9 5 9C4.45 9 4 8.55 4 8V7Z" fill="#000000"/>
</g>
</svg>
