<svg fill="none" height="64" viewBox="0 0 64 64" width="64" xmlns="http://www.w3.org/2000/svg"><path clip-rule="evenodd" d="m40.0001 13.3337v12.1066h-5.3334v-12.1066c0-1.4694 1.1947-2.6667 2.6667-2.6667.712 0 1.3707.272 1.9013.816.4907.4827.7654 1.1387.7654 1.8507zm-16 31.9998c0 7.352 5.9814 13.3333 13.3334 13.3333s13.3333-5.9813 13.3333-13.3333c0-4.2133-2.0107-8.168-5.3333-10.6587v-21.3413c0-2.1627-.8427-4.176-2.328-5.62134-1.496-1.53333-3.5067-2.37866-5.672-2.37866-4.4107 0-8 3.58933-8 8v21.3413c-3.3227 2.4907-5.3334 6.4454-5.3334 10.6587zm-15.99994-26.6667h10.66664c1.4667 0 2.6667-1.2 2.6667-2.6666 0-1.4667-1.2-2.6667-2.6667-2.6667h-10.66664c-1.46666 0-2.66666 1.2-2.66666 2.6667 0 1.4666 1.2 2.6666 2.66666 2.6666z" fill="#6b7280" fill-rule="evenodd"/></svg>