<svg fill="none" height="64" viewBox="0 0 64 64" width="64" xmlns="http://www.w3.org/2000/svg"><path clip-rule="evenodd" d="m50.6668 10.6665c4.4183 0 8 3.5817 8 8v8c-2.9455 0-5.3333 2.3878-5.3333 5.3333 0 2.9456 2.3878 5.3334 5.3333 5.3334v8c0 4.4182-3.5817 8-8 8h-37.3333c-4.41828 0-8-3.5818-8-8v-8c2.94551 0 5.3333-2.3878 5.3333-5.3334 0-2.9455-2.38779-5.3333-5.3333-5.3333v-8c0-4.4183 3.58172-8 8-8zm-21.3333 16c0-1.4728-1.1939-2.6667-2.6667-2.6667-1.4727 0-2.6666 1.1939-2.6666 2.6667v10.6667c0 1.4727 1.1939 2.6666 2.6666 2.6666 1.4728 0 2.6667-1.1939 2.6667-2.6666z" fill="#6b7280" fill-rule="evenodd"/></svg>