<svg fill="none" height="64" viewBox="0 0 64 64" width="64" xmlns="http://www.w3.org/2000/svg"><path clip-rule="evenodd" d="m40 37.3333h-8c-1.472 0-2.6666-1.192-2.6666-2.6666v-8c0-1.4747 1.1946-2.6667 2.6666-2.6667s2.6667 1.192 2.6667 2.6667v5.3333h5.3333c1.472 0 2.6667 1.192 2.6667 2.6667 0 1.4746-1.1947 2.6666-2.6667 2.6666zm-5.3653-26.5121c.0053-.056.032-.0987.032-.1547v-2.66666h2.6666c1.472 0 2.6667-1.192 2.6667-2.66667s-1.1947-2.66667-2.6667-2.66667h-10.6666c-1.472 0-2.6667 1.192-2.6667 2.66667s1.1947 2.66667 2.6667 2.66667h2.6666v2.66666c0 .056.0267.0987.032.1547-11.9973 1.3173-21.3653 11.504-21.3653 23.8453 0 13.2347 10.768 24 24 24s24-10.7653 24-24c0-12.3413-9.368-22.528-21.3653-23.8453z" fill="#6b7280" fill-rule="evenodd"/></svg>