<svg fill="none" height="64" viewBox="0 0 64 64" width="64" xmlns="http://www.w3.org/2000/svg"><path clip-rule="evenodd" d="m24.0077 29.3491c-1.472 0-2.6613 1.1947-2.6587 2.6667 0 1.4693 1.1947 2.6613 2.6667 2.6587 1.4693-.0027 2.6613-1.1974 2.6587-2.6667-.0027-1.472-1.1974-2.6613-2.6667-2.6587zm.0132 10.651c-4.4054.0053-7.9947-3.5734-8-7.9787-.0054-4.408 3.5733-7.9947 7.9786-8 4.408-.0053 7.9947 3.5733 8 7.9787.0054 4.4053-3.5733 7.9946-7.9786 8zm15.9439-26.6507-15.9813.0213c-10.2747.0134-18.62936 8.3867-18.61336 18.6667.01333 10.2747 8.38666 18.6293 18.66666 18.6133l15.9787-.0213c10.2773-.0133 18.6293-8.3867 18.616-18.6667-.0134-10.2746-8.3894-18.6293-18.6667-18.6133z" fill="#6b7280" fill-rule="evenodd"/></svg>