<svg fill="none" height="24" viewBox="0 0 24 24" width="24" xmlns="http://www.w3.org/2000/svg"><path clip-rule="evenodd" d="m9.00292 11.006c-.552 0-.998.448-.997 1 0 .551.448.998 1 .997.551-.001.99798-.449.99698-1-.001-.552-.44898-.998-.99998-.997zm.00494 3.9941c-1.652.002-2.998-1.34-3-2.992-.002-1.653 1.34-2.99799 2.992-2.99999 1.65304-.002 2.99804 1.33999 3.00004 2.99199s-1.34 2.998-2.99204 3zm5.97894-9.99399-5.99297.008c-3.853.005-6.986 3.145-6.98 6.99999.005 3.853 3.145 6.986 7 6.98l5.99197-.008c3.854-.005 6.986-3.145 6.981-7-.005-3.85299-3.146-6.98599-7-6.97999z" fill="#6b7280" fill-rule="evenodd"/></svg>