<svg fill="none" height="64" viewBox="0 0 64 64" width="64" xmlns="http://www.w3.org/2000/svg"><path clip-rule="evenodd" d="m40.0002 29.3335c-1.472 0-2.6667 1.1947-2.6667 2.6667s1.1947 2.6666 2.6667 2.6666 2.6666-1.1946 2.6666-2.6666-1.1946-2.6667-2.6666-2.6667zm-.0001 10.6665c-4.4106 0-8-3.5893-8-8s3.5894-8 8-8c4.4107 0 8 3.5893 8 8s-3.5893 8-8 8zm.0001-26.6665h-16c-10.2907 0-18.6667 8.376-18.6667 18.6667 0 10.2906 8.376 18.6666 18.6667 18.6666h16c10.2906 0 18.6666-8.376 18.6666-18.6666 0-10.2907-8.376-18.6667-18.6666-18.6667z" fill="#6b7280" fill-rule="evenodd"/></svg>