<svg width="64" height="64" viewBox="0 0 64 64" fill="none" xmlns="http://www.w3.org/2000/svg">
<path d="M24.55 15.7143C24.55 14.216 25.7372 13 27.2 13H56.35C57.8128 13 59 14.216 59 15.7143C59 17.2126 57.8128 18.4286 56.35 18.4286H27.2C25.7372 18.4286 24.55 17.2126 24.55 15.7143ZM56.35 29.2857H8.65C7.1872 29.2857 6 30.5017 6 32C6 33.4983 7.1872 34.7143 8.65 34.7143H56.35C57.8128 34.7143 59 33.4983 59 32C59 30.5017 57.8128 29.2857 56.35 29.2857ZM37.8 45.5714H8.65C7.1872 45.5714 6 46.7874 6 48.2857C6 49.784 7.1872 51 8.65 51H37.8C39.2628 51 40.45 49.784 40.45 48.2857C40.45 46.7874 39.2628 45.5714 37.8 45.5714Z" fill="#141416"/>
</svg>
