<svg width="24" height="24" viewBox="0 0 24 24" fill="none" xmlns="http://www.w3.org/2000/svg">
<g id="Icon/Fill/trash">
<path id="Mask" fill-rule="evenodd" clip-rule="evenodd" d="M10 4.32757C10 4.17257 10.214 3.99957 10.5 3.99957H13.5C13.786 3.99957 14 4.17257 14 4.32757V5.99957H10V4.32757ZM21 5.99957H20H16V4.32757C16 3.04357 14.879 1.99957 13.5 1.99957H10.5C9.121 1.99957 8 3.04357 8 4.32757V5.99957H4H3C2.45 5.99957 2 6.45057 2 6.99957C2 7.54957 2.45 7.99957 3 7.99957H4V18.9996C4 20.6546 5.346 21.9996 7 21.9996H17C18.654 21.9996 20 20.6546 20 18.9996V7.99957H21C21.55 7.99957 22 7.54957 22 6.99957C22 6.45057 21.55 5.99957 21 5.99957Z" fill="#423F3D"/>
</g>
</svg>
