<svg fill="none" height="64" viewBox="0 0 64 64" width="64" xmlns="http://www.w3.org/2000/svg"><path clip-rule="evenodd" d="m26.6669 11.5402c0-.4133.5706-.8747 1.3333-.8747h8c.7627 0 1.3333.4614 1.3333.8747v4.4587h-10.6666zm29.3333 4.4585h-2.6667-10.6667v-4.4587c0-3.42397-2.9893-6.20797-6.6666-6.20797h-8c-3.6774 0-6.6667 2.784-6.6667 6.20797v4.4587h-10.6667-2.66664c-1.46666 0-2.66666 1.2027-2.66666 2.6667 0 1.4666 1.2 2.6666 2.66666 2.6666h2.66664v29.3334c0 4.4133 3.5894 8 8 8h26.6667c4.4107 0 8-3.5867 8-8v-29.3334h2.6667c1.4666 0 2.6666-1.2 2.6666-2.6666 0-1.464-1.2-2.6667-2.6666-2.6667z" fill="#6b7280" fill-rule="evenodd"/></svg>