<svg fill="none" height="64" viewBox="0 0 64 64" width="64" xmlns="http://www.w3.org/2000/svg"><path d="m35.875 5.33301c1.7751-.00022 3.5005.59013 4.9033 1.67773 1.4027 1.08762 2.4047 2.61106 2.8467 4.33006l1.1221 4.3701h8.5859c.707 0 1.3857.2815 1.8858.7813.4998.4998.7809 1.1789.7812 1.8857-.0001.7068-.2817 1.3848-.7812 1.8848-.5001.5001-1.1785.7812-1.8858.7812h-.2705l-3.2393 30.4688c-.2089 1.9637-1.1363 3.7809-2.6044 5.1016-1.4691 1.3208-3.3761 2.0531-5.3516 2.0527h-19.7344c-1.9757.001-3.882-.7292-5.3516-2.0498-1.4694-1.3208-2.3973-3.1398-2.6064-5.1045l-3.2422-30.4688h-.2656c-.70725 0-1.38565-.2811-1.88575-.7812-.49959-.5-.78116-1.178-.78125-1.8848.00028-.7068.2814-1.3859.78125-1.8857.50005-.4998 1.17875-.7813 1.88575-.7813h8.6094l1.125-4.3701c.4421-1.71879 1.4431-3.24255 2.8457-4.33006 1.4025-1.08706 3.1268-1.67782 4.9013-1.67773zm-9.208 21.33399c-.7073 0-1.3857.2811-1.8858.7812-.4999.5-.7811 1.1778-.7812 1.8848v13.334c.0001.707.2813 1.3848.7812 1.8848.5001.5001 1.1785.7812 1.8858.7812.7071-.0001 1.3847-.2812 1.8848-.7812.5-.5001.7811-1.1777.7812-1.8848v-13.334c-.0001-.7071-.2812-1.3847-.7812-1.8848-.5001-.5-1.1777-.7811-1.8848-.7812zm10.666 0c-.7071.0001-1.3847.2812-1.8848.7812-.5.5001-.7811 1.1777-.7812 1.8848v13.334c.0001.7071.2812 1.3847.7812 1.8848.5001.5 1.1777.7811 1.8848.7812.7073 0 1.3857-.2811 1.8858-.7812.4999-.5.7811-1.1778.7812-1.8848v-13.334c-.0001-.707-.2813-1.3848-.7812-1.8848-.5001-.5001-1.1785-.7812-1.8858-.7812zm-9.1846-16c-.5918-.0007-1.1677.1944-1.6357.5566-.4683.3626-.8027.8718-.9502 1.4453l-.7783 3.0391h14.4551l-.7813-3.0391c-.1473-.5725-.4802-1.0799-.9473-1.4423-.4677-.3626-1.0439-.5598-1.6357-.5596z" fill="#000"/></svg>