<svg viewBox="0 0 64 64" fill="none" xmlns="http://www.w3.org/2000/svg">
<path fill-rule="evenodd" clip-rule="evenodd" d="M35.875 5.33331C37.6501 5.3331 39.3758 5.92277 40.7786 7.0104C42.1814 8.09807 43.183 9.62198 43.625 11.3411L44.7474 15.7109H53.3333C54.0403 15.7109 54.7187 15.9924 55.2188 16.4922C55.7186 16.992 55.9997 17.6707 56 18.3776C56 19.0846 55.7185 19.763 55.2188 20.263C54.7187 20.7631 54.0406 21.0442 53.3333 21.0442H53.0625L49.8229 51.513C49.614 53.4767 48.687 55.2939 47.2188 56.6146C45.7497 57.9354 43.8427 58.667 41.8672 58.6666H22.1328C20.1571 58.6677 18.2508 57.9377 16.7812 56.6172C15.3118 55.2964 14.3835 53.4777 14.1745 51.513L10.9323 21.0442H10.6667C9.95942 21.0442 9.28135 20.7631 8.78125 20.263C8.28149 19.763 8 19.0846 8 18.3776C8.00028 17.6707 8.2814 16.992 8.78125 16.4922C9.2813 15.9924 9.95967 15.7109 10.6667 15.7109H19.276L20.401 11.3411C20.8431 9.62201 21.8446 8.098 23.2474 7.0104C24.6499 5.92334 26.3739 5.33322 28.1484 5.33331H35.875ZM26.6667 26.6666C25.9594 26.6666 25.2813 26.9478 24.7812 27.4479C24.2812 27.948 24 28.6261 24 29.3333V42.6666C24 43.3739 24.2812 44.052 24.7812 44.5521C25.2813 45.0522 25.9594 45.3333 26.6667 45.3333C27.3739 45.3333 28.052 45.0522 28.5521 44.5521C29.0522 44.052 29.3333 43.3739 29.3333 42.6666V29.3333C29.3333 28.6261 29.0522 27.948 28.5521 27.4479C28.052 26.9478 27.3739 26.6666 26.6667 26.6666ZM37.3333 26.6666C36.6261 26.6666 35.948 26.9478 35.4479 27.4479C34.9478 27.948 34.6667 28.6261 34.6667 29.3333V42.6666C34.6667 43.3739 34.9478 44.052 35.4479 44.5521C35.948 45.0522 36.6261 45.3333 37.3333 45.3333C38.0406 45.3333 38.7187 45.0522 39.2188 44.5521C39.7188 44.052 40 43.3739 40 42.6666V29.3333C40 28.6261 39.7188 27.948 39.2188 27.4479C38.7187 26.9478 38.0406 26.6666 37.3333 26.6666ZM28.1484 10.6666C27.5566 10.666 26.9811 10.8617 26.513 11.2239C26.0447 11.5866 25.71 12.0956 25.5625 12.6693L24.7839 15.7083H39.2396L38.4583 12.6693C38.311 12.0965 37.9777 11.589 37.5104 11.2265C37.0427 10.864 36.4668 10.6664 35.875 10.6666H28.1484Z" fill="#141414"/>
</svg>