<svg fill="none" height="64" viewBox="0 0 64 64" width="64" xmlns="http://www.w3.org/2000/svg"><path clip-rule="evenodd" d="m55.9793 18.5678c-.0054-.192-.0614-.3734-.112-.5574-.04-.1546-.0587-.312-.1254-.4533-.0613-.1387-.1653-.2507-.256-.3787-.112-.1626-.2133-.3253-.3573-.4586-.024-.024-.0347-.056-.0613-.0774-.096-.0826-.2134-.112-.3174-.1786-.16-.104-.3173-.2107-.4986-.28-.1787-.064-.3547-.08-.5387-.1067-.128-.0187-.2427-.0773-.3787-.0773h-13.3333c-1.4747 0-2.6667 1.1946-2.6667 2.6666s1.192 2.6667 2.6667 2.6667h7.536l-10.7627 12.5547-11.4026-6.84c-1.128-.6827-2.5787-.432-3.4214.5786l-13.33331 16c-.94133 1.1307-.78933 2.8134.34133 3.7547.50134.416 1.10398.6187 1.70668.6187.7653 0 1.5227-.3254 2.0507-.96l11.872-14.2454 11.3733 6.8267c1.1173.6693 2.552.4347 3.3973-.552l11.3094-13.1947v6.1254c0 1.472 1.192 2.6666 2.6666 2.6666 1.4747 0 2.6667-1.1946 2.6667-2.6666v-13.3334c0-.0346-.0187-.064-.0213-.0986z" fill="#6b7280" fill-rule="evenodd"/></svg>