<svg fill="none" height="64" viewBox="0 0 64 64" width="64" xmlns="http://www.w3.org/2000/svg"><path clip-rule="evenodd" d="m56 32c0-1.472-1.192-2.6667-2.6667-2.6667s-2.6667 1.1947-2.6667 2.6667v6.1253l-11.3093-13.1946c-.8427-.9867-2.2773-1.2214-3.3973-.5494l-11.3734 6.824-11.8693-14.2453c-.944-1.128-2.6213-1.288-3.76-.3413-1.128.9413-1.28267 2.624-.34134 3.7546l13.33334 16c.8453 1.0107 2.2987 1.2587 3.424.5787l11.4-6.84 10.7627 12.5547h-7.536c-1.4747 0-2.6667 1.1946-2.6667 2.6666s1.192 2.6667 2.6667 2.6667h13.3333c.3307 0 .6587-.072.9707-.1973.1306-.0507.232-.136.352-.2027.1386-.0827.288-.1333.4106-.2427.0267-.0213.0374-.0533.0614-.0773.1466-.1333.248-.296.36-.4587.088-.128.192-.24.2533-.3786.0667-.1414.088-.2987.1253-.4507.0507-.1867.1067-.368.112-.56.0027-.0347.0214-.064.0214-.0987z" fill="#6b7280" fill-rule="evenodd"/></svg>