<svg fill="none" height="64" viewBox="0 0 64 64" width="64" xmlns="http://www.w3.org/2000/svg"><path clip-rule="evenodd" d="m50.6667 50.666c0 1.4747-1.192 2.6667-2.6667 2.6667h-32c-1.4746 0-2.6666-1.192-2.6666-2.6667v-18.6666c0-1.4747 1.192-2.6667 2.6666-2.6667h32c1.4747 0 2.6667 1.192 2.6667 2.6667zm-2.6667-34.6666h-9.5627l6.1147-6.1147c1.0427-1.04267 1.0427-2.728 0-3.77067s-2.728-1.04267-3.7707 0l-8.7813 8.78137-8.7813-8.78137c-1.0427-1.04267-2.728-1.04267-3.7707 0s-1.0427 2.728 0 3.77067l6.1147 6.1147h-9.5627c-4.4107 0-8 3.5893-8 8v26.6666c0 4.4107 3.5893 8 8 8h32c4.4107 0 8-3.5893 8-8v-26.6666c0-4.4107-3.5893-8-8-8z" fill="#6b7280" fill-rule="evenodd"/></svg>