<svg fill="none" height="24" viewBox="0 0 24 24" width="24" xmlns="http://www.w3.org/2000/svg"><path clip-rule="evenodd" d="m8.07693 20.0003c7.24597 0 11.43797-5.626 11.43797-10.96503 0-.147 1.03-1.031 1.471-2.87399.09-.374-.274-.669-.617-.512-.88.404-1.773.084-2.161-.376-1.492-1.627-3.987-1.705-5.574-.175-1.023.987-1.457 2.45699-1.14 3.85999-3.35097.239-5.65197-1.349-7.54397-3.52599-.244-.283-.697-.134-.748.24-.28 2.08199-.368 7.14402 4.648 10.05102-.871 1.252-2.576 1.991-4.474 2.308-.42.071-.52.653-.136.841 1.504.74 3.157 1.127 4.837 1.125" fill="#6b7280" fill-rule="evenodd"/></svg>