<svg fill="none" height="64" viewBox="0 0 64 64" width="64" xmlns="http://www.w3.org/2000/svg"><path clip-rule="evenodd" d="m21.5385 53.3339c19.3226 0 30.5013-15.0027 30.5013-29.24 0-.392 2.7467-2.7493 3.9227-7.664.24-.9973-.7307-1.784-1.6454-1.3653-2.3466 1.0773-4.728.224-5.7626-1.0027-3.9787-4.33866-10.632-4.54666-14.864-.4667-2.728 2.632-3.8854 6.552-3.04 10.2934-8.936.6373-15.072-3.5974-20.1174-9.4027-.65062-.7547-1.85862-.3573-1.99462.64-.74666 5.552-.98133 19.0507 12.39462 26.8027-2.3226 3.3386-6.8693 5.3093-11.93062 6.1546-1.12.1894-1.38666 1.7414-.36266 2.2427 4.01068 1.9733 8.41868 3.0053 12.89868 3" fill="#6b7280" fill-rule="evenodd"/></svg>