<svg viewBox="0 0 64 64" fill="none" xmlns="http://www.w3.org/2000/svg">
<path fill-rule="evenodd" clip-rule="evenodd" d="M48 5.33301C53.8958 5.33301 58.667 10.1042 58.667 16V48C58.667 53.8958 53.8958 58.667 48 58.667H16C10.1042 58.667 5.33301 53.8958 5.33301 48V16C5.33301 10.1042 10.1042 5.33301 16 5.33301H48ZM32.25 21.083C29.8542 21.083 27.4476 21.5837 25.583 22.917V27.5C27.4476 25.8958 29.3024 25.083 31.167 25.083C34.8953 25.0832 34.6981 28.5304 34.167 29.333C31.2295 34.3955 24.5 34.9691 24.5 42.167V43.75H39.5V39.75H29.833C29.833 37.0833 39.4999 34.6979 39.5 27.5C39.5 21.8958 34.3854 21.083 32.25 21.083Z" fill="#141414"/>
</svg>