<svg fill="none" height="64" viewBox="0 0 64 64" width="64" xmlns="http://www.w3.org/2000/svg"><path clip-rule="evenodd" d="m32.0002 5.3335c-14.704 0-26.6667 11.9627-26.6667 26.6667 0 1.4746 1.192 2.6666 2.66666 2.6666h21.33334v16c0 4.4107 3.5893 8 8 8s8-3.5893 8-8c0-1.4746-1.192-2.6666-2.6667-2.6666-1.4746 0-2.6666 1.192-2.6666 2.6666 0 1.472-1.1947 2.6667-2.6667 2.6667s-2.6667-1.1947-2.6667-2.6667v-16h21.3334c1.4746 0 2.6666-1.192 2.6666-2.6666 0-14.704-11.9626-26.6667-26.6666-26.6667z" fill="#6b7280" fill-rule="evenodd"/></svg>