<svg fill="none" height="64" viewBox="0 0 64 64" width="64" xmlns="http://www.w3.org/2000/svg"><path clip-rule="evenodd" d="m53.9218 55.9996c-1.2294 0-2.2987-.84-2.592-2.0346-2.3707-9.7307-10.72-16.76-20.7867-17.824v2.9893c0 1.8827-1.1173 3.56-2.912 4.3733-1.952.888-4.224.568-5.8053-.8106l-13.51203-11.7974c-1.04533-.9173-1.648-2.216-1.648-3.5626 0-1.3467.60267-2.6454 1.648-3.5627l13.51203-11.7973c1.5813-1.3787 3.8533-1.6987 5.8053-.8107 1.7947.8133 2.912 2.4907 2.912 4.3733v3.248c14.9973 1.3147 26.7893 13.616 26.7893 28.5494 0 2.16-.2746 4.3893-.8186 6.6293-.2907 1.1973-1.36 2.0373-2.592 2.0373z" fill="#6b7280" fill-rule="evenodd"/></svg>