<svg fill="none" height="24" viewBox="0 0 24 24" width="24" xmlns="http://www.w3.org/2000/svg"><path clip-rule="evenodd" d="m20.2207 21c-.461 0-.862-.315-.972-.763-.889-3.649-4.02-6.285-7.795-6.684v1.121c0 .706-.419 1.335-1.092 1.64-.73203.333-1.58404.213-2.17704-.304l-5.067-4.424c-.392-.344-.618-.831-.618-1.336 0-.50502.226-.99202.618-1.33602l5.067-4.424c.593-.517 1.44501-.637 2.17704-.304.673.305 1.092.934 1.092 1.64v1.218c5.624.493 10.046 5.10602 10.046 10.70602 0 .81-.103 1.646-.307 2.486-.109.449-.51.764-.972.764" fill="#6b7280" fill-rule="evenodd"/></svg>