<svg viewBox="0 0 64 64" fill="none" xmlns="http://www.w3.org/2000/svg">
<path fill-rule="evenodd" clip-rule="evenodd" d="M42.4001 16.4704C42.3661 16.7941 42.3674 17.1206 42.4042 17.4441L17.4513 42.5514C17.1563 42.4707 16.8537 42.4204 16.5482 42.4014L16.5275 42.4001H9.86677C7.0538 42.4001 4.77344 44.6805 4.77344 47.4934V54.1334C4.77344 56.9464 7.0538 59.2268 9.86677 59.2268H16.5068C19.3197 59.2268 21.6001 56.9464 21.6001 54.1334V47.5298C21.6342 47.2056 21.6328 46.8786 21.5958 46.5547L21.584 46.4513L21.5722 46.4252L46.4252 21.5722L46.4513 21.584L46.5547 21.5958C46.8786 21.6328 47.2056 21.6342 47.5298 21.6001H54.1334C56.9464 21.6001 59.2268 19.3197 59.2268 16.5068V9.86677C59.2268 7.0538 56.9464 4.77344 54.1334 4.77344H47.4934C44.6805 4.77344 42.4001 7.0538 42.4001 9.86677V16.4704Z" fill="#141414"/>
</svg>