<svg width="64" height="64" viewBox="0 0 64 64" fill="none" xmlns="http://www.w3.org/2000/svg">
<path d="M29.0399 8C25.8044 8 23.1199 10.6845 23.1199 13.92V49.6396C23.1199 52.8751 25.8044 55.5596 29.0399 55.5596H52.7199C55.9553 55.5596 58.6399 52.8751 58.6399 49.6396V13.92C58.6399 10.6845 55.9553 8 52.7199 8H29.0399ZM20.1599 10.96C16.9244 10.96 14.2399 13.6445 14.2399 16.88V46.6796C14.2399 49.9151 16.9244 52.5996 20.1599 52.5996V46.6796V16.88V10.96ZM11.2799 16.88C8.0444 16.88 5.35986 19.5645 5.35986 22.8L5.35986 40.7596C5.35986 43.9951 8.0444 46.6796 11.2799 46.6796V40.7596V22.8V16.88Z" fill="#141414"/>
</svg>
