<svg fill="none" height="64" viewBox="0 0 64 64" width="64" xmlns="http://www.w3.org/2000/svg"><path d="m36.4227 8.26563c2.9374 0 5.2873-.00026 7.1856.15332 1.9488.1584 3.6342.49258 5.1845 1.28222 2.4841 1.26573 4.504 3.28523 5.7696 5.76953.7896 1.5505 1.1228 3.2357 1.2812 5.1846.0991 1.404.1484 2.8112.1485 4.2187.0091.1149.0104.2307.0029.3457.0032.816.0049 1.6899.0049 2.6211v8.8467c0 2.9377-.0003 5.288-.1563 7.1865-.1584 1.9486-.4918 3.6333-1.2812 5.1836-1.2656 2.4844-3.2854 4.5048-5.7696 5.7705-1.5503.7897-3.2357 1.1229-5.1845 1.2813-1.8983.156-4.2482.1562-7.1856.1562h-8.8457c-2.9375 0-5.2872-.0002-7.1855-.1562-1.9486-.1584-3.6334-.4918-5.1836-1.2813-2.4838-1.265-4.5035-3.2842-5.76955-5.7676-.78959-1.5504-1.12382-3.2356-1.28222-5.1845-.15598-1.8984-.15625-4.248-.15625-7.1856v-8.8466c0-.9312.00168-1.8052.00488-2.6211-.0075-.1151-.00617-.2308.00293-.3457.00009-1.4078.04936-2.8155.14844-4.2198.1584-1.9487.49272-3.6332 1.28222-5.1836 1.26565-2.4843 3.28535-4.5048 5.76955-5.77047 1.5502-.78948 3.235-1.12286 5.1836-1.28125 1.8047-.1488 4.015-.15625 6.751-.15625zm-12.5586 4.81737c-1.1975.0168-2.2036.0501-3.082.1221-1.6533.1344-2.6348.389-3.3955.7754-1.581.8054-2.8665 2.0907-3.6719 3.6718-.3864.7609-.641 1.7428-.7754 3.3965-.04.4927-.0716 1.0318-.0908 1.6172h7.8233zm5.0664-.0176-3.2011 9.6006h9.3525l3.2539-9.6006zm11.2198 9.6006h11.0019c-.0192-.5854-.0489-1.1245-.0888-1.6172-.1344-1.6537-.389-2.6356-.7754-3.3965-.8054-1.581-2.0909-2.8664-3.6719-3.6718-.7392-.3769-1.6903-.6269-3.2647-.7637z" fill="#000"/></svg>