<svg fill="none" height="64" viewBox="0 0 64 64" width="64" xmlns="http://www.w3.org/2000/svg"><path clip-rule="evenodd" d="m40 36.229 5.3333 5.3334 9.8854 9.8853c1.0426 1.0427 1.0426 2.728 0 3.7707-.52.52-1.2027.7813-1.8854.7813-.6826 0-1.3653-.2613-1.8853-.7813l-7.752-7.752-3.88-3.88-24.92-24.92-4.6933-4.6934-1.42138-1.4213c-1.04267-1.0427-1.04267-2.72801 0-3.77068 1.04267-1.04266 2.72798-1.04266 3.77068 0l4.552 4.55198 5.3333 5.3334zm16.0312-17.175c-1.6694-.7253-3.6054-.4107-4.936.816l-5.7627 5.3333v-3.872c0-4.4106-3.5867-8-8-8h-16.4587l3.448 3.448 17.5627 17.5627 5.3333 5.3333 5.3627 5.3627c.512.192 1.056.2933 1.6053.2933.6214 0 1.248-.1253 1.8454-.3866 1.624-.7094 2.6346-2.2267 2.6346-3.9574v-17.976c0-1.7306-1.0106-3.248-2.6346-3.9573zm-18.1016 26.4172-24.92-24.92-4.69066-4.6906-.38933-.3894c-1.58667 1.464-2.59733 3.5387-2.59733 5.8614v21.3333c0 4.4133 3.58933 8 8.00002 8h24c1.6453 0 3.1706-.4987 4.44-1.352z" fill="#6b7280" fill-rule="evenodd"/></svg>