<svg width="64" height="64" viewBox="0 0 64 64" fill="none" xmlns="http://www.w3.org/2000/svg">
<path fill-rule="evenodd" clip-rule="evenodd" d="M36.4238 8C39.3609 8 41.7112 7.99973 43.6094 8.15332C45.5572 8.31169 47.2412 8.6456 48.791 9.43457C51.2752 10.7003 53.2969 12.7217 54.5625 15.2061C55.3518 16.7563 55.6854 18.4421 55.8438 20.3906C55.9428 21.7945 55.9921 23.202 55.9922 24.6094C56.0013 24.7242 56.0016 24.8411 55.9941 24.9561C55.9973 25.7715 56 26.6447 56 27.5752V36.4219C56 37.3014 55.9981 39.409 55.9971 41.9307L52.5059 41.1367C51.5618 40.9219 50.8251 40.1852 50.6104 39.2412L49.5928 34.7666L49.541 34.5615C48.9687 32.4681 47.0633 31.0006 44.875 31C42.6871 31 40.7787 32.4667 40.2061 34.5615L40.1543 34.7666L39.1367 39.2412C38.9219 40.1852 38.1853 40.9219 37.2412 41.1367L32.7666 42.1543C30.5633 42.6553 29 44.6163 29 46.875C29.0007 49.1341 30.5648 51.0921 32.7666 51.5928L37.2412 52.6104C38.1852 52.8251 38.9219 53.5618 39.1367 54.5059L39.4766 56H27.5781C24.6407 56 22.289 55.9997 20.3906 55.8438C18.4425 55.6853 16.758 55.3518 15.208 54.5625C12.7242 53.2974 10.7035 51.2774 9.4375 48.7939C8.64824 47.2437 8.31462 45.5579 8.15625 43.6094C8.00036 41.7112 8 39.3618 8 36.4248V27.5781C8 26.647 8.00168 25.772 8.00488 24.9561C7.99748 24.8417 7.99882 24.7266 8.00781 24.6123C8.0079 23.2045 8.05717 21.7949 8.15625 20.3906C8.31466 18.4426 8.6484 16.7579 9.4375 15.208C10.7031 12.7238 12.7239 10.7031 15.208 9.4375C16.758 8.6482 18.4425 8.31468 20.3906 8.15625C22.1953 8.00747 24.4069 8 27.1426 8H36.4238ZM23.8643 12.8174C22.6671 12.8342 21.6614 12.8685 20.7832 12.9404C19.1309 13.0748 18.1482 13.3279 17.3877 13.7139C15.8068 14.5193 14.5212 15.8067 13.7158 17.3877C13.3296 18.1485 13.0738 19.1308 12.9395 20.7842C12.8995 21.2767 12.8678 21.8162 12.8486 22.4014H20.6719L23.8643 12.8174ZM25.7285 22.4014H35.0801L38.3359 12.7998H28.9297L25.7285 22.4014ZM40.1504 22.4014H51.1504C51.1312 21.8162 51.1025 21.2767 51.0625 20.7842C50.9282 19.1314 50.6751 18.1484 50.2891 17.3877C49.4837 15.8068 48.1979 14.5193 46.6172 13.7139C45.878 13.3371 44.9258 13.087 43.3516 12.9502L40.1504 22.4014ZM44.874 34C45.7324 34.0002 46.4767 34.5946 46.667 35.4316L47.6846 39.9062C48.1552 41.9759 49.7712 43.5918 51.8408 44.0625L56.3154 45.0801C57.1526 45.2704 57.7471 46.0154 57.7471 46.874C57.7469 47.7324 57.1524 48.4767 56.3154 48.667L51.8408 49.6846C49.7712 50.1552 48.1552 51.7712 47.6846 53.8408L46.667 58.3154C46.4767 59.1524 45.7324 59.7469 44.874 59.7471C44.0154 59.7471 43.2704 59.1526 43.0801 58.3154L42.0625 53.8408C41.5918 51.7712 39.9759 50.1552 37.9062 49.6846L33.4316 48.667C32.5946 48.4767 32.0002 47.7324 32 46.874C32 46.0154 32.5945 45.2704 33.4316 45.0801L37.9062 44.0625C39.9759 43.5918 41.5919 41.9759 42.0625 39.9062L43.0801 35.4316C43.2704 34.5944 44.0154 34 44.874 34ZM44.874 42.8633C43.9938 44.5881 42.5881 45.9938 40.8633 46.874C42.5879 47.7543 43.9938 49.1592 44.874 50.8838C45.7542 49.1593 47.1593 47.7542 48.8838 46.874C47.1592 45.9938 45.7543 44.5879 44.874 42.8633Z" fill="#141414"/>
</svg>
