<svg width="24" height="24" viewBox="0 0 24 24" fill="none" xmlns="http://www.w3.org/2000/svg">
<g id="Icon/Fill/video-off">
<path id="Mask" fill-rule="evenodd" clip-rule="evenodd" d="M15 13.5859L17 15.5859L20.707 19.2929C21.098 19.6839 21.098 20.3159 20.707 20.7069C20.512 20.9019 20.256 20.9999 20 20.9999C19.744 20.9999 19.488 20.9019 19.293 20.7069L16.386 17.7999L14.931 16.3449L5.58597 6.9999L3.82597 5.2399L3.29297 4.7069C2.90197 4.3159 2.90197 3.6839 3.29297 3.2929C3.68397 2.9019 4.31597 2.9019 4.70697 3.2929L6.41397 4.9999L8.41397 6.9999L15 13.5859ZM21.0117 7.1454C20.3857 6.8734 19.6597 6.9914 19.1607 7.4514L16.9997 9.4514V7.9994C16.9997 6.3454 15.6547 4.9994 13.9997 4.9994H7.82767L9.12067 6.2924L15.7067 12.8784L17.7067 14.8784L19.7177 16.8894C19.9097 16.9614 20.1137 16.9994 20.3197 16.9994C20.5527 16.9994 20.7877 16.9524 21.0117 16.8544C21.6207 16.5884 21.9997 16.0194 21.9997 15.3704V8.6294C21.9997 7.9804 21.6207 7.4114 21.0117 7.1454ZM14.2236 17.0517L4.87857 7.7067L3.11957 5.9477L2.97357 5.8017C2.37857 6.3507 1.99957 7.1287 1.99957 7.9997V15.9997C1.99957 17.6547 3.34557 18.9997 4.99957 18.9997H13.9996C14.6166 18.9997 15.1886 18.8127 15.6646 18.4927L14.2236 17.0517Z" fill="#231F20"/>
<mask id="mask0" mask-type="alpha" maskUnits="userSpaceOnUse" x="1" y="2" width="21" height="19">
<path id="Mask_2" fill-rule="evenodd" clip-rule="evenodd" d="M15 13.5859L17 15.5859L20.707 19.2929C21.098 19.6839 21.098 20.3159 20.707 20.7069C20.512 20.9019 20.256 20.9999 20 20.9999C19.744 20.9999 19.488 20.9019 19.293 20.7069L16.386 17.7999L14.931 16.3449L5.58597 6.9999L3.82597 5.2399L3.29297 4.7069C2.90197 4.3159 2.90197 3.6839 3.29297 3.2929C3.68397 2.9019 4.31597 2.9019 4.70697 3.2929L6.41397 4.9999L8.41397 6.9999L15 13.5859ZM21.0117 7.1454C20.3857 6.8734 19.6597 6.9914 19.1607 7.4514L16.9997 9.4514V7.9994C16.9997 6.3454 15.6547 4.9994 13.9997 4.9994H7.82767L9.12067 6.2924L15.7067 12.8784L17.7067 14.8784L19.7177 16.8894C19.9097 16.9614 20.1137 16.9994 20.3197 16.9994C20.5527 16.9994 20.7877 16.9524 21.0117 16.8544C21.6207 16.5884 21.9997 16.0194 21.9997 15.3704V8.6294C21.9997 7.9804 21.6207 7.4114 21.0117 7.1454ZM14.2236 17.0517L4.87857 7.7067L3.11957 5.9477L2.97357 5.8017C2.37857 6.3507 1.99957 7.1287 1.99957 7.9997V15.9997C1.99957 17.6547 3.34557 18.9997 4.99957 18.9997H13.9996C14.6166 18.9997 15.1886 18.8127 15.6646 18.4927L14.2236 17.0517Z" fill="white"/>
</mask>
<g mask="url(#mask0)">
<g id="&#240;&#159;&#142;&#168; Color">
<rect id="Base" width="24" height="24" fill="#0D1C2E"/>
</g>
</g>
</g>
</svg>
