<svg viewBox="0 0 64 64" fill="none" xmlns="http://www.w3.org/2000/svg">
<path fill-rule="evenodd" clip-rule="evenodd" d="M48 39C49.1046 39 50 39.8954 50 41V47H56C57.1046 47 58 47.8954 58 49C58 50.1046 57.1046 51 56 51H50V57C50 58.1046 49.1046 59 48 59C46.8954 59 46 58.1046 46 57V51H40C38.8954 51 38 50.1046 38 49C38 47.8954 38.8954 47 40 47H46V41C46 39.8954 46.8954 39 48 39ZM36.4238 8.26562C39.3609 8.26563 41.7112 8.26535 43.6094 8.41895C45.5572 8.57732 47.2412 8.91123 48.791 9.7002C51.2752 10.9659 53.2969 12.9873 54.5625 15.4717C55.3518 17.0219 55.6854 18.7077 55.8438 20.6562C55.9428 22.0601 55.9921 23.4676 55.9922 24.875C56.0013 24.9898 56.0016 25.1067 55.9941 25.2217C55.9973 26.0372 56 26.9103 56 27.8408V36.6875C56 39.6252 55.9997 41.9765 55.8438 43.875C55.8404 43.9168 55.8356 43.9584 55.832 44H53V41L52.9932 40.7432C52.8595 38.1011 50.6753 36 48 36C45.2386 36 43 38.2386 43 41V44H40C37.3247 44 35.1405 46.1011 35.0068 48.7432L35 49C35 51.7614 37.2386 54 40 54H43V56.1523C41.2142 56.2645 39.0545 56.2656 36.4238 56.2656H27.5781C24.6407 56.2656 22.289 56.2654 20.3906 56.1094C18.4425 55.9509 16.758 55.6174 15.208 54.8281C12.7242 53.5631 10.7035 51.543 9.4375 49.0596C8.64824 47.5093 8.31462 45.8235 8.15625 43.875C8.00036 41.9768 8 39.6274 8 36.6904V27.8438C8 26.9126 8.00168 26.0376 8.00488 25.2217C7.99748 25.1073 7.99882 24.9922 8.00781 24.8779C8.0079 23.4701 8.05717 22.0605 8.15625 20.6562C8.31466 18.7082 8.6484 17.0235 9.4375 15.4736C10.7031 12.9894 12.7239 10.9687 15.208 9.70312C16.758 8.91383 18.4425 8.5803 20.3906 8.42188C22.1953 8.27309 24.4069 8.26563 27.1426 8.26562H36.4238ZM23.8643 13.083C22.6671 13.0998 21.6614 13.1341 20.7832 13.2061C19.1309 13.3404 18.1482 13.5935 17.3877 13.9795C15.8068 14.7849 14.5212 16.0723 13.7158 17.6533C13.3296 18.4141 13.0738 19.3964 12.9395 21.0498C12.8995 21.5423 12.8678 22.0818 12.8486 22.667H20.6719L23.8643 13.083ZM25.7285 22.667H35.0801L38.3359 13.0654H28.9297L25.7285 22.667ZM40.1504 22.667H51.1504C51.1312 22.0818 51.1025 21.5423 51.0625 21.0498C50.9282 19.3971 50.6751 18.414 50.2891 17.6533C49.4837 16.0724 48.1979 14.785 46.6172 13.9795C45.878 13.6027 44.9258 13.3526 43.3516 13.2158L40.1504 22.667Z" fill="#141414"/>
</svg>