<svg fill="none" height="64" viewBox="0 0 64 64" width="64" xmlns="http://www.w3.org/2000/svg"><path clip-rule="evenodd" d="m56.0312 19.0545c-1.6694-.7254-3.6054-.4107-4.936.816l-5.7627 5.3333v-3.872c0-4.4107-3.5867-8-8-8h-24c-4.41065 0-7.99998 3.5893-7.99998 8v21.3333c0 4.4133 3.58933 8 7.99998 8h24c4.4133 0 8-3.5867 8-8v-3.8693l5.7627 5.3306c.856.792 1.9626 1.2054 3.0906 1.2054.6214 0 1.248-.1254 1.8454-.3867 1.624-.7093 2.6346-2.2266 2.6346-3.9573v-17.976c0-1.7307-1.0106-3.248-2.6346-3.9573z" fill="#6b7280" fill-rule="evenodd"/></svg>