<svg fill="none" height="24" viewBox="0 0 24 24" width="24" xmlns="http://www.w3.org/2000/svg"><path clip-rule="evenodd" d="m15 13.586 2 2 3.707 3.707c.391.391.391 1.023 0 1.414-.195.195-.451.293-.707.293s-.512-.098-.707-.293l-2.907-2.907-1.455-1.455-9.345-9.34499-1.76-1.76-.533-.533c-.391-.391-.391-1.023 0-1.414s1.023-.391 1.414 0l1.707 1.707 2 2zm6.0117-6.44062c-.626-.272-1.352-.154-1.851.306l-2.161 2v-1.452c0-1.654-1.345-3-3-3h-6.17201l1.293 1.293 6.58601 6.58602 2 2 2.011 2.011c.192.072.396.11.602.11.233 0 .468-.047.692-.145.609-.266.988-.835.988-1.484v-6.74102c0-.649-.379-1.218-.988-1.484zm-6.7881 9.90642-9.345-9.34496-1.759-1.759-.146-.146c-.595.549-.974 1.327-.974 2.198v7.99996c0 1.655 1.346 3 3 3h9c.617 0 1.189-.187 1.665-.507z" fill="#6b7280" fill-rule="evenodd"/></svg>