<svg viewBox="0 0 64 64" fill="none" xmlns="http://www.w3.org/2000/svg">
<path fill-rule="evenodd" clip-rule="evenodd" d="M9.08229 9.08229C5.33325 12.8313 5.33325 18.8653 5.33325 30.9333V33.0666C5.33325 45.1346 5.33325 51.1685 9.08229 54.9176C12.8313 58.6666 18.8653 58.6666 30.9333 58.6666H33.0666C45.1346 58.6666 51.1685 58.6666 54.9176 54.9176C58.6666 51.1685 58.6666 45.1346 58.6666 33.0666V30.9333C58.6666 18.8653 58.6666 12.8313 54.9176 9.08229C51.1685 5.33325 45.1346 5.33325 33.0666 5.33325H30.9333C18.8653 5.33325 12.8313 5.33325 9.08229 9.08229ZM14.3334 21.555C14.6222 35.4217 21.5555 43.755 33.711 43.755H34.4001V35.8217C38.8668 36.2661 42.2442 39.5328 43.5998 43.755H49.9111C48.1778 37.4439 43.622 33.955 40.7776 32.6217C43.622 30.9773 47.622 26.9773 48.5776 21.555H42.8441C41.5997 25.955 37.9112 29.955 34.4001 30.3328V21.555H28.6666V36.9328C25.111 36.0439 20.6222 31.7328 20.4222 21.555H14.3334Z" fill="#141414"/>
</svg>