<svg viewBox="0 0 64 64" fill="none" xmlns="http://www.w3.org/2000/svg">
<path fill-rule="evenodd" clip-rule="evenodd" d="M31.8333 5.33337C33.306 5.33337 34.4999 6.52728 34.4999 8.00004V55.6667C34.4999 57.1395 33.306 58.3334 31.8333 58.3334C30.3605 58.3334 29.1666 57.1395 29.1666 55.6667V8.00004C29.1666 6.52728 30.3605 5.33337 31.8333 5.33337Z M43.7499 13.2787C45.2227 13.2787 46.4166 14.4726 46.4166 15.9454V47.724C46.4155 49.1958 45.222 50.3907 43.7499 50.3907C42.2779 50.3907 41.0844 49.1958 41.0833 47.724V15.9454C41.0833 14.4726 42.2772 13.2787 43.7499 13.2787Z M19.8801 21.224C21.3523 21.2247 22.5468 22.4183 22.5468 23.8907V39.7787C22.5461 41.2504 21.3519 42.4447 19.8801 42.4454C18.4078 42.4454 17.2142 41.2508 17.2135 39.7787V23.8907C17.2135 22.4179 18.4074 21.224 19.8801 21.224Z M55.6666 21.224C57.1393 21.224 58.3333 22.4179 58.3333 23.8907V39.7787C58.3326 41.2508 57.1389 42.4454 55.6666 42.4454C54.1943 42.4454 53.0006 41.2508 52.9999 39.7787V23.8907C52.9999 22.4179 54.1938 21.224 55.6666 21.224Z M7.99992 25.1954C9.47268 25.1954 10.6666 26.3893 10.6666 27.862V35.8073C10.6654 37.2791 9.47196 38.474 7.99992 38.474C6.52787 38.474 5.33441 37.2791 5.33325 35.8073V27.862C5.33325 26.3893 6.52716 25.1954 7.99992 25.1954Z" fill="#141414"/>
</svg>