<svg fill="none" height="24" viewBox="0 0 24 24" width="24" xmlns="http://www.w3.org/2000/svg"><path clip-rule="evenodd" d="m15 3.99982v8.17198l-5.97396-5.97398 4.40896-3.023c.305-.21.702-.233 1.031-.06.328.173.534.514.534.885zm6 8.00008c0 1.599-.63 3.121-1.778 4.394l1.415 1.415c1.526-1.654 2.363-3.672 2.363-5.809 0-2.56898-1.194-4.97498-3.362-6.77098-.426-.351-1.056-.292-1.408.133-.353.425-.293 1.056.132 1.409 1.701 1.409 2.638 3.26498 2.638 5.22898zm-4.0894 2.0822 1.438 1.439c1.558-2.038 1.54-5.147-.069-7.14798-.347-.43-.976-.497-1.407-.152-.43.346-.498.975-.152 1.406.963 1.19598 1.018 3.15098.19 4.45498zm-12.16746-6.51091h-2.743c-.552 0-1 .447-1 1v6.85701c0 .553.448 1 1 1h5.023l6.41096 4.397c.17.116.368.175.566.175.16 0 .32-.038.466-.116.328-.172.534-.513.534-.884v-2.172zm-1.45014-4.27827c.391-.391 1.023-.391 1.414 0l16 15.99998c.391.391.391 1.023 0 1.414-.195.195-.451.293-.707.293s-.512-.098-.707-.293l-16-15.99998c-.391-.391-.391-1.023 0-1.414z" fill="#6b7280" fill-rule="evenodd"/></svg>