<svg fill="none" height="64" viewBox="0 0 64 64" width="64" xmlns="http://www.w3.org/2000/svg"><path clip-rule="evenodd" d="m41.1581 8.46761c.816-.56 1.8746-.624 2.752-.16.8746.46134 1.424 1.37067 1.424 2.35999v42.6667c0 .9893-.5494 1.8986-1.424 2.36-.3894.2053-.8187.3066-1.2427.3066-.5307 0-1.056-.1573-1.5093-.4666l-17.096-11.7254h-13.3947c-1.47467 0-2.66667-1.192-2.66667-2.6666v-18.2854c0-1.4746 1.192-2.6666 2.66667-2.6666h13.3947zm10.504 13.45569c1.144-.92 2.8267-.7413 3.7493.4054 4.3627 5.424 4.3627 13.92 0 19.344-.528.6533-1.3013.9946-2.08.9946-.5866 0-1.176-.192-1.6693-.5893-1.1467-.9227-1.3307-2.6-.408-3.7493 2.7627-3.4294 2.7627-9.2267 0-12.656-.9227-1.1494-.7387-2.8267.408-3.7494z" fill="#6b7280" fill-rule="evenodd"/></svg>