<svg fill="none" height="24" viewBox="0 0 24 24" width="24" xmlns="http://www.w3.org/2000/svg"><path clip-rule="evenodd" d="m13.4343 3.17548c.306-.21.703-.234 1.032-.06.328.173.534.514.534.885v16.00002c0 .371-.206.712-.534.885-.146.077-.307.115-.466.115-.199 0-.396-.059-.566-.175l-6.41101-4.397h-5.023c-.553 0-1-.447-1-1v-6.85702c0-.553.447-1 1-1h5.023zm6.2034 2.05436c-.425-.352-1.056-.293-1.408.133-.352.425-.293 1.055.133 1.408 1.7 1.409 2.637 3.26596 2.637 5.22996 0 1.963-.937 3.82-2.637 5.229-.426.353-.485.983-.133 1.408.198.239.483.363.771.363.224 0 .45-.076.637-.23 2.168-1.796 3.362-4.201 3.362-6.77 0-2.56996-1.194-4.97496-3.362-6.77096zm-1.3584 3.14353c-.347-.43-.976-.497-1.406-.152-.43.346-.499.975-.153 1.406 1.036 1.28603 1.036 3.46003 0 4.74603-.346.431-.277 1.06.153 1.406.185.149.406.221.626.221.292 0 .582-.128.78-.373 1.636-2.034 1.636-5.22 0-7.25403z" fill="#6b7280" fill-rule="evenodd"/></svg>