<svg fill="none" height="64" viewBox="0 0 64 64" width="64" xmlns="http://www.w3.org/2000/svg"><path clip-rule="evenodd" d="m40.0001 10.6665v21.792l-15.9307-15.9306 11.7573-8.06138c.8134-.56 1.872-.62134 2.7494-.16.8746.46133 1.424 1.37066 1.424 2.35998zm16 21.3336c0 4.264-1.68 8.3227-4.7413 11.7174l3.7733 3.7733c4.0693-4.4107 6.3013-9.792 6.3013-15.4907 0-6.8506-3.184-13.2666-8.9653-18.056-1.136-.936-2.816-.7786-3.7547.3547-.9413 1.1333-.7813 2.816.352 3.7573 4.536 3.7574 7.0347 8.7067 7.0347 13.944zm-10.9052 5.5525 3.8346 3.8374c4.1547-5.4347 4.1067-13.7254-.184-19.0614-.9253-1.1466-2.6026-1.3253-3.752-.4053-1.1466.9227-1.328 2.6-.4053 3.7493 2.568 3.1894 2.7147 8.4027.5067 11.88zm-32.4466-17.3624h-7.31464c-1.472 0-2.66667 1.192-2.66667 2.6666v18.2854c0 1.4746 1.19467 2.6666 2.66667 2.6666h13.39464l17.096 11.7254c.4534.3093.9814.4666 1.5094.4666.4266 0 .8533-.1013 1.2426-.3093.8747-.4587 1.424-1.368 1.424-2.3573v-5.792zm-3.86702-11.40776c1.04267-1.04266 2.72802-1.04266 3.77072 0l42.6666 42.66666c1.0427 1.0427 1.0427 2.728 0 3.7707-.52.52-1.2027.7813-1.8853.7813-.6827 0-1.3654-.2613-1.8854-.7813l-42.66662-42.6667c-1.04266-1.0427-1.04266-2.72799 0-3.77066z" fill="#6b7280" fill-rule="evenodd"/></svg>