<svg fill="none" height="24" viewBox="0 0 24 24" width="24" xmlns="http://www.w3.org/2000/svg"><path clip-rule="evenodd" d="m15.4343 3.17548c.306-.21.703-.234 1.032-.06.328.173.534.514.534.885v16.00002c0 .371-.206.712-.534.885-.146.077-.307.115-.466.115-.199 0-.396-.059-.566-.175l-6.41099-4.397h-5.023c-.553 0-1-.447-1-1v-6.85702c0-.553.447-1 1-1h5.023zm3.939 5.04589c.429-.345 1.06-.278 1.406.152 1.636 2.03403 1.636 5.22003 0 7.25403-.198.245-.488.373-.78.373-.22 0-.441-.072-.626-.221-.43-.346-.499-.975-.153-1.406 1.036-1.286 1.036-3.46 0-4.74603-.346-.431-.277-1.06.153-1.406z" fill="#6b7280" fill-rule="evenodd"/></svg>