<svg fill="none" height="64" viewBox="0 0 64 64" width="64" xmlns="http://www.w3.org/2000/svg"><path clip-rule="evenodd" d="m35.8248 8.46761c.816-.56 1.8747-.624 2.752-.16.8747.46134 1.424 1.37067 1.424 2.35999v42.6667c0 .9893-.5493 1.8986-1.424 2.36-.3893.2053-.8187.3066-1.2427.3066-.5306 0-1.056-.1573-1.5093-.4666l-17.096-11.7254h-13.39465c-1.47467 0-2.66667-1.192-2.66667-2.6666v-18.2854c0-1.4746 1.192-2.6666 2.66667-2.6666h13.39465zm16.5424 5.47829c-1.1333-.9386-2.816-.7813-3.7546.3547-.9387 1.1333-.7814 2.8133.3546 3.7547 4.5334 3.7573 7.032 8.7093 7.032 13.9466 0 5.2347-2.4986 10.1867-7.032 13.944-1.136.9414-1.2933 2.6214-.3546 3.7547.528.6373 1.288.968 2.056.968.5973 0 1.2-.2027 1.6986-.6133 5.7814-4.7894 8.9654-11.2027 8.9654-18.0534 0-6.8533-3.184-13.2666-8.9654-18.056zm-3.6224 8.3828c-.9253-1.1467-2.6027-1.3254-3.7493-.4054-1.1467.9227-1.3307 2.6-.408 3.7494 2.7626 3.4293 2.7626 9.2266 0 12.656-.9227 1.1493-.7387 2.8266.408 3.7493.4933.3973 1.0826.5893 1.6693.5893.7787 0 1.552-.3413 2.08-.9946 4.3627-5.424 4.3627-13.92 0-19.344z" fill="#6b7280" fill-rule="evenodd"/></svg>