<svg width="24" height="24" viewBox="0 0 24 24" fill="none" xmlns="http://www.w3.org/2000/svg">
<g id="Icon/Fill/volume-down">
<path id="Mask" fill-rule="evenodd" clip-rule="evenodd" d="M15.4343 3.1752C15.7403 2.9652 16.1373 2.9412 16.4663 3.1152C16.7943 3.2882 17.0003 3.6292 17.0003 4.0002V20.0002C17.0003 20.3712 16.7943 20.7122 16.4663 20.8852C16.3203 20.9622 16.1593 21.0002 16.0003 21.0002C15.8013 21.0002 15.6043 20.9412 15.4343 20.8252L9.0233 16.4282H4.00031C3.44731 16.4282 3.00031 15.9812 3.00031 15.4282V8.5712C3.00031 8.0182 3.44731 7.5712 4.00031 7.5712H9.0233L15.4343 3.1752ZM19.3733 8.221C19.8023 7.876 20.4333 7.943 20.7793 8.373C22.4153 10.407 22.4153 13.593 20.7793 15.627C20.5813 15.872 20.2913 16 19.9993 16C19.7793 16 19.5583 15.928 19.3733 15.779C18.9433 15.433 18.8743 14.804 19.2203 14.373C20.2563 13.087 20.2563 10.913 19.2203 9.627C18.8743 9.196 18.9433 8.567 19.3733 8.221Z" fill="#231F20"/>
<mask id="mask0" mask-type="alpha" maskUnits="userSpaceOnUse" x="3" y="2" width="20" height="20">
<path id="Mask_2" fill-rule="evenodd" clip-rule="evenodd" d="M15.4343 3.1752C15.7403 2.9652 16.1373 2.9412 16.4663 3.1152C16.7943 3.2882 17.0003 3.6292 17.0003 4.0002V20.0002C17.0003 20.3712 16.7943 20.7122 16.4663 20.8852C16.3203 20.9622 16.1593 21.0002 16.0003 21.0002C15.8013 21.0002 15.6043 20.9412 15.4343 20.8252L9.0233 16.4282H4.00031C3.44731 16.4282 3.00031 15.9812 3.00031 15.4282V8.5712C3.00031 8.0182 3.44731 7.5712 4.00031 7.5712H9.0233L15.4343 3.1752ZM19.3733 8.221C19.8023 7.876 20.4333 7.943 20.7793 8.373C22.4153 10.407 22.4153 13.593 20.7793 15.627C20.5813 15.872 20.2913 16 19.9993 16C19.7793 16 19.5583 15.928 19.3733 15.779C18.9433 15.433 18.8743 14.804 19.2203 14.373C20.2563 13.087 20.2563 10.913 19.2203 9.627C18.8743 9.196 18.9433 8.567 19.3733 8.221Z" fill="white"/>
</mask>
<g mask="url(#mask0)">
<g id="&#240;&#159;&#142;&#168; Color">
<rect id="Base" width="24" height="24" fill="#0D1C2E"/>
</g>
</g>
</g>
</svg>
