<svg width="24" height="24" viewBox="0 0 24 24" fill="none" xmlns="http://www.w3.org/2000/svg">
<g id="Icon/Fill/weight">
<path id="Mask" fill-rule="evenodd" clip-rule="evenodd" d="M11 4.1719V5.9999C11 6.5529 11.448 6.9999 12 6.9999C12.552 6.9999 13 6.5529 13 5.9999V4.1719C13.923 4.4979 14.651 5.2669 14.907 6.2709C14.97 6.4919 15 6.7319 15 6.9999C15 8.6539 13.654 9.9999 12 9.9999C10.346 9.9999 9 8.6539 9 6.9999C9 6.7379 9.031 6.5049 9.091 6.2879C9.094 6.2759 9.095 6.2649 9.098 6.2529L9.102 6.2379C9.354 5.2559 10.08 4.4959 11 4.1719ZM18 4.9999H16.578C15.799 3.2009 14.017 1.9999 12 1.9999C9.977 1.9999 8.191 3.2089 7.42 4.9999H6C4.346 4.9999 3 6.3459 3 7.9999V18.9999C3 20.6539 4.346 21.9999 6 21.9999H18C19.654 21.9999 21 20.6539 21 18.9999V7.9999C21 6.3459 19.654 4.9999 18 4.9999Z" fill="#423F3D"/>
</g>
</svg>
