<svg fill="none" height="24" viewBox="0 0 24 24" width="24" xmlns="http://www.w3.org/2000/svg"><path clip-rule="evenodd" d="m11 4.17193v1.828c0 .553.448 1 1 1s1-.447 1-1v-1.828c.923.326 1.651 1.095 1.907 2.099.063.221.093.461.093.729 0 1.654-1.346 3-3 3s-3-1.346-3-3c0-.262.031-.495.091-.712.003-.012.004-.023.007-.035l.004-.015c.252-.982.978-1.742 1.898-2.066m7 .82807h-1.422c-.779-1.799-2.561-3-4.578-3-2.023 0-3.809 1.209-4.58 3h-1.42c-1.654 0-3 1.346-3 3v11c0 1.654 1.346 3 3 3h12c1.654 0 3-1.346 3-3v-11c0-1.654-1.346-3-3-3" fill="#6b7280" fill-rule="evenodd"/></svg>