<svg viewBox="0 0 64 64" fill="none" xmlns="http://www.w3.org/2000/svg">
<path fill-rule="evenodd" clip-rule="evenodd" d="M31.9999 5.33325C46.7275 5.33325 58.6666 17.2723 58.6666 31.9999C58.6666 46.7275 46.7275 58.6666 31.9999 58.6666C17.2723 58.6666 5.33325 46.7275 5.33325 31.9999C5.33325 17.2723 17.2723 5.33325 31.9999 5.33325ZM33.2327 20.2665H35.9315V48.0255H41.3292V16.0255H33.2327C25.1364 16.0255 20.8954 20.2665 20.8954 26.4352C20.8954 31.4472 23.2087 34.146 27.4497 37.2304L20.1244 48.0255H26.293L34.0039 36.0737L31.3051 34.146C27.8352 31.8328 26.293 29.905 26.293 26.0496C26.293 22.5797 28.6063 20.2665 33.2327 20.2665Z" fill="#141414"/>
</svg>