<svg width="265" height="265" viewBox="0 0 265 265" xmlns="http://www.w3.org/2000/svg">
<path fill-rule="evenodd" clip-rule="evenodd" d="M139.5 88.0837C139.5 105.775 153.893 120.166 171.584 120.166C189.275 120.166 203.666 105.775 203.666 88.0837C203.666 70.3929 189.275 56 171.584 56C153.893 56 139.5 70.3929 139.5 88.0837ZM149.125 88.0837C149.125 75.6988 159.199 65.625 171.584 65.625C183.967 65.625 194.041 75.6988 194.041 88.0837C194.041 100.467 183.967 110.541 171.584 110.541C159.199 110.541 149.125 100.467 149.125 88.0837ZM179.604 190.75H150.245C148.009 201.721 138.283 210 126.666 210C115.05 210 105.324 201.721 103.087 190.75H73.7287C67.5368 190.75 62.4999 185.713 62.4999 179.521C62.4999 176.235 63.931 173.124 66.4265 170.987C66.5875 170.846 66.7602 170.717 66.94 170.601C76.3594 162.381 81.7499 150.556 81.7499 138.069V120.166C81.7499 95.3988 101.905 75.25 126.666 75.25C127.693 75.25 128.803 75.2688 129.83 75.4427C132.454 75.8786 134.226 78.3624 133.789 80.9801C133.353 83.5979 130.824 85.3696 128.251 84.9326C127.835 84.8649 127.385 84.8691 126.959 84.8731C126.86 84.8741 126.762 84.875 126.666 84.875C107.212 84.875 91.3749 100.705 91.3749 120.166V138.069C91.3749 153.572 84.5792 168.241 72.7477 178.308L72.6981 178.348C72.6215 178.41 72.5498 178.468 72.4645 178.526C72.2918 178.745 72.1249 179.078 72.1249 179.521C72.1249 180.393 72.8569 181.125 73.7287 181.125H107.416H145.916H179.604C180.477 181.125 181.209 180.393 181.209 179.521C181.209 179.071 181.042 178.745 180.862 178.526C180.79 178.473 180.725 178.42 180.656 178.364L180.656 178.364C180.633 178.346 180.61 178.327 180.586 178.308C168.747 168.234 161.959 153.572 161.959 138.069V131.075C161.959 128.419 164.115 126.263 166.771 126.263C169.428 126.263 171.584 128.419 171.584 131.075V138.069C171.584 150.563 176.98 162.394 186.412 170.621C186.585 170.736 186.752 170.858 186.906 170.994C189.403 173.124 190.834 176.235 190.834 179.521C190.834 185.713 185.797 190.75 179.604 190.75ZM126.666 200.375C120.395 200.375 115.04 196.353 113.053 190.75H140.279C138.292 196.353 132.938 200.375 126.666 200.375Z"/>
</svg>
