<svg width="265" height="265" viewBox="0 0 265 265" fill="none" xmlns="http://www.w3.org/2000/svg">
<path fill-rule="evenodd" clip-rule="evenodd" d="M42 25C33.1634 25 26 32.1634 26 41V223C26 231.837 33.1634 239 42 239H224C232.837 239 240 231.837 240 223V41C240 32.1634 232.837 25 224 25H42ZM205.719 51.5355C207.672 49.5829 210.838 49.5829 212.79 51.5355C214.743 53.4881 214.743 56.654 212.79 58.6066L197.354 74.0435L213.029 89.7193C214.982 91.6719 214.982 94.8377 213.029 96.7904C211.077 98.743 207.911 98.743 205.958 96.7904L190.282 81.1146L174.607 96.7904C172.654 98.743 169.488 98.743 167.536 96.7904C165.583 94.8377 165.583 91.6719 167.536 89.7193L183.211 74.0435L167.775 58.6066C165.822 56.654 165.822 53.4881 167.775 51.5355C169.727 49.5829 172.893 49.5829 174.846 51.5355L190.282 66.9724L205.719 51.5355ZM124 174.92C124 171.65 121.35 169 118.08 169L55.92 169C52.6505 169 50 171.65 50 174.92L50 200.08C50 203.35 52.6505 206 55.92 206L118.08 206C121.35 206 124 203.35 124 200.08V174.92ZM208.08 169C211.35 169 214 171.65 214 174.92V200.08C214 203.35 211.35 206 208.08 206L145.92 206C142.65 206 140 203.35 140 200.08V174.92C140 171.65 142.65 169 145.92 169L208.08 169Z" fill="#232323"/>
</svg>
