<svg width="265" height="265" viewBox="0 0 265 265" xmlns="http://www.w3.org/2000/svg">
<path fill-rule="evenodd" clip-rule="evenodd" d="M39 24C30.1634 24 23 31.1634 23 40V226C23 234.837 30.1634 242 39 242H225C233.837 242 241 234.837 241 226V40C241 31.1634 233.837 24 225 24H39ZM45 118C42.7909 118 41 119.791 41 122V138C41 140.209 42.7909 142 45 142H87C89.2091 142 91 140.209 91 138V122C91 119.791 89.2091 118 87 118H45ZM41 162C41 159.791 42.7909 158 45 158H87C89.2091 158 91 159.791 91 162V178C91 180.209 89.2091 182 87 182H45C42.7909 182 41 180.209 41 178V162ZM45 198C42.7909 198 41 199.791 41 202V218C41 220.209 42.7909 222 45 222H87C89.2091 222 91 220.209 91 218V202C91 199.791 89.2091 198 87 198H45ZM107 122C107 119.791 108.791 118 111 118H153C155.209 118 157 119.791 157 122V138C157 140.209 155.209 142 153 142H111C108.791 142 107 140.209 107 138V122ZM111 158C108.791 158 107 159.791 107 162V178C107 180.209 108.791 182 111 182H153C155.209 182 157 180.209 157 178V162C157 159.791 155.209 158 153 158H111ZM107 202C107 199.791 108.791 198 111 198H153C155.209 198 157 199.791 157 202V218C157 220.209 155.209 222 153 222H111C108.791 222 107 220.209 107 218V202ZM177 118C174.791 118 173 119.791 173 122V138C173 140.209 174.791 142 177 142H219C221.209 142 223 140.209 223 138V122C223 119.791 221.209 118 219 118H177ZM173 162C173 159.791 174.791 158 177 158H219C221.209 158 223 159.791 223 162V178C223 180.209 221.209 182 219 182H177C174.791 182 173 180.209 173 178V162ZM177 198C174.791 198 173 199.791 173 202V218C173 220.209 174.791 222 177 222H219C221.209 222 223 220.209 223 218V202C223 199.791 221.209 198 219 198H177Z"/>
</svg>
