<svg width="265" height="265" viewBox="0 0 265 265" fill="none" xmlns="http://www.w3.org/2000/svg">
<path fill-rule="evenodd" clip-rule="evenodd" d="M233 99.0001C233 90.1635 225.837 83.0001 217 83.0001L49 83C40.1634 83 33 90.1634 33 99L33 167C33 175.837 40.1634 183 49 183L217 183C225.837 183 233 175.837 233 167V99.0001ZM72 96C69.7909 96 68 97.7908 68 100L68 113C68 115.209 69.7909 117 72 117C74.2091 117 76 115.209 76 113L76 100C76 97.7908 74.2091 96 72 96ZM63 100C63 99.662 63.0186 99.3283 63.0549 99H63C56.3726 99 51 104.373 51 111V155C51 161.627 56.3726 167 63 167H107C113.627 167 119 161.627 119 155V111C119 104.373 113.627 99 107 99H106.945C106.981 99.3283 107 99.662 107 100L107 107C109.209 107 111 108.791 111 111V155C111 157.209 109.209 159 107 159H63C60.7909 159 59 157.209 59 155V111C59 108.791 60.7909 107 63 107L63 100ZM81 100C81 99.662 80.9814 99.3283 80.9451 99H89.0549C89.0186 99.3283 89 99.662 89 100L89 107H81L81 100ZM94 100C94 97.7908 95.7909 96 98 96C100.209 96 102 97.7908 102 100V113C102 115.209 100.209 117 98 117C95.7909 117 94 115.209 94 113L94 100Z" fill="#232323"/>
</svg>
