<svg width="265" height="265" viewBox="0 0 265 265" fill="none" xmlns="http://www.w3.org/2000/svg">
<path fill-rule="evenodd" clip-rule="evenodd" d="M232 167L232 99.0001C232 90.7159 225.284 84.0001 217 84.0001L49 84C40.7157 84 34 90.7157 34 99L34 167C34 175.284 40.7157 182 49 182L217 182C225.284 182 232 175.284 232 167ZM233 99.0001C233 90.1636 225.837 83.0001 217 83.0001L49 83C40.1634 83 33 90.1635 33 99L33 167C33 175.837 40.1634 183 49 183L217 183C225.837 183 233 175.837 233 167L233 99.0001Z" fill="#232323"/>
<path fill-rule="evenodd" clip-rule="evenodd" d="M233 99.0001C233 90.1635 225.837 83.0001 217 83.0001L49 83C40.1634 83 33 90.1634 33 99L33 167C33 175.837 40.1634 183 49 183L217 183C225.837 183 233 175.837 233 167V99.0001ZM160.536 127.607C158.583 125.654 158.583 122.488 160.536 120.535C162.488 118.583 165.654 118.583 167.607 120.535L185.178 138.107L202.749 120.536C204.701 118.583 207.867 118.583 209.82 120.536C211.772 122.488 211.772 125.654 209.82 127.607L189.578 147.848C189.371 148.194 189.118 148.521 188.82 148.82C187.816 149.823 186.492 150.311 185.177 150.283C183.863 150.311 182.539 149.823 181.535 148.82C181.237 148.521 180.984 148.194 180.777 147.848L160.536 127.607Z" fill="#232323"/>
</svg>
