<svg width="265" height="265" viewBox="0 0 265 265" xmlns="http://www.w3.org/2000/svg">
<path fill-rule="evenodd" clip-rule="evenodd" d="M217 22H49C34.6406 22 23 33.6406 23 48V216C23 230.359 34.6406 242 49 242H217C231.359 242 243 230.359 243 216V48C243 33.6406 231.359 22 217 22ZM33 48C33 39.1634 40.1634 32 49 32H217C225.837 32 233 39.1634 233 48V216C233 224.837 225.837 232 217 232H49C40.1634 232 33 224.837 33 216V48ZM213 51C208.582 51 205 54.5817 205 59L205 205C205 209.418 208.582 213 213 213C217.418 213 221 209.418 221 205L221 59C221 54.5817 217.418 51 213 51Z"/>
</svg>
