<svg width="265" height="265" viewBox="0 0 265 265" fill="none" xmlns="http://www.w3.org/2000/svg">
<path fill-rule="evenodd" clip-rule="evenodd" d="M217 23H49C34.6406 23 23 34.6406 23 49V217C23 231.359 34.6406 243 49 243H217C231.359 243 243 231.359 243 217V49C243 34.6406 231.359 23 217 23ZM33 49C33 40.1634 40.1634 33 49 33H217C225.837 33 233 40.1634 233 49V217C233 225.837 225.837 233 217 233H49C40.1634 233 33 225.837 33 217V49ZM217 57.0001C217 52.5818 213.418 49.0001 209 49.0001L57 49C52.5817 49 49 52.5818 49 57L49 85C49 89.4183 52.5817 93 57 93L209 93.0001C213.418 93.0001 217 89.4184 217 85.0001V57.0001ZM209 111C213.418 111 217 114.582 217 119V147C217 151.418 213.418 155 209 155L57 155C52.5817 155 49 151.418 49 147L49 119C49 114.582 52.5817 111 57 111L209 111ZM217 181C217 176.582 213.418 173 209 173L57 173C52.5817 173 49 176.582 49 181L49 209C49 213.418 52.5817 217 57 217L209 217C213.418 217 217 213.418 217 209V181Z" fill="#232323"/>
</svg>
