<svg width="265" height="265" viewBox="0 0 265 265" xmlns="http://www.w3.org/2000/svg">
<path fill-rule="evenodd" clip-rule="evenodd" d="M49 22H67C81.3594 22 93 33.6406 93 48V216C93 230.359 81.3594 242 67 242H49C34.6406 242 23 230.359 23 216V48C23 33.6406 34.6406 22 49 22ZM49 32C40.1634 32 33 39.1634 33 48V216C33 224.837 40.1634 232 49 232H67C75.8366 232 83 224.837 83 216V48C83 39.1634 75.8366 32 67 32H49ZM169 22H217C231.359 22 243 33.6406 243 48V216C243 230.359 231.359 242 217 242H169C154.641 242 143 230.359 143 216V48C143 33.6406 154.641 22 169 22ZM169 32C160.163 32 153 39.1634 153 48V216C153 224.837 160.163 232 169 232H217C225.837 232 233 224.837 233 216V48C233 39.1634 225.837 32 217 32H169ZM118 104C126.837 104 134 96.8366 134 88C134 79.1634 126.837 72 118 72C109.163 72 102 79.1634 102 88C102 96.8366 109.163 104 118 104ZM134 132C134 140.837 126.837 148 118 148C109.163 148 102 140.837 102 132C102 123.163 109.163 116 118 116C126.837 116 134 123.163 134 132ZM118 192C126.837 192 134 184.837 134 176C134 167.163 126.837 160 118 160C109.163 160 102 167.163 102 176C102 184.837 109.163 192 118 192Z"/>
</svg>
