<svg viewBox="0 0 64 64" fill="none" xmlns="http://www.w3.org/2000/svg">
<path fill-rule="evenodd" clip-rule="evenodd" d="M19.1698 45.3334L18.2337 42.1629H9.5995L8.66083 45.3334H2.66663L11.334 19.2309H16.5018L25.2763 45.3334H19.1698ZM13.9357 26.6865L10.9514 37.4272H16.8487L13.9357 26.6865ZM25.942 19.2309H31.6301V45.3334H25.942V19.2309ZM33.1605 40.0004C33.4156 38.7125 33.8671 37.4779 34.4971 36.3473C35.043 35.39 35.7266 34.534 36.5249 33.8114C37.3412 33.0835 38.2033 32.4248 39.1088 31.8355C39.823 31.3876 40.4862 30.9556 41.1009 30.5476C41.6672 30.1743 42.2054 29.7583 42.713 29.2997C43.1517 28.905 43.5216 28.4331 43.8047 27.8998C44.0776 27.3691 44.2128 26.7718 44.2052 26.1665C44.2052 25.1213 43.9399 24.3693 43.4068 23.9107C42.848 23.4408 42.1467 23.1958 41.43 23.22C40.614 23.1958 39.8222 23.5114 39.2287 24.0973C38.6395 24.6813 38.3436 25.6572 38.3436 27.0251H32.7652C32.7545 25.8908 32.9483 24.7646 33.3365 23.7053C33.7089 22.7001 34.2829 21.7961 35.02 21.0575C35.8005 20.2842 36.7214 19.6869 37.7238 19.3056C38.9002 18.8621 40.1439 18.6461 41.3943 18.6683C42.4656 18.663 43.5369 18.8203 44.5674 19.1349C45.5265 19.4203 46.4294 19.9002 47.2201 20.5509C47.9981 21.2068 48.623 22.0494 49.0414 23.012C49.5132 24.1293 49.7428 25.3452 49.7173 26.5718C49.73 27.6118 49.503 28.6357 49.0567 29.5583C48.6307 30.4329 48.0874 31.2382 47.4446 31.9422C46.8171 32.6328 46.1259 33.2488 45.3836 33.7901C44.6439 34.3234 43.9705 34.7767 43.3711 35.15C42.5396 35.7473 41.8509 36.2619 41.3076 36.6966C40.8406 37.0601 40.4053 37.4661 40.0067 37.9098C39.7067 38.2421 39.4764 38.6363 39.3307 39.0671C39.1975 39.5131 39.1338 39.9786 39.142 40.4457H49.5438V45.3334H32.6938C32.6635 43.5433 32.8201 41.7551 33.1605 40.0004ZM50.6203 23.8147C51.5923 23.8359 52.5635 23.7419 53.5153 23.5347C54.153 23.404 54.7499 23.1187 55.2651 22.6974C55.6809 22.3267 55.9793 21.8334 56.1324 21.2788C56.3058 20.6122 56.3874 19.9189 56.3747 19.2256H61.3333V45.3334H55.612V28.0677H50.6203V23.8147Z" fill="#141414"/>
</svg>