<svg width="64" height="64" viewBox="0 0 64 64" fill="none" xmlns="http://www.w3.org/2000/svg">
<path d="M31.874 56C32.9785 56.0073 33.8676 56.9082 33.8603 58.0127C33.853 59.1172 32.9522 60.0063 31.8476 59.999C31.8179 59.9988 31.7875 59.9993 31.7578 59.999C30.6536 59.9871 29.7677 59.0819 29.7793 57.9775C29.7911 56.8734 30.6957 55.9878 31.7998 55.999C31.8243 55.9993 31.8495 55.9998 31.874 56ZM39.1543 54.6016C40.1775 54.1857 41.3447 54.678 41.7607 55.7012C42.1765 56.7243 41.6841 57.8906 40.6611 58.3066C40.6473 58.3122 40.6329 58.3186 40.6191 58.3242C40.6055 58.3297 40.5917 58.3353 40.5781 58.3408C39.5533 58.7527 38.3885 58.2553 37.9765 57.2305C37.5649 56.2057 38.0613 55.0409 39.0859 54.6289L39.1543 54.6016ZM21.9209 55.5312C22.3543 54.5154 23.529 54.0433 24.5449 54.4766C24.5561 54.4813 24.5679 54.4864 24.5791 54.4912C24.5902 54.4959 24.6021 54.5002 24.6133 54.5049C25.6307 54.9344 26.1069 56.1075 25.6777 57.125C25.2483 58.1427 24.0753 58.6199 23.0576 58.1904L22.9756 58.1553C21.9597 57.7218 21.4875 56.5472 21.9209 55.5312ZM45.3457 50.5234C46.1319 49.7478 47.398 49.757 48.1738 50.543C48.9496 51.3292 48.9414 52.5953 48.1553 53.3711C48.1341 53.3919 48.113 53.4128 48.0918 53.4336C47.3026 54.2063 46.0364 54.1925 45.2637 53.4033C44.4911 52.6141 44.5039 51.3479 45.293 50.5752C45.3105 50.558 45.3282 50.5407 45.3457 50.5234ZM15.5967 50.2637C16.3858 49.491 17.652 49.5039 18.4248 50.293C18.4419 50.3105 18.4593 50.3283 18.4765 50.3457C19.2523 51.1319 19.2432 52.398 18.457 53.1738C17.6708 53.9495 16.4047 53.9414 15.6289 53.1553C15.6081 53.1342 15.5871 53.113 15.5664 53.0918C14.7938 52.3026 14.8076 51.0364 15.5967 50.2637ZM49.5049 44.3867C49.9343 43.3694 51.1075 42.8932 52.125 43.3223C53.1426 43.7517 53.6199 44.9247 53.1904 45.9424L53.1553 46.0244C52.7219 47.0404 51.5472 47.5125 50.5312 47.0791C49.5154 46.6456 49.0432 45.471 49.4765 44.4551C49.4814 44.4438 49.4864 44.4322 49.4912 44.4209C49.496 44.4097 49.5001 44.3979 49.5049 44.3867ZM11.7695 42.9766C12.7943 42.5648 13.9591 43.0612 14.3711 44.0859L14.3984 44.1543C14.8144 45.1776 14.3221 46.3448 13.2988 46.7607C12.2758 47.1764 11.1094 46.684 10.6933 45.6611C10.6877 45.6474 10.6813 45.6329 10.6758 45.6191C10.6703 45.6055 10.6646 45.5918 10.6592 45.5781C10.2474 44.5533 10.7448 43.3885 11.7695 42.9766ZM32.1279 23.207C33.5639 23.1715 36.161 32.8254 36.0439 36.9971C35.9791 39.3009 33.9978 41.2214 31.6191 41.2861C29.2406 41.3506 27.3652 39.5352 27.4297 37.2314C27.547 33.0594 30.6922 23.2467 32.1279 23.207ZM53.0127 35.1396C54.1172 35.147 55.0063 36.0479 54.999 37.1523C54.9988 37.1821 54.9993 37.2124 54.999 37.2422C54.9872 38.3465 54.0819 39.2323 52.9775 39.2207C51.8734 39.2088 50.9876 38.3043 50.999 37.2002C50.9993 37.1756 50.9998 37.1505 51 37.126C51.0074 36.0216 51.9083 35.1325 53.0127 35.1396ZM11.0224 34.7793C12.1266 34.7911 13.0123 35.6956 13.001 36.7998C13.0007 36.8244 13.0001 36.8495 13 36.874C12.9927 37.9785 12.0918 38.8676 10.9873 38.8604C9.88285 38.8529 8.99366 37.9521 9.00096 36.8477C9.00115 36.8179 9.00065 36.7876 9.00096 36.7578C9.01283 35.6536 9.91819 34.7678 11.0224 34.7793ZM50.7012 27.2393C51.7242 26.8235 52.8905 27.316 53.3066 28.3389C53.3122 28.3526 53.3186 28.3671 53.3242 28.3809C53.3297 28.3945 53.3353 28.4082 53.3408 28.4219C53.7528 29.4468 53.2553 30.6115 52.2305 31.0234C51.2057 31.4352 50.0408 30.9388 49.6289 29.9141L49.6015 29.8457C49.1858 28.8225 49.678 27.6552 50.7012 27.2393ZM10.8447 27.9756C11.2781 26.9597 12.4528 26.4877 13.4687 26.9209C14.4847 27.3543 14.9568 28.529 14.5234 29.5449C14.5186 29.5562 14.5136 29.5678 14.5088 29.5791C14.504 29.5903 14.4998 29.6021 14.4951 29.6133C14.0656 30.6307 12.8925 31.107 11.875 30.6777C10.8575 30.2482 10.3801 29.0752 10.8096 28.0576L10.8447 27.9756ZM45.543 20.8262C46.3291 20.0505 47.5952 20.0587 48.3711 20.8447C48.3919 20.8658 48.4129 20.887 48.4336 20.9082C49.2064 21.6974 49.1925 22.9635 48.4033 23.7363C47.6141 24.509 46.3479 24.4962 45.5752 23.707C45.558 23.6895 45.5406 23.6717 45.5234 23.6543C44.7479 22.8681 44.7569 21.6019 45.543 20.8262ZM15.9082 20.5664C16.6973 19.7937 17.9635 19.8076 18.7363 20.5967C19.509 21.3859 19.4962 22.652 18.707 23.4248C18.6895 23.442 18.6717 23.4593 18.6543 23.4766C17.8681 24.2522 16.6019 24.2432 15.8262 23.457C15.0506 22.6708 15.0586 21.4047 15.8447 20.6289C15.8658 20.6081 15.887 20.5872 15.9082 20.5664ZM38.3223 16.875C38.7517 15.8574 39.9248 15.3803 40.9424 15.8096L41.0244 15.8447C42.0404 16.2781 42.5125 17.4528 42.0791 18.4688C41.6457 19.4847 40.471 19.9568 39.4551 19.5234C39.4439 19.5187 39.4321 19.5135 39.4209 19.5088C39.4097 19.5041 39.3979 19.4998 39.3867 19.4951C38.3694 19.0656 37.8931 17.8925 38.3223 16.875ZM23.4219 15.6592C24.4467 15.2473 25.6114 15.7448 26.0234 16.7695C26.4353 17.7944 25.9389 18.9592 24.914 19.3711L24.8457 19.3984C23.8225 19.8143 22.6552 19.322 22.2392 18.2988C21.8236 17.2758 22.3161 16.1095 23.3389 15.6934C23.3526 15.6878 23.3671 15.6814 23.3808 15.6758C23.3945 15.6703 23.4082 15.6647 23.4219 15.6592ZM32.2422 14.001C33.3465 14.0128 34.2322 14.9181 34.2207 16.0225C34.2089 17.1267 33.3044 18.0123 32.2002 18.001C32.1757 18.0007 32.1505 18.0002 32.126 18C31.0215 17.9926 30.1324 17.0917 30.1396 15.9873C30.147 14.8829 31.0479 13.9938 32.1523 14.001C32.1821 14.0012 32.2124 14.0007 32.2422 14.001ZM38 5C39.6568 5 41 6.34315 41 8C41 9.65685 39.6568 11 38 11H26C24.3432 10.9999 23 9.65682 23 8C23 6.34318 24.3432 5.00006 26 5H38Z" fill="black"/>
</svg>
