<svg fill="none" height="24" viewBox="0 0 24 24" width="24" xmlns="http://www.w3.org/2000/svg"><path clip-rule="evenodd" d="m11 9c0-.552.448-1 1-1s1 .448 1 1v4c0 .552-.448 1-1 1s-1-.448-1-1zm0 6.9999c0-.552.448-1 1-1s1 .448 1 1-.448 1-1 1-1-.448-1-1zm9.8647 2.3532c-.229.405-.675.647-1.193.647h-15.344c-.518 0-.964-.242-1.192-.647-.108-.19-.25-.577.017-1.017l7.671-12.71797c.467-.774 1.885-.774 2.352 0l7.672 12.71797c.266.44.125.827.017 1.017zm1.696-2.0501-7.672-12.719c-.599-.992-1.679-1.584-2.889-1.584s-2.29.592-2.888 1.584l-7.672 12.719c-.569001.943-.586001 2.077-.046 3.033.579 1.027 1.704 1.664 2.934 1.664h15.344c1.231 0 2.355-.637 2.935-1.664.54-.956.523-2.09-.046-3.033z" fill="#6b7280" fill-rule="evenodd"/></svg>