<svg fill="none" height="24" viewBox="0 0 24 24" width="24" xmlns="http://www.w3.org/2000/svg"><path clip-rule="evenodd" d="m11 8.00006c0-.552.448-1 1-1s1 .448 1 1v5.00004c0 .552-.448 1-1 1s-1-.448-1-1zm0 8.00004c0-.552.448-1 1-1s1 .448 1 1-.448 1-1 1-1-.448-1-1zm1 4c-4.41103 0-8.00003-3.589-8.00003-8 0-4.41104 3.589-8.00003 8.00003-8.00003 4.411 0 8 3.58899 8 8.00003 0 4.411-3.589 8-8 8zm0-18.0001c-5.523 0-10 4.477-10 10s4.477 10 10 10 10-4.477 10-10-4.477-10-10-10z" fill="#6b7280" fill-rule="evenodd"/></svg>