<svg fill="none" height="64" viewBox="0 0 64 64" width="64" xmlns="http://www.w3.org/2000/svg"><path clip-rule="evenodd" d="m29.3334 24.0002c0-1.472 1.1946-2.6667 2.6666-2.6667s2.6667 1.1947 2.6667 2.6667v10.6666c0 1.472-1.1947 2.6667-2.6667 2.6667s-2.6666-1.1947-2.6666-2.6667zm0 18.6665c0-1.472 1.1946-2.6667 2.6666-2.6667s2.6667 1.1947 2.6667 2.6667-1.1947 2.6666-2.6667 2.6666-2.6666-1.1946-2.6666-2.6666zm26.3058 6.2751c-.6107 1.08-1.8 1.7254-3.1813 1.7254h-40.9174c-1.3813 0-2.57063-.6454-3.17863-1.7254-.288-.5066-.66667-1.5386.04533-2.712l20.456-33.9146c1.2453-2.064 5.0267-2.064 6.272 0l20.4587 33.9146c.7093 1.1734.3333 2.2054.0453 2.712zm4.5227-5.467-20.4587-33.9173c-1.5973-2.64534-4.4773-4.224-7.704-4.224s-6.1067 1.57866-7.7013 4.224l-20.4587 33.9173c-1.51733 2.5147-1.56267 5.5387-.12267 8.088 1.544 2.7387 4.544 4.4374 7.82397 4.4374h40.9174c3.2826 0 6.28-1.6987 7.8266-4.4374 1.44-2.5493 1.3947-5.5733-.1226-8.088z" fill="#6b7280" fill-rule="evenodd"/></svg>