<svg fill="none" height="64" viewBox="0 0 64 64" width="64" xmlns="http://www.w3.org/2000/svg"><path d="m47.2929 19.3738c.3906-.3905.3906-1.0236 0-1.4142l-2.3457-2.3458c-.3906-.3905-1.0237-.3905-1.4143 0l-15.4924 15.4925c-.3905.3905-.3905 1.0237 0 1.4142l2.3458 2.3458c.3905.3905 1.0237.3905 1.4142 0zm12.7209-3.7649c-.3909-.3882-1.0221-.3871-1.4117.0025l-26.8025 26.8024c-.3901.3902-1.0227.3906-1.4133.0009l-9.7325-9.7092c-.3906-.3897-1.0231-.3894-1.4133.0008l-2.3467 2.3467c-.3905.3905-.3905 1.0237 0 1.4142l13.4925 13.4924c.3905.3906 1.0237.3906 1.4142 0l30.5833-30.5833c.3915-.3915.3904-1.0265-.0025-1.4167zm-58.2083 19.4441c-.39288.3901-.39401 1.0252-.00251 1.4167l13.48991 13.4899c.3906.3906 1.0237.3906 1.4143 0l2.3464-2.3464c.3903-.3903.3905-1.0229.0006-1.4136l-13.46954-13.4937c-.38944-.3901-1.02117-.3915-1.41234-.0031z" fill="#6b7280"/></svg>