<svg width="64" height="64" viewBox="0 0 64 64" fill="none" xmlns="http://www.w3.org/2000/svg">
<path d="M28.6907 2.6665H35.3094C37.456 2.6665 39.2294 2.6665 40.6694 2.78384C42.1707 2.9065 43.5494 3.1705 44.8427 3.82917C46.8497 4.8518 48.4814 6.48353 49.504 8.4905C50.1627 9.78384 50.4267 11.1625 50.5494 12.6612C50.6667 14.1065 50.6667 15.8772 50.6667 18.0212V45.9758C50.6667 48.1225 50.6667 49.8958 50.5494 51.3358C50.4267 52.8372 50.1627 54.2158 49.504 55.5092C48.4814 57.5161 46.8497 59.1479 44.8427 60.1705C43.5494 60.8292 42.1707 61.0932 40.672 61.2158C39.2294 61.3332 37.456 61.3332 35.312 61.3332H28.6907C26.544 61.3332 24.7707 61.3332 23.3307 61.2158C21.8294 61.0932 20.4507 60.8292 19.1574 60.1705C17.1504 59.1479 15.5187 57.5161 14.496 55.5092C13.8374 54.2158 13.5734 52.8372 13.4507 51.3385C13.3334 49.8932 13.3334 48.1225 13.3334 45.9785V18.0212C13.3334 15.8745 13.3334 14.1012 13.4507 12.6612C13.5734 11.1598 13.8374 9.78117 14.496 8.48784C15.5187 6.48086 17.1504 4.84914 19.1574 3.8265C20.4507 3.16784 21.8294 2.90384 23.328 2.78117C24.7734 2.6665 26.5467 2.6665 28.6907 2.6665ZM23.76 8.10117C22.592 8.1945 21.992 8.36784 21.576 8.58117C20.5726 9.09249 19.7567 9.90835 19.2454 10.9118C19.032 11.3278 18.8587 11.9252 18.7654 13.0958C18.6667 14.2958 18.6667 15.8478 18.6667 18.1332V45.8665C18.6667 48.1518 18.6667 49.7038 18.768 50.9038C18.8614 52.0718 19.0347 52.6718 19.248 53.0878C19.7594 54.0913 20.5752 54.9072 21.5787 55.4185C21.9947 55.6318 22.592 55.8052 23.7627 55.8985C24.9627 55.9998 26.5147 55.9998 28.8 55.9998H35.2C37.4854 55.9998 39.0374 55.9998 40.2374 55.8985C41.4054 55.8052 42.0054 55.6318 42.4214 55.4185C43.4249 54.9072 44.2407 54.0913 44.752 53.0878C44.9654 52.6718 45.1387 52.0745 45.232 50.9038C45.3307 49.7038 45.3334 48.1518 45.3334 45.8665V18.1332C45.3334 15.8478 45.3334 14.2958 45.232 13.0958C45.1387 11.9278 44.9654 11.3278 44.752 10.9118C44.2407 9.90835 43.4249 9.09249 42.4214 8.58117C42.0054 8.36784 41.408 8.1945 40.2374 8.10117C39.0374 7.99984 37.4854 7.99984 35.2 7.99984H28.8C26.5147 7.99984 24.9627 7.99984 23.7627 8.10117" fill="black"/>
</svg>
