<svg fill="none" height="24" viewBox="0 0 24 24" width="24" xmlns="http://www.w3.org/2000/svg"><path clip-rule="evenodd" d="m9.86621 14h4.26799c.476 0 .866-.39.866-.866v-.268c0-.476-.39-.866-.866-.866h-4.26799c-.477 0-.866.39-.866.866v.268c0 .476.389.866.866.866zm8.13379 4c0 .551-.448 1-1 1h-10c-.551 0-1-.449-1-1v-9h12zm-11.99998-12.99993h11.99998c.552 0 1 .449 1 .99999 0 .551-.448 1-1 1h-11.99998c-.551 0-1-.449-1-1 0-.55099.449-.99999 1-.99999zm14.99998.99993c0-1.654-1.346-3-3-3h-12c-1.654 0-3 1.346-3 3 0 .883.391 1.67 1 2.22v9.78c0 1.654 1.346 3 3 3h10c1.654 0 3-1.346 3-3v-9.78c.609-.55 1-1.337 1-2.22z" fill="#6b7280" fill-rule="evenodd"/></svg>