<svg width="24" height="24" viewBox="0 0 24 24" fill="none" xmlns="http://www.w3.org/2000/svg">
<g id="Icon/Outline/arrowhead-right">
<path id="Mask" fill-rule="evenodd" clip-rule="evenodd" d="M13.9513 5.373L18.7793 11.373C19.0783 11.744 19.0733 12.274 18.7683 12.64L13.7683 18.64C13.5703 18.877 13.2863 19 12.9993 19C12.7743 19 12.5473 18.924 12.3603 18.768C11.9353 18.415 11.8783 17.784 12.2323 17.36L16.7083 11.989L12.3923 6.627C12.0463 6.197 12.1143 5.567 12.5453 5.221C12.9753 4.874 13.6043 4.943 13.9513 5.373ZM5.5452 5.221C5.9752 4.875 6.6042 4.943 6.9512 5.373L11.7792 11.373C12.0772 11.744 12.0732 12.274 11.7682 12.64L6.7682 18.64C6.5702 18.877 6.2862 19 5.9992 19C5.7742 19 5.5472 18.924 5.3602 18.768C4.9352 18.415 4.8782 17.784 5.2322 17.36L9.7072 11.989L5.3922 6.627C5.0462 6.197 5.1152 5.567 5.5452 5.221Z" fill="#231F20"/>
<mask id="mask0" mask-type="alpha" maskUnits="userSpaceOnUse" x="5" y="4" width="15" height="15">
<path id="Mask_2" fill-rule="evenodd" clip-rule="evenodd" d="M13.9513 5.373L18.7793 11.373C19.0783 11.744 19.0733 12.274 18.7683 12.64L13.7683 18.64C13.5703 18.877 13.2863 19 12.9993 19C12.7743 19 12.5473 18.924 12.3603 18.768C11.9353 18.415 11.8783 17.784 12.2323 17.36L16.7083 11.989L12.3923 6.627C12.0463 6.197 12.1143 5.567 12.5453 5.221C12.9753 4.874 13.6043 4.943 13.9513 5.373ZM5.5452 5.221C5.9752 4.875 6.6042 4.943 6.9512 5.373L11.7792 11.373C12.0772 11.744 12.0732 12.274 11.7682 12.64L6.7682 18.64C6.5702 18.877 6.2862 19 5.9992 19C5.7742 19 5.5472 18.924 5.3602 18.768C4.9352 18.415 4.8782 17.784 5.2322 17.36L9.7072 11.989L5.3922 6.627C5.0462 6.197 5.1152 5.567 5.5452 5.221Z" fill="white"/>
</mask>
<g mask="url(#mask0)">
<g id="&#240;&#159;&#142;&#168; Color">
<rect id="Base" width="24" height="24" fill="#0D1C2E"/>
</g>
</g>
</g>
</svg>
