<svg fill="none" height="64" viewBox="0 0 64 64" width="64" xmlns="http://www.w3.org/2000/svg"><path clip-rule="evenodd" d="m37.2036 14.3276 12.8747 16c.7973.9893.784 2.4027-.0294 3.3787l-13.3333 16c-.528.632-1.2853.96-2.0507.96-.6 0-1.2053-.2027-1.704-.6187-1.1333-.9413-1.2853-2.624-.3413-3.7547l11.936-14.3226-11.5093-14.2987c-.9227-1.1467-.7414-2.8267.408-3.7493 1.1466-.9254 2.824-.7414 3.7493.4053zm-22.4164-.4042c1.1467-.9227 2.824-.7413 3.7494.4053l12.8746 16c.7947.9894.784 2.4027-.0293 3.3787l-13.3333 16c-.528.632-1.2854.96-2.0507.96-.6 0-1.2053-.2027-1.704-.6187-1.1333-.9413-1.2853-2.624-.3413-3.7546l11.9333-14.3227-11.5067-14.2987c-.9226-1.1466-.7386-2.8266.408-3.7493z" fill="#6b7280" fill-rule="evenodd"/></svg>