<svg fill="none" height="64" viewBox="0 0 64 64" width="64" xmlns="http://www.w3.org/2000/svg"><path clip-rule="evenodd" d="m45.3307 32.0146c0-.0054.0027-.008.0027-.0134 0-.088-.0427-.16-.0507-.2453-.0213-.256-.0533-.512-.152-.752-.072-.1813-.1946-.3253-.304-.4853-.0826-.1174-.128-.2534-.2293-.36l-7.6347-8c-1.0186-1.0667-2.704-1.104-3.7706-.088-1.064 1.016-1.104 2.704-.088 3.7706l3.3333 3.4934h-15.104c-1.472 0-2.6667 1.192-2.6667 2.6666 0 1.472 1.1947 2.6667 2.6667 2.6667h14.896l-3.448 3.448c-1.0427 1.04-1.0427 2.728 0 3.7707.52.52 1.2027.7813 1.8853.7813.6827 0 1.3654-.2613 1.8854-.7813l8-8c.2426-.2427.44-.536.5733-.8587.136-.3227.2027-.6667.2053-1.0133zm-13.3306 21.3191c-11.7627 0-21.3333-9.5707-21.3333-21.3334 0-11.7626 9.5706-21.3333 21.3333-21.3333 11.7626 0 21.3333 9.5707 21.3333 21.3333 0 11.7627-9.5707 21.3334-21.3333 21.3334zm-.0001-48.0002c-14.704 0-26.66663 11.9627-26.66663 26.6667s11.96263 26.6666 26.66663 26.6666 26.6667-11.9626 26.6667-26.6666-11.9627-26.6667-26.6667-26.6667z" fill="#6b7280" fill-rule="evenodd"/></svg>