<svg fill="none" height="64" viewBox="0 0 64 64" width="64" xmlns="http://www.w3.org/2000/svg"><path clip-rule="evenodd" d="m38.1589 33.1046-3.4934 3.3333v-15.104c0-1.472-1.192-2.6666-2.6666-2.6666-1.472 0-2.6667 1.1946-2.6667 2.6666v14.896l-3.448-3.448c-1.04-1.0426-2.728-1.0426-3.7707 0-1.04 1.0427-1.04 2.728 0 3.7707l8 7.9973c.2454.248.5414.4427.8667.5787s.672.2053 1.0187.2053c.344 0 .6853-.072 1.0053-.2026.1627-.0667.2907-.1814.432-.2774.136-.088.2853-.1413.4053-.256l8-7.6346c1.064-1.016 1.104-2.704.088-3.7707-1.0186-1.0667-2.704-1.104-3.7706-.088zm-6.1591 20.2291c-11.7626 0-21.3333-9.5707-21.3333-21.3334 0-11.7626 9.5707-21.3333 21.3333-21.3333 11.7627 0 21.3334 9.5707 21.3334 21.3333 0 11.7627-9.5707 21.3334-21.3334 21.3334zm.0001-48.0002c-14.704 0-26.66665 11.9627-26.66665 26.6667s11.96265 26.6666 26.66665 26.6666 26.6667-11.9626 26.6667-26.6666-11.9627-26.6667-26.6667-26.6667z" fill="#6b7280" fill-rule="evenodd"/></svg>