<svg width="24" height="24" viewBox="0 0 24 24" fill="none" xmlns="http://www.w3.org/2000/svg">
<g id="Icon/Outline/arrowhead-up">
<path id="Mask" fill-rule="evenodd" clip-rule="evenodd" d="M11.989 7.29242L6.62703 11.6074C6.19703 11.9534 5.56803 11.8854 5.22103 11.4554C4.87503 11.0244 4.94303 10.3954 5.37303 10.0484L11.373 5.22042C11.744 4.92242 12.274 4.92542 12.64 5.23242L18.64 10.2324C19.065 10.5854 19.122 11.2154 18.768 11.6404C18.57 11.8774 18.286 12.0004 18 12.0004C17.774 12.0004 17.547 11.9234 17.36 11.7684L11.989 7.29242ZM11.3731 12.2209C11.7441 11.9219 12.2741 11.9259 12.6401 12.2319L18.6401 17.2319C19.0641 17.5859 19.1211 18.2159 18.7681 18.6399C18.5701 18.8779 18.2861 18.9999 17.9991 18.9999C17.7741 18.9999 17.5471 18.9239 17.3601 18.7679L11.9891 14.2929L6.62713 18.6069C6.19713 18.9539 5.56813 18.8859 5.22113 18.4549C4.87413 18.0249 4.94313 17.3959 5.37313 17.0489L11.3731 12.2209Z" fill="#423F3D"/>
</g>
</svg>
