<svg fill="none" height="64" viewBox="0 0 64 64" width="64" xmlns="http://www.w3.org/2000/svg"><path d="m16 16.1663c8.7443 0 15.8328 7.0887 15.833 15.833 0 5.983 4.851 10.834 10.834 10.834h7.2978l-3.7324-3.7324c-.9762-.9763-.9763-2.5599 0-3.5361.9762-.9758 2.559-.9758 3.5352 0l9.7676 9.7685-9.7676 9.7676-.1895.1719c-.9819.8007-2.4304.7432-3.3457-.1719-.9762-.9763-.9763-2.5599 0-3.5361l3.7315-3.7315h-7.2969c-8.7445 0-15.834-7.0895-15.834-15.834-.0002-5.9828-4.8501-10.833-10.833-10.833h-8c-1.38071 0-2.5-1.1193-2.5-2.5.00008-1.3806 1.11934-2.5 2.5-2.5zm6.498 24.5039c1.104-.8292 2.6718-.6068 3.501.4971s.6068 2.6717-.497 3.501c-2.7398 2.058-6.0752 3.168-9.502 3.164l-8 .001c-1.38059 0-2.4998-1.1195-2.5-2.5 0-1.3807 1.11929-2.5 2.5-2.5h8.0039c2.342.0032 4.6214-.7565 6.4941-2.1631zm23.7344-31.77146c.9763-.97631 2.5589-.97631 3.5352 0l9.7676 9.76756-9.7676 9.7676c-.9763.9763-2.5589.9763-3.5352 0s-.9763-2.5589 0-3.5352l3.7324-3.7324h-7.3017c-2.3402-.0038-4.6184.7546-6.4893 2.1602-1.1038.8293-2.6716.6068-3.5009-.4971-.8291-1.1037-.6064-2.6706.497-3.5 2.7383-2.0572 6.0722-3.1678 9.4971-3.1631h7.2978l-3.7324-3.7324-.1719-.1895c-.8009-.9819-.7434-2.43034.1719-3.34566z" fill="#000"/></svg>