<svg width="24" height="24" viewBox="0 0 24 24" fill="none" xmlns="http://www.w3.org/2000/svg">
<g id="Icon/Outline/arrowhead-up">
<path id="Mask" fill-rule="evenodd" clip-rule="evenodd" d="M11.989 7.29242L6.627 11.6074C6.197 11.9534 5.568 11.8854 5.221 11.4554C4.875 11.0244 4.943 10.3954 5.373 10.0484L11.373 5.22042C11.744 4.92242 12.274 4.92542 12.64 5.23242L18.64 10.2324C19.065 10.5854 19.122 11.2154 18.768 11.6404C18.57 11.8774 18.286 12.0004 18 12.0004C17.774 12.0004 17.547 11.9234 17.36 11.7684L11.989 7.29242ZM11.3731 12.2209C11.7441 11.9219 12.2741 11.9259 12.6401 12.2319L18.6401 17.2319C19.0641 17.5859 19.1211 18.2159 18.7681 18.6399C18.5701 18.8779 18.2861 18.9999 17.9991 18.9999C17.7741 18.9999 17.5471 18.9239 17.3601 18.7679L11.9891 14.2929L6.6271 18.6069C6.1971 18.9539 5.5681 18.8859 5.2211 18.4549C4.8741 18.0249 4.9431 17.3959 5.3731 17.0489L11.3731 12.2209Z" fill="#231F20"/>
<mask id="mask0" mask-type="alpha" maskUnits="userSpaceOnUse" x="4" y="4" width="16" height="15">
<path id="Mask_2" fill-rule="evenodd" clip-rule="evenodd" d="M11.989 7.29242L6.627 11.6074C6.197 11.9534 5.568 11.8854 5.221 11.4554C4.875 11.0244 4.943 10.3954 5.373 10.0484L11.373 5.22042C11.744 4.92242 12.274 4.92542 12.64 5.23242L18.64 10.2324C19.065 10.5854 19.122 11.2154 18.768 11.6404C18.57 11.8774 18.286 12.0004 18 12.0004C17.774 12.0004 17.547 11.9234 17.36 11.7684L11.989 7.29242ZM11.3731 12.2209C11.7441 11.9219 12.2741 11.9259 12.6401 12.2319L18.6401 17.2319C19.0641 17.5859 19.1211 18.2159 18.7681 18.6399C18.5701 18.8779 18.2861 18.9999 17.9991 18.9999C17.7741 18.9999 17.5471 18.9239 17.3601 18.7679L11.9891 14.2929L6.6271 18.6069C6.1971 18.9539 5.5681 18.8859 5.2211 18.4549C4.8741 18.0249 4.9431 17.3959 5.3731 17.0489L11.3731 12.2209Z" fill="white"/>
</mask>
<g mask="url(#mask0)">
<g id="&#240;&#159;&#142;&#168; Color">
<rect id="Base" width="24" height="24" fill="#0D1C2E"/>
</g>
</g>
</g>
</svg>
