<svg width="24" height="24" viewBox="0 0 24 24" fill="none" xmlns="http://www.w3.org/2000/svg">
<g id="Icon/Outline/arrow-up-1">
<path id="Mask" fill-rule="evenodd" clip-rule="evenodd" d="M8.01372 14H15.9087L11.9977 9.17799L8.01372 14ZM16.2127 16H7.78672C7.11472 16 6.50672 15.598 6.20172 14.951C5.85672 14.218 5.95672 13.351 6.45972 12.741L10.6737 7.64199C11.3457 6.82499 12.6547 6.82499 13.3257 7.64199L17.5387 12.74C18.0427 13.351 18.1437 14.218 17.7977 14.951C17.4927 15.598 16.8857 16 16.2127 16Z" fill="#231F20"/>
<mask id="mask0" mask-type="alpha" maskUnits="userSpaceOnUse" x="5" y="7" width="14" height="9">
<path id="Mask_2" fill-rule="evenodd" clip-rule="evenodd" d="M8.01372 14H15.9087L11.9977 9.17799L8.01372 14ZM16.2127 16H7.78672C7.11472 16 6.50672 15.598 6.20172 14.951C5.85672 14.218 5.95672 13.351 6.45972 12.741L10.6737 7.64199C11.3457 6.82499 12.6547 6.82499 13.3257 7.64199L17.5387 12.74C18.0427 13.351 18.1437 14.218 17.7977 14.951C17.4927 15.598 16.8857 16 16.2127 16Z" fill="white"/>
</mask>
<g mask="url(#mask0)">
<g id="&#240;&#159;&#142;&#168; Color">
<rect id="Base" width="24" height="24" fill="#0D1C2E"/>
</g>
</g>
</g>
</svg>
