<svg fill="none" height="24" viewBox="0 0 24 24" width="24" xmlns="http://www.w3.org/2000/svg"><path clip-rule="evenodd" d="m11.9999 12.0001c-.227 0-.455-.077-.64-.232l-6.00001-5.00003c-.424-.354-.481-.984-.128-1.408.354-.425.983-.481 1.408-.128l5.37101 4.475 5.362-4.314c.43-.346 1.061-.278 1.406.152.347.43.278 1.059-.152 1.406l-6 4.82803c-.183.147-.405.221-.627.221zm.0111 4.7076 5.362-4.315c.43-.345 1.061-.277 1.406.152.346.431.278 1.06-.152 1.407l-6 4.828c-.183.147-.405.22-.627.22-.228 0-.455-.077-.64-.232l-6.00001-5c-.425-.353-.482-.983-.128-1.408.353-.424.983-.482 1.408-.128z" fill="#6b7280" fill-rule="evenodd"/></svg>