<svg fill="none" height="64" viewBox="0 0 64 64" width="64" xmlns="http://www.w3.org/2000/svg"><path clip-rule="evenodd" d="m47.9819 18.7968c0-1.464-1.184-2.656-2.6507-2.664l-21.3147-.1333h-.016c-1.4666 0-2.656 1.184-2.6666 2.6507-.0107 1.472 1.176 2.6746 2.6506 2.6826l14.8214.0934-22.024 22.0213c-1.0427 1.0427-1.0427 2.7307 0 3.7707.52.5226 1.2026.7813 1.8853.7813s1.3653-.2587 1.8853-.7813l22.1014-22.1014.0133 14.8854c0 1.472 1.1947 2.664 2.6667 2.664h.0026c1.472 0 2.664-1.1974 2.664-2.6694z" fill="#6b7280" fill-rule="evenodd"/></svg>