<svg fill="none" height="24" viewBox="0 0 24 24" width="24" xmlns="http://www.w3.org/2000/svg"><path clip-rule="evenodd" d="m12.7075 7.2934c-.091-.092-.201-.165-.322-.215-.121-.051-.25-.077-.38-.077-.002 0-.004-.001-.006-.001-.036 0-.066.016-.102.02-.092.01-.184.02-.271.055-.069.028-.125.075-.186.117-.043.03-.092.047-.131.084l-3 2.862c-.399.382-.414 1.014-.033 1.414.382.4 1.014.414 1.414.033l1.309-1.249v5.664c0 .552.448 1 1 1 .553 0 1-.448 1-1v-5.586l1.293 1.293c.196.195.452.293.707.293.256 0 .512-.098.708-.293.39-.391.39-1.024 0-1.414zm-.7075 12.7067c-4.41103 0-8.00003-3.589-8.00003-8 0-4.41104 3.589-8.00003 8.00003-8.00003 4.411 0 8 3.58899 8 8.00003 0 4.411-3.589 8-8 8zm0-18.0001c-5.514 0-10 4.486-10 10s4.486 10 10 10 10-4.486 10-10-4.486-10-10-10z" fill="#6b7280" fill-rule="evenodd"/></svg>