<svg fill="none" height="24" viewBox="0 0 24 24" width="24" xmlns="http://www.w3.org/2000/svg"><path clip-rule="evenodd" d="m14.3096 12.4142-1.31 1.25v-5.66404c0-.552-.447-1-1-1-.552 0-1 .448-1 1v5.58604l-1.293-1.293c-.39-.391-1.023-.391-1.414 0-.39.391-.39 1.023 0 1.414l3 2.999c.092.093.203.166.325.217s.252.077.382.077c.129 0 .257-.027.377-.076.061-.025.109-.068.162-.104.051-.033.107-.053.152-.096l3-2.863c.399-.381.414-1.014.033-1.414-.382-.4-1.014-.414-1.414-.033zm-2.3096 7.5859c-4.41103 0-8.00003-3.589-8.00003-8 0-4.41104 3.589-8.00003 8.00003-8.00003 4.411 0 8 3.58899 8 8.00003 0 4.411-3.589 8-8 8zm0-18.0001c-5.514 0-10 4.486-10 10s4.486 10 10 10 10-4.486 10-10-4.486-10-10-10z" fill="#6b7280" fill-rule="evenodd"/></svg>