<svg fill="none" height="24" viewBox="0 0 24 24" width="24" xmlns="http://www.w3.org/2000/svg"><path clip-rule="evenodd" d="m18.7682 13.36c-.354-.424-.984-.482-1.408-.128l-4.36 3.633v-11.865c0-.552-.448-1-1-1s-1 .448-1 1v11.865l-4.35996-3.633c-.425-.354-1.055-.296-1.40801.128-.354.424-.297 1.055.12801 1.408l5.99996 5c.047.04.103.059.155.089.041.024.077.052.122.07.117.046.239.073.363.073s.246-.027.363-.073c.045-.018.081-.046.122-.07.052-.03.108-.049.155-.089l6-5c.424-.353.482-.984.128-1.408" fill="#6b7280" fill-rule="evenodd"/></svg>