<svg fill="none" height="64" viewBox="0 0 64 64" width="64" xmlns="http://www.w3.org/2000/svg"><path clip-rule="evenodd" d="m50.6666 29.3335h-31.64l9.688-11.6267c.944-1.1306.7894-2.8133-.3413-3.7546-1.1333-.944-2.8133-.7894-3.7547.3413l-13.3333 16c-.104.1253-.1573.272-.2347.4107-.064.112-.1413.208-.1893.3306-.12.3067-.192.6294-.192.9547 0 .0027-.0027.008-.0027.0107 0 .0026.0027.008.0027.0106 0 .3254.072.648.192.9547.048.1227.1253.2187.1893.3307.0774.1386.1307.2853.2347.4106l13.3333 16c.528.632 1.2854.96 2.048.96.6027 0 1.208-.2026 1.7067-.6186 1.1307-.9414 1.2853-2.624.3413-3.7547l-9.688-11.6267h31.64c1.472 0 2.6667-1.1946 2.6667-2.6666s-1.1947-2.6667-2.6667-2.6667z" fill="#6b7280" fill-rule="evenodd"/></svg>