<svg fill="none" height="64" viewBox="0 0 64 64" width="64" xmlns="http://www.w3.org/2000/svg"><path clip-rule="evenodd" d="m47.2187 43.448-22.104-22.104 14.888-.0107c1.472 0 2.664-1.1973 2.664-2.6693s-1.1947-2.664-2.6667-2.664h-.0027l-21.2.016c-1.4666.0027-2.6533 1.1867-2.664 2.6507l-.1333 21.3173c-.0107 1.472 1.176 2.6747 2.6507 2.6827h.016c1.4666 0 2.656-1.184 2.6666-2.6507l.0934-14.8187 22.0213 22.0214c.52.52 1.2027.7813 1.8853.7813.6827 0 1.3654-.2613 1.8854-.7813 1.0426-1.0427 1.0426-2.728 0-3.7707z" fill="#6b7280" fill-rule="evenodd"/></svg>