<svg fill="none" height="24" viewBox="0 0 24 24" width="24" xmlns="http://www.w3.org/2000/svg"><path clip-rule="evenodd" d="m11.989 7.29242-5.36197 4.31498c-.43.346-1.059.278-1.406-.152-.346-.431-.278-1.06.152-1.407l5.99997-4.82798c.371-.298.901-.295 1.267.012l6 4.99998c.425.353.482.983.128 1.408-.198.237-.482.36-.768.36-.226 0-.453-.077-.64-.232zm-.6159 4.92848c.371-.299.901-.295 1.267.011l6 5c.424.354.481.984.128 1.408-.198.238-.482.36-.769.36-.225 0-.452-.076-.639-.232l-5.371-4.475-5.36197 4.314c-.43.347-1.059.279-1.406-.152-.347-.43-.278-1.059.152-1.406z" fill="#6b7280" fill-rule="evenodd"/></svg>