<svg fill="none" height="64" viewBox="0 0 64 64" width="64" xmlns="http://www.w3.org/2000/svg"><path clip-rule="evenodd" d="m33.8866 19.4492c-.2427-.2453-.536-.44-.8587-.5733-.3226-.136-.6667-.2053-1.0133-.2053-.0053 0-.0107-.0027-.016-.0027-.096 0-.176.0427-.272.0533-.2453.0267-.4907.0534-.7227.1467-.184.0747-.3333.2-.496.312-.1146.08-.2453.1253-.3493.224l-8 7.632c-1.064 1.0187-1.104 2.704-.088 3.7707 1.0187 1.0666 2.704 1.104 3.7707.088l3.4906-3.3307v15.104c0 1.472 1.1947 2.6667 2.6667 2.6667 1.4747 0 2.6667-1.1947 2.6667-2.6667v-14.896l3.448 3.448c.5226.52 1.2053.7813 1.8853.7813.6827 0 1.3653-.2613 1.888-.7813 1.04-1.0427 1.04-2.7307 0-3.7707zm-1.8868 33.8845c-11.7626 0-21.3333-9.5707-21.3333-21.3334 0-11.7626 9.5707-21.3333 21.3333-21.3333 11.7627 0 21.3334 9.5707 21.3334 21.3333 0 11.7627-9.5707 21.3334-21.3334 21.3334zm.0001-48.0002c-14.704 0-26.66665 11.9627-26.66665 26.6667s11.96265 26.6666 26.66665 26.6666 26.6667-11.9626 26.6667-26.6666-11.9627-26.6667-26.6667-26.6667z" fill="#6b7280" fill-rule="evenodd"/></svg>