<svg fill="none" height="24" viewBox="0 0 24 24" width="24" xmlns="http://www.w3.org/2000/svg"><path clip-rule="evenodd" d="m16 11h-5.664l1.25-1.31c.381-.399.366-1.032-.033-1.414-.4-.38-1.032-.366-1.414.034l-2.86298 3c-.038.04-.055.09-.086.135-.041.059-.087.113-.114.181-.037.091-.049.186-.057.283-.003.031-.019.059-.019.091 0 .002.001.003.001.005.001.13.026.259.077.381.05.121.124.23.215.322l2.99998 2.999c.195.195.451.293.707.293s.512-.098.707-.293c.391-.391.391-1.023 0-1.414l-1.293-1.293h5.586c.552 0 1-.448 1-1s-.448-1-1-1zm-4 9.0001c-4.41098 0-7.99998-3.589-7.99998-8 0-4.41104 3.589-8.00003 7.99998-8.00003 4.411 0 8 3.58899 8 8.00003 0 4.411-3.589 8-8 8zm0-18.0001c-5.514 0-10 4.486-10 10s4.486 10 10 10 10-4.486 10-10-4.486-10-10-10z" fill="#6b7280" fill-rule="evenodd"/></svg>