<svg fill="none" height="64" viewBox="0 0 64 64" width="64" xmlns="http://www.w3.org/2000/svg"><path clip-rule="evenodd" d="m50.0494 17.7073-11.936 14.3227 11.5067 14.2987c.9227 1.1466.7413 2.824-.4053 3.7493-.4934.3973-1.0854.5893-1.672.5893-.7787 0-1.552-.3413-2.08-.9946l-12.8747-16c-.7947-.9894-.784-2.4054.0293-3.3787l13.3334-16c.944-1.1333 2.624-1.2827 3.7573-.3413 1.1307.9413 1.2827 2.624.3413 3.7546zm-22.7638-3.4141c.9414-1.1307 2.6214-1.2827 3.7547-.3414 1.1307.944 1.2827 2.624.3413 3.7547l-11.936 14.3227 11.5067 14.2986c.9227 1.1467.7413 2.8267-.4053 3.7494-.4934.3973-1.0827.5893-1.672.5893-.7787 0-1.552-.3387-2.0774-.9947l-12.8746-16c-.7974-.9893-.784-2.4026.0293-3.3786z" fill="#6b7280" fill-rule="evenodd"/></svg>