<svg fill="none" height="64" viewBox="0 0 64 64" width="64" xmlns="http://www.w3.org/2000/svg"><path clip-rule="evenodd" d="m42.6667 29.3335h-15.104l3.3334-3.4933c1.016-1.064.976-2.752-.088-3.7707-1.0667-1.0133-2.752-.976-3.7707.0907l-7.6347 8c-.1013.1066-.1466.24-.2293.36-.1093.1573-.232.3013-.304.4826-.0987.2427-.1307.496-.152.7547-.008.0827-.0507.1573-.0507.2427 0 .0053.0027.008.0027.0133.0027.3467.0693.6907.2053 1.016.1334.3227.3307.6133.5734.8587l8 7.9973c.52.52 1.2026.7813 1.8853.7813s1.3653-.2613 1.8853-.7813c1.0427-1.0427 1.0427-2.728 0-3.7707l-3.448-3.448h14.896c1.472 0 2.6667-1.1946 2.6667-2.6666s-1.1947-2.6667-2.6667-2.6667zm-10.6666 24.0002c-11.7627 0-21.3333-9.5707-21.3333-21.3334 0-11.7626 9.5706-21.3333 21.3333-21.3333 11.7626 0 21.3333 9.5707 21.3333 21.3333 0 11.7627-9.5707 21.3334-21.3333 21.3334zm-.0001-48.0002c-14.704 0-26.66663 11.9627-26.66663 26.6667s11.96263 26.6666 26.66663 26.6666 26.6667-11.9626 26.6667-26.6666-11.9627-26.6667-26.6667-26.6667z" fill="#6b7280" fill-rule="evenodd"/></svg>