<svg fill="none" height="64" viewBox="0 0 64 64" width="64" xmlns="http://www.w3.org/2000/svg"><path clip-rule="evenodd" d="m50.0487 35.6265c-.944-1.1307-2.624-1.2853-3.7547-.3413l-11.6267 9.688v-31.64c0-1.472-1.1946-2.6667-2.6666-2.6667s-2.6667 1.1947-2.6667 2.6667v31.64l-11.6267-9.688c-1.1333-.944-2.8133-.7894-3.7546.3413-.944 1.1307-.792 2.8133.3413 3.7547l16 13.3333c.1253.1067.2747.1573.4133.2373.1094.064.2054.1387.3254.1867.312.1227.6373.1947.968.1947.3306 0 .656-.072.968-.1947.12-.048.216-.1227.3253-.1867.1387-.08.288-.1306.4133-.2373l16-13.3333c1.1307-.9414 1.2854-2.624.3414-3.7547z" fill="#6b7280" fill-rule="evenodd"/></svg>