<svg fill="none" height="24" viewBox="0 0 24 24" width="24" xmlns="http://www.w3.org/2000/svg"><path clip-rule="evenodd" d="m16.999 12.0054c0-.002.001-.003.001-.005 0-.033-.016-.06-.019-.092-.008-.096-.02-.192-.057-.282-.027-.068-.073-.122-.114-.182-.031-.044-.048-.095-.086-.135l-2.863-3c-.382-.4-1.014-.414-1.414-.033-.399.381-.414 1.014-.033 1.414l1.25 1.31h-5.66398c-.552 0-1 .447-1 1 0 .552.448 1 1 1h5.58598l-1.293 1.293c-.391.39-.391 1.023 0 1.414.195.195.451.293.707.293s.512-.098.707-.293l3-3c.091-.091.165-.201.215-.322.051-.121.076-.25.077-.38zm-4.999 7.9947c-4.41098 0-7.99998-3.589-7.99998-8 0-4.41104 3.589-8.00003 7.99998-8.00003 4.411 0 8 3.58899 8 8.00003 0 4.411-3.589 8-8 8zm0-18.0001c-5.514 0-10 4.486-10 10s4.486 10 10 10 10-4.486 10-10-4.486-10-10-10z" fill="#6b7280" fill-rule="evenodd"/></svg>