<svg width="64" height="64" viewBox="0 0 64 64" fill="none" xmlns="http://www.w3.org/2000/svg">
<path fill-rule="evenodd" clip-rule="evenodd" d="M39.9924 5.22031C42.6269 4.73447 44.7268 5.05205 46.2913 6.17441C47.8719 7.29688 48.9015 9.18266 49.3792 11.8297L50.6067 18.7906H55.8733C58.5407 18.7906 60.5586 19.4861 61.925 20.8766C63.3081 22.2504 64.0002 24.278 64.0002 26.9586V50.8326C64.0002 53.513 63.3081 55.5408 61.925 56.9146C60.5586 58.3048 58.5406 59.0006 55.8733 59.0006H22.1848C19.5014 59.0005 17.4761 58.3047 16.1096 56.9146C14.7431 55.5408 14.0598 53.5129 14.0598 50.8326V50.7086L13.6653 50.7828C11.0308 51.2354 8.92177 50.9072 7.34106 49.8014C5.77735 48.6789 4.756 46.7948 4.27856 44.148L0.203368 20.651C-0.257634 18.004 0.0642422 15.8842 1.16724 14.2926C2.28692 12.6843 4.16466 11.6368 6.79907 11.151L39.9924 5.22031ZM48.2415 41.5C47.5018 40.8182 46.3714 40.7918 45.6009 41.4385L33.8928 51.5006L28.3519 46.8008C27.599 46.1828 26.5102 46.1975 25.7737 46.835L18.925 53.0006C18.9253 53.5527 19.3729 54.0006 19.925 54.0006H56.8196C58.0982 54.0006 59.135 52.9637 59.135 51.6852L48.2415 41.5ZM22.4573 23.7164C21.305 23.7164 20.4239 24.0265 19.8147 24.6461C19.2221 25.2492 18.9251 26.1626 18.925 27.3853V48.1139L24.3098 43.2935C24.7707 42.9084 25.2317 42.6147 25.6926 42.4137C26.1534 42.2131 26.6226 42.113 27.0999 42.1129C27.6102 42.1129 28.1048 42.213 28.5823 42.4137C29.0762 42.5982 29.5539 42.9087 30.0149 43.3443L33.8928 46.9127L43.6233 38.1412C44.117 37.6891 44.628 37.3627 45.1545 37.1617C45.6977 36.9607 46.266 36.86 46.8586 36.86C47.4349 36.86 48.0037 36.9693 48.5637 37.1871C49.1231 37.4049 49.6341 37.7303 50.095 38.1656L59.135 46.8092V27.3853C59.135 26.1626 58.8221 25.2492 58.1965 24.6461C57.5874 24.0262 56.7133 23.7164 55.5774 23.7164H22.4573ZM43.2776 10.5728C42.5695 10.0872 41.6639 9.93552 40.5608 10.1197L7.93481 15.9762C6.79898 16.1772 5.97549 16.6378 5.46509 17.358C4.97116 18.0616 4.83118 19.0171 5.04517 20.2232L8.99634 42.8912C9.21036 44.097 9.66346 44.9433 10.3547 45.4293C11.0628 45.9149 11.9852 46.0577 13.1213 45.857L14.0598 45.6871V26.9586C14.0598 24.2612 14.743 22.225 16.1096 20.8512C17.4761 19.4776 19.5013 18.7907 22.1848 18.7906H45.6711L44.6858 13.0855C44.4719 11.8962 44.0019 11.0587 43.2776 10.5728Z M32.2629 28.0885C33.2178 28.0885 34.0829 28.3321 34.8567 28.818C35.6467 29.3037 36.2718 29.9496 36.7327 30.7535C37.1935 31.5575 37.425 32.4289 37.425 33.3668C37.4249 34.824 36.9136 36.081 35.8928 37.1363C34.8888 38.1747 33.6786 38.6948 32.2629 38.6949C30.8305 38.6949 29.6031 38.1749 28.5823 37.1363C27.5781 36.081 27.0765 34.824 27.0764 33.3668C27.0765 31.943 27.5782 30.711 28.5823 29.6725C29.6031 28.6171 30.8306 28.0885 32.2629 28.0885Z" fill="#141414"/>
</svg>
