<svg width="24" height="24" viewBox="0 0 24 24" fill="none" xmlns="http://www.w3.org/2000/svg">
<g id="Icon/Outline/award">
<path id="Mask" fill-rule="evenodd" clip-rule="evenodd" d="M12.3057 16.707C11.9947 16.536 11.6187 16.539 11.3157 16.72L7.5677 18.92L9.0357 13.21C9.9107 13.71 10.9217 14 11.9997 14C13.0777 14 14.0887 13.71 14.9647 13.21L16.4537 19.002L12.3057 16.707ZM11.9997 4C14.2057 4 15.9997 5.794 15.9997 8C15.9997 10.206 14.2057 12 11.9997 12C9.7937 12 7.9997 10.206 7.9997 8C7.9997 5.794 9.7937 4 11.9997 4ZM18.9687 20.751L16.6597 11.772C17.4957 10.74 17.9997 9.429 17.9997 8C17.9997 4.691 15.3087 2 11.9997 2C8.6917 2 5.9997 4.691 5.9997 8C5.9997 9.429 6.5037 10.74 7.3397 11.772L5.0317 20.751C4.9307 21.143 5.0757 21.556 5.3987 21.799C5.7207 22.042 6.1587 22.064 6.5057 21.862L11.8357 18.733L17.5157 21.875C17.6667 21.959 17.8337 22 17.9997 22C18.2167 22 18.4327 21.93 18.6127 21.791C18.9277 21.547 19.0687 21.138 18.9687 20.751Z" fill="#231F20"/>
<mask id="mask0" mask-type="alpha" maskUnits="userSpaceOnUse" x="5" y="2" width="15" height="20">
<path id="Mask_2" fill-rule="evenodd" clip-rule="evenodd" d="M12.3057 16.707C11.9947 16.536 11.6187 16.539 11.3157 16.72L7.5677 18.92L9.0357 13.21C9.9107 13.71 10.9217 14 11.9997 14C13.0777 14 14.0887 13.71 14.9647 13.21L16.4537 19.002L12.3057 16.707ZM11.9997 4C14.2057 4 15.9997 5.794 15.9997 8C15.9997 10.206 14.2057 12 11.9997 12C9.7937 12 7.9997 10.206 7.9997 8C7.9997 5.794 9.7937 4 11.9997 4ZM18.9687 20.751L16.6597 11.772C17.4957 10.74 17.9997 9.429 17.9997 8C17.9997 4.691 15.3087 2 11.9997 2C8.6917 2 5.9997 4.691 5.9997 8C5.9997 9.429 6.5037 10.74 7.3397 11.772L5.0317 20.751C4.9307 21.143 5.0757 21.556 5.3987 21.799C5.7207 22.042 6.1587 22.064 6.5057 21.862L11.8357 18.733L17.5157 21.875C17.6667 21.959 17.8337 22 17.9997 22C18.2167 22 18.4327 21.93 18.6127 21.791C18.9277 21.547 19.0687 21.138 18.9687 20.751Z" fill="white"/>
</mask>
<g mask="url(#mask0)">
<g id="&#240;&#159;&#142;&#168; Color">
<rect id="Base" width="24" height="24" fill="#0D1C2E"/>
</g>
</g>
</g>
</svg>
