<svg fill="none" height="24" viewBox="0 0 24 24" width="24" xmlns="http://www.w3.org/2000/svg"><path clip-rule="evenodd" d="m12.3058 16.707c-.311-.171-.687-.168-.99.013l-3.74804 2.2 1.468-5.71c.875.5 1.88604.79 2.96404.79s2.089-.29 2.965-.79l1.489 5.792zm-.3061-12.70693c2.206 0 4 1.79399 4 4 0 2.20603-1.794 4.00003-4 4.00003-2.20599 0-3.99999-1.794-3.99999-4.00003 0-2.20601 1.794-4 3.99999-4zm6.969 16.75093-2.309-8.979c.836-1.032 1.34-2.343 1.34-3.772 0-3.309-2.691-6-6-6-3.30798 0-5.99998 2.691-5.99998 6 0 1.429.504 2.74 1.34 3.772l-2.308 8.979c-.101.392.044.805.367 1.048.322.243.76.265 1.107.063l5.32998-3.129 5.68 3.142c.151.084.318.125.484.125.217 0 .433-.07.613-.209.315-.244.456-.653.356-1.04z" fill="#6b7280" fill-rule="evenodd"/></svg>