<svg fill="none" height="64" viewBox="0 0 64 64" width="64" xmlns="http://www.w3.org/2000/svg"><path clip-rule="evenodd" d="m32.8153 44.5522c-.8293-.456-1.8319-.448-2.6399.0347l-9.9947 5.8667 3.9147-15.2267c2.3333 1.3334 5.0293 2.1067 7.904 2.1067 2.8746 0 5.5706-.7733 7.9066-2.1067l3.9707 15.4453zm-.8161-33.8852c5.8827 0 10.6667 4.784 10.6667 10.6667 0 5.8826-4.784 10.6666-10.6667 10.6666-5.8826 0-10.6666-4.784-10.6666-10.6666 0-5.8827 4.784-10.6667 10.6666-10.6667zm18.584 44.6692-6.1573-23.944c2.2293-2.752 3.5733-6.248 3.5733-10.0587 0-8.824-7.176-16-16-16-8.8213 0-16 7.176-16 16 0 3.8107 1.344 7.3067 3.5734 10.0587l-6.1547 23.944c-.2693 1.0453.1173 2.1466.9787 2.7946.8586.648 2.0266.7067 2.952.168l14.2133-8.344 15.1467 8.3787c.4026.224.848.3333 1.2906.3333.5787 0 1.1547-.1866 1.6347-.5573.84-.6507 1.216-1.7413.9493-2.7733z" fill="#6b7280" fill-rule="evenodd"/></svg>