<svg fill="none" height="24" viewBox="0 0 24 24" width="24" xmlns="http://www.w3.org/2000/svg"><path clip-rule="evenodd" d="m11.293 14.7069c.195.195.451.293.707.293s.512-.098.707-.293l1.293-1.293 1.293 1.293c.195.195.451.293.707.293s.512-.098.707-.293c.391-.391.391-1.023 0-1.414l-1.293-1.293 1.293-1.293c.391-.391.391-1.02303 0-1.41403s-1.023-.391-1.414 0l-1.293 1.29303-1.293-1.29303c-.391-.391-1.023-.391-1.414 0s-.391 1.02303 0 1.41403l1.293 1.293-1.293 1.293c-.391.391-.391 1.023 0 1.414zm8.707 3.2932h-9.63c-.249 0-.488-.093-.673-.261l-5.328-4.845 5.377-6.67503c.177-.142.397-.219.624-.219h9.63zm.141-14.0001h-9.771c-.748 0-1.465.277-2.018.781-.039.034-.074.073-.106.113l-6.024 7.479c-.332.412-.286 1.011.105 1.367l6.025 5.479c.553.504 1.27.781 2.018.781h9.771c1.025 0 1.859-.815 1.859-1.818v-12.364c0-1.003-.834-1.818-1.859-1.818z" fill="#6b7280" fill-rule="evenodd"/></svg>