<svg width="24" height="24" viewBox="0 0 24 24" fill="none" xmlns="http://www.w3.org/2000/svg">
<g id="Icon/Outline/backspace">
<path id="Mask" fill-rule="evenodd" clip-rule="evenodd" d="M11.293 14.707C11.488 14.902 11.744 15 12 15C12.256 15 12.512 14.902 12.707 14.707L14 13.414L15.293 14.707C15.488 14.902 15.744 15 16 15C16.256 15 16.512 14.902 16.707 14.707C17.098 14.316 17.098 13.684 16.707 13.293L15.414 12L16.707 10.707C17.098 10.316 17.098 9.684 16.707 9.293C16.316 8.902 15.684 8.902 15.293 9.293L14 10.586L12.707 9.293C12.316 8.902 11.684 8.902 11.293 9.293C10.902 9.684 10.902 10.316 11.293 10.707L12.586 12L11.293 13.293C10.902 13.684 10.902 14.316 11.293 14.707ZM20 18H10.37C10.121 18 9.882 17.907 9.697 17.739L4.369 12.894L9.746 6.219C9.923 6.077 10.143 6 10.37 6H20V18ZM20.141 4H10.37C9.622 4 8.905 4.277 8.352 4.781C8.313 4.815 8.278 4.854 8.246 4.894L2.222 12.373C1.89 12.785 1.936 13.384 2.327 13.74L8.352 19.219C8.905 19.723 9.622 20 10.37 20H20.141C21.166 20 22 19.185 22 18.182V5.818C22 4.815 21.166 4 20.141 4Z" fill="#231F20"/>
<mask id="mask0" mask-type="alpha" maskUnits="userSpaceOnUse" x="2" y="4" width="20" height="16">
<path id="Mask_2" fill-rule="evenodd" clip-rule="evenodd" d="M11.293 14.707C11.488 14.902 11.744 15 12 15C12.256 15 12.512 14.902 12.707 14.707L14 13.414L15.293 14.707C15.488 14.902 15.744 15 16 15C16.256 15 16.512 14.902 16.707 14.707C17.098 14.316 17.098 13.684 16.707 13.293L15.414 12L16.707 10.707C17.098 10.316 17.098 9.684 16.707 9.293C16.316 8.902 15.684 8.902 15.293 9.293L14 10.586L12.707 9.293C12.316 8.902 11.684 8.902 11.293 9.293C10.902 9.684 10.902 10.316 11.293 10.707L12.586 12L11.293 13.293C10.902 13.684 10.902 14.316 11.293 14.707ZM20 18H10.37C10.121 18 9.882 17.907 9.697 17.739L4.369 12.894L9.746 6.219C9.923 6.077 10.143 6 10.37 6H20V18ZM20.141 4H10.37C9.622 4 8.905 4.277 8.352 4.781C8.313 4.815 8.278 4.854 8.246 4.894L2.222 12.373C1.89 12.785 1.936 13.384 2.327 13.74L8.352 19.219C8.905 19.723 9.622 20 10.37 20H20.141C21.166 20 22 19.185 22 18.182V5.818C22 4.815 21.166 4 20.141 4Z" fill="white"/>
</mask>
<g mask="url(#mask0)">
<g id="&#240;&#159;&#142;&#168; Color">
<rect id="Base" width="24" height="24" fill="#0D1C2E"/>
</g>
</g>
</g>
</svg>
