<svg viewBox="0 0 64 64" fill="none" xmlns="http://www.w3.org/2000/svg">
<path fill-rule="evenodd" clip-rule="evenodd" d="M14.1916 10.2345C13.1833 9.00035 11.3886 8.83659 10.183 9.86875C8.9774 10.9009 8.81743 12.7381 9.8257 13.9723L20.1932 26.6626C21.2015 27.8968 22.9962 28.0605 24.2018 27.0284C25.4074 25.9962 25.5674 24.159 24.5591 22.9248L14.1916 10.2345Z M46.1 15.2699C47.1111 14.0382 46.9553 12.2006 45.752 11.1655C44.5487 10.1305 42.7536 10.2901 41.7426 11.5218L27.6084 28.7417C26.5973 29.9735 26.7532 31.8111 27.9564 32.8461C29.1597 33.8811 30.9548 33.7216 31.9658 32.4898L46.1 15.2699Z M32.4594 31.1249C32.4594 29.516 31.1853 28.2117 29.6137 28.2117C28.042 28.2117 26.7679 29.516 26.7679 31.1249V53.0856C26.7679 54.6945 28.042 55.9988 29.6137 55.9988C31.1853 55.9988 32.4594 54.6945 32.4594 53.0856V31.1249Z M49.5336 40.0891C49.5336 38.4802 48.2596 37.176 46.6879 37.176C45.1162 37.176 43.8422 38.4802 43.8422 40.0891V53.0863C43.8422 54.6952 45.1162 55.9994 46.6879 55.9994C48.2596 55.9994 49.5336 54.6952 49.5336 53.0863V40.0891Z M53.474 29.7807C53.474 27.9243 52.0039 26.4194 50.1905 26.4194C48.377 26.4194 46.9069 27.9243 46.9069 29.7807C46.9069 31.6371 48.377 33.142 50.1905 33.142C52.0039 33.142 53.474 31.6371 53.474 29.7807Z" fill="#141414"/>
</svg>