<svg fill="none" height="64" viewBox="0 0 64 64" width="64" xmlns="http://www.w3.org/2000/svg"><path clip-rule="evenodd" d="m42.6666 41.5234c0 .6747-.3227 1.0827-.4587 1.144l-31.072.0027c-.1333-.048-.4693-.4587-.4693-1.1467v-19.048c0-.688.336-1.0987.4453-1.1413l31.0853-.0054c.1334.048.4694.4587.4694 1.1467zm-.4453-25.5227h-31.1093c-3.18669 0-5.77869 2.904-5.77869 6.4747v19.048c0 3.5707 2.592 6.4773 5.77869 6.4773h31.1093c3.1867 0 5.7787-2.9066 5.7787-6.4773v-19.048c0-3.5707-2.592-6.4747-5.7787-6.4747zm13.7787 7.9992c-1.472 0-2.6667 1.1947-2.6667 2.6667v10.6667c0 1.472 1.1947 2.6666 2.6667 2.6666s2.6666-1.1946 2.6666-2.6666v-10.6667c0-1.472-1.1946-2.6667-2.6666-2.6667zm-26.896 15.9982c.068-.046.2293-.3519.2293-.8577v-14.2806c0-.5158-.168-.8237-.2347-.8597l-15.5426.004c-.0547.032-.2227.3399-.2227.8557v14.2806c0 .5158.168.8237.2347.8597z" fill="#6b7280" fill-rule="evenodd"/></svg>