<svg width="24" height="24" viewBox="0 0 24 24" fill="none" xmlns="http://www.w3.org/2000/svg">
<g id="Icon/Outline/battery">
<path id="Mask" fill-rule="evenodd" clip-rule="evenodd" d="M15.828 16.0003C15.879 15.9773 16 15.8243 16 15.5713V8.42831C16 8.17031 15.874 8.01631 15.824 7.99831L4.167 8.00031C4.126 8.01631 4 8.17031 4 8.42831V15.5713C4 15.8293 4.126 15.9833 4.176 16.0013L15.828 16.0003ZM4.167 6.00031H15.833C17.028 6.00031 18 7.08931 18 8.42831V15.5713C18 16.9103 17.028 18.0003 15.833 18.0003H4.167C2.972 18.0003 2 16.9103 2 15.5713V8.42831C2 7.08931 2.972 6.00031 4.167 6.00031ZM20 10C20 9.44801 20.448 9.00001 21 9.00001C21.552 9.00001 22 9.44801 22 10V14C22 14.552 21.552 15 21 15C20.448 15 20 14.552 20 14V10Z" fill="#423F3D"/>
</g>
</svg>
