<svg fill="none" height="24" viewBox="0 0 24 24" width="24" xmlns="http://www.w3.org/2000/svg"><path clip-rule="evenodd" d="m16 15.5712c0 .253-.121.406-.172.429l-11.65203.001c-.05-.018-.176-.172-.176-.43v-7.14296c0-.258.126-.412.167-.428l11.65703-.002c.05.018.176.172.176.43zm-.167-9.57096h-11.666c-1.195 0-2.167 1.089-2.167 2.428v7.14296c0 1.339.972 2.429 2.167 2.429h11.666c1.195 0 2.167-1.09 2.167-2.429v-7.14296c0-1.339-.972-2.428-2.167-2.428zm5.167 2.9997c-.552 0-1 .448-1 1v3.99996c0 .552.448 1 1 1s1-.448 1-1v-3.99996c0-.552-.448-1-1-1zm-10.086 5.99936c.0255-.0173.086-.132.086-.3217v-5.35522c0-.19343-.063-.30889-.088-.32238l-5.8285.0015c-.0205.01199-.0835.12745-.0835.32088v5.35522c0 .1934.063.3089.088.3224z" fill="#6b7280" fill-rule="evenodd"/></svg>