<svg fill="none" height="24" viewBox="0 0 24 24" width="24" xmlns="http://www.w3.org/2000/svg"><path clip-rule="evenodd" d="m8.50403 19.8679c.156.09.327.132.495.132.347 0 .685-.181.869-.504l3.99997-7c.177-.309.176-.69-.003-.998s-.509-.498-.865-.498h-4.27697l3.14497-5.50402c.274-.479.108-1.09-.372-1.364-.478-.273-1.09-.107-1.364.372l-3.99997 7.00002c-.177.309-.176.69.003.998s.509.498.865.498h4.27697l-3.14497 5.504c-.274.479-.108 1.09.372 1.364zm4.22747-13.86798h3.102c1.195 0 2.167 1.08899 2.167 2.429v7.14198c0 1.34-.972 2.429-2.167 2.429h-3.958l1.142-2h2.81c.052-.023.173-.176.173-.429v-7.14198c0-.259-.126-.412-.176-.43h-4.235zm7.2685 4c0-.552.448-1 1-1s1 .448 1 1v3.99998c0 .552-.448 1-1 1s-1-.448-1-1zm-16 5.57118v-7.14305c0-.258.126-.412.167-.428l2.815-.001 1.143-1.999h-3.958c-1.195 0-2.167 1.089-2.167 2.428v7.14305c0 1.339.972 2.429 2.167 2.429h3.101l1.142-1.999h-4.234c-.05-.018-.176-.172-.176-.43z" fill="#6b7280" fill-rule="evenodd"/></svg>