<svg fill="none" height="64" viewBox="0 0 64 64" width="64" xmlns="http://www.w3.org/2000/svg"><path clip-rule="evenodd" d="m35.3334 25.8747h8v-1.3334h-8zm6.7679 6.909h-5.496v-.0266c0-1.648 1.0987-2.9227 2.768-2.9227 1.6534 0 2.728 1.2613 2.728 2.9227zm-2.7546-5.3249c-3.6107 0-6.08 2.232-6.08 6.0054v1.176c0 3.944 2.456 6.152 6.2213 6.152 3.6747 0 5.4587-2.0534 5.784-4.1147h-3.1573c-.2853 1.0453-1.2427 1.6747-2.6 1.6747-1.7333 0-2.9093-1.2374-2.9093-3.1894v-.352h8.7946v-1.264c0-3.7013-2.3146-6.088-6.0533-6.088zm-14.7627 10.507h-2.5574v-5.1547h3.272c2.0187 0 3.12 1.0027 3.12 2.64 0 1.6507-1.112 2.5147-3.8346 2.5147zm-2.5574-12.179h3.0534c1.6133 0 2.5573.864 2.5573 2.272 0 1.512-1.0213 2.3627-3.336 2.3627h-2.2747zm6.0214 5.6374v-.1494c1.7253-.4213 2.992-1.6906 2.992-3.7973 0-2.6533-2.0454-4.2693-5.1654-4.2693h-7.2746v17.3333h7.2613c3.5413 0 6.072-1.7893 6.072-4.888 0-2.6-1.7893-4.0267-3.8853-4.2293zm3.9521 21.9095c-11.7627 0-21.3333-9.5707-21.3333-21.3334 0-11.7626 9.5706-21.3333 21.3333-21.3333 11.7626 0 21.3333 9.5707 21.3333 21.3333 0 11.7627-9.5707 21.3334-21.3333 21.3334zm-.0001-48.0002c-14.704 0-26.66663 11.9627-26.66663 26.6667s11.96263 26.6666 26.66663 26.6666 26.6667-11.9626 26.6667-26.6666-11.9627-26.6667-26.6667-26.6667z" fill="#6b7280" fill-rule="evenodd"/></svg>