<svg fill="none" height="24" viewBox="0 0 24 24" width="24" xmlns="http://www.w3.org/2000/svg"><path clip-rule="evenodd" d="m13.25 9.70294h3v-.5h-3zm2.538 2.59086h-2.061v-.01c0-.618.412-1.096 1.038-1.096.62 0 1.023.473 1.023 1.096zm-1.033-1.9968c-1.354 0-2.28.837-2.28 2.252v.441c0 1.479.921 2.307 2.333 2.307 1.378 0 2.047-.77 2.169-1.543h-1.184c-.107.392-.466.628-.975.628-.65 0-1.091-.464-1.091-1.196v-.132h3.298v-.474c0-1.388-.868-2.283-2.27-2.283zm-5.53602 3.9401h-.959v-1.933h1.227c.75702 0 1.17002.376 1.17002.99 0 .619-.417.943-1.43802.943zm-.959-4.5671h1.145c.60502 0 .95902.324.95902.852 0 .567-.38302.886-1.25102.886h-.853zm2.25802 2.114v-.056c.647-.158 1.122-.634 1.122-1.424 0-.995-.767-1.601-1.93703-1.601h-2.728v6.5h2.723c1.32803 0 2.27703-.671 2.27703-1.833 0-.975-.671-1.51-1.457-1.586zm1.482 8.2161c-4.41098 0-7.99998-3.589-7.99998-8 0-4.41104 3.589-8.00003 7.99998-8.00003 4.411 0 8 3.58899 8 8.00003 0 4.411-3.589 8-8 8zm0-18.0001c-5.514 0-10 4.486-10 10s4.486 10 10 10 10-4.486 10-10-4.486-10-10-10z" fill="#6b7280" fill-rule="evenodd"/></svg>