<svg fill="none" height="24" viewBox="0 0 24 24" width="24" xmlns="http://www.w3.org/2000/svg"><path clip-rule="evenodd" d="m8.90037 5.17108c1.038-.91 2.36103-1.31 3.73703-1.129 2.327.309 4.082 2.413 4.082 4.895v4.46702c0 .202.039.396.096.583l3.605 3.604c.189-.163.352-.358.453-.6.255-.613.116-1.314-.353-1.783l-1.801-1.804v-4.46702c0-3.481-2.502-6.438-5.82-6.877-1.924-.256-3.86003.331-5.31603 1.607-.195.17-.376.351-.548.54l1.432 1.433c.03114-.0356.06184-.07154.09254-.10747v-.00001c.10728-.12559.2145-.25111.34046-.36152zm3.09963 14.82922c-1.084 0-2-.76-2-1.659v-.341h4v.341c0 .899-.916 1.659-2 1.659zm2.029-3.143-.857-.857h-7.65703l1.179-1.182c.378-.378.586-.88.586-1.414v-3.296l-1.968-1.96799c-.017.195-.032.39-.032.587l-.001 4.67699-1.8 1.804c-.469.47-.608 1.169-.354 1.782.255.614.848 1.01 1.512 1.01h3.363v.341c0 2.018 1.794 3.659 4.00003 3.659 2.042 0 3.712-1.411 3.951-3.22l-.779-.78zm5.378 1.1358 1.3 1.3c.391.391.391 1.023 0 1.414-.195.195-.451.293-.707.293s-.512-.098-.707-.293l-2.707-2.707-.586-.586-1.345-1.345-.069-.069-7.30303-7.30302-1.752-1.751-2.238-2.239c-.391-.391-.391-1.023 0-1.414s1.023-.391 1.414 0l1.713 1.713 1.466 1.465 9.52803 9.52902z" fill="#6b7280" fill-rule="evenodd"/></svg>