<svg fill="none" height="64" viewBox="0 0 64 64" width="64" xmlns="http://www.w3.org/2000/svg"><path clip-rule="evenodd" d="m14.7056 42.667 3.1466-3.152c1.008-1.008 1.5627-2.3467 1.5627-3.7707v-12.472c0-3.6187 1.5733-7.0773 4.32-9.4827 2.768-2.4266 6.2933-3.4933 9.9653-3.0106 6.2053.824 10.8853 6.4346 10.8853 13.0533v11.912c0 1.424.5547 2.7627 1.56 3.768l3.1494 3.1547zm22.6267 6.2424c0 2.3973-2.4427 4.424-5.3333 4.424-2.8907 0-5.3334-2.0267-5.3334-4.424v-.9094h10.6667zm17.3892-8.3544-4.8026-4.8107v-11.912c0-9.2827-6.672-17.16801-15.52-18.33868-5.1254-.68267-10.2987.88267-14.1787 4.28533-3.904 3.41865-6.1387 8.33605-6.1387 13.49335l-.0026 12.472-4.8027 4.8107c-1.25067 1.2533-1.62134 3.1173-.944 4.7519.68 1.6374 2.2613 2.6934 4.032 2.6934h8.968v.9093c0 5.3813 4.784 9.7574 10.6667 9.7574 5.8826 0 10.6666-4.3761 10.6666-9.7574v-.9093h8.968c1.7707 0 3.3494-1.056 4.0267-2.6907.68-1.6373.312-3.504-.9387-4.7546z" fill="#6b7280" fill-rule="evenodd"/></svg>