<svg fill="none" height="64" viewBox="0 0 64 64" width="64" xmlns="http://www.w3.org/2000/svg"><path clip-rule="evenodd" d="m23.7344 13.7894c2.768-2.4267 6.296-3.4934 9.9653-3.0107 6.2053.824 10.8853 6.4347 10.8853 13.0533v11.912c0 .5387.104 1.056.256 1.5547l9.6134 9.6107c.504-.4347.9386-.9547 1.208-1.6.68-1.6347.3093-3.504-.9414-4.7547l-4.8026-4.8107v-11.912c0-9.2826-6.672-17.16796-15.52-18.33862-5.1307-.68267-10.2934.88266-14.176 4.28533-.52.45329-1.0027.93599-1.4614 1.43999l3.8187 3.8213c.0831-.0949.1649-.1907.2468-.2865.2861-.335.572-.6697.9079-.9641zm8.2657 39.5445c-2.8907 0-5.3333-2.0267-5.3333-4.424v-.9093h10.6666v.9093c0 2.3973-2.4426 4.424-5.3333 4.424zm5.4105-8.3812-2.2853-2.2854h-20.4187l3.144-3.152c1.008-1.008 1.5627-2.3466 1.5627-3.7706v-8.7894l-5.248-5.248c-.0453.52-.0853 1.04-.0853 1.5654l-.0027 12.472-4.79999 4.8106c-1.25066 1.2534-1.62133 3.1174-.944 4.752.68 1.6374 2.26129 2.6934 4.03199 2.6934h8.968v.9093c0 5.3813 4.784 9.7573 10.6667 9.7573 5.4453 0 9.8986-3.7626 10.536-8.5866l-2.0774-2.08zm14.3412 3.0287 3.4667 3.4666c1.0427 1.0427 1.0427 2.728 0 3.7707-.52.52-1.2027.7813-1.8853.7813-.6827 0-1.3654-.2613-1.8854-.7813l-7.2186-7.2187-1.5627-1.5626-3.5867-3.5867-.184-.184-19.4746-19.4747-4.672-4.6693-5.96803-5.9707c-1.04267-1.0426-1.04267-2.72795 0-3.77062 1.04267-1.04266 2.72803-1.04266 3.77063 0l4.568 4.56802 3.9094 3.9066 25.408 25.4107z" fill="#6b7280" fill-rule="evenodd"/></svg>