<svg width="24" height="24" viewBox="0 0 24 24" fill="none" xmlns="http://www.w3.org/2000/svg">
<g id="Icon/Outline/bell-off">
<path id="Mask" fill-rule="evenodd" clip-rule="evenodd" d="M8.9004 5.17089C9.9384 4.26089 11.2614 3.86089 12.6374 4.04189C14.9644 4.35089 16.7194 6.45489 16.7194 8.93689V13.4039C16.7194 13.6059 16.7584 13.7999 16.8154 13.9869L20.4204 17.5909C20.6094 17.4279 20.7724 17.2329 20.8734 16.9909C21.1284 16.3779 20.9894 15.6769 20.5204 15.2079L18.7194 13.4039V8.93689C18.7194 5.45589 16.2174 2.49889 12.8994 2.05989C10.9754 1.80389 9.0394 2.39089 7.5834 3.66689C7.3884 3.83689 7.2074 4.01789 7.0354 4.20689L8.4674 5.63989C8.49854 5.6043 8.52924 5.56836 8.55994 5.53243L8.55994 5.53242C8.66722 5.40683 8.77444 5.2813 8.9004 5.17089ZM12 20C10.916 20 10 19.24 10 18.341V18H14V18.341C14 19.24 13.084 20 12 20ZM14.029 16.857L13.172 16H5.515L6.694 14.818C7.072 14.44 7.28 13.938 7.28 13.404V10.108L5.312 8.13999C5.295 8.33499 5.28 8.52999 5.28 8.72699L5.279 13.404L3.479 15.208C3.01 15.678 2.871 16.377 3.125 16.99C3.38 17.604 3.973 18 4.637 18H8V18.341C8 20.359 9.794 22 12 22C14.042 22 15.712 20.589 15.951 18.78L15.172 18L14.029 16.857ZM19.407 17.993L20.707 19.293C21.098 19.684 21.098 20.316 20.707 20.707C20.512 20.902 20.256 21 20 21C19.744 21 19.488 20.902 19.293 20.707L16.586 18L16 17.414L14.655 16.069L14.586 16L7.283 8.69699L5.531 6.94599L3.293 4.70699C2.902 4.31599 2.902 3.68399 3.293 3.29299C3.684 2.90199 4.316 2.90199 4.707 3.29299L6.42 5.00599L7.886 6.47099L17.414 16L19.407 17.993Z" fill="#231F20"/>
<mask id="mask0" mask-type="alpha" maskUnits="userSpaceOnUse" x="2" y="2" width="20" height="20">
<path id="Mask_2" fill-rule="evenodd" clip-rule="evenodd" d="M8.9004 5.17089C9.9384 4.26089 11.2614 3.86089 12.6374 4.04189C14.9644 4.35089 16.7194 6.45489 16.7194 8.93689V13.4039C16.7194 13.6059 16.7584 13.7999 16.8154 13.9869L20.4204 17.5909C20.6094 17.4279 20.7724 17.2329 20.8734 16.9909C21.1284 16.3779 20.9894 15.6769 20.5204 15.2079L18.7194 13.4039V8.93689C18.7194 5.45589 16.2174 2.49889 12.8994 2.05989C10.9754 1.80389 9.0394 2.39089 7.5834 3.66689C7.3884 3.83689 7.2074 4.01789 7.0354 4.20689L8.4674 5.63989C8.49854 5.6043 8.52924 5.56836 8.55994 5.53243L8.55994 5.53242C8.66722 5.40683 8.77444 5.2813 8.9004 5.17089ZM12 20C10.916 20 10 19.24 10 18.341V18H14V18.341C14 19.24 13.084 20 12 20ZM14.029 16.857L13.172 16H5.515L6.694 14.818C7.072 14.44 7.28 13.938 7.28 13.404V10.108L5.312 8.13999C5.295 8.33499 5.28 8.52999 5.28 8.72699L5.279 13.404L3.479 15.208C3.01 15.678 2.871 16.377 3.125 16.99C3.38 17.604 3.973 18 4.637 18H8V18.341C8 20.359 9.794 22 12 22C14.042 22 15.712 20.589 15.951 18.78L15.172 18L14.029 16.857ZM19.407 17.993L20.707 19.293C21.098 19.684 21.098 20.316 20.707 20.707C20.512 20.902 20.256 21 20 21C19.744 21 19.488 20.902 19.293 20.707L16.586 18L16 17.414L14.655 16.069L14.586 16L7.283 8.69699L5.531 6.94599L3.293 4.70699C2.902 4.31599 2.902 3.68399 3.293 3.29299C3.684 2.90199 4.316 2.90199 4.707 3.29299L6.42 5.00599L7.886 6.47099L17.414 16L19.407 17.993Z" fill="white"/>
</mask>
<g mask="url(#mask0)">
<g id="&#240;&#159;&#142;&#168; Color">
<rect id="Base" width="24" height="24" fill="#0D1C2E"/>
</g>
</g>
</g>
</svg>
