<svg fill="none" height="24" viewBox="0 0 24 24" width="24" xmlns="http://www.w3.org/2000/svg"><path clip-rule="evenodd" d="m5.51461 16.0001 1.18-1.182c.378-.378.586-.88.586-1.414v-4.67702c0-1.357.59-2.654 1.62-3.556 1.038-.91 2.35999-1.31 3.73699-1.129 2.327.309 4.082 2.413 4.082 4.895v4.46702c0 .534.208 1.036.585 1.413l1.181 1.183zm8.48499 2.3409c0 .899-.916 1.659-2 1.659s-1.99996-.76-1.99996-1.659v-.341h3.99996zm6.521-3.1329-1.801-1.804v-4.46702c0-3.481-2.502-6.438-5.82-6.877-1.922-.256-3.862.331-5.317 1.607-1.464 1.282-2.302 3.126-2.302 5.06l-.001 4.67702-1.801 1.804c-.469.47-.608 1.169-.354 1.782.255.614.848 1.01 1.512 1.01h3.363v.341c0 2.018 1.794 3.659 4 3.659s4-1.641 4-3.659v-.341h3.363c.664 0 1.256-.396 1.51-1.009.255-.614.117-1.314-.352-1.783z" fill="#6b7280" fill-rule="evenodd"/></svg>