<svg viewBox="0 0 64 64" fill="none" xmlns="http://www.w3.org/2000/svg">
<path fill-rule="evenodd" clip-rule="evenodd" d="M31.1999 4.53394C16.4723 4.53394 4.5332 16.473 4.5332 31.2006C4.5332 45.9282 16.4723 57.8673 31.1999 57.8673C45.9275 57.8673 57.8665 45.9282 57.8665 31.2006C57.8504 16.4797 45.9208 4.5501 31.1999 4.53394ZM31.1999 52.5339C19.4178 52.5339 9.86654 42.9827 9.86654 31.2006C9.86654 19.4185 19.4178 9.86727 31.1999 9.86727C42.9819 9.86727 52.5332 19.4185 52.5332 31.2006C52.52 42.9772 42.9765 52.5207 31.1999 52.5339Z M33.8665 20.6699V20.5339C33.8665 19.0612 32.6726 17.8673 31.1999 17.8673C29.7271 17.8673 28.5332 19.0612 28.5332 20.5339H23.1999V41.8673H28.5332C28.5332 43.34 29.7271 44.5339 31.1999 44.5339C32.6726 44.5339 33.8665 43.34 33.8665 41.8673V41.7339C36.971 41.1002 39.2005 38.3691 39.1999 35.2006C39.1952 33.7533 38.7145 32.3477 37.8319 31.2006C38.7148 30.0537 39.1956 28.648 39.1999 27.2006C39.1992 24.0331 36.97 21.3034 33.8665 20.6699ZM33.8665 27.2006C33.8665 27.937 33.2696 28.5339 32.5332 28.5339H28.5332V25.8673H32.5332C33.2696 25.8673 33.8665 26.4642 33.8665 27.2006ZM32.5332 36.5339H28.5332V33.8673H32.5332C33.2696 33.8673 33.8665 34.4642 33.8665 35.2006C33.8665 35.937 33.2696 36.5339 32.5332 36.5339Z" fill="#141414"/>
</svg>