<svg width="24" height="24" viewBox="0 0 24 24" fill="none" xmlns="http://www.w3.org/2000/svg">
<g id="Icon/Outline/book-open">
<path id="Mask" fill-rule="evenodd" clip-rule="evenodd" d="M19 16.4023L13 17.7503V7.5973L19 6.2503V16.4023ZM5 6.2503L11 7.5973V17.7503L5 16.4023V6.2503ZM20.625 4.2183C20.387 4.0293 20.077 3.9573 19.78 4.0243L12 5.7723L4.22 4.0243C3.922 3.9563 3.613 4.0293 3.375 4.2183C3.138 4.4093 3 4.6963 3 5.0003V17.2023C3 17.6703 3.324 18.0753 3.78 18.1773L11.78 19.9753C11.854 19.9923 11.927 20.0003 12 20.0003C12.073 20.0003 12.146 19.9923 12.22 19.9753L20.22 18.1773C20.676 18.0753 21 17.6703 21 17.2023V5.0003C21 4.6963 20.862 4.4093 20.625 4.2183Z" fill="#423F3D"/>
</g>
</svg>
