<svg fill="none" height="64" viewBox="0 0 64 64" width="64" xmlns="http://www.w3.org/2000/svg"><path clip-rule="evenodd" d="m31.5236 41.3493c.4507 0 .904.1146 1.312.344l12.4987 7.0693v-34.5387c0-.536-.3227-.8906-.5334-.8906h-25.6c-.2133 0-.5333.3546-.5333.8906v34.4l11.4827-6.8933c.424-.2533.8986-.3813 1.3733-.3813zm-15.5227 14.6504c-.4533 0-.9067-.1146-1.3147-.3466-.8346-.472-1.352-1.36-1.352-2.32v-39.1093c0-3.432 2.632-6.22404 5.8667-6.22404h25.6c3.2347 0 5.8667 2.79204 5.8667 6.22404v39.1093c0 .9493-.504 1.8266-1.3227 2.304-.8213.48-1.8293.488-2.656.0187l-15.1253-8.5547-14.192 8.52c-.4214.2506-.896.3786-1.3707.3786z" fill="#6b7280" fill-rule="evenodd"/></svg>