<svg fill="none" height="24" viewBox="0 0 24 24" width="24" xmlns="http://www.w3.org/2000/svg"><path clip-rule="evenodd" d="m11.8213 15.5061c.169 0 .339.043.492.129l4.687 2.651v-12.95203c0-.201-.121-.334-.2-.334h-9.59998c-.08 0-.2.133-.2.334v12.90003l4.30598-2.585c.159-.095.337-.143.515-.143zm-5.82099 5.4939c-.17 0-.34-.043-.493-.13-.313-.177-.507-.51-.507-.87v-14.666c0-1.287.987-2.334 2.19999-2.334h9.6c1.213 0 2.2 1.047 2.2 2.334v14.666c0 .356-.189.685-.496.864-.308.18-.686.183-.996.007l-5.672-3.208-5.322 3.195c-.15799.094-.33599.142-.51399.142z" fill="#6b7280" fill-rule="evenodd"/></svg>