<svg fill="none" height="24" viewBox="0 0 24 24" width="24" xmlns="http://www.w3.org/2000/svg"><path clip-rule="evenodd" d="m19 16.4025-6 1.348v-10.153l6-1.347zm-13.99998-10.152 5.99998 1.347v10.153l-5.99998-1.348zm15.62498-2.03203c-.238-.189-.548-.261-.845-.194l-7.78 1.748-7.78-1.748c-.298-.068-.607.005-.845.194-.237.191-.375.478-.375.782v12.20203c0 .468.324.873.78.975l8 1.798c.074.017.147.025.22.025s.146-.008.22-.025l8-1.798c.456-.102.78-.507.78-.975v-12.20203c0-.304-.138-.591-.375-.782z" fill="#6b7280" fill-rule="evenodd"/></svg>