<svg fill="none" height="64" viewBox="0 0 64 64" width="64" xmlns="http://www.w3.org/2000/svg"><path clip-rule="evenodd" d="m50.6666 43.7397-16 3.5946v-27.0746l16-3.592zm-37.3332-27.072 16 3.592v27.0746l-16-3.5946zm41.6666-5.4188c-.6347-.504-1.4613-.696-2.2533-.5173l-20.7467 4.6613-20.7467-4.6613c-.7946-.1813-1.61863.0133-2.2533.5173-.632.5094-1 1.2747-1 2.0854v32.5386c0 1.248.864 2.328 2.08 2.6l21.3333 4.7947c.1974.0453.392.0667.5867.0667s.3893-.0214.5867-.0667l21.3333-4.7947c1.216-.272 2.08-1.352 2.08-2.6v-32.5386c0-.8107-.368-1.576-1-2.0854z" fill="#6b7280" fill-rule="evenodd"/></svg>