<svg fill="none" height="64" viewBox="0 0 64 64" width="64" xmlns="http://www.w3.org/2000/svg"><path clip-rule="evenodd" d="m53.3333 48c0 1.4693-1.1974 2.6667-2.6667 2.6667h-5.3333v-26.6667h5.3333c1.4693 0 2.6667 1.1973 2.6667 2.6667zm-42.6668 0v-21.3333c0-1.4694 1.1973-2.6667 2.6667-2.6667h5.3333v26.6667h-5.3333c-1.4694 0-2.6667-1.1974-2.6667-2.6667zm16-33.3332c0-.736.5973-1.3333 1.3333-1.3333h8c.736 0 1.3334.5973 1.3334 1.3333v4h-10.6667zm-2.6665 35.9999h16v-26.6667h-16zm26.6666-32h-8v-4c0-3.6747-2.992-6.6667-6.6667-6.6667h-8c-3.6746 0-6.6666 2.992-6.6666 6.6667v4h-8c-4.41071 0-8.00005 3.5893-8.00005 8v21.3333c0 4.4107 3.58934 8 8.00005 8h37.3333c4.4106 0 8-3.5893 8-8v-21.3333c0-4.4107-3.5894-8-8-8z" fill="#6b7280" fill-rule="evenodd"/></svg>