<svg fill="none" height="24" viewBox="0 0 24 24" width="24" xmlns="http://www.w3.org/2000/svg"><path clip-rule="evenodd" d="m20 18c0 .551-.449 1-1 1h-2v-10h2c.551 0 1 .449 1 1zm-16.00003 0v-8c0-.551.449-1 1-1h2v10h-2c-.551 0-1-.449-1-1zm6-12.49993c0-.276.22403-.5.50003-.5h3c.276 0 .5.224.5.5v1.49999h-4.00003zm-.99994 13.49993h5.99997v-10h-5.99997zm9.99997-12h-3v-1.5c0-1.378-1.122-2.5-2.5-2.5h-3c-1.378 0-2.5 1.122-2.5 2.5v1.5h-3c-1.654 0-3 1.346-3 3v8c0 1.654 1.346 3 3 3h14c1.654 0 3-1.346 3-3v-8c0-1.654-1.346-3-3-3z" fill="#6b7280" fill-rule="evenodd"/></svg>