<svg fill="none" height="64" viewBox="0 0 64 64" width="64" xmlns="http://www.w3.org/2000/svg"><path clip-rule="evenodd" d="m18.6666 18.6667c0-1.4747 1.1947-2.6667 2.6667-2.6667s2.6667 1.192 2.6667 2.6667c0 1.4746-1.1947 2.6666-2.6667 2.6666s-2.6667-1.192-2.6667-2.6666zm10.6667 0c0-1.4747 1.1946-2.6667 2.6666-2.6667s2.6667 1.192 2.6667 2.6667c0 1.4746-1.1947 2.6666-2.6667 2.6666s-2.6666-1.192-2.6666-2.6666zm-15.9999 5.3335v-8c0-1.472 1.1973-2.6667 2.6666-2.6667h32c1.4694 0 2.6667 1.1947 2.6667 2.6667v8zm37.3333 24c0 1.472-1.1973 2.6666-2.6667 2.6666h-32c-1.4693 0-2.6666-1.1946-2.6666-2.6666v-18.6667h37.3333zm-2.6667-40.0002h-32c-4.4107 0-8 3.5893-8 8v8 5.3333 18.6667c0 4.4107 3.5893 8 8 8h32c4.4107 0 8-3.5893 8-8v-18.6667-5.3333-8c0-4.4107-3.5893-8-8-8z" fill="#6b7280" fill-rule="evenodd"/></svg>