<svg fill="none" height="24" viewBox="0 0 24 24" width="24" xmlns="http://www.w3.org/2000/svg"><path clip-rule="evenodd" d="m6.99998 7c0-.553.448-1 1-1s1 .447 1 1-.448 1-1 1-1-.447-1-1zm4.00002 0c0-.553.448-1 1-1s1 .447 1 1-.448 1-1 1-1-.447-1-1zm-5.99998 2.00007v-3c0-.552.449-1 1-1h11.99998c.551 0 1 .448 1 1v3zm13.99998 9.00003c0 .552-.449 1-1 1h-11.99998c-.551 0-1-.448-1-1v-7h13.99998zm-1-15.0001h-12c-1.654 0-3 1.346-3 3v3 2 7c0 1.654 1.346 3 3 3h12c1.654 0 3-1.346 3-3v-7-2-3c0-1.654-1.346-3-3-3z" fill="#6b7280" fill-rule="evenodd"/></svg>