<svg fill="none" height="64" viewBox="0 0 64 64" width="64" xmlns="http://www.w3.org/2000/svg"><path d="m49.0177 12.8c-.2878 0-.5725.0567-.8382.1669-.2656.1102-.5071.2718-.7103.4754l-8.6832 8.6964c-.6518.6528-1.5363 1.0198-2.4581 1.0198-.9219 0-1.8059-.3667-2.4579-1.0195l-2.0398-2.0428c-.5269-.5277-1.2417-.8243-1.987-.8243-.7452 0-1.46.2965-1.9872.8242l-1.1087 1.1105 16.0685 16.0911 1.1088-1.1104c.5269-.5278.8229-1.2437.8229-1.9901s-.296-1.4623-.8229-1.9903l-2.0395-2.0426c-.6518-.6528-1.0182-1.5386-1.0182-2.4619s.3662-1.8088 1.018-2.4617l8.681-8.6964c.2032-.2037.3647-.4457.475-.7118.11-.2661.1665-.5513.1665-.8393s-.0565-.5732-.1665-.8393c-.1103-.2661-.2715-.5079-.4747-.7116-.2035-.2036-.4448-.3652-.7105-.4754-.2658-.1102-.5505-.1669-.838-.1669zm-2.6721-4.26768c.8471-.35143 1.755-.53232 2.6721-.53232.9168 0 1.8248.18089 2.6718.53232.8474.35145 1.6171.86656 2.2655 1.51598.6482.6493 1.1627 1.4203 1.5135 2.2687.3508.8485.5315 1.7578.5315 2.6762s-.1807 1.8277-.5315 2.6762c-.3508.8483-.8651 1.6192-1.5133 2.2685l-7.7505 7.7645 1.1087 1.1105c1.4258 1.4279 2.2267 3.365 2.2267 5.3843s-.8009 3.9559-2.2264 5.3839l-2.0398 2.0428c-.6518.6528-1.5362 1.0198-2.4581 1.0198-.3048 0-.6055-.0401-.8952-.1174-.1148.2304-.2341.4565-.3561.6773-.5351.9694-1.1934 1.9665-1.9242 2.9529-.0358.0521-.0731.1023-.1124.151-.3643.486-.7453.9691-1.1376 1.4445-2.4408 2.9599-5.5071 5.8656-8.0184 7.5888-.0832.0571-.1697.1087-.2593.1548-.8792.4524-1.8814.6062-2.8554.4382-.9739-.168-1.867-.6485-2.5445-1.3692-.0362-.0384-.0711-.078-.1046-.1188l-15.82341-19.2315c-.38331-.4713-.63734-1.0344-.73715-1.6339-.0998-.5995-.04186-1.2146.1681-1.7849.20994-.5704.56467-1.0759 1.02919-1.4671.46291-.3897 1.01897-.6523 1.61357-.7622 2.7412-.5129 5.0339-1.1282 7.0696-2.2229 1.5642-.8412 3.0424-2.0021 4.4479-3.7277-.6193-.6475-.9664-1.5105-.9664-2.409 0-.9233.3662-1.8087 1.0179-2.4617l2.0398-2.0429c1.4258-1.4278 3.3596-2.23 5.376-2.23 2.0163 0 3.9499.8021 5.3756 2.2299l1.1091 1.1106 7.7522-7.7642c.6484-.64942 1.4181-1.16453 2.2655-1.51598z" fill="#000"/></svg>