<svg width="24" height="24" viewBox="0 0 24 24" fill="none" xmlns="http://www.w3.org/2000/svg">
<g id="Icon/Outline/brush">
<path id="Mask" fill-rule="evenodd" clip-rule="evenodd" d="M17.7656 7.39259L11.8986 13.2576C11.7476 13.0316 11.5746 12.8176 11.3776 12.6216C11.1806 12.4246 10.9666 12.2526 10.7406 12.1046L16.6096 6.23759C16.9156 5.93059 17.4576 5.92959 17.7666 6.23859C17.9196 6.39159 18.0026 6.59159 17.9996 6.82759C18.0026 7.03859 17.9186 7.23859 17.7656 7.39259ZM8.24559 17.9406L6.01759 17.9816L6.05659 15.7506C6.07759 14.4846 7.12659 13.4346 8.39559 13.4126C8.40959 13.4126 8.42159 13.4116 8.43559 13.4116C9.01959 13.4116 9.56059 13.6316 9.96359 14.0356C10.3766 14.4476 10.5976 15.0036 10.5876 15.6016C10.5666 16.8696 9.51559 17.9186 8.24559 17.9406ZM19.9996 6.82759C20.0096 6.07159 19.7176 5.35959 19.1806 4.82359C18.1186 3.76259 16.2556 3.75959 15.1956 4.82359L8.58259 11.4336C8.50759 11.4296 8.43559 11.4136 8.36059 11.4126C6.02659 11.4546 4.09559 13.3856 4.05659 15.7166L3.99959 18.9826C3.99459 19.2536 4.10159 19.5156 4.29259 19.7066C4.48059 19.8946 4.73559 19.9996 4.99959 19.9996H5.01859L8.28459 19.9406C10.6166 19.8996 12.5466 17.9686 12.5876 15.6356C12.5886 15.5606 12.5726 15.4896 12.5706 15.4136L19.1796 8.80659C19.7176 8.26859 20.0096 7.55659 19.9996 6.82759Z" fill="#231F20"/>
<mask id="mask0" mask-type="alpha" maskUnits="userSpaceOnUse" x="3" y="4" width="17" height="16">
<path id="Mask_2" fill-rule="evenodd" clip-rule="evenodd" d="M17.7656 7.39259L11.8986 13.2576C11.7476 13.0316 11.5746 12.8176 11.3776 12.6216C11.1806 12.4246 10.9666 12.2526 10.7406 12.1046L16.6096 6.23759C16.9156 5.93059 17.4576 5.92959 17.7666 6.23859C17.9196 6.39159 18.0026 6.59159 17.9996 6.82759C18.0026 7.03859 17.9186 7.23859 17.7656 7.39259ZM8.24559 17.9406L6.01759 17.9816L6.05659 15.7506C6.07759 14.4846 7.12659 13.4346 8.39559 13.4126C8.40959 13.4126 8.42159 13.4116 8.43559 13.4116C9.01959 13.4116 9.56059 13.6316 9.96359 14.0356C10.3766 14.4476 10.5976 15.0036 10.5876 15.6016C10.5666 16.8696 9.51559 17.9186 8.24559 17.9406ZM19.9996 6.82759C20.0096 6.07159 19.7176 5.35959 19.1806 4.82359C18.1186 3.76259 16.2556 3.75959 15.1956 4.82359L8.58259 11.4336C8.50759 11.4296 8.43559 11.4136 8.36059 11.4126C6.02659 11.4546 4.09559 13.3856 4.05659 15.7166L3.99959 18.9826C3.99459 19.2536 4.10159 19.5156 4.29259 19.7066C4.48059 19.8946 4.73559 19.9996 4.99959 19.9996H5.01859L8.28459 19.9406C10.6166 19.8996 12.5466 17.9686 12.5876 15.6356C12.5886 15.5606 12.5726 15.4896 12.5706 15.4136L19.1796 8.80659C19.7176 8.26859 20.0096 7.55659 19.9996 6.82759Z" fill="white"/>
</mask>
<g mask="url(#mask0)">
<g id="&#240;&#159;&#142;&#168; Color">
<rect id="Base" width="24" height="24" fill="#0D1C2E"/>
</g>
</g>
</g>
</svg>
