<svg fill="none" height="64" viewBox="0 0 64 64" width="64" xmlns="http://www.w3.org/2000/svg"><path clip-rule="evenodd" d="m47.3748 19.7135-15.6453 15.64c-.4027-.6027-.864-1.1734-1.3893-1.696-.5254-.5254-1.096-.984-1.6987-1.3787l15.6507-15.6453c.816-.8187 2.2613-.8214 3.0853.0026.408.408.6293.9414.6213 1.5707.008.5627-.216 1.096-.624 1.5067zm-25.3866 28.1278-5.9413.1093.104-5.9493c.056-3.376 2.8533-6.176 6.2373-6.2347.0374 0 .0694-.0026.1067-.0026 1.5573 0 3 .5866 4.0747 1.664 1.1013 1.0986 1.6906 2.5813 1.664 4.176-.056 3.3813-2.8587 6.1786-6.2454 6.2373zm31.3439-29.6345c.0267-2.016-.7519-3.9147-2.1839-5.344-2.832-2.8293-7.8-2.8373-10.6267 0l-17.6347 17.6267c-.2-.0107-.392-.0534-.592-.056-6.224.112-11.3733 5.2613-11.4773 11.4773l-.152 8.7093c-.0133.7227.272 1.4214.7813 1.9307.5014.5013 1.1814.7813 1.8854.7813h.0506l8.7094-.1573c6.2186-.1093 11.3653-5.2587 11.4746-11.48.0027-.2-.04-.3893-.0453-.592l17.624-17.6187c1.4347-1.4346 2.2133-3.3333 2.1866-5.2773z" fill="#6b7280" fill-rule="evenodd"/></svg>