<svg fill="none" height="64" viewBox="0 0 64 64" width="64" xmlns="http://www.w3.org/2000/svg"><path d="m44.0146 39.1252-1.914 1.9121c-1.4024 1.4037-4.4288 2.085-7.7774.6386-3.5537-1.5376-5.2772-.7744-6.5595.5596-1.389 1.4452-10.0258 11.2698-12.0225 13.2666-1.9964 1.9964-5.2331 1.9964-7.2295 0-1.99595-1.9964-1.99619-5.2326 0-7.2304 1.9965-1.9965 12.084-10.7113 13.2676-12.0225 1.2381-1.3749 2.0961-3.0035.5586-6.5586-1.4464-3.3471-.7653-6.3759.6386-7.7783l1.9112-1.9121zm-30.5449 11.4199c-.7414-.7414-1.9451-.7414-2.6865 0-.7411.7414-.7411 1.9432 0 2.6846.7414.7414 1.9451.7414 2.6865 0 .7415-.7415.7415-1.9432 0-2.6846zm24.3242-42.85939c.9552-.30543 1.8772-.19712 2.6573.06446 1.4821.49705 2.7373 1.64861 3.4287 2.31833.6945.673.8462 1.5594.8379 2.2383-.0072.5769-.1316 1.1665-.293 1.7109.6403-.1514 1.3408-.2478 2.0273-.1982.7585.0548 1.6074.2985 2.2852.9551 1.6452 1.5937 4.2444 3.7629 6.4365 6.9482 1.1378 1.6533 1.6295 3.1833 1.1367 4.6153-.4429 1.2869-1.5916 2.0594-2.1845 2.4902-1.1227.8156-6.5009 4.6109-9.0381 6.3984l-1.0401.7325-.8925-.9073-14.2247-14.4511-.9023-.917.7695-1.0323c1.5057-2.0196 4.912-6.6346 6.5586-9.02731.6627-.96288 1.4769-1.6312 2.4375-1.93848zm1.7032 2.90819c-.347-.1163-.5952-.1127-.7891-.0508-.1886.0604-.5028.2319-.8809.7813-1.4386 2.0904-4.1604 5.7951-5.8584 8.0859l12.4297 12.6299c2.7474-1.9371 6.9991-4.937 7.9649-5.6387.7942-.577 1.0336-.8139 1.1113-1.039.0276-.0804.1718-.5676-.7715-1.9385-1.9708-2.8637-4.2286-4.7281-6.0527-6.4951-.0161-.0156-.1075-.095-.4151-.1172-.3134-.0226-.737.026-1.248.1572-1.0226.2627-2.1029.7817-2.7705 1.1797l-2.0342-2.0928c.4207-.6623.9803-1.7092 1.2998-2.6689.1612-.4844.2332-.8632.2363-1.1172.0007-.0545-.0038-.0945-.0068-.1221-.6791-.6498-1.4717-1.3044-2.2148-1.5537z" fill="#000"/></svg>