<svg fill="none" height="24" viewBox="0 0 24 24" width="24" xmlns="http://www.w3.org/2000/svg"><path clip-rule="evenodd" d="m13 5c0 .553-.448 1-1 1s-1-.447-1-1v-2c0-.553.448-1 1-1s1 .447 1 1zm-.0001 10.4597c0-.357.191-.688.501-.867.925-.531 1.499-1.525 1.499-2.593 0-1.654-1.346-2.99997-3-2.99997s-2.99996 1.34597-2.99996 2.99997c0 1.068.574 2.062 1.49896 2.593.31.179.501.51.501.867v4.54h2zm-5.99993-3.46c0-2.75703 2.243-5.00003 5.00003-5.00003 2.757 0 5 2.243 5 5.00003 0 1.579-.754 3.062-2 3.996v4.004c0 1.103-.897 2-2 2h-2c-1.10303 0-2.00003-.897-2.00003-2v-4.004c-1.247-.934-2-2.417-2-3.996zm14.00003-.9997h-2c-.553 0-1 .447-1 1s.447 1 1 1h2c.553 0 1-.447 1-1s-.447-1-1-1zm-18 0h2c.552 0 1 .447 1 1s-.448 1-1 1h-2c-.552 0-1-.447-1-1s.448-1 1-1zm4.65962-4.582-1.439-1.39c-.397-.383-1.029-.371-1.414.026-.384.396-.373 1.03.024 1.414l1.439 1.389c.195.188.445.281.695.281.262 0 .523-.103.719-.306.384-.396.373-1.03-.024-1.414zm10.11988-1.38827c.396-.383 1.032-.372 1.413.024.384.396.373 1.03-.024 1.413l-1.439 1.39c-.193.187-.444.281-.694.281-.262 0-.524-.103-.719-.306-.384-.396-.373-1.03.024-1.413z" fill="#6b7280" fill-rule="evenodd"/></svg>