<svg fill="none" height="24" viewBox="0 0 24 24" width="24" xmlns="http://www.w3.org/2000/svg"><path clip-rule="evenodd" d="m6.99998 15.9999c0-.55.45-1 1-1s1 .45 1 1-.45 1-1 1-1-.45-1-1zm5.00002-1h4c.55 0 1 .45 1 1s-.45 1-1 1h-4c-.55 0-1-.45-1-1s.45-1 1-1zm6 5.0002h-11.99998c-.551 0-1-.449-1-1v-6h13.99998v6c0 .551-.449 1-1 1zm-11.99998-14.00017h1v1c0 .55.45 1 1 1s1-.45 1-1v-1h5.99998v1c0 .55.45 1 1 1s1-.45 1-1v-1h1c.551 0 1 .449 1 1v3.99997h-13.99998v-3.99997c0-.551.449-1 1-1zm11.99998-1.99993h-1v-1c0-.55-.45-1-1-1s-1 .45-1 1v1h-6v-1c0-.55-.45-1-1-1s-1 .45-1 1v1h-1c-1.654 0-3 1.346-3 3v12c0 1.654 1.346 3 3 3h12c1.654 0 3-1.346 3-3v-12c0-1.654-1.346-3-3-3z" fill="#6b7280" fill-rule="evenodd"/></svg>