<svg fill="none" height="64" viewBox="0 0 64 64" width="64" xmlns="http://www.w3.org/2000/svg"><path clip-rule="evenodd" d="m18.6666 42.6667c0-1.4667 1.2-2.6667 2.6667-2.6667s2.6667 1.2 2.6667 2.6667c0 1.4666-1.2 2.6666-2.6667 2.6666s-2.6667-1.2-2.6667-2.6666zm13.3333-2.6667h10.6667c1.4666 0 2.6666 1.2 2.6666 2.6667 0 1.4666-1.2 2.6666-2.6666 2.6666h-10.6667c-1.4666 0-2.6666-1.2-2.6666-2.6666 0-1.4667 1.2-2.6667 2.6666-2.6667zm16.0001 13.3337h-32c-1.4693 0-2.6666-1.1974-2.6666-2.6667v-16h37.3333v16c0 1.4693-1.1973 2.6667-2.6667 2.6667zm-32-37.3337h2.6667v2.6667c0 1.4666 1.2 2.6666 2.6667 2.6666 1.4666 0 2.6666-1.2 2.6666-2.6666v-2.6667h16v2.6667c0 1.4666 1.2 2.6666 2.6667 2.6666s2.6667-1.2 2.6667-2.6666v-2.6667h2.6666c1.4694 0 2.6667 1.1973 2.6667 2.6667v10.6666h-37.3333v-10.6666c0-1.4694 1.1973-2.6667 2.6666-2.6667zm32-5.3332h-2.6667v-2.66664c0-1.46666-1.2-2.66666-2.6666-2.66666-1.4667 0-2.6667 1.2-2.6667 2.66666v2.66664h-16v-2.66664c0-1.46666-1.2-2.66666-2.6667-2.66666-1.4666 0-2.6666 1.2-2.6666 2.66666v2.66664h-2.6667c-4.4107 0-8 3.5894-8 8v32c0 4.4107 3.5893 8 8 8h32c4.4107 0 8-3.5893 8-8v-32c0-4.4106-3.5893-8-8-8z" fill="#6b7280" fill-rule="evenodd"/></svg>