<svg viewBox="0 0 64 64" fill="none" xmlns="http://www.w3.org/2000/svg">
<path fill-rule="evenodd" clip-rule="evenodd" d="M29.3334 37.3334C30.8061 37.3334 32 38.5273 32 40.0001C32 41.4728 30.8061 42.6667 29.3334 42.6667H18.6667C17.1939 42.6667 16 41.4728 16 40.0001C16 38.5273 17.1939 37.3334 18.6667 37.3334H29.3334Z M45.3334 37.3334C46.8061 37.3334 48 38.5273 48 40.0001C48 41.4728 46.8061 42.6667 45.3334 42.6667H40C38.5273 42.6667 37.3334 41.4728 37.3334 40.0001C37.3334 38.5273 38.5273 37.3334 40 37.3334H45.3334Z M24 26.6667C25.4728 26.6667 26.6667 27.8607 26.6667 29.3334C26.6667 30.8062 25.4728 32.0001 24 32.0001H18.6667C17.1939 32.0001 16 30.8062 16 29.3334C16 27.8607 17.1939 26.6667 18.6667 26.6667H24Z M45.3334 26.6667C46.8061 26.6667 48 27.8607 48 29.3334C48 30.8062 46.8061 32.0001 45.3334 32.0001H34.6667C33.1939 32.0001 32 30.8062 32 29.3334C32 27.8607 33.1939 26.6667 34.6667 26.6667H45.3334Z M50.6667 10.6667C55.085 10.6667 58.6667 14.2485 58.6667 18.6667V45.3334C58.6667 49.7517 55.085 53.3334 50.6667 53.3334H13.3334C8.9151 53.3334 5.33337 49.7517 5.33337 45.3334V18.6667C5.33337 14.2485 8.9151 10.6667 13.3334 10.6667H50.6667ZM13.3334 16.0001C11.8606 16.0001 10.6667 17.194 10.6667 18.6667V45.3334C10.6667 46.8062 11.8606 48.0001 13.3334 48.0001H50.6667C52.1395 48.0001 53.3334 46.8062 53.3334 45.3334V18.6667C53.3334 17.194 52.1395 16.0001 50.6667 16.0001H13.3334Z" fill="#141414"/>
</svg>