<svg fill="none" height="24" viewBox="0 0 24 24" width="24" xmlns="http://www.w3.org/2000/svg"><path clip-rule="evenodd" d="m20.3333 16.3333c0 .4907-.3982.8889-.8889.8889s-.8889-.3982-.8889-.8889c0-.4906.3982-.8889.8889-.8889s.8889.3983.8889.8889zm-6.2222-2.6666h-7.11115l.01422-8.88892h9.76353l-.0142 8.88892zm-4.44449 2.6666c0 .4907-.39822.8889-.88889.8889-.49066 0-.88889-.3982-.88889-.8889 0-.4906.39823-.8889.88889-.8889.49067 0 .88889.3983.88889.8889zm11.55559-4.9066v2.24h-2.6667v-4.37243zm1.4444-1.1209-4.1111-3.28891v-2.23911c0-.98045-.7227-1.77778-1.6116-1.77778h-10.11107c-.888 0-1.61066.79733-1.61066 1.77778v8.88892c0 .776.456 1.4302 1.08533 1.6729-.12444.3075-.19644.6417-.19644.9937 0 1.4703 1.19644 2.6667 2.66666 2.6667 1.47018 0 2.66668-1.1964 2.66668-2.6667 0-.3137-.064-.6097-.1645-.8889h2.8312 2.8311c-.1005.2792-.1645.5752-.1645.8889 0 1.4703 1.1965 2.6667 2.6667 2.6667s2.6667-1.1964 2.6667-2.6667c0-.3137-.064-.6097-.1645-.8889h.1645c.4915 0 .8888-.3973.8888-.8888v-3.5556c0-.2702-.1226-.5253-.3333-.6942zm.3334 9.6942h-22c-.55 0-1 .45-1 1s.45 1 1 1h22c.55 0 1-.45 1-1s-.45-1-1-1zm-22-3h2c.55 0 1 .45 1 1s-.45 1-1 1h-2c-.55 0-1-.45-1-1s.45-1 1-1z" fill="#6b7280" fill-rule="evenodd"/></svg>