<svg fill="none" height="64" viewBox="0 0 64 64" width="64" xmlns="http://www.w3.org/2000/svg"><path clip-rule="evenodd" d="m50.6667 48.0002c0 1.472-1.1947 2.6666-2.6667 2.6666s-2.6667-1.1946-2.6667-2.6666 1.1947-2.6667 2.6667-2.6667 2.6667 1.1947 2.6667 2.6667zm-18.6667-8h-21.3333l.0427-26.6667h29.2906l-.0426 26.6667zm-13.3334 8c0 1.472-1.1946 2.6666-2.6666 2.6666s-2.6667-1.1946-2.6667-2.6666 1.1947-2.6667 2.6667-2.6667 2.6666 1.1947 2.6666 2.6667zm34.6667-14.7205v6.72h-8v-13.1173zm4.3333-3.3624-12.3333-9.8666v-6.7174c0-2.9413-2.168-5.3333-4.8347-5.3333h-30.3333c-2.66399 0-4.83199 2.392-4.83199 5.3333v26.6667c0 2.328 1.368 4.2907 3.256 5.0187-.37333.9226-.58933 1.9253-.58933 2.9813 0 4.4107 3.58932 8 8.00002 8 4.4106 0 8-3.5893 8-8 0-.9413-.192-1.8293-.4934-2.6667h8.4934 8.4933c-.3013.8374-.4933 1.7254-.4933 2.6667 0 4.4107 3.5893 8 8 8 4.4106 0 8-3.5893 8-8 0-.9413-.192-1.8293-.4934-2.6667h.4934c1.4746 0 2.6666-1.192 2.6666-2.6666v-10.6667c0-.8107-.368-1.576-1-2.0827z" fill="#6b7280" fill-rule="evenodd"/></svg>