<svg viewBox="0 0 64 64" fill="none" xmlns="http://www.w3.org/2000/svg">
<path fill-rule="evenodd" clip-rule="evenodd" d="M25.4899 37.0973C25.787 37.0666 26.0883 37.1156 26.3596 37.2405L33.8232 40.6832C34.9284 41.1899 35.1353 42.6681 34.2138 43.4592L27.9846 48.8264C27.7586 49.0216 27.4843 49.1513 27.1904 49.204C26.8958 49.2565 26.5902 49.2286 26.3102 49.1233C26.0302 49.0177 25.7834 48.8388 25.5966 48.6051C25.4099 48.3714 25.289 48.0914 25.2477 47.7952L24.0107 38.9853C23.9697 38.6891 24.0071 38.386 24.1227 38.1103C24.2383 37.8352 24.4275 37.5956 24.6669 37.4176C24.9069 37.2397 25.1927 37.1282 25.4899 37.0973Z M35.2659 24.7822C36.5451 24.7303 37.7779 24.8098 38.9899 25.2483C40.6097 25.8369 42.0335 26.8662 43.1018 28.2066L43.5393 28.8004C44.2611 29.871 44.6344 31.0489 44.8935 32.303C45.1461 33.5265 45.3311 35.0436 45.5524 36.8525L46.469 44.3473C46.6917 46.1573 46.8814 47.6767 46.9326 48.9254C46.9848 50.2053 46.9059 51.4372 46.4638 52.6519C45.7891 54.5022 44.5472 56.0951 42.9143 57.1962C41.8447 57.9171 40.6691 58.2903 39.4143 58.5504C38.1897 58.804 36.6702 58.9878 34.8596 59.2092L34.8622 59.2118L27.3675 60.1285C25.5579 60.3513 24.0406 60.5387 22.7919 60.5894C21.5132 60.6412 20.2821 60.5653 19.0706 60.1259C17.4501 59.5363 16.0269 58.509 14.9586 57.1676L14.5211 56.5738C13.7995 55.5029 13.4263 54.3251 13.1669 53.0712C13.0406 52.4599 12.9313 51.774 12.8258 51.0165L12.5055 48.5217L11.5888 41.0243L11.2919 38.5269C11.2108 37.7661 11.1506 37.0733 11.1253 36.4488C11.0735 35.1693 11.1523 33.9371 11.5914 32.7249L11.594 32.7197C12.2688 30.8701 13.5111 29.2788 15.1435 28.178L15.5497 27.9228C16.5078 27.3652 17.5461 27.0513 18.6435 26.8238C19.8677 26.5703 21.3857 26.3837 23.1956 26.1624L30.6904 25.2457C32.499 25.0229 34.0168 24.8329 35.2659 24.7822ZM35.482 30.1129C34.5023 30.1527 33.2364 30.3042 31.344 30.5374L23.844 31.4566C21.9504 31.6882 20.6861 31.8466 19.7268 32.0452C19.0309 32.1894 18.6205 32.3318 18.3518 32.4671L18.1253 32.5999C17.4259 33.0715 16.8937 33.7554 16.6044 34.5478L16.6018 34.5452C16.4968 34.8374 16.4179 35.2892 16.456 36.2327C16.4957 37.2125 16.6473 38.4778 16.8805 40.3707L17.7997 47.8707L18.107 50.2822C18.2003 50.9538 18.2891 51.5107 18.3883 51.9905C18.5804 52.9194 18.7704 53.3357 18.943 53.5921L19.1305 53.8447C19.5882 54.4195 20.1966 54.8601 20.8909 55.1129C21.1805 55.2179 21.628 55.2996 22.5758 55.2613C23.5556 55.2215 24.8226 55.07 26.7164 54.8368L34.2138 53.9176L36.6227 53.6103C37.2946 53.5171 37.8515 53.4283 38.331 53.329C39.2591 53.1367 39.6752 52.9476 39.9326 52.7743C40.6325 52.3023 41.1643 51.6196 41.4534 50.8264C41.5586 50.5366 41.6431 50.0883 41.6044 49.1415C41.5843 48.6518 41.5337 48.0897 41.4612 47.415L41.1774 44.9983L40.2581 37.5009C40.0263 35.6056 39.8678 34.341 39.6695 33.3811C39.4778 32.4538 39.2899 32.0381 39.1175 31.7822C38.6437 31.082 37.9588 30.548 37.1695 30.2613C36.8771 30.1566 36.4243 30.0747 35.482 30.1129Z M36.6357 13.0139C37.8848 13.0646 39.4024 13.2546 41.2112 13.4775L41.2086 13.4801L48.7086 14.3941L51.2034 14.7144C51.9613 14.82 52.649 14.9291 53.2607 15.0556C54.5139 15.3149 55.6903 15.6886 56.7607 16.4098L57.3544 16.8473C58.5041 17.7628 59.4241 18.9372 60.0341 20.2743L60.3128 20.9566C60.7524 22.1682 60.8306 23.4017 60.7789 24.6806C60.7283 25.9297 60.5409 27.4482 60.318 29.2587L59.3987 36.7535C59.1773 38.5638 58.9935 40.0812 58.7399 41.3056C58.4798 42.5606 58.1042 43.7358 57.3831 44.8056C56.2819 46.4385 54.6918 47.6805 52.8414 48.3551L52.8388 48.3525C52.6382 48.427 52.435 48.494 52.2294 48.5478L51.9612 48.6051C50.6265 48.8121 49.3236 47.9791 48.9742 46.6441C48.6026 45.2201 49.4567 43.7618 50.8805 43.3889L50.9872 43.3551L51.0133 43.3447C51.8058 43.0555 52.4895 42.5232 52.9612 41.8238L53.094 41.5947C53.2292 41.3259 53.3717 40.918 53.5159 40.2223C53.7146 39.2629 53.8727 37.9994 54.1044 36.1051L55.0237 28.6077C55.2569 26.7132 55.4085 25.4444 55.4482 24.4644C55.4864 23.5177 55.4046 23.0691 55.2998 22.7796C55.0471 22.0862 54.6081 21.4765 54.0341 21.0191L53.7789 20.8316C53.5225 20.6593 53.1072 20.4688 52.18 20.2769C51.2193 20.0783 49.9534 19.9218 48.0576 19.6884L40.5602 18.7691C38.6676 18.536 37.3993 18.3844 36.4195 18.3447C35.4758 18.3066 35.0242 18.3853 34.732 18.4905C33.9398 18.7797 33.2583 19.3147 32.7867 20.0139L32.7841 20.0191C32.6678 20.1908 32.5419 20.4377 32.4169 20.8629C32.0017 22.2757 30.52 23.0852 29.107 22.6702C27.6955 22.2541 26.8876 20.7725 27.3024 19.3603C27.5442 18.5375 27.8752 17.7597 28.3675 17.0322C29.4687 15.3996 31.059 14.1572 32.9091 13.4827L32.9117 13.4801C34.1238 13.0411 35.3563 12.9622 36.6357 13.0139Z M13.9337 23.5974C14.36 23.5117 14.6667 23.1373 14.6667 22.7025C14.6667 22.2678 14.36 21.8934 13.9337 21.8077H13.343C11.7641 21.5843 10.5234 20.3438 10.2999 18.7652L10.2104 18.1746C10.1912 17.7043 9.8041 17.333 9.33333 17.3334C8.88693 17.3367 8.50834 17.6622 8.43833 18.103V18.6936C8.23723 20.323 6.95333 21.6066 5.32371 21.8077H4.73301C4.3067 21.8934 4 22.2678 4 22.7025C4 23.1373 4.3067 23.5117 4.73301 23.5974H5.32371C6.90255 23.8208 8.14327 25.0613 8.36673 26.6399V27.2305C8.43674 27.6713 8.81533 27.9968 9.26173 28.0001C9.70712 28.0034 10.0843 27.6725 10.1388 27.2305L10.2283 26.6399C10.4594 25.0385 11.7363 23.7912 13.343 23.5974H13.9337Z M17.6674 4.0001C17.9786 3.99985 18.2764 4.12719 18.4921 4.3515C18.7077 4.57579 18.8237 4.87791 18.8112 5.18876C19.102 8.21357 21.5118 10.5993 24.5396 10.8578C25.1672 10.8743 25.6675 11.3881 25.6673 12.016C25.6586 12.6407 25.1501 13.1435 24.5252 13.1437C21.4969 13.4805 19.1159 15.8868 18.8112 18.9184C18.7782 19.5375 18.2566 20.0169 17.6369 19.9995C17.0236 19.9831 16.5332 19.4853 16.5253 18.8718C16.3464 15.7964 13.9002 13.3387 10.8256 13.1437C10.2761 13.1439 9.81396 12.76 9.69611 12.2436L9.66742 12.016C9.66335 11.7128 9.78046 11.4192 9.99194 11.202C10.2034 10.9852 10.4923 10.8618 10.7952 10.8578C13.8388 10.596 16.2554 8.18499 16.5253 5.14215C16.5214 4.83812 16.6402 4.54501 16.8552 4.32999C17.0703 4.11502 17.3632 3.99603 17.6674 4.0001ZM17.6656 7.92825C16.8591 9.71578 15.4283 11.1548 13.6477 11.9729C15.4662 12.7777 16.9215 14.2436 17.714 16.0678C18.5448 14.2807 19.9913 12.8411 21.7857 12.0195C19.9582 11.2105 18.4877 9.75052 17.6656 7.92825Z" fill="#141414"/>
</svg>