<svg viewBox="0 0 64 64" fill="none" xmlns="http://www.w3.org/2000/svg">
<path fill-rule="evenodd" clip-rule="evenodd" d="M21.4899 32.3182C21.787 32.2876 22.0883 32.3365 22.3597 32.4614L29.8232 35.9041C30.9284 36.4108 31.1353 37.8891 30.2138 38.6802L23.9847 44.0474C23.7587 44.2425 23.4843 44.3723 23.1904 44.425C22.8958 44.4774 22.5902 44.4496 22.3102 44.3442C22.0302 44.2387 21.7835 44.0597 21.5967 43.826C21.4099 43.5923 21.289 43.3124 21.2477 43.0161L20.0107 34.2062C19.9697 33.9101 20.0071 33.607 20.1227 33.3312C20.2383 33.0562 20.4276 32.8166 20.667 32.6385C20.907 32.4607 21.1928 32.3491 21.4899 32.3182Z M31.2659 20.0031C32.5451 19.9513 33.7779 20.0307 34.9899 20.4692C36.6097 21.0578 38.0336 22.0872 39.1019 23.4276L39.5394 24.0213C40.2611 25.092 40.6344 26.2698 40.8935 27.5239C41.1462 28.7474 41.3312 30.2646 41.5524 32.0734L42.469 39.5682C42.6917 41.3782 42.8814 42.8977 42.9326 44.1463C42.9848 45.4262 42.9059 46.6582 42.4638 47.8729C41.7891 49.7232 40.5473 51.316 38.9144 52.4172C37.8447 53.1381 36.6691 53.5113 35.4144 53.7713C34.1898 54.0249 32.6703 54.2087 30.8597 54.4302L30.8623 54.4328L23.3675 55.3495C21.5579 55.5722 20.0406 55.7597 18.792 55.8104C17.5132 55.8621 16.2821 55.7862 15.0706 55.3469C13.4502 54.7572 12.027 53.73 10.9586 52.3885L10.5211 51.7948C9.79949 50.7239 9.42634 49.5461 9.16696 48.2922C9.04059 47.6808 8.93134 46.9949 8.82582 46.2375L8.50551 43.7427L7.58884 36.2453L7.29196 33.7479C7.21083 32.987 7.15061 32.2942 7.1253 31.6698C7.07357 30.3902 7.15236 29.1581 7.59144 27.9458L7.59405 27.9406C8.26885 26.091 9.51115 24.4998 11.1435 23.3989L11.5498 23.1437C12.5079 22.5861 13.5461 22.2722 14.6435 22.0448C15.8678 21.7912 17.3857 21.6047 19.1956 21.3833L26.6904 20.4666C28.499 20.2438 30.0169 20.0539 31.2659 20.0031ZM31.4821 25.3338C30.5023 25.3737 29.2365 25.5252 27.344 25.7583L19.844 26.6776C17.9504 26.9092 16.6861 27.0675 15.7269 27.2661C15.0309 27.4103 14.6206 27.5527 14.3519 27.688L14.1253 27.8208C13.4259 28.2925 12.8937 28.9763 12.6045 29.7687L12.6019 29.7661C12.4968 30.0583 12.4179 30.5102 12.456 31.4536C12.4957 32.4334 12.6473 33.6988 12.8805 35.5916L13.7998 43.0916L14.1071 45.5031C14.2003 46.1748 14.2892 46.7316 14.3883 47.2114C14.5805 48.1403 14.7704 48.5566 14.943 48.813L15.1305 49.0656C15.5882 49.6404 16.1967 50.0811 16.8909 50.3338C17.1806 50.4388 17.628 50.5206 18.5758 50.4823C19.5556 50.4425 20.8226 50.2909 22.7164 50.0578L30.2138 49.1385L32.6227 48.8312C33.2947 48.7381 33.8515 48.6493 34.331 48.55C35.2591 48.3577 35.6752 48.1686 35.9326 47.9953C36.6325 47.5233 37.1643 46.8406 37.4534 46.0474C37.5586 45.7575 37.6432 45.3093 37.6045 44.3625C37.5843 43.8728 37.5337 43.3107 37.4612 42.6359L37.1774 40.2192L36.2581 32.7219C36.0263 30.8266 35.8678 29.562 35.6696 28.6021C35.4779 27.6747 35.2899 27.2591 35.1175 27.0031C34.6438 26.303 33.9588 25.769 33.1696 25.4823C32.8772 25.3775 32.4243 25.2957 31.4821 25.3338Z M32.6357 8.23487C33.8848 8.28551 35.4024 8.47556 37.2112 8.69841L37.2086 8.70102L44.7086 9.61508L47.2034 9.93539C47.9613 10.041 48.6491 10.1501 49.2607 10.2765C50.5139 10.5359 51.6904 10.9096 52.7607 11.6307L53.3545 12.0682C54.5042 12.9837 55.4241 14.1582 56.0342 15.4953L56.3128 16.1776C56.7524 17.3892 56.8306 18.6227 56.7789 19.9015C56.7283 21.1506 56.5409 22.6692 56.318 24.4797L55.3987 31.9745C55.1773 33.7847 54.9935 35.3022 54.7399 36.5265C54.4798 37.7815 54.1042 38.9567 53.3831 40.0265C52.2819 41.6594 50.6918 42.9014 48.8414 43.576L48.8388 43.5734C48.6382 43.6479 48.435 43.7149 48.2295 43.7687L47.9612 43.826C46.6265 44.0331 45.3236 43.2001 44.9743 41.8651C44.6026 40.441 45.4567 38.9828 46.8805 38.6099L46.9873 38.576L47.0133 38.5656C47.8058 38.2764 48.4895 37.7442 48.9612 37.0448L49.094 36.8156C49.2293 36.5468 49.3718 36.1389 49.5159 35.4432C49.7146 34.4838 49.8728 33.2204 50.1045 31.326L51.0237 23.8286C51.2569 21.9341 51.4085 20.6653 51.4482 19.6854C51.4864 18.7387 51.4046 18.2901 51.2998 18.0005C51.0471 17.3071 50.6081 16.6975 50.0342 16.2401L49.7789 16.0526C49.5226 15.8802 49.1072 15.6897 48.18 15.4979C47.2193 15.2993 45.9534 15.1427 44.0576 14.9094L36.5602 13.9901C34.6676 13.7569 33.3993 13.6053 32.4196 13.5656C31.4758 13.5275 31.0242 13.6063 30.7321 13.7114C29.9399 14.0007 29.2583 14.5356 28.7868 15.2349L28.7842 15.2401C28.6678 15.4117 28.542 15.6586 28.417 16.0838C28.0017 17.4967 26.52 18.3062 25.1071 17.8911C23.6955 17.4751 22.8877 15.9934 23.3024 14.5812C23.5442 13.7584 23.8752 12.9807 24.3675 12.2531C25.4687 10.6206 27.059 9.37812 28.9092 8.70362L28.9118 8.70102C30.1239 8.26201 31.3563 8.18317 32.6357 8.23487Z" fill="#141414"/>
</svg>