<svg width="24" height="24" viewBox="0 0 24 24" fill="none" xmlns="http://www.w3.org/2000/svg">
<g id="Icon/Outline/cast">
<path id="Mask" fill-rule="evenodd" clip-rule="evenodd" d="M5.5994 3H18.4004C19.8344 3 21.0004 4.246 21.0004 5.777V18.223C21.0004 19.754 19.8344 21 18.4004 21H17.0004C16.4474 21 16.0004 20.553 16.0004 20C16.0004 19.447 16.4474 19 17.0004 19H18.4004C18.7254 19 19.0004 18.644 19.0004 18.223V5.777C19.0004 5.356 18.7254 5 18.4004 5H5.5994C5.2744 5 5.0004 5.356 5.0004 5.777V7C5.0004 7.553 4.5524 8 4.0004 8C3.4474 8 3.0004 7.553 3.0004 7V5.777C3.0004 4.246 4.1664 3 5.5994 3ZM3.0093 15.17C2.9333 14.623 3.3163 14.118 3.8633 14.043C5.2833 13.849 6.6693 14.314 7.6773 15.321C9.0143 16.66 9.3773 18.71 8.5783 20.423C8.4083 20.786 8.0483 21 7.6713 21C7.5293 21 7.3853 20.97 7.2493 20.906C6.7493 20.673 6.5323 20.078 6.7653 19.577C7.2103 18.624 7.0093 17.481 6.2633 16.736C5.7013 16.175 4.9273 15.918 4.1363 16.023C3.5833 16.102 3.0843 15.717 3.0093 15.17ZM3.8623 10.0771C3.3153 10.1531 2.9333 10.6581 3.0093 11.2051C3.0853 11.7511 3.5883 12.1341 4.1373 12.0571C6.0283 11.7991 7.8853 12.4171 9.2343 13.7651C10.7903 15.3221 11.3753 17.6041 10.7593 19.7211C10.6053 20.2511 10.9103 20.8061 11.4403 20.9601C11.5343 20.9871 11.6283 21.0001 11.7193 21.0001C12.1533 21.0001 12.5523 20.7171 12.6793 20.2791C13.4993 17.4631 12.7203 14.4251 10.6483 12.3511C8.8533 10.5561 6.3843 9.7261 3.8623 10.0771ZM3 19C3 18.447 3.447 18 4 18C4.553 18 5 18.447 5 19C5 19.553 4.553 20 4 20C3.447 20 3 19.553 3 19Z" fill="#231F20"/>
<mask id="mask0" mask-type="alpha" maskUnits="userSpaceOnUse" x="2" y="3" width="20" height="18">
<path id="Mask_2" fill-rule="evenodd" clip-rule="evenodd" d="M5.5994 3H18.4004C19.8344 3 21.0004 4.246 21.0004 5.777V18.223C21.0004 19.754 19.8344 21 18.4004 21H17.0004C16.4474 21 16.0004 20.553 16.0004 20C16.0004 19.447 16.4474 19 17.0004 19H18.4004C18.7254 19 19.0004 18.644 19.0004 18.223V5.777C19.0004 5.356 18.7254 5 18.4004 5H5.5994C5.2744 5 5.0004 5.356 5.0004 5.777V7C5.0004 7.553 4.5524 8 4.0004 8C3.4474 8 3.0004 7.553 3.0004 7V5.777C3.0004 4.246 4.1664 3 5.5994 3ZM3.0093 15.17C2.9333 14.623 3.3163 14.118 3.8633 14.043C5.2833 13.849 6.6693 14.314 7.6773 15.321C9.0143 16.66 9.3773 18.71 8.5783 20.423C8.4083 20.786 8.0483 21 7.6713 21C7.5293 21 7.3853 20.97 7.2493 20.906C6.7493 20.673 6.5323 20.078 6.7653 19.577C7.2103 18.624 7.0093 17.481 6.2633 16.736C5.7013 16.175 4.9273 15.918 4.1363 16.023C3.5833 16.102 3.0843 15.717 3.0093 15.17ZM3.8623 10.0771C3.3153 10.1531 2.9333 10.6581 3.0093 11.2051C3.0853 11.7511 3.5883 12.1341 4.1373 12.0571C6.0283 11.7991 7.8853 12.4171 9.2343 13.7651C10.7903 15.3221 11.3753 17.6041 10.7593 19.7211C10.6053 20.2511 10.9103 20.8061 11.4403 20.9601C11.5343 20.9871 11.6283 21.0001 11.7193 21.0001C12.1533 21.0001 12.5523 20.7171 12.6793 20.2791C13.4993 17.4631 12.7203 14.4251 10.6483 12.3511C8.8533 10.5561 6.3843 9.7261 3.8623 10.0771ZM3 19C3 18.447 3.447 18 4 18C4.553 18 5 18.447 5 19C5 19.553 4.553 20 4 20C3.447 20 3 19.553 3 19Z" fill="white"/>
</mask>
<g mask="url(#mask0)">
<g id="&#240;&#159;&#142;&#168; Color">
<rect id="Base" width="24" height="24" fill="#0D1C2E"/>
</g>
</g>
</g>
</svg>
