<svg fill="none" height="24" viewBox="0 0 24 24" width="24" xmlns="http://www.w3.org/2000/svg"><path clip-rule="evenodd" d="m5.59937 3h12.80103c1.434 0 2.6 1.246 2.6 2.777v12.446c0 1.531-1.166 2.777-2.6 2.777h-1.4c-.553 0-1-.447-1-1s.447-1 1-1h1.4c.325 0 .6-.356.6-.777v-12.446c0-.421-.275-.777-.6-.777h-12.80103c-.325 0-.599.356-.599.777v1.223c0 .553-.448 1-1 1-.553 0-1-.447-1-1v-1.223c0-1.531 1.166-2.777 2.599-2.777zm-2.5901 12.1699c-.076-.547.307-1.052.854-1.127 1.42-.194 2.806.271 3.814 1.278 1.337 1.339 1.7 3.389.901 5.102-.17.363-.53.577-.907.577-.142 0-.286-.03-.422-.094-.5-.233-.717-.828-.484-1.329.445-.953.244-2.096-.502-2.841-.562-.561-1.336-.818-2.127-.713-.553.079-1.052-.306-1.127-.853zm.853-5.0927c-.547.076-.929.581-.853 1.128.076.546.579.929 1.128.852 1.891-.258 3.748.36 5.097 1.708 1.55603 1.557 2.14103 3.839 1.52503 5.956-.154.53.151 1.085.681 1.239.094.027.188.04.279.04.434 0 .833-.283.96-.721.82-2.816.041-5.854-2.031-7.928-1.79503-1.795-4.26403-2.62503-6.78603-2.274zm-.8623 8.9228c0-.553.447-1 1-1s1 .447 1 1-.447 1-1 1-1-.447-1-1z" fill="#6b7280" fill-rule="evenodd"/></svg>