<svg width="24" height="24" viewBox="0 0 24 24" fill="none" xmlns="http://www.w3.org/2000/svg">
<path fill-rule="evenodd" clip-rule="evenodd" d="M18.4694 2.94631L20.8838 5.36076L22.6281 3.61375L20.2146 1.2002L18.4694 2.94631ZM12 11.8264L14.6671 11.5836L19.6841 6.56114L17.2688 4.14579L12.2365 9.17807L12 11.8264ZM19 12C19 11.448 19.447 11 20 11C20.553 11 21 11.448 21 12V18C21 19.654 19.654 21 18 21H6C4.346 21 3 19.654 3 18V6C3 4.346 4.346 3 6 3H12C12.553 3 13 3.448 13 4C13 4.552 12.553 5 12 5H6C5.448 5 5 5.449 5 6V18C5 18.551 5.448 19 6 19H18C18.552 19 19 18.551 19 18V12Z" fill="#6B7280"/>
</svg>
