<svg viewBox="0 0 64 64" fill="none" xmlns="http://www.w3.org/2000/svg">
<path fill-rule="evenodd" clip-rule="evenodd" d="M27.7265 5.66405C32.7757 4.88376 37.7632 5.49704 42.2525 7.36457C42.0786 7.73656 41.9403 8.13071 41.8463 8.54426L40.9218 12.6068C37.1402 10.8655 32.8747 10.2647 28.5494 10.9375C19.8694 12.2895 12.6734 19.2839 11.0494 27.9479C10.2629 32.1343 10.7117 36.3939 12.3489 40.2604C13.0232 41.8573 13.2155 43.5263 12.901 45.0859L11.3984 52.5989L18.8984 51.0989C19.3913 51.0004 19.8922 50.9531 20.3984 50.9531C21.5101 50.9531 22.6437 51.1872 23.7395 51.651C27.6061 53.2883 31.8681 53.7398 36.052 52.9505C44.716 51.3265 51.7104 44.1278 53.0624 35.4505C53.1988 34.5764 53.2845 33.7044 53.3176 32.8385L53.3333 29.3333C53.3333 28.0001 54.8266 27.7154 55.3958 27.5859L58.1978 26.9479C58.7712 29.9605 58.8286 33.1058 58.3359 36.2734C56.6396 47.145 47.8814 56.1581 37.0338 58.1927C31.818 59.1713 26.5012 58.6075 21.6614 56.5625C21.2374 56.3865 20.6012 56.2028 19.9452 56.3281L8.52336 58.6146C8.34802 58.649 8.17522 58.664 8.00253 58.6641C7.30131 58.6641 6.62109 58.3894 6.11711 57.8828C5.48511 57.2535 5.20934 56.3486 5.38534 55.4739L7.67441 44.0417C7.77574 43.5271 7.69609 42.9519 7.43743 42.3359C5.39215 37.5014 4.82597 32.1847 5.80722 26.9635C7.84187 16.1184 16.8547 7.3602 27.7265 5.66405Z M32.7525 29.3333C33.6689 29.3333 34.4133 30.0759 34.414 30.9922C34.414 32.52 35.6518 33.7602 37.1796 33.7604C38.0961 33.7604 38.8406 34.5028 38.8411 35.4193C38.8411 36.3361 38.0964 37.0807 37.1796 37.0807C35.6519 37.0809 34.4142 38.3187 34.414 39.8463C34.414 40.7631 33.6693 41.5078 32.7525 41.5078C31.8361 41.5074 31.0937 40.7629 31.0937 39.8463C31.0935 38.3185 29.8533 37.0807 28.3254 37.0807C27.4092 37.0801 26.6666 36.3356 26.6666 35.4193C26.667 34.5032 27.4095 33.7611 28.3254 33.7604C29.8534 33.7604 31.0937 32.5202 31.0937 30.9922C31.0943 30.0762 31.8365 29.3338 32.7525 29.3333Z M47.539 7.99999C48.3976 7.99999 49.1429 8.59507 49.3333 9.43228L50.3515 13.9062C50.8221 15.9759 52.438 17.5919 54.5077 18.0625L58.9817 19.0807C59.8184 19.271 60.4134 20.0143 60.414 20.8724C60.414 21.731 59.8188 22.4763 58.9817 22.6667L54.5077 23.6849C52.438 24.1555 50.8221 25.7714 50.3515 27.8411L49.3333 32.3151C49.1429 33.1522 48.3976 33.7474 47.539 33.7474C46.6809 33.7468 45.9376 33.1518 45.7473 32.3151L44.7291 27.8411C44.2585 25.7714 42.6426 24.1556 40.5728 23.6849L36.0989 22.6667C35.2617 22.4763 34.6666 21.731 34.6666 20.8724C34.6672 20.0143 35.2621 19.271 36.0989 19.0807L40.5728 18.0625C42.6425 17.5918 44.2585 15.9759 44.7291 13.9062L45.7473 9.43228C45.9376 8.59547 46.6809 8.00056 47.539 7.99999ZM47.539 16.862C46.6587 18.5868 45.2534 19.9921 43.5286 20.8724C45.2534 21.7527 46.6587 23.1605 47.539 24.8854C48.4193 23.1605 49.8271 21.7527 51.552 20.8724C49.8271 19.9921 48.4193 18.5868 47.539 16.862Z" fill="#141414"/>
</svg>