<svg fill="none" height="64" viewBox="0 0 64 64" width="64" xmlns="http://www.w3.org/2000/svg"><path clip-rule="evenodd" d="m39.2122 22.3855-10.0906 13.2507-4.3547-5.5627c-.9093-1.1627-2.584-1.3653-3.744-.456-1.16.9067-1.3653 2.584-.456 3.7413l6.4827 8.2854c.5066.6453 1.28 1.0213 2.1013 1.0213h.0187c.824-.0027 1.6026-.392 2.1013-1.0507l12.184-16c.8933-1.1733.6667-2.8426-.5067-3.736-1.1733-.8933-2.848-.664-3.736.5067zm11.4545 25.6147c0 1.472-1.1973 2.6666-2.6667 2.6666h-32c-1.4693 0-2.6666-1.1946-2.6666-2.6666v-32c0-1.472 1.1973-2.6667 2.6666-2.6667h32c1.4694 0 2.6667 1.1947 2.6667 2.6667zm-2.6667-40.0002h-32c-4.4107 0-8 3.5893-8 8v32c0 4.4107 3.5893 8 8 8h32c4.4107 0 8-3.5893 8-8v-32c0-4.4107-3.5893-8-8-8z" fill="#6b7280" fill-rule="evenodd"/></svg>