<svg fill="none" height="24" viewBox="0 0 24 24" width="24" xmlns="http://www.w3.org/2000/svg"><path clip-rule="evenodd" d="m14.7046 8.3945-3.784 4.969-1.63302-2.086c-.34-.436-.97-.512-1.404-.171-.435.34-.512.969-.171 1.403l2.43102 3.107c.19.242.48.383.788.383h.007c.309-.001.601-.147.788-.394l4.569-6c.335-.44.25-1.066-.19-1.401-.441-.335-1.067-.249-1.401.19zm-2.7046 11.6056c-4.41098 0-7.99998-3.589-7.99998-8 0-4.41104 3.589-8.00003 7.99998-8.00003 4.411 0 8 3.58899 8 8.00003 0 4.411-3.589 8-8 8zm0-18.0001c-5.523 0-10 4.478-10 10s4.477 10 10 10 10-4.478 10-10-4.477-10-10-10z" fill="#6b7280" fill-rule="evenodd"/></svg>