<svg fill="none" height="64" viewBox="0 0 64 64" width="64" xmlns="http://www.w3.org/2000/svg"><path clip-rule="evenodd" d="m50.6667 34.2223c0-1.472 1.1946-2.6667 2.6666-2.6667s2.6667 1.1947 2.6667 2.6667v14.8427c0 3.824-3.112 6.936-6.9333 6.936h-34.1334c-3.8213 0-6.9333-3.112-6.9333-6.936v-34.1307c0-3.824 3.112-6.93332 6.9333-6.93332h25.512c1.472 0 2.6667 1.192 2.6667 2.66662 0 1.472-1.1947 2.6667-2.6667 2.6667h-25.512c-.8826 0-1.6.7173-1.6 1.6v34.1307c0 .8826.7174 1.6026 1.6 1.6026h34.1334c.8826 0 1.6-.72 1.6-1.6026zm-25.8411-5.0316c1.0667-1.0186 2.752-.976 3.7707.088l4.0133 4.208 16.1413-16.6746c1.0214-1.056 2.7094-1.088 3.7707-.0614 1.0587 1.024 1.0853 2.712.0613 3.7707l-18.072 18.6667c-.5013.52-1.192.8133-1.9146.8133h-.0107c-.7253-.0027-1.4187-.3013-1.92-.8267l-5.928-6.2133c-1.0187-1.0667-.976-2.7547.088-3.7707z" fill="#6b7280" fill-rule="evenodd"/></svg>