<svg fill="none" height="24" viewBox="0 0 24 24" width="24" xmlns="http://www.w3.org/2000/svg"><path clip-rule="evenodd" d="m14.7046 8.39457-3.784 4.96903-1.63301-2.086c-.341-.436-.969-.512-1.404-.171-.435.34-.512.969-.171 1.403l2.43101 3.107c.19.242.48.383.788.383h.007c.309-.001.601-.147.788-.394l4.569-6.00003c.335-.44.25-1.066-.19-1.401s-1.068-.249-1.401.19zm4.2954 9.60553c0 .552-.449 1-1 1h-11.99998c-.551 0-1-.448-1-1v-12.00003c0-.552.449-1 1-1h11.99998c.551 0 1 .448 1 1zm-1-15.0001h-12c-1.654 0-3 1.346-3 3v12c0 1.654 1.346 3 3 3h12c1.654 0 3-1.346 3-3v-12c0-1.654-1.346-3-3-3z" fill="#6b7280" fill-rule="evenodd"/></svg>