<svg fill="none" height="64" viewBox="0 0 64 64" width="64" xmlns="http://www.w3.org/2000/svg"><path clip-rule="evenodd" d="m39.2122 22.3855-10.0906 13.2507-4.3547-5.5627c-.9067-1.1627-2.5867-1.3653-3.744-.456-1.16.9067-1.3653 2.584-.456 3.7413l6.4827 8.2854c.5066.6453 1.28 1.0213 2.1013 1.0213h.0187c.824-.0027 1.6026-.392 2.1013-1.0507l12.184-16c.8933-1.1733.6667-2.8426-.5067-3.736-1.176-.8933-2.8453-.664-3.736.5067zm-7.2121 30.9482c-11.7627 0-21.3333-9.5707-21.3333-21.3334 0-11.7626 9.5706-21.3333 21.3333-21.3333 11.7626 0 21.3333 9.5707 21.3333 21.3333 0 11.7627-9.5707 21.3334-21.3333 21.3334zm-.0001-48.0002c-14.728 0-26.66663 11.9413-26.66663 26.6667 0 14.7253 11.93863 26.6666 26.66663 26.6666s26.6667-11.9413 26.6667-26.6666c0-14.7254-11.9387-26.6667-26.6667-26.6667z" fill="#6b7280" fill-rule="evenodd"/></svg>