<svg fill="none" height="64" viewBox="0 0 64 64" width="64" xmlns="http://www.w3.org/2000/svg"><path d="m32.4482 5.34375c2.6481-.0391 5.0069.33201 7.0674 1.07324 11.0557 3.25335 19.1513 13.48831 19.1514 25.58301 0 14.704-11.963 26.667-26.667 26.667-.1496 0-.2992-.0112-.4482-.0137-2.6493.0391-5.009-.3304-7.0704-1.0722-11.054-3.2544-19.14839-13.4875-19.14839-25.5811.00009-14.7039 11.96309-26.66699 26.66699-26.66699.1496 0 .2992.00827.4482.01074zm-.0576 5.33105c-.8386.0187-1.7383.0853-2.7002.2158-.2465.0333-.4897.0277-.7246-.0049-10.3306 1.4779-18.2986 10.3818-18.2988 21.1143 0 4.7211 1.5439 9.0872 4.1504 12.625-.1266-1.1943-.1431-2.4013-.0674-3.5938.2985-4.7042 2.0756-9.5265 4.9766-13.2216 2.91-3.706 7.132-6.4766 12.2734-6.4766 1.4728 0 2.667 1.1942 2.667 2.667s-1.1942 2.667-2.667 2.667c-3.0762 0-5.8841 1.6391-8.0811 4.4375-2.2057 2.8099-3.6125 6.591-3.8457 10.2656-.2335 3.6855.7207 6.9304 2.7911 9.044.8243.8414 1.9061 1.5765 3.3027 2.1015 1.7345.4939 3.5567.7734 5.4394.8076.8391-.0186 1.7387-.0833 2.7012-.2138.2462-.0334.4889-.0294.7236.0029 10.332-1.4767 18.3018-10.3788 18.3018-21.1123-.0001-4.7224-1.5455-9.0896-4.1533-12.6279.1271 1.1952.146 2.4032.0703 3.5967-.2985 4.7042-2.0756 9.5266-4.9766 13.2216-2.9098 3.7057-7.1326 6.4761-12.2734 6.4766-1.4722-.0007-2.667-1.1947-2.667-2.667s1.1948-2.6663 2.667-2.667c3.0754-.0005 5.8815-1.64 8.0781-4.4375 2.2061-2.81 3.6154-6.5907 3.8487-10.2656.2335-3.6857-.7235-6.9304-2.794-9.044-.8255-.8423-1.9082-1.5794-3.3076-2.1045-1.7331-.4927-3.5537-.7726-5.4346-.8066z" fill="#000"/></svg>