<svg fill="none" height="24" viewBox="0 0 24 24" width="24" xmlns="http://www.w3.org/2000/svg"><path clip-rule="evenodd" d="m19 19.0001c0 .552-.449 1-1 1h-11.99998c-.551 0-1-.448-1-1v-11.00004c0-.552.449-1 1-1v1c0 1.10301.897 2.00004 2 2.00004h7.99998c1.103 0 2-.89703 2-2.00004v-1c.551 0 1 .448 1 1zm-10.99998-15.00003 7.99998.003v.99699 3h-7.99998v-3zm9.99998.99993v-1c0-1.103-.897-2-2-2h-8c-1.103 0-2 .897-2 2v1c-1.654 0-3 1.346-3 3v11c0 1.654 1.346 3 3 3h12c1.654 0 3-1.346 3-3v-11c0-1.654-1.346-3-3-3z" fill="#6b7280" fill-rule="evenodd"/></svg>