<svg fill="none" height="64" viewBox="0 0 64 64" width="64" xmlns="http://www.w3.org/2000/svg"><path clip-rule="evenodd" d="m50.6667 50.667c0 1.472-1.1973 2.6667-2.6667 2.6667h-32c-1.4693 0-2.6666-1.1947-2.6666-2.6667v-29.3333c0-1.472 1.1973-2.6667 2.6666-2.6667v2.6667c0 2.9413 2.392 5.3333 5.3334 5.3333h21.3333c2.9413 0 5.3333-2.392 5.3333-5.3333v-2.6667c1.4694 0 2.6667 1.1947 2.6667 2.6667zm-29.3333-40 21.3333.008v2.6587 8h-21.3333v-8zm26.6666 2.6665v-2.6667c0-2.9413-2.392-5.3333-5.3333-5.3333h-21.3334c-2.9413 0-5.3333 2.392-5.3333 5.3333v2.6667c-4.4107 0-8 3.5893-8 8v29.3333c0 4.4107 3.5893 8 8 8h32c4.4107 0 8-3.5893 8-8v-29.3333c0-4.4107-3.5893-8-8-8z" fill="#6b7280" fill-rule="evenodd"/></svg>