<svg fill="none" height="64" viewBox="0 0 64 64" width="64" xmlns="http://www.w3.org/2000/svg"><path clip-rule="evenodd" d="m42.6667 29.3337h-8v-8c0-1.4747-1.1947-2.6667-2.6667-2.6667s-2.6666 1.192-2.6666 2.6667v10.6666c0 1.4747 1.1946 2.6667 2.6666 2.6667h10.6667c1.4747 0 2.6667-1.192 2.6667-2.6667 0-1.4746-1.192-2.6666-2.6667-2.6666zm-10.6666 24c-11.7627 0-21.3333-9.5707-21.3333-21.3334 0-11.7626 9.5706-21.3333 21.3333-21.3333 11.7626 0 21.3333 9.5707 21.3333 21.3333 0 11.7627-9.5707 21.3334-21.3333 21.3334zm-.0001-48.0002c-14.704 0-26.66663 11.9627-26.66663 26.6667s11.96263 26.6666 26.66663 26.6666 26.6667-11.9626 26.6667-26.6666-11.9627-26.6667-26.6667-26.6667z" fill="#6b7280" fill-rule="evenodd"/></svg>