<svg width="64" height="64" viewBox="0 0 64 64" fill="none" xmlns="http://www.w3.org/2000/svg">
<path d="M32.0004 5.3335C46.7042 5.33367 58.6664 17.2966 58.6664 32.0005C58.6662 46.7042 46.7041 58.6663 32.0004 58.6665C17.2965 58.6665 5.33355 46.7043 5.33337 32.0005C5.33337 17.2965 17.2964 5.3335 32.0004 5.3335ZM32.0004 10.6675C20.2377 10.6675 10.6664 20.2378 10.6664 32.0005C10.6665 43.7631 20.2378 53.3335 32.0004 53.3335C43.7629 53.3333 53.3333 43.763 53.3334 32.0005C53.3334 20.2379 43.7629 10.6676 32.0004 10.6675ZM36.5238 19.3345C37.2602 18.0591 38.892 17.6217 40.1674 18.3579C41.4425 19.0943 41.8799 20.7252 41.1439 22.0005L34.4769 33.5474C33.7406 34.8226 32.1097 35.2599 30.8344 34.5239C29.5591 33.7876 29.1218 32.1567 29.8578 30.8813L36.5238 19.3345Z" fill="black"/>
</svg>
