<svg fill="none" height="64" viewBox="0 0 64 64" width="64" xmlns="http://www.w3.org/2000/svg"><path clip-rule="evenodd" d="m39.2186 24.7813c-1.0426-1.0426-2.728-1.0426-3.7706 0l-3.448 3.448-3.448-3.448c-1.0427-1.0426-2.728-1.0426-3.7707 0-1.0427 1.0427-1.0427 2.728 0 3.7707l3.448 3.448-3.448 3.448c-1.0427 1.0427-1.0427 2.728 0 3.7707.52.52 1.2027.7813 1.8853.7813.6827 0 1.3654-.2613 1.8854-.7813l3.448-3.448 3.448 3.448c.52.52 1.2026.7813 1.8853.7813s1.3653-.2613 1.8853-.7813c1.0427-1.0427 1.0427-2.728 0-3.7707l-3.448-3.448 3.448-3.448c1.0427-1.0427 1.0427-2.728 0-3.7707zm-7.2185 28.5524c-11.7627 0-21.3333-9.5707-21.3333-21.3334 0-11.7626 9.5706-21.3333 21.3333-21.3333 11.7626 0 21.3333 9.5707 21.3333 21.3333 0 11.7627-9.5707 21.3334-21.3333 21.3334zm-.0001-48.0002c-14.704 0-26.66663 11.9627-26.66663 26.6667s11.96263 26.6666 26.66663 26.6666 26.6667-11.9626 26.6667-26.6666-11.9627-26.6667-26.6667-26.6667z" fill="#6b7280" fill-rule="evenodd"/></svg>