<svg fill="none" height="24" viewBox="0 0 24 24" width="24" xmlns="http://www.w3.org/2000/svg"><path clip-rule="evenodd" d="m14.707 9.29294c-.391-.391-1.023-.391-1.414 0l-1.293 1.29296-1.293-1.29296c-.391-.391-1.02302-.391-1.41402 0s-.391 1.02296 0 1.41396l1.29302 1.293-1.29302 1.293c-.391.391-.391 1.023 0 1.414.195.195.451.293.707.293.25602 0 .51202-.098.70702-.293l1.293-1.293 1.293 1.293c.195.195.451.293.707.293s.512-.098.707-.293c.391-.391.391-1.023 0-1.414l-1.293-1.293 1.293-1.293c.391-.391.391-1.02296 0-1.41396zm-2.707 10.70716c-4.41098 0-7.99998-3.589-7.99998-8 0-4.41104 3.589-8.00003 7.99998-8.00003 4.411 0 8 3.58899 8 8.00003 0 4.411-3.589 8-8 8zm0-18.0001c-5.514 0-10 4.486-10 10s4.486 10 10 10 10-4.486 10-10-4.486-10-10-10z" fill="#6b7280" fill-rule="evenodd"/></svg>