<svg fill="none" height="64" viewBox="0 0 64 64" width="64" xmlns="http://www.w3.org/2000/svg"><path clip-rule="evenodd" d="m35.771 31.9999 11.448-11.448c1.0427-1.0426 1.0427-2.728 0-3.7706-1.0426-1.0427-2.728-1.0427-3.7706 0l-11.448 11.448-11.448-11.448c-1.0427-1.0427-2.728-1.0427-3.7707 0-1.0427 1.0426-1.0427 2.728 0 3.7706l11.448 11.448-11.448 11.448c-1.0427 1.0427-1.0427 2.728 0 3.7707.52.52 1.2027.7813 1.8853.7813.6827 0 1.3654-.2613 1.8854-.7813l11.448-11.448 11.448 11.448c.52.52 1.2026.7813 1.8853.7813s1.3653-.2613 1.8853-.7813c1.0427-1.0427 1.0427-2.728 0-3.7707z" fill="#6b7280" fill-rule="evenodd"/></svg>