<svg width="24" height="24" viewBox="0 0 24 24" fill="none" xmlns="http://www.w3.org/2000/svg">
<g id="Icon/Outline/cloud-upload">
<path id="Mask" fill-rule="evenodd" clip-rule="evenodd" d="M11.9998 2.99988C14.5808 2.99988 16.8548 4.66088 17.6748 7.04488C20.1138 7.37588 21.9998 9.47188 21.9998 11.9999C21.9998 13.2209 21.5558 14.3959 20.7498 15.3089C20.5518 15.5319 20.2768 15.6469 19.9998 15.6469C19.7648 15.6469 19.5288 15.5649 19.3378 15.3969C18.9248 15.0299 18.8848 14.3989 19.2508 13.9839C19.7338 13.4379 19.9998 12.7319 19.9998 11.9999C19.9998 10.3459 18.6538 8.99988 16.9998 8.99988H16.8998C16.4238 8.99988 16.0138 8.66388 15.9198 8.19688C15.5458 6.34488 13.8978 4.99988 11.9998 4.99988C10.1028 4.99988 8.45379 6.34488 8.08079 8.19688C7.98679 8.66388 7.57579 8.99988 7.09979 8.99988H6.99979C5.34579 8.99988 3.99979 10.3459 3.99979 11.9999C3.99979 12.7319 4.26579 13.4379 4.74979 13.9839C5.11479 14.3989 5.07579 15.0299 4.66179 15.3969C4.24779 15.7629 3.61579 15.7219 3.25079 15.3089C2.44379 14.3959 1.99979 13.2209 1.99979 11.9999C1.99979 9.47188 3.88579 7.37588 6.32479 7.04488C7.14579 4.66088 9.41979 2.99988 11.9998 2.99988ZM11.305 11.28C11.699 10.904 12.322 10.907 12.707 11.293L15.707 14.293C16.098 14.684 16.098 15.316 15.707 15.707C15.512 15.902 15.256 16 15 16C14.744 16 14.488 15.902 14.293 15.707L13 14.414V20C13 20.553 12.552 21 12 21C11.448 21 11 20.553 11 20V14.356L9.69499 15.616C9.29799 16.001 8.66499 15.988 8.28099 15.591C7.89699 15.193 7.90799 14.561 8.30499 14.177L11.305 11.28Z" fill="#231F20"/>
<mask id="mask0" mask-type="alpha" maskUnits="userSpaceOnUse" x="1" y="2" width="21" height="19">
<path id="Mask_2" fill-rule="evenodd" clip-rule="evenodd" d="M11.9998 2.99988C14.5808 2.99988 16.8548 4.66088 17.6748 7.04488C20.1138 7.37588 21.9998 9.47188 21.9998 11.9999C21.9998 13.2209 21.5558 14.3959 20.7498 15.3089C20.5518 15.5319 20.2768 15.6469 19.9998 15.6469C19.7648 15.6469 19.5288 15.5649 19.3378 15.3969C18.9248 15.0299 18.8848 14.3989 19.2508 13.9839C19.7338 13.4379 19.9998 12.7319 19.9998 11.9999C19.9998 10.3459 18.6538 8.99988 16.9998 8.99988H16.8998C16.4238 8.99988 16.0138 8.66388 15.9198 8.19688C15.5458 6.34488 13.8978 4.99988 11.9998 4.99988C10.1028 4.99988 8.45379 6.34488 8.08079 8.19688C7.98679 8.66388 7.57579 8.99988 7.09979 8.99988H6.99979C5.34579 8.99988 3.99979 10.3459 3.99979 11.9999C3.99979 12.7319 4.26579 13.4379 4.74979 13.9839C5.11479 14.3989 5.07579 15.0299 4.66179 15.3969C4.24779 15.7629 3.61579 15.7219 3.25079 15.3089C2.44379 14.3959 1.99979 13.2209 1.99979 11.9999C1.99979 9.47188 3.88579 7.37588 6.32479 7.04488C7.14579 4.66088 9.41979 2.99988 11.9998 2.99988ZM11.305 11.28C11.699 10.904 12.322 10.907 12.707 11.293L15.707 14.293C16.098 14.684 16.098 15.316 15.707 15.707C15.512 15.902 15.256 16 15 16C14.744 16 14.488 15.902 14.293 15.707L13 14.414V20C13 20.553 12.552 21 12 21C11.448 21 11 20.553 11 20V14.356L9.69499 15.616C9.29799 16.001 8.66499 15.988 8.28099 15.591C7.89699 15.193 7.90799 14.561 8.30499 14.177L11.305 11.28Z" fill="white"/>
</mask>
<g mask="url(#mask0)">
<g id="&#240;&#159;&#142;&#168; Color">
<rect id="Base" width="24" height="24" fill="#0D1C2E"/>
</g>
</g>
</g>
</svg>
