<svg fill="none" height="64" viewBox="0 0 64 64" width="64" xmlns="http://www.w3.org/2000/svg"><path clip-rule="evenodd" d="m31.9995 7.99976c6.8827 0 12.9467 4.42934 15.1333 10.78664 6.504.8827 11.5334 6.472 11.5334 13.2134 0 3.256-1.184 6.3893-3.3334 8.824-.528.5946-1.2613.9013-2 .9013-.6266 0-1.256-.2187-1.7653-.6667-1.1013-.9786-1.208-2.6613-.232-3.768 1.288-1.456 1.9973-3.3386 1.9973-5.2906 0-4.4107-3.5893-8-8-8h-.2666c-1.2694 0-2.3627-.896-2.6134-2.1414-.9973-4.9386-5.392-8.5253-10.4533-8.5253-5.0587 0-9.456 3.5867-10.4507 8.5253-.2506 1.2454-1.3466 2.1414-2.616 2.1414h-.2666c-4.4107 0-8 3.5893-8 8 0 1.952.7093 3.8346 2 5.2906.9733 1.1067.8693 2.7894-.2347 3.768-1.1067.976-2.78934.8667-3.76268-.2346-2.152-2.4347-3.336-5.568-3.336-8.824 0-6.7414 5.02938-12.3307 11.53338-13.2134 2.1893-6.3573 8.2533-10.78664 15.1333-10.78664zm2.6676 39.05054 3.48-3.36c1.0613-1.0213 2.7493-.992 3.7707.0667 1.024 1.0613.9946 2.7493-.064 3.7707l-8 7.7253c-.52.496-1.1867.7467-1.8534.7467-.6826 0-1.3653-.2587-1.8853-.7814l-8-8c-1.0426-1.04-1.0426-2.728 0-3.7706 1.04-1.04 2.728-1.04 3.7707 0l3.448 3.448v-14.896c0-1.4747 1.1946-2.6667 2.6666-2.6667s2.6667 1.192 2.6667 2.6667z" fill="#6b7280" fill-rule="evenodd"/></svg>