<svg fill="none" height="24" viewBox="0 0 24 24" width="24" xmlns="http://www.w3.org/2000/svg"><path clip-rule="evenodd" d="m11.9998 3c2.581 0 4.855 1.661 5.675 4.045 2.439.331 4.325 2.427 4.325 4.955 0 1.221-.444 2.396-1.25 3.309-.198.223-.473.338-.75.338-.235 0-.471-.082-.662-.25-.413-.367-.453-.998-.087-1.413.483-.546.749-1.252.749-1.984 0-1.654-1.346-3-3-3h-.1c-.476 0-.886-.336-.98-.803-.374-1.852-2.022-3.197-3.92-3.197-1.897 0-3.54598 1.345-3.91898 3.197-.094.467-.505.803-.981.803h-.1c-1.654 0-3 1.346-3 3 0 .732.266 1.438.75 1.984.365.415.326 1.046-.088 1.413-.415.366-1.046.325-1.411-.088-.807-.913-1.251-2.088-1.251-3.309 0-2.528 1.886-4.624 4.325-4.955.821-2.384 3.095-4.045 5.67498-4.045zm1.0004 14.644 1.305-1.26c.398-.383 1.031-.372 1.414.025.384.398.373 1.031-.024 1.414l-3 2.897c-.195.186-.445.28-.695.28-.256 0-.512-.097-.707-.293l-3.00002-3c-.391-.39-.391-1.023 0-1.414.39-.39 1.023-.39 1.414 0l1.29302 1.293v-5.586c0-.553.448-1 1-1s1 .447 1 1z" fill="#6b7280" fill-rule="evenodd"/></svg>