<svg width="24" height="24" viewBox="0 0 24 24" fill="none" xmlns="http://www.w3.org/2000/svg">
<g id="Icon/Outline/code">
<path id="Mask" fill-rule="evenodd" clip-rule="evenodd" d="M16.9513 5.373L21.7793 11.373C22.0783 11.744 22.0733 12.274 21.7683 12.641L16.7683 18.641C16.5703 18.878 16.2863 19 15.9993 19C15.7733 19 15.5473 18.924 15.3593 18.769C14.9353 18.415 14.8783 17.784 15.2313 17.359L19.7083 11.989L15.3923 6.627C15.0473 6.196 15.1143 5.567 15.5453 5.221C15.9753 4.873 16.6043 4.943 16.9513 5.373ZM7.23161 5.3594C7.58461 4.9354 8.21361 4.8784 8.64061 5.2314C9.06461 5.5854 9.12161 6.2154 8.76861 6.6404L4.29161 12.0104L8.60761 17.3734C8.95261 17.8034 8.88561 18.4324 8.45461 18.7794C8.27061 18.9274 8.04861 19.0004 7.82861 19.0004C7.53661 19.0004 7.24661 18.8724 7.04861 18.6274L2.22061 12.6274C1.92161 12.2554 1.92661 11.7254 2.23161 11.3594L7.23161 5.3594Z" fill="#231F20"/>
<mask id="mask0" mask-type="alpha" maskUnits="userSpaceOnUse" x="1" y="4" width="22" height="16">
<path id="Mask_2" fill-rule="evenodd" clip-rule="evenodd" d="M16.9513 5.373L21.7793 11.373C22.0783 11.744 22.0733 12.274 21.7683 12.641L16.7683 18.641C16.5703 18.878 16.2863 19 15.9993 19C15.7733 19 15.5473 18.924 15.3593 18.769C14.9353 18.415 14.8783 17.784 15.2313 17.359L19.7083 11.989L15.3923 6.627C15.0473 6.196 15.1143 5.567 15.5453 5.221C15.9753 4.873 16.6043 4.943 16.9513 5.373ZM7.23161 5.3594C7.58461 4.9354 8.21361 4.8784 8.64061 5.2314C9.06461 5.5854 9.12161 6.2154 8.76861 6.6404L4.29161 12.0104L8.60761 17.3734C8.95261 17.8034 8.88561 18.4324 8.45461 18.7794C8.27061 18.9274 8.04861 19.0004 7.82861 19.0004C7.53661 19.0004 7.24661 18.8724 7.04861 18.6274L2.22061 12.6274C1.92161 12.2554 1.92661 11.7254 2.23161 11.3594L7.23161 5.3594Z" fill="white"/>
</mask>
<g mask="url(#mask0)">
<g id="&#240;&#159;&#142;&#168; Color">
<rect id="Base" width="24" height="24" fill="#0D1C2E"/>
</g>
</g>
</g>
</svg>
