<svg width="24" height="24" viewBox="0 0 24 24" fill="none" xmlns="http://www.w3.org/2000/svg">
<g id="Icon/Outline/code-download">
<path id="Mask" fill-rule="evenodd" clip-rule="evenodd" d="M21.7793 11.373L16.9513 5.373C16.6033 4.943 15.9743 4.873 15.5453 5.221C15.1143 5.567 15.0473 6.196 15.3923 6.627L19.7083 11.989L15.2313 17.359C14.8783 17.784 14.9353 18.415 15.3593 18.769C15.5473 18.924 15.7733 19 15.9993 19C16.2863 19 16.5703 18.878 16.7683 18.641L21.7683 12.641C22.0733 12.274 22.0783 11.744 21.7793 11.373ZM4.29201 12.0107L8.76901 6.6407C9.12201 6.2157 9.06401 5.5847 8.64101 5.2317C8.21501 4.8787 7.58601 4.9357 7.23101 5.3597L2.23101 11.3597C1.92701 11.7257 1.92201 12.2557 2.22101 12.6267L7.04901 18.6267C7.24701 18.8717 7.53601 18.9997 7.82901 18.9997C8.04901 18.9997 8.27101 18.9277 8.45501 18.7797C8.88601 18.4327 8.95301 17.8037 8.60701 17.3727L4.29201 12.0107ZM14.3057 11.3842C14.7017 11.0002 15.3367 11.0132 15.7197 11.4092C16.1027 11.8062 16.0917 12.4392 15.6947 12.8232L12.6947 15.7202C12.5007 15.9062 12.2497 16.0002 11.9997 16.0002C11.7437 16.0002 11.4887 15.9022 11.2927 15.7072L8.29271 12.7072C7.90271 12.3162 7.90271 11.6832 8.29271 11.2932C8.68371 10.9022 9.31671 10.9022 9.70671 11.2932L10.9997 12.5852V8.0002C10.9997 7.4472 11.4477 7.0002 11.9997 7.0002C12.5527 7.0002 12.9997 7.4472 12.9997 8.0002V12.6442L14.3057 11.3842Z" fill="#231F20"/>
<mask id="mask0" mask-type="alpha" maskUnits="userSpaceOnUse" x="1" y="4" width="22" height="15">
<path id="Mask_2" fill-rule="evenodd" clip-rule="evenodd" d="M21.7793 11.373L16.9513 5.373C16.6033 4.943 15.9743 4.873 15.5453 5.221C15.1143 5.567 15.0473 6.196 15.3923 6.627L19.7083 11.989L15.2313 17.359C14.8783 17.784 14.9353 18.415 15.3593 18.769C15.5473 18.924 15.7733 19 15.9993 19C16.2863 19 16.5703 18.878 16.7683 18.641L21.7683 12.641C22.0733 12.274 22.0783 11.744 21.7793 11.373ZM4.29201 12.0107L8.76901 6.6407C9.12201 6.2157 9.06401 5.5847 8.64101 5.2317C8.21501 4.8787 7.58601 4.9357 7.23101 5.3597L2.23101 11.3597C1.92701 11.7257 1.92201 12.2557 2.22101 12.6267L7.04901 18.6267C7.24701 18.8717 7.53601 18.9997 7.82901 18.9997C8.04901 18.9997 8.27101 18.9277 8.45501 18.7797C8.88601 18.4327 8.95301 17.8037 8.60701 17.3727L4.29201 12.0107ZM14.3057 11.3842C14.7017 11.0002 15.3367 11.0132 15.7197 11.4092C16.1027 11.8062 16.0917 12.4392 15.6947 12.8232L12.6947 15.7202C12.5007 15.9062 12.2497 16.0002 11.9997 16.0002C11.7437 16.0002 11.4887 15.9022 11.2927 15.7072L8.29271 12.7072C7.90271 12.3162 7.90271 11.6832 8.29271 11.2932C8.68371 10.9022 9.31671 10.9022 9.70671 11.2932L10.9997 12.5852V8.0002C10.9997 7.4472 11.4477 7.0002 11.9997 7.0002C12.5527 7.0002 12.9997 7.4472 12.9997 8.0002V12.6442L14.3057 11.3842Z" fill="white"/>
</mask>
<g mask="url(#mask0)">
<g id="&#240;&#159;&#142;&#168; Color">
<rect id="Base" width="24" height="24" fill="#0D1C2E"/>
</g>
</g>
</g>
</svg>
