<svg width="64" height="64" viewBox="0 0 64 64" fill="none" xmlns="http://www.w3.org/2000/svg">
<path d="M34.8187 9.76132C35.2787 8.48765 36.6373 7.74505 37.9795 8.08046C39.4113 8.4384 40.2815 9.88773 39.924 11.3195L29.2619 53.9751L29.181 54.2387C28.7212 55.5124 27.3624 56.2549 26.0203 55.9196C24.5885 55.5616 23.7182 54.1123 24.0758 52.6805L34.7378 10.0249L34.8187 9.76132ZM16.7807 19.4471C17.8245 18.4034 19.5163 18.4034 20.5601 19.4471C21.6032 20.4909 21.6036 22.1829 20.5601 23.2264L11.7851 31.9987L20.5601 40.7736L20.7428 40.9772C21.5989 42.0267 21.538 43.5743 20.5601 44.5529C19.5815 45.5315 18.0315 45.5947 16.9817 44.7382L16.7807 44.5529L6.11612 33.891C5.07238 32.8472 5.07238 31.1528 6.11612 30.1091L16.7807 19.4471ZM43.4397 19.4471C44.4178 18.469 45.9657 18.4067 47.0154 19.2618L47.219 19.4471L57.8836 30.1091L58.0611 30.3074C58.4504 30.7829 58.6666 31.3814 58.6666 32.0013C58.6663 32.7097 58.3846 33.39 57.8836 33.891L47.219 44.5529C46.1753 45.5967 44.4834 45.5967 43.4397 44.5529C42.3965 43.5091 42.3961 41.8172 43.4397 40.7736L52.212 31.9987L43.4397 23.2264L43.257 23.0228C42.4008 21.9733 42.4616 20.4257 43.4397 19.4471Z" fill="#141414"/>
</svg>
