<svg fill="none" height="64" viewBox="0 0 64 64" width="64" xmlns="http://www.w3.org/2000/svg"><path clip-rule="evenodd" d="m58.0781 30.328-12.8747-16c-.928-1.1467-2.6053-1.3333-3.7493-.4053-1.1494.9226-1.328 2.6-.408 3.7493l11.5093 14.2987-11.9387 14.32c-.9413 1.1333-.7893 2.816.3414 3.76.5013.4133 1.104.616 1.7066.616.7654 0 1.5227-.3254 2.0507-.9574l13.3333-16c.8134-.9786.8267-2.392.0294-3.3813zm-46.6328 1.7005 11.9387-14.32c.9413-1.1333.7866-2.816-.3414-3.7573-1.136-.9413-2.8133-.7893-3.76.3413l-13.33329 16c-.81066.976-.824 2.3894-.02666 3.3787l12.87465 16c.528.6533 1.2987.9947 2.08.9947.5867 0 1.1787-.192 1.6693-.5867 1.1494-.9253 1.328-2.6027.4054-3.752zm26.7032-1.6709c1.056-1.024 2.7494-.9893 3.7707.0667 1.0213 1.0586.992 2.7466-.0667 3.7706l-8 7.7254c-.5173.496-1.1866.7466-1.8533.7466-.6827 0-1.3627-.2613-1.8853-.7813l-8-8c-1.04-1.0427-1.04-2.7307 0-3.7707 1.0426-1.0426 2.7306-1.0426 3.7706 0l3.448 3.4454v-12.2267c0-1.4747 1.1947-2.6667 2.6667-2.6667 1.4747 0 2.6667 1.192 2.6667 2.6667v12.384z" fill="#6b7280" fill-rule="evenodd"/></svg>