<svg fill="none" height="64" viewBox="0 0 64 64" width="64" xmlns="http://www.w3.org/2000/svg"><path clip-rule="evenodd" d="m28.0001 17.3336c0-2.208 1.792-4 4-4s4 1.792 4 4-1.792 4-4 4-4-1.792-4-4zm11.2026 7.334c-1.104-1.912-.448-4.36 1.464-5.464 1.9147-1.104 4.36-.448 5.464 1.464 1.104 1.9147.448 4.36-1.464 5.464-1.9146 1.104-4.36.4507-5.464-1.464zm-15.8692-5.464c-1.912-1.104-4.36-.448-5.464 1.464-1.104 1.9147-.448 4.36 1.464 5.464 1.9146 1.104 4.36.4507 5.464-1.464 1.104-1.912.4506-4.36-1.464-5.464zm-7.9812 16.3668c-1.2373-1.8293-.7546-4.3173 1.0774-5.552 1.832-1.2373 4.3173-.752 5.552 1.0773 1.2373 1.832.752 4.3174-1.0774 5.552-1.832 1.2374-4.3173.7547-5.552-1.0773zm26.9967 4.4327h-4.4c-3.6774 0-6.6667 2.9893-6.6667 6.6667 0 1.616.5973 3.1813 1.6827 4.408.3306.3733.44.8133.3226 1.3013-.1306.5467-.76.9013-1.584.9547-6.088-.0827-11.8666-2.7787-15.856-7.3947-4.04-4.68-5.8106-10.6773-4.984-16.8853 1.3627-10.2214 10.5547-18.2987 20.9307-18.3867h.2c6.2853 0 12.208 2.4 16.2853 6.608 3.4347 3.544 5.2267 8.064 5.04 12.7253-.2106 5.328-5.3386 10.0027-10.9706 10.0027zm9.7574-26.4428c-5.128-5.29072-12.6-8.24538-20.3573-8.22672h-.0027c-13.184.112-24.43735 10.00532-26.16802 23.01602-1.01866 7.6266 1.256 15.3093 6.23472 21.0746 4.9813 5.7707 12.2053 9.1387 19.816 9.2427h.1013c3.2 0 6.0213-2.0987 6.7387-5.0293.5306-2.192-.0214-4.416-1.512-6.1014-.2187-.2426-.3414-.56-.3414-.8666 0-.7334.5974-1.3334 1.3334-1.3334h4.4c8.5119 0 15.976-6.928 16.2986-15.1253.2454-6.1333-2.0773-12.0453-6.5413-16.6506z" fill="#6b7280" fill-rule="evenodd"/></svg>