<svg fill="none" height="24" viewBox="0 0 24 24" width="24" xmlns="http://www.w3.org/2000/svg"><path clip-rule="evenodd" d="m16.0557 10.6417-2.696-2.69601 1.912-1.911 2.694 2.694zm-6.97696 6.9829-2.976.271.264-2.956 5.57896-5.58 2.696 2.696zm10.32396-10.28807-2.74-2.739c-.767-.768-1.986-.796-2.714-.068l-2.003 2.002-1.239-1.239c-.39-.39-1.02299-.39-1.41399 0-.39.391-.39 1.024 0 1.414l1.23899 1.239-5.57999 5.57997c-.325.325-.527.757-.569 1.214l-.379 4.17c-.026.295.079.587.289.797.189.189.444.293.707.293.031 0 .061-.001.091-.004l4.17-.378c.457-.042.88899-.245 1.21399-.57l5.58-5.579 1.238 1.238c.196.196.451.293.707.293s.512-.097.707-.293c.391-.39.391-1.023 0-1.414l-1.238-1.238 2.002-2.003c.73-.72897.699-1.94697-.068-2.71497z" fill="#6b7280" fill-rule="evenodd"/></svg>