<svg fill="none" height="64" viewBox="0 0 64 64" width="64" xmlns="http://www.w3.org/2000/svg"><path clip-rule="evenodd" d="m42.8152 28.3778-7.1893-7.1893 5.0986-5.096 7.1841 7.184zm-18.6052 18.6211-7.936.7227.704-7.8827 14.8773-14.88 7.1893 7.1894zm27.5306-27.4348-7.3067-7.304c-2.0453-2.048-5.296-2.1227-7.2373-.1814l-5.3413 5.3387-3.304-3.304c-1.04-1.04-2.728-1.04-3.7707 0-1.04 1.0427-1.04 2.7307 0 3.7707l3.304 3.304-14.88 14.88c-.8667.8666-1.4053 2.0186-1.5173 3.2373l-1.0107 11.12c-.0693.7867.2107 1.5653.7707 2.1253.504.504 1.184.7814 1.8853.7814.0827 0 .1627-.0027.2427-.0107l11.12-1.008c1.2186-.112 2.3706-.6533 3.2373-1.52l14.88-14.8773 3.3013 3.3013c.5227.5227 1.2027.7813 1.8853.7813.6827 0 1.3654-.2586 1.8854-.7813 1.0426-1.04 1.0426-2.728 0-3.7707l-3.3014-3.3013 5.3387-5.3413c1.9467-1.944 1.864-5.192-.1813-7.24z" fill="#6b7280" fill-rule="evenodd"/></svg>