<svg fill="none" height="24" viewBox="0 0 24 24" width="24" xmlns="http://www.w3.org/2000/svg"><path clip-rule="evenodd" d="m10.5 6.50003c0-.828.672-1.5 1.5-1.5s1.5.672 1.5 1.5-.672 1.5-1.5 1.5-1.5-.672-1.5-1.5zm4.201 2.75027c-.414-.717-.168-1.635.549-2.049.718-.414 1.635-.168 2.049.549.414.718.168 1.635-.549 2.049-.718.414-1.635.169-2.049-.549zm-5.95095-2.049c-.717-.414-1.635-.168-2.049.549-.414.718-.168 1.635.549 2.049.718.414 1.635.169 2.049-.549.414-.717.169-1.635-.549-2.049zm-2.99293 6.1375c-.464-.686-.283-1.619.404-2.082.687-.464 1.619-.282 2.082.404.464.687.282 1.619-.404 2.082-.687.464-1.619.283-2.082-.404zm10.12378 1.6623h-1.65c-1.379 0-2.5 1.121-2.5 2.5 0 .606.224 1.193.631 1.653.124.14.165.305.121.488-.049.205-.285.338-.594.358-2.28304-.031-4.45004-1.042-5.94604-2.773-1.515-1.755-2.179-4.004-1.869-6.332.511-3.833 3.958-6.862 7.84904-6.895h.075c2.357 0 4.578.9 6.107 2.478 1.288 1.329 1.96 3.024 1.89 4.772-.079 1.998-2.002 3.751-4.114 3.751zm3.659-9.91607c-1.923-1.984-4.725-3.092-7.634-3.085h-.001c-4.94401.042-9.16401 3.752-9.81301 8.63097-.382 2.86.471 5.741 2.338 7.903 1.868 2.164 4.577 3.427 7.43101 3.466h.038c1.2 0 2.258-.787 2.527-1.886.199-.822-.008-1.656-.567-2.288-.082-.091-.128-.21-.128-.325 0-.275.224-.5.5-.5h1.65c3.192 0 5.991-2.598 6.112-5.672.092-2.29997-.779-4.51697-2.453-6.24397z" fill="#6b7280" fill-rule="evenodd"/></svg>