<svg fill="none" height="64" viewBox="0 0 64 64" width="64" xmlns="http://www.w3.org/2000/svg"><path clip-rule="evenodd" d="m28.7918 35.2344 1.904-4.6453 4.512-1.824-1.904 4.6453zm13.0292-13.0531c-.7306-.7733-1.8773-1.072-2.9306-.656l-11.2347 4.5387c-.6667.2693-1.1973.7947-1.4693 1.4613l-4.6534 11.3547c-.3946.9627-.1626 2.0027.4747 2.7413.0213.0267.0373.0614.0613.0907.0427.0453.0934.0827.1414.128.5013.5147 1.1813.8267 1.9013.8267.3333 0 .672-.0614.9973-.192l11.2347-4.536c.6667-.272 1.1973-.7974 1.4693-1.464l4.6534-11.3547c.432-1.0507.1333-2.2027-.6454-2.9387zm-9.8209 31.1524c-11.7627 0-21.3333-9.5707-21.3333-21.3334 0-11.7626 9.5706-21.3333 21.3333-21.3333s21.3333 9.5707 21.3333 21.3333c0 11.7627-9.5706 21.3334-21.3333 21.3334zm-.0001-48.0002c-14.704 0-26.66662 11.9627-26.66662 26.6667s11.96262 26.6666 26.66662 26.6666 26.6667-11.9626 26.6667-26.6666-11.9627-26.6667-26.6667-26.6667z" fill="#6b7280" fill-rule="evenodd"/></svg>