<svg fill="none" height="24" viewBox="0 0 24 24" width="24" xmlns="http://www.w3.org/2000/svg"><path clip-rule="evenodd" d="m9 13v-1c0-1.654 1.346-3 3-3h1v-3.333c0-.368-.299-.667-.667-.667h-6.666c-.368 0-.667.299-.667.667v6.666c0 .368.299.667.667.667zm0 2h-3.333c-1.471 0-2.667-1.196-2.667-2.667v-6.666c0-1.471 1.196-2.667 2.667-2.667h6.666c1.471 0 2.667 1.196 2.667 2.667v3.333h3c1.654 0 3 1.346 3 3v6c0 1.654-1.346 3-3 3h-6c-1.654 0-3-1.346-3-3zm2-2.9999c0-.551.449-1 1-1h6c.552 0 1 .449 1 1v6c0 .551-.448 1-1 1h-6c-.551 0-1-.449-1-1z" fill="#6b7280" fill-rule="evenodd"/></svg>