<svg fill="none" height="64" viewBox="0 0 64 64" width="64" xmlns="http://www.w3.org/2000/svg"><path clip-rule="evenodd" d="m24 34.6667v-2.6667c0-4.4107 3.5893-8 8-8h2.6667v-8.888c0-.9813-.7974-1.7787-1.7787-1.7787h-17.776c-.9813 0-1.7787.7974-1.7787 1.7787v17.776c0 .9813.7974 1.7787 1.7787 1.7787zm0 5.3333h-8.888c-3.9227 0-7.112-3.1893-7.112-7.112v-17.776c0-3.9227 3.1893-7.112 7.112-7.112h17.776c3.9227 0 7.112 3.1893 7.112 7.112v8.888h8c4.4107 0 8 3.5893 8 8v16c0 4.4107-3.5893 8-8 8h-16c-4.4107 0-8-3.5893-8-8zm5.3334-7.9998c0-1.4694 1.1973-2.6667 2.6666-2.6667h16c1.472 0 2.6667 1.1973 2.6667 2.6667v16c0 1.4693-1.1947 2.6666-2.6667 2.6666h-16c-1.4693 0-2.6666-1.1973-2.6666-2.6666z" fill="#6b7280" fill-rule="evenodd"/></svg>