<svg fill="none" height="64" viewBox="0 0 64 64" width="64" xmlns="http://www.w3.org/2000/svg"><path clip-rule="evenodd" d="m50.0822 38.3345c-.92-1.152-2.6-1.336-3.7467-.416l-9.0027 7.2v-23.784c0-4.4134-3.5866-8-8-8h-13.3333c-1.472 0-2.6667 1.192-2.6667 2.6666 0 1.472 1.1947 2.6667 2.6667 2.6667h13.3333c1.472 0 2.6667 1.1947 2.6667 2.6667v23.784l-9-7.2c-1.1467-.92-2.8267-.736-3.7493.416-.92 1.1493-.7334 2.8293.4186 3.7466l13.3334 10.6667c.4853.3893 1.0746.5867 1.664.5867.5893 0 1.1786-.1974 1.6666-.5867l13.3334-10.6667c1.1493-.9173 1.336-2.5973.416-3.7466z" fill="#6b7280" fill-rule="evenodd"/></svg>