<svg width="24" height="24" viewBox="0 0 24 24" fill="none" xmlns="http://www.w3.org/2000/svg">
<g id="Icon/Outline/corner-up-left">
<path id="Mask" fill-rule="evenodd" clip-rule="evenodd" d="M16 9.99998H7.081L9.781 6.62498C10.126 6.19298 10.056 5.56398 9.625 5.21898C9.194 4.87498 8.564 4.94298 8.219 5.37498L4.219 10.375C3.927 10.741 3.927 11.259 4.219 11.625L8.219 16.625C8.417 16.872 8.707 17 9 17C9.22 17 9.44 16.928 9.625 16.781C10.056 16.436 10.126 15.807 9.781 15.375L7.081 12H16C16.551 12 17 12.449 17 13V18C17 18.552 17.448 19 18 19C18.552 19 19 18.552 19 18V13C19 11.346 17.654 9.99998 16 9.99998Z" fill="#000000"/>
</g>
</svg>
