<svg fill="none" height="64" viewBox="0 0 64 64" width="64" xmlns="http://www.w3.org/2000/svg"><path clip-rule="evenodd" d="m48.0001 45.3332h-13.3334c-1.4693 0-2.6666-1.1974-2.6666-2.6667v-23.784l9 7.2c.4933.392 1.08.584 1.6666.584.7787 0 1.5547-.3413 2.0827-1 .92-1.152.7333-2.8293-.416-3.7493l-13.3333-10.6667c-.976-.7787-2.3574-.7787-3.3334 0l-13.3333 10.6667c-1.1493.92-1.336 2.5973-.416 3.7493.9173 1.1493 2.6 1.3333 3.7493.416l9-7.2v23.784c0 4.4107 3.5894 8 8 8h13.3334c1.472 0 2.6666-1.1947 2.6666-2.6667s-1.1946-2.6666-2.6666-2.6666z" fill="#6b7280" fill-rule="evenodd"/></svg>