<svg fill="none" height="64" viewBox="0 0 64 64" width="64" xmlns="http://www.w3.org/2000/svg"><path clip-rule="evenodd" d="m52.7487 33.0011-10.6667-13.3333c-.92-1.152-2.6-1.336-3.7466-.416-1.152.9173-1.3387 2.5973-.4187 3.7467l7.2027 9.0026h-23.7867c-1.4693 0-2.6667-1.1973-2.6667-2.6666v-13.3334c0-1.4746-1.1946-2.6666-2.6666-2.6666s-2.6667 1.192-2.6667 2.6666v13.3334c0 4.4106 3.5893 8 8 8h23.7867l-7.2027 9c-.92 1.1493-.7333 2.8293.4187 3.7466.4906.3947 1.08.5867 1.664.5867.7813 0 1.5573-.344 2.0826-1.0027l10.6667-13.3333c.7787-.9733.7787-2.3573 0-3.3307z" fill="#6b7280" fill-rule="evenodd"/></svg>