<svg fill="none" height="64" viewBox="0 0 64 64" width="64" xmlns="http://www.w3.org/2000/svg"><path clip-rule="evenodd" d="m52.7498 27.6681-10.6667-13.3333c-.9253-1.1494-2.6-1.3387-3.7493-.416-1.1493.9173-1.336 2.5973-.416 3.7466l7.2027 9.0027h-23.7867c-4.4133 0-8 3.5867-8 8v13.3333c0 1.472 1.1947 2.6667 2.6667 2.6667s2.6666-1.1947 2.6666-2.6667v-13.3333c0-1.472 1.1947-2.6667 2.6667-2.6667h23.7867l-7.2027 9c-.92 1.1494-.7333 2.8294.416 3.7467.4907.3947 1.08.5867 1.664.5867.784 0 1.5573-.344 2.0853-1.0027l10.6667-13.3333c.7787-.9734.7787-2.3574 0-3.3307z" fill="#6b7280" fill-rule="evenodd"/></svg>