<svg width="24" height="24" viewBox="0 0 24 24" fill="none" xmlns="http://www.w3.org/2000/svg">
<g id="Icon/Outline/corner-down-right">
<path id="Mask" fill-rule="evenodd" clip-rule="evenodd" d="M19.7808 12.3755L15.7808 7.37549C15.4358 6.94349 14.8058 6.87449 14.3758 7.21949C13.9438 7.56349 13.8738 8.19349 14.2188 8.62449L16.9198 12.0005H7.9998C7.4488 12.0005 6.9998 11.5515 6.9998 11.0005V6.00049C6.9998 5.44749 6.5518 5.00049 5.9998 5.00049C5.4478 5.00049 4.9998 5.44749 4.9998 6.00049V11.0005C4.9998 12.6545 6.3458 14.0005 7.9998 14.0005H16.9198L14.2188 17.3755C13.8738 17.8065 13.9438 18.4365 14.3758 18.7805C14.5598 18.9285 14.7808 19.0005 14.9998 19.0005C15.2928 19.0005 15.5838 18.8715 15.7808 18.6245L19.7808 13.6245C20.0728 13.2595 20.0728 12.7405 19.7808 12.3755Z" fill="#231F20"/>
<mask id="mask0" mask-type="alpha" maskUnits="userSpaceOnUse" x="4" y="5" width="16" height="15">
<path id="Mask_2" fill-rule="evenodd" clip-rule="evenodd" d="M19.7808 12.3755L15.7808 7.37549C15.4358 6.94349 14.8058 6.87449 14.3758 7.21949C13.9438 7.56349 13.8738 8.19349 14.2188 8.62449L16.9198 12.0005H7.9998C7.4488 12.0005 6.9998 11.5515 6.9998 11.0005V6.00049C6.9998 5.44749 6.5518 5.00049 5.9998 5.00049C5.4478 5.00049 4.9998 5.44749 4.9998 6.00049V11.0005C4.9998 12.6545 6.3458 14.0005 7.9998 14.0005H16.9198L14.2188 17.3755C13.8738 17.8065 13.9438 18.4365 14.3758 18.7805C14.5598 18.9285 14.7808 19.0005 14.9998 19.0005C15.2928 19.0005 15.5838 18.8715 15.7808 18.6245L19.7808 13.6245C20.0728 13.2595 20.0728 12.7405 19.7808 12.3755Z" fill="white"/>
</mask>
<g mask="url(#mask0)">
<g id="&#240;&#159;&#142;&#168; Color">
<rect id="Base" width="24" height="24" fill="#0D1C2E"/>
</g>
</g>
</g>
</svg>
