<svg fill="none" height="64" viewBox="0 0 64 64" width="64" xmlns="http://www.w3.org/2000/svg"><path clip-rule="evenodd" d="m48.0001 13.3335h-13.3332c-4.4106 0-7.9999 3.5893-7.9999 8v23.784l-8.9999-7.2c-1.1494-.9173-2.832-.7333-3.7493.416-.92 1.152-.7334 2.8293.416 3.7493l13.3332 10.6667c.4879.3893 1.0773.584 1.6666.584s1.1787-.1947 1.6667-.584l13.3331-10.6667c1.1494-.92 1.336-2.5973.416-3.7493-.9173-1.1493-2.5973-1.336-3.7493-.416l-8.9999 7.2v-23.784c0-1.4693 1.1974-2.6667 2.6667-2.6667h13.3332c1.472 0 2.6666-1.1946 2.6666-2.6666s-1.1946-2.6667-2.6666-2.6667z" fill="#6b7280" fill-rule="evenodd"/></svg>