<svg fill="none" height="24" viewBox="0 0 24 24" width="24" xmlns="http://www.w3.org/2000/svg"><path clip-rule="evenodd" d="m19.9705 5.996c-.002-.551-.45-.996-1-.996h-.004c-.552.002-.998.452-.996 1.004l.021 5c0 .267-.102.519-.29.708-.189.19-.439.295-.706.296l-8.91899.037 2.68599-3.386c.343-.433.27-1.062-.162-1.405s-1.06099-.269-1.40499.162l-3.979 5.016c-.291.367-.288.885.005 1.25l4.02 4.983c.198.245.487.372.77899.372.221 0 .443-.073.628-.222.429-.346.497-.976.15-1.406l-2.71399-3.364 8.91899-.037c.801-.003 1.553-.318 2.118-.887.564-.569.873-1.324.87-2.125z" fill="#6b7280" fill-rule="evenodd"/></svg>