<svg width="24" height="24" viewBox="0 0 24 24" fill="none" xmlns="http://www.w3.org/2000/svg">
<g id="Icon/Outline/corner-left-down">
<path id="Mask" fill-rule="evenodd" clip-rule="evenodd" d="M18 5H13.0001C11.3461 5 10.0001 6.346 10.0001 8V16.919L6.62513 14.219C6.19414 13.875 5.56314 13.944 5.21915 14.375C4.87415 14.807 4.94415 15.436 5.37515 15.781L10.3751 19.781C10.5581 19.927 10.7791 20 11.0001 20C11.2211 20 11.4421 19.927 11.6251 19.781L16.625 15.781C17.056 15.436 17.126 14.807 16.781 14.375C16.437 13.944 15.807 13.874 15.375 14.219L12.0001 16.919V8C12.0001 7.449 12.4491 7 13.0001 7H18C18.552 7 19 6.552 19 6C19 5.448 18.552 5 18 5Z" fill="#231F20"/>
<mask id="mask0" mask-type="alpha" maskUnits="userSpaceOnUse" x="5" y="5" width="14" height="15">
<path id="Mask_2" fill-rule="evenodd" clip-rule="evenodd" d="M18 5H13.0001C11.3461 5 10.0001 6.346 10.0001 8V16.919L6.62513 14.219C6.19414 13.875 5.56314 13.944 5.21915 14.375C4.87415 14.807 4.94415 15.436 5.37515 15.781L10.3751 19.781C10.5581 19.927 10.7791 20 11.0001 20C11.2211 20 11.4421 19.927 11.6251 19.781L16.625 15.781C17.056 15.436 17.126 14.807 16.781 14.375C16.437 13.944 15.807 13.874 15.375 14.219L12.0001 16.919V8C12.0001 7.449 12.4491 7 13.0001 7H18C18.552 7 19 6.552 19 6C19 5.448 18.552 5 18 5Z" fill="white"/>
</mask>
<g mask="url(#mask0)">
<g id="&#240;&#159;&#142;&#168; Color">
<rect id="Base" width="24" height="24" fill="#0D1C2E"/>
</g>
</g>
</g>
</svg>
