<svg width="24" height="24" viewBox="0 0 24 24" fill="none" xmlns="http://www.w3.org/2000/svg">
<g id="Icon/Outline/cube">
<path id="Mask" fill-rule="evenodd" clip-rule="evenodd" d="M18.6904 15.9629L13.0004 18.6069V11.8909L19.0004 9.1039V15.5389C19.0004 15.7129 18.8824 15.8749 18.6904 15.9629ZM5.3034 15.9639C5.1144 15.8759 4.9984 15.7139 5.0004 15.5319V9.1039L11.0004 11.8909V18.6089L5.3034 15.9639ZM11.7074 5.0639C11.7984 5.0209 11.8994 4.9999 12.0004 4.9999C12.1004 4.9999 12.2014 5.0209 12.2924 5.0639L17.6214 7.5379L12.0004 10.1499L6.3784 7.5379L11.7074 5.0639ZM20.6564 7.2589C20.6534 7.2509 20.6544 7.2419 20.6504 7.2339C20.6474 7.2259 20.6394 7.2209 20.6344 7.2129C20.5884 7.1369 20.5324 7.0699 20.4794 6.9999C20.4484 6.9659 20.4234 6.9279 20.3894 6.8989C20.1544 6.6229 19.8774 6.3799 19.5334 6.2209L13.1334 3.2479C13.1324 3.2479 13.1314 3.2479 13.1314 3.2469C12.4124 2.9149 11.5874 2.9159 10.8664 3.2479L4.4694 6.2199C4.1254 6.3789 3.8474 6.6209 3.6124 6.8969C3.5754 6.9279 3.5484 6.9699 3.5154 7.0069C3.4634 7.0739 3.4104 7.1389 3.3664 7.2109C3.3614 7.2199 3.3534 7.2259 3.3494 7.2339C3.3454 7.2429 3.3464 7.2519 3.3424 7.2609C3.1314 7.6229 3.0004 8.0299 3.0004 8.4579V15.5249C2.9924 16.4749 3.5644 17.3589 4.4584 17.7769L10.8574 20.7489C11.2194 20.9179 11.6074 21.0019 11.9964 21.0019C12.3844 21.0019 12.7724 20.9179 13.1334 20.7499L19.5304 17.7779C20.4224 17.3659 20.9994 16.4879 21.0004 15.5399V8.4569C20.9994 8.0289 20.8684 7.6219 20.6564 7.2589Z" fill="#231F20"/>
<mask id="mask0" mask-type="alpha" maskUnits="userSpaceOnUse" x="3" y="2" width="19" height="20">
<path id="Mask_2" fill-rule="evenodd" clip-rule="evenodd" d="M18.6904 15.9629L13.0004 18.6069V11.8909L19.0004 9.1039V15.5389C19.0004 15.7129 18.8824 15.8749 18.6904 15.9629ZM5.3034 15.9639C5.1144 15.8759 4.9984 15.7139 5.0004 15.5319V9.1039L11.0004 11.8909V18.6089L5.3034 15.9639ZM11.7074 5.0639C11.7984 5.0209 11.8994 4.9999 12.0004 4.9999C12.1004 4.9999 12.2014 5.0209 12.2924 5.0639L17.6214 7.5379L12.0004 10.1499L6.3784 7.5379L11.7074 5.0639ZM20.6564 7.2589C20.6534 7.2509 20.6544 7.2419 20.6504 7.2339C20.6474 7.2259 20.6394 7.2209 20.6344 7.2129C20.5884 7.1369 20.5324 7.0699 20.4794 6.9999C20.4484 6.9659 20.4234 6.9279 20.3894 6.8989C20.1544 6.6229 19.8774 6.3799 19.5334 6.2209L13.1334 3.2479C13.1324 3.2479 13.1314 3.2479 13.1314 3.2469C12.4124 2.9149 11.5874 2.9159 10.8664 3.2479L4.4694 6.2199C4.1254 6.3789 3.8474 6.6209 3.6124 6.8969C3.5754 6.9279 3.5484 6.9699 3.5154 7.0069C3.4634 7.0739 3.4104 7.1389 3.3664 7.2109C3.3614 7.2199 3.3534 7.2259 3.3494 7.2339C3.3454 7.2429 3.3464 7.2519 3.3424 7.2609C3.1314 7.6229 3.0004 8.0299 3.0004 8.4579V15.5249C2.9924 16.4749 3.5644 17.3589 4.4584 17.7769L10.8574 20.7489C11.2194 20.9179 11.6074 21.0019 11.9964 21.0019C12.3844 21.0019 12.7724 20.9179 13.1334 20.7499L19.5304 17.7779C20.4224 17.3659 20.9994 16.4879 21.0004 15.5399V8.4569C20.9994 8.0289 20.8684 7.6219 20.6564 7.2589Z" fill="white"/>
</mask>
<g mask="url(#mask0)">
<g id="&#240;&#159;&#142;&#168; Color">
<rect id="Base" width="24" height="24" fill="#0D1C2E"/>
</g>
</g>
</g>
</svg>
