<svg fill="none" height="24" viewBox="0 0 24 24" width="24" xmlns="http://www.w3.org/2000/svg"><path clip-rule="evenodd" d="m18.6904 15.963-5.69 2.644v-6.716l6-2.78696v6.43496c0 .174-.118.336-.31.424zm-13.387.001c-.18899-.088-.30499-.25-.30299-.432v-6.42796l5.99999 2.78696v6.718zm6.4039-10.90003c.091-.043.192-.064.293-.064.1 0 .201.021.292.064l5.329 2.474-5.621 2.61203-5.62195-2.61203zm8.9491 2.19507c-.003-.008-.002-.017-.006-.025-.003-.008-.011-.013-.016-.021-.046-.076-.102-.143-.155-.213-.031-.034-.056-.072-.09-.101-.235-.276-.512-.519-.856-.678l-6.4-2.973c-.001 0-.002 0-.002-.001-.719-.332-1.544-.331-2.265.001l-6.39701 2.972c-.344.159-.622.401-.857.677-.037.031-.064.073-.097.11-.052.067-.105.132-.149.204-.005.009-.013.015-.017.023-.004.009-.003.018-.007.027-.211.362-.342.769-.342 1.197v7.06696c-.008.95.564 1.834 1.458 2.252l6.39901 2.972c.362.169.75.253 1.139.253.388 0 .776-.084 1.137-.252l6.397-2.972c.892-.412 1.469-1.29 1.47-2.238v-7.08296c-.001-.428-.132-.835-.344-1.198z" fill="#6b7280" fill-rule="evenodd"/></svg>