<svg fill="none" height="64" viewBox="0 0 64 64" width="64" xmlns="http://www.w3.org/2000/svg"><path d="m48 5.33301c1.4728 0 2.667 1.19423 2.667 2.66699v2.667h4c1.4144.0001 2.7704.5624 3.7705 1.5625 1.0001 1.0002 1.5625 2.3561 1.5625 3.7705v4c0 2.829-1.1246 5.5416-3.125 7.542-2.0004 2.0003-4.7131 3.125-7.542 3.125h-.4687c-.907 1.912-2.1391 3.6752-3.6641 5.2002-2.8657 2.8656-6.5689 4.6981-10.5332 5.2705v2.8623h8c1.4144.0001 2.7704.5624 3.7705 1.5625s1.5624 2.3561 1.5625 3.7705v4c0 1.4145-.5623 2.7713-1.5625 3.7715-1.0001 1-2.3562 1.5624-3.7705 1.5625h-21.334c-1.4143-.0001-2.7704-.5625-3.7705-1.5625-1.0002-1.0002-1.5625-2.357-1.5625-3.7715v-4c.0001-1.4144.5624-2.7704 1.5625-3.7705s2.3561-1.5624 3.7705-1.5625h8v-2.8623c-3.9643-.5724-7.6675-2.4049-10.5332-5.2705-1.525-1.525-2.7571-3.2882-3.6641-5.2002h-.4687c-2.8289 0-5.54163-1.1247-7.542-3.125-2.00039-2.0004-3.125-4.713-3.125-7.542v-4c0-1.4144.56241-2.7703 1.5625-3.7705 1.00012-1.0001 2.35614-1.5624 3.77051-1.5625h3.99999v-2.667c0-1.47276 1.1942-2.66699 2.667-2.66699zm-26.667 47.99999h21.334v-4h-21.334zm-2.666-30.666.0156.6611c.1636 3.2954 1.5465 6.4215 3.8906 8.7657 2.5005 2.5003 5.8907 3.9062 9.4268 3.9062s6.9263-1.4059 9.4268-3.9062c2.5004-2.5005 3.9061-5.8907 3.9062-9.4268v-12h-26.666zm-9.33399-2.667.02637.5264c.12106 1.221.66092 2.3688 1.53612 3.2441.7227.7227 1.633 1.2113 2.6152 1.4297-.1144-.8351-.1777-1.6808-.1777-2.5332v-6.667h-3.99999zm41.33399 2.667c0 .8525-.0653 1.6981-.1797 2.5332.9831-.2182 1.894-.7065 2.6172-1.4297.8752-.8753 1.4151-2.0231 1.5361-3.2441l.0264-.5264v-4h-4z" fill="#000"/></svg>