<svg fill="none" height="24" viewBox="0 0 24 24" width="24" xmlns="http://www.w3.org/2000/svg"><path d="m7.166 19.73c-.32267 0-.60133-.11-.836-.33-.22-.2347-.33-.5133-.33-.836 0-.3373.11-.6087.33-.814.23467-.22.51333-.33.836-.33h1.386l-.528.462v-5.522l.506.55h-1.518c-.27867 0-.52067-.088-.726-.264-.19067-.1907-.286-.4253-.286-.704 0-.2933.09533-.528.286-.704.20533-.176.44733-.264.726-.264h1.518l-.506.594v-2.772c0-.968.19067-1.81133.572-2.53s.95333-1.276 1.716-1.672c.7773-.396 1.7453-.594 2.904-.594.748 0 1.5033.11 2.266.33s1.386.51333 1.87.88c.2493.19067.4107.40333.484.638.088.23467.0953.462.022.682s-.198.40333-.374.55c-.1613.132-.3667.20533-.616.22-.2347.01467-.484-.066-.748-.242-.44-.29333-.8947-.49867-1.364-.616s-.9387-.176-1.408-.176c-.8507 0-1.4813.21267-1.892.638-.4107.41067-.616 1.00467-.616 1.782v2.816l-.286-.528h3.08c.2933 0 .5353.088.726.264.2053.176.308.4107.308.704 0 .2787-.1027.5133-.308.704-.1907.176-.4327.264-.726.264h-2.794v4.51h5.72c.3373 0 .616.11.836.33.22.2053.33.4767.33.814 0 .3227-.11.6013-.33.836-.22.22-.4987.33-.836.33z" fill="#6b7280"/></svg>