<svg fill="none" height="24" viewBox="0 0 24 24" width="24" xmlns="http://www.w3.org/2000/svg"><path d="m13.25 19.95c-1.0707 0-2.0313-.2273-2.882-.682-.85067-.4547-1.55467-1.122-2.112-2.002-.54267-.8947-.91667-1.9727-1.122-3.234l.396.616h-1.54c-.27867 0-.51333-.088-.704-.264-.19067-.1907-.286-.4253-.286-.704s.09533-.506.286-.682c.19067-.1907.42533-.286.704-.286h1.43l-.396.528c-.02933-.4547-.044-.8947-.044-1.32s.022-.836.066-1.232l.396.528h-1.452c-.27867 0-.51333-.088-.704-.264-.19067-.1907-.286-.4253-.286-.704 0-.27867.09533-.506.286-.682.19067-.19067.42533-.286.704-.286h1.672l-.528.638c.20533-1.276.57933-2.354 1.122-3.234.55733-.88 1.26133-1.54733 2.112-2.002.8507-.45467 1.8113-.682 2.882-.682.6747 0 1.342.10267 2.002.308.6747.20533 1.2833.54267 1.826 1.012.22.19067.3593.40333.418.638s.0513.462-.022.682c-.0587.22-.1687.40333-.33.55-.1467.132-.3373.20533-.572.22-.22 0-.4547-.09533-.704-.286-.3227-.24933-.6967-.43267-1.122-.55s-.858-.176-1.298-.176c-.572 0-1.0927.12467-1.562.374-.4693.23467-.8653.60867-1.188 1.122-.308.49867-.5427 1.144-.704 1.936l-.418-.55h2.992c.2787 0 .506.09533.682.286.1907.19067.286.418.286.682s-.0953.4913-.286.682c-.176.1907-.4033.286-.682.286h-3.234l.506-.484c-.02933.3373-.044.726-.044 1.166 0 .4253.01467.8287.044 1.21l-.484-.396h3.212c.2787 0 .506.0953.682.286.1907.1907.286.418.286.682s-.0953.4913-.286.682c-.176.1907-.4033.286-.682.286h-2.904l.33-.55c.1613.792.396 1.4447.704 1.958.3227.5133.7187.8947 1.188 1.144.4693.2347.99.352 1.562.352.4547 0 .8727-.0513 1.254-.154.396-.1173.792-.308 1.188-.572.264-.176.506-.2567.726-.242.22 0 .4033.0733.55.22.1613.132.2713.3007.33.506.0587.1907.0587.4033 0 .638-.044.22-.1687.4253-.374.616-.4987.4693-1.1.8213-1.804 1.056-.6893.22-1.3787.33-2.068.33z" fill="#6b7280"/></svg>