<svg fill="none" height="24" viewBox="0 0 24 24" width="24" xmlns="http://www.w3.org/2000/svg"><path d="m9.476 19.686c-.45467 0-.80667-.1247-1.056-.374-.24933-.264-.374-.638-.374-1.122v-1.738h-.99c-.33733 0-.60133-.0807-.792-.242-.176-.176-.264-.418-.264-.726s.088-.5427.264-.704c.19067-.176.45467-.264.792-.264h.99v-1.496h-.99c-.33733 0-.60133-.0807-.792-.242-.176-.176-.264-.418-.264-.726s.088-.5427.264-.704c.19067-.176.45467-.264.792-.264h.99v-5.676c0-.45467.11733-.79933.352-1.034.24933-.24933.60133-.374 1.056-.374h3.85c1.1293 0 2.0827.19067 2.86.572.792.38133 1.386.91667 1.782 1.606.4107.68933.616 1.496.616 2.42 0 .89467-.2053 1.672-.616 2.332s-.9973 1.1733-1.76 1.54-1.6867.55-2.772.55h-2.508v1.496h2.64c.3373 0 .594.088.77.264.1907.1613.286.396.286.704s-.0953.55-.286.726c-.176.1613-.4327.242-.77.242h-2.64v1.738c0 .484-.1247.858-.374 1.122-.2347.2493-.58667.374-1.056.374zm1.386-8.602h2.09c.924 0 1.6353-.176 2.134-.528s.748-.93867.748-1.76-.2493-1.43-.748-1.826c-.484-.396-1.1953-.594-2.134-.594h-2.09z" fill="#6b7280"/></svg>