<svg fill="none" height="64" viewBox="0 0 64 64" width="64" xmlns="http://www.w3.org/2000/svg"><path d="m35.3333 53.1998c-2.8551 0-5.4169-.6062-7.6853-1.8186-2.2684-1.2125-4.1458-2.992-5.632-5.3387-1.4471-2.3858-2.4444-5.2604-2.992-8.624l1.056 1.6427h-4.1067c-.7431 0-1.3689-.2347-1.8773-.704-.5084-.5085-.7627-1.1343-.7627-1.8774s.2543-1.3493.7627-1.8186c.5084-.5085 1.1342-.7627 1.8773-.7627h3.8134l-1.056 1.408c-.0783-1.2124-.1174-2.3858-.1174-3.52s.0587-2.2293.176-3.2853l1.056 1.408h-3.872c-.7431 0-1.3689-.2347-1.8773-.704-.5084-.5085-.7627-1.1343-.7627-1.8774s.2543-1.3493.7627-1.8186c.5084-.5085 1.1342-.7627 1.8773-.7627h4.4587l-1.408 1.7013c.5476-3.4026 1.5449-6.2773 2.992-8.624 1.4862-2.3466 3.3636-4.1262 5.632-5.3386 2.2684-1.2125 4.8302-1.8187 7.6853-1.8187 1.7991 0 3.5787.2738 5.3387.8213 1.7991.5476 3.4222 1.4471 4.8693 2.6987.5867.5084.9583 1.0756 1.1147 1.7013.1564.6258.1369 1.232-.0587 1.8187-.1564.5867-.4497 1.0756-.88 1.4667-.3911.352-.8995.5475-1.5253.5866-.5867 0-1.2124-.2542-1.8773-.7626-.8605-.6649-1.8578-1.1538-2.992-1.4667-1.1343-.3129-2.288-.4693-3.4614-.4693-1.5253 0-2.9137.3324-4.1653.9973-1.2516.6258-2.3076 1.6231-3.168 2.992-.8213 1.3298-1.4471 3.0507-1.8773 5.1627l-1.1147-1.4667h7.9787c.7431 0 1.3493.2542 1.8186.7627.5085.5084.7627 1.1146.7627 1.8186s-.2542 1.3103-.7627 1.8187c-.4693.5084-1.0755.7627-1.8186.7627h-8.624l1.3493-1.2907c-.0782.8996-.1173 1.936-.1173 3.1093 0 1.1343.0391 2.2098.1173 3.2267l-1.2907-1.056h8.5654c.7431 0 1.3493.2542 1.8186.7627.5085.5084.7627 1.1146.7627 1.8186s-.2542 1.3103-.7627 1.8187c-.4693.5085-1.0755.7627-1.8186.7627h-7.744l.88-1.4667c.4302 2.112 1.056 3.8525 1.8773 5.2213.8604 1.3689 1.9164 2.3858 3.168 3.0507 1.2516.6258 2.64.9387 4.1653.9387 1.2125 0 2.3271-.1369 3.344-.4107 1.056-.3129 2.112-.8213 3.168-1.5253.704-.4694 1.3494-.6845 1.936-.6454.5867 0 1.0756.1956 1.4667.5867.4302.352.7236.8018.88 1.3493.1564.5085.1564 1.0756 0 1.7014-.1173.5866-.4498 1.1342-.9973 1.6426-1.3298 1.2516-2.9334 2.1903-4.8107 2.816-1.8382.5867-3.6764.88-5.5147.88z" fill="#6b7280"/></svg>