<svg fill="none" height="64" viewBox="0 0 64 64" width="64" xmlns="http://www.w3.org/2000/svg"><path d="m25.2693 52.4958c-1.2124 0-2.1511-.3324-2.816-.9973-.6649-.704-.9973-1.7013-.9973-2.992v-4.6347h-2.64c-.8996 0-1.6036-.2151-2.112-.6453-.4693-.4693-.704-1.1147-.704-1.936s.2347-1.4471.704-1.8773c.5084-.4694 1.2124-.704 2.112-.704h2.64v-3.9894h-2.64c-.8996 0-1.6036-.2151-2.112-.6453-.4693-.4693-.704-1.1147-.704-1.936s.2347-1.4471.704-1.8773c.5084-.4694 1.2124-.704 2.112-.704h2.64v-15.136c0-1.2125.3129-2.1316.9387-2.7574.6649-.6649 1.6035-.9973 2.816-.9973h10.2666c3.0116 0 5.5538.5084 7.6267 1.5253 2.112 1.0169 3.696 2.4445 4.752 4.2827 1.0951 1.8382 1.6427 3.9893 1.6427 6.4533 0 2.3858-.5476 4.4587-1.6427 6.2187s-2.6596 3.1289-4.6933 4.1067c-2.0338.9777-4.4978 1.4666-7.392 1.4666h-6.688v3.9894h7.04c.8995 0 1.584.2346 2.0533.704.5084.4302.7627 1.056.7627 1.8773s-.2543 1.4667-.7627 1.936c-.4693.4302-1.1538.6453-2.0533.6453h-7.04v4.6347c0 1.2907-.3325 2.288-.9974 2.992-.6257.6649-1.5644.9973-2.816.9973zm3.696-22.9386h5.5734c2.464 0 4.3609-.4694 5.6906-1.408 1.3298-.9387 1.9947-2.5031 1.9947-4.6934 0-2.1902-.6649-3.8133-1.9947-4.8693-1.2906-1.056-3.1875-1.584-5.6906-1.584h-5.5734z" fill="#6b7280"/></svg>