<svg fill="none" height="64" viewBox="0 0 64 64" width="64" xmlns="http://www.w3.org/2000/svg"><path d="m19.1093 52.6132c-.8604 0-1.6035-.2934-2.2293-.88-.5867-.6258-.88-1.3689-.88-2.2294 0-.8995.2933-1.6231.88-2.1706.6258-.5867 1.3689-.88 2.2293-.88h3.696l-1.408 1.232v-14.7254l1.3494 1.4667h-4.048c-.7431 0-1.3885-.2347-1.936-.704-.5085-.5084-.7627-1.1342-.7627-1.8773 0-.7823.2542-1.408.7627-1.8774.5475-.4693 1.1929-.704 1.936-.704h4.048l-1.3494 1.584v-7.392c0-2.5813.5085-4.8302 1.5254-6.7466 1.0169-1.9165 2.5422-3.4027 4.576-4.4587 2.0729-1.056 4.6542-1.584 7.744-1.584 1.9946 0 4.0089.2933 6.0426.88 2.0338.5867 3.696 1.3689 4.9867 2.3467.6649.5084 1.0951 1.0755 1.2907 1.7013.2346.6258.2542 1.232.0586 1.8187-.1955.5866-.528 1.0755-.9973 1.4666-.4302.352-.9778.5476-1.6427.5867-.6257.0391-1.2906-.176-1.9946-.6453-1.1734-.7823-2.3858-1.3298-3.6374-1.6427-1.2515-.3129-2.5031-.4693-3.7546-.4693-2.2685 0-3.9503.5671-5.0454 1.7013-1.0951 1.0951-1.6426 2.6791-1.6426 4.752v7.5093l-.7627-1.408h8.2133c.7823 0 1.4276.2347 1.936.704.5476.4694.8214 1.0951.8214 1.8774 0 .7431-.2738 1.3689-.8214 1.8773-.5084.4693-1.1537.704-1.936.704h-7.4506v12.0267h15.2533c.8996 0 1.6427.2933 2.2293.88.5867.5475.88 1.2711.88 2.1706 0 .8605-.2933 1.6036-.88 2.2294-.5866.5866-1.3297.88-2.2293.88z" fill="#6b7280"/></svg>