<svg fill="none" height="64" viewBox="0 0 64 64" width="64" xmlns="http://www.w3.org/2000/svg"><path d="m31.8661 61.1255c-.8605 0-1.5645-.2933-2.112-.88-.5476-.5476-.8214-1.232-.8214-2.0533v-5.2214l1.3494 1.2907c-2.6987-.0782-5.104-.4302-7.216-1.056-2.0729-.6258-3.8329-1.3493-5.28-2.1707-.704-.4302-1.1929-.9582-1.4667-1.584-.2738-.6649-.3715-1.3297-.2933-1.9946s.3129-1.232.704-1.7014c.4302-.5084.9582-.8213 1.584-.9386.6258-.1565 1.3493 0 2.1706.4693 1.0952.6258 2.5227 1.232 4.2827 1.8187 1.7991.5475 3.9502.8213 6.4533.8213 1.9556 0 3.5396-.2347 4.752-.704 1.2125-.4693 2.0925-1.1147 2.64-1.936.5867-.8213.88-1.76.88-2.816 0-.8604-.1955-1.6036-.5866-2.2293-.3911-.6649-1.0365-1.232-1.936-1.7014-.8996-.5084-2.112-.9191-3.6374-1.232l-6.2186-1.3493c-3.5591-.7822-6.2187-2.0924-7.9787-3.9307-1.76-1.8382-2.64-4.2435-2.64-7.216 0-2.3075.5671-4.3609 1.7013-6.16 1.1343-1.8382 2.7183-3.3049 4.752-4.4 2.0338-1.0951 4.4196-1.7404 7.1574-1.936l-1.1734.88v-4.92797c0-.82133.2738-1.50578.8214-2.05333.5475-.58667 1.2515-.88 2.112-.88.8213 0 1.5058.29333 2.0533.88.5867.54755.88 1.232.88 2.05333v4.92797l-1.232-.9386c1.6818.0391 3.52.3715 5.5147.9973 2.0338.6258 3.7742 1.5058 5.2213 2.64.5867.4693.9778 1.0169 1.1733 1.6427.1956.5866.2152 1.1733.0587 1.76-.1564.5475-.4498 1.0169-.88 1.408s-.9778.6257-1.6427.704c-.6257.0391-1.3493-.176-2.1706-.6454-1.1342-.6649-2.4054-1.1929-3.8134-1.584-1.408-.4302-3.0897-.6453-5.0453-.6453-2.5031 0-4.4782.5671-5.9253 1.7013-1.408 1.0951-2.112 2.5423-2.112 4.3414 0 1.3297.4302 2.4053 1.2906 3.2266.8605.7823 2.3272 1.408 4.4 1.8774l6.3947 1.408c3.7547.8213 6.512 2.1315 8.272 3.9306 1.76 1.76 2.64 4.0871 2.64 6.9814 0 2.2684-.5671 4.2826-1.7013 6.0426-1.1342 1.7209-2.6987 3.1094-4.6934 4.1654-1.9555 1.0169-4.2435 1.6622-6.864 1.936l1.1147-1.232v5.28c0 .8213-.2738 1.5057-.8213 2.0533-.5476.5867-1.2516.88-2.112.88z" fill="#6b7280"/></svg>