<svg fill="none" height="24" viewBox="0 0 24 24" width="24" xmlns="http://www.w3.org/2000/svg"><path d="m11.9498 22.922c-.3227 0-.5867-.11-.792-.33-.2054-.2053-.308-.462-.308-.77v-1.958l.506.484c-1.012-.0293-1.91402-.1613-2.70602-.396-.77734-.2347-1.43734-.506-1.98-.814-.264-.1613-.44734-.3593-.55-.594-.10267-.2493-.13934-.4987-.11-.748.02933-.2493.11733-.462.264-.638.16133-.1907.35933-.308.594-.352.23466-.0587.506 0 .814.176.41066.2347.946.462 1.606.682.67466.2053 1.48132.308 2.42002.308.7333 0 1.3273-.088 1.782-.264.4546-.176.7846-.418.99-.726.22-.308.33-.66.33-1.056 0-.3227-.0734-.6013-.22-.836-.1467-.2493-.3887-.462-.726-.638-.3374-.1907-.792-.3447-1.364-.462l-2.332-.506c-1.33469-.2933-2.33202-.7847-2.99202-1.474s-.99-1.5913-.99-2.706c0-.86533.21266-1.63533.638-2.31.42533-.68933 1.01933-1.23933 1.782-1.65.76266-.41067 1.65732-.65267 2.68402-.726l-.44.33v-1.848c0-.308.1026-.56467.308-.77.2053-.22.4693-.33.792-.33.308 0 .5646.11.77.33.22.20533.33.462.33.77v1.848l-.462-.352c.6306.01467 1.32.13933 2.068.374.7626.23467 1.4153.56467 1.958.99.22.176.3666.38133.44.616.0733.22.0806.44.022.66-.0587.20533-.1687.38133-.33.528-.1614.14667-.3667.23467-.616.264-.2347.01467-.506-.066-.814-.242-.4254-.24933-.902-.44733-1.43-.594-.528-.16133-1.1587-.242-1.892-.242-.9387 0-1.6794.21267-2.22202.638-.528.41067-.792.95333-.792 1.628 0 .49867.16133.902.484 1.21.32266.2933.87262.528 1.65002.704l2.398.528c1.408.308 2.442.7993 3.102 1.474.66.66.99 1.5327.99 2.618 0 .8507-.2127 1.606-.638 2.266-.4254.6453-1.012 1.166-1.76 1.562-.7334.3813-1.5914.6233-2.574.726l.418-.462v1.98c0 .308-.1027.5647-.308.77-.2054.22-.4694.33-.792.33z" fill="#6b7280"/></svg>