<svg viewBox="0 0 64 64" fill="none" xmlns="http://www.w3.org/2000/svg">
<path fill-rule="evenodd" clip-rule="evenodd" d="M16 5.33337C21.891 5.33337 26.6666 10.109 26.6666 16C26.6666 17.978 26.1257 19.8288 25.1875 21.4167L32 28.2292L51.4479 8.78129C52.4893 7.74011 54.1774 7.7401 55.2187 8.78129C56.26 9.82264 56.2599 11.5108 55.2187 12.5521L25.1875 42.5808C26.1264 44.1691 26.6666 46.0212 26.6666 48C26.6666 53.8911 21.891 58.6667 16 58.6667C10.1089 58.6667 5.33331 53.8911 5.33331 48C5.33331 42.109 10.1089 37.3334 16 37.3334C17.9775 37.3334 19.829 37.8721 21.4166 38.8099L28.2291 32L21.4166 25.1875C19.8287 26.1258 17.978 26.6667 16 26.6667C10.1089 26.6667 5.33331 21.8911 5.33331 16C5.33331 10.109 10.1089 5.33337 16 5.33337ZM16 42.6667C13.0545 42.6667 10.6666 45.0545 10.6666 48C10.6666 50.9456 13.0545 53.3334 16 53.3334C18.9455 53.3334 21.3333 50.9456 21.3333 48C21.3333 46.5399 20.7449 45.2184 19.7942 44.2552C19.7859 44.2471 19.7765 44.2401 19.7682 44.2318C19.7591 44.2227 19.7511 44.2124 19.7422 44.2032C18.7793 43.2541 17.4588 42.6667 16 42.6667ZM16 10.6667C13.0545 10.6667 10.6666 13.0545 10.6666 16C10.6666 18.9456 13.0545 21.3334 16 21.3334C18.9455 21.3334 21.3333 18.9456 21.3333 16C21.3333 13.0545 18.9455 10.6667 16 10.6667Z M37.5807 37.5808C38.6219 36.5395 40.3101 36.5399 41.3515 37.5808L55.2187 51.448C56.2596 52.4894 56.26 54.1776 55.2187 55.2188C54.1775 56.26 52.4893 56.2597 51.4479 55.2188L37.5807 41.3516C36.5398 40.3102 36.5395 38.622 37.5807 37.5808Z" fill="#141414"/>
</svg>