<svg viewBox="0 0 64 64" fill="none" xmlns="http://www.w3.org/2000/svg">
<path fill-rule="evenodd" clip-rule="evenodd" d="M34.0833 52.8333V54.9167C34.0833 56.0687 33.15 57 32 57C30.85 57 29.9167 56.0687 29.9167 54.9167V52.8333C29.9167 51.6812 30.85 50.75 32 50.75C33.15 50.75 34.0833 51.6812 34.0833 52.8333ZM32 13.25C33.15 13.25 34.0833 12.3167 34.0833 11.1667V9.08333C34.0833 7.93333 33.15 7 32 7C30.85 7 29.9167 7.93333 29.9167 9.08333V11.1667C29.9167 12.3167 30.85 13.25 32 13.25ZM54.9167 29.9167H52.8333C51.6812 29.9167 50.75 30.85 50.75 32C50.75 33.15 51.6812 34.0833 52.8333 34.0833H54.9167C56.0687 34.0833 57 33.15 57 32C57 30.85 56.0687 29.9167 54.9167 29.9167ZM11.1667 29.9167H9.08333C7.93333 29.9167 7 30.85 7 32C7 33.15 7.93333 34.0833 9.08333 34.0833H11.1667C12.3167 34.0833 13.25 33.15 13.25 32C13.25 30.85 12.3167 29.9167 11.1667 29.9167ZM15.7958 45.2583L14.3229 46.7312C13.5083 47.5458 13.5083 48.8625 14.3229 49.6771C15.1375 50.4917 16.4542 50.4917 17.2687 49.6771L18.7417 48.2042C19.5562 47.3896 19.5562 46.0729 18.7417 45.2583C17.9271 44.4437 16.6104 44.4437 15.7958 45.2583ZM46.7312 14.3229L45.2583 15.7958C44.4437 16.6104 44.4437 17.9271 45.2583 18.7417C46.0729 19.5562 47.3896 19.5562 48.2042 18.7417L49.6771 17.2687C50.4917 16.4542 50.4917 15.1375 49.6771 14.3229C48.8625 13.5083 47.5458 13.5083 46.7312 14.3229ZM48.2042 45.2604C47.3896 44.4458 46.0729 44.4458 45.2583 45.2604C44.4437 46.075 44.4437 47.3917 45.2583 48.2062L46.7312 49.6792C47.5458 50.4937 48.8625 50.4937 49.6771 49.6792C50.4917 48.8646 50.4917 47.5479 49.6771 46.7333L48.2042 45.2604ZM15.7958 18.7417C16.6104 19.5562 17.9271 19.5562 18.7417 18.7417C19.5562 17.9271 19.5562 16.6104 18.7417 15.7958L17.2687 14.3229C16.4542 13.5083 15.1375 13.5083 14.3229 14.3229C13.5083 15.1375 13.5083 16.4542 14.3229 17.2687L15.7958 18.7417ZM46.5833 32C46.5833 40.0396 40.0396 46.5833 32 46.5833C23.9604 46.5833 17.4167 40.0396 17.4167 32C17.4167 23.9604 23.9583 17.4167 32 17.4167C40.0417 17.4167 46.5833 23.9583 46.5833 32ZM42.4167 32C42.4167 26.2562 37.7437 21.5833 32 21.5833V42.4167C37.7437 42.4167 42.4167 37.7437 42.4167 32Z" fill="#141414"/>
</svg>