<svg viewBox="0 0 64 64" fill="none" xmlns="http://www.w3.org/2000/svg">
<path fill-rule="evenodd" clip-rule="evenodd" d="M60.716 14.2466C60.0951 13.9471 59.8263 14.5196 59.4645 14.812C59.3398 14.9062 59.2347 15.0294 59.1296 15.1406C58.2203 16.0997 57.1594 16.7279 55.7735 16.653C53.747 16.5418 52.0164 17.17 50.4862 18.7017C50.1611 16.8124 49.0807 15.6866 47.4381 14.9618C46.5776 14.5849 45.7074 14.2104 45.1037 13.3914C44.6832 12.8091 44.5683 12.1592 44.3581 11.5214C44.2237 11.1349 44.0892 10.7411 43.6419 10.6758C43.153 10.6009 42.9624 11.0044 42.7717 11.3426C42.0066 12.7246 41.7108 14.2466 41.7402 15.788C41.8062 19.2574 43.2875 22.0213 46.233 23.9855C46.5679 24.2101 46.6534 24.4372 46.5483 24.7658C46.3479 25.4423 46.1083 26.0994 45.8981 26.7783C45.7637 27.2108 45.5632 27.3026 45.0939 27.1166C43.5081 26.443 42.0676 25.4752 40.8504 24.2657C38.7556 22.2653 36.8636 20.0571 34.5023 18.3272C33.9552 17.9277 33.3934 17.5481 32.8181 17.1893C30.4104 14.8772 33.1359 12.9783 33.7666 12.7536C34.4265 12.5168 33.9939 11.7099 31.8624 11.7195C29.7309 11.7292 27.7802 12.4322 25.2943 13.3721C24.9249 13.512 24.5448 13.6226 24.1576 13.703C21.8345 13.2704 19.4586 13.1873 17.1104 13.4566C12.5028 13.964 8.82394 16.119 6.11799 19.7937C2.86694 24.2101 2.10185 29.2305 3.03805 34.4636C4.02314 39.9817 6.87331 44.5503 11.2512 48.1211C15.7929 51.8248 21.0215 53.6392 26.9882 53.2913C30.6108 53.0859 34.6465 52.6052 39.1956 48.7976C40.3444 49.3629 41.5471 49.5876 43.5466 49.7567C45.0866 49.8993 46.5679 49.6842 47.7143 49.4475C49.5109 49.0706 49.3862 47.4253 48.7385 47.1257C43.4708 44.7001 44.627 45.6882 43.5735 44.8885C46.2525 41.7574 50.2858 38.5055 51.8649 27.9694C51.9871 27.1311 51.882 26.6044 51.8649 25.9279C51.8551 25.5172 51.9504 25.3553 52.4271 25.3094C53.7496 25.1738 55.0325 24.784 56.2037 24.1618C59.616 22.3184 60.9947 19.2936 61.3198 15.6648C61.3687 15.1091 61.31 14.539 60.716 14.2466ZM30.9751 46.9059C25.8687 42.9388 23.3925 41.6318 22.3708 41.6873C21.4126 41.7453 21.5861 42.8253 21.7963 43.5307C22.0163 44.2265 22.3023 44.7049 22.7032 45.3161C22.9819 45.7196 23.1725 46.3212 22.427 46.773C20.7819 47.778 17.9244 46.4347 17.79 46.3695C14.4632 44.4319 11.679 41.8758 9.72103 38.3799C7.82907 35.0144 6.72909 31.4049 6.5482 27.5514C6.49932 26.6189 6.77553 26.2903 7.71418 26.1212C8.94643 25.8881 10.209 25.8563 11.4517 26.027C16.6631 26.7807 21.0972 29.0832 24.8176 32.7289C26.9394 34.8066 28.5453 37.2878 30.2002 39.7135C31.9601 42.2889 33.8521 44.7436 36.2623 46.7537C37.1129 47.4591 37.79 47.9955 38.4402 48.3893C36.4798 48.6067 33.2092 48.655 30.9751 46.9059ZM33.4194 31.3469C33.419 31.2269 33.4482 31.1086 33.5044 31.0022C33.5606 30.8958 33.6421 30.8046 33.742 30.7363C33.8418 30.668 33.957 30.6248 34.0776 30.6104C34.1981 30.596 34.3204 30.6108 34.4339 30.6536C34.5785 30.7048 34.7033 30.7994 34.7909 30.9242C34.8786 31.0489 34.9247 31.1975 34.9228 31.3494C34.9231 31.4475 34.9037 31.5447 34.8656 31.6353C34.8275 31.7259 34.7716 31.8081 34.7011 31.8771C34.6306 31.9462 34.5468 32.0006 34.4548 32.0374C34.3628 32.0741 34.2642 32.0924 34.165 32.0911C34.0665 32.0914 33.9689 32.0723 33.8779 32.0349C33.787 31.9975 33.7045 31.9426 33.6353 31.8733C33.5661 31.804 33.5116 31.7217 33.4749 31.6314C33.4383 31.541 33.4178 31.4443 33.4194 31.3469ZM41.0215 35.2029C40.5326 35.3985 40.0462 35.5677 39.5793 35.5894C38.8769 35.6136 38.1877 35.3968 37.6287 34.9757C36.9589 34.4201 36.4798 34.1108 36.2794 33.1444C36.2103 32.6722 36.2235 32.1917 36.3185 31.7238C36.4896 30.9338 36.2989 30.4265 35.7343 29.9674C35.2772 29.5905 34.693 29.4866 34.0525 29.4866C33.8333 29.4741 33.6203 29.4094 33.4317 29.2982C33.1628 29.1677 32.9428 28.8392 33.153 28.4333C33.2215 28.3028 33.5441 27.9839 33.6223 27.9259C34.4925 27.4379 35.4972 27.5973 36.4236 27.9646C37.284 28.3125 37.9342 28.9503 38.8705 29.8539C39.8262 30.9435 39.9998 31.2455 40.5449 32.0621C40.9751 32.7023 41.3662 33.3595 41.6326 34.1108C41.7964 34.5819 41.5862 34.9661 41.0215 35.2029Z" fill="#141414"/>
</svg>