<svg width="64" height="64" viewBox="0 0 64 64" fill="none" xmlns="http://www.w3.org/2000/svg">
<path d="M43.462 7.02344C44.6187 7.13333 45.7136 7.62003 46.5743 8.41406L61.0997 21.8232C61.6276 22.3104 62.0549 22.8996 62.3497 23.5547C62.6443 24.2095 62.8019 24.9179 62.8165 25.6357C62.8309 26.3536 62.7016 27.0683 62.4337 27.7344C62.1655 28.4008 61.7639 29.0076 61.256 29.5156L36.0753 54.6953L36.0001 54.9775L35.837 54.9336L35.7716 55C34.7716 55.9995 33.4149 56.5623 32.0011 56.5625C30.5869 56.5625 29.2307 55.9997 28.2306 55L2.74326 29.5156V29.5127C2.23622 29.0048 1.83614 28.4002 1.56845 27.7344C1.30078 27.0685 1.16927 26.3552 1.18369 25.6377C1.19817 24.9203 1.35823 24.2121 1.65244 23.5576C1.94666 22.9034 2.3698 22.315 2.89658 21.8281L17.4259 8.41406C18.4108 7.50549 19.7031 7.00009 21.0431 7H42.962L43.462 7.02344ZM32.0167 50.5264L38.0528 28H25.9806L32.0167 50.5264ZM25.2081 44.4375L20.8038 28H8.76865L25.2081 44.4375ZM43.2286 28L38.8351 44.3945L55.2306 28H43.2286ZM9.49033 23H54.5147L42.9571 12.333H21.0431L9.49033 23Z" fill="black"/>
</svg>
