<svg width="64" height="64" viewBox="0 0 64 64" fill="none" xmlns="http://www.w3.org/2000/svg">
<path fill-rule="evenodd" clip-rule="evenodd" d="M35.7182 55.9922C35.3224 56.9074 34.4206 57.5 33.4235 57.5C30.9189 57.5 28.5312 56.4767 26.7817 54.6784C25.0345 52.8825 24.0647 50.461 24.0647 47.95L24.0647 41.0501L13.6372 41.0501C12.6067 41.0597 11.5885 40.84 10.653 40.4084C9.71294 39.9748 8.88151 39.3388 8.21346 38.5491C7.5456 37.7597 7.05636 36.8349 6.77545 35.8404C6.49457 34.846 6.42766 33.8021 6.5786 32.7799L9.73362 11.6304C9.73373 11.6296 9.73383 11.6289 9.73394 11.6282C9.98504 9.92984 10.8264 8.36766 12.1214 7.23621C13.4147 6.10627 15.0726 5.48428 16.7924 5.5003L49.4274 5.5003C51.3257 5.5003 53.1319 6.27605 54.4526 7.63358C55.7711 8.98878 56.5 10.8126 56.5 12.7003L56.5 29.1502C56.5 31.0379 55.7711 32.8617 54.4526 34.2169C53.1319 35.5744 51.3257 36.3501 49.4274 36.3501L44.2113 36.3501L35.7182 55.9922ZM45.0686 31.3501L49.4274 31.3501C49.9546 31.3501 50.4745 31.1355 50.8688 30.7302C51.2654 30.3226 51.5 29.7555 51.5 29.1502L51.5 12.7003C51.5 12.095 51.2654 11.5278 50.8688 11.1202C50.4745 10.7149 49.9546 10.5003 49.4274 10.5003L45.0686 10.5003L45.0686 31.3501ZM40.0686 10.5003L16.7794 10.5003L16.7504 10.5001C16.2705 10.4946 15.7944 10.6667 15.4112 11.0015C15.0262 11.3379 14.7601 11.8179 14.6801 12.3602L11.525 33.5103C11.5249 33.5109 11.5248 33.5114 11.5247 33.5119C11.477 33.8365 11.4986 34.1676 11.5872 34.4813C11.6759 34.7954 11.8287 35.081 12.0307 35.3198C12.2326 35.5584 12.4781 35.744 12.7475 35.8683C13.0166 35.9924 13.3056 36.0536 13.5952 36.0503L13.6243 36.0501L26.5647 36.0501C27.9454 36.0501 29.0647 37.1694 29.0647 38.5501L29.0647 47.95C29.0647 49.1786 29.5401 50.3435 30.3655 51.1918C30.8101 51.6488 31.336 51.9938 31.9042 52.2145L40.0686 33.3328L40.0686 10.5003Z" fill="#6B7280"/>
</svg>
