<svg fill="none" height="24" viewBox="0 0 24 24" width="24" xmlns="http://www.w3.org/2000/svg"><path clip-rule="evenodd" d="m11.0028 12.076c-.0019-.0251-.0028-.0504-.0028-.076v-8c0-.552.447-1 1-1s1 .448 1 1v7.9999l2.4-1.7998c.442-.333 1.069-.242 1.4.2.332.442.242 1.069-.2 1.4l-4 3c-.177.133-.389.2-.6.2-.201 0-.402-.061-.575-.182l-4.00001-2.814c-.452-.318-.561-.942-.243-1.393.318-.452.941-.561 1.393-.243zm-5.0028 4.9239v1.0001h12v-1.0001c0-.55.45-1 1-1s1 .45 1 1v2c0 .0688-.007.136-.0204.201-.0175.0849-.0459.166-.0835.2417-.1641.3296-.5048.5574-.8961.5574h-14c-.55 0-1-.45-1-1v-.0001-2c0-.55.45-1 1-1s1 .45 1 1z" fill="#6b7280" fill-rule="evenodd"/></svg>