<svg viewBox="0 0 64 64" fill="none" xmlns="http://www.w3.org/2000/svg">
<path fill-rule="evenodd" clip-rule="evenodd" d="M24 45.3333C26.9455 45.3333 29.3334 47.7211 29.3334 50.6667C29.3334 53.6122 26.9455 56 24 56C21.0545 56 18.6667 53.6122 18.6667 50.6667C18.6667 47.7211 21.0545 45.3333 24 45.3333Z M40 45.3333C42.9455 45.3333 45.3334 47.7211 45.3334 50.6667C45.3334 53.6122 42.9455 56 40 56C37.0545 56 34.6667 53.6122 34.6667 50.6667C34.6667 47.7211 37.0545 45.3333 40 45.3333Z M24 26.6667C26.9455 26.6667 29.3334 29.0545 29.3334 32C29.3334 34.9455 26.9455 37.3333 24 37.3333C21.0545 37.3333 18.6667 34.9455 18.6667 32C18.6667 29.0545 21.0545 26.6667 24 26.6667Z M40 26.6667C42.9455 26.6667 45.3334 29.0545 45.3334 32C45.3334 34.9455 42.9455 37.3333 40 37.3333C37.0545 37.3333 34.6667 34.9455 34.6667 32C34.6667 29.0545 37.0545 26.6667 40 26.6667Z M24 8C26.9455 8 29.3334 10.3878 29.3334 13.3333C29.3334 16.2789 26.9455 18.6667 24 18.6667C21.0545 18.6667 18.6667 16.2789 18.6667 13.3333C18.6667 10.3878 21.0545 8 24 8Z M40 8C42.9455 8 45.3334 10.3878 45.3334 13.3333C45.3334 16.2789 42.9455 18.6667 40 18.6667C37.0545 18.6667 34.6667 16.2789 34.6667 13.3333C34.6667 10.3878 37.0545 8 40 8Z" fill="#141414"/>
</svg>