<svg fill="none" height="24" viewBox="0 0 24 24" width="24" xmlns="http://www.w3.org/2000/svg"><path clip-rule="evenodd" d="m12.5585 5.42912-3.90999 3.926c-2.176 2.18298-2.205 5.75898-.068 7.97198 1.029 1.067 2.40299 1.661 3.86699 1.673h.002c1.465.011 2.849-.56 3.895-1.61 2.174-2.179 2.203-5.754.065-7.96898zm-.127 15.57088c-2.007-.017-3.88499-.828-5.28999-2.284-2.889-2.992-2.85-7.823.087-10.76997l4.63299-4.651c.19-.19.448-.297.717-.295.269.003.525.114.711.306l4.56 4.727c2.888 2.99297 2.849 7.82497-.088 10.76897-1.429 1.434-3.321 2.214-5.328 2.198z" fill="#6b7280" fill-rule="evenodd"/></svg>