<svg fill="none" height="64" viewBox="0 0 64 64" width="64" xmlns="http://www.w3.org/2000/svg"><path clip-rule="evenodd" d="m33.4894 14.4777-10.4267 10.4693c-5.8026 5.8213-5.88 15.3573-.1813 21.2587 2.744 2.8453 6.408 4.4293 10.312 4.4613h.0053c3.9067.0293 7.5974-1.4933 10.3867-4.2933 5.7973-5.8107 5.8747-15.344.1733-21.2507zm-.3387 41.5224c-5.352-.0454-10.36-2.208-14.1066-6.0907-7.704-7.9787-7.6-20.8613.232-28.72l12.3546-12.40266c.5067-.50667 1.1947-.792 1.912-.78667.7174.008 1.4.304 1.896.816l12.16 12.60533c7.7014 7.9813 7.5974 20.8667-.2346 28.7173-3.8107 3.824-8.856 5.904-14.208 5.8614z" fill="#6b7280" fill-rule="evenodd"/></svg>