<svg fill="none" height="64" viewBox="0 0 64 64" width="64" xmlns="http://www.w3.org/2000/svg"><path clip-rule="evenodd" d="m31.9909 14.4764 10.3574 10.5573c3.6586 3.7253 4.9706 8.9387 3.976 13.7467l4.288 4.2906c2.792-7.288 1.3093-15.896-4.456-21.7706l-12.264-12.50138c-.5014-.50933-1.1867-.8-1.9014-.8h-.0026c-.7174 0-1.4027.29067-1.904.80267l-6.8 6.94131 3.7706 3.7734zm.0155 36.1899h-.0054c-3.9066 0-7.584-1.552-10.352-4.3733-5.0426-5.136-5.6586-13.1067-1.848-18.9494l-3.8186-3.8186c-5.8294 7.952-5.224 19.288 1.8613 26.504 3.7787 3.8506 8.8053 5.9706 14.1573 5.9706h.0054c4.48-.0026 8.72-1.504 12.2026-4.2506l-3.816-3.8134c-2.4453 1.7574-5.3386 2.728-8.3866 2.7307zm-19.4544-41.88523 42.6667 42.66663c1.0426 1.0427 1.0426 2.728 0 3.7707-.52.52-1.2027.7813-1.8854.7813-.6826 0-1.3653-.2613-1.8853-.7813l-42.66667-42.6667c-1.04267-1.0426-1.04267-2.72796 0-3.77063 1.04267-1.04266 2.72797-1.04266 3.77067 0z" fill="#6b7280" fill-rule="evenodd"/></svg>