<svg fill="none" height="24" viewBox="0 0 24 24" width="24" xmlns="http://www.w3.org/2000/svg"><path clip-rule="evenodd" d="m11.9966 5.42876 3.884 3.959c1.372 1.39704 1.864 3.35204 1.491 5.15504l1.608 1.609c1.047-2.733.491-5.961-1.671-8.16404l-4.599-4.688c-.188-.191-.445-.3-.713-.3h-.001c-.269 0-.526.109-.714.301l-2.54999 2.603 1.41399 1.415zm.0058 13.57124h-.002c-1.465 0-2.844-.582-3.882-1.64-1.891-1.926-2.122-4.915-.693-7.106l-1.432-1.43201c-2.186 2.98201-1.959 7.23301.698 9.93901 1.417 1.444 3.302 2.239 5.309 2.239h.002c1.68-.001 3.27-.564 4.576-1.594l-1.431-1.43c-.917.659-2.002 1.023-3.145 1.024zm-7.29539-15.70694 15.99999 16.00004c.391.391.391 1.023 0 1.414-.195.195-.451.293-.707.293s-.512-.098-.707-.293l-15.99999-16.00004c-.391-.391-.391-1.023 0-1.414s1.023-.391 1.414 0z" fill="#6b7280" fill-rule="evenodd"/></svg>