<svg fill="none" height="24" viewBox="0 0 24 24" width="24" xmlns="http://www.w3.org/2000/svg"><path clip-rule="evenodd" d="m11.9832 7.32275-5.61704 5.61695-.264 2.956 2.977-.271 5.60004-5.606zm5.983-.59384-2.695-2.694-1.948 1.948 2.695 2.696zm-12.875 11.26689c-.031.003-.061.004-.091.004-.264 0-.519-.104-.707-.293-.21-.21-.316-.502-.289-.797l.379-4.171c.042-.457.244-.888.569-1.213l8.996-8.99699c.702-.704 1.976-.669 2.716.07l2.738 2.738h.001c.766.767.796 1.98401.068 2.71401l-8.997 8.99698c-.325.326-.755.527-1.213.569zm-.0912 2.0041h14c.55 0 1 .45 1 1s-.45 1-1 1h-14c-.55 0-1-.45-1-1s.45-1 1-1z" fill="#6b7280" fill-rule="evenodd"/></svg>