<svg width="24" height="24" viewBox="0 0 24 24" fill="none" xmlns="http://www.w3.org/2000/svg">
<g id="Icon/Outline/edit">
<path id="Mask" fill-rule="evenodd" clip-rule="evenodd" d="M16.0186 10.6787L13.3236 7.98367L15.2716 6.03467L17.9656 8.72867L16.0186 10.6787ZM9.0796 17.6247L6.1026 17.8957L6.3666 14.9397L11.9836 9.32267L14.6796 12.0187L9.0796 17.6247ZM19.4036 7.33767L19.4026 7.33667L16.6646 4.59867C15.9236 3.85967 14.6506 3.82467 13.9486 4.52967L4.9526 13.5257C4.6266 13.8507 4.4246 14.2827 4.3826 14.7397L4.0036 18.9097C3.9776 19.2047 4.0826 19.4967 4.2926 19.7067C4.4816 19.8957 4.7366 19.9997 4.9996 19.9997C5.0306 19.9997 5.0606 19.9987 5.0906 19.9957L9.2606 19.6167C9.7186 19.5747 10.1496 19.3737 10.4746 19.0487L19.4716 10.0517C20.1996 9.32167 20.1686 8.10367 19.4036 7.33767Z" fill="#231F20"/>
<mask id="mask0" mask-type="alpha" maskUnits="userSpaceOnUse" x="3" y="4" width="17" height="16">
<path id="Mask_2" fill-rule="evenodd" clip-rule="evenodd" d="M16.0186 10.6787L13.3236 7.98367L15.2716 6.03467L17.9656 8.72867L16.0186 10.6787ZM9.0796 17.6247L6.1026 17.8957L6.3666 14.9397L11.9836 9.32267L14.6796 12.0187L9.0796 17.6247ZM19.4036 7.33767L19.4026 7.33667L16.6646 4.59867C15.9236 3.85967 14.6506 3.82467 13.9486 4.52967L4.9526 13.5257C4.6266 13.8507 4.4246 14.2827 4.3826 14.7397L4.0036 18.9097C3.9776 19.2047 4.0826 19.4967 4.2926 19.7067C4.4816 19.8957 4.7366 19.9997 4.9996 19.9997C5.0306 19.9997 5.0606 19.9987 5.0906 19.9957L9.2606 19.6167C9.7186 19.5747 10.1496 19.3737 10.4746 19.0487L19.4716 10.0517C20.1996 9.32167 20.1686 8.10367 19.4036 7.33767Z" fill="white"/>
</mask>
<g mask="url(#mask0)">
<g id="&#240;&#159;&#142;&#168; Color">
<rect id="Base" width="24" height="24" fill="#0D1C2E"/>
</g>
</g>
</g>
</svg>
