<svg fill="none" height="64" viewBox="0 0 64 64" width="64" xmlns="http://www.w3.org/2000/svg"><path clip-rule="evenodd" d="m42.7162 28.4766-7.1866-7.1867 5.1946-5.1973 7.184 7.184zm-18.5039 18.5222-7.9387.7227.704-7.8827 14.9787-14.9787 7.1893 7.1894zm27.5306-27.4318-.0027-.0027-7.3013-7.3013c-1.976-1.9707-5.3707-2.064-7.2427-.184l-23.9893 23.9893c-.8694.8667-1.408 2.0187-1.52 3.2373l-1.0107 11.12c-.0693.7867.2107 1.5654.7707 2.1254.504.504 1.184.7813 1.8853.7813.0827 0 .1627-.0027.2427-.0107l11.12-1.0106c1.2213-.112 2.3706-.648 3.2373-1.5147l23.992-23.992c1.9413-1.9467 1.8587-5.1947-.1813-7.2373z" fill="#6b7280" fill-rule="evenodd"/></svg>