<svg fill="none" height="64" viewBox="0 0 64 64" width="64" xmlns="http://www.w3.org/2000/svg"><path clip-rule="evenodd" d="m31.9551 19.527-14.9787 14.9787-.704 7.8826 7.9387-.7226 14.9333-14.9494zm15.9547-1.5836-7.1867-7.184-5.1946 5.1947 7.1866 7.1893zm-34.3333 30.0451c-.0827.008-.1627.0107-.2427.0107-.704 0-1.384-.2773-1.8853-.7813-.56-.56-.8427-1.3387-.7707-2.1254l1.0107-11.1226c.112-1.2187.6507-2.368 1.5173-3.2347l23.9894-23.99202c1.872-1.87734 5.2693-1.784 7.2426.18666l7.3014 7.30136h.0026c2.0427 2.0453 2.1227 5.2906.1814 7.2373l-23.992 23.992c-.8667.8694-2.0134 1.4054-3.2347 1.5174zm-.2432 5.3444h37.3333c1.4667 0 2.6667 1.2 2.6667 2.6666 0 1.4667-1.2 2.6667-2.6667 2.6667h-37.3333c-1.4667 0-2.6667-1.2-2.6667-2.6667 0-1.4666 1.2-2.6666 2.6667-2.6666z" fill="#6b7280" fill-rule="evenodd"/></svg>