<svg viewBox="0 0 64 64" fill="none" xmlns="http://www.w3.org/2000/svg">
<path fill-rule="evenodd" clip-rule="evenodd" d="M31.25 10.7741C31.8203 10.607 32.4332 10.6351 32.9896 10.8574L59.6563 21.5241L60.0209 21.7038C60.8254 22.1779 61.3334 23.0471 61.3334 24.0007V40.0007C61.3333 41.4734 60.1394 42.6673 58.6667 42.6673C57.194 42.6673 56.0001 41.4734 56 40.0007V27.9382L50.6667 30.071V42.6673C50.6661 46.43 47.6838 49.1197 44.5052 50.709C41.167 52.3779 36.742 53.334 32 53.334C27.2581 53.334 22.8331 52.3779 19.4948 50.709C16.3163 49.1197 13.3339 46.43 13.3334 42.6673V30.071L4.34377 26.4772C3.33139 26.0723 2.66674 25.091 2.66669 24.0007C2.66669 22.9103 3.33137 21.9291 4.34377 21.5241L31.0104 10.8574L31.25 10.7741ZM32.9896 37.1439C32.3544 37.3977 31.6456 37.3977 31.0104 37.1439L18.6667 32.2064V42.6673C18.6673 43.3225 19.2681 44.6331 21.8776 45.9382C24.3301 47.1644 27.906 48.0007 32 48.0007C36.0941 48.0007 39.67 47.1644 42.1224 45.9382C44.732 44.6331 45.3327 43.3225 45.3334 42.6673V32.2038L32.9896 37.1439ZM12.513 24.0007L32 31.7949L51.4844 24.0007L32 16.2064L12.513 24.0007Z" fill="#141414"/>
</svg>