<svg fill="none" height="64" viewBox="0 0 64 64" width="64" xmlns="http://www.w3.org/2000/svg"><path clip-rule="evenodd" d="m50.6667 47.9997h-37.3333c-1.4693 0-2.6666-1.1947-2.6666-2.6667v-26l19.7333 14.8c.4747.3573 1.0373.5333 1.6.5333.5626 0 1.1253-.176 1.6-.5333l19.7333-14.8v26c0 1.472-1.1973 2.6667-2.6667 2.6667zm-1.7786-31.9997-16.888 12.6667-16.888-12.6667zm1.7786-5.3335h-37.3333c-4.41069 0-8.00003 3.5893-8.00003 8v26.6667c0 4.4106 3.58934 8 8.00003 8h37.3333c4.4107 0 8-3.5894 8-8v-26.6667c0-4.4107-3.5893-8-8-8z" fill="#6b7280" fill-rule="evenodd"/></svg>