<svg fill="none" height="64" viewBox="0 0 64 64" width="64" xmlns="http://www.w3.org/2000/svg"><path d="m34.7549 11.9932c1.9713-1.959 5.1553-1.959 7.1269 0l.0059.0048 12.6426 12.6368c1.9589 1.9699 1.9593 5.1512.0019 7.122l-.0019.003-18.9903 19.1875h12.9004c1.3957 0 2.5284 1.131 2.5284 2.5263-.0003 1.3951-1.1329 2.5264-2.5284 2.5264h-26.5371c-.6795 0-1.3312-.2745-1.8066-.7598l-10.62697-10.8496-.00781-.0078c-1.95173-1.9713-1.94932-5.1482.00781-7.1162l.00586-.0049 25.27441-25.2637zm-.5488 9.6152c-.7811-.781-2.0481-.781-2.8291 0l-17.8916 17.8916c-.7809.7809-.7807 2.0471 0 2.8281l5.2216 5.2217c3.665 3.6649 9.6076 3.6649 13.2725 0l12.6699-12.6689c.7811-.7811.781-2.0481 0-2.8291zm-18.6221-13.6084c1.142 0 2.0683.92488 2.0683 2.0664 0 1.9026 1.5429 3.4453 3.4463 3.4453 1.1419.0001 2.0672.9251 2.0674 2.0664 0 1.1416-.9253 2.0674-2.0674 2.0674-1.9034 0-3.4463 1.5427-3.4463 3.4453-.0001 1.1415-.9263 2.0664-2.0683 2.0664-1.1419-.0001-2.0672-.925-2.0674-2.0664 0-1.9026-1.5438-3.4453-3.4473-3.4453-1.1418-.0003-2.06734-.926-2.06734-2.0674.00021-1.1412.92567-2.0661 2.06734-2.0664 1.9035 0 3.4473-1.5427 3.4473-3.4453.0001-1.14144.9255-2.06628 2.0674-2.0664z" fill="#000"/></svg>