<svg fill="none" height="24" viewBox="0 0 24 24" width="24" xmlns="http://www.w3.org/2000/svg"><path clip-rule="evenodd" d="m19 18v-6c0-.552.447-1 1-1s1 .448 1 1v6c0 1.654-1.346 3-3 3h-12c-1.654 0-3-1.346-3-3v-12c0-1.654 1.346-3 3-3h6c.553 0 1 .448 1 1s-.447 1-1 1h-6c-.552 0-1 .449-1 1v12c0 .551.448 1 1 1h12c.552 0 1-.449 1-1zm-1.4219-12.992-1.583-.008c-.553-.003-.998-.453-.995-1.005.003-.551.45-.995 1-.995h.005l3.997.02c.55.003.995.449.995.999l.003 3.98c0 .553-.447 1.001-.999 1.001h-.001c-.552 0-1-.447-1-.999l-.001-1.586-6.292 6.292c-.195.195-.451.293-.707.293s-.512-.098-.707-.293c-.391-.391-.391-1.023 0-1.414z" fill="#6b7280" fill-rule="evenodd"/></svg>