<svg fill="none" height="24" viewBox="0 0 24 24" width="24" xmlns="http://www.w3.org/2000/svg"><path clip-rule="evenodd" d="m12 13.5001c-.827 0-1.5-.673-1.5-1.5 0-.0131.003-.0259.006-.0387.0028-.0117.0055-.0234.006-.0353l1.562 1.562c-.0119.0004-.0236.0032-.0353.0059-.0128.0031-.0256.0061-.0387.0061zm-7.29302-10.20709c-.391-.391-1.023-.391-1.414 0s-.391 1.023 0 1.414l5.63 5.62999c-.276.509-.423 1.074-.423 1.663 0 1.93 1.57002 3.5 3.50002 3.5.589 0 1.154-.147 1.663-.423l5.63 5.63c.195.195.451.293.707.293s.512-.098.707-.293c.391-.391.391-1.023 0-1.414zm7.51272 13.70449c-4.30504.1-7.11504-3.583-8.04704-5.002.457-.714 1.223-1.76 2.283-2.71096l-1.411-1.412c-1.522 1.389-2.498 2.90696-2.912 3.62996-.177.308-.177.687 0 .995.629 1.097 4.029 6.502 9.89204 6.502.082 0 .164-.001.246-.003 1.184-.03 2.256-.286 3.227-.67l-1.58-1.58c-.535.142-1.098.236-1.698.251zm-.49-11.99406c5.975-.187 9.5 5.38696 10.138 6.49896.176.308.176.687 0 .995-.415.723-1.391 2.241-2.913 3.63l-1.411-1.412c1.06-.951 1.827-1.997 2.283-2.711-.932-1.419-3.755-5.10996-8.046-5.00196-.6.015-1.163.109-1.699.251l-1.58002-1.58c.972-.384 2.04302-.64 3.22802-.67z" fill="#6b7280" fill-rule="evenodd"/></svg>