<svg fill="none" height="64" viewBox="0 0 64 64" width="64" xmlns="http://www.w3.org/2000/svg"><path clip-rule="evenodd" d="m32 36.0001c-2.2053 0-4-1.7947-4-4 0-.0349.008-.069.0161-.1032.0073-.0312.0146-.0623.0159-.0941l4.1653 4.1653c-.0317.0013-.0629.0086-.0941.0159-.0341.0081-.0683.0161-.1032.0161zm-19.448-27.21883c-1.0427-1.04267-2.728-1.04267-3.77067 0-1.04267 1.04266-1.04267 2.72803 0 3.77063l15.01337 15.0134c-.736 1.3573-1.128 2.864-1.128 4.4346 0 5.1467 4.1866 9.3334 9.3333 9.3334 1.5707 0 3.0773-.392 4.4347-1.128l15.0133 15.0133c.52.52 1.2027.7813 1.8853.7813.6827 0 1.3654-.2613 1.8854-.7813 1.0426-1.0427 1.0426-2.728 0-3.7707zm20.0338 36.54543c-11.48.2667-18.9733-9.5547-21.4587-13.3387 1.2187-1.904 3.2614-4.6933 6.088-7.2293l-3.7626-3.7653c-4.0587 3.704-6.66137 7.752-7.76537 9.68-.472.8213-.472 1.832 0 2.6533 1.67733 2.9253 10.74397 17.3387 26.37867 17.3387.2187 0 .4373-.0027.656-.008 3.1573-.08 6.016-.7627 8.6053-1.7867l-4.2133-4.2133c-1.4267.3786-2.928.6293-4.528.6693zm-1.3066-31.9843c15.9333-.4986 25.3333 14.3654 27.0347 17.3307.4693.8213.4693 1.832 0 2.6533-1.1067 1.928-3.7094 5.976-7.768 9.68l-3.7627-3.7653c2.8267-2.536 4.872-5.3253 6.088-7.2293-2.4853-3.784-10.0133-13.6267-21.456-13.3387-1.6.04-3.1013.2907-4.5307.6693l-4.2133-4.2133c2.592-1.024 5.448-1.7067 8.608-1.7867z" fill="#6b7280" fill-rule="evenodd"/></svg>