<svg width="24" height="24" viewBox="0 0 24 24" fill="none" xmlns="http://www.w3.org/2000/svg">
<g id="Icon/Outline/eye-off-2">
<path id="Mask" fill-rule="evenodd" clip-rule="evenodd" d="M17.8091 13.395C19.5141 11.978 20.6991 9.95298 20.9921 7.62398C21.0611 7.07698 20.6731 6.57698 20.1241 6.50798C19.5841 6.43398 19.0761 6.82698 19.0081 7.37498C18.5691 10.867 15.5561 13.5 12.0001 13.5C8.4441 13.5 5.4311 10.867 4.9921 7.37498C4.9241 6.82698 4.4141 6.43798 3.8751 6.50798C3.3271 6.57698 2.9391 7.07698 3.0081 7.62398C3.3011 9.95298 4.4861 11.978 6.1911 13.395L3.8791 15.707C3.4901 16.096 3.4901 16.732 3.8791 17.121C4.2671 17.51 4.9041 17.51 5.2931 17.121L7.8961 14.518C8.8501 15 9.8971 15.318 11.0001 15.439V19C11.0001 19.55 11.4501 20 12.0001 20C12.5501 20 13.0001 19.55 13.0001 19V15.439C14.1021 15.318 15.1501 15 16.1031 14.518L18.7071 17.121C19.0961 17.51 19.7321 17.51 20.1211 17.121C20.5101 16.732 20.5101 16.096 20.1211 15.707L17.8091 13.395Z" fill="#231F20"/>
<mask id="mask0" mask-type="alpha" maskUnits="userSpaceOnUse" x="3" y="6" width="18" height="14">
<path id="Mask_2" fill-rule="evenodd" clip-rule="evenodd" d="M17.8091 13.395C19.5141 11.978 20.6991 9.95298 20.9921 7.62398C21.0611 7.07698 20.6731 6.57698 20.1241 6.50798C19.5841 6.43398 19.0761 6.82698 19.0081 7.37498C18.5691 10.867 15.5561 13.5 12.0001 13.5C8.4441 13.5 5.4311 10.867 4.9921 7.37498C4.9241 6.82698 4.4141 6.43798 3.8751 6.50798C3.3271 6.57698 2.9391 7.07698 3.0081 7.62398C3.3011 9.95298 4.4861 11.978 6.1911 13.395L3.8791 15.707C3.4901 16.096 3.4901 16.732 3.8791 17.121C4.2671 17.51 4.9041 17.51 5.2931 17.121L7.8961 14.518C8.8501 15 9.8971 15.318 11.0001 15.439V19C11.0001 19.55 11.4501 20 12.0001 20C12.5501 20 13.0001 19.55 13.0001 19V15.439C14.1021 15.318 15.1501 15 16.1031 14.518L18.7071 17.121C19.0961 17.51 19.7321 17.51 20.1211 17.121C20.5101 16.732 20.5101 16.096 20.1211 15.707L17.8091 13.395Z" fill="white"/>
</mask>
<g mask="url(#mask0)">
<g id="&#240;&#159;&#142;&#168; Color">
<rect id="Base" width="24" height="24" fill="#0D1C2E"/>
</g>
</g>
</g>
</svg>
