<svg fill="none" height="64" viewBox="0 0 64 64" width="64" xmlns="http://www.w3.org/2000/svg"><path clip-rule="evenodd" d="m32 36c-2.2053 0-4-1.7946-4-4 0-2.2053 1.7947-4 4-4s4 1.7947 4 4c0 2.2054-1.7947 4-4 4zm0-13.3329c-5.1467 0-9.3334 4.1866-9.3334 9.3333s4.1867 9.3333 9.3334 9.3333c5.1466 0 9.3333-4.1866 9.3333-9.3333s-4.1867-9.3333-9.3333-9.3333zm.5857 22.6602c-11.4827.2667-18.9733-9.5546-21.4587-13.3386 2.736-4.28 9.6267-13.0427 20.288-13.3147 11.4374-.2907 18.9707 9.5547 21.456 13.3387-2.7333 4.28-9.6266 13.0426-20.2853 13.3146zm25.7281-14.6536c-1.7013-2.9653-11.0987-17.8293-27.0347-17.3306-14.7413.3733-23.31464 13.36-25.59197 17.3306-.472.8214-.472 1.832 0 2.6534 1.67733 2.9253 10.74397 17.3386 26.37867 17.3386.2187 0 .4373-.0026.656-.008 14.7387-.376 23.3147-13.36 25.592-17.3306.4693-.8214.4693-1.832 0-2.6534z" fill="#6b7280" fill-rule="evenodd"/></svg>