<svg fill="none" height="24" viewBox="0 0 24 24" width="24" xmlns="http://www.w3.org/2000/svg"><path clip-rule="evenodd" d="m12 13.5c-.827 0-1.5-.673-1.5-1.5s.673-1.5 1.5-1.5 1.5.673 1.5 1.5-.673 1.5-1.5 1.5zm0-4.99988c-1.93 0-3.49999 1.56998-3.49999 3.49998s1.56999 3.5 3.49999 3.5 3.5-1.57 3.5-3.5-1.57-3.49998-3.5-3.49998zm.2197 8.49758c-4.30604.1-7.11504-3.583-8.04704-5.002 1.026-1.605 3.61-4.89098 7.60804-4.99298 4.289-.109 7.114 3.58298 8.046 5.00198-1.025 1.605-3.61 4.891-7.607 4.993zm9.648-5.4951c-.638-1.112-4.162-6.68598-10.138-6.49898-5.52801.14-8.74301 5.00998-9.59701 6.49898-.177.308-.177.687 0 .995.629 1.097 4.029 6.502 9.89201 6.502.082 0 .164-.001.246-.003 5.527-.141 8.743-5.01 9.597-6.499.176-.308.176-.687 0-.995z" fill="#6b7280" fill-rule="evenodd"/></svg>