<svg fill="none" height="24" viewBox="0 0 24 24" width="24" xmlns="http://www.w3.org/2000/svg"><path clip-rule="evenodd" d="m10 20.0001h2v-6.2c0-.553.447-1 1-1h2.24l.445-1.6h-2.685c-.553 0-1-.447-1-1v-2.70004c0-1.048.897-1.9 2-1.9h2v-1.59999h-2c-2.206 0-4 1.56999-4 3.49999v2.70004c0 .553-.44698 1-.99998 1h-2v1.6h2c.553 0 .99998.447.99998 1zm3 1.9999h-4c-.553 0-1-.447-1-1v-6.2h-2c-.553 0-1-.447-1-1v-3.6c0-.553.447-1 1-1h2v-1.7c0-3.032 2.691-5.5 6-5.5h3c.553 0 1 .447 1 1v3.6c0 .552-.447 1-1 1h-3v1.6h3c.312 0 .607.147.796.395.189.249.251.572.168.873l-1 3.599c-.12.433-.515.733-.964.733h-2v6.2c0 .553-.447 1-1 1z" fill="#6b7280" fill-rule="evenodd"/></svg>