<svg fill="none" height="64" viewBox="0 0 64 64" width="64" xmlns="http://www.w3.org/2000/svg"><path clip-rule="evenodd" d="m26.6668 53.3337h5.3333v-16.5334c0-1.4746 1.192-2.6666 2.6667-2.6666h5.9733l1.1867-4.2667h-7.16c-1.4747 0-2.6667-1.192-2.6667-2.6667v-7.2c0-2.7946 2.392-5.0666 5.3333-5.0666h5.3334v-4.2667h-5.3334c-5.8826 0-10.6666 4.1867-10.6666 9.3333v7.2c0 1.4747-1.192 2.6667-2.6667 2.6667h-5.3334v4.2667h5.3334c1.4747 0 2.6667 1.192 2.6667 2.6666zm7.9999 5.3331h-10.6667c-1.4746 0-2.6666-1.192-2.6666-2.6666v-16.5334h-5.3334c-1.4746 0-2.6666-1.192-2.6666-2.6666v-9.6c0-1.4747 1.192-2.6667 2.6666-2.6667h5.3334v-4.5333c0-8.0854 7.176-14.6667 16-14.6667h8c1.4746 0 2.6666 1.192 2.6666 2.66666v9.60004c0 1.472-1.192 2.6666-2.6666 2.6666h-8v4.2667h8c.832 0 1.6186.392 2.1226 1.0533.504.664.6694 1.5254.448 2.328l-2.6666 9.5974c-.32 1.1546-1.3734 1.9546-2.5707 1.9546h-5.3333v16.5334c0 1.4746-1.192 2.6666-2.6667 2.6666z" fill="#6b7280" fill-rule="evenodd"/></svg>