<svg viewBox="0 0 64 64" fill="none" xmlns="http://www.w3.org/2000/svg">
<path fill-rule="evenodd" clip-rule="evenodd" d="M42.6666 24C42.6666 21.0346 41.4559 18.3526 39.5026 16.4193C38.924 18.2648 37.8027 20.2357 35.9453 21.9557C32.9891 24.693 28.387 26.5977 21.6666 26.6589C22.848 31.2635 27.0269 34.6667 32 34.6667C37.891 34.6667 42.6666 29.891 42.6666 24ZM32 13.3333C27.0324 13.3333 22.8559 16.7286 21.6692 21.3255C27.3558 21.265 30.5593 19.6742 32.3203 18.0443C33.9783 16.5091 34.55 14.7689 34.6458 13.6641C33.7998 13.4481 32.9133 13.3333 32 13.3333ZM48 24C48 26.615 49.4121 32.391 54.526 34.9479C55.8433 35.6066 56.3774 37.2088 55.7187 38.526C55.0601 39.8433 53.4579 40.3774 52.1406 39.7188C48.8471 38.072 46.6384 35.6116 45.1875 33.0547C44.2261 34.4522 43.0489 35.6877 41.7031 36.7161C48.4926 39.7491 53.3333 45.8852 53.3333 53.3333C53.3333 54.8061 52.1394 56 50.6666 56C49.1939 56 48 54.8061 48 53.3333C48 46.3404 41.237 40 32 40C22.763 40 16 46.3404 16 53.3333C16 54.8061 14.8061 56 13.3333 56C11.8606 56 10.6666 54.8061 10.6666 53.3333C10.6666 45.886 15.5059 39.7494 22.2942 36.7161C20.9488 35.6876 19.771 34.4522 18.8099 33.0547C17.3589 35.6112 15.1523 38.0723 11.8594 39.7188C10.5421 40.3774 8.93987 39.8433 8.28123 38.526C7.62259 37.2088 8.15666 35.6066 9.47394 34.9479C14.5879 32.391 16 26.615 16 24C16 15.1634 23.1634 8 32 8C40.8365 8 48 15.1634 48 24Z" fill="#141414"/>
</svg>