<svg fill="none" height="24" viewBox="0 0 24 24" width="24" xmlns="http://www.w3.org/2000/svg"><path clip-rule="evenodd" d="m12 13.9999h-3.00004c-.552 0-1-.448-1-1s.448-1 1-1h3.00004c.552 0 1 .448 1 1s-.448 1-1 1zm-3.00004 2h6.00004c.553 0 1 .448 1 1s-.447 1-1 1h-6.00004c-.552 0-1-.448-1-1s.448-1 1-1zm8.44424 4.0002h-10.88899c-.306 0-.555-.224-.555-.5v-15.00003c0-.276.249-.5.555-.5h5.44499v3.14999c0 1.572 1.217 2.85004 2.714 2.85004h3.286v9.5c0 .276-.249.5-.556.5zm-3.4439-15.02207 2.742 3.022h-2.028c-.394 0-.714-.381-.714-.85zm5.7399 3.34997-5.444-6c-.19-.209-.458-.328-.741-.328h-6.99996c-1.409 0-2.555 1.122-2.555 2.5v15c0 1.378 1.146 2.5 2.555 2.5h10.88896c1.409 0 2.556-1.122 2.556-2.5v-10.5c0-.249-.093-.488-.26-.672z" fill="#6b7280" fill-rule="evenodd"/></svg>