<svg fill="none" height="64" viewBox="0 0 64 64" width="64" xmlns="http://www.w3.org/2000/svg"><path clip-rule="evenodd" d="m31.9999 37.3333h-8c-1.472 0-2.6666-1.1946-2.6666-2.6666s1.1946-2.6667 2.6666-2.6667h8c1.472 0 2.6667 1.1947 2.6667 2.6667s-1.1947 2.6666-2.6667 2.6666zm-10.6666 7.9998c0-1.4719 1.1946-2.6666 2.6666-2.6666h16c1.4747 0 2.6667 1.1947 2.6667 2.6666 0 1.472-1.192 2.6667-2.6667 2.6667h-16c-1.472 0-2.6666-1.1947-2.6666-2.6667zm25.1846 8.0006h-29.0373c-.816 0-1.48-.5974-1.48-1.3334v-40c0-.736.664-1.3333 1.48-1.3333h14.52v8.4c0 4.192 3.2453 7.6 7.2373 7.6h8.7627v25.3333c0 .736-.664 1.3334-1.4827 1.3334zm-9.1838-40.0588 7.312 8.0587h-5.408c-1.0507 0-1.904-1.016-1.904-2.2667zm15.3066 8.9333-14.5173-16.00004c-.5067-.55733-1.2214-.87466-1.976-.87466h-18.6667c-3.7573 0-6.8133 2.992-6.8133 6.6667v40c0 3.6746 3.056 6.6666 6.8133 6.6666h29.0373c3.7574 0 6.816-2.992 6.816-6.6666v-28c0-.664-.248-1.3014-.6933-1.792z" fill="#6b7280" fill-rule="evenodd"/></svg>