<svg width="24" height="24" viewBox="0 0 24 24" fill="none" xmlns="http://www.w3.org/2000/svg">
<g id="Icon/Outline/file-add">
<path id="Mask" fill-rule="evenodd" clip-rule="evenodd" d="M14 13H13V12C13 11.448 12.553 11 12 11C11.447 11 11 11.448 11 12V13H10C9.447 13 9 13.448 9 14C9 14.552 9.447 15 10 15H11V16C11 16.552 11.447 17 12 17C12.553 17 13 16.552 13 16V15H14C14.553 15 15 14.552 15 14C15 13.448 14.553 13 14 13ZM17.4443 20H6.5553C6.2493 20 6.0003 19.776 6.0003 19.5V4.5C6.0003 4.224 6.2493 4 6.5553 4H12.0003V7.15C12.0003 8.722 13.2173 10 14.7143 10H18.0003V19.5C18.0003 19.776 17.7513 20 17.4443 20ZM14.0003 4.978L16.7423 8H14.7143C14.3203 8 14.0003 7.619 14.0003 7.15V4.978ZM19.7403 8.328L14.2963 2.328C14.1063 2.119 13.8383 2 13.5553 2H6.5553C5.1463 2 4.0003 3.122 4.0003 4.5V19.5C4.0003 20.878 5.1463 22 6.5553 22H17.4443C18.8533 22 20.0003 20.878 20.0003 19.5V9C20.0003 8.751 19.9073 8.512 19.7403 8.328Z" fill="#231F20"/>
<mask id="mask0" mask-type="alpha" maskUnits="userSpaceOnUse" x="4" y="2" width="17" height="20">
<path id="Mask_2" fill-rule="evenodd" clip-rule="evenodd" d="M14 13H13V12C13 11.448 12.553 11 12 11C11.447 11 11 11.448 11 12V13H10C9.447 13 9 13.448 9 14C9 14.552 9.447 15 10 15H11V16C11 16.552 11.447 17 12 17C12.553 17 13 16.552 13 16V15H14C14.553 15 15 14.552 15 14C15 13.448 14.553 13 14 13ZM17.4443 20H6.5553C6.2493 20 6.0003 19.776 6.0003 19.5V4.5C6.0003 4.224 6.2493 4 6.5553 4H12.0003V7.15C12.0003 8.722 13.2173 10 14.7143 10H18.0003V19.5C18.0003 19.776 17.7513 20 17.4443 20ZM14.0003 4.978L16.7423 8H14.7143C14.3203 8 14.0003 7.619 14.0003 7.15V4.978ZM19.7403 8.328L14.2963 2.328C14.1063 2.119 13.8383 2 13.5553 2H6.5553C5.1463 2 4.0003 3.122 4.0003 4.5V19.5C4.0003 20.878 5.1463 22 6.5553 22H17.4443C18.8533 22 20.0003 20.878 20.0003 19.5V9C20.0003 8.751 19.9073 8.512 19.7403 8.328Z" fill="white"/>
</mask>
<g mask="url(#mask0)">
<g id="&#240;&#159;&#142;&#168; Color">
<rect id="Base" width="24" height="24" fill="#0D1C2E"/>
</g>
</g>
</g>
</svg>
