<svg fill="none" height="24" viewBox="0 0 24 24" width="24" xmlns="http://www.w3.org/2000/svg"><path clip-rule="evenodd" d="m17.4442 20.0001h-10.88899c-.306 0-.555-.224-.555-.5v-15.00003c0-.276.249-.5.555-.5h4.44499v4.14999c0 1.572 1.217 2.85004 2.714 2.85004h4.286v8.5c0 .276-.25.5-.556.5zm.205-11.00004h-3.935c-.394 0-.714-.381-.714-.85v-4.14999h.112zm2.091-.67206-5.444-6c-.189-.209-.458-.328-.741-.328h-6.99996c-1.409 0-2.555 1.122-2.555 2.5v15c0 1.378 1.146 2.5 2.555 2.5h10.88896c1.409 0 2.556-1.122 2.556-2.5v-10.5c0-.249-.093-.488-.26-.672z" fill="#6b7280" fill-rule="evenodd"/></svg>