<svg width="24" height="24" viewBox="0 0 24 24" fill="none" xmlns="http://www.w3.org/2000/svg">
<g id="Icon/Outline/film">
<path id="Mask" fill-rule="evenodd" clip-rule="evenodd" d="M19 18.2559C19 18.6659 18.666 18.9999 18.256 18.9999H17V16.9999H19V18.2559ZM5 18.2559V16.9999H7V18.9999H5.744C5.334 18.9999 5 18.6659 5 18.2559ZM5.744 4.99989H7V6.99989H5V5.74389C5 5.33389 5.334 4.99989 5.744 4.99989ZM19 5.74389V6.99989H17V4.99989H18.256C18.666 4.99989 19 5.33389 19 5.74389ZM17 14.9999H19V12.9999H17V14.9999ZM17 10.9999H19V8.99989H17V10.9999ZM9 18.9999H15V4.99989H9V18.9999ZM5 14.9999H7V12.9999H5V14.9999ZM5 10.9999H7V8.99989H5V10.9999ZM18.256 2.99989H5.744C4.231 2.99989 3 4.23189 3 5.74389V18.2559C3 19.7689 4.231 20.9999 5.744 20.9999H18.256C19.769 20.9999 21 19.7689 21 18.2559V5.74389C21 4.23189 19.769 2.99989 18.256 2.99989Z" fill="#423F3D"/>
</g>
</svg>
