<svg fill="none" height="24" viewBox="0 0 24 24" width="24" xmlns="http://www.w3.org/2000/svg"><path clip-rule="evenodd" d="m19 18.2561c0 .41-.334.744-.744.744h-1.256v-2h2zm-13.99998 0v-1.256h2v2h-1.256c-.41 0-.744-.334-.744-.744zm.744-13.25603h1.256v1.99999h-2v-1.256c0-.41.334-.74399.744-.74399zm13.25598.74399v1.256h-2v-1.99999h1.256c.41 0 .744.33399.744.74399zm-2 9.25584h2v-2h-2zm0-3.9999h2v-2h-2zm-8 8.0001h6v-14.00003h-6zm-3.99998-4.0002h2v-2h-2zm0-3.9999h2v-2h-2zm13.25598-8h-12.512c-1.513 0-2.744 1.232-2.744 2.744v12.512c0 1.513 1.231 2.744 2.744 2.744h12.512c1.513 0 2.744-1.231 2.744-2.744v-12.512c0-1.512-1.231-2.744-2.744-2.744z" fill="#6b7280" fill-rule="evenodd"/></svg>