<svg width="24" height="24" viewBox="0 0 24 24" fill="none" xmlns="http://www.w3.org/2000/svg">
<g id="Icon/Outline/fire">
<path id="Mask" fill-rule="evenodd" clip-rule="evenodd" d="M7.4951 9.5165C5.4631 11.7155 5.5061 15.2015 7.6241 17.3605C8.6581 18.4175 10.0321 19.0005 11.4961 19.0015H11.5011C12.9681 19.0015 14.3471 18.4185 15.3861 17.3605C17.5421 15.1625 17.5381 11.5875 15.3771 9.3925L12.3911 6.3415C12.0891 8.8235 11.1581 11.0015 9.5001 11.0015C8.9921 11.0015 8.1641 10.7755 7.4951 9.5165ZM11.5011 21.0015H11.4941C9.4881 20.9995 7.6061 20.2045 6.1951 18.7595C3.2811 15.7895 3.2771 10.9565 6.1861 7.9915L7.1691 6.9975C7.4231 6.7435 7.7921 6.6455 8.1411 6.7365C8.4881 6.8305 8.7581 7.1035 8.8481 7.4515C9.0781 8.3405 9.3521 8.7775 9.5031 8.9435C9.8581 8.5695 10.5001 7.0585 10.5001 4.5015C10.5001 4.3545 10.5001 4.2155 10.4921 4.0765C10.4731 3.7815 10.5861 3.4925 10.8001 3.2885C11.1971 2.9115 11.8331 2.9115 12.2141 3.3035L16.8041 7.9925C19.7241 10.9565 19.7291 15.7895 16.8141 18.7605C15.3951 20.2065 13.5091 21.0015 11.5011 21.0015Z" fill="#231F20"/>
<mask id="mask0" mask-type="alpha" maskUnits="userSpaceOnUse" x="4" y="3" width="15" height="19">
<path id="Mask_2" fill-rule="evenodd" clip-rule="evenodd" d="M7.4951 9.5165C5.4631 11.7155 5.5061 15.2015 7.6241 17.3605C8.6581 18.4175 10.0321 19.0005 11.4961 19.0015H11.5011C12.9681 19.0015 14.3471 18.4185 15.3861 17.3605C17.5421 15.1625 17.5381 11.5875 15.3771 9.3925L12.3911 6.3415C12.0891 8.8235 11.1581 11.0015 9.5001 11.0015C8.9921 11.0015 8.1641 10.7755 7.4951 9.5165ZM11.5011 21.0015H11.4941C9.4881 20.9995 7.6061 20.2045 6.1951 18.7595C3.2811 15.7895 3.2771 10.9565 6.1861 7.9915L7.1691 6.9975C7.4231 6.7435 7.7921 6.6455 8.1411 6.7365C8.4881 6.8305 8.7581 7.1035 8.8481 7.4515C9.0781 8.3405 9.3521 8.7775 9.5031 8.9435C9.8581 8.5695 10.5001 7.0585 10.5001 4.5015C10.5001 4.3545 10.5001 4.2155 10.4921 4.0765C10.4731 3.7815 10.5861 3.4925 10.8001 3.2885C11.1971 2.9115 11.8331 2.9115 12.2141 3.3035L16.8041 7.9925C19.7241 10.9565 19.7291 15.7895 16.8141 18.7605C15.3951 20.2065 13.5091 21.0015 11.5011 21.0015Z" fill="white"/>
</mask>
<g mask="url(#mask0)">
<g id="&#240;&#159;&#142;&#168; Color">
<rect id="Base" width="24" height="24" fill="#0D1C2E"/>
</g>
</g>
</g>
</svg>
