<svg fill="none" height="64" viewBox="0 0 64 64" width="64" xmlns="http://www.w3.org/2000/svg"><path clip-rule="evenodd" d="m19.9869 25.3771c-5.4187 5.864-5.304 15.16.344 20.9173 2.7573 2.8187 6.4213 4.3733 10.3253 4.376h.0134c3.912 0 7.5893-1.5547 10.36-4.376 5.7493-5.8613 5.7386-15.3946-.024-21.248l-7.9627-8.136c-.8053 6.6187-3.288 12.4267-7.7093 12.4267-1.3547 0-3.5627-.6027-5.3467-3.96zm10.6826 30.6266h-.0186c-5.3494-.0053-10.368-2.1253-14.1307-5.9786-7.77068-7.92-7.78134-20.808-.024-28.7147l2.6213-2.6506c.6774-.6774 1.6614-.9387 2.592-.696.9254.2506 1.6454.9786 1.8854 1.9066.6133 2.3707 1.344 3.536 1.7466 3.9787.9467-.9973 2.6587-5.0267 2.6587-11.8453 0-.392 0-.7627-.0213-1.1334-.0507-.7866.2506-1.55731.8213-2.10131 1.0586-1.00533 2.7546-1.00533 3.7706.04l12.24 12.50401c7.7867 7.904 7.8 20.792.0267 28.7147-3.784 3.856-8.8133 5.9759-14.168 5.9759z" fill="#6b7280" fill-rule="evenodd"/></svg>