<svg fill="none" height="24" viewBox="0 0 24 24" width="24" xmlns="http://www.w3.org/2000/svg"><path clip-rule="evenodd" d="m7.4951 9.51647c-2.032 2.19903-1.989 5.68503.129 7.84403 1.034 1.057 2.408 1.64 3.872 1.641h.005c1.467 0 2.846-.583 3.885-1.641 2.156-2.198 2.152-5.773-.009-7.96803l-2.986-3.051c-.302 2.482-1.233 4.66003-2.891 4.66003-.508 0-1.336-.226-2.005-1.48503zm4.006 11.48503h-.007c-2.00601-.002-3.88801-.797-5.29901-2.242-2.914-2.97-2.918-7.803-.009-10.76803l.983-.994c.254-.254.623-.352.972-.261.347.094.617.367.707.715.23.889.50399 1.326.65499 1.492.355-.374.99702-1.885.99702-4.442 0-.147 0-.286-.008-.425-.019-.295.094-.584.308-.788.397-.377 1.033-.377 1.414.015l4.59 4.689c2.92 2.96403 2.925 7.79703.01 10.76803-1.419 1.446-3.305 2.241-5.313 2.241z" fill="#6b7280" fill-rule="evenodd"/></svg>