<svg viewBox="0 0 64 64" fill="none" xmlns="http://www.w3.org/2000/svg">
<path fill-rule="evenodd" clip-rule="evenodd" d="M32.5605 7.99994C33.2585 7.99994 33.943 7.99665 34.5175 8.04388C35.123 8.09375 35.8378 8.21245 36.5566 8.58099C37.4288 9.02831 38.1588 9.70879 38.6679 10.5439L38.873 10.9111L39.1035 11.4531C39.2929 11.9886 39.369 12.5071 39.4062 12.9638C39.4531 13.5419 39.4501 14.2303 39.4501 14.9326V49.0673C39.4501 49.7695 39.4531 50.458 39.4062 51.0361C39.3566 51.6454 39.2393 52.3654 38.873 53.0888C38.3649 54.092 37.5535 54.9076 36.5566 55.4189C35.8378 55.7874 35.123 55.9061 34.5175 55.956C34.2297 55.9797 33.9133 55.9897 33.5829 55.9951L32.5605 55.9999H11.8886C11.1908 55.9999 10.507 56.0032 9.93256 55.956C9.32703 55.9061 8.61232 55.7874 7.89349 55.4189C6.89651 54.9076 6.08519 54.092 5.57709 53.0888C5.21082 52.3654 5.09343 51.6454 5.04388 51.0361C4.99697 50.458 4.99994 49.7696 4.99994 49.0673V14.9326C4.99994 14.2303 4.99696 13.5419 5.04388 12.9638C5.09343 12.3545 5.21082 11.6344 5.57709 10.9111C6.08519 9.90788 6.89653 9.09223 7.89349 8.58099C8.6123 8.21246 9.32705 8.09374 9.93256 8.04388C10.507 7.99666 11.1908 7.99994 11.8886 7.99994H32.5605ZM53.0488 12.0107C53.7749 10.732 55.3933 10.2879 56.664 11.0185C57.9347 11.7492 58.3764 13.3775 57.6503 14.6562L48.5536 30.6767C48.0881 31.4965 48.0881 32.5034 48.5536 33.3232L57.6503 49.3437C58.3764 50.6224 57.9347 52.2507 56.664 52.9814C55.3933 53.712 53.7749 53.2679 53.0488 51.9892L43.9531 35.9687C42.5564 33.5092 42.5564 30.4906 43.9531 28.0312L53.0488 12.0107ZM11.8886 13.3329C11.1037 13.3329 10.673 13.3369 10.3642 13.3622C10.3526 13.3632 10.3415 13.3632 10.331 13.3642C10.33 13.3749 10.329 13.3865 10.3281 13.3984C10.3028 13.7091 10.2997 14.1425 10.2997 14.9326V49.0673C10.2997 49.8574 10.3028 50.2908 10.3281 50.6015C10.329 50.6124 10.3301 50.6229 10.331 50.6328C10.3415 50.6337 10.3525 50.6366 10.3642 50.6376C10.673 50.663 11.1037 50.6669 11.8886 50.6669H32.5605C33.3454 50.6669 33.7761 50.663 34.0849 50.6376C34.0958 50.6367 34.1063 50.6337 34.1161 50.6328C34.1171 50.6228 34.1201 50.6125 34.121 50.6015C34.1463 50.2907 34.1503 49.8574 34.1503 49.0673V14.9326C34.1503 14.1425 34.1463 13.7091 34.121 13.3984C34.12 13.3864 34.1171 13.3749 34.1161 13.3642C34.1063 13.3633 34.0957 13.3631 34.0849 13.3622C33.7761 13.3369 33.3454 13.3329 32.5605 13.3329H11.8886Z" fill="#141414"/>
</svg>