<svg fill="none" height="64" viewBox="0 0 64 64" width="64" xmlns="http://www.w3.org/2000/svg"><path clip-rule="evenodd" d="m48 38.8959c-1.056.472-3.1333 1.104-6.6667 1.104-2.9973 0-5.6026-1.0213-8.36-2.1013-3.0986-1.2133-6.304-2.4693-10.3066-2.4693-2.8187 0-5.0027.3386-6.6667.7946v-4.224-17.5573c1.056-.472 3.1387-1.1093 6.6667-1.1093 2.9973 0 5.6026 1.0213 8.36 2.1013 3.0986 1.2133 6.304 2.4693 10.3066 2.4693 2.5014 0 4.736-.2693 6.6667-.8zm3.3813-26.4161c-1.232-.8907-2.8267-1.144-4.264-.6747-1.536.4987-3.536.7653-5.784.7653-2.9973 0-5.6027-1.0213-8.36-2.1013-3.0987-1.21334-6.304-2.46934-10.3067-2.46934-7.6986 0-10.68 2.53864-11.2 3.05064-.512.4987-.8 1.1867-.8 1.9014v19.048 8.3813 12.952c0 1.4747 1.192 2.6667 2.6667 2.6667s2.6667-1.192 2.6667-2.6667v-11.4613c1.0533-.4694 3.128-1.1094 6.6666-1.1094 2.9974 0 5.6027 1.0214 8.36 2.1014 3.0987 1.2133 6.304 2.4693 10.3067 2.4693 4.824 0 7.7947-1.008 9.4427-1.8533 1.5786-.8187 2.5573-2.408 2.5573-4.1494v-23.048c0-1.4933-.728-2.9146-1.952-3.8026z" fill="#6b7280" fill-rule="evenodd"/></svg>