<svg fill="none" height="24" viewBox="0 0 24 24" width="24" xmlns="http://www.w3.org/2000/svg"><path clip-rule="evenodd" d="m18 14.5861c-.396.177-1.175.414-2.5.414-1.124 0-2.101-.383-3.135-.788-1.162-.455-2.364-.926-3.86498-.926-1.057 0-1.876.127-2.5.298v-1.584-6.58403c.396-.177 1.177-.416 2.5-.416 1.124 0 2.10098.383 3.13498.788 1.162.455 2.364.926 3.865.926.938 0 1.776-.101 2.5-.3zm1.268-9.9061c-.462-.334-1.06-.429-1.599-.253-.576.187-1.326.287-2.169.287-1.124 0-2.101-.383-3.135-.788-1.162-.455-2.364-.926-3.865-.926-2.887 0-4.005.952-4.2 1.144-.192.187-.3.445-.3.713v7.143 3.143 4.857c0 .553.447 1 1 1s1-.447 1-1v-4.298c.395-.176 1.173-.416 2.5-.416 1.124 0 2.101.383 3.135.788 1.162.455 2.364.926 3.865.926 1.809 0 2.923-.378 3.541-.695.592-.307.959-.903.959-1.556v-8.643c0-.56-.273-1.093-.732-1.426z" fill="#6b7280" fill-rule="evenodd"/></svg>