<svg fill="none" height="64" viewBox="0 0 64 64" width="64" xmlns="http://www.w3.org/2000/svg"><path clip-rule="evenodd" d="m18.3229 34.1331h13.6773c.7573 0 1.48.3226 1.984.8853s.7467 1.3147.6667 2.0667l-1.1974 11.0666 12.224-18.2853h-13.6773c-.7573 0-1.48-.3227-1.984-.8853-.5066-.5627-.7493-1.3147-.6666-2.0667l1.1973-11.064zm11.3067 27.1996c-.304 0-.6107-.0506-.912-.16-1.152-.4213-1.872-1.5733-1.7387-2.792l2.0507-18.9147h-15.696c-.984 0-1.888-.5413-2.352-1.408-.464-.8693-.4107-1.9226.136-2.7413l21.0373-31.46399c.68-1.024 1.9707-1.44533 3.1253-1.024 1.1547.41867 1.8747 1.57334 1.7414 2.792l-2.0507 18.91199h15.696c.984 0 1.888.544 2.352 1.4107.464.8693.4107 1.92-.136 2.7386l-21.0373 31.4667c-.504.7573-1.3467 1.184-2.216 1.184z" fill="#6b7280" fill-rule="evenodd"/></svg>