<svg fill="none" height="24" viewBox="0 0 24 24" width="24" xmlns="http://www.w3.org/2000/svg"><path clip-rule="evenodd" d="m11.1931 8.36425.262-2.421-1.075 1.608-1.44195-1.441 3.11995-4.666c.255-.384.74-.542001 1.172-.384.433.157.703.59.653 1.047l-.769 7.093h5.886c.369 0 .708.203.882.528.174.32595.154.72105-.051 1.02695l-2.503 3.7451-1.441-1.442 1.242-1.8581h-3.101zm9.5139 10.92865-15.99999-15.99999c-.391-.391-1.023-.391-1.414 0s-.391 1.023 0 1.414l15.99999 15.99999c.195.195.451.293.707.293s.512-.098.707-.293c.391-.391.391-1.023 0-1.414zm-8.1621-1.2365.262-2.421-2.835-2.836h-3.101l1.242-1.858-1.441-1.44202-2.503 3.74502c-.205.306-.225.701-.051 1.027.174.325.513.528.882.528h5.886l-.769 7.093c-.05.457.22.89.653 1.047.112.041.227.06.341.06.327 0 .642-.16.831-.444l3.12-4.666-1.442-1.441z" fill="#6b7280" fill-rule="evenodd"/></svg>