<svg fill="none" height="64" viewBox="0 0 64 64" width="64" xmlns="http://www.w3.org/2000/svg"><path clip-rule="evenodd" d="m29.8483 22.3048.6987-6.456-2.8667 4.288-3.8453-3.8426 8.32-12.44271c.68-1.024 1.9733-1.44533 3.1253-1.024 1.1547.41867 1.8747 1.57334 1.7414 2.792l-2.0507 18.91471h15.696c.984 0 1.888.5413 2.352 1.408.464.8693.4107 1.9226-.136 2.7386l-6.6747 9.9867-3.8426-3.8453 3.312-4.9547h-8.2694zm25.3703 29.1431-42.6666-42.66663c-1.0427-1.04267-2.72804-1.04267-3.7707 0-1.04267 1.04266-1.04267 2.72803 0 3.77063l42.6667 42.6667c.52.52 1.2026.7813 1.8853.7813s1.3653-.2613 1.8853-.7813c1.0427-1.0427 1.0427-2.728 0-3.7707zm-21.7656-3.2974.6987-6.456-7.56-7.5626h-8.2694l3.312-4.9547-3.8426-3.8453-6.6747 9.9866c-.5467.816-.6 1.8694-.136 2.7387.464.8667 1.368 1.408 2.352 1.408h15.696l-2.0507 18.9147c-.1333 1.2186.5867 2.3733 1.7414 2.792.2986.1093.6053.16.9093.16.872 0 1.712-.4267 2.216-1.184l8.32-12.4427-3.8453-3.8427z" fill="#6b7280" fill-rule="evenodd"/></svg>