<svg fill="none" height="64" viewBox="0 0 64 64" width="64" xmlns="http://www.w3.org/2000/svg"><path clip-rule="evenodd" d="m38.1147 19.2187c-1.0427-1.0427-1.0427-2.728 0-3.7707l8-7.99998c1.0427-1.04267 2.728-1.04267 3.7707 0l8 7.99998c.52.52.7813 1.2027.7813 1.8854 0 .6826-.2613 1.3653-.7813 1.8853-1.0427 1.0427-2.728 1.0427-3.7707 0l-3.448-3.448v31.9893c0 5.28-4.2213 9.5734-9.4107 9.5734h-6.5893c-1.4747 0-2.6667-1.192-2.6667-2.6667s1.192-2.6667 2.6667-2.6667h6.5893c2.248 0 4.0774-1.9013 4.0774-4.24v-31.9893l-3.448 3.448c-1.0427 1.0427-2.728 1.0427-3.7707 0zm-24.7812 29.01v-31.9893c0-5.2773 4.2213-9.57333 9.4107-9.57333h6.5893c1.4747 0 2.6667 1.192 2.6667 2.66666 0 1.47467-1.192 2.66667-2.6667 2.66667h-6.5893c-2.2454 0-4.0774 1.9013-4.0774 4.24v31.9893l3.448-3.448c1.0427-1.04 2.728-1.04 3.7707 0 .52.52.7813 1.2027.7813 1.8854 0 .6826-.2613 1.3653-.7813 1.8853l-8 8c-1.0427 1.0427-2.728 1.0427-3.7707 0l-7.99998-8c-1.04266-1.04-1.04266-2.728 0-3.7707 1.04267-1.04 2.728-1.04 3.77067 0z" fill="#6b7280" fill-rule="evenodd"/></svg>