<svg fill="none" height="64" viewBox="0 0 64 64" width="64" xmlns="http://www.w3.org/2000/svg"><path d="m20 8h-7.2c-2.651 0-4.8 2.149-4.8 4.8v7.2h4.8v-7.2h7.2zm31.2 0h-7.2v4.8h7.2v7.2h4.8v-7.2c0-2.651-2.1491-4.8-4.8-4.8zm-38.4 48h7.2v-4.8h-7.2v-7.2h-4.8v7.2c0 2.6509 2.149 4.8 4.8 4.8zm38.4-4.8h-7.2v4.8h7.2c2.6509 0 4.8-2.1491 4.8-4.8v-7.2h-4.8zm-7.2-25.8667c0-2.9455-2.3877-5.3333-5.3333-5.3333h-13.3334c-2.9455 0-5.3333 2.3878-5.3333 5.3333v13.3334c0 2.9456 2.3878 5.3333 5.3333 5.3333h13.3334c2.9456 0 5.3333-2.3877 5.3333-5.3333zm-4.8 11.2c0 1.4728-1.1939 2.6667-2.6667 2.6667h-9.0666c-1.4728 0-2.6667-1.1939-2.6667-2.6667v-9.0666c0-1.4728 1.1939-2.6667 2.6667-2.6667h9.0666c1.4728 0 2.6667 1.1939 2.6667 2.6667z" fill="#000"/></svg>