<svg fill="none" height="64" viewBox="0 0 64 64" width="64" xmlns="http://www.w3.org/2000/svg"><path clip-rule="evenodd" d="m10.6668 36.6813v11.5013c0 .6347.5973 1.152 1.3333 1.152h40c.736 0 1.3333-.5173 1.3333-1.152v-22.9066c0-.6374-.5973-1.152-1.3333-1.152h-20c-.8 0-1.5573-.36-2.064-.9814l-6.9333-8.4746h-11.0027c-.736 0-1.3333.5146-1.3333 1.1493zm41.3332 17.9865h-40c-3.67463 0-6.66663-2.9093-6.66663-6.4853v-32.3654c0-3.576 2.992-6.48263 6.66663-6.48263h12.2694c.7973 0 1.5573.35734 2.064.97863l6.9306 8.4774h18.736c3.6747 0 6.6667 2.9066 6.6667 6.4853v22.9067c0 3.576-2.992 6.4853-6.6667 6.4853z" fill="#6b7280" fill-rule="evenodd"/></svg>