<svg width="24" height="24" viewBox="0 0 24 24" fill="none" xmlns="http://www.w3.org/2000/svg">
<g id="Icon/Outline/folder">
<path id="Mask" fill-rule="evenodd" clip-rule="evenodd" d="M4 13.7554V18.0684C4 18.3064 4.224 18.5004 4.5 18.5004H19.5C19.776 18.5004 20 18.3064 20 18.0684V9.47843C20 9.23943 19.776 9.04643 19.5 9.04643H12C11.7 9.04643 11.416 8.91143 11.226 8.67843L8.626 5.50043H4.5C4.224 5.50043 4 5.69343 4 5.93143V13.7554ZM19.5 20.5004H4.5C3.122 20.5004 2 19.4094 2 18.0684V5.93143C2 4.59043 3.122 3.50043 4.5 3.50043H9.101C9.4 3.50043 9.685 3.63443 9.875 3.86743L12.474 7.04643H19.5C20.878 7.04643 22 8.13643 22 9.47843V18.0684C22 19.4094 20.878 20.5004 19.5 20.5004Z" fill="#423F3D"/>
</g>
</svg>
