<svg fill="none" height="64" viewBox="0 0 64 64" width="64" xmlns="http://www.w3.org/2000/svg"><path clip-rule="evenodd" d="m29.0053 46.552 5.4027 4.088v-12.1413c0-.4427.112-.8774.32-1.2667l11.4667-21.232h-28.48l10.992 21.2747c.1973.3786.2986.8.2986 1.224zm8.0695 12.1145c-.568 0-1.1361-.1813-1.6081-.5413l-10.736-8.12c-.6666-.504-1.0586-1.2907-1.0586-2.1254v-8.7306l-12.7067-24.592c-.4293-.8267-.3947-1.816.0907-2.6107.4826-.7947 1.3466-1.28 2.2773-1.28h37.3334c.9386 0 1.808.4933 2.2906 1.3013.48.8054.5014 1.8054.056 2.632l-13.272 24.5734v16.8266c0 1.0107-.5706 1.936-1.4773 2.3867-.376.1867-.784.28-1.1893.28z" fill="#6b7280" fill-rule="evenodd"/></svg>