<svg fill="none" height="24" viewBox="0 0 24 24" width="24" xmlns="http://www.w3.org/2000/svg"><path clip-rule="evenodd" d="m10.877 17.4571 2.026 1.533v-4.553c0-.166.042-.329.12-.475l4.3-7.96203h-10.67998l4.12198 7.97803c.074.142.112.3.112.459zm3.026 4.5429c-.213 0-.426-.068-.603-.203l-4.02595-3.045c-.25-.189-.397-.484-.397-.797v-3.274l-4.765-9.222c-.161-.31-.148-.681.034-.979.181-.298.505-.48.854-.48h13.99995c.352 0 .678.185.859.488.18.302.188.677.021.987l-4.977 9.215v6.31c0 .379-.214.726-.554.895-.141.07-.294.105-.446.105z" fill="#6b7280" fill-rule="evenodd"/></svg>