<svg fill="none" height="64" viewBox="0 0 64 64" width="64" xmlns="http://www.w3.org/2000/svg"><path clip-rule="evenodd" d="m34.6666 50.6667h12v-10.6667h-12zm-17.3332 0h12v-10.6667h-12zm-4-26.1334c0-.2213.0346-.4.0693-.5333h8.312 7.6187v10.6667h-15.9307c-.0347-.1334-.0693-.312-.0693-.5334zm5.3332-8.5331c0-1.472 1.368-2.6667 3.048-2.6667 3.352 0 5.4054 2.9067 6.536 5.3333h-6.536c-1.68 0-3.048-1.1946-3.048-2.6666zm23.6188-2.6667c1.68 0 3.048 1.1947 3.048 2.6667s-1.368 2.6666-3.048 2.6666h-6.552c1.12-2.4266 3.168-5.3333 6.552-5.3333zm8.3812 11.1998v9.6c0 .2214-.0346.4-.0693.5334h-15.9307v-10.6667h7.6187 8.312c.0347.1333.0693.312.0693.5333zm.5334-5.8666h-1.048c.3147-.8374.5147-1.7254.5147-2.6667 0-4.4107-3.76-8-8.3814-8-5.1253 0-8.3413 3.1973-10.2853 6.392-1.944-3.1947-5.16-6.392-10.2853-6.392-4.6214 0-8.3814 3.5893-8.3814 8 0 .9413.2027 1.8293.5147 2.6667h-1.048c-2.6907 0-4.8 2.5786-4.8 5.8666v9.6c0 2.952 1.70667 5.3147 4 5.7707v11.6507c0 2.4506 2.168 4.4453 4.832 4.4453h30.3333c2.6667 0 4.8347-1.9947 4.8347-4.4453v-11.6507c2.2933-.456 4-2.8187 4-5.7707v-9.6c0-3.288-2.1093-5.8666-4.8-5.8666z" fill="#6b7280" fill-rule="evenodd"/></svg>