<svg fill="none" height="24" viewBox="0 0 24 24" width="24" xmlns="http://www.w3.org/2000/svg"><path clip-rule="evenodd" d="m13 19h4.5v-4h-4.5zm-6.49998 0h4.49998v-4h-4.49998zm-1.5-9.8c0-.083.013-.15.026-.2h3.117 2.85698v4h-5.97398c-.013-.05-.026-.117-.026-.2zm1.99996-3.19994c0-.552.513-1 1.143-1 1.257 0 2.02702 1.09 2.45102 2h-2.45102c-.63 0-1.143-.448-1.143-1zm8.85702-1c.63 0 1.143.448 1.143 1s-.513 1-1.143 1h-2.457c.42-.91 1.188-2 2.457-2zm3.143 4.19994v3.6c0 .083-.013.15-.026.2h-5.974v-4h2.857 3.117c.013.05.026.117.026.2zm.2-2.2h-.393c.118-.314.193-.647.193-1 0-1.654-1.41-3-3.143-3-1.922 0-3.128 1.199-3.857 2.397-.729-1.198-1.935-2.397-3.857-2.397-1.733 0-3.143 1.346-3.143 3 0 .353.076.686.193 1h-.393c-1.009 0-1.8.967-1.8 2.2v3.6c0 1.107.64 1.993 1.5 2.164v4.369c0 .919.813 1.667 1.812 1.667h11.375c1 0 1.813-.748 1.813-1.667v-4.369c.86-.171 1.5-1.057 1.5-2.164v-3.6c0-1.233-.791-2.2-1.8-2.2z" fill="#6b7280" fill-rule="evenodd"/></svg>