<svg viewBox="0 0 64 64" fill="none" xmlns="http://www.w3.org/2000/svg">
<path fill-rule="evenodd" clip-rule="evenodd" d="M57.4493 23.8679C55.9473 19.1062 53.1091 14.7944 49.2664 11.5946C47.3223 10.0691 44.791 9.45001 42.3741 9.34299H42.3683C41.9109 9.34888 41.4191 9.33764 40.9788 9.34673C34.3685 9.67635 28.1832 12.7868 22.9624 16.7009C22.9186 16.7331 22.9129 16.7978 22.949 16.8379C25.103 19.211 27.1215 21.689 29.0829 24.228C29.1134 24.2676 29.1706 24.2756 29.2125 24.2467C33.4269 21.2299 37.8185 18.4341 42.536 16.2665C42.5818 16.2456 42.6351 16.2665 42.6581 16.3104C44.1562 19.2169 39.1661 23.9326 37.1189 25.6449C32.55 29.382 27.3197 33.0291 21.2641 33.5166L21.2679 33.5224C20.1624 33.6081 19.0454 33.4765 17.9723 33.2099C15.1818 32.4956 12.9878 30.1225 12.09 27.4353C11.6536 26.0489 11.6574 24.5613 11.9204 23.1386C12.4236 20.5654 13.7102 18.097 15.5001 15.9197C19.5658 10.5507 26.8527 6.97203 35.1671 6.97203C38.4494 6.97203 41.5735 7.53012 44.4002 8.53554C44.4346 8.45742 44.4231 8.48203 44.4746 8.36592C40.9673 6.52255 37.016 5.49786 33.0761 5.33787C32.226 5.34162 31.353 5.31112 30.5144 5.36998C16.3883 6.09769 4.86219 18.2281 5.3482 32.4389C5.3482 32.4517 5.35393 32.4651 5.35773 32.4769V32.4844C5.35206 32.4956 5.35206 32.5074 5.35206 32.5208C5.35773 32.6578 5.36159 32.8065 5.37112 32.9339V32.9397C5.37112 33.0291 5.3768 33.134 5.37872 33.2137C5.39206 33.4368 5.40352 33.6669 5.42638 33.8825C5.43399 33.9339 5.41685 33.9928 5.44164 34.0388C5.44164 34.0388 5.43591 34.0442 5.43399 34.0479C5.44352 34.0993 5.43018 34.1603 5.45878 34.2042C5.45685 34.2154 5.45498 34.2287 5.45498 34.2405C5.85333 41.3582 9.70171 47.47 17.1336 48.5803C18.8872 48.8125 20.6694 48.8013 22.4344 48.7023C31.8886 48.0109 41.7831 43.0229 47.7721 35.6462C50.4558 32.2521 52.4363 28.1267 52.6764 23.7614V23.7555C52.7127 23.466 52.6936 23.1691 52.707 22.8774C52.707 22.8678 52.7088 22.8582 52.7126 22.8491C52.726 22.8165 52.7451 22.8469 52.7622 22.8603C52.8175 22.908 52.8766 22.9497 52.9243 23.0032C55.9397 26.3304 57.8248 30.6062 58.2556 35.0689C58.3853 35.0689 58.3415 35.0689 58.4712 35.0726C58.9306 31.3206 58.578 27.477 57.4493 23.8679Z M29.9842 55.1239C23.1947 55.1239 16.9141 53.0172 11.7963 49.4423C16.6892 55.0933 23.9171 58.6666 31.9818 58.6666C44.5486 58.6666 55.0855 49.9854 57.9162 38.2965C52.8287 48.2672 42.2327 55.1239 29.9842 55.1239Z" fill="#141414"/>
</svg>