<svg fill="none" height="64" viewBox="0 0 64 64" width="64" xmlns="http://www.w3.org/2000/svg"><path clip-rule="evenodd" d="m43.3072 58.6668c-1.472 0-2.6667-1.192-2.6667-2.6667v-6.9306c.1254-1.768-.4053-3.3067-1.448-4.424-.6906-.736-.904-1.7974-.5573-2.7414.3466-.9466 1.1947-1.616 2.1973-1.7306 6.4907-.752 12.5014-2.9814 12.5014-14.1094 0-2.1333-.6187-4.1893-1.7894-5.9386-1.0693-1.5947-1.4586-3.5387-1.1013-5.4747.2347-1.2613.2213-2.544-.032-3.784-1.0773.32-2.9227 1.08-5.5813 2.9307-.6534.4533-1.4827.5893-2.2454.376-4.8107-1.352-9.896-1.352-14.7093 0-.7654.2133-1.5894.0773-2.2427-.376-2.632-1.832-4.4667-2.5947-5.5867-2.9094-.2506 1.2294-.2613 2.5014-.0293 3.7547.3547 1.9253-.048 3.8907-1.136 5.5387-1.1573 1.7573-1.7627 3.8106-1.752 5.944 0 10.384 5.0107 13.1546 12.5333 14.1226.9921.128 1.8294.8 2.1707 1.7414.3387.9413.1227 1.992-.56 2.7226-1.032 1.1067-1.5627 2.6294-1.4587 4.1787l.0027 2.1013c.0053.1067.0053.2134 0 .32l.0027 4.688c0 1.4747-1.192 2.6667-2.6667 2.6667-1.472 0-2.6667-1.192-2.6667-2.6667v-1.5226c-7.16.9333-11.24-2.904-14.0693-5.5707-1.17332-1.1013-2.27732-2.144-3.08532-2.3547-1.42667-.3706-2.28267-1.8266-1.912-3.2506s1.82667-2.2934 3.25067-1.912c2.13065.5546 3.71995 2.0506 5.40265 3.6346 2.7253 2.568 5.312 5 10.4133 4.0534v-.008c-.0986-1.4107.112-2.856.6-4.224-5.4773-1.3654-13.2906-5.3467-13.2906-18.7067-.016-3.1787.896-6.256 2.632-8.8933.3253-.4934.448-1.072.344-1.6347-.5334-2.888-.2267-5.85332.8933-8.56266.304-.736.92-1.29866 1.68-1.53333.8827-.272 4.136-.792 10.2987 3.208 4.9893-1.19733 10.1866-1.19733 15.1733 0 6.1654-4 9.416-3.48267 10.2987-3.208.76.23467 1.376.79733 1.68 1.53333 1.1227 2.71467 1.4293 5.67736.8933 8.57336-.104.5573 0 1.104.288 1.5386 1.76 2.632 2.6907 5.7094 2.6907 8.904 0 13.504-7.7947 17.4374-13.28 18.7547.4906 1.4107.696 2.928.5787 4.456l.008 6.7253c0 1.4747-1.1947 2.6667-2.6667 2.6667z" fill="#6b7280" fill-rule="evenodd"/></svg>