<svg fill="none" height="24" viewBox="0 0 24 24" width="24" xmlns="http://www.w3.org/2000/svg"><path clip-rule="evenodd" d="m16.2402 22.0001c-.552 0-1-.447-1-1v-2.599c.047-.663-.152-1.24-.543-1.659-.259-.276-.339-.674-.209-1.028.13-.355.448-.606.824-.649 2.434-.282 4.688-1.118 4.688-5.29099 0-.8-.232-1.571-.671-2.227-.401-.598-.547-1.327-.413-2.053.088-.473.083-.954-.012-1.419-.404.12-1.096.405-2.093 1.099-.245.17-.556.221-.842.141-1.804-.507-3.711-.507-5.516 0-.287.08-.59598.029-.84098-.141-.987-.687-1.675-.973-2.095-1.091-.094.461-.098.938-.011 1.408.133.722-.018 1.459-.426 2.077-.434.659-.661 1.429-.657 2.229 0 3.89399 1.879 4.93299 4.69998 5.29599.372.048.686.3.814.653.127.353.046.747-.21 1.021-.387.415-.586.986-.547 1.567l.001.788c.002.04.002.08 0 .12l.001 1.758c0 .553-.447 1-1 1-.55198 0-.99998-.447-.99998-1v-.571c-2.685.35-4.215-1.089-5.276-2.089-.44-.413-.854-.804-1.157-.883-.535-.139-.856-.685-.717-1.219s.685-.86 1.219-.717c.799.208 1.395.769 2.026 1.363 1.022.963 1.992 1.875 3.905 1.52v-.003c-.037-.529.042-1.071.225-1.584-2.054-.512-4.984-2.005-4.984-7.01499-.006-1.192.336-2.346.987-3.335.122-.185.168-.402.129-.613-.2-1.083-.085-2.195.335-3.211.114-.276.345-.487.63-.575.331-.102 1.551-.297 3.86198 1.203 1.871-.449 3.82-.449 5.69 0 2.312-1.5 3.531-1.306 3.862-1.203.285.088.516.299.63.575.421 1.018.536 2.129.335 3.215-.039.209 0 .414.108.577.66.987 1.009 2.141 1.009 3.339 0 5.06399-2.923 6.53899-4.98 7.03299.184.529.261 1.098.217 1.671l.003 2.522c0 .553-.448 1-1 1" fill="#6b7280" fill-rule="evenodd"/></svg>