<svg fill="none" height="24" viewBox="0 0 24 24" width="24" xmlns="http://www.w3.org/2000/svg"><path clip-rule="evenodd" d="m16.8887 18.3185c-.172-.433-.416-.811-.63-1.134-.108-.162-.219-.327-.316-.497-.389-.676-.255-.95.376-2.007l.102-.173c.511-.861.539-1.687.565-2.415.012-.358.024-.695.093-1.012.161-.732 1.708-.927 2.667-1.042.161.629.254 1.284.254 1.962 0 2.569-1.222 4.853-3.111 6.318zm-11.92701-2.5191c.636.162 1.325.274 2.026.274 1.08 0 2.183-.264 3.13701-1.011 1.716-1.342 1.716-3.058 1.716-4.438 0-.89204 0-1.66104.372-2.34404.2-.366.626-.62 1.119-.915.302-.181.615-.367.915-.603.643-.503 1.121-1.15 1.417-1.866 1.4.725 2.56 1.848 3.326 3.223-1.428.198-3.455.666-3.864 2.53304-.108.494-.125.959-.138 1.37-.021.583-.037 1.044-.287 1.466l-.1.168c-.647 1.083-1.379 2.311-.392 4.028.119.208.252.408.383.607.344.516.513.801.514 1.081-.955.404-2.005.628-3.106.628-3.03701 0-5.68301-1.702-7.03801-4.201zm7.03801-11.79885c.616 0 1.211.076 1.787.208-.169.372-.43.711-.774.98-.218.172-.463.315-.706.46-.651.388-1.388.828-1.85 1.674-.61599 1.13-.61599 2.284-.61599 3.30205 0 1.355-.044 2.156-.948 2.863-1.369 1.073-3.464.474-4.76-.071-.082-.461-.133-.933-.133-1.416 0-4.41105 3.589-8.00005 7.99999-8.00005zm0-2.00006c-5.51401 0-10.00001 4.486-10.00001 10.00001 0 5.513 4.486 10 10.00001 10 5.514 0 10-4.487 10-10 0-5.51401-4.486-10.00001-10-10.00001z" fill="#6b7280" fill-rule="evenodd"/></svg>