<svg fill="none" height="64" viewBox="0 0 64 64" width="64" xmlns="http://www.w3.org/2000/svg"><path clip-rule="evenodd" d="m32.0077 10.667c-5.8186 0-11.2533 2.296-15.3066 6.4693-4.0533 4.168-6.192 9.6694-6.024 15.4907.312 10.944 9.464 20.2213 20.3973 20.6853 11.6854.4614 21.6507-8.5653 22.2453-20.1946.0187-.3414.016-1.848.0107-3.2507h-18.672v4.2187h14.1573l-1.08 3.4613c-1.9226 6.1707-6.7973 10.4053-13.04 11.328-4.6559.6747-9.5066-.656-13.3013-3.688-3.7253-2.968-6.0613-7.2827-6.4133-11.84-.368-4.8187 1.224-9.4107 4.4933-12.9387 4.4427-4.8 11.624-6.648 17.7787-4.6506l2.0613-3.8107c-2.3333-.8507-4.784-1.28-7.3067-1.28zm-.0186 47.9972c-.376 0-.7573-.008-1.1387-.024-13.6746-.5787-25.11462-12.1787-25.50662-25.8614-.20534-7.2746 2.46666-14.1493 7.53062-19.36 5.0694-5.2133 11.8614-8.0853 19.1334-8.0853 3.824 0 7.52.79466 10.984 2.36.9626.43466 1.712 1.26133 2.0506 2.26933.344 1.02137.248 2.15197-.264 3.09867l-3.4453 6.3573c-.936 1.7387-3.048 2.4854-4.8933 1.7147-4.408-1.7947-9.7947-.6213-13.0534 2.8987-2.2453 2.424-3.3413 5.5866-3.088 8.904.24 3.088 1.8507 6.032 4.4214 8.0826 2.6506 2.1147 6.016 3.056 9.1946 2.5814 2.9334-.4347 5.3654-1.9067 7.0187-4.1814h-7.7413c-2.1307 0-3.8667-1.7333-3.8667-3.8666v-7.152c0-2.1307 1.736-3.8667 3.8667-3.8667h21.6c2.1146 0 3.8506 1.72 3.8666 3.8347.008 1.6826.0134 4.528-.0106 5.0186-.728 14.1654-12.576 25.2774-26.6587 25.2774z" fill="#6b7280" fill-rule="evenodd"/></svg>