<svg fill="none" height="24" viewBox="0 0 24 24" width="24" xmlns="http://www.w3.org/2000/svg"><path clip-rule="evenodd" d="m9.69821 14 .72899-4h3.875l-.729 4zm10.30199-.0001h-4.302l.729-3.99996h3.573c.55 0 1-.45 1-1s-.45-1-1-1h-3.21l.694-3.811c.1-.548-.282-1.077-.849-1.173-.567-.097-1.112.273-1.212.822l-.758 4.162h-3.875l.694-3.811c.1-.548-.282-1.077-.849-1.173-.567-.097-1.11202.273-1.21202.822l-.758 4.162h-4.665c-.55 0-1 .45-1 1s.45 1 1 1h4.302l-.729 3.99996h-3.573c-.55 0-1 .45-1 1s.45 1 1 1h3.209l-.694 3.811c-.099.548.283 1.077.85 1.173.566.097 1.112-.273 1.211-.822l.758-4.162h3.87502l-.694 3.811c-.099.548.283 1.077.85 1.173.566.097 1.112-.273 1.211-.822l.758-4.162h4.666c.55 0 1-.45 1-1s-.45-1-1-1z" fill="#6b7280" fill-rule="evenodd"/></svg>