<svg width="24" height="24" viewBox="0 0 24 24" fill="none" xmlns="http://www.w3.org/2000/svg">
<g id="Icon/Outline/hash">
<path id="Mask" fill-rule="evenodd" clip-rule="evenodd" d="M9.69818 14L10.4272 10H14.3022L13.5732 14H9.69818ZM20.0002 14H15.6982L16.4272 10H20.0002C20.5502 10 21.0002 9.55 21.0002 9C21.0002 8.45 20.5502 8 20.0002 8H16.7902L17.4842 4.189C17.5842 3.641 17.2022 3.112 16.6352 3.016C16.0682 2.919 15.5232 3.289 15.4232 3.838L14.6652 8H10.7902L11.4842 4.189C11.5842 3.641 11.2022 3.112 10.6352 3.016C10.0682 2.919 9.52318 3.289 9.42318 3.838L8.66518 8H4.00018C3.45018 8 3.00018 8.45 3.00018 9C3.00018 9.55 3.45018 10 4.00018 10H8.30218L7.57318 14H4.00018C3.45018 14 3.00018 14.45 3.00018 15C3.00018 15.55 3.45018 16 4.00018 16H7.20918L6.51518 19.811C6.41618 20.359 6.79818 20.888 7.36518 20.984C7.93118 21.081 8.47718 20.711 8.57618 20.162L9.33418 16H13.2092L12.5152 19.811C12.4162 20.359 12.7982 20.888 13.3652 20.984C13.9312 21.081 14.4772 20.711 14.5762 20.162L15.3342 16H20.0002C20.5502 16 21.0002 15.55 21.0002 15C21.0002 14.45 20.5502 14 20.0002 14Z" fill="#231F20"/>
<mask id="mask0" mask-type="alpha" maskUnits="userSpaceOnUse" x="3" y="3" width="19" height="18">
<path id="Mask_2" fill-rule="evenodd" clip-rule="evenodd" d="M9.69818 14L10.4272 10H14.3022L13.5732 14H9.69818ZM20.0002 14H15.6982L16.4272 10H20.0002C20.5502 10 21.0002 9.55 21.0002 9C21.0002 8.45 20.5502 8 20.0002 8H16.7902L17.4842 4.189C17.5842 3.641 17.2022 3.112 16.6352 3.016C16.0682 2.919 15.5232 3.289 15.4232 3.838L14.6652 8H10.7902L11.4842 4.189C11.5842 3.641 11.2022 3.112 10.6352 3.016C10.0682 2.919 9.52318 3.289 9.42318 3.838L8.66518 8H4.00018C3.45018 8 3.00018 8.45 3.00018 9C3.00018 9.55 3.45018 10 4.00018 10H8.30218L7.57318 14H4.00018C3.45018 14 3.00018 14.45 3.00018 15C3.00018 15.55 3.45018 16 4.00018 16H7.20918L6.51518 19.811C6.41618 20.359 6.79818 20.888 7.36518 20.984C7.93118 21.081 8.47718 20.711 8.57618 20.162L9.33418 16H13.2092L12.5152 19.811C12.4162 20.359 12.7982 20.888 13.3652 20.984C13.9312 21.081 14.4772 20.711 14.5762 20.162L15.3342 16H20.0002C20.5502 16 21.0002 15.55 21.0002 15C21.0002 14.45 20.5502 14 20.0002 14Z" fill="white"/>
</mask>
<g mask="url(#mask0)">
<g id="&#240;&#159;&#142;&#168; Color">
<rect id="Base" width="24" height="24" fill="#0D1C2E"/>
</g>
</g>
</g>
</svg>
