<svg fill="none" height="64" viewBox="0 0 64 64" width="64" xmlns="http://www.w3.org/2000/svg"><path clip-rule="evenodd" d="m48.0001 50.6667c-2.9413 0-5.3333-2.392-5.3333-5.3334 0-2.9413 2.392-5.3333 5.3333-5.3333s5.3333 2.392 5.3333 5.3333c0 2.9414-2.392 5.3334-5.3333 5.3334zm-32-10.6667c2.9413 0 5.3333 2.392 5.3333 5.3333 0 2.9414-2.392 5.3334-5.3333 5.3334s-5.3333-2.392-5.3333-5.3334c0-2.9413 2.392-5.3333 5.3333-5.3333zm15.9999-34.6665c-14.704 0-26.66663 12.4-26.66663 27.6427v12.3573c0 5.8827 4.78403 10.6667 10.66663 10.6667 5.8827 0 10.6667-4.784 10.6667-10.6667s-4.784-10.6667-10.6667-10.6667c-1.952 0-3.7573.5654-5.3333 1.4854v-3.176c0-12.3014 9.5707-22.3094 21.3333-22.3094 11.7627 0 21.3334 10.008 21.3334 22.3094v3.176c-1.576-.92-3.3814-1.4854-5.3334-1.4854-5.8826 0-10.6666 4.784-10.6666 10.6667s4.784 10.6667 10.6666 10.6667c5.8827 0 10.6667-4.784 10.6667-10.6667v-12.3573c0-15.2427-11.9627-27.6427-26.6667-27.6427z" fill="#6b7280" fill-rule="evenodd"/></svg>