<svg fill="none" height="24" viewBox="0 0 24 24" width="24" xmlns="http://www.w3.org/2000/svg"><path clip-rule="evenodd" d="m18 18.9999c-1.103 0-2-.897-2-2s.897-2 2-2 2 .897 2 2-.897 2-2 2zm-11.99995-4c1.103 0 2 .897 2 2s-.897 2-2 2-2-.897-2-2 .897-2 2-2zm5.99995-12.9999c-5.51397 0-9.99997 4.65-9.99997 10.366v4.634c0 2.206 1.794 4 4 4s3.99997-1.794 3.99997-4-1.79397-4-3.99997-4c-.732 0-1.409.212-2 .557v-1.191c0-4.613 3.589-8.366 7.99997-8.366 4.411 0 8 3.753 8 8.366v1.191c-.591-.345-1.268-.557-2-.557-2.206 0-4 1.794-4 4s1.794 4 4 4 4-1.794 4-4v-4.634c0-5.716-4.486-10.366-10-10.366z" fill="#6b7280" fill-rule="evenodd"/></svg>