<svg fill="none" height="24" viewBox="0 0 24 24" width="24" xmlns="http://www.w3.org/2000/svg"><path clip-rule="evenodd" d="m7.2197 6.00007c-.864 0-1.674.334-2.28.941-1.258 1.25999-1.258 3.31103.001 4.57303l7.059 7.071 7.06-7.071c1.259-1.262 1.259-3.31304 0-4.57303-1.212-1.215-3.348-1.213-4.56 0l-1.792 1.79499c-.376.37701-1.04.37701-1.416 0l-1.792-1.79599c-.606-.606-1.415-.94-2.28-.94zm4.78 14.99993c-.265 0-.52-.105-.707-.294l-7.76802-7.78c-2.036-2.04-2.036-5.359 0-7.399.984-.984 2.296-1.527 3.695-1.527s2.712.543 3.69502 1.527l1.085 1.087 1.085-1.086c.984-.985 2.296-1.528 3.696-1.528 1.398 0 2.711.543 3.694 1.527 2.037 2.04 2.037 5.359.001 7.399l-7.768 7.781c-.188.188-.442.293-.708.293z" fill="#6b7280" fill-rule="evenodd"/></svg>