<svg fill="none" height="64" viewBox="0 0 64 64" width="64" xmlns="http://www.w3.org/2000/svg"><path d="m6.6481 18.1208c3.9475-9.54414 15.9431-13.70283 25.3516-6.416 9.4085-7.28683 21.404-3.12813 25.3515 6.416 4.3276 10.4652-1.3781 25.2235-24.0781 37.5605-.7939.4313-1.753.4313-2.5469 0-22.69998-12.337-28.40567-27.0953-24.0781-37.5605zm45.7734 2.0371c-2.8284-6.8368-11.7401-9.7136-18.5517-3.0137-1.0377 1.0207-2.7025 1.0207-3.7403 0-6.8116-6.6999-15.7233-3.8231-18.5517 3.0137-2.66025 6.4327-.2979 18.4397 20.4219 30.1221 20.7198-11.6824 23.0821-23.6894 20.4218-30.1221z" fill="#000"/></svg>