<svg fill="none" height="64" viewBox="0 0 64 64" width="64" xmlns="http://www.w3.org/2000/svg"><path clip-rule="evenodd" d="m19.2525 16c-2.304 0-4.464.8907-6.08 2.5093-3.35464 3.36-3.35464 8.8294.0027 12.1947l18.824 18.856 18.8267-18.856c3.3573-3.3653 3.3573-8.8347 0-12.1947-3.232-3.24-8.928-3.2346-12.16 0l-4.7787 4.7867c-1.0027 1.0053-2.7733 1.0053-3.776 0l-4.7787-4.7893c-1.616-1.616-3.7733-2.5067-6.08-2.5067zm12.7466 39.9998c-.7066 0-1.3866-.28-1.8853-.784l-20.71465-20.7466c-5.42933-5.44-5.42933-14.2907 0-19.7307 2.62395-2.624 6.12265-4.072 9.85335-4.072 3.7306 0 7.232 1.448 9.8533 4.072l2.8933 2.8987 2.8934-2.896c2.624-2.6267 6.1226-4.0747 9.856-4.0747 3.728 0 7.2293 1.448 9.8506 4.072 5.432 5.44 5.432 14.2907.0027 19.7307l-20.7147 20.7493c-.5013.5013-1.1786.7813-1.888.7813z" fill="#6b7280" fill-rule="evenodd"/></svg>