<svg fill="none" height="24" viewBox="0 0 24 24" width="24" xmlns="http://www.w3.org/2000/svg"><path clip-rule="evenodd" d="m3 4h7c.55 0 1 .45 1 1s-.45 1-1 1h-7c-.55 0-1-.45-1-1s.45-1 1-1zm3 6.9999h4c.55 0 1 .45 1 1s-.45 1-1 1h-4c-.55 0-1-.45-1-1s.45-1 1-1zm4 7.0002h-1.99998c-.55 0-1 .45-1 1s.45 1 1 1h1.99998c.55 0 1-.45 1-1s-.45-1-1-1zm9.0002-1.3563 1.305-1.26c.398-.383 1.031-.372 1.414.025.384.398.373 1.031-.024 1.414l-3 2.897c-.195.186-.445.28-.695.28-.256 0-.512-.097-.707-.293l-3-3c-.391-.39-.391-1.023 0-1.414.39-.39 1.023-.39 1.414 0l1.293 1.293v-9.229l-1.305 1.259c-.397.384-1.03.372-1.414-.025s-.373-1.03.024-1.414l3-2.897c.394-.376 1.017-.374 1.402.013l3 3c.39.391.39 1.024 0 1.414-.195.196-.451.293-.707.293s-.512-.097-.707-.293l-1.293-1.293z" fill="#6b7280" fill-rule="evenodd"/></svg>