<svg fill="none" height="64" viewBox="0 0 64 64" width="64" xmlns="http://www.w3.org/2000/svg"><path d="m28.9814 8.33347c1.9872-.44334 4.0489-.44331 6.0361 0h.0029c2.3543.52633 4.4877 1.88003 7.711 3.86233l3.6357 2.2343c2.5411 1.5637 4.3585 2.6558 5.7364 4.0127l.5654.6016c1.2157 1.4013 2.1338 3.0371 2.6953 4.8027.6642 2.0907.6357 4.3671.6357 7.7471v4.2109c0 3.0228.0026 5.4528-.1591 7.4141-.1645 1.9932-.5122 3.739-1.3409 5.3516l-.0029.0029c-1.3211 2.5618-3.4223 4.6414-6 5.9453l-.0029.002c-1.6189.8166-3.3731 1.1579-5.3799 1.3203-1.9767.1598-4.4263.1592-7.4795.1592h-7.2705c-3.0537 0-5.5029.0007-7.4795-.1592-2.0072-.1625-3.7603-.5038-5.3799-1.3203l-.0029-.002c-2.5777-1.304-4.6789-3.3833-6.00001-5.9453l-.00195-.0029c-.82898-1.6121-1.17737-3.3584-1.3418-5.3516-.16173-1.9615-.1582-4.3914-.1582-7.4141v-4.208c0-3.3842-.0289-5.6561.63477-7.75l.22656-.6562c.56824-1.5147 1.40493-2.9202 2.46873-4.1465l.5654-.6016c1.3785-1.3571 3.1997-2.4501 5.7374-4.0127l3.6347-2.2343c3.223-1.9822 5.357-3.33591 7.711-3.86233zm4.875 5.20603c-1.2226-.2727-2.4913-.2727-3.7139 0-1.2758.2853-2.5302 1.0151-6.0801 3.1983l-3.6357 2.2363-.0029-.002c-3.1945 1.9671-4.2919 2.6734-5.0674 3.5645l.0029.0029c-.7414.8548-1.2998 1.8505-1.6406 2.9219-.355 1.1212-.3857 2.4068-.3858 6.1357v4.208c.0001 3.1115.0012 5.285.1407 6.9766.1368 1.658.3932 2.6182.7685 3.3486l.3223.5704c.8041 1.2962 1.9573 2.3574 3.3389 3.0576h.0029c.7481.3771 1.7278.6325 3.4082.7685 1.7117.1385 3.9089.1407 7.0498.1407h7.2705c3.1405 0 5.3379-.0022 7.0498-.1407 1.4704-.1189 2.404-.3302 3.1143-.6328l.2949-.1357c1.5787-.7997 2.8582-2.0702 3.6611-3.625.3764-.7324.6336-1.6956.7705-3.3545.1394-1.6911.1407-3.8631.1407-6.9737v-4.2109c0-3.7296-.0302-5.0168-.3848-6.1328-.3409-1.0716-.8991-2.067-1.6406-2.9219v-.0029c-.7757-.8908-1.8731-1.5963-5.0684-3.5625l-3.6348-2.2363c-3.5505-2.1836-4.805-2.9131-6.081-3.1983zm-4.9483 13.128c.3894.0135.7689.1329 1.0967.3437l8.9971 5.8203c.3058.1981.5583.4688.7324.7891.174.3202.2655.6794.2656 1.0439 0 .3645-.0917.7237-.2656 1.044-.1742.3205-.4264.5937-.7324.792l-8.9971 5.8232c-.3278.2107-.7073.3273-1.0967.3408-.3892.0134-.7757-.0781-1.1171-.2656-.3416-.1879-.6275-.4656-.8252-.8018-.1975-.3361-.3016-.7194-.2998-1.1093v-11.6436c-.0016-.3898.1022-.7734.2998-1.1094.1977-.3362.4835-.6119.8252-.7998.3415-.1877.7277-.2809 1.1171-.2675z" fill="#000"/></svg>