<svg width="64" height="64" viewBox="0 0 64 64" fill="none" xmlns="http://www.w3.org/2000/svg">
<path d="M28.9813 8.33466C30.9682 7.89147 33.0315 7.89152 35.0184 8.33466C37.3717 8.86116 39.5094 10.2145 42.7313 12.196L46.367 14.4304C48.9074 15.9936 50.7266 17.0874 52.1043 18.444L52.6688 19.0456C53.8838 20.4464 54.8027 22.0825 55.3641 23.8474C56.0279 25.9376 55.9998 28.2153 55.9998 31.5944V35.8054C55.9998 38.8273 56.0023 41.2584 55.8406 43.2194C55.6761 45.2122 55.3282 46.9587 54.4998 48.571L54.4969 48.5739C53.1758 51.1355 51.0742 53.2154 48.4969 54.5192L48.4949 54.5222C46.8763 55.3386 45.1204 55.6801 43.1141 55.8425C41.1378 56.0022 38.6877 56.0007 35.6356 56.0007H28.3641C25.3116 56.0007 22.8617 56.0023 20.8856 55.8425C18.8791 55.68 17.1238 55.3382 15.5047 54.5222L15.5027 54.5192C12.9258 53.2154 10.8238 51.1351 9.50275 48.5739L9.49982 48.571C8.67137 46.9595 8.32342 45.2117 8.159 43.2194C7.99736 41.2583 7.99982 38.8271 7.99982 35.8054V31.5974C7.99981 28.2137 7.97204 25.941 8.63556 23.8474L8.86212 23.1911C9.43035 21.6766 10.2672 20.2717 11.3309 19.0456L11.8953 18.444C13.2737 17.0868 15.0949 15.993 17.6326 14.4304L21.2684 12.196C24.4906 10.2143 26.6278 8.86118 28.9813 8.33466ZM29.3328 34.6677C27.8603 34.6679 26.6668 35.8621 26.6668 37.3347V50.6599C27.2001 50.6609 27.7654 50.6677 28.3641 50.6677H35.6356C36.2346 50.6677 36.7992 50.6609 37.3328 50.6599V37.3347C37.3328 35.862 36.1394 34.6678 34.6668 34.6677H29.3328ZM33.8563 13.5397C32.6344 13.2674 31.3652 13.2673 30.1434 13.5397C28.8677 13.8251 27.6117 14.5551 24.0623 16.738L20.4266 18.9753L20.4246 18.9724C17.2298 20.9396 16.1318 21.6466 15.3563 22.5378L15.3592 22.5397C14.6179 23.3943 14.0594 24.3904 13.7186 25.4616C13.3638 26.5826 13.3328 27.8696 13.3328 31.5974V35.8054C13.3328 38.9157 13.334 41.0906 13.4734 42.7819C13.6102 44.4388 13.867 45.4013 14.242 46.1315L14.5652 46.7018C15.3691 47.997 16.5226 49.0586 17.9031 49.7585C18.6511 50.1353 19.6358 50.3911 21.3152 50.527C21.3211 50.5275 21.327 50.5266 21.3328 50.527V37.3347C21.3328 32.9165 24.9148 29.3349 29.3328 29.3347H34.6668C39.0849 29.3348 42.6668 32.9165 42.6668 37.3347V50.527C42.6724 50.5266 42.6788 50.5274 42.6844 50.527C44.1542 50.4081 45.0895 50.1968 45.7996 49.8942L46.0936 49.7585C47.6721 48.9589 48.9518 47.6881 49.7547 46.1335C50.1309 45.4013 50.3893 44.438 50.5262 42.78C50.6655 41.0891 50.6668 38.9152 50.6668 35.8054V31.5944C50.6668 27.8668 50.6354 26.5773 50.2811 25.4616C49.9403 24.3908 49.3814 23.3941 48.6404 22.5397C47.865 21.6495 46.7661 20.9401 43.5731 18.9753L39.9373 16.738C36.3884 14.5554 35.1318 13.8251 33.8563 13.5397Z" fill="#141414"/>
</svg>
