<svg fill="none" height="64" viewBox="0 0 64 64" width="64" xmlns="http://www.w3.org/2000/svg"><path clip-rule="evenodd" d="m50.6406 53.3331h-7.9733v-18.6667c0-1.4747-1.1947-2.6667-2.6667-2.6667h-16c-1.4747 0-2.6667 1.192-2.6667 2.6667v18.6667h-8l.016-22.4454 18.6454-19.0693 18.672 19.1787zm-23.9734.0004h10.6666v-16h-10.6666zm27.7974-26.1738-20.5574-21.02398c-1.0053-1.02666-2.808-1.02666-3.8133 0l-20.56002 21.02668c-.97333 1-1.53333 2.3973-1.53333 3.8347v22.336c0 2.9413 2.25865 5.3333 5.03465 5.3333h10.9653 16 10.9627c2.776 0 5.0373-2.392 5.0373-5.3333v-22.336c0-1.4374-.5599-2.8347-1.5359-3.8374z" fill="#6b7280" fill-rule="evenodd"/></svg>