<svg fill="none" height="24" viewBox="0 0 24 24" width="24" xmlns="http://www.w3.org/2000/svg"><path clip-rule="evenodd" d="m18.9903 20h-2.99v-7c0-.553-.448-1-1-1h-6.00004c-.553 0-1 .447-1 1v7h-3l.006-8.417 6.99204-7.15104 7.002 7.19204zm-8.9901.0001h4v-6h-4zm10.424-9.8151-7.709-7.88404c-.377-.385-1.053-.385-1.43 0l-7.70996 7.88504c-.365.375-.575.899-.575 1.438v8.376c0 1.103.847 2 1.888 2h4.112 5.99996 4.111c1.041 0 1.889-.897 1.889-2v-8.376c0-.539-.21-1.063-.576-1.439z" fill="#6b7280" fill-rule="evenodd"/></svg>