<svg fill="none" height="24" viewBox="0 0 24 24" width="24" xmlns="http://www.w3.org/2000/svg"><path clip-rule="evenodd" d="m8.00002 9.99993c.828 0 1.5-.672 1.5-1.5s-.672-1.5-1.5-1.5-1.5.672-1.5 1.5.672 1.5 1.5 1.5zm9.99998 9.00017h-11.439l7.005-5.845c.246-.209.692-.208.933-.001l4.501 3.84v1.006c0 .552-.448 1-1 1zm-11.99998-14.00003h11.99998c.552 0 1 .448 1 1v8.36403l-3.203-2.732c-.99-.842-2.539-.842-3.52-.006l-7.27698 6.072v-11.69803c0-.552.448-1 1-1zm11.99998-2.00007h-12c-1.654 0-3 1.346-3 3v12c0 1.654 1.346 3 3 3h12c1.654 0 3-1.346 3-3v-12c0-1.654-1.346-3-3-3z" fill="#6b7280" fill-rule="evenodd"/></svg>