<svg width="64" height="64" viewBox="0 0 64 64" fill="none" xmlns="http://www.w3.org/2000/svg">
<path d="M31.334 9C32.8064 9.00026 34 10.1945 34 11.667C33.9997 13.1393 32.8063 14.3327 31.334 14.333H21.4668C19.1815 14.333 17.6267 14.3332 16.4268 14.4346C15.2588 14.5279 14.6582 14.7017 14.2422 14.915C13.239 15.4263 12.4233 16.2419 11.9121 17.2451C11.6988 17.6611 11.525 18.259 11.4316 19.4297C11.333 20.6296 11.333 22.1817 11.333 24.4668V37.2295L13.6777 34.8857C15.1779 33.386 17.2118 32.5431 19.333 32.543C21.4543 32.543 23.489 33.386 24.9893 34.8857L41.752 51.6484C42.4478 51.6351 43.0424 51.611 43.5703 51.5684C44.7383 51.4724 45.3389 51.2983 45.7549 51.085C46.7581 50.5737 47.5737 49.7581 48.085 48.7549C48.2983 48.3389 48.4721 47.741 48.5654 46.5703C48.6641 45.3704 48.667 43.8183 48.667 41.5332V32.666C48.6673 31.1936 49.8615 30 51.334 30C52.8064 30.0003 54 31.1945 54 32.667V41.6426C54 43.7892 54.0001 45.5629 53.8828 47.0029C53.7601 48.5042 53.4955 49.8825 52.8369 51.1758C51.8143 53.1828 50.1828 54.8143 48.1758 55.8369C46.8824 56.4956 45.5035 56.7601 44.0049 56.8828C42.5623 57.0001 40.7892 57 38.6455 57H21.3545C19.2081 57 17.435 57.0001 15.9951 56.8828C14.4938 56.7601 13.1146 56.4956 11.8213 55.8369C9.81441 54.8143 8.18275 53.1827 7.16016 51.1758C6.50153 49.8825 6.23692 48.5035 6.11426 47.0049C5.99963 45.5597 6 43.7892 6 41.6455V24.3545C6 22.2081 5.99989 20.435 6.11719 18.9951C6.23985 17.4938 6.50442 16.1146 7.16309 14.8213C8.18573 12.8144 9.81731 11.1828 11.8242 10.1602C13.1175 9.50153 14.4965 9.23692 15.9951 9.11426C17.4404 8.99963 19.2137 9 21.3574 9H31.334ZM19.333 37.875C18.626 37.8751 17.9482 38.1564 17.4482 38.6562L11.3516 44.752C11.3649 45.4478 11.389 46.0424 11.4316 46.5703C11.5276 47.7383 11.7017 48.3389 11.915 48.7549C12.4263 49.7581 13.2419 50.5737 14.2451 51.085C14.6611 51.2983 15.259 51.4721 16.4297 51.5654C17.6296 51.6667 19.1817 51.667 21.4668 51.667H34.2295L21.2188 38.6562C20.7187 38.1563 20.0401 37.875 19.333 37.875ZM37.0869 20.667C38.0036 20.6671 38.7471 21.4104 38.7471 22.3271C38.7473 23.8549 39.9858 25.0938 41.5137 25.0938C42.4302 25.0939 43.1726 25.8364 43.1729 26.7529C43.1729 27.6696 42.4303 28.4129 41.5137 28.4131C39.9858 28.4131 38.7472 29.6518 38.7471 31.1797C38.7471 32.0964 38.0036 32.8397 37.0869 32.8398C36.1701 32.8398 35.4268 32.0965 35.4268 31.1797C35.4266 29.7475 34.3381 28.5696 32.9434 28.4277L32.4902 28.4043C31.6532 28.3192 31 27.6124 31 26.7529C31.0002 25.8363 31.7435 25.0938 32.6602 25.0938C34.1879 25.0937 35.4265 23.8549 35.4268 22.3271C35.4268 21.4104 36.1701 20.667 37.0869 20.667ZM50.126 2C50.9846 2 51.7296 2.59443 51.9199 3.43164L52.9375 7.90625C53.4081 9.97588 55.0241 11.5918 57.0938 12.0625L61.5684 13.0801C62.4055 13.2704 63 14.0154 63 14.874C62.9998 15.7324 62.4054 16.4767 61.5684 16.667L57.0938 17.6846C55.0241 18.1552 53.4082 19.7712 52.9375 21.8408L51.9199 26.3154C51.7296 27.1526 50.9846 27.7471 50.126 27.7471C49.2676 27.7469 48.5233 27.1524 48.333 26.3154L47.3154 21.8408C46.8448 19.7712 45.2288 18.1552 43.1592 17.6846L38.6846 16.667C37.8476 16.4767 37.2531 15.7324 37.2529 14.874C37.2529 14.0154 37.8474 13.2704 38.6846 13.0801L43.1592 12.0625C45.2288 11.5918 46.8448 9.97587 47.3154 7.90625L48.333 3.43164C48.5233 2.59458 49.2676 2.00021 50.126 2ZM50.126 10.8633C49.2457 12.5879 47.8408 13.9938 46.1162 14.874C47.8407 15.7542 49.2458 17.1593 50.126 18.8838C51.0062 17.1592 52.4121 15.7543 54.1367 14.874C52.4119 13.9938 51.0062 12.5881 50.126 10.8633Z" fill="#141414"/>
</svg>
