<svg width="64" height="64" viewBox="0 0 64 64" fill="none" xmlns="http://www.w3.org/2000/svg">
<path fill-rule="evenodd" clip-rule="evenodd" d="M32.167 10.333C33.6398 10.333 34.834 11.5272 34.834 13C34.8338 14.4726 33.6396 15.666 32.167 15.666H15C13.5274 15.6662 12.334 16.8604 12.334 18.333V33.7803C17.2518 32.9538 21.5061 32.7742 25.2803 33.5127C29.1079 34.2617 32.3082 35.928 35.1406 38.5566C36.9091 37.1409 38.7124 36.1341 40.79 35.5938C42.7295 35.0894 44.7576 35.0321 47 35.2559V35.167C47 33.6942 48.1942 32.5 49.667 32.5C51.1398 32.5 52.334 33.6942 52.334 35.167V47.666C52.334 52.0842 48.7521 55.6658 44.334 55.666H15C10.5819 55.6658 7 52.0842 7 47.666V18.333C7 13.9148 10.5819 10.3332 15 10.333H32.167ZM24.2568 38.7471C21.1501 38.1391 17.3326 38.2888 12.334 39.1953V47.666C12.334 49.1387 13.5274 50.3328 15 50.333H37.29C35.8497 47.7402 34.4413 45.6554 32.9922 43.9971C30.4008 41.0316 27.6686 39.4148 24.2568 38.7471ZM47 40.6221C44.8972 40.369 43.4 40.4261 42.1318 40.7559C41.0165 41.046 39.9306 41.5868 38.6709 42.5645C40.2963 44.77 41.8194 47.3603 43.3232 50.333H44.334C45.8066 50.3328 47 49.1387 47 47.666V40.6221Z M46.667 9C47.7716 9 48.667 9.89543 48.667 11V17H54.667C55.7716 17 56.667 17.8954 56.667 19C56.667 20.1046 55.7716 21 54.667 21H48.667V27C48.667 28.1046 47.7716 29 46.667 29C45.5624 29 44.667 28.1046 44.667 27V21H38.667C37.5624 21 36.667 20.1046 36.667 19C36.667 17.8954 37.5624 17 38.667 17H44.667V11C44.667 9.89543 45.5624 9 46.667 9Z" fill="#141414"/>
</svg>
