<svg fill="none" height="64" viewBox="0 0 64 64" width="64" xmlns="http://www.w3.org/2000/svg"><path d="m40.6426 8c2.1466 0 3.9203-.00015 5.3603.11719 1.5013.12267 2.8796.38727 4.1729 1.0459 2.007 1.02261 3.6385 2.65411 4.6611 4.66111.6587 1.2934.9232 2.6723 1.0459 4.1709.1173 1.4452.1172 3.2157.1172 5.3594v17.2881c0 2.1466.0001 3.9203-.1172 5.3603-.1227 1.5013-.3873 2.8796-1.0459 4.1729-1.0226 2.007-2.6541 3.6385-4.6611 4.6611-1.2934.6587-2.6723.9232-4.1709 1.0459-1.4426.1173-3.2157.1172-5.3594.1172h-17.291c-2.1464 0-3.9195.0001-5.3594-.1172-1.5013-.1227-2.8805-.3872-4.1738-1.0459-2.0069-1.0226-3.6385-2.6542-4.66114-4.6611-.65863-1.2933-.92324-2.6723-1.0459-4.1709-.11463-1.4452-.11426-3.2157-.11426-5.3594v-17.291c0-2.1464-.00011-3.9195.11719-5.3594.12266-1.5013.38723-2.8805 1.0459-4.1738 1.02261-2.0069 2.65421-3.6385 4.66111-4.66114 1.2933-.65863 2.6723-.92324 4.1709-1.0459 1.4453-.11463 3.2186-.11426 5.3623-.11426zm-19.3096 28.875c-.707.0001-1.3848.2814-1.8848.7813l-6.0966 6.0957c.0133.6958.0374 1.2904.08 1.8183.096 1.168.2701 1.7686.4834 2.1846.5113 1.0032 1.3269 1.8188 2.3301 2.3301.416.2133 1.0139.3871 2.1846.4804 1.1999.1013 2.752.1016 5.0371.1016h12.7627l-13.0107-13.0107c-.5001-.5-1.1787-.7813-1.8858-.7813zm2.1338-23.542c-2.2853 0-3.8401.0002-5.04.1016-1.168.0933-1.7686.2671-2.1846.4804-1.0032.5113-1.8189 1.3269-2.3301 2.3301-.2133.416-.3871 1.0139-.4805 2.1846-.0986 1.1999-.0986 2.752-.0986 5.0371v12.7627l2.3447-2.3438c1.5002-1.4996 3.5341-2.3426 5.6553-2.3427 2.1213 0 4.156.843 5.6563 2.3427l16.7627 16.7627c.6958-.0133 1.2904-.0374 1.8183-.08 1.168-.096 1.7686-.2701 2.1846-.4834 1.0032-.5113 1.8188-1.3269 2.3301-2.3301.2133-.416.3871-1.0139.4804-2.1846.0987-1.1999.1016-2.752.1016-5.0371v-17.0664c0-2.2851-.0003-3.8372-.1016-5.0371-.0933-1.168-.2671-1.7686-.4804-2.1846-.5113-1.0032-1.3269-1.8188-2.3301-2.3301-.416-.2133-1.0139-.3871-2.1846-.4804-1.1999-.1013-2.752-.1016-5.0371-.1016zm15.2002 4c2.1216.0001 4.156.8435 5.6562 2.3438 1.5003 1.5002 2.3437 3.5346 2.3438 5.6562 0 2.1217-.8435 4.1569-2.3438 5.6572-1.5002 1.5001-3.5347 2.3427-5.6562 2.3428-2.1217 0-4.1569-.8425-5.6572-2.3428s-2.3428-3.5355-2.3428-5.6572c.0001-2.1215.8427-4.156 2.3428-5.6562 1.5003-1.5003 3.5355-2.3438 5.6572-2.3438zm0 5.334c-.7071 0-1.3857.2804-1.8857.7803-.5001.5-.7812 1.1786-.7813 1.8857 0 .7073.2812 1.3857.7813 1.8858.5.5 1.1784.7812 1.8857.7812.7071-.0001 1.3857-.2812 1.8857-.7812.4999-.5001.7803-1.1787.7803-1.8858-.0001-.7071-.2802-1.3857-.7803-1.8857-.5-.5001-1.1786-.7802-1.8857-.7803z" fill="#000"/></svg>