<svg fill="none" height="64" viewBox="0 0 64 64" width="64" xmlns="http://www.w3.org/2000/svg"><path clip-rule="evenodd" d="m21.3334 26.6665c2.208 0 4-1.792 4-4s-1.792-4-4-4-4 1.792-4 4 1.792 4 4 4zm26.6666 24.0004h-30.504l18.68-15.5867c.656-.5574 1.8453-.5547 2.488-.0027l12.0027 10.24v2.6827c0 1.472-1.1947 2.6667-2.6667 2.6667zm-32-37.3334h32c1.472 0 2.6667 1.1947 2.6667 2.6667v22.304l-8.5413-7.2854c-2.64-2.2453-6.7707-2.2453-9.3867-.016l-19.4053 16.192v-31.1946c0-1.472 1.1946-2.6667 2.6666-2.6667zm32-5.3335h-32c-4.4107 0-8 3.5893-8 8v32c0 4.4107 3.5893 8 8 8h32c4.4107 0 8-3.5893 8-8v-32c0-4.4107-3.5893-8-8-8z" fill="#6b7280" fill-rule="evenodd"/></svg>