<svg fill="none" height="64" viewBox="0 0 64 64" width="64" xmlns="http://www.w3.org/2000/svg"><path clip-rule="evenodd" d="m48 50.6665h-32c-1.4693 0-2.6666-1.1947-2.6666-2.6667v-13.3333h5.3333v8c0 1.4747 1.1947 2.6667 2.6667 2.6667h21.3333c1.472 0 2.6667-1.192 2.6667-2.6667v-8h5.3333v13.3333c0 1.472-1.1973 2.6667-2.6667 2.6667zm-25.7546-35.8583c.4533-.9094 1.368-1.4747 2.384-1.4747h14.7413c1.016 0 1.9307.5653 2.384 1.4747l7.264 14.5253h-6.352c-1.472 0-2.6667 1.192-2.6667 2.6667v8h-16v-8c0-1.4747-1.1946-2.6667-2.6666-2.6667h-6.352zm33.1919 15.4371-8.912-17.824c-1.3626-2.7253-4.104-4.4213-7.1546-4.4213h-14.7414c-3.0506 0-5.792 1.696-7.1546 4.4213l-8.91203 17.824c-.368.736-.56267 1.5627-.56267 2.384v15.3707c0 4.4107 3.5893 8 8 8h32c4.4107 0 8-3.5893 8-8v-15.3707c0-.8213-.1947-1.648-.5627-2.384z" fill="#6b7280" fill-rule="evenodd"/></svg>