<svg fill="none" height="24" viewBox="0 0 24 24" width="24" xmlns="http://www.w3.org/2000/svg"><path clip-rule="evenodd" d="m18 18.9999h-11.99998c-.551 0-1-.448-1-1v-5h2v3c0 .553.448 1 1 1h7.99998c.552 0 1-.447 1-1v-3h2v5c0 .552-.449 1-1 1zm-9.65799-13.44683c.17-.341.513-.553.894-.553h5.52799c.381 0 .724.212.894.553l2.724 5.44703h-2.382c-.552 0-1 .447-1 1v3h-5.99999v-3c0-.553-.448-1-1-1h-2.382zm12.44699 5.78893-3.342-6.684c-.511-1.022-1.539-1.658-2.683-1.658h-5.528c-1.144 0-2.172.636-2.683 1.658l-3.342 6.684c-.138.276-.211.586-.211.894v5.764c0 1.654 1.346 3 3 3h12c1.654 0 3-1.346 3-3v-5.764c0-.308-.073-.618-.211-.894z" fill="#6b7280" fill-rule="evenodd"/></svg>