<svg fill="none" height="64" viewBox="0 0 64 64" width="64" xmlns="http://www.w3.org/2000/svg"><path clip-rule="evenodd" d="m29.3334 21.3337c0-1.472 1.1946-2.6667 2.6666-2.6667s2.6667 1.1947 2.6667 2.6667-1.1947 2.6666-2.6667 2.6666-2.6666-1.1946-2.6666-2.6666zm0 8c0-1.472 1.1946-2.6667 2.6666-2.6667s2.6667 1.1947 2.6667 2.6667v13.3333c0 1.472-1.1947 2.6667-2.6667 2.6667s-2.6666-1.1947-2.6666-2.6667zm2.6667 24c-11.7627 0-21.3333-9.5707-21.3333-21.3334 0-11.7626 9.5706-21.3333 21.3333-21.3333 11.7626 0 21.3333 9.5707 21.3333 21.3333 0 11.7627-9.5707 21.3334-21.3333 21.3334zm-.0001-48.0002c-14.728 0-26.66663 11.9387-26.66663 26.6667s11.93863 26.6666 26.66663 26.6666c14.7254 0 26.6667-11.9386 26.6667-26.6666s-11.9413-26.6667-26.6667-26.6667z" fill="#6b7280" fill-rule="evenodd"/></svg>