<svg viewBox="0 0 64 64" fill="none" xmlns="http://www.w3.org/2000/svg">
<path fill-rule="evenodd" clip-rule="evenodd" d="M12.177 8.26245C13.1009 7.8185 14.1996 7.94254 15 8.58276L41.6666 29.9161C42.2991 30.4221 42.6665 31.1895 42.6666 31.9994C42.6666 32.8095 42.2991 33.5767 41.6666 34.0828L15 55.4161C14.1995 56.0565 13.101 56.1805 12.177 55.7364C11.2537 55.2922 10.6666 54.3575 10.6666 53.3328V10.6661C10.6668 9.64144 11.2537 8.70661 12.177 8.26245ZM16 47.7807L35.7291 31.9994L16 16.2156V47.7807Z M50.6666 10.6661C52.1392 10.6661 53.333 11.8602 53.3333 13.3328V50.6661C53.3333 52.1389 52.1394 53.3328 50.6666 53.3328C49.1939 53.3328 48 52.1389 48 50.6661V13.3328C48.0002 11.8602 49.194 10.6661 50.6666 10.6661Z" fill="#141414"/>
</svg>