<svg viewBox="0 0 64 64" fill="none" xmlns="http://www.w3.org/2000/svg">
<path fill-rule="evenodd" clip-rule="evenodd" d="M49 8.58276C49.8004 7.94254 50.8991 7.8185 51.8229 8.26245C52.7462 8.70661 53.3332 9.64144 53.3333 10.6661V53.3328C53.3333 54.3575 52.7462 55.2922 51.8229 55.7364C50.899 56.1805 49.8004 56.0565 49 55.4161L22.3333 34.0828C21.7008 33.5767 21.3333 32.8095 21.3333 31.9994C21.3334 31.1895 21.7008 30.4221 22.3333 29.9161L49 8.58276ZM28.2708 31.9994L48 47.7807V16.2156L28.2708 31.9994Z M13.3333 10.6661C14.8059 10.6661 15.9997 11.8602 16 13.3328V50.6661C16 52.1389 14.8061 53.3328 13.3333 53.3328C11.8605 53.3328 10.6666 52.1389 10.6666 50.6661V13.3328C10.6669 11.8602 11.8607 10.6661 13.3333 10.6661Z" fill="#141414"/>
</svg>