<svg fill="none" height="24" viewBox="0 0 24 24" width="24" xmlns="http://www.w3.org/2000/svg"><path clip-rule="evenodd" d="m19 19.9999c-.553 0-1-.447-1-1s.447-1 1-1 1 .447 1 1-.447 1-1 1zm0-3.9998c-1.654 0-3 1.346-3 3s1.346 3 3 3 3-1.346 3-3-1.346-3-3-3zm-7 3.9998c-.553 0-1-.447-1-1s.447-1 1-1 1 .447 1 1-.447 1-1 1zm0-3.9998c-1.654 0-2.99997 1.346-2.99997 3s1.34597 3 2.99997 3 3-1.346 3-3-1.346-3-3-3zm-7.00003 3.9998c-.553 0-1-.447-1-1s.447-1 1-1 1 .447 1 1-.447 1-1 1zm.00003-3.9998c-1.654 0-3 1.346-3 3s1.346 3 3 3 3-1.346 3-3-1.346-3-3-3zm14-3.0001c-.553 0-1-.447-1-1s.447-1 1-1 1 .447 1 1-.447 1-1 1zm0-4.00007c-1.654 0-3 1.34597-3 2.99997s1.346 3 3 3 3-1.346 3-3-1.346-2.99997-3-2.99997zm-7 4.00007c-.553 0-1-.447-1-1s.447-1 1-1 1 .447 1 1-.447 1-1 1zm0-4.00007c-1.654 0-2.99997 1.34597-2.99997 2.99997s1.34597 3 2.99997 3 3-1.346 3-3-1.346-2.99997-3-2.99997zm-7.00003 4.00007c-.553 0-1-.447-1-1s.447-1 1-1 1 .447 1 1-.447 1-1 1zm.00003-4.00007c-1.654 0-3 1.34597-3 2.99997s1.346 3 3 3 3-1.346 3-3-1.346-2.99997-3-2.99997zm14-4.99986c.553 0 1 .447 1 1s-.447 1-1 1-1-.447-1-1 .447-1 1-1zm0 3.99993c1.654 0 3-1.346 3-3s-1.346-3-3-3-3 1.346-3 3 1.346 3 3 3zm-7-1.99993c-.553 0-1-.448-1-1 0-.553.447-1 1-1s1 .447 1 1c0 .552-.447 1-1 1zm0-4.00007c-1.654 0-2.99997 1.346-2.99997 3s1.34597 3 2.99997 3 3-1.346 3-3-1.346-3-3-3zm-7.00003 4.00007c-.553 0-1-.447-1-1s.447-1 1-1 1 .447 1 1-.447 1-1 1zm.00003-4.00007c-1.654 0-3 1.346-3 3s1.346 3 3 3 3-1.346 3-3-1.346-3-3-3z" fill="#6b7280" fill-rule="evenodd"/></svg>