<svg fill="none" height="64" viewBox="0 0 64 64" width="64" xmlns="http://www.w3.org/2000/svg"><path clip-rule="evenodd" d="m50.6667 53.3333c-1.4747 0-2.6667-1.192-2.6667-2.6666 0-1.4747 1.192-2.6667 2.6667-2.6667 1.4746 0 2.6666 1.192 2.6666 2.6667 0 1.4746-1.192 2.6666-2.6666 2.6666zm-.0002-10.6663c-4.4107 0-8 3.5893-8 8s3.5893 8 8 8 8-3.5893 8-8-3.5893-8-8-8zm-18.6666 10.6663c-1.4746 0-2.6666-1.192-2.6666-2.6666 0-1.4747 1.192-2.6667 2.6666-2.6667 1.4747 0 2.6667 1.192 2.6667 2.6667 0 1.4746-1.192 2.6666-2.6667 2.6666zm.0001-10.6663c-4.4107 0-8 3.5893-8 8s3.5893 8 8 8 8-3.5893 8-8-3.5893-8-8-8zm-18.6668 10.6663c-1.4747 0-2.6667-1.192-2.6667-2.6666 0-1.4747 1.192-2.6667 2.6667-2.6667 1.4746 0 2.6666 1.192 2.6666 2.6667 0 1.4746-1.192 2.6666-2.6666 2.6666zm.0001-10.6663c-4.41071 0-8.00005 3.5893-8.00005 8s3.58934 8 8.00005 8c4.4106 0 8-3.5893 8-8s-3.5894-8-8-8zm37.3334-8.0002c-1.4747 0-2.6667-1.192-2.6667-2.6666 0-1.4747 1.192-2.6667 2.6667-2.6667 1.4746 0 2.6666 1.192 2.6666 2.6667 0 1.4746-1.192 2.6666-2.6666 2.6666zm-.0002-10.6668c-4.4107 0-8 3.5893-8 8s3.5893 8 8 8 8-3.5893 8-8-3.5893-8-8-8zm-18.6666 10.6668c-1.4746 0-2.6666-1.192-2.6666-2.6666 0-1.4747 1.192-2.6667 2.6666-2.6667 1.4747 0 2.6667 1.192 2.6667 2.6667 0 1.4746-1.192 2.6666-2.6667 2.6666zm.0001-10.6668c-4.4107 0-8 3.5893-8 8s3.5893 8 8 8 8-3.5893 8-8-3.5893-8-8-8zm-18.6668 10.6668c-1.4747 0-2.6667-1.192-2.6667-2.6666 0-1.4747 1.192-2.6667 2.6667-2.6667 1.4746 0 2.6666 1.192 2.6666 2.6667 0 1.4746-1.192 2.6666-2.6666 2.6666zm.0001-10.6668c-4.41071 0-8.00005 3.5893-8.00005 8s3.58934 8 8.00005 8c4.4106 0 8-3.5893 8-8s-3.5894-8-8-8zm37.3334-13.333c1.4746 0 2.6666 1.192 2.6666 2.6667 0 1.4746-1.192 2.6666-2.6666 2.6666-1.4747 0-2.6667-1.192-2.6667-2.6666 0-1.4747 1.192-2.6667 2.6667-2.6667zm-.0002 10.6665c4.4107 0 8-3.5893 8-8 0-4.41067-3.5893-8-8-8s-8 3.58933-8 8c0 4.4107 3.5893 8 8 8zm-18.6666-5.3332c-1.4746 0-2.6666-1.1946-2.6666-2.6666 0-1.4747 1.192-2.6667 2.6666-2.6667 1.4747 0 2.6667 1.192 2.6667 2.6667 0 1.472-1.192 2.6666-2.6667 2.6666zm.0001-10.6668c-4.4107 0-8 3.58933-8 8 0 4.4107 3.5893 8 8 8s8-3.5893 8-8c0-4.41067-3.5893-8-8-8zm-18.6668 10.6668c-1.4747 0-2.6667-1.192-2.6667-2.6666 0-1.4747 1.192-2.6667 2.6667-2.6667 1.4746 0 2.6666 1.192 2.6666 2.6667 0 1.4746-1.192 2.6666-2.6666 2.6666zm.0001-10.6668c-4.41071 0-8.00005 3.58933-8.00005 8 0 4.4107 3.58934 8 8.00005 8 4.4106 0 8-3.5893 8-8 0-4.41067-3.5894-8-8-8z" fill="#6b7280" fill-rule="evenodd"/></svg>