<svg viewBox="0 0 64 64" fill="none" xmlns="http://www.w3.org/2000/svg">
<path fill-rule="evenodd" clip-rule="evenodd" d="M34.2632 14.0004C34.7005 14.0008 35.1318 14.107 35.5191 14.31C35.906 14.5129 36.238 14.8064 36.4869 15.1655C36.7359 15.5248 36.8947 15.9396 36.9488 16.3735C37.0028 16.8073 36.9506 17.2482 36.7974 17.6576L35.0445 22.3334H37.7085C38.2762 22.3334 38.8334 22.488 39.3199 22.7807C39.8062 23.0733 40.2034 23.4931 40.4693 23.9946C40.7351 24.4961 40.8594 25.0606 40.8287 25.6274C40.7979 26.1943 40.6132 26.7424 40.2945 27.2123L33.6285 37.9418C33.4224 38.2645 33.1385 38.5304 32.8033 38.7153C32.468 38.9001 32.0914 38.9984 31.7085 39.0004C31.3673 38.9992 31.0305 38.9229 30.7212 38.7787C30.2161 38.5538 29.8098 38.1527 29.5796 37.6498C29.3495 37.147 29.3114 36.5776 29.4712 36.0483L31.0972 30.6664H27.2652C26.7772 30.667 26.296 30.5533 25.8599 30.3344C25.4237 30.1154 25.0446 29.7974 24.7535 29.4057C24.4624 29.0139 24.267 28.5593 24.1831 28.0785C24.0993 27.5977 24.1296 27.1033 24.271 26.6362L27.4205 16.2201C27.6124 15.576 28.0084 15.011 28.5484 14.6108C29.0885 14.2105 29.7443 13.9965 30.4165 14.0004H34.2632ZM30.4165 16.0834C30.1929 16.0832 29.9752 16.1553 29.7955 16.2885C29.6158 16.4217 29.4834 16.6087 29.4185 16.8227L26.2691 27.2397C26.2219 27.3953 26.2119 27.5599 26.2398 27.7201C26.2677 27.8803 26.3324 28.032 26.4292 28.1625C26.5261 28.293 26.6522 28.399 26.7974 28.4721C26.9425 28.5451 27.1027 28.5834 27.2652 28.5834H32.4996C32.6622 28.5834 32.823 28.6216 32.9683 28.6947C33.1135 28.7678 33.2396 28.8738 33.3365 29.0043C33.4334 29.1349 33.4981 29.2865 33.5259 29.4467C33.5538 29.6069 33.5438 29.7715 33.4966 29.9272L31.4683 36.6371C31.4589 36.6618 31.4552 36.6889 31.4566 36.7153C31.458 36.7414 31.4644 36.7671 31.4761 36.7905C31.4879 36.8139 31.5047 36.8352 31.5249 36.852C31.5451 36.8687 31.5691 36.8809 31.5943 36.8881C31.6173 36.9028 31.6435 36.9132 31.6705 36.9174C31.6974 36.9216 31.7252 36.9197 31.7515 36.9125C31.7779 36.9054 31.8025 36.8927 31.8238 36.8754C31.8448 36.8583 31.8622 36.8371 31.8746 36.8129L38.5415 26.0834C38.6581 25.9253 38.7274 25.7373 38.7417 25.5414C38.7561 25.3455 38.7148 25.1494 38.6226 24.976C38.5371 24.8071 38.4062 24.6656 38.2447 24.5668C38.0832 24.4681 37.8978 24.4156 37.7085 24.4164H33.5415C33.3732 24.4165 33.2073 24.3763 33.0581 24.2983C32.909 24.2202 32.781 24.1065 32.6851 23.9682C32.5893 23.8299 32.5282 23.6703 32.5074 23.5033C32.4866 23.3364 32.5069 23.1667 32.566 23.0092L34.8472 16.9262C34.8823 16.8319 34.8939 16.7301 34.8814 16.6303C34.8689 16.5306 34.8321 16.4356 34.7749 16.353C34.7177 16.2703 34.6412 16.2026 34.5523 16.1557C34.4633 16.1088 34.3638 16.0838 34.2632 16.0834H30.4165Z M32.3277 2.00236C36.7729 2.07022 41.0951 3.51451 44.7222 6.14299C48.3494 8.7721 51.1134 12.4652 52.648 16.7319C54.1825 20.9987 54.4171 25.6427 53.3199 30.0483C52.2225 34.4527 49.846 38.4144 46.5035 41.4106C44.9716 42.8552 43.7553 44.6172 42.941 46.5785C42.2287 48.2945 41.8359 50.1301 41.7808 51.9887V56.0004C41.7799 59.3126 39.0931 61.9993 35.7808 62.0004H28.2222C24.9096 61.9997 22.2231 59.3128 22.2222 56.0004V52.3754C22.1738 50.2079 21.6857 48.0703 20.7886 46.1059C19.8915 44.1423 18.605 42.3903 17.0113 40.9613C13.7567 37.8641 11.4951 33.829 10.5269 29.392C9.55922 24.9555 9.93123 20.3205 11.5894 16.103C13.248 11.8859 16.1181 8.28093 19.8199 5.76408C23.5219 3.24742 27.8826 1.93476 32.3277 2.00236ZM27.0933 55.8012C27.094 56.4632 27.6304 57.0002 28.2925 57.0004H35.73C36.3919 56.9999 36.9285 56.463 36.9292 55.8012V52.0004H27.0933V55.8012ZM32.1519 6.99846C29.3859 6.97348 26.6524 7.63776 24.191 8.92815C21.7308 10.2183 19.6131 12.0987 18.0191 14.4086C16.4245 16.7197 15.402 19.3939 15.0386 22.1977C14.6716 24.9654 14.9595 27.7827 15.8824 30.4115C16.8055 33.0404 18.3345 35.405 20.3394 37.3022C23.1526 39.9239 25.2212 43.2763 26.3238 47.0014H37.6714C38.6075 43.3932 40.557 40.144 43.2769 37.6537C45.357 35.7898 46.9639 33.4363 47.9605 30.7983C48.9569 28.1601 49.3143 25.3121 48.9995 22.5024C48.6845 19.693 47.7059 17.0017 46.1519 14.6625C44.5977 12.3238 42.5119 10.4032 40.0738 9.06877C37.6357 7.73467 34.9171 7.02365 32.1519 6.99846Z" fill="#141414"/>
</svg>