<svg viewBox="0 0 64 64" fill="none" xmlns="http://www.w3.org/2000/svg">
<path fill-rule="evenodd" clip-rule="evenodd" d="M32.3276 2.00249C36.7729 2.0703 41.095 3.51437 44.7221 6.14294C48.3495 8.77215 51.1133 12.4654 52.6479 16.7323C54.1824 20.9992 54.417 25.6426 53.3198 30.0482C52.2224 34.4528 49.8461 38.4148 46.5034 41.411C44.9715 42.8557 43.7552 44.6173 42.9409 46.5788C42.2286 48.2947 41.8358 50.1301 41.7807 51.9887V56.0003C41.7799 59.3126 39.0931 61.999 35.7807 62H28.2221C24.9094 61.9993 22.2229 59.3128 22.2221 56.0003V52.3754C22.1737 50.2079 21.6856 48.0706 20.7885 46.1061C19.8914 44.1424 18.6049 42.3908 17.0112 40.9618C13.7564 37.8645 11.495 33.8291 10.5268 29.392C9.55909 24.9554 9.93111 20.321 11.5893 16.1035C13.2479 11.8862 16.1179 8.28101 19.8198 5.76405C23.5218 3.24732 27.8824 1.93486 32.3276 2.00249ZM27.0932 55.801C27.0938 56.4632 27.6302 57.0001 28.2924 57.0002H35.7299C36.3919 56.9998 36.9285 56.463 36.9291 55.801V52.0004H27.0932V55.801ZM32.1518 6.99837C29.3857 6.97338 26.6523 7.63751 24.1909 8.92798C21.7307 10.2182 19.613 12.0983 18.019 14.4082C16.4244 16.7194 15.4019 19.3931 15.0385 22.197C14.6715 24.9649 14.9593 27.7825 15.8823 30.4115C16.8054 33.0403 18.3343 35.4046 20.3393 37.3018C23.1526 39.9236 25.221 43.2754 26.3237 47.0006H29.558V29.0482C28.1332 28.5332 26.898 27.5777 26.0229 26.3179C25.1482 25.0584 24.6738 23.5542 24.6674 22.0095C24.6674 22.0095 24.6683 19.9978 27.1127 19.9978C29.5567 19.9981 29.558 22.0095 29.558 22.0095C29.5582 22.6719 29.8149 23.3065 30.2729 23.775C30.7309 24.2433 31.3518 24.5089 31.9995 24.5094C32.6478 24.5094 33.2715 24.2437 33.7299 23.775C34.1878 23.3065 34.4446 22.6718 34.4448 22.0095C34.4448 22.0095 34.4456 19.9978 36.8901 19.9978C39.3345 19.9979 39.3354 22.0095 39.3354 22.0095C39.329 23.5541 38.8545 25.0584 37.9799 26.3179C37.1048 27.5777 35.8696 28.5332 34.4448 29.0482V47.0006H37.6713C38.6074 43.3924 40.5569 40.1436 43.2768 37.6534C45.3569 35.7894 46.9638 33.4362 47.9604 30.7982C48.957 28.1597 49.3143 25.3116 48.9995 22.5016C48.6844 19.6922 47.7059 17.0013 46.1518 14.6621C44.5975 12.3234 42.5118 10.403 40.0737 9.0686C37.6355 7.73443 34.9171 7.02354 32.1518 6.99837Z" fill="#141414"/>
</svg>