<svg viewBox="0 0 64 64" fill="none" xmlns="http://www.w3.org/2000/svg">
<path fill-rule="evenodd" clip-rule="evenodd" d="M51.1114 7.99994C51.8092 7.99994 52.493 7.99666 53.0674 8.04388C53.673 8.09374 54.3877 8.21245 55.1065 8.58099C56.1035 9.09223 56.9148 9.90787 57.4229 10.9111C57.7892 11.6344 57.9066 12.3545 57.9561 12.9638C58.003 13.5419 58.0001 14.2303 58.0001 14.9326V49.0673C58.0001 49.7695 58.003 50.458 57.9561 51.0361C57.9066 51.6454 57.7892 52.3654 57.4229 53.0888C56.9148 54.092 56.1035 54.9076 55.1065 55.4189C54.3877 55.7874 53.673 55.9061 53.0674 55.956C52.493 56.0032 51.8092 55.9999 51.1114 55.9999H30.4395C29.7415 55.9999 29.057 56.0032 28.4825 55.956C27.877 55.9061 27.1622 55.7874 26.4434 55.4189C25.5711 54.9716 24.8412 54.2911 24.3321 53.456L24.127 53.0888L23.8965 52.5468C23.7071 52.0113 23.6309 51.4928 23.5938 51.0361C23.5469 50.458 23.5499 49.7695 23.5499 49.0673V14.9326C23.5499 14.2303 23.5469 13.5419 23.5938 12.9638C23.6434 12.3545 23.7607 11.6344 24.127 10.9111C24.6351 9.90787 25.4465 9.09225 26.4434 8.58099C27.1622 8.21245 27.877 8.09375 28.4825 8.04388C28.7703 8.02023 29.0867 8.0102 29.4171 8.00482L30.4395 7.99994H51.1114ZM6.336 11.0185C7.60668 10.288 9.22515 10.732 9.95123 12.0107L19.0469 28.0312C20.4436 30.4906 20.4436 33.5092 19.0469 35.9687L9.95123 51.9892C9.22514 53.2679 7.60669 53.7119 6.336 52.9814C5.06528 52.2507 4.62355 50.6224 5.34967 49.3437L14.4464 33.3232C14.9119 32.5034 14.9119 31.4965 14.4464 30.6767L5.34967 14.6562C4.62358 13.3775 5.0653 11.7492 6.336 11.0185ZM30.4395 13.3329C29.6546 13.3329 29.2239 13.3369 28.9151 13.3622C28.9042 13.3631 28.8937 13.3662 28.8839 13.3671C28.8829 13.3771 28.8799 13.3874 28.879 13.3984C28.8537 13.7091 28.8497 14.1425 28.8497 14.9326V49.0673C28.8497 49.8574 28.8537 50.2907 28.879 50.6015C28.8799 50.6135 28.8829 50.6249 28.8839 50.6357C28.8937 50.6366 28.9043 50.6367 28.9151 50.6376C29.2239 50.663 29.6546 50.6669 30.4395 50.6669H51.1114C51.8959 50.6669 52.3261 50.663 52.6348 50.6376C52.6466 50.6367 52.6584 50.6367 52.669 50.6357C52.67 50.625 52.671 50.6134 52.6719 50.6015C52.6972 50.2907 52.7003 49.8573 52.7003 49.0673V14.9326C52.7003 14.1425 52.6972 13.7091 52.6719 13.3984C52.671 13.3875 52.6699 13.377 52.669 13.3671C52.6583 13.3661 52.6467 13.3632 52.6348 13.3622C52.3261 13.3369 51.8959 13.3329 51.1114 13.3329H30.4395Z" fill="#141414"/>
</svg>