<svg fill="none" height="24" viewBox="0 0 24 24" width="24" xmlns="http://www.w3.org/2000/svg"><path clip-rule="evenodd" d="m17.7604 15.54-5.76 3.307-5.76004-3.307 1.694-.721 3.56804 2.048c.154.089.326.133.498.133s.343-.044.498-.133l3.568-2.049zm-6.258-2.6729c.154.089.326.133.498.133s.343-.044.498-.133l3.568-2.049 1.694.722-5.76 3.307-5.76004-3.307 1.694-.722zm.498-7.78006 5.76 2.453-5.76 3.30696-5.76004-3.30696zm8.9979 6.26096c-.023-.379-.258-.712-.607-.861l-2.152-.916 2.259-1.29699c.329-.188.522-.547.5-.926-.023-.378-.258-.712-.607-.861l-8-3.407c-.25-.107-.533-.107-.783 0l-7.99997 3.407c-.349.149-.584.483-.606.861-.023.379.171.738.5.926l2.258 1.29699-2.152.916c-.349.149-.584.482-.606.861-.023.379.171.738.5.926l2.258 1.297-2.152.916c-.349.149-.584.482-.606.861-.023.379.171.738.5.926l7.99997 4.593c.154.089.326.133.498.133s.343-.044.498-.133l8-4.593c.329-.188.522-.547.5-.926-.023-.378-.258-.712-.606-.861l-2.152-.917 2.258-1.296c.329-.188.522-.547.5-.926z" fill="#6b7280" fill-rule="evenodd"/></svg>