<svg fill="none" height="64" viewBox="0 0 64 64" width="64" xmlns="http://www.w3.org/2000/svg"><path clip-rule="evenodd" d="m47.3609 41.4399-15.36 8.8187-15.36-8.8187 4.5174-1.9226 9.5146 5.4613c.4107.2373.8694.3547 1.328.3547.4587 0 .9147-.1174 1.328-.3547l9.5147-5.464zm-16.688-7.1278c.4107.2373.8694.3547 1.328.3547.4587 0 .9147-.1174 1.328-.3547l9.5147-5.464 4.5173 1.9253-15.36 8.8187-15.36-8.8187 4.5174-1.9253zm1.328-20.7467 15.36 6.5413-15.36 8.8187-15.36-8.8187zm23.9946 16.6959c-.0613-1.0107-.688-1.8987-1.6186-2.296l-5.7387-2.4427 6.024-3.4587c.8773-.5013 1.392-1.4586 1.3333-2.4693-.0613-1.008-.688-1.8987-1.6186-2.296l-21.3334-9.08533c-.6666-.28534-1.4213-.28534-2.088 0l-21.33331 9.08533c-.93067.3973-1.55733 1.288-1.616 2.296-.06133 1.0107.456 1.968 1.33333 2.4693l6.02138 3.4587-5.73871 2.4427c-.93067.3973-1.55733 1.2853-1.616 2.296-.06133 1.0106.456 1.968 1.33333 2.4693l6.02138 3.4587-5.73871 2.4426c-.93067.3974-1.55733 1.2854-1.616 2.296-.06133 1.0107.456 1.968 1.33333 2.4694l21.33338 12.248c.4106.2373.8693.3546 1.328.3546.4586 0 .9146-.1173 1.328-.3546l21.3333-12.248c.8773-.5014 1.392-1.4587 1.3333-2.4694-.0613-1.008-.688-1.8986-1.616-2.296l-5.7386-2.4453 6.0213-3.456c.8773-.5013 1.392-1.4587 1.3333-2.4693z" fill="#6b7280" fill-rule="evenodd"/></svg>