<svg viewBox="0 0 64 64" fill="none" xmlns="http://www.w3.org/2000/svg">
<path fill-rule="evenodd" clip-rule="evenodd" d="M20 8C11.8986 8 5.33331 14.4402 5.33331 22.3872C5.33331 33.298 18.4326 43.8719 22.0833 47.2123C24.8389 49.7321 28.2412 52.7228 30.2595 54.4854C31.2573 55.3568 32.7426 55.3568 33.7405 54.4854C35.7587 52.7228 39.161 49.7321 41.9166 47.2123C45.5673 43.8719 58.6666 33.298 58.6666 22.3872C58.6666 14.4402 52.1013 8 44 8C36.28 8 32 13.4667 32 13.4667C32 13.4667 27.72 8 20 8ZM20 13.2317C24.872 13.2317 27.6961 16.5685 27.7708 16.6548L32 21.0793L36.2291 16.6548C36.2558 16.6208 39.128 13.2317 44 13.2317C45.6021 13.2317 47.0875 13.6655 48.4062 14.3659L32 30.4596L25.0679 23.6596C24.0409 22.6522 22.3965 22.6522 21.3696 23.6596L-nan -nanL21.3696 23.6596C20.3143 24.6948 20.3143 26.3945 21.3696 27.4297L32 37.8576L52.1771 18.0649C52.8911 19.3585 53.3333 20.8157 53.3333 22.3872C53.3333 30.0229 43.2814 38.9361 39.4948 42.2923C39.0228 42.7108 38.6146 43.0745 38.2812 43.3805C36.2786 45.2116 33.9093 47.316 32 48.9954C30.0906 47.316 27.7187 45.209 25.7187 43.3805C25.3827 43.0745 24.9745 42.7082 24.5052 42.2923C20.7185 38.9361 10.6666 30.0229 10.6666 22.3872C10.6666 17.3386 14.8533 13.2317 20 13.2317Z" fill="#141414"/>
</svg>