<svg width="64" height="64" viewBox="0 0 64 64" fill="none" xmlns="http://www.w3.org/2000/svg">
<path fill-rule="evenodd" clip-rule="evenodd" d="M27.2818 7.00779C27.6776 6.09255 28.5794 5.5 29.5765 5.5C32.0811 5.5 34.4688 6.52333 36.2183 8.32157C37.9655 10.1175 38.9353 12.539 38.9353 15.05V21.9499H49.3628C50.3933 21.9403 51.4115 22.16 52.347 22.5916C53.2871 23.0252 54.1185 23.6612 54.7865 24.4509C55.4544 25.2403 55.9436 26.1651 56.2246 27.1596C56.5054 28.154 56.5723 29.1979 56.4214 30.2201L53.2664 51.3696C53.2663 51.3703 53.2662 51.3711 53.2661 51.3718C53.015 53.0702 52.1736 54.6323 50.8786 55.7638C49.5853 56.8937 47.9274 57.5157 46.2076 57.4997H13.5726C11.6743 57.4997 9.86811 56.724 8.54738 55.3664C7.22892 54.0112 6.5 52.1874 6.5 50.2997V33.8498C6.5 31.9621 7.22892 30.1383 8.54738 28.7831C9.86811 27.4256 11.6743 26.6499 13.5726 26.6499H18.7887L27.2818 7.00779ZM17.9314 31.6499H13.5726C13.0454 31.6499 12.5255 31.8645 12.1312 32.2698C11.7346 32.6774 11.5 33.2445 11.5 33.8498V50.2997C11.5 50.905 11.7346 51.4722 12.1312 51.8798C12.5255 52.2851 13.0454 52.4997 13.5726 52.4997H17.9314V31.6499ZM22.9314 52.4997H46.2206L46.2497 52.4999C46.7295 52.5054 47.2056 52.3333 47.5888 51.9985C47.9738 51.6621 48.2399 51.1821 48.3199 50.6398L51.475 29.4897C51.4751 29.4891 51.4752 29.4886 51.4753 29.4881C51.523 29.1635 51.5014 28.8324 51.4128 28.5187C51.3241 28.2046 51.1713 27.919 50.9693 27.6802C50.7674 27.4416 50.5219 27.256 50.2525 27.1317C49.9834 27.0076 49.6944 26.9464 49.4048 26.9497L49.3757 26.9499H36.4353C35.0546 26.9499 33.9353 25.8306 33.9353 24.4499V15.05C33.9353 13.8214 33.4599 12.6565 32.6345 11.8082C32.1899 11.3512 31.664 11.0062 31.0958 10.7855L22.9314 29.6672V52.4997Z" fill="#6B7280"/>
</svg>
