<svg fill="none" height="24" viewBox="0 0 24 24" width="24" xmlns="http://www.w3.org/2000/svg"><path clip-rule="evenodd" d="m4 10h-.002l.002 10h2v-10zm2 11.9999h-2c-1.103 0-2-.897-2-2v-9.99997c0-1.103.897-2 2-2h2c1.103 0 2 .897 2 2v9.99997c0 1.103-.897 2-2 2zm9.5049-10.3075c.153 0 .308.013.461.037 1.35.221 2.367 1.467 2.367 2.9v5.371h1.667v-5.462c0-2.502-2.018-4.538-4.5-4.538-2.481 0-4.5 2.036-4.5 4.538v5.462h1.667v-5.462c0-.839.365-1.631 1.003-2.173.516-.438 1.165-.673 1.835-.673zm4.495 10.3081h-1.667c-1.102 0-2-.898-2-2v-5.371c0-.457-.303-.863-.688-.925-.336-.058-.57.092-.679.184-.19.162-.299.399-.299.65v5.462c0 1.102-.897 2-2 2h-1.667c-1.10202 0-2.00002-.898-2.00002-2v-5.462c0-3.606 2.91602-6.53797 6.50002-6.53797s6.5 2.93197 6.5 6.53797v5.462c0 1.102-.897 2-2 2zm-14.99988-19.00043c-.552 0-1 .448-1 1s.448 1 1 1 1-.448 1-1-.448-1-1-1zm-.00002 3.99993c-1.654 0-3-1.346-3-3s1.346-3 3-3 3 1.346 3 3-1.346 3-3 3z" fill="#6b7280" fill-rule="evenodd"/></svg>