<svg fill="none" height="64" viewBox="0 0 64 64" width="64" xmlns="http://www.w3.org/2000/svg"><path clip-rule="evenodd" d="m10.6667 26.6665h-.0053l.0053 26.6667h5.3333v-26.6667zm5.3333 31.9998h-5.3333c-2.94133 0-5.33333-2.392-5.33333-5.3333v-26.6667c0-2.9413 2.392-5.3333 5.33333-5.3333h5.3333c2.9414 0 5.3334 2.392 5.3334 5.3333v26.6667c0 2.9413-2.392 5.3333-5.3334 5.3333zm25.3464-27.4867c.408 0 .8214.0346 1.2294.0986 3.6.5894 6.312 3.912 6.312 7.7334v14.3226h4.4453v-14.5653c0-6.672-5.3813-12.1013-12-12.1013-6.616 0-12 5.4293-12 12.1013v14.5653h4.4453v-14.5653c0-2.2373.9734-4.3493 2.6747-5.7947 1.376-1.168 3.1067-1.7946 4.8933-1.7946zm11.9867 27.4883h-4.4454c-2.9386 0-5.3333-2.3946-5.3333-5.3333v-14.3227c0-1.2186-.808-2.3013-1.8347-2.4666-.896-.1547-1.52.2453-1.8106.4906-.5067.432-.7974 1.064-.7974 1.7334v14.5653c0 2.9387-2.392 5.3333-5.3333 5.3333h-4.4453c-2.9387 0-5.3334-2.3946-5.3334-5.3333v-14.5653c0-9.616 7.776-17.4347 17.3334-17.4347 9.5573 0 17.3333 7.8187 17.3333 17.4347v14.5653c0 2.9387-2.392 5.3333-5.3333 5.3333zm-39.9997-50.66789c-1.472 0-2.6666 1.19467-2.6666 2.66669 0 1.472 1.1946 2.6666 2.6666 2.6666s2.6667-1.1946 2.6667-2.6666c0-1.47202-1.1947-2.66669-2.6667-2.66669zm0 10.66649c-4.41069 0-8.00003-3.5893-8.00003-8 0-4.41066 3.58934-8 8.00003-8 4.4106 0 8 3.58934 8 8 0 4.4107-3.5894 8-8 8z" fill="#6b7280" fill-rule="evenodd"/></svg>