<svg fill="none" height="24" viewBox="0 0 24 24" width="24" xmlns="http://www.w3.org/2000/svg"><path clip-rule="evenodd" d="m9.00003 16h-1.79c-2.106 0-4.006-1.535-4.193-3.634-.213-2.37 1.656-4.366 3.983-4.366h2c.552 0 .99997-.447.99997-1s-.44797-1-.99997-1h-1.791c-3.049 0-5.77 2.187-6.158 5.211-.469001 3.658 2.381 6.789 5.949 6.789h2c.552 0 .99997-.447.99997-1s-.44797-1-.99997-1zm-1.00003-3.9999c0 .553.448 1 1 1h6c.552 0 1-.447 1-1s-.448-1-1-1h-6c-.552 0-1 .447-1 1zm8.7592-5.9999c3.067 0 5.819 2.197 6.194 5.242.449 3.646-2.395 6.758-5.953 6.758h-2c-.552 0-1-.447-1-1s.448-1 1-1h2c2.327 0 4.196-1.996 3.983-4.366-.187-2.099-2.087-3.634-4.194-3.634h-1.789c-.552 0-1-.447-1-1s.443-1 1.249-1z" fill="#6b7280" fill-rule="evenodd"/></svg>