<svg fill="none" height="64" viewBox="0 0 64 64" width="64" xmlns="http://www.w3.org/2000/svg"><path d="m22.811 23.9937c1.7576-.6642 3.6359-.9376 5.5079-.8018 1.8716.1358 3.6925.6773 5.3378 1.5879 1.6457.9107 3.0778 2.1689 4.1993 3.6875.7678 1.04.5521 2.5097-.4815 3.2822-1.0339.7725-2.4946.5555-3.2627-.4844-.7235-.9797-1.6459-1.7886-2.7031-2.374-1.0572-.585-2.2249-.9333-3.4248-1.0205-1.2-.0869-2.4053.0885-3.5332.5147s-2.1528 1.0945-3.0059 1.9589l-6.4287 6.5118c-1.525 1.6067-2.3717 3.758-2.3525 5.9941.0193 2.2423.9074 4.3842 2.4678 5.9649 1.5599 1.5802 3.6671 2.4739 5.8662 2.4931 2.1926.0194 4.3083-.8322 5.8935-2.376l3.6572-3.705c.9074-.9193 2.3841-.9243 3.2979-.0118.914.9131.9192 2.3981.0117 3.3174l-3.6728 3.7207-.0284.0283c-2.4639 2.4109-5.7678 3.7481-9.2002 3.7178-3.4322-.0303-6.7126-1.4251-9.1347-3.8789-2.42148-2.453-3.79163-5.7682-3.82131-9.2305-.02964-3.4619 1.28319-6.8007 3.66211-9.2959l.0283-.0292 6.4434-6.5264c1.3242-1.3418 2.9193-2.3808 4.6767-3.0449zm20.2315-15.9932c3.4322.03021 6.7125 1.42437 9.1347 3.8779 2.4217 2.4531 3.7924 5.7684 3.8223 9.2305.0298 3.4621-1.2841 6.8006-3.6631 9.2959l-.0283.0293-6.4424 6.5273c-1.3242 1.3417-2.9193 2.381-4.6767 3.045-1.7576.6641-3.6368.9374-5.5088.8017-1.872-.1359-3.6926-.6781-5.3379-1.5889-1.6455-.9106-3.0769-2.1681-4.1983-3.6865-.7679-1.0401-.5524-2.5096.4815-3.2822 1.034-.7725 2.4947-.5557 3.2627.4844.7234.9795 1.645 1.7887 2.7021 2.374 1.0573.5851 2.2258.9324 3.4258 1.0195 1.1999.0869 2.4043-.0885 3.5322-.5146 1.1281-.4262 2.154-1.0935 3.0069-1.958l6.4287-6.5117c1.5251-1.6066 2.3707-3.7583 2.3516-5.9942-.0192-2.2424-.9074-4.3841-2.4678-5.9648-1.56-1.5803-3.667-2.4738-5.8662-2.4932-2.1935-.0192-4.3101.8327-5.8955 2.3779l-3.6817 3.708c-.9102.9164-2.3869.9174-3.2978.002-.9113-.9156-.9122-2.4017-.002-3.3184l3.6944-3.7197.0244-.0244c2.4638-2.41058 5.7672-3.74691 9.1992-3.7168z" fill="#000"/></svg>