<svg viewBox="0 0 64 64" fill="none" xmlns="http://www.w3.org/2000/svg">
<path fill-rule="evenodd" clip-rule="evenodd" d="M55.999 3.67969C57.2802 3.67984 58.3184 4.71881 58.3184 6C58.3182 7.28108 57.2801 8.31919 55.999 8.31934H47.999C47.0861 8.32043 46.1824 8.41258 45.3008 8.59082C42.6795 9.1208 40.2494 10.412 38.3301 12.3311C35.7656 14.8957 34.3225 18.373 34.3184 22V28C34.3177 28.3596 34.2342 28.7138 34.0742 29.0342C34.0473 29.0879 34.0183 29.1407 33.9873 29.1924L29.4785 36.7139L32.7334 37.7979C33.1952 37.9521 33.5974 38.2487 33.8818 38.6436C34.1662 39.0387 34.3184 39.5131 34.3184 40V43.999C34.3196 45.5049 34.9194 46.9497 35.9844 48.0146C37.0493 49.0794 38.4929 49.6781 39.999 49.6797H49.999C50.6139 49.6798 51.2035 49.9246 51.6387 50.3594C52.0739 50.7946 52.3184 51.3846 52.3184 52V58C52.3182 59.281 51.2801 60.3192 49.999 60.3193C48.7178 60.3193 47.6789 59.2811 47.6787 58V54.3193H39.999C37.263 54.3161 34.6398 53.2277 32.7051 51.293C30.7706 49.3586 29.682 46.736 29.6787 44V41.6709L25.2656 40.2012C24.9362 40.0914 24.6352 39.9086 24.3857 39.667C24.1363 39.4254 23.9437 39.1304 23.8232 38.8047C23.7029 38.4791 23.6572 38.1308 23.6895 37.7852C23.7217 37.4392 23.8311 37.1046 24.0098 36.8066L29.6787 27.3574V22C29.6841 17.1432 31.6157 12.4861 35.0498 9.05176C38.4844 5.61733 43.1417 3.6851 47.999 3.67969H55.999ZM11.041 23.4336C12.0149 22.554 13.4913 22.7895 14.2549 23.8076C15.0283 24.8388 14.7948 26.2664 13.8877 27.1191C12.3737 28.5424 11.1186 30.2252 10.1846 32.0928C8.95683 34.5481 8.31738 37.256 8.31738 40.001C8.31743 42.7458 8.95688 45.4533 10.1846 47.9082C11.1186 49.776 12.3735 51.4595 13.8877 52.8828C14.7946 53.7353 15.0275 55.1623 14.2539 56.1934C13.4903 57.2104 12.0153 57.4454 11.042 56.5664C8.9824 54.706 7.28328 52.4735 6.03711 49.9805C4.48809 46.8814 3.68169 43.4645 3.68164 40C3.68164 36.5354 4.48799 33.1178 6.03711 30.0186C7.28312 27.5259 8.98184 25.2937 11.041 23.4336ZM47.6787 54.3193H47.9971V54H47.6787V54.3193ZM17.0293 30.7949C17.8845 29.7758 19.392 29.8991 20.2363 30.8428C21.098 31.8063 20.9668 33.235 20.2393 34.21C19.8145 34.7794 19.4527 35.3959 19.1611 36.0479C18.6053 37.2906 18.3184 38.6373 18.3184 39.999C18.3184 41.3608 18.6053 42.7071 19.1611 43.9502C19.4527 44.6021 19.8146 45.218 20.2393 45.7871C20.9669 46.7625 21.0981 48.1914 20.2363 49.1553C19.3919 50.0999 17.8839 50.223 17.0283 49.2031C16.1776 48.1891 15.4698 47.059 14.9268 45.8447C14.1045 44.0058 13.6788 42.0142 13.6787 40C13.6787 37.9856 14.1044 35.9933 14.9268 34.1543C15.47 32.9394 16.1782 31.8093 17.0293 30.7949ZM29.6787 41.6709L29.8975 41.7432L29.9971 41.4434L29.9961 41.4395H29.6787V41.6709Z" fill="#141414"/>
</svg>