<svg width="24" height="24" viewBox="0 0 24 24" fill="none" xmlns="http://www.w3.org/2000/svg">
<g id="Icon/Outline/Width-02 ">
<path id="Mask" fill-rule="evenodd" clip-rule="evenodd" d="M10 4H3C2.45 4 2 4.45 2 5C2 5.55 2.45 6 3 6H10C10.55 6 11 5.55 11 5C11 4.45 10.55 4 10 4ZM10 11H3C2.45 11 2 11.45 2 12C2 12.55 2.45 13 3 13H10C10.55 13 11 12.55 11 12C11 11.45 10.55 11 10 11ZM3 18H10C10.55 18 11 18.45 11 19C11 19.55 10.55 20 10 20H3C2.45 20 2 19.55 2 19C2 18.45 2.45 18 3 18Z" fill="#6B7280"/>
<path id="Mask_2" fill-rule="evenodd" clip-rule="evenodd" d="M20.3053 6.38309L19.0003 7.64309V5C19.0003 5 19.0003 4 18 4C17 4 17 5 17 5L17.0001 7.58495L15.7073 6.29209C15.3163 5.90209 14.6833 5.90209 14.2933 6.29209C13.9023 6.68309 13.9023 7.31609 14.2933 7.70609L17.2933 10.7061C17.4883 10.9021 17.7443 10.9991 18.0003 10.9991C18.2503 10.9991 18.5003 10.9051 18.6953 10.7191L21.6953 7.82209C22.0923 7.43909 22.1033 6.80609 21.7193 6.40809C21.3363 6.01109 20.7033 6.00009 20.3053 6.38309ZM15.695 17.6159L17 16.3559V18.999C17 18.999 17 19.999 18.0003 19.999C19.0003 19.999 19.0003 18.999 19.0003 18.999L19.0002 16.4141L20.293 17.7069C20.684 18.0969 21.317 18.0969 21.707 17.7069C22.098 17.3159 22.098 16.6829 21.707 16.2929L18.707 13.2929C18.512 13.0969 18.256 12.9999 18 12.9999C17.75 12.9999 17.5 13.0939 17.305 13.2799L14.305 16.1769C13.908 16.5599 13.897 17.1929 14.281 17.5909C14.664 17.9879 15.297 17.9989 15.695 17.6159Z" fill="#6B7280"/>
</g>
</svg>
