<svg fill="none" height="24" viewBox="0 0 24 24" width="24" xmlns="http://www.w3.org/2000/svg"><path clip-rule="evenodd" d="m12 16c-.552 0-1-.448-1-1s.448-1 1-1 1 .448 1 1-.448 1-1 1zm0-4.0001c-1.654 0-3.00003 1.346-3.00003 3s1.34603 3 3.00003 3 3-1.346 3-3-1.346-3-3-3zm6 7.0002c0 .552-.448 1-1 1h-10.00003c-.552 0-1-.448-1-1v-8c0-.552.448-1 1-1h1 2 4.00003 2 1c.552 0 1 .448 1 1zm-8-12.88904c0-1.164.897-2.11099 2-2.11099s2 .94699 2 2.11099v1.889h-4zm7 1.88894h-1v-1.889c0-2.266-1.794-4.111-4-4.111s-4 1.845-4 4.111v1.889h-1c-1.654 0-3 1.346-3 3v8c0 1.654 1.346 3 3 3h10c1.654 0 3-1.346 3-3v-8c0-1.654-1.346-3-3-3z" fill="#6b7280" fill-rule="evenodd"/></svg>