<svg fill="none" height="64" viewBox="0 0 64 64" width="64" xmlns="http://www.w3.org/2000/svg"><path clip-rule="evenodd" d="m32.0002 42.6668c-1.472 0-2.6667-1.1946-2.6667-2.6666s1.1947-2.6667 2.6667-2.6667 2.6666 1.1947 2.6666 2.6667-1.1946 2.6666-2.6666 2.6666zm-.0002-10.6668c-4.4107 0-8 3.5893-8 8s3.5893 8 8 8 8-3.5893 8-8-3.5893-8-8-8zm16 18.667c0 1.472-1.1947 2.6667-2.6667 2.6667h-26.6666c-1.472 0-2.6667-1.1947-2.6667-2.6667v-21.3333c0-1.472 1.1947-2.6667 2.6667-2.6667h2.6666 5.3334 10.6666 5.3334 2.6666c1.472 0 2.6667 1.1947 2.6667 2.6667zm-21.3333-34.3707c0-3.104 2.392-5.6293 5.3334-5.6293 2.9413 0 5.3333 2.5253 5.3333 5.6293v5.0374h-10.6667zm18.6667 5.0372h-2.6667v-5.0373c0-6.0427-4.784-10.9627-10.6666-10.9627-5.8827 0-10.6667 4.92-10.6667 10.9627v5.0373h-2.6667c-4.4106 0-8 3.5893-8 8v21.3333c0 4.4107 3.5894 8 8 8h26.6667c4.4107 0 8-3.5893 8-8v-21.3333c0-4.4107-3.5893-8-8-8z" fill="#6b7280" fill-rule="evenodd"/></svg>