<svg fill="none" height="24" viewBox="0 0 24 24" width="24" xmlns="http://www.w3.org/2000/svg"><path clip-rule="evenodd" d="m8 5c0 .55-.45 1-1 1h-1v12h1c.55 0 1 .45 1 1s-.45 1-1 1h-2c-.55 0-1-.45-1-1v-14c0-.55.45-1 1-1h2c.55 0 1 .45 1 1zm10.0039 2.42477 2.814 4.00003c.25.354.242.829-.018 1.175l-3 4c-.196.262-.497.4-.801.4-.208 0-.419-.065-.599-.2-.442-.331-.531-.958-.2-1.399l1.801-2.401h-.001-8.00003c-.552 0-1-.447-1-1s.448-1 1-1h8.00003c.0165 0 .0318.0045.0473.0091.0125.0038.0252.0075.0387.0089l-1.718-2.44303c-.318-.451-.209-1.075.243-1.393.451-.319 1.075-.209 1.393.243z" fill="#6b7280" fill-rule="evenodd"/></svg>