<svg fill="none" height="24" viewBox="0 0 24 24" width="24" xmlns="http://www.w3.org/2000/svg"><path clip-rule="evenodd" d="m17 4h2c.55 0 1 .45 1 1v14c0 .55-.45 1-1 1h-2c-.55 0-1-.45-1-1s.45-1 1-1h1v-12h-1c-.55 0-1-.45-1-1s.45-1 1-1zm-6.6002 3.20043c.444-.331 1.069-.241 1.4.2l3 3.99997c.26.346.268.82.018 1.175l-2.814 4c-.195.277-.504.425-.819.425-.198 0-.399-.059-.574-.182-.452-.318-.561-.942-.243-1.394l1.718-2.442c-.0135.0014-.0261.0051-.0387.0089-.0154.0046-.0308.0091-.0473.0091h-7.99998c-.552 0-1-.448-1-1 0-.553.448-1 1-1h7.99998.001l-1.801-2.40097c-.33098-.441-.24198-1.068.2-1.399z" fill="#6b7280" fill-rule="evenodd"/></svg>