<svg fill="none" height="64" viewBox="0 0 64 64" width="64" xmlns="http://www.w3.org/2000/svg"><path d="m21.8787 38.8789c1.1716-1.1715 3.0706-1.1715 4.2422 0 1.1714 1.1716 1.1714 3.0706 0 4.2422l-13 13c-1.1716 1.1715-3.0706 1.1715-4.24222 0-1.17157-1.1716-1.17157-3.0706 0-4.2422zm16.6211-3.3789c1.1044.0001 1.9999.8955 2 2v5.5c0 1.1045-.8956 1.9999-2 2-1.1046 0-2-.8955-2-2v-5.5c0-1.1045.8955-2 2-2zm-11.041-20.0361c.7797-.7821 2.0458-.7845 2.8281-.0049l.0351.0342.002.0029.415.3955c2.1208 1.9206 4.8857 2.9912 7.7608 2.9912 3.0663 0 6.0074-1.2183 8.1758-3.3867l.0322-.0322.1513-.1377c.7845-.6421 1.9433-.5982 2.6768.1328.7821.7797.7844 2.0458.0049 2.8281l-.0342.0352-.0019.0019c-4.4444 4.4451-4.5143 11.6078-.209 16.1377l.209.2139.0039.0049.0341.0341c.7783.7835.7745 2.0497-.0087 2.8282-.7346.7297-1.8933.7719-2.6768.1289l-.1514-.1377-.0351-.0342v-.001c-4.5166-4.5087-11.8323-4.5063-16.3467.0059l-.0342.0342-.1523.1367c-.7855.6407-1.9445.5954-2.6768-.1367-.781-.7811-.781-2.0481 0-2.8291l.0352-.0342c4.5137-4.5147 4.5144-11.8339.0019-16.3496l-.0342-.0342-.1377-.1514c-.6421-.7845-.5981-1.9432.1329-2.6767zm15.2324 6.8427c-1.3527.3784-2.762.5762-4.1914.5762-1.4295 0-2.8387-.1978-4.1914-.5762.7634 2.739.7631 5.6458 0 8.3848 2.7383-.7628 5.6445-.7628 8.3828 0-.7632-2.739-.7635-5.6458 0-8.3848zm-15.1914 2.1934c1.1044.0001 2 .8955 2 2s-.8956 1.9999-2 2h-5.5c-1.1046 0-2-.8954-2-2s.8954-2 2-2zm27.5 0c1.1044.0001 2 .8955 2 2s-.8956 1.9999-2 2h-5.5c-1.1046 0-2-.8954-2-2s.8954-2 2-2zm-16.5-16.5c1.1044.00012 2 .89551 2 2v5.5c0 1.1045-.8956 1.9999-2 2-1.1046 0-2-.8955-2-2v-5.5c0-1.10455.8954-1.99996 2-2z" fill="#000"/></svg>