<svg viewBox="0 0 64 64" fill="none" xmlns="http://www.w3.org/2000/svg">
<path fill-rule="evenodd" clip-rule="evenodd" d="M31.0201 19.5361C31.6745 19.2343 32.4496 19.3709 32.9596 19.8809L36.608 23.5303L41.524 21.1973C42.1765 20.8992 42.9475 21.0379 43.4557 21.5459C43.9638 22.054 44.1024 22.825 43.8043 23.4775L41.4713 28.3936L45.1207 32.043C45.6304 32.5548 45.7671 33.3311 45.4635 33.9854C45.1596 34.6395 44.4773 35.0335 43.7574 34.9717L38.5377 34.4385L36.1041 39.2539C35.776 39.9082 35.0708 40.281 34.3453 40.1875C33.6198 40.0919 33.0344 39.5502 32.8824 38.8379L32.1734 35.4775L13.2008 54.4502C12.8351 54.8158 12.3546 55 11.8746 55C11.3947 54.9999 10.915 54.8158 10.5494 54.4502C9.81646 53.7171 9.81646 52.5329 10.5494 51.7998L29.4791 32.8633L26.2135 32.2168C25.8722 32.1493 25.5679 31.9823 25.3316 31.7461C25.0749 31.4893 24.9007 31.152 24.8463 30.7754C24.7432 30.0517 25.1067 29.3424 25.7535 29.0049L30.567 26.4814L30.0289 21.2373C29.9708 20.5174 30.3659 19.8381 31.0201 19.5361ZM34.2808 24.9961C34.0602 24.7512 33.7252 24.6852 33.442 24.8301C33.1588 24.975 32.9872 25.3008 33.0123 25.6465L33.2457 28.165L31.1627 29.377C30.8829 29.5389 30.7247 29.8792 30.7691 30.2266C30.7927 30.4075 30.8689 30.57 30.9801 30.6934C31.0823 30.8067 31.2133 30.8875 31.3609 30.9199L33.5826 31.5527L34.2476 34.0986C34.3134 34.4408 34.5664 34.7011 34.8805 34.7471C35.1945 34.7921 35.5002 34.6131 35.6422 34.2988L36.6949 31.9863L38.9547 32.2422C39.2662 32.2717 39.5615 32.0827 39.693 31.7686C39.8244 31.4544 39.765 31.0817 39.5445 30.8359L37.9654 29.084L38.9742 26.7227C39.1032 26.4093 39.0437 26.0389 38.8238 25.7949C38.6039 25.551 38.2702 25.4848 37.9879 25.6279L35.8599 26.748L34.2808 24.9961Z M53.1246 32.5C54.1615 32.5 54.9996 33.3381 54.9996 34.375V38.125C54.9996 42.2612 51.6358 45.625 47.4996 45.625H43.7496C42.7128 45.6249 41.8746 44.7868 41.8746 43.75C41.8746 42.7132 42.7128 41.8751 43.7496 41.875H47.4996C49.5677 41.875 51.2496 40.1931 51.2496 38.125V34.375C51.2496 33.3382 52.0878 32.5001 53.1246 32.5Z M30.6246 10C31.6615 10 32.4996 10.8381 32.4996 11.875C32.4996 12.9119 31.6615 13.75 30.6246 13.75H26.8746C24.8066 13.7501 23.1246 15.432 23.1246 17.5V21.25C23.1246 22.2869 22.2865 23.125 21.2496 23.125C20.2128 23.1249 19.3746 22.2868 19.3746 21.25V17.5C19.3746 13.3638 22.7385 10.0001 26.8746 10H30.6246Z M47.4996 10C51.6358 10 54.9996 13.3637 54.9996 17.5V21.25C54.9996 22.2869 54.1615 23.125 53.1246 23.125C52.0878 23.1249 51.2496 22.2868 51.2496 21.25V17.5C51.2496 15.4319 49.5677 13.75 47.4996 13.75H43.7496C42.7128 13.7499 41.8746 12.9118 41.8746 11.875C41.8746 10.8382 42.7128 10.0001 43.7496 10H47.4996Z" fill="#141414"/>
</svg>