<svg viewBox="0 0 64 64" fill="none" xmlns="http://www.w3.org/2000/svg">
<path fill-rule="evenodd" clip-rule="evenodd" d="M32 8C45.2246 8.00019 55.9993 18.7755 56 32C56 40.2389 52.1546 44.1284 47.2959 44.1287C44.4655 44.1287 42.0148 42.6493 40.6204 40.4529C38.4233 42.6923 35.3801 44.0852 32 44.0853C25.3241 44.0853 19.9147 38.6759 19.9147 32C19.9153 25.3246 25.3245 19.9178 32 19.9178C38.6754 19.918 44.0847 25.3247 44.0853 32V35.9302C44.0853 37.9161 45.479 39.3114 47.2959 39.3114C49.4504 39.311 51.2261 37.4923 51.2261 32C51.2254 21.3952 42.6049 12.7772 32 12.777C21.395 12.777 12.7746 21.3951 12.7739 32C12.7739 42.6054 21.3946 51.2261 32 51.2261C38.1265 51.2259 42.3513 48.183 42.3513 48.183L45.5215 51.8185C45.5215 51.8185 40.1124 55.9999 32 56C18.7749 56 8 45.2252 8 32C8.00065 18.7754 18.7753 8 32 8ZM32 24.6917C27.9442 24.6917 24.6925 27.9444 24.6917 32C24.6917 36.014 27.9437 39.3114 32 39.3114C36.014 39.3113 39.3083 36.014 39.3083 32C39.3075 27.9444 36.0135 24.6918 32 24.6917Z" fill="#141414"/>
</svg>