<svg viewBox="0 0 64 64" fill="none" xmlns="http://www.w3.org/2000/svg">
<path fill-rule="evenodd" clip-rule="evenodd" d="M50.6667 47.9997H13.3334C11.8641 47.9997 10.6668 46.805 10.6668 45.333V19.333L30.4001 34.133C30.8748 34.4903 31.4374 34.6663 32.0001 34.6663C32.5627 34.6663 33.1254 34.4903 33.6001 34.133L53.3334 19.333V45.333C53.3334 46.805 52.1361 47.9997 50.6667 47.9997ZM48.8881 16L32.0001 28.6667L15.1121 16H48.8881ZM50.6667 10.6665H13.3334C8.92271 10.6665 5.33337 14.2558 5.33337 18.6665V45.3332C5.33337 49.7438 8.92271 53.3332 13.3334 53.3332H50.6667C55.0774 53.3332 58.6667 49.7438 58.6667 45.3332V18.6665C58.6667 14.2558 55.0774 10.6665 50.6667 10.6665Z" fill="#141414"/>
</svg>