<svg viewBox="0 0 64 64" fill="none" xmlns="http://www.w3.org/2000/svg">
<path fill-rule="evenodd" clip-rule="evenodd" d="M42.6667 24C42.6667 18.109 37.891 13.3333 32 13.3333C26.109 13.3333 21.3333 18.109 21.3333 24C21.3333 29.891 26.109 34.6667 32 34.6667C37.891 34.6667 42.6667 29.891 42.6667 24ZM48 24C48 28.9974 45.7063 33.4565 42.1172 36.3906C44.5457 37.2641 46.765 38.4455 48.6849 39.8854C53.0506 43.1597 56 47.8875 56 53.3333C56 54.8061 54.8061 56 53.3333 56C51.8606 56 50.6667 54.8061 50.6667 53.3333C50.6667 49.9426 48.8398 46.6702 45.4844 44.1536C42.1281 41.6365 37.3698 40 32 40C26.6302 40 21.8719 41.6365 18.5156 44.1536C15.1602 46.6702 13.3333 49.9426 13.3333 53.3333C13.3333 54.8061 12.1394 56 10.6667 56C9.19391 56 8 54.8061 8 53.3333C8 47.8875 10.9494 43.1597 15.3151 39.8854C17.2344 38.446 19.4526 37.2641 21.8802 36.3906C18.292 33.4565 16 28.9967 16 24C16 15.1634 23.1634 8 32 8C40.8366 8 48 15.1634 48 24Z" fill="#141414"/>
</svg>