<svg fill="none" height="64" viewBox="0 0 64 64" width="64" xmlns="http://www.w3.org/2000/svg"><path clip-rule="evenodd" d="m50.6667 46.5444-5.3333-2.3947v-26.6933l5.3333 2.3947zm-16.0001-26.6933 5.3334-2.3947v26.6933l-5.3334 2.3947zm-10.6666-2.3947 5.3333 2.3947v26.6933l-5.3333-2.3947zm-10.6666 2.3947 5.3333-2.3947v26.6933l-5.3333 2.3947zm41.0933-4.1549-10.6667-4.7947c-.04-.0186-.0827-.0213-.1227-.0373-.1093-.0427-.2186-.072-.3306-.1013-.104-.0267-.208-.0507-.3147-.0614-.104-.0133-.208-.016-.3147-.016-.1173 0-.232.0027-.3493.016-.0987.0107-.192.0347-.288.0587-.1173.0293-.232.0613-.3467.104-.0373.016-.0826.0187-.12.0373l-9.5733 4.3014-9.5733-4.3014c-.04-.0186-.0827-.0213-.1227-.0373-.1093-.0427-.2187-.072-.3307-.1013-.104-.0267-.208-.0507-.3146-.0614-.104-.0133-.208-.016-.3147-.016-.1173 0-.232.0027-.3493.016-.0987.0107-.192.0347-.288.0587-.1174.0293-.232.0613-.3467.104-.0373.016-.0827.0187-.12.0373l-10.66667 4.7947c-.95733.4293-1.57333 1.3813-1.57333 2.432v32.5387c0 .904.45867 1.7466 1.21867 2.24.43733.2826.94133.4266 1.44803.4266.3706 0 .744-.0773 1.0933-.2346l9.5733-4.3014 9.5734 4.3014c.04.0186.0826.0106.1253.0266.312.1254.6347.208.968.208s.656-.0826.968-.208c.04-.016.088-.008.1253-.0266l9.5734-4.3014 9.5733 4.3014c.3493.1573.7227.2346 1.0933.2346.5067 0 1.0107-.144 1.448-.4266.76-.4934 1.2187-1.336 1.2187-2.24v-32.5387c0-1.0507-.616-2.0027-1.5733-2.432z" fill="#6b7280" fill-rule="evenodd"/></svg>