<svg viewBox="0 0 64 64" fill="none" xmlns="http://www.w3.org/2000/svg">
<path fill-rule="evenodd" clip-rule="evenodd" d="M52.4042 5C55.6768 5 58.33 7.65318 58.33 10.9258V52.4042C58.33 55.4726 55.9972 57.9948 53.0087 58.2978L10.9258 58.33L10.3213 58.2978C7.53168 58.015 5.31505 55.7983 5.03223 53.0087L5 52.4042V10.9258C5 7.65318 7.65318 5 10.9258 5H52.4042ZM10.9258 9.99999C10.4146 9.99999 9.99999 10.4146 9.99999 10.9258V52.2695L10.0146 52.5517C10.0756 52.9426 10.3908 53.255 10.7822 53.3144L11.0576 53.329L52.6396 53.2978C53.036 53.195 53.33 52.8315 53.33 52.4042V10.9258C53.33 10.4146 52.9154 9.99999 52.4042 9.99999H10.9258Z M17.3488 36.5082C18.6763 35.7412 20.3524 36.1194 21.2317 37.3357L21.3995 37.5904L21.7987 38.2356C22.224 38.8722 22.7208 39.4787 23.2859 40.0439C24.0391 40.797 24.8655 41.4249 25.7395 41.9304C27.1558 42.7492 27.6399 44.5646 26.8216 45.981C26.0024 47.3964 24.1898 47.8813 22.7738 47.0631L21.7987 46.4555C20.8428 45.8166 19.9373 45.0743 19.0964 44.2335C18.2556 43.3926 17.5132 42.487 16.8743 41.5311L16.2667 40.556L16.1278 40.2869C15.5123 38.9183 16.0221 37.2762 17.3488 36.5082Z M42.0984 37.3357C42.9774 36.1192 44.6536 35.7416 45.9813 36.5082C47.3082 37.2763 47.8181 38.9181 47.2023 40.2869L47.0634 40.556L46.4558 41.5311C45.8167 42.4872 45.0747 43.3924 44.2337 44.2335C43.1115 45.3556 41.8741 46.3012 40.5563 47.0631L40.2872 47.202C38.9184 47.8179 37.2765 47.3079 36.5085 45.981C35.6906 44.5647 36.1746 42.7492 37.5906 41.9304C38.4648 41.4248 39.2908 40.7972 40.0441 40.0439C40.6095 39.4786 41.1059 38.8724 41.5313 38.2356L41.9306 37.5904L42.0984 37.3357Z M23.0429 16.1276C24.4116 15.5116 26.0534 16.0219 26.8216 17.3486C27.6401 18.7651 27.1558 20.5804 25.7395 21.3992L25.0943 21.7985C24.4575 22.2239 23.8512 22.7204 23.2859 23.2857C22.7207 23.851 22.2241 24.4573 21.7987 25.094L21.3995 25.7392L21.2317 25.9939C20.3526 27.2107 18.6766 27.5886 17.3488 26.8214C16.0221 26.0531 15.5118 24.4113 16.1278 23.0427L16.2667 22.7736L16.8743 21.7985C17.5134 20.8423 18.2553 19.9343 19.0964 19.0932C20.2181 17.9717 21.4566 17.0281 22.7738 16.2665L23.0429 16.1276Z M36.5085 17.3486C37.3276 15.9333 39.1403 15.4486 40.5563 16.2665L41.5313 16.8741C42.4867 17.5126 43.3932 18.253 44.2337 19.0932C45.0746 19.9342 45.8168 20.8425 46.4558 21.7985L47.0634 22.7736L47.2023 23.0427C47.8184 24.4116 47.3084 26.0533 45.9813 26.8214C44.6535 27.5884 42.9775 27.2107 42.0984 25.9939L41.9306 25.7392L41.5313 25.094C41.106 24.4575 40.6092 23.8508 40.0441 23.2857C39.291 22.5326 38.4646 21.9047 37.5906 21.3992L37.336 21.2314C36.1196 20.3522 35.7414 18.6761 36.5085 17.3486Z" fill="#141414"/>
</svg>