<svg fill="none" height="24" viewBox="0 0 24 24" width="24" xmlns="http://www.w3.org/2000/svg"><path clip-rule="evenodd" d="m13 10.0001h-1v-1.00003c0-.55-.45-1-1-1s-1 .45-1 1v1.00003h-.99998c-.55 0-1 .45-1 1s.45 1 1 1h.99998v1c0 .55.45 1 1 1s1-.45 1-1v-1h1c.55 0 1-.45 1-1s-.45-1-1-1zm-7.99998 1c0-3.30904 2.691-6.00003 5.99998-6.00003 3.309 0 6 2.69099 6 6.00003 0 3.309-2.691 6-6 6-3.30898 0-5.99998-2.691-5.99998-6zm15.70698 8.2929-3.395-3.396c1.053-1.354 1.688-3.051 1.688-4.897 0-4.411-3.589-8-8-8s-8 3.589-8 8 3.589 8 8 8c1.846 0 3.543-.635 4.897-1.688l3.396 3.395c.195.195.451.293.707.293s.512-.098.707-.293c.391-.391.391-1.023 0-1.414z" fill="#6b7280" fill-rule="evenodd"/></svg>