<svg fill="none" height="64" viewBox="0 0 64 64" width="64" xmlns="http://www.w3.org/2000/svg"><path clip-rule="evenodd" d="m10.5288 16h42.9414c1.392 0 2.5306 1.1387 2.5306 2.5307v.272c0 1.392-1.1386 2.5306-2.5306 2.5306h-42.9414c-1.39198 0-2.52798-1.1386-2.52798-2.5306v-.272c0-1.392 1.136-2.5307 2.52798-2.5307zm42.9414 13.3335h-42.9414c-1.39198 0-2.52798 1.1387-2.52798 2.5307v.272c0 1.392 1.136 2.5306 2.52798 2.5306h42.9414c1.392 0 2.5306-1.1386 2.5306-2.5306v-.272c0-1.392-1.1386-2.5307-2.5306-2.5307zm0 13.333h-42.9414c-1.39198 0-2.52798 1.1387-2.52798 2.5307v.272c0 1.392 1.136 2.5306 2.52798 2.5306h42.9414c1.392 0 2.5306-1.1386 2.5306-2.5306v-.272c0-1.392-1.1386-2.5307-2.5306-2.5307z" fill="#6b7280" fill-rule="evenodd"/></svg>