<svg width="24" height="24" viewBox="0 0 24 24" fill="none" xmlns="http://www.w3.org/2000/svg">
<g id="Icon/Outline/menu-arrow">
<path id="Mask" fill-rule="evenodd" clip-rule="evenodd" d="M3.9478 5H20.0518C20.5728 5 20.9998 5.427 20.9998 5.948V6.052C20.9998 6.573 20.5728 7 20.0518 7H3.9478C3.4268 7 2.9998 6.573 2.9998 6.052V5.948C2.9998 5.427 3.4268 5 3.9478 5ZM20.0518 11H5.9138L7.2068 9.707C7.5978 9.316 7.5978 8.684 7.2068 8.293C6.8168 7.902 6.1838 7.902 5.7928 8.293L2.7928 11.293C2.4028 11.684 2.4028 12.316 2.7928 12.707L5.7928 15.707C5.9888 15.902 6.2438 16 6.4998 16C6.7558 16 7.0118 15.902 7.2068 15.707C7.5978 15.316 7.5978 14.684 7.2068 14.293L5.9138 13H20.0518C20.5728 13 20.9998 12.573 20.9998 12.052V11.948C20.9998 11.427 20.5728 11 20.0518 11ZM20.0518 17H3.9478C3.4268 17 2.9998 17.427 2.9998 17.948V18.052C2.9998 18.573 3.4268 19 3.9478 19H20.0518C20.5728 19 20.9998 18.573 20.9998 18.052V17.948C20.9998 17.427 20.5728 17 20.0518 17Z" fill="#231F20"/>
<mask id="mask0" mask-type="alpha" maskUnits="userSpaceOnUse" x="2" y="5" width="19" height="14">
<path id="Mask_2" fill-rule="evenodd" clip-rule="evenodd" d="M3.9478 5H20.0518C20.5728 5 20.9998 5.427 20.9998 5.948V6.052C20.9998 6.573 20.5728 7 20.0518 7H3.9478C3.4268 7 2.9998 6.573 2.9998 6.052V5.948C2.9998 5.427 3.4268 5 3.9478 5ZM20.0518 11H5.9138L7.2068 9.707C7.5978 9.316 7.5978 8.684 7.2068 8.293C6.8168 7.902 6.1838 7.902 5.7928 8.293L2.7928 11.293C2.4028 11.684 2.4028 12.316 2.7928 12.707L5.7928 15.707C5.9888 15.902 6.2438 16 6.4998 16C6.7558 16 7.0118 15.902 7.2068 15.707C7.5978 15.316 7.5978 14.684 7.2068 14.293L5.9138 13H20.0518C20.5728 13 20.9998 12.573 20.9998 12.052V11.948C20.9998 11.427 20.5728 11 20.0518 11ZM20.0518 17H3.9478C3.4268 17 2.9998 17.427 2.9998 17.948V18.052C2.9998 18.573 3.4268 19 3.9478 19H20.0518C20.5728 19 20.9998 18.573 20.9998 18.052V17.948C20.9998 17.427 20.5728 17 20.0518 17Z" fill="white"/>
</mask>
<g mask="url(#mask0)">
<g id="&#240;&#159;&#142;&#168; Color">
<rect id="Base" width="24" height="24" fill="#0D1C2E"/>
</g>
</g>
</g>
</svg>
