<svg fill="none" height="24" viewBox="0 0 24 24" width="24" xmlns="http://www.w3.org/2000/svg"><path clip-rule="evenodd" d="m6.99997 9.99994c0-.552.448-1 1-1s1 .448 1 1c0 .55196-.448.99996-1 .99996s-1-.448-1-.99996zm5.00003-1c-.552 0-1 .448-1 1 0 .55196.448.99996 1 .99996s1-.448 1-.99996c0-.552-.448-1-1-1zm3.9999 0c-.552 0-1 .448-1 1 0 .55196.448.99996 1 .99996s1-.448 1-.99996c0-.552-.448-1-1-1zm4.0001 6.00016c0 .551-.449 1-1 1h-10.44603c-.543 0-1.077.148-1.544.428l-3.01 1.806v-13.23403c0-.551.449-1 1-1h14.00003c.551 0 1 .449 1 1zm-1-13.0001h-14c-1.654 0-3 1.346-3 3v15c0 .36.194.693.507.87.153.087.323.13.493.13.178 0 .356-.047.515-.143l4.524-2.714c.156-.094.334-.143.515-.143h10.446c1.654 0 3-1.346 3-3v-10c0-1.654-1.346-3-3-3z" fill="#6b7280" fill-rule="evenodd"/></svg>