<svg fill="none" height="24" viewBox="0 0 24 24" width="24" xmlns="http://www.w3.org/2000/svg"><path clip-rule="evenodd" d="m7.00021 10.9992c0-.552.448-.99996 1-.99996s1 .44796 1 .99996-.448 1-1 1-1-.448-1-1zm4.99999-.99996c-.552 0-1 .44796-1 .99996s.448 1 1 1 1-.448 1-1-.448-.99996-1-.99996zm4 0c-.552 0-1 .44796-1 .99996s.448 1 1 1 1-.448 1-1-.448-.99996-1-.99996zm3.8984 2.29496c-.507 3.254-3.13 5.953-6.379 6.562-1.569.296-3.167.127-4.61698-.487-.411-.174-.836-.262-1.253-.262-.19 0-.378.018-.563.055l-2.812.562.563-2.817c.118-.585.046-1.211-.207-1.81-.614-1.45-.782-3.047-.487-4.61696.609-3.249 3.307-5.872 6.56198-6.379 2.59-.403 5.123.413 6.951 2.241 1.829 1.829 2.646 4.363 2.242 6.95196zm-.827-8.36603c-2.285-2.284-5.445-3.302999-8.674-2.804-4.07697.636-7.45697 3.92-8.21997 7.987-.368 1.95803-.156 3.95203.611 5.76503.097.231.127.446.089.639l-.858 4.288c-.066.328.037.667.274.903.189.19.444.293.707.293.065 0 .13-.006.196-.019l4.283-.857c.246-.047.484.022.643.088 1.815.767 3.80897.978 5.76497.611 4.068-.763 7.352-4.143 7.988-8.22.502-3.22703-.519-6.38903-2.804-8.67403z" fill="#6b7280" fill-rule="evenodd"/></svg>