<svg fill="none" height="64" viewBox="0 0 64 64" width="64" xmlns="http://www.w3.org/2000/svg"><path d="m29.264 8.05757c.1607.68777.0414 1.41114-.3316 2.01103-.3731.6-.9693 1.0274-1.6577 1.1883-3.9585.9285-7.5543 3.0044-10.336 5.9671-.4845.515-1.1539.8167-1.8611.8387-.7071.022-1.394-.2375-1.9096-.7215s-.8176-1.1527-.8396-1.8591.2378-1.3926.7223-1.9076c3.5014-3.72668 8.0267-6.33725 13.008-7.50418.3411-.07988.6946-.09184 1.0403-.03519s.6769.1808.9745.36535c.2977.18455.5561.42589.7603.71022.2043.28433.3505.60608.4302.94687zm5.472 0c.0797-.34079.2259-.66254.4302-.94687s.4626-.52567.7603-.71022c.2976-.18455.6288-.3087.9745-.36535s.6992-.04469 1.0403.03519c4.9816 1.16767 9.5069 3.77919 13.008 7.50678.2399.2551.4272.5548.5511.8821s.1821.6758.1712 1.0256c-.0109.3497-.0907.6939-.2347 1.0129-.1441.319-.3496.6065-.6049.8462-.2553.2396-.5553.4266-.883.5504-.3276.1238-.6765.182-1.0266.1711-.3502-.0109-.6947-.0906-1.0141-.2345-.3193-.1439-.6071-.3492-.847-.6043-2.7817-2.9626-6.3775-5.0385-10.336-5.967-.3411-.0797-.6632-.2257-.9478-.4298-.2847-.204-.5262-.4621-.711-.7595-.1847-.29733-.309-.62814-.3657-.9735s-.0448-.69849.0352-1.03923zm-24.3093 14.01733c.3355.1007.6479.2664.9193.4877.2715.2213.4966.4938.6625.8021.1659.3082.2694.6461.3046.9943.0351.3482.0012.7-.0998 1.0351-.5823 1.9357-.8787 3.9459-.88 5.9671 0 2.0618.3014 4.0757.8667 5.9937.1994.6783.121 1.4079-.2181 2.0284-.339.6204-.9109 1.0809-1.5899 1.2802-.67895.1992-1.40933.1208-2.03045-.2179s-1.08211-.91-1.28155-1.5882c-.71554-2.4346-1.07922-4.9589-1.08-7.4962 0-2.6053.384-5.1253 1.10133-7.5042.10103-.3349.26711-.6467.48876-.9176.22166-.2708.49455-.4954.80309-.6609s.64669-.2686.99514-.3036c.34845-.0349.70038-.0009 1.03568.1m43.152 0c.3355-.1009.6876-.1347 1.0362-.0996.3485.0351.6868.1385.9954.3042.3085.1658.5814.3907.8029.6618s.3874.5832.4882.9184c.7173 2.3762 1.1013 4.8962 1.1013 7.5015-.0019 2.5366-.3665 5.0599-1.0827 7.4935-.1994.6779-.6603 1.2489-1.2811 1.5873-.6209.3385-1.3509.4167-2.0295.2175-.6786-.1993-1.2502-.6596-1.589-1.2799-.3388-.6202-.4171-1.3494-.2177-2.0273.5728-1.9457.8646-3.9631.8667-5.9911.0005-2.0209-.2942-4.0311-.8747-5.9671-.101-.335-.135-.6865-.1001-1.0346.035-.3481.1383-.6859.3039-.9941.1657-.3082.3905-.5808.6616-.8022.2712-.2215.5833-.3874.9186-.4883zm-2.6187 23.3569c.2624.2319.4765.5131.63.8277.1536.3145.2435.6562.2648 1.0055.0213.3494-.0265.6994-.1407 1.0303-.1141.3308-.2925.6359-.5247.8979-3.448 3.8946-8.016 6.7956-13.2134 8.0796-.3429.0931-.701.1168-1.0532.0697-.3522-.047-.6914-.164-.9978-.3439-.3063-.1799-.5736-.4191-.7861-.7037-.2124-.2845-.3658-.6086-.4511-.9532s-.1008-.7028-.0456-1.0535c.0552-.3506.18-.6867.3671-.9885s.4327-.5632.7224-.7689c.2896-.2056.6175-.3514.9643-.4286 4.08-1.0096 7.72-3.3032 10.5014-6.4413.4687-.5286 1.1283-.8496 1.8338-.8925.7056-.043 1.3993.1956 1.9288.6634zm-34.4986-.0213c.2937.1908.5469.4374.7452.726.1982.2885.3376.6133.4101.9557.0726.3424.0769.6957.0127 1.0397-.0641.3441-.1956.6721-.3867.9654l-2.3253 3.5749h11.752c.7072 0 1.3855.2807 1.8856.7803.5001.4995.781 1.1771.781 1.8836s-.2809 1.3841-.781 1.8837c-.5001.4995-1.1784.7802-1.8856.7802h-16.6667c-.47994-.0002-.95093-.1298-1.36328-.3751-.41236-.2453-.7508-.5973-.97962-1.0187s-.33955-.8968-.3205-1.3758c.01905-.4791.16717-.9441.42873-1.3461l5.00267-7.6906c.1907-.2937.4375-.5469.7263-.7452.2888-.1982.6138-.3378.9566-.4105.3427-.0727.6965-.0773 1.041-.0133.3445.0639.673.195.9668.3858z" fill="#000"/></svg>