<svg width="64" height="64" viewBox="0 0 64 64" fill="none" xmlns="http://www.w3.org/2000/svg">
<path fill-rule="evenodd" clip-rule="evenodd" d="M11.9698 9.71801C11.6981 9.89008 11.548 10.1665 11.5481 10.4469V24.6557C11.5481 25.0934 11.874 25.4453 12.1984 25.5079L34.1738 29.7543C35.2447 29.9613 36.0189 30.9039 36.0189 32.0009C36.0189 33.0979 35.2447 34.0404 34.1738 34.2474L12.199 38.4937C11.8747 38.5563 11.5481 38.9081 11.5481 39.3459L11.5481 53.5527C11.5479 53.833 11.6978 54.1095 11.9693 54.2817C12.2247 54.4438 12.4679 54.4445 12.6803 54.3284C12.6805 54.3283 12.6802 54.3285 12.6803 54.3284L52.0442 32.7755C52.0443 32.7754 52.044 32.7756 52.0442 32.7755C52.2769 32.6478 52.4521 32.3831 52.4521 32.0009C52.4521 31.6186 52.2773 31.3541 52.0446 31.2265C52.0445 31.2264 52.0447 31.2265 52.0446 31.2265L12.6815 9.67225C12.469 9.55561 12.2256 9.55602 11.9698 9.71801ZM14.8578 5.65485C11.1714 3.63361 6.99929 6.58971 7 10.4477C7 10.4474 7 10.4479 7 10.4477V24.6555C7 24.6555 7 24.6556 7 24.6555C6.9999 27.1674 8.75932 29.5026 11.3411 30.001C11.3409 30.001 11.3413 30.0011 11.3411 30.001L21.6902 32.0009L11.3417 34.0006C11.342 34.0005 11.3415 34.0006 11.3417 34.0006C8.75998 34.499 6.9999 36.8341 7 39.346C7 39.346 7 39.3461 7 39.346V53.5504C7 53.5503 7 53.5506 7 53.5504C6.99829 57.407 11.1669 60.3651 14.8542 58.3471L54.2189 36.7937C57.9267 34.7625 57.9272 29.2395 54.2194 27.2083L14.8596 5.65586C14.8592 5.65564 14.8581 5.65507 14.8578 5.65485C14.858 5.65497 14.8575 5.65474 14.8578 5.65485Z" fill="#6B7280"/>
</svg>
