<svg fill="none" height="64" viewBox="0 0 64 64" width="64" xmlns="http://www.w3.org/2000/svg"><path clip-rule="evenodd" d="m18.6665 26.6667c0-1.472 1.1947-2.6667 2.6667-2.6667s2.6666 1.1947 2.6666 2.6667-1.1946 2.6666-2.6666 2.6666-2.6667-1.1946-2.6667-2.6666zm13.3334-2.6667c-1.472 0-2.6666 1.1947-2.6666 2.6667s1.1946 2.6666 2.6666 2.6666 2.6667-1.1946 2.6667-2.6666-1.1947-2.6667-2.6667-2.6667zm10.6665 0c-1.472 0-2.6667 1.1947-2.6667 2.6667s1.1947 2.6666 2.6667 2.6666 2.6667-1.1946 2.6667-2.6666-1.1947-2.6667-2.6667-2.6667zm10.6668 16.0003c0 1.4694-1.1974 2.6667-2.6667 2.6667h-27.856c-1.448 0-2.872.3947-4.1173 1.1413l-8.0267 4.816v-35.2906c0-1.4694 1.1973-2.6667 2.6667-2.6667h37.3333c1.4693 0 2.6667 1.1973 2.6667 2.6667zm-2.6666-34.6668h-37.3333c-4.41071 0-8.00005 3.58933-8.00005 8v40c0 .96.51734 1.848 1.352 2.32.408.232.86134.3467 1.31467.3467.47467 0 .94933-.1254 1.37333-.3814l12.06405-7.2373c.416-.2507.8906-.3813 1.3733-.3813h27.856c4.4106 0 8-3.5894 8-8v-26.6667c0-4.41067-3.5894-8-8-8z" fill="#6b7280" fill-rule="evenodd"/></svg>