<svg fill="none" height="24" viewBox="0 0 24 24" width="24" xmlns="http://www.w3.org/2000/svg"><path clip-rule="evenodd" d="m10 6c0-1.103.897-2 2-2s2 .897 2 2v5c0 .0325-.0043.0636-.0087.0946-.0028.0204-.0057.0408-.0073.0614l1.595 1.595c.261-.531.421-1.12.421-1.751v-5c0-2.206-1.794-4-4-4-1.948 0-3.56998 1.401-3.92398 3.248l1.92398 1.924zm9 5.0001c0-.552-.447-1-1-1s-1 .448-1 1c0 .909-.262 1.75-.688 2.484l1.463 1.463c.772-1.124 1.225-2.483 1.225-3.947zm-6.9146 3.9916h-.0001c-.0279.0041-.056.0082-.0853.0082-2.20597 0-3.99997-1.794-3.99997-4v-.172l4.15597 4.156c-.0238.001-.0471.0044-.0706.0078zm8.6216 4.3012-15.99999-15.99996c-.391-.391-1.023-.391-1.414 0-.391.39099-.391 1.02299 0 1.41399l15.99999 15.99997c.195.195.451.293.707.293s.512-.098.707-.293c.391-.391.391-1.023 0-1.414zm-7.707.7072h2c.55 0 1 .45 1 1s-.45 1-1 1h-5.99997c-.55 0-1-.45-1-1s.45-1 1-1h1.99997v-2.08c-3.38697-.488-5.99997-3.4-5.99997-6.92 0-.552.447-1 1-1s1 .448 1 1c0 2.757 2.243 5 4.99997 5 .362 0 .714-.043 1.055-.117l1.593 1.593c-.521.214-1.075.36-1.648.443z" fill="#6b7280" fill-rule="evenodd"/></svg>