<svg fill="none" height="24" viewBox="0 0 24 24" width="24" xmlns="http://www.w3.org/2000/svg"><path clip-rule="evenodd" d="m12 4.00007c-1.103 0-2 .897-2 2v5.00003c0 1.103.897 2 2 2s2-.897 2-2v-5.00003c0-1.103-.897-2-2-2zm4 6.99993c0 2.206-1.794 4-4 4s-4-1.794-4-4v-5c0-2.206 1.794-4 4-4s4 1.794 4 4zm2-.9999c.553 0 1 .448 1 1 0 3.52-2.613 6.432-6 6.92v2.08h2.105c.493 0 .895.402.895.895v.21c0 .493-.402.895-.895.895h-6.21c-.493 0-.895-.402-.895-.895v-.21c0-.493.402-.895.895-.895h2.105v-2.08c-3.387-.488-6-3.4-6-6.92 0-.552.447-1 1-1s1 .448 1 1c0 2.757 2.243 5 5 5s5-2.243 5-5c0-.552.447-1 1-1z" fill="#6b7280" fill-rule="evenodd"/></svg>