<svg viewBox="0 0 64 64" fill="none" xmlns="http://www.w3.org/2000/svg">
<path fill-rule="evenodd" clip-rule="evenodd" d="M14.8353 9.05784C16.5626 12.7553 19.0348 19.3299 19.3636 25.3515C19.5602 28.953 18.6186 32.5218 17.3852 35.4989C16.6552 37.2613 15.8162 38.8326 15.0323 40.101C16.1452 39.6038 17.4555 39.0731 18.8632 38.5896C21.4566 37.699 24.4269 36.9526 27.1224 36.8964C31.6556 36.802 36.4486 38.0721 39.1191 39.0063C38.3202 35.5609 36.322 28.9248 30.3332 21.6913C24.9557 15.1959 18.5793 10.8722 14.8353 9.05784Z M27.5591 13.6666C27.7092 13.3671 28.0624 13.2318 28.3734 13.3548C31.5285 14.6019 39.0378 18.9965 44.2406 26.7396C46.8125 30.5674 48.4398 33.494 49.4297 35.6059C49.9246 36.6617 50.2628 37.5191 50.4798 38.1879C50.6921 38.8417 50.8028 39.3577 50.8103 39.7139C50.8152 39.949 50.6926 40.1682 50.49 40.2867C50.2873 40.4051 50.0364 40.4041 49.8347 40.2842C49.508 40.0897 48.9474 39.7835 48.3461 39.5088C47.731 39.2276 47.132 39.0067 46.7096 38.9432C45.8077 38.8077 44.4467 39.0433 43.8613 39.19C43.6921 39.2326 43.513 39.2043 43.3646 39.1124C43.2162 39.0203 43.1114 38.8721 43.0738 38.7015C42.7663 37.304 41.3305 32.8028 38.089 26.3567C34.8953 20.005 29.8655 15.7934 27.796 14.5074C27.5119 14.3308 27.4091 13.9661 27.5591 13.6666ZM33.6108 17.8023C35.5624 19.8739 37.6272 22.5607 39.2429 25.7738C42.1505 31.5565 43.646 35.8395 44.1799 37.7992C44.9367 37.6608 46.0311 37.5317 46.9011 37.6625C47.5123 37.7544 48.2483 38.0408 48.8822 38.3306C48.9959 38.3826 49.1084 38.4357 49.2184 38.4889C49.0199 37.8951 48.7125 37.121 48.2604 36.1566C47.3049 34.118 45.713 31.2496 43.1689 27.4628C40.3076 23.2047 36.7188 19.9944 33.6108 17.8023Z M56.1874 41.6151C56.2937 41.871 56.2256 42.166 56.0185 42.3493C54.5224 43.6725 52.1393 45.5116 48.8044 47.4124C47.382 48.2232 45.907 48.9196 44.7303 49.4477C44.27 49.6543 43.8524 49.8364 43.5026 49.989C43.4548 50.0098 43.4082 50.0301 43.3629 50.0499C43.9606 50.4693 44.6862 50.7993 45.5783 50.7993C46.3613 50.7993 46.886 50.6269 47.292 50.3908C47.7154 50.1448 48.0432 49.8131 48.4333 49.4096L48.4631 49.3788C48.8312 48.9981 49.2627 48.5514 49.8379 48.2118C50.4473 47.8518 51.1875 47.6264 52.1673 47.6264C53.1471 47.6264 53.8704 47.8521 54.4571 48.2215C54.9842 48.5534 55.3719 48.9877 55.6982 49.3531C55.7207 49.3783 55.7427 49.4031 55.7648 49.4276C56.12 49.8242 56.4267 50.148 56.8476 50.3883C57.2564 50.6219 57.8167 50.7993 58.6917 50.7993C59.0487 50.7993 59.3378 51.0891 59.3378 51.4466C59.3378 51.8043 59.0487 52.0942 58.6917 52.0942C57.6289 52.0942 56.8409 51.8749 56.208 51.5135C55.5872 51.159 55.1591 50.6898 54.8036 50.2929L54.7679 50.2531C54.4147 49.8584 54.1385 49.5503 53.7696 49.3179C53.4114 49.0925 52.9318 48.9215 52.1673 48.9215C51.4028 48.9215 50.8915 49.0927 50.4937 49.3276C50.077 49.5736 49.7535 49.905 49.3608 50.311L49.3489 50.3232C48.9746 50.7106 48.5342 51.1659 47.9403 51.511C47.3228 51.87 46.5717 52.0942 45.5783 52.0942C43.7553 52.0942 42.4904 51.0867 41.7157 50.3678C41.5733 50.2357 41.4489 50.1158 41.3355 50.0063C41.0285 49.7105 40.7996 49.4898 40.5038 49.3063C40.1474 49.0848 39.6816 48.9215 38.8602 48.9215C37.465 48.9215 36.6356 49.5703 35.7794 50.3417C35.7113 50.4032 35.6422 50.4664 35.5719 50.5308C34.7967 51.2403 33.8638 52.0942 32.4649 52.0942C31.035 52.0942 30.0099 51.2056 29.1672 50.4755C29.1188 50.4334 29.071 50.392 29.0237 50.3514C28.0938 49.55 27.2906 48.9215 26.1342 48.9215C24.9838 48.9215 24.2195 49.5555 23.259 50.3772L23.2248 50.4064C22.3141 51.1858 21.2079 52.1323 19.5305 52.0939C17.8541 52.0558 16.5631 51.0232 15.5495 50.1594C15.4508 50.0752 15.355 49.993 15.2616 49.9124C14.8499 49.5584 14.4847 49.2446 14.1203 48.9944C13.6771 48.6902 13.3198 48.543 12.9999 48.5326C12.6284 48.5207 12.3237 48.5698 12.0579 48.6565C11.5843 48.811 11.1872 49.0992 10.7146 49.4995C10.6257 49.5748 10.5333 49.6551 10.4372 49.7383C10.0426 50.0806 9.58478 50.4778 9.04082 50.8265C8.25411 51.3312 7.68001 51.6713 7.18091 51.7989C6.58256 51.952 6.13729 51.7964 5.69057 51.5727C5.37147 51.4127 5.24213 51.0237 5.40168 50.7039C5.56123 50.3841 5.94926 50.2543 6.26836 50.4143C6.59683 50.5791 6.70065 50.5853 6.86131 50.5441C7.12126 50.4778 7.51611 50.2672 8.34439 49.7358C8.80223 49.4423 9.17256 49.1214 9.5605 48.7855C9.66522 48.6949 9.77119 48.6032 9.88054 48.5106C10.2148 48.2274 10.5766 47.9403 10.9988 47.7109C10.4883 46.6323 9.89511 45.6097 9.63058 45.1853C9.51011 44.9923 9.49981 44.7498 9.60343 44.5469C9.70706 44.3443 9.90937 44.211 10.1362 44.1961L55.5488 41.2177C55.8247 41.1996 56.0814 41.3594 56.1874 41.6151ZM12.2278 47.2873C12.4826 47.2464 12.7526 47.2291 13.0415 47.2382C13.7229 47.2603 14.3264 47.5665 14.8502 47.9259C15.2786 48.22 15.7103 48.5916 16.124 48.9475C16.2124 49.0238 16.3 49.0992 16.3865 49.1727C17.4239 50.0571 18.3939 50.7728 19.5598 50.7993C20.7036 50.8256 21.4642 50.21 22.4203 49.3922C22.4418 49.3736 22.4635 49.3551 22.4852 49.3365C23.3859 48.5653 24.4821 47.6264 26.1342 47.6264C27.8201 47.6264 28.9548 48.5844 29.866 49.3694L29.8764 49.3783C30.8423 50.2107 31.5255 50.7993 32.4649 50.7993C33.3443 50.7993 33.9099 50.2877 34.7685 49.5116C34.8165 49.4683 34.8656 49.4239 34.9156 49.3788C35.8198 48.5641 36.9606 47.6264 38.8602 47.6264C39.8778 47.6264 40.5886 47.8357 41.1841 48.2054C41.5946 48.46 41.9493 48.7989 42.2763 49.1145C42.4071 49.0556 42.5543 48.9907 42.7106 48.9223C42.7988 48.8836 42.8922 48.843 42.99 48.8001C43.3396 48.6478 43.7488 48.4692 44.2024 48.2658C45.3635 47.7446 46.7956 47.0675 48.166 46.2867C50.4483 44.9859 52.2667 43.7185 53.6435 42.6404L11.2661 45.4199C11.5626 45.9491 11.9123 46.6092 12.2278 47.2873Z M13.6926 8.22639C13.8657 8.0238 14.1449 7.94832 14.3961 8.03619C17.7312 9.20281 25.2197 13.7781 31.347 21.1841C38.0319 29.2641 39.6761 36.6117 40.2676 39.466C40.3162 39.7006 40.2317 39.9429 40.0476 40.096C39.8638 40.2488 39.6109 40.2877 39.3897 40.1968C37.3898 39.3738 32.1506 37.7483 27.3102 37.8493C24.9255 37.8991 22.2308 38.5665 19.8078 39.3994C17.3908 40.2297 15.2884 41.2095 14.1026 41.8511C13.8328 41.997 13.4979 41.9328 13.3009 41.6975C13.1038 41.4622 13.0989 41.1203 13.2892 40.8795C14.2317 39.6855 15.6485 37.4614 16.7826 34.7215C17.9174 31.9804 18.7508 28.7679 18.577 25.5825C18.2226 19.0877 15.1227 11.7862 13.6134 8.95245C13.4881 8.71716 13.5196 8.42896 13.6926 8.22639ZM15.5386 9.92662C17.1897 13.4633 19.5527 19.752 19.867 25.5118C20.0549 28.9567 19.1549 32.3701 17.976 35.218C17.2782 36.9035 16.4762 38.4065 15.727 39.6198C16.7907 39.1442 18.0432 38.6366 19.3888 38.1743C21.8677 37.3224 24.7069 36.6085 27.2833 36.5547C31.6165 36.4643 36.198 37.6791 38.7505 38.5727C37.9871 35.2772 36.0768 28.9297 30.3524 22.0107C25.2123 15.7978 19.1174 11.662 15.5386 9.92662Z" fill="#141414"/>
</svg>