<svg viewBox="0 0 64 64" fill="none" xmlns="http://www.w3.org/2000/svg">
<path fill-rule="evenodd" clip-rule="evenodd" d="M41.5066 8.44434C44.0755 8.44434 46.1578 10.5043 46.1578 13.0443V40.8243C46.1756 41.25 46.3579 41.6521 46.6663 41.9459C46.9747 42.2398 47.3851 42.4026 47.8111 42.3999C48.2367 42.402 48.6465 42.239 48.9545 41.9452C49.2624 41.6513 49.4444 41.2496 49.4622 40.8243V24.2199C49.4654 23.6187 49.587 23.0241 49.82 22.4699C50.053 21.9157 50.3929 21.4129 50.8203 20.9901C51.2476 20.5672 51.7541 20.2327 52.3107 20.0057C52.8673 19.7786 53.4633 19.6633 54.0644 19.6666C54.6658 19.6633 55.2619 19.7786 55.8186 20.0059C56.3754 20.2331 56.882 20.5678 57.3094 20.9908C57.7368 21.4139 58.0766 21.917 58.3095 22.4714C58.5424 23.0259 58.6637 23.6208 58.6666 24.2221V38.8021C58.6643 39.1842 58.5104 39.5498 58.2387 39.8185C57.9671 40.0873 57.5999 40.2372 57.2178 40.2355C57.0284 40.2366 56.8406 40.2005 56.6652 40.1291C56.4897 40.0577 56.3301 39.9524 56.1953 39.8193C56.0606 39.6862 55.9534 39.5279 55.8798 39.3534C55.8063 39.1788 55.7678 38.9915 55.7666 38.8021V24.2221C55.7655 23.9997 55.7205 23.7798 55.6344 23.5748C55.5482 23.3698 55.4225 23.1838 55.2644 23.0273C55.1063 22.8709 54.919 22.7472 54.7131 22.6632C54.5072 22.5791 54.2868 22.5365 54.0644 22.5377C53.8421 22.5365 53.6216 22.5791 53.4157 22.6632C53.2098 22.7472 53.0225 22.8709 52.8644 23.0273C52.7064 23.1838 52.5807 23.3698 52.4945 23.5748C52.4083 23.7798 52.3634 23.9997 52.3622 24.2221V40.8266C52.359 41.421 52.2387 42.009 52.0083 42.557C51.7778 43.105 51.4417 43.6022 51.0191 44.0203C50.5965 44.4383 50.0957 44.7691 49.5452 44.9936C48.9948 45.2181 48.4055 45.332 47.8111 45.3288C47.2166 45.332 46.6274 45.2181 46.0769 44.9936C45.5265 44.7691 45.0257 44.4383 44.6031 44.0203C44.1805 43.6022 43.8443 43.105 43.6139 42.557C43.3834 42.009 43.2632 41.421 43.26 40.8266V13.0488C43.2416 12.5974 43.0488 12.1708 42.7222 11.8587C42.3956 11.5466 41.9606 11.3733 41.5089 11.3754C41.0571 11.3727 40.6219 11.5454 40.2949 11.8571C39.9679 12.1688 39.7745 12.5952 39.7555 13.0466L39.7533 48.3888C39.7463 49.589 39.2629 50.7372 38.4094 51.581C37.556 52.4249 36.4024 52.8953 35.2022 52.8888C34.6077 52.892 34.0185 52.7781 33.4681 52.5536C32.9176 52.3291 32.4168 51.9983 31.9942 51.5803C31.5716 51.1622 31.2355 50.665 31.005 50.117C30.7746 49.569 30.6543 48.981 30.6511 48.3866V44.0888C30.6511 43.2977 31.3 42.6555 32.1 42.6555C32.9 42.6555 33.5489 43.2977 33.5489 44.0888V48.3866C33.5489 48.971 33.8644 49.511 34.3755 49.8043C34.8866 50.0955 35.5178 50.0955 36.0289 49.8043C36.2797 49.6622 36.4883 49.456 36.6335 49.207C36.7787 48.9579 36.8553 48.6749 36.8555 48.3866V13.0443C36.8555 10.5043 38.9378 8.44434 41.5066 8.44434ZM28.8978 8.44434C31.4666 8.44434 33.5489 10.5043 33.5489 13.0443V38.651C33.548 38.8403 33.5098 39.0276 33.4365 39.2021C33.3632 39.3766 33.2562 39.535 33.1216 39.6681C32.987 39.8012 32.8275 39.9065 32.6522 39.9779C32.4769 40.0494 32.2893 40.0855 32.1 40.0843C31.9107 40.0855 31.723 40.0494 31.5477 39.9779C31.3724 39.9065 31.2129 39.8012 31.0784 39.6681C30.9438 39.535 30.8368 39.3766 30.7635 39.2021C30.6901 39.0276 30.652 38.8403 30.6511 38.651V13.0443C30.6482 12.5821 30.4618 12.1399 30.1331 11.8149C29.8043 11.4899 29.36 11.3086 28.8978 11.311C28.4355 11.3086 27.9912 11.4899 27.6624 11.8149C27.3337 12.1399 27.1474 12.5821 27.1444 13.0443V44.1843C27.1374 45.3977 26.6489 46.5586 25.7864 47.412C24.9238 48.2653 23.7578 48.7414 22.5444 48.7355C21.3307 48.742 20.1641 48.2662 19.3011 47.4127C18.438 46.5593 17.9493 45.3981 17.9422 44.1843V24.2221C17.941 23.9997 17.8961 23.7798 17.8099 23.5748C17.7237 23.3698 17.598 23.1838 17.44 23.0273C17.2819 22.8709 17.0946 22.7472 16.8887 22.6632C16.6828 22.5791 16.4624 22.5365 16.24 22.5377C16.0176 22.5365 15.7972 22.5791 15.5913 22.6632C15.3854 22.7472 15.1981 22.8709 15.04 23.0273C14.8819 23.1838 14.7562 23.3698 14.6701 23.5748C14.5839 23.7798 14.5389 23.9997 14.5378 24.2221V32.6666C14.5346 33.2677 14.413 33.8624 14.18 34.4166C13.9469 34.9707 13.607 35.4736 13.1797 35.8964C12.7523 36.3192 12.2459 36.6537 11.6892 36.8808C11.1326 37.1079 10.5367 37.2231 9.93554 37.2199C9.33437 37.2231 8.73846 37.1079 8.18182 36.8808C7.62519 36.6537 7.11874 36.3192 6.69138 35.8964C6.26402 35.4736 5.92413 34.9707 5.69111 34.4166C5.4581 33.8624 5.33651 33.2677 5.33331 32.6666L5.33331 29.6043C5.33331 28.811 5.9822 28.1688 6.7822 28.1688C7.5822 28.1688 8.23331 28.8132 8.23331 29.6043V32.6666C8.23331 33.5954 8.99554 34.3488 9.93554 34.3488C10.8755 34.3488 11.6378 33.5954 11.6378 32.6666V24.2199C11.6448 23.0066 12.1333 21.8457 12.9958 20.9923C13.8584 20.1389 15.0244 19.6629 16.2378 19.6688C17.4515 19.6623 18.6181 20.1381 19.4811 20.9915C20.3442 21.8449 20.8329 23.0062 20.84 24.2199V44.1843C20.84 45.1155 21.6022 45.8688 22.5444 45.8688C23.4844 45.8688 24.2466 45.1155 24.2466 44.1843V13.0443C24.2466 10.5043 26.3289 8.44434 28.8978 8.44434Z" fill="#141414"/>
</svg>