<svg fill="none" height="24" viewBox="0 0 24 24" width="24" xmlns="http://www.w3.org/2000/svg"><path clip-rule="evenodd" d="m13 9.99993h-4.00003c-.55 0-1 .44997-1 .99997s.45 1 1 1h4.00003c.55 0 1-.45 1-1s-.45-.99997-1-.99997zm-8.00003 1.00017c0-3.30904 2.691-6.00003 6.00003-6.00003 3.309 0 6 2.69099 6 6.00003 0 3.309-2.691 6-6 6-3.30903 0-6.00003-2.691-6.00003-6zm15.70703 8.2929-3.395-3.396c1.053-1.354 1.688-3.051 1.688-4.897 0-4.411-3.589-8-8-8s-8 3.589-8 8 3.589 8 8 8c1.846 0 3.543-.635 4.897-1.688l3.396 3.395c.195.195.451.293.707.293s.512-.098.707-.293c.391-.391.391-1.023 0-1.414z" fill="#6b7280" fill-rule="evenodd"/></svg>