<svg width="24" height="24" viewBox="0 0 24 24" fill="none" xmlns="http://www.w3.org/2000/svg">
<g id="Icon/Outline/minimize">
<path id="Mask" fill-rule="evenodd" clip-rule="evenodd" d="M13 10H9C8.45 10 8 10.45 8 11C8 11.55 8.45 12 9 12H13C13.55 12 14 11.55 14 11C14 10.45 13.55 10 13 10ZM5 11C5 7.691 7.691 5 11 5C14.309 5 17 7.691 17 11C17 14.309 14.309 17 11 17C7.691 17 5 14.309 5 11ZM20.707 19.293L17.312 15.897C18.365 14.543 19 12.846 19 11C19 6.589 15.411 3 11 3C6.589 3 3 6.589 3 11C3 15.411 6.589 19 11 19C12.846 19 14.543 18.365 15.897 17.312L19.293 20.707C19.488 20.902 19.744 21 20 21C20.256 21 20.512 20.902 20.707 20.707C21.098 20.316 21.098 19.684 20.707 19.293Z" fill="#231F20"/>
<mask id="mask0" mask-type="alpha" maskUnits="userSpaceOnUse" x="3" y="3" width="19" height="18">
<path id="Mask_2" fill-rule="evenodd" clip-rule="evenodd" d="M13 10H9C8.45 10 8 10.45 8 11C8 11.55 8.45 12 9 12H13C13.55 12 14 11.55 14 11C14 10.45 13.55 10 13 10ZM5 11C5 7.691 7.691 5 11 5C14.309 5 17 7.691 17 11C17 14.309 14.309 17 11 17C7.691 17 5 14.309 5 11ZM20.707 19.293L17.312 15.897C18.365 14.543 19 12.846 19 11C19 6.589 15.411 3 11 3C6.589 3 3 6.589 3 11C3 15.411 6.589 19 11 19C12.846 19 14.543 18.365 15.897 17.312L19.293 20.707C19.488 20.902 19.744 21 20 21C20.256 21 20.512 20.902 20.707 20.707C21.098 20.316 21.098 19.684 20.707 19.293Z" fill="white"/>
</mask>
<g mask="url(#mask0)">
<g id="&#240;&#159;&#142;&#168; Color">
<rect id="Base" width="24" height="24" fill="#0D1C2E"/>
</g>
</g>
</g>
</svg>
