<svg width="24" height="24" viewBox="0 0 24 24" fill="none" xmlns="http://www.w3.org/2000/svg">
<g id="Icon/Outline/minus-square">
<path id="Mask" fill-rule="evenodd" clip-rule="evenodd" d="M15 11H9C8.45 11 8 11.45 8 12C8 12.55 8.45 13 9 13H15C15.55 13 16 12.55 16 12C16 11.45 15.55 11 15 11ZM19 18C19 18.551 18.552 19 18 19H6C5.448 19 5 18.551 5 18V6C5 5.449 5.448 5 6 5H18C18.552 5 19 5.449 19 6V18ZM18 3H6C4.346 3 3 4.346 3 6V18C3 19.654 4.346 21 6 21H18C19.654 21 21 19.654 21 18V6C21 4.346 19.654 3 18 3Z" fill="#000000"/>
</g>
</svg>
