<svg width="24" height="24" viewBox="0 0 24 24" fill="none" xmlns="http://www.w3.org/2000/svg">
<g id="Icon/Outline/minus">
<path id="Mask" fill-rule="evenodd" clip-rule="evenodd" d="M19 13H5C4.448 13 4 12.553 4 12C4 11.447 4.448 11 5 11H19C19.553 11 20 11.447 20 12C20 12.553 19.553 13 19 13Z" fill="#231F20"/>
<mask id="mask0" mask-type="alpha" maskUnits="userSpaceOnUse" x="4" y="11" width="16" height="2">
<path id="Mask_2" fill-rule="evenodd" clip-rule="evenodd" d="M19 13H5C4.448 13 4 12.553 4 12C4 11.447 4.448 11 5 11H19C19.553 11 20 11.447 20 12C20 12.553 19.553 13 19 13Z" fill="white"/>
</mask>
<g mask="url(#mask0)">
<g id="&#240;&#159;&#142;&#168; Color">
<rect id="Base" width="24" height="24" fill="#0D1C2E"/>
</g>
</g>
</g>
</svg>
