<svg fill="none" height="64" viewBox="0 0 64 64" width="64" xmlns="http://www.w3.org/2000/svg"><path clip-rule="evenodd" d="m53.3334 37.3335c0 1.4693-1.1947 2.6667-2.6667 2.6667h-18.4346-.464-18.4347c-1.472 0-2.6666-1.1974-2.6666-2.6667v-21.3333c0-1.4694 1.1946-2.6667 2.6666-2.6667h37.3333c1.472 0 2.6667 1.1973 2.6667 2.6667zm-2.6667-29.3335h-37.3333c-4.41069 0-8.00003 3.5893-8.00003 8v21.3333c0 4.4107 3.58934 8 8.00003 8h16v5.3334h-10.6667c-1.4667 0-2.6667 1.2-2.6667 2.6666 0 1.4667 1.2 2.6667 2.6667 2.6667h26.6667c1.4666 0 2.6666-1.2 2.6666-2.6667 0-1.4666-1.2-2.6666-2.6666-2.6666h-10.6667v-5.3334h16c4.4107 0 8-3.5893 8-8v-21.3333c0-4.4107-3.5893-8-8-8z" fill="#6b7280" fill-rule="evenodd"/></svg>