<svg fill="none" height="24" viewBox="0 0 24 24" width="24" xmlns="http://www.w3.org/2000/svg"><path clip-rule="evenodd" d="m7.44091 4.91804c-.5.354-.959.764-1.375 1.228-2.849 3.171-2.756 8.24496.207 11.30996 1.566 1.621 3.67 2.525 5.92399 2.544.025.001.051.001.077.001 2.225 0 4.314-.863 5.89-2.436.328-.327.626-.678.893-1.052-3.146.392-6.371-.662-8.662-2.948-2.28999-2.286-3.34999-5.50396-2.95399-8.64696zm4.83299 17.08296c-.032 0-.063 0-.095-.001-2.79397-.024-5.40297-1.144-7.34397-3.153-3.677-3.805-3.792-10.10196-.258-14.03696 1.101-1.227 2.445-2.15 3.994-2.743.365-.142.78-.054 1.059.222.279.275.37197.688.237 1.056-1.118 3.055-.356 6.511 1.94097 8.80396 2.298 2.293 5.763 3.054 8.828 1.938.368-.136.782-.04 1.056.238.274.281.361.695.22 1.06-.524 1.363-1.31 2.573-2.336 3.596-1.953 1.95-4.543 3.02-7.302 3.02z" fill="#6b7280" fill-rule="evenodd"/></svg>