<svg width="24" height="24" viewBox="0 0 24 24" fill="none" xmlns="http://www.w3.org/2000/svg">
<g id="Icon/Outline/music">
<path id="Mask" fill-rule="evenodd" clip-rule="evenodd" d="M15.5078 17.0063C14.6848 17.0063 14.0158 16.3373 14.0158 15.5143C14.0158 14.6913 14.6848 14.0223 15.5078 14.0223C16.2288 14.0223 16.8298 14.5343 16.9698 15.2133V15.2143C16.9888 15.3113 16.9998 15.4113 16.9998 15.5143C16.9998 16.3373 16.3308 17.0063 15.5078 17.0063ZM6.53579 19.0003C5.71279 19.0003 5.04379 18.3303 5.04379 17.5073C5.04379 16.6853 5.71279 16.0153 6.53579 16.0153C7.25579 16.0153 7.85779 16.5273 7.99779 17.2063V17.2093C8.01779 17.3053 8.02879 17.4053 8.02879 17.5073C8.02879 18.3303 7.35979 19.0003 6.53579 19.0003ZM18.9468 14.9923V4.00027C18.9468 3.69627 18.8098 3.40927 18.5728 3.21927C18.3358 3.03027 18.0248 2.95827 17.7308 3.02427L8.75879 5.01727C8.30079 5.11927 7.97579 5.52527 7.97579 5.99327V14.3343C7.53479 14.1343 7.05079 14.0153 6.53579 14.0153C4.61079 14.0153 3.04379 15.5823 3.04379 17.5073C3.04379 19.4333 4.61079 21.0003 6.53579 21.0003C8.46179 21.0003 10.0288 19.4333 10.0288 17.5073C10.0288 17.3293 10.0018 17.1573 9.97579 16.9853V6.79627L16.9468 5.24627V12.3403C16.5068 12.1403 16.0228 12.0223 15.5078 12.0223C13.5818 12.0223 12.0158 13.5883 12.0158 15.5143C12.0158 17.4403 13.5818 19.0063 15.5078 19.0063C17.4338 19.0063 18.9998 17.4403 18.9998 15.5143C18.9998 15.3353 18.9738 15.1643 18.9468 14.9923Z" fill="#231F20"/>
<mask id="mask0" mask-type="alpha" maskUnits="userSpaceOnUse" x="3" y="3" width="16" height="19">
<path id="Mask_2" fill-rule="evenodd" clip-rule="evenodd" d="M15.5078 17.0063C14.6848 17.0063 14.0158 16.3373 14.0158 15.5143C14.0158 14.6913 14.6848 14.0223 15.5078 14.0223C16.2288 14.0223 16.8298 14.5343 16.9698 15.2133V15.2143C16.9888 15.3113 16.9998 15.4113 16.9998 15.5143C16.9998 16.3373 16.3308 17.0063 15.5078 17.0063ZM6.53579 19.0003C5.71279 19.0003 5.04379 18.3303 5.04379 17.5073C5.04379 16.6853 5.71279 16.0153 6.53579 16.0153C7.25579 16.0153 7.85779 16.5273 7.99779 17.2063V17.2093C8.01779 17.3053 8.02879 17.4053 8.02879 17.5073C8.02879 18.3303 7.35979 19.0003 6.53579 19.0003ZM18.9468 14.9923V4.00027C18.9468 3.69627 18.8098 3.40927 18.5728 3.21927C18.3358 3.03027 18.0248 2.95827 17.7308 3.02427L8.75879 5.01727C8.30079 5.11927 7.97579 5.52527 7.97579 5.99327V14.3343C7.53479 14.1343 7.05079 14.0153 6.53579 14.0153C4.61079 14.0153 3.04379 15.5823 3.04379 17.5073C3.04379 19.4333 4.61079 21.0003 6.53579 21.0003C8.46179 21.0003 10.0288 19.4333 10.0288 17.5073C10.0288 17.3293 10.0018 17.1573 9.97579 16.9853V6.79627L16.9468 5.24627V12.3403C16.5068 12.1403 16.0228 12.0223 15.5078 12.0223C13.5818 12.0223 12.0158 13.5883 12.0158 15.5143C12.0158 17.4403 13.5818 19.0063 15.5078 19.0063C17.4338 19.0063 18.9998 17.4403 18.9998 15.5143C18.9998 15.3353 18.9738 15.1643 18.9468 14.9923Z" fill="white"/>
</mask>
<g mask="url(#mask0)">
<g id="&#240;&#159;&#142;&#168; Color">
<rect id="Base" width="24" height="24" fill="#0D1C2E"/>
</g>
</g>
</g>
</svg>
