<svg fill="none" height="64" viewBox="0 0 64 64" width="64" xmlns="http://www.w3.org/2000/svg"><path d="m53.6162 21.1055c.7641 0 1.3838.6324 1.3838 1.4121v24.2871c0 2.3973-1.8968 5.3721-6.2256 5.3721-3.8652 0-4.8417-2.5286-4.8418-4.2354 0-2.0994 1.2418-4.2452 4.8467-4.2441 3.2649 0 3.4531-.8497 3.4531-2.5284v-12.0918l-15.2178 2.5313v18.2881c-.0001 2.3972-1.8969 5.1035-6.2255 5.1035-3.8652-.0001-4.8418-2.5286-4.8418-4.2354 0-2.0994 1.2425-4.246 4.8476-4.246 3.2648-.0001 3.4531-.8477 3.4531-2.5264v-18.6514c-.0004-.7021.5056-1.2973 1.1866-1.3974l17.9355-2.8155c.0136-.002.0275-.0042.041-.0058l.0293-.0059c.0583-.0075.1171-.0108.1758-.0107zm-34.1162-4.1055c.5075 0 .9424.363 1.0332.8623.5038 2.7712 1.3595 4.6398 2.6621 5.9424s3.1712 2.1583 5.9424 2.6621c.4993.0908.8623.5257.8623 1.0332s-.363.9424-.8623 1.0332c-2.7712.5038-4.6398 1.3595-5.9424 2.6621s-2.1583 3.1712-2.6621 5.9424c-.0908.4993-.5257.8623-1.0332.8623s-.9424-.363-1.0332-.8623c-.5038-2.7712-1.3595-4.6398-2.6621-5.9424s-3.1712-2.1583-5.9424-2.6621c-.49926-.0908-.8623-.5257-.8623-1.0332s.36304-.9424.8623-1.0332c2.7712-.5038 4.6398-1.3595 5.9424-2.6621s2.1583-3.1712 2.6621-5.9424c.0908-.4993.5257-.8623 1.0332-.8623zm0 4.8994c-.5487 1.3215-1.2694 2.4481-2.2109 3.3897-.9416.9415-2.0682 1.6622-3.3897 2.2109 1.3215.5487 2.4481 1.2694 3.3897 2.2109.9415.9416 1.6622 2.0683 2.2109 3.3897.5487-1.3214 1.2694-2.4481 2.2109-3.3897.9416-.9415 2.0683-1.6622 3.3897-2.2109-1.3214-.5487-2.4481-1.2694-3.3897-2.2109-.9415-.9416-1.6622-2.0682-2.2109-3.3897zm12.4346-12.8994c.5285-.00044.9637.41633.9853.94434l.0996.66306c.2509 1.7724 1.6446 3.1652 3.417 3.416h.6631c.4785.0963.8222.5169.8223 1.0049 0 .4881-.3438.9086-.8223 1.0049h-.6631c-1.8037.2176-3.2377 1.6179-3.497 3.416l-.1006.6631c-.0613.4962-.4845.868-.9844.8643-.5012-.0037-.9262-.3694-1.0049-.8643v-.6631c-.2509-1.7724-1.6436-3.1652-3.416-3.416h-.6631c-.4786-.0962-.8232-.5167-.8232-1.0049 0-.4881.3446-.9087.8232-1.0049h.6631c1.8293-.2257 3.2702-1.6667 3.4961-3.4961v-.66304c.0787-.49483.5039-.86047 1.0049-.86426z" fill="#000"/></svg>