<svg viewBox="0 0 64 64" fill="none" xmlns="http://www.w3.org/2000/svg">
<path fill-rule="evenodd" clip-rule="evenodd" d="M13.1869 13.0986C23.5772 2.70835 40.4225 2.70842 50.8129 13.0986C61.2032 23.489 61.2032 40.3343 50.8129 50.7246C40.4225 61.1149 23.5772 61.1149 13.1869 50.7246C2.79668 40.3343 2.79663 23.4889 13.1869 13.0986ZM14.8685 18.0117C11.6298 21.9534 9.86171 26.8984 9.86658 32C9.90915 40.4999 14.8159 48.2244 22.4916 51.876C30.1672 55.5274 39.2558 54.4612 45.8773 49.1318L40.433 43.6641C39.8427 43.8369 39.2323 43.934 38.6176 43.9521C34.9506 43.952 31.9781 40.9794 31.9779 37.3125C31.9818 36.6965 32.0791 36.0841 32.266 35.4971L28.4144 31.6465L26.3558 32.1553V42.1377C26.3427 42.3259 26.3057 42.5117 26.2455 42.6904C26.2582 42.8155 26.2582 42.9423 26.2455 43.0674C25.4257 45.7923 22.6725 47.4516 19.8802 46.9033C17.0878 46.3548 15.1668 43.7771 15.4388 40.9443C15.7111 38.1116 18.0872 35.9474 20.933 35.9404C21.3045 35.9432 21.6757 35.9799 22.0404 36.0508V25.1836L14.8685 18.0117ZM41.4799 12.0029C33.7535 8.34085 24.6088 9.45683 17.9896 14.8691L23.6781 20.4688C23.6803 20.4245 23.6803 20.3802 23.6781 20.3359L26.7982 23.5234C26.794 23.5748 26.794 23.6264 26.7982 23.6777L29.8754 26.6885H30.0521L33.6156 30.2959H33.4388L34.8773 31.7568H35.0326L44.1957 40.9199V41.0752L49.1312 45.9883C52.37 42.0466 54.1381 37.1016 54.1332 32C54.1318 23.4499 49.2061 15.665 41.4799 12.0029ZM36.9135 15.3779C38.9942 15.0417 41.1182 15.6323 42.7269 16.9941C44.3355 18.356 45.2679 20.3533 45.2797 22.4609V35.7412L40.4994 30.96L40.8529 31.0703V28.5254L38.64 29.0791L35.0541 25.3604L40.8529 23.9658V22.3496C40.8502 21.5773 40.5223 20.8423 39.9496 20.3242C39.3767 19.8061 38.612 19.5532 37.8431 19.6279L31.1371 21.5312L27.5736 17.9453L27.8392 17.8789L36.6927 15.3779H36.9135Z" fill="#141414"/>
</svg>