<svg fill="none" height="64" viewBox="0 0 64 64" width="64" xmlns="http://www.w3.org/2000/svg"><path clip-rule="evenodd" d="m41.3543 45.3502c-2.1947 0-3.9787-1.784-3.9787-3.9786 0-2.1947 1.784-3.9787 3.9787-3.9787 1.9226 0 3.5253 1.3653 3.8986 3.176v.0027c.0507.2586.08.5253.08.8 0 2.1946-1.784 3.9786-3.9786 3.9786zm-23.9253 5.3174c-2.1947 0-3.9787-1.7866-3.9787-3.9813 0-2.192 1.784-3.9787 3.9787-3.9787 1.92 0 3.5253 1.3654 3.8986 3.176v.008c.0534.256.0827.5227.0827.7947 0 2.1947-1.784 3.9813-3.9813 3.9813zm33.0959-10.688v-29.312c0-.81071-.3653-1.57604-.9973-2.08271-.632-.504-1.4614-.696-2.2454-.52l-23.9253 5.31471c-1.2213.272-2.088 1.3546-2.088 2.6026v22.2427c-1.176-.5333-2.4667-.8507-3.84-.8507-5.1333 0-9.31199 4.1787-9.31199 9.312 0 5.136 4.17869 9.3147 9.31199 9.3147 5.136 0 9.3147-4.1787 9.3147-9.3147 0-.4746-.072-.9333-.1414-1.392v-27.1706l18.5894-4.1334v18.9174c-1.1734-.5334-2.464-.848-3.8374-.848-5.136 0-9.312 4.176-9.312 9.312s4.176 9.312 9.312 9.312 9.312-4.176 9.312-9.312c0-.4774-.0693-.9334-.1413-1.392z" fill="#6b7280" fill-rule="evenodd"/></svg>