<svg fill="none" height="24" viewBox="0 0 24 24" width="24" xmlns="http://www.w3.org/2000/svg"><path clip-rule="evenodd" d="m15.5078 17.0062c-.823 0-1.492-.669-1.492-1.492s.669-1.492 1.492-1.492c.721 0 1.322.512 1.462 1.191v.001c.019.097.03.197.03.3 0 .823-.669 1.492-1.492 1.492zm-8.97196 1.994c-.823 0-1.492-.67-1.492-1.493 0-.822.669-1.492 1.492-1.492.72 0 1.322.512 1.462 1.191v.003c.02.096.031.196.031.298 0 .823-.669 1.493-1.493 1.493zm12.41096-4.008v-10.99199c0-.304-.137-.591-.374-.781-.237-.189-.548-.261-.842-.195l-8.97198 1.993c-.458.102-.783.508-.783.976v8.34099c-.441-.2-.925-.319-1.44-.319-1.925 0-3.492 1.567-3.492 3.492 0 1.926 1.567 3.493 3.492 3.493 1.926 0 3.49298-1.567 3.49298-3.493 0-.178-.027-.35-.05298-.522v-10.18899l6.97098-1.55v7.09399c-.44-.2-.924-.318-1.439-.318-1.926 0-3.492 1.566-3.492 3.492s1.566 3.492 3.492 3.492 3.492-1.566 3.492-3.492c0-.179-.026-.35-.053-.522z" fill="#6b7280" fill-rule="evenodd"/></svg>