<svg fill="none" height="64" viewBox="0 0 64 64" width="64" xmlns="http://www.w3.org/2000/svg"><path clip-rule="evenodd" d="m32.0001 36.5385c.512 0 1.0267.1493 1.472.4426l13.0133 8.616-14.4853-28.968-14.4853 28.968 13.0133-8.616c.4453-.2933.96-.4426 1.472-.4426zm21.3332 19.4615c-.512 0-1.024-.1467-1.472-.4427l-19.8613-13.1546-19.8613 13.1546c-1.008.664-2.33604.5734-3.24004-.2266-.904-.8027-1.15733-2.1094-.61867-3.1894l21.33331-42.66665c.904-1.808 3.8694-1.808 4.7734 0l21.3333 42.66665c.5387 1.08.2853 2.3867-.6187 3.1894-.5013.4426-1.1333.6693-1.768.6693z" fill="#6b7280" fill-rule="evenodd"/></svg>