<svg fill="none" height="24" viewBox="0 0 24 24" width="24" xmlns="http://www.w3.org/2000/svg"><path clip-rule="evenodd" d="m12 13.7019c.192 0 .385.056.552.166l4.88 3.231-5.432-10.86303-5.43198 10.86303 4.87998-3.231c.167-.11.36-.166.552-.166zm8 7.298c-.192 0-.384-.055-.552-.166l-7.448-4.933-7.44802 4.933c-.378.249-.876.215-1.215-.085-.339-.301-.434-.791-.232-1.196l8.00002-15.99997c.339-.678 1.451-.678 1.79 0l8 15.99997c.202.405.107.895-.232 1.196-.188.166-.425.251-.663.251z" fill="#6b7280" fill-rule="evenodd"/></svg>