<svg fill="none" height="24" viewBox="0 0 24 24" width="24" xmlns="http://www.w3.org/2000/svg"><path clip-rule="evenodd" d="m7.86622 9.09859 5.19798 1.05701c.394.079.701.386.781.78l1.056 5.198 3.518-10.55301zm6.80098 11.90091c-.021 0-.041-.001-.061-.002-.452-.027-.829-.355-.92-.798l-1.669-8.217-8.21597-1.67c-.444-.09-.772-.46701-.799-.91901-.028-.452.252-.866.681-1.009l15.99997-5.333c.36-.122.756-.027 1.024.241s.361.664.242 1.024l-5.334 16.00001c-.137.41-.52.683-.948.683z" fill="#6b7280" fill-rule="evenodd"/></svg>