<svg fill="none" height="64" viewBox="0 0 64 64" width="64" xmlns="http://www.w3.org/2000/svg"><path clip-rule="evenodd" d="m20.9765 24.2631 13.8613 2.8186c1.0507.2107 1.8694 1.0294 2.0827 2.08l2.816 13.8614 9.3813-28.1414zm18.136 31.7357c-.056 0-.1093-.0027-.1626-.0053-1.2054-.072-2.2107-.9467-2.4534-2.128l-4.4506-21.912-21.9094-4.4534c-1.18397-.24-2.05864-1.2453-2.13064-2.4506-.07466-1.2054.672-2.3094 1.816-2.6907l42.66664-14.22134c.96-.32533 2.016-.072 2.7307.64267s.9627 1.77067.6453 2.73067l-14.224 42.6667c-.3653 1.0933-1.3866 1.8213-2.528 1.8213z" fill="#6b7280" fill-rule="evenodd"/></svg>