<svg viewBox="0 0 64 64" fill="none" xmlns="http://www.w3.org/2000/svg">
<path fill-rule="evenodd" clip-rule="evenodd" d="M8.66063 29.4051C8.66063 29.4051 13.9649 21.8787 24.5558 21.1001V18.3695C12.8251 19.2756 2.66667 28.8304 2.66667 28.8304C2.66667 28.8304 8.42022 44.8257 24.5558 46.2904V43.388C12.7148 41.9554 8.66063 29.4051 8.66063 29.4051ZM24.5558 37.6158V40.2739C15.6066 38.7397 13.1225 29.7932 13.1225 29.7932C13.1225 29.7932 17.4194 25.2154 24.5558 24.473V27.3897C24.5504 27.3897 24.5467 27.3881 24.5422 27.3881C20.7966 26.9558 17.8706 30.3209 17.8706 30.3209C17.8706 30.3209 19.5106 35.9857 24.5558 37.6158ZM24.5558 13.3333V18.3695C24.9002 18.3442 25.2446 18.3226 25.5908 18.3113C38.9275 17.879 47.6172 28.8304 47.6172 28.8304C47.6172 28.8304 37.6368 40.5016 27.2389 40.5016C26.2859 40.5016 25.3938 40.4165 24.5558 40.2737V43.388C25.2724 43.4755 26.0153 43.527 26.7906 43.527C36.4665 43.527 43.4639 38.7746 50.2393 33.1503C51.3628 34.0154 55.9619 36.1203 56.9072 37.0418C50.4649 42.2288 35.4508 46.4101 26.9388 46.4101C26.1183 46.4101 25.3304 46.3622 24.5558 46.2904V50.6666H61.3333V13.3333H24.5558ZM24.5558 24.473V21.1001C24.8967 21.0772 25.2401 21.0597 25.5908 21.0491C35.1811 20.7594 41.473 28.9747 41.473 28.9747C41.473 28.9747 34.6773 38.0515 27.3907 38.0515C26.342 38.0515 25.402 37.8894 24.5558 37.6158V27.3897C28.2894 27.8235 29.0405 29.4095 31.2852 33.0082L36.2774 28.9598C36.2774 28.9598 32.6333 24.3635 26.4901 24.3635C25.8223 24.3633 25.1833 24.4084 24.5558 24.473Z" fill="#141414"/>
</svg>