<svg viewBox="0 0 64 64" fill="none" xmlns="http://www.w3.org/2000/svg">
<path fill-rule="evenodd" clip-rule="evenodd" d="M14.7056 42.667L17.8522 39.515C18.8602 38.507 19.4149 37.1683 19.4149 35.7443V23.2723C19.4149 19.6536 20.9882 16.195 23.7349 13.7896C26.5029 11.363 30.0282 10.2963 33.7002 10.779C39.9055 11.603 44.5855 17.2136 44.5855 23.8323V35.7443C44.5855 37.1683 45.1402 38.507 46.1455 39.5123L49.2949 42.667H14.7056ZM37.3323 48.9094C37.3323 51.3067 34.8896 53.3334 31.999 53.3334C29.1083 53.3334 26.6656 51.3067 26.6656 48.9094V48H37.3323V48.9094ZM54.7215 40.555L49.9189 35.7443V23.8323C49.9189 14.5496 43.2469 6.66429 34.3989 5.49362C29.2735 4.81095 24.1002 6.37629 20.2202 9.77895C16.3162 13.1976 14.0815 18.115 14.0815 23.2723L14.0789 35.7443L9.2762 40.555C8.02553 41.8083 7.65486 43.6723 8.3322 45.3069C9.0122 46.9443 10.5935 48.0003 12.3642 48.0003H21.3322V48.9096C21.3322 54.2909 26.1162 58.667 31.9989 58.667C37.8815 58.667 42.6655 54.2909 42.6655 48.9096V48.0003H51.6335C53.4042 48.0003 54.9829 46.9443 55.6602 45.3096C56.3402 43.6723 55.9722 41.8056 54.7215 40.555Z" fill="#141414"/>
</svg>