<svg width="64" height="64" viewBox="0 0 64 64" fill="none" xmlns="http://www.w3.org/2000/svg">
<path d="M27.8945 6.52937C29.8639 4.61713 32.9248 4.49825 35.0303 6.17194L35.4375 6.52937L35.4727 6.56452L56.8828 28.2266C57.808 29.1315 58.332 30.372 58.332 31.6661C58.332 31.6775 58.3311 31.6889 58.3311 31.7003C58.3309 31.7107 58.3323 31.7211 58.332 31.7315L58.3291 31.755C58.3059 33.0028 57.7978 34.191 56.9121 35.0723L56.9141 35.0753L35.4727 56.7696C35.4609 56.7815 35.4495 56.7941 35.4375 56.8057C33.3382 58.8435 29.9992 58.8448 27.8975 56.8096C27.8849 56.7974 27.8717 56.785 27.8594 56.7725L6.41797 35.0772L6.4209 35.0753C5.62872 34.2872 5.13469 33.2542 5.02344 32.1514L5.00781 31.8321L5.00195 31.7813V31.7227L5 31.669L5.00391 31.5792L5.00488 31.5323C5.00547 31.5215 5.00708 31.5108 5.00781 31.5001L5.02344 31.1856C5.13473 30.0823 5.62802 29.0481 6.4209 28.2598H6.41797L27.8594 6.56452C27.8709 6.55286 27.8828 6.54079 27.8945 6.52937ZM29.2422 51.2725V41.0704C29.1236 41.0385 29.0064 41.0048 28.8916 40.9669L14.9551 36.8194L29.2422 51.2725ZM34.4404 40.9688L34.4385 40.9669C34.3244 41.0046 34.2077 41.0387 34.0898 41.0704V51.2696L48.3721 36.8214L34.4404 40.9688ZM10.9473 30.5704L29.2422 36.0147V12.0616L10.9473 30.5704ZM34.0898 36.0147L52.3838 30.5684L34.0898 12.0635V36.0147Z" fill="#141416"/>
</svg>
