<svg viewBox="0 0 64 64" fill="none" xmlns="http://www.w3.org/2000/svg">
<path fill-rule="evenodd" clip-rule="evenodd" d="M55.1507 25.5857C55.7567 23.7005 55.9668 21.7031 55.7672 19.727C55.5676 17.7509 54.9629 15.8418 53.9935 14.1275C52.5565 11.5344 50.3614 9.48139 47.7251 8.26465C45.0888 7.04792 42.1475 6.73037 39.3255 7.35784C38.0527 5.87177 36.4883 4.6845 34.7367 3.87552C32.9851 3.06655 31.0871 2.65452 29.1694 2.66702C26.2844 2.65981 23.4716 3.60199 21.1366 5.35774C18.8017 7.11348 17.0653 9.59207 16.1777 12.4362C14.2982 12.8348 12.5226 13.6447 10.9697 14.8118C9.41682 15.9789 8.12251 17.4762 7.17343 19.2036C5.72491 21.7895 5.1066 24.7851 5.40767 27.7587C5.70873 30.7321 6.91361 33.5296 8.84854 35.7478C8.24269 37.633 8.03251 39.6304 8.23209 41.6065C8.43167 43.5826 9.03638 45.4916 10.0058 47.2061C11.443 49.799 13.638 51.8518 16.2743 53.0686C18.9106 54.2853 21.8519 54.603 24.6737 53.9756C25.9465 55.4617 27.5111 56.6489 29.2625 57.458C31.0141 58.2669 32.9122 58.6789 34.8298 58.6665C37.7164 58.6743 40.5307 57.7317 42.8664 55.9748C45.2023 54.218 46.939 51.7376 47.8259 48.8918C49.7053 48.4932 51.4809 47.6833 53.0339 46.5162C54.5867 45.3491 55.881 43.8517 56.8302 42.1244C58.2769 39.5387 58.8937 36.5438 58.5919 33.5715C58.2901 30.5991 57.0851 27.8029 55.1507 25.5857ZM34.8342 55.0056C32.4646 55.0091 30.1695 54.1494 28.35 52.5769C28.432 52.5306 28.5759 52.4488 28.6697 52.3893L39.4322 45.9486C39.7023 45.7894 39.9266 45.5586 40.082 45.2797C40.2376 45.0008 40.3185 44.6841 40.3166 44.3623V28.6426L44.8657 31.364C44.8895 31.3763 44.91 31.3945 44.9256 31.417C44.941 31.4396 44.9507 31.4657 44.9541 31.493V44.5112C44.9507 47.2918 43.8837 49.9575 41.9868 51.9245C40.09 53.8916 37.5179 54.9996 34.8342 55.0056ZM13.0704 45.3757C11.8836 43.2511 11.4558 40.7617 11.862 38.3432C11.942 38.3929 12.0815 38.4813 12.1817 38.5409L22.9442 44.9815C23.2124 45.1439 23.5175 45.2296 23.8282 45.2296C24.1387 45.2296 24.4439 45.1439 24.7121 44.9815L37.8519 37.1212V42.5638C37.8534 42.5915 37.8483 42.6194 37.8369 42.6446C37.8256 42.6698 37.8084 42.6918 37.7869 42.7084L26.9072 49.2163C24.5801 50.605 21.8162 50.9803 19.2222 50.2603C16.6282 49.5403 14.4158 47.7836 13.0704 45.3757ZM10.2391 21.0339C11.4209 18.9065 13.2873 17.2777 15.5117 16.4325C15.5117 16.5286 15.5064 16.6987 15.5064 16.8167V29.698C15.5045 30.0197 15.5853 30.3361 15.7406 30.6148C15.8958 30.8934 16.1199 31.1241 16.3898 31.2833L29.5296 39.1426L24.9806 41.8638C24.9582 41.8792 24.9324 41.8885 24.9056 41.891C24.8788 41.8935 24.8518 41.8892 24.8271 41.8782L13.9463 35.3647C11.6233 33.9709 9.92846 31.6797 9.23351 28.9932C8.53857 26.3069 8.90021 23.4446 10.2391 21.0339ZM47.6139 30.0446L34.4739 22.1843L39.023 19.4641C39.0454 19.4488 39.0712 19.4394 39.098 19.4369C39.1247 19.4344 39.1516 19.4389 39.1764 19.4498L50.0572 25.9577C51.7242 26.9554 53.0823 28.4242 53.9726 30.1926C54.8629 31.9609 55.2484 33.9554 55.0842 35.9425C54.9201 37.9297 54.2126 39.8272 53.0452 41.413C51.8777 42.9988 50.2983 44.2071 48.4918 44.8965C48.4918 44.7993 48.4918 44.6294 48.4918 44.5112V31.6299C48.4944 31.3088 48.4144 30.9927 48.2601 30.7141C48.1058 30.4355 47.8828 30.2045 47.6139 30.0446ZM52.1415 22.9847C52.0616 22.9339 51.922 22.8466 51.8219 22.7871L41.0593 16.3464C40.7911 16.1843 40.4861 16.0988 40.1754 16.0988C39.8649 16.0988 39.5597 16.1843 39.2915 16.3464L26.1517 24.2069V18.7642C26.1502 18.7364 26.1553 18.7087 26.1667 18.6835C26.178 18.6583 26.1952 18.6363 26.2167 18.6196L37.0964 12.1171C38.7631 11.1214 40.6692 10.638 42.5914 10.7235C44.5137 10.809 46.3725 11.4598 47.9509 12.5999C49.5291 13.7399 50.7614 15.322 51.5035 17.1611C52.2457 19.0001 52.467 21.0201 52.1415 22.9847ZM23.6785 32.6854L19.1283 29.9641C19.1045 29.9518 19.0838 29.9336 19.0684 29.911C19.053 29.8885 19.0432 29.8623 19.0399 29.8349V16.8167C19.0411 14.8229 19.5906 12.8706 20.6238 11.1885C21.6572 9.50636 23.1316 8.16397 24.8745 7.31844C26.6175 6.47291 28.5567 6.15925 30.4655 6.41413C32.3744 6.66901 34.1735 7.48192 35.6525 8.75769C35.5705 8.80405 35.4277 8.88576 35.3328 8.94537L24.5703 15.386C24.3002 15.545 24.076 15.7757 23.9205 16.0544C23.7651 16.333 23.6841 16.6495 23.6859 16.9712L23.6785 32.6854ZM26.1495 27.1655L32.0018 23.6637L37.854 27.1632V34.1647L32.0018 37.6644L26.1495 34.1647V27.1655Z" fill="#141414"/>
</svg>