<svg fill="none" height="24" viewBox="0 0 24 24" width="24" xmlns="http://www.w3.org/2000/svg"><path clip-rule="evenodd" d="m12 6.00007c-.552 0-1-.448-1-1s.448-1 1-1 1 .448 1 1-.448 1-1 1zm3-1.00007c0-1.654-1.346-3-3-3s-3 1.346-3 3c0 1.302.839 2.401 2 2.815v13.185c0 .553.447 1 1 1s1-.447 1-1v-13.185c1.161-.414 2-1.513 2-2.815zm-9.00003 13.0001c-.552 0-1-.448-1-1s.448-1 1-1 1 .448 1 1-.448 1-1 1zm1.00003-3.8151v-11.185c0-.553-.447-1-1-1s-1 .447-1 1v11.185c-1.161.414-2 1.513-2 2.815s.839 2.401 2 2.815v1.185c0 .553.447 1 1 1s1-.447 1-1v-1.185c1.161-.414 2-1.513 2-2.815s-.839-2.401-2-2.815zm11-.1851c-.552 0-1-.448-1-1s.448-1 1-1 1 .448 1 1-.448 1-1 1zm3-.9999c0-1.302-.839-2.401-2-2.815v-7.185c0-.553-.447-1-1-1s-1 .447-1 1v7.185c-1.161.414-2 1.513-2 2.815s.839 2.401 2 2.815v5.185c0 .553.447 1 1 1s1-.447 1-1v-5.185c1.161-.414 2-1.513 2-2.815z" fill="#6b7280" fill-rule="evenodd"/></svg>