<svg fill="none" height="64" viewBox="0 0 64 64" width="64" xmlns="http://www.w3.org/2000/svg"><path clip-rule="evenodd" d="m31.9999 16.0003c-1.472 0-2.6667-1.1946-2.6667-2.6666s1.1947-2.6667 2.6667-2.6667 2.6667 1.1947 2.6667 2.6667-1.1947 2.6666-2.6667 2.6666zm8.0001-2.6668c0-4.41067-3.5893-8-8-8s-8 3.58933-8 8c0 3.472 2.2373 6.4027 5.3333 7.5067v35.16c0 1.4746 1.192 2.6666 2.6667 2.6666s2.6667-1.192 2.6667-2.6666v-35.16c3.096-1.104 5.3333-4.0347 5.3333-7.5067zm-24.0001 34.6668c-1.472 0-2.6667-1.1946-2.6667-2.6666s1.1947-2.6667 2.6667-2.6667 2.6667 1.1947 2.6667 2.6667-1.1947 2.6666-2.6667 2.6666zm2.6668-10.1735v-29.82664c0-1.47466-1.192-2.66666-2.6667-2.66666s-2.6667 1.192-2.6667 2.66666v29.82664c-3.096 1.104-5.3333 4.0347-5.3333 7.5067s2.2373 6.4027 5.3333 7.5067v3.16c0 1.4746 1.192 2.6666 2.6667 2.6666s2.6667-1.192 2.6667-2.6666v-3.16c3.096-1.104 5.3333-4.0347 5.3333-7.5067s-2.2373-6.4027-5.3333-7.5067zm29.3332-.4935c-1.472 0-2.6667-1.1946-2.6667-2.6666s1.1947-2.6667 2.6667-2.6667 2.6667 1.1947 2.6667 2.6667-1.1947 2.6666-2.6667 2.6666zm8.0001-2.6665c0-3.472-2.2373-6.4026-5.3333-7.5066v-19.16004c0-1.47466-1.192-2.66666-2.6667-2.66666s-2.6667 1.192-2.6667 2.66666v19.16004c-3.096 1.104-5.3333 4.0346-5.3333 7.5066s2.2373 6.4027 5.3333 7.5067v13.8267c0 1.4746 1.192 2.6666 2.6667 2.6666s2.6667-1.192 2.6667-2.6666v-13.8267c3.096-1.104 5.3333-4.0347 5.3333-7.5067z" fill="#6b7280" fill-rule="evenodd"/></svg>