<svg fill="none" height="64" viewBox="0 0 64 64" width="64" xmlns="http://www.w3.org/2000/svg"><path clip-rule="evenodd" d="m29.3334 50.6668c-1.472 0-2.6667-1.1946-2.6667-2.6666s1.1947-2.6667 2.6667-2.6667 2.6667 1.1947 2.6667 2.6667-1.1947 2.6666-2.6667 2.6666zm26.6666-5.3335h-19.16c-1.104-3.096-4.0346-5.3333-7.5066-5.3333s-6.4027 2.2373-7.5067 5.3333h-13.82666c-1.47467 0-2.66667 1.192-2.66667 2.6667s1.192 2.6667 2.66667 2.6667h13.82666c1.104 3.096 4.0347 5.3333 7.5067 5.3333s6.4026-2.2373 7.5066-5.3333h19.16c1.4747 0 2.6667-1.192 2.6667-2.6667s-1.192-2.6667-2.6667-2.6667zm-5.3333-10.6665c-1.472 0-2.6667-1.1946-2.6667-2.6666s1.1947-2.6667 2.6667-2.6667 2.6666 1.1947 2.6666 2.6667-1.1946 2.6666-2.6666 2.6666zm0-10.6668c-3.472 0-6.4027 2.2373-7.5067 5.3333h-35.15996c-1.47467 0-2.66667 1.192-2.66667 2.6667s1.192 2.6667 2.66667 2.6667h35.15996c1.104 3.096 4.0347 5.3333 7.5067 5.3333 4.4107 0 8-3.5893 8-8s-3.5893-8-8-8zm-32-10.6665c1.472 0 2.6666 1.1947 2.6666 2.6667s-1.1946 2.6666-2.6666 2.6666-2.6667-1.1946-2.6667-2.6666 1.1947-2.6667 2.6667-2.6667zm-10.66666 5.3332h3.15996c1.104 3.096 4.0347 5.3333 7.5067 5.3333s6.4027-2.2373 7.5067-5.3333h29.8266c1.4747 0 2.6667-1.192 2.6667-2.6667s-1.192-2.6667-2.6667-2.6667h-29.8266c-1.104-3.096-4.0347-5.3333-7.5067-5.3333s-6.4027 2.2373-7.5067 5.3333h-3.15996c-1.47467 0-2.66667 1.192-2.66667 2.6667s1.192 2.6667 2.66667 2.6667z" fill="#6b7280" fill-rule="evenodd"/></svg>