<svg fill="none" height="64" viewBox="0 0 64 64" width="64" xmlns="http://www.w3.org/2000/svg"><path clip-rule="evenodd" d="m50.6667 50.6667h-22.6293l9.4907-10.1814h13.1386zm-37.3333-5.0907v-5.576h10.1813v5.576c0 2.808-2.2827 5.0907-5.0907 5.0907s-5.0906-2.2827-5.0906-5.0907zm0-24.2425h10.1813v-8h-10.1813zm0 13.333h10.1813v-8h-10.1813zm22.4585-14.4318 7.128 6.648-14.072 15.0906v-14.2906zm17.5414 14.9173h-10.8346l6.1386-6.584c1.0054-1.0747.9467-2.7627-.1333-3.768l-11.0267-10.2853c-.52-.48-1.1813-.7574-1.912-.712-.7066.024-1.376.328-1.856.8453l-4.8613 5.2133v-9.1946c0-1.4747-1.192-2.6667-2.6667-2.6667h-15.5146c-1.4747 0-2.6667 1.192-2.6667 2.6667v34.9093c0 5.7467 4.6773 10.424 10.424 10.424h34.9093c1.4747 0 2.6667-1.192 2.6667-2.6667v-15.5146c0-1.4747-1.192-2.6667-2.6667-2.6667z" fill="#6b7280" fill-rule="evenodd"/></svg>