<svg fill="none" height="24" viewBox="0 0 24 24" width="24" xmlns="http://www.w3.org/2000/svg"><path clip-rule="evenodd" d="m19 19h-8.486l3.559-3.818h4.927zm-13.99998-1.909v-2.091h3.818v2.091c0 1.053-.856 1.909-1.909 1.909s-1.909-.856-1.909-1.909zm0-9.09094h3.818v-2.99999h-3.818zm0 4.99984h3.818v-2.99997h-3.818zm8.42198-5.4119 2.673 2.493-5.277 5.659v-5.359zm6.578 5.594h-4.063l2.302-2.469c.377-.403.355-1.036-.05-1.413l-4.135-3.857c-.195-.18-.443-.284-.717-.267-.265.009-.516.123-.696.317l-1.823 1.955v-3.448c0-.553-.447-1-1-1h-5.818c-.553 0-1 .447-1 1v13.091c0 2.155 1.754 3.909 3.909 3.909h13.091c.553 0 1-.447 1-1v-5.818c0-.553-.447-1-1-1z" fill="#6b7280" fill-rule="evenodd"/></svg>