<svg fill="none" height="64" viewBox="0 0 64 64" width="64" xmlns="http://www.w3.org/2000/svg"><path clip-rule="evenodd" d="m40 47.5677-4.9493-14.8453 14.848-14.8507zm6.128-33.4668-14.848 14.848-14.848-4.9493zm12.512-6.23984c-.0133-.248-.0586-.488-.1413-.72-.0267-.08266-.056-.16266-.0933-.24266-.128-.28534-.2907-.55467-.52-.784-.2294-.22934-.4987-.392-.7867-.52-.0773-.03734-.1547-.06667-.2373-.09334-.2374-.08266-.48-.13066-.7334-.144-.0586-.00266-.112-.016-.1733-.016-.2667.00534-.536.04267-.7973.128l-48.00003 16.00004c-1.09066.3653-1.824 1.3813-1.824 2.5306 0 1.1494.73334 2.168 1.824 2.5307l22.73333 7.5787 7.5813 22.736c.3627 1.088 1.3787 1.8213 2.528 1.8213 1.1494 0 2.1654-.7333 2.528-1.8213l16-48.00004c.0854-.264.1254-.53066.128-.79733.0027-.064-.0133-.12267-.016-.18667z" fill="#6b7280" fill-rule="evenodd"/></svg>