<svg fill="none" height="64" viewBox="0 0 64 64" width="64" xmlns="http://www.w3.org/2000/svg"><path clip-rule="evenodd" d="m21.3334 24.0002c0-1.4667 1.2-2.6667 2.6666-2.6667 1.4667 0 2.6667 1.2 2.6667 2.6667v16c0 1.4666-1.2 2.6666-2.6667 2.6666-1.4666 0-2.6666-1.2-2.6666-2.6666zm15.9986 0c0-1.4667 1.2-2.6667 2.6667-2.6667 1.4666 0 2.6666 1.2 2.6666 2.6667v16c0 1.4666-1.2 2.6666-2.6666 2.6666-1.4667 0-2.6667-1.2-2.6667-2.6666zm-5.3319 29.3335c-11.7627 0-21.3333-9.5707-21.3333-21.3334 0-11.7626 9.5706-21.3333 21.3333-21.3333s21.3333 9.5707 21.3333 21.3333c0 11.7627-9.5706 21.3334-21.3333 21.3334zm-.0001-48.0002c-14.704 0-26.66662 11.9627-26.66662 26.6667s11.96262 26.6666 26.66662 26.6666 26.6667-11.9626 26.6667-26.6666-11.9627-26.6667-26.6667-26.6667z" fill="#6b7280" fill-rule="evenodd"/></svg>