<svg fill="none" height="24" viewBox="0 0 24 24" width="24" xmlns="http://www.w3.org/2000/svg"><path clip-rule="evenodd" d="m18 10c0-.551-.448-1-1-1s-1 .449-1 1 .448 1 1 1 1-.449 1-1zm2-.00006c0 1.65396-1.346 2.99996-3 2.99996s-3-1.346-3-2.99996c0-1.65401 1.346-3.00001 3-3.00001s3 1.346 3 3.00001zm-9-2.99987c0-1.103-.897-2-1.99998-2-1.103 0-2 .897-2 2s.897 2 2 2c1.10298 0 1.99998-.897 1.99998-2zm2-.00007c0 2.206-1.794 4-4 4s-4-1.794-4-4 1.794-4 4-4 4 1.794 4 4zm.94 8.0459c.869-.672 1.939-1.046 3.06-1.046 2.757 0 5 2.243 5 5 0 .552-.447 1-1 1s-1-.448-1-1c0-1.654-1.346-3-3-3-.683 0-1.332.234-1.856.649.544.996.856 2.138.856 3.351 0 .552-.447 1-1 1s-1-.448-1-1c0-2.757-2.243-5-5-5s-5 2.243-5 5c0 .552-.447 1-1 1s-1-.448-1-1c0-3.86 3.141-7 7-7 1.927 0 3.673.783 4.94 2.046z" fill="#6b7280" fill-rule="evenodd"/></svg>