<svg fill="none" height="64" viewBox="0 0 64 64" width="64" xmlns="http://www.w3.org/2000/svg"><path clip-rule="evenodd" d="m48.0001 26.6667c0-1.4694-1.1947-2.6667-2.6667-2.6667s-2.6666 1.1973-2.6666 2.6667c0 1.4693 1.1946 2.6666 2.6666 2.6666s2.6667-1.1973 2.6667-2.6666zm5.3333-.0002c0 4.4107-3.5894 8-8 8-4.4107 0-8-3.5893-8-8s3.5893-8 8-8c4.4106 0 8 3.5893 8 8zm-24-7.9997c0-2.9413-2.392-5.3333-5.3333-5.3333s-5.3333 2.392-5.3333 5.3333c0 2.9414 2.392 5.3334 5.3333 5.3334s5.3333-2.392 5.3333-5.3334zm5.3333-.0001c0 5.8826-4.784 10.6666-10.6667 10.6666-5.8826 0-10.6666-4.784-10.6666-10.6666 0-5.8827 4.784-10.6667 10.6666-10.6667 5.8827 0 10.6667 4.784 10.6667 10.6667zm2.5067 21.4558c2.3173-1.792 5.1706-2.7893 8.16-2.7893 7.352 0 13.3333 5.9813 13.3333 13.3333 0 1.472-1.192 2.6667-2.6667 2.6667-1.4746 0-2.6666-1.1947-2.6666-2.6667 0-4.4107-3.5894-8-8-8-1.8214 0-3.552.624-4.9494 1.7307 1.4507 2.656 2.2827 5.7013 2.2827 8.936 0 1.472-1.192 2.6666-2.6667 2.6666-1.4746 0-2.6666-1.1946-2.6666-2.6666 0-7.352-5.9814-13.3334-13.3334-13.3334s-13.3333 5.9814-13.3333 13.3334c0 1.472-1.19199 2.6666-2.66666 2.6666-1.47466 0-2.66666-1.1946-2.66666-2.6666 0-10.2934 8.37602-18.6667 18.66662-18.6667 5.1387 0 9.7947 2.088 13.1734 5.456z" fill="#6b7280" fill-rule="evenodd"/></svg>