<svg fill="none" height="24" viewBox="0 0 24 24" width="24" xmlns="http://www.w3.org/2000/svg"><path clip-rule="evenodd" d="m19.7397 4.26076c-.347-.348-.91-.348-1.257 0l-14.22201 14.22204c-.174.174-.261.401-.261.629 0 .227.087.455.261.628.347.347.909.347 1.257 0l14.22201-14.22204c.347-.348.347-.91 0-1.257zm-3.7397 14.73934c-.827 0-1.5-.673-1.5-1.5s.673-1.5 1.5-1.5 1.5.673 1.5 1.5-.673 1.5-1.5 1.5zm0-4.9999c-1.93 0-3.5 1.57-3.5 3.5s1.57 3.5 3.5 3.5 3.5-1.57 3.5-3.5-1.57-3.5-3.5-3.5zm-8.00001-8.00008c.827 0 1.5.673 1.5 1.5s-.673 1.5-1.5 1.5-1.5-.673-1.5-1.5.673-1.5 1.5-1.5zm.00003 4.99998c1.93 0 3.49998-1.57004 3.49998-3.50004s-1.56998-3.5-3.49998-3.5-3.5 1.57-3.5 3.5 1.57 3.50004 3.5 3.50004z" fill="#6b7280" fill-rule="evenodd"/></svg>