<svg width="24" height="24" viewBox="0 0 24 24" fill="none" xmlns="http://www.w3.org/2000/svg">
<g id="Icon/Outline/percent">
<path id="Mask" fill-rule="evenodd" clip-rule="evenodd" d="M19.7397 4.26069C19.3927 3.91269 18.8297 3.91269 18.4827 4.26069L4.26069 18.4827C4.08669 18.6567 3.99969 18.8837 3.99969 19.1117C3.99969 19.3387 4.08669 19.5667 4.26069 19.7397C4.60769 20.0867 5.16969 20.0867 5.51769 19.7397L19.7397 5.51769C20.0867 5.16969 20.0867 4.60769 19.7397 4.26069ZM16 19C15.173 19 14.5 18.327 14.5 17.5C14.5 16.673 15.173 16 16 16C16.827 16 17.5 16.673 17.5 17.5C17.5 18.327 16.827 19 16 19ZM16 14C14.07 14 12.5 15.57 12.5 17.5C12.5 19.43 14.07 21 16 21C17.93 21 19.5 19.43 19.5 17.5C19.5 15.57 17.93 14 16 14ZM7.99999 5.99999C8.82699 5.99999 9.49999 6.67299 9.49999 7.49999C9.49999 8.32699 8.82699 8.99999 7.99999 8.99999C7.17299 8.99999 6.49999 8.32699 6.49999 7.49999C6.49999 6.67299 7.17299 5.99999 7.99999 5.99999ZM7.99999 11C9.92999 11 11.5 9.42999 11.5 7.49999C11.5 5.56999 9.92999 3.99999 7.99999 3.99999C6.06999 3.99999 4.49999 5.56999 4.49999 7.49999C4.49999 9.42999 6.06999 11 7.99999 11Z" fill="#231F20"/>
<mask id="mask0" mask-type="alpha" maskUnits="userSpaceOnUse" x="3" y="3" width="17" height="18">
<path id="Mask_2" fill-rule="evenodd" clip-rule="evenodd" d="M19.7397 4.26069C19.3927 3.91269 18.8297 3.91269 18.4827 4.26069L4.26069 18.4827C4.08669 18.6567 3.99969 18.8837 3.99969 19.1117C3.99969 19.3387 4.08669 19.5667 4.26069 19.7397C4.60769 20.0867 5.16969 20.0867 5.51769 19.7397L19.7397 5.51769C20.0867 5.16969 20.0867 4.60769 19.7397 4.26069ZM16 19C15.173 19 14.5 18.327 14.5 17.5C14.5 16.673 15.173 16 16 16C16.827 16 17.5 16.673 17.5 17.5C17.5 18.327 16.827 19 16 19ZM16 14C14.07 14 12.5 15.57 12.5 17.5C12.5 19.43 14.07 21 16 21C17.93 21 19.5 19.43 19.5 17.5C19.5 15.57 17.93 14 16 14ZM7.99999 5.99999C8.82699 5.99999 9.49999 6.67299 9.49999 7.49999C9.49999 8.32699 8.82699 8.99999 7.99999 8.99999C7.17299 8.99999 6.49999 8.32699 6.49999 7.49999C6.49999 6.67299 7.17299 5.99999 7.99999 5.99999ZM7.99999 11C9.92999 11 11.5 9.42999 11.5 7.49999C11.5 5.56999 9.92999 3.99999 7.99999 3.99999C6.06999 3.99999 4.49999 5.56999 4.49999 7.49999C4.49999 9.42999 6.06999 11 7.99999 11Z" fill="white"/>
</mask>
<g mask="url(#mask0)">
<g id="&#240;&#159;&#142;&#168; Color">
<rect id="Base" width="24" height="24" fill="#0D1C2E"/>
</g>
</g>
</g>
</svg>
