<svg fill="none" height="64" viewBox="0 0 64 64" width="64" xmlns="http://www.w3.org/2000/svg"><path clip-rule="evenodd" d="m26.6667 13.3335c2.9413 0 5.3333 2.392 5.3333 5.3333 0 2.9414-2.392 5.3334-5.3333 5.3334s-5.3333-2.392-5.3333-5.3334c0-2.9413 2.392-5.3333 5.3333-5.3333zm0 15.9998c5.8826 0 10.6666-4.784 10.6666-10.6666 0-5.8827-4.784-10.6667-10.6666-10.6667-5.8827 0-10.6667 4.784-10.6667 10.6667 0 5.8826 4.784 10.6666 10.6667 10.6666zm31.0831-18.0119c-1.112-.9653-2.7946-.8506-3.7626.2614l-4.976 5.72-1.6907-1.8907c-.9787-1.0987-2.664-1.192-3.7653-.208-1.096.9813-1.192 2.6693-.208 3.7653l3.704 4.1414c.5066.5653 1.2293.888 1.9866.888h.0187c.7653-.0054 1.4933-.3387 1.9947-.9147l6.9626-8c.9654-1.112.848-2.7973-.264-3.7627zm-49.7498 42.0118c0-10.2934 8.376-18.6667 18.6667-18.6667 10.2906 0 18.6666 8.3733 18.6666 18.6667 0 1.472-1.192 2.6666-2.6666 2.6666-1.4747 0-2.6667-1.1946-2.6667-2.6666 0-7.352-5.9813-13.3334-13.3333-13.3334s-13.3334 5.9814-13.3334 13.3334c0 1.472-1.192 2.6666-2.6666 2.6666-1.4747 0-2.6667-1.1946-2.6667-2.6666z" fill="#6b7280" fill-rule="evenodd"/></svg>