<svg fill="none" height="24" viewBox="0 0 24 24" width="24" xmlns="http://www.w3.org/2000/svg"><path clip-rule="evenodd" d="m10 5.00007c1.103 0 2 .897 2 2s-.897 2-2 2c-1.10298 0-1.99998-.897-1.99998-2s.897-2 1.99998-2zm0 5.99993c2.206 0 4-1.794 4-4s-1.794-4-4-4-4 1.794-4 4 1.794 4 4 4zm0 1.9999c-3.859 0-7 3.14-7 7 0 .552.447 1 1 1s1-.448 1-1c0-2.757 2.243-5 5-5s5 2.243 5 5c0 .552.447 1 1 1s1-.448 1-1c0-3.86-3.141-7-7-7zm10-6.99997h1c.55 0 1 .45 1 1s-.45 1.00001-1 1.00001h-1v1c0 .55-.45 1-1 1s-1-.45-1-1v-1h-1c-.55 0-1-.45001-1-1.00001s.45-1 1-1h1v-1c0-.55.45-1 1-1s1 .45 1 1z" fill="#6b7280" fill-rule="evenodd"/></svg>