<svg fill="none" height="64" viewBox="0 0 64 64" width="64" xmlns="http://www.w3.org/2000/svg"><path clip-rule="evenodd" d="m37.3334 18.6668c0-2.9413-2.392-5.3333-5.3333-5.3333-2.9414 0-5.3334 2.392-5.3334 5.3333 0 2.9414 2.392 5.3334 5.3334 5.3334 2.9413 0 5.3333-2.392 5.3333-5.3334zm5.3333-.0001c0 5.8826-4.784 10.6666-10.6667 10.6666-5.8826 0-10.6666-4.784-10.6666-10.6666 0-5.8827 4.784-10.6667 10.6666-10.6667 5.8827 0 10.6667 4.784 10.6667 10.6667zm-29.3333 34.6665c0-10.2934 8.376-18.6667 18.6666-18.6667 10.2907 0 18.6667 8.3733 18.6667 18.6667 0 1.472-1.192 2.6666-2.6667 2.6666-1.4746 0-2.6666-1.1946-2.6666-2.6666 0-7.352-5.9814-13.3334-13.3334-13.3334s-13.3333 5.9814-13.3333 13.3334c0 1.472-1.192 2.6666-2.6667 2.6666-1.4746 0-2.6666-1.1946-2.6666-2.6666z" fill="#6b7280" fill-rule="evenodd"/></svg>