<svg fill="none" height="24" viewBox="0 0 24 24" width="24" xmlns="http://www.w3.org/2000/svg"><path clip-rule="evenodd" d="m10 5.00007c1.103 0 2 .897 2 2s-.897 2-2 2c-1.10298 0-1.99998-.897-1.99998-2s.897-2 1.99998-2zm0 5.99993c2.206 0 4-1.794 4-4s-1.794-4-4-4-4 1.794-4 4 1.794 4 4 4zm10.4648-3.50013.733-.732c.403-.404.403-1.063 0-1.466s-1.062-.403-1.465 0l-.733.733-.732-.733c-.404-.403-1.063-.403-1.466 0-.402.403-.402 1.062 0 1.466l.733.732-.733.732c-.402.404-.402 1.063 0 1.466.403.40303 1.062.40303 1.466 0l.732-.733.733.733c.403.40303 1.062.40303 1.465 0 .403-.403.403-1.062 0-1.466zm-17.4648 12.50003c0-3.859 3.141-7 7-7s7 3.141 7 7c0 .553-.447 1-1 1s-1-.447-1-1c0-2.757-2.243-5-5-5s-5 2.243-5 5c0 .553-.447 1-1 1s-1-.447-1-1z" fill="#6b7280" fill-rule="evenodd"/></svg>