<svg width="24" height="24" viewBox="0 0 24 24" fill="none" xmlns="http://www.w3.org/2000/svg">
<g id="Icon/Outline/phone-missed">
<path id="Mask" fill-rule="evenodd" clip-rule="evenodd" d="M4.0004 6.6C4.0004 13.988 10.0114 20 17.4004 20C18.8344 20 20.0004 18.834 20.0004 17.4C20.0004 17.289 19.9934 17.18 19.9784 17.072L15.3584 16.012C15.3172 16.0903 15.2747 16.172 15.2318 16.2543C15.1788 16.356 15.1253 16.4586 15.0734 16.557L15.0648 16.5734C14.6143 17.4349 14.2891 18.0569 13.4464 17.72C10.1394 16.56 7.4404 13.86 6.2654 10.514C5.9434 9.711 6.5724 9.382 7.4434 8.927C7.6214 8.833 7.8124 8.733 7.9884 8.642L6.9274 4.021C6.8174 4.007 6.7094 4 6.5994 4C5.1664 4 4.0004 5.166 4.0004 6.6ZM21.7514 15.908C21.8334 16.144 21.8954 16.389 21.9354 16.639C21.9774 16.887 22.0004 17.142 22.0004 17.4C22.0004 19.937 19.9364 22 17.4004 22C8.9084 22 2.0004 15.092 2.0004 6.6C2.0004 4.063 4.0634 2 6.5994 2C6.8604 2 7.1164 2.022 7.3654 2.065C7.6084 2.104 7.8544 2.166 8.0914 2.249C8.4174 2.361 8.6614 2.634 8.7384 2.97L10.1074 8.934C10.1824 9.262 10.0884 9.606 9.8544 9.85C9.7174 9.992 9.7134 9.995 8.4744 10.645C9.4654 12.807 11.2144 14.553 13.3544 15.527C14.0044 14.285 14.0074 14.282 14.1504 14.146C14.3934 13.912 14.7374 13.819 15.0664 13.893L21.0304 15.262C21.3664 15.339 21.6384 15.583 21.7514 15.908ZM17.2678 8.6982C16.8638 9.1002 16.2048 9.1002 15.8018 8.6982C15.3998 8.2952 15.3998 7.6362 15.8018 7.2322L16.5348 6.5002L15.8018 5.7672C15.3998 5.3642 15.3998 4.7052 15.8018 4.3022C16.2048 3.8992 16.8638 3.8992 17.2678 4.3022L17.9998 5.0352L18.7328 4.3022C19.1358 3.8992 19.7948 3.8992 20.1978 4.3022C20.6008 4.7052 20.6008 5.3642 20.1978 5.7672L19.4648 6.5002L20.1978 7.2322C20.6008 7.6362 20.6008 8.2952 20.1978 8.6982C19.7948 9.1002 19.1358 9.1002 18.7328 8.6982L17.9998 7.9652L17.2678 8.6982Z" fill="#231F20"/>
<mask id="mask0" mask-type="alpha" maskUnits="userSpaceOnUse" x="2" y="2" width="21" height="20">
<path id="Mask_2" fill-rule="evenodd" clip-rule="evenodd" d="M4.0004 6.6C4.0004 13.988 10.0114 20 17.4004 20C18.8344 20 20.0004 18.834 20.0004 17.4C20.0004 17.289 19.9934 17.18 19.9784 17.072L15.3584 16.012C15.3172 16.0903 15.2747 16.172 15.2318 16.2543C15.1788 16.356 15.1253 16.4586 15.0734 16.557L15.0648 16.5734C14.6143 17.4349 14.2891 18.0569 13.4464 17.72C10.1394 16.56 7.4404 13.86 6.2654 10.514C5.9434 9.711 6.5724 9.382 7.4434 8.927C7.6214 8.833 7.8124 8.733 7.9884 8.642L6.9274 4.021C6.8174 4.007 6.7094 4 6.5994 4C5.1664 4 4.0004 5.166 4.0004 6.6ZM21.7514 15.908C21.8334 16.144 21.8954 16.389 21.9354 16.639C21.9774 16.887 22.0004 17.142 22.0004 17.4C22.0004 19.937 19.9364 22 17.4004 22C8.9084 22 2.0004 15.092 2.0004 6.6C2.0004 4.063 4.0634 2 6.5994 2C6.8604 2 7.1164 2.022 7.3654 2.065C7.6084 2.104 7.8544 2.166 8.0914 2.249C8.4174 2.361 8.6614 2.634 8.7384 2.97L10.1074 8.934C10.1824 9.262 10.0884 9.606 9.8544 9.85C9.7174 9.992 9.7134 9.995 8.4744 10.645C9.4654 12.807 11.2144 14.553 13.3544 15.527C14.0044 14.285 14.0074 14.282 14.1504 14.146C14.3934 13.912 14.7374 13.819 15.0664 13.893L21.0304 15.262C21.3664 15.339 21.6384 15.583 21.7514 15.908ZM17.2678 8.6982C16.8638 9.1002 16.2048 9.1002 15.8018 8.6982C15.3998 8.2952 15.3998 7.6362 15.8018 7.2322L16.5348 6.5002L15.8018 5.7672C15.3998 5.3642 15.3998 4.7052 15.8018 4.3022C16.2048 3.8992 16.8638 3.8992 17.2678 4.3022L17.9998 5.0352L18.7328 4.3022C19.1358 3.8992 19.7948 3.8992 20.1978 4.3022C20.6008 4.7052 20.6008 5.3642 20.1978 5.7672L19.4648 6.5002L20.1978 7.2322C20.6008 7.6362 20.6008 8.2952 20.1978 8.6982C19.7948 9.1002 19.1358 9.1002 18.7328 8.6982L17.9998 7.9652L17.2678 8.6982Z" fill="white"/>
</mask>
<g mask="url(#mask0)">
<g id="&#240;&#159;&#142;&#168; Color">
<rect id="Base" width="24" height="24" fill="#0D1C2E"/>
</g>
</g>
</g>
</svg>
