<svg fill="none" height="24" viewBox="0 0 24 24" width="24" xmlns="http://www.w3.org/2000/svg"><path clip-rule="evenodd" d="m4.00038 6.60006c0 7.38804 6.01102 13.40004 13.40002 13.40004 1.434 0 2.6-1.166 2.6-2.6 0-.111-.007-.22-.022-.328l-4.62-1.06c-.0412.0783-.0837.1599-.1266.2423-.053.1016-.1065.2043-.1584.3027l-.0086.0164c-.4505.8615-.7758 1.4834-1.6184 1.1466-3.307-1.16-6.00602-3.86-7.18102-7.206-.322-.80304.307-1.13204 1.178-1.58704.178-.094.369-.194.545-.285l-1.061-4.621c-.11-.01399-.218-.02099-.328-.02099-1.433 0-2.599 1.16599-2.599 2.59999zm17.75102 9.30794c.082.236.144.481.184.731.042.248.065.503.065.761 0 2.537-2.064 4.6-4.6 4.6-8.49203 0-15.40003-6.908-15.40003-15.4 0-2.537 2.063-4.6 4.599-4.6.261 0 .517.022.766.065.243.039.489.101.726.184.326.112.57.385.647.721l1.36903 5.964c.075.328-.019.672-.25303.916-.137.142-.141.145-1.38.795.991 2.162 2.74003 3.908 4.88003 4.882.65-1.242.653-1.245.796-1.381.243-.234.587-.327.916-.253l5.964 1.369c.336.077.608.321.721.646zm-4.4836-7.20973c-.404.402-1.063.402-1.466 0-.402-.403-.402-1.062 0-1.466l.733-.732-.733-.733c-.402-.403-.402-1.062 0-1.465.403-.403 1.062-.403 1.466 0l.732.733.733-.733c.403-.403 1.062-.403 1.465 0s.403 1.062 0 1.465l-.733.733.733.732c.403.404.403 1.063 0 1.466-.403.402-1.062.402-1.465 0l-.733-.733z" fill="#6b7280" fill-rule="evenodd"/></svg>