<svg fill="none" height="64" viewBox="0 0 64 64" width="64" xmlns="http://www.w3.org/2000/svg"><path clip-rule="evenodd" d="m56.2845 0h-25.126c-2.4705 0-4.4918 1.96364-4.4918 4.36364v6.54546h4.4918v-2.66668h25.126v50.42428h-25.126v-5.5758h-4.4918v6.5455c0 2.4 2.0213 4.3636 4.4918 4.3636h25.126c2.4705 0 4.4918-1.9636 4.4918-4.3636v-55.27276c0-2.4-2.0213-4.36364-4.4918-4.36364zm-9.4697 5.33333h-8.2963c-.6518 0-1.1852-.6-1.1852-1.33333s.5334-1.33333 1.1852-1.33333h8.2963c.6519 0 1.1852.6 1.1852 1.33333s-.5333 1.33333-1.1852 1.33333zm-12.6815 41.18517c1.1776 0 2.1334-.9292 2.1334-2.074 0-1.1449-.9558-2.0741-2.1334-2.0741s-2.1333.9292-2.1333 2.0741c0 1.1448.9557 2.074 2.1333 2.074zm-29.86663-8.2963h17.06663 6.3659l.0341-20.7407h-23.4325zm4.26684 8.2963c1.1776 0 2.13329-.9292 2.13329-2.074 0-1.1449-.95569-2.0741-2.13329-2.0741s-2.13334.9292-2.13334 2.0741c0 1.1448.95574 2.074 2.13334 2.074zm29.86649-8.2962v-5.2266l-6.4-4.9757v10.2023zm-6.4-15.5162 9.8667 7.674c.5056.3941.8.9894.8 1.6199v8.2963c0 1.147-.9536 2.0741-2.1334 2.0741h-.3946c.241.6512.3946 1.3419.3946 2.074 0 3.4306-2.8714 6.2223-6.4 6.2223-3.5285 0-6.4-2.7917-6.4-6.2223 0-.7321.1536-1.4228.3947-2.074h-6.7947-6.7946c.241.6512.3946 1.3419.3946 2.074 0 3.4306-2.8714 6.2223-6.39997 6.2223-3.52853 0-6.4-2.7917-6.4-6.2223 0-.8213.1728-1.6011.47147-2.3188-1.5104-.5662-2.6048-2.0927-2.6048-3.9034v-20.7407c0-2.2877 1.7344-4.1482 3.8656-4.1482h24.2667c2.1333 0 3.8677 1.8605 3.8677 4.1482z" fill="#6b7280" fill-rule="evenodd"/></svg>