<svg fill="none" height="64" viewBox="0 0 64 64" width="64" xmlns="http://www.w3.org/2000/svg"><path clip-rule="evenodd" d="m56.2845 0h-25.126c-2.4705 0-4.4918 1.96364-4.4918 4.36364v6.30306h4.4918v-2.42428h25.126v50.42428h-25.126v-5.3334h-4.4918v6.3031c0 2.4 2.0213 4.3636 4.4918 4.3636h25.126c2.4705 0 4.4919-1.9636 4.4919-4.3636v-55.27276c0-2.4-2.0214-4.36364-4.4919-4.36364zm-9.4697 5.33333h-8.2963c-.6518 0-1.1851-.6-1.1851-1.33333s.5333-1.33333 1.1851-1.33333h8.2963c.6519 0 1.1852.6 1.1852 1.33333s-.5333 1.33333-1.1852 1.33333zm-12.8147 20.26637c1.1531 0 2.0889.9379 2.0889 2.0888 0 1.151-.9358 2.0889-2.0889 2.0889-1.153 0-2.0889-.9379-2.0889-2.0889 0-1.1509.9359-2.0888 2.0889-2.0888zm0 8.3553c3.455 0 6.2667-2.8116 6.2667-6.2667 0-3.455-2.8117-6.2666-6.2667-6.2666s-6.2667 2.8116-6.2667 6.2666c0 3.4551 2.8117 6.2667 6.2667 6.2667zm-16.7111-16.7107c2.3041 0 4.1778 1.8737 4.1778 4.1778 0 2.304-1.8737 4.1778-4.1778 4.1778-2.304 0-4.1778-1.8738-4.1778-4.1778 0-2.3041 1.8738-4.1778 4.1778-4.1778zm-.0001 12.5332c4.6081 0 8.3556-3.7475 8.3556-8.3555 0-4.6081-3.7475-8.3556-8.3556-8.3556s-8.35555 3.7475-8.35555 8.3556c0 4.608 3.74745 8.3555 8.35555 8.3555zm16.7111 6.2665c-2.3416 0-4.5767.7812-6.392 2.185-2.6466-2.6383-6.2938-4.2739-10.3191-4.2739-8.06101 0-14.62221 6.5591-14.62221 14.6222 0 1.1531.93373 2.0889 2.08889 2.0889 1.15515 0 2.08888-.9358 2.08888-2.0889 0-5.7591 4.68534-10.4444 10.44444-10.4444s10.4445 4.6853 10.4445 10.4444c0 1.1531.9337 2.0889 2.0888 2.0889 1.1552 0 2.0889-.9358 2.0889-2.0889 0-2.5338-.6517-4.9193-1.7881-6.9999 1.0946-.8668 2.4503-1.3556 3.877-1.3556 3.455 0 6.2667 2.8116 6.2667 6.2666 0 1.1531.9337 2.0889 2.0889 2.0889 1.1551 0 2.0889-.9358 2.0889-2.0889 0-5.759-4.6854-10.4444-10.4445-10.4444z" fill="#6b7280" fill-rule="evenodd"/></svg>