<svg fill="none" height="24" viewBox="0 0 24 24" width="24" xmlns="http://www.w3.org/2000/svg"><path clip-rule="evenodd" d="m6.60014 4.00007c-1.434 0-2.6 1.16599-2.6 2.59999 0 7.38804 6.01096 13.40004 13.39996 13.40004 1.433 0 2.6-1.166 2.6-2.6 0-.111-.007-.22-.021-.328l-4.62-1.06c-.092.176-.193.367-.285.545-.456.87-.786 1.502-1.628 1.163-3.306-1.16-6.00496-3.86-7.17996-7.206-.357-.78504.323-1.14104 1.185-1.59104.175-.092.364-.191.537-.281l-1.06-4.62099c-.111-.014-.219-.021-.328-.021zm10.79996 17.99993c-8.49198 0-15.39998-6.908-15.39998-15.4 0-2.537 2.063-4.6 4.6-4.6.26 0 .517.022.766.065.243.039.487.101.725.183.325.113.57.386.647.722l1.36898 5.964c.076.328-.019.672-.25298.916-.136.142-.139.145-1.379.794 1.004 2.174 2.74898 3.913 4.87898 4.883.65-1.241.654-1.245.796-1.381.244-.234.59-.325.916-.253l5.965 1.369c.335.077.608.321.72.646.082.236.144.48.185.731.042.247.064.503.064.761 0 2.537-2.064 4.6-4.6 4.6z" fill="#6b7280" fill-rule="evenodd"/></svg>