<svg fill="none" height="64" viewBox="0 0 64 64" width="64" xmlns="http://www.w3.org/2000/svg"><path clip-rule="evenodd" d="m46.4011 53.3337c-19.704 0-35.7334-16.032-35.7334-35.7334 0-3.824 3.1094-6.9333 6.9334-6.9333.2906 0 .5786.0187.872.056l2.8293 12.3227c-.3495.1818-.7235.3774-1.0883.5682l-.0015.0008-.3449.1803c-2.2986 1.2-4.112 2.1493-3.16 4.2427 3.136 8.9226 10.3334 16.1226 19.1494 19.216 2.246.9 3.1176-.7666 4.3227-3.0708l.0159-.0306c.1384-.262.2808-.5354.422-.8063l.0004-.0009c.1144-.2195.2279-.4373.3376-.6461l12.32 2.8267c.04.288.0587.5786.0587.8746 0 3.824-3.1093 6.9334-6.9333 6.9334zm11.6026-10.9122c-.3014-.8667-1.0267-1.5173-1.9227-1.7227l-15.904-3.6506c-.8773-.1974-1.7947.0506-2.4427.6746-.3813.3627-.3893.3734-2.1226 3.6827-5.68-2.5867-10.3334-7.224-13.0107-13.0213 3.304-1.7307 3.312-1.7387 3.6773-2.1174.624-.6506.8747-1.568.6747-2.4426l-3.6507-15.90404c-.2053-.896-.8586-1.624-1.7253-1.92533-.6347-.21867-1.288-.384-1.9333-.488-.664-.11467-1.3494-.17333-2.0427-.17333-6.7653 0-12.26665 5.5013-12.26665 12.2667 0 22.6453 18.42135 41.0666 41.06665 41.0666 6.7627 0 12.2667-5.5013 12.2667-12.2666 0-.688-.0614-1.368-.1734-2.0294-.1066-.6666-.272-1.32-.4906-1.9493zm-23.337-21.0882c4.4106 0 8 3.5894 8 8 0 1.4747 1.192 2.6667 2.6666 2.6667 1.4747 0 2.6667-1.192 2.6667-2.6667 0-7.352-5.9813-13.3333-13.3333-13.3333-1.472 0-2.6667 1.192-2.6667 2.6667 0 1.4746 1.1947 2.6666 2.6667 2.6666zm18.6666 8.0002c0-10.2907-8.376-18.6667-18.6666-18.6667-1.472 0-2.6667-1.19197-2.6667-2.66664 0-1.47466 1.1947-2.66666 2.6667-2.66666 13.2346 0 24 10.7653 24 24 0 1.4747-1.192 2.6667-2.6667 2.6667s-2.6667-1.192-2.6667-2.6667z" fill="#6b7280" fill-rule="evenodd"/></svg>