<svg fill="none" height="64" viewBox="0 0 64 64" width="64" xmlns="http://www.w3.org/2000/svg"><path clip-rule="evenodd" d="m10.6677 17.6003c0 19.7014 16.0294 35.7334 35.7334 35.7334 3.824 0 6.9333-3.1094 6.9333-6.9334 0-.296-.0187-.5866-.0587-.8746l-12.32-2.8267c-.1097.2088-.2232.4266-.3376.6461-.1412.2712-.2838.5449-.4224.8072l-.0229.0438c-1.2013 2.2974-2.0687 3.9559-4.3157 3.0576-8.8187-3.0934-16.016-10.2934-19.1494-19.216-.8586-2.1414.8187-3.0187 3.1414-4.232.4746-.2507.984-.5174 1.4533-.76l-2.8293-12.3227c-.2934-.0373-.5814-.056-.8747-.056-3.8213 0-6.9307 3.1093-6.9307 6.9333zm47.336 24.8212c.2186.6293.384 1.2827.4906 1.9493.112.6614.1734 1.3414.1734 2.0294 0 6.7653-5.504 12.2666-12.2667 12.2666-22.6453 0-41.06665-18.4213-41.06665-41.0666 0-6.7654 5.50135-12.2667 12.26395-12.2667.696 0 1.3787.05866 2.0427.17333.648.104 1.304.26933 1.936.49067.8694.29866 1.52 1.02666 1.7253 1.92266l3.6507 15.90404c.2.8746-.0507 1.792-.6747 2.4426-.3653.3787-.376.3867-3.68 2.12 2.6427 5.7654 7.3067 10.4214 13.0134 13.0187 1.7333-3.312 1.7413-3.32 2.1226-3.6827.648-.624 1.5654-.872 2.4427-.6746l15.904 3.6506c.896.2054 1.6213.856 1.9227 1.7227zm-11.9563-19.226c-1.0773 1.072-2.8347 1.072-3.9093 0-1.072-1.0746-1.072-2.832 0-3.9093l1.9547-1.952-1.9547-1.9547c-1.072-1.0746-1.072-2.832 0-3.9066 1.0746-1.0747 2.832-1.0747 3.9093 0l1.952 1.9546 1.9547-1.9546c1.0747-1.0747 2.832-1.0747 3.9067 0 1.0746 1.0746 1.0746 2.832 0 3.9066l-1.9547 1.9547 1.9547 1.952c1.0746 1.0773 1.0746 2.8347 0 3.9093-1.0747 1.072-2.832 1.072-3.9067 0l-1.9547-1.9546z" fill="#6b7280" fill-rule="evenodd"/></svg>