<svg fill="none" height="24" viewBox="0 0 24 24" width="24" xmlns="http://www.w3.org/2000/svg"><path clip-rule="evenodd" d="m17.4004 20.0001c-7.389 0-13.40002-6.012-13.40002-13.40004 0-1.434 1.166-2.59999 2.6-2.59999.109 0 .217.007.327.02099l1.061 4.621c-.13115.06823-.27149.14163-.40839.21323l-.00039.00021-.12922.06756c-.862.45-1.542.806-1.185 1.59104 1.176 3.346 3.87502 6.046 7.18102 7.206.8423.3375 1.1691-.2875 1.621-1.1516l.006-.0114c.0519-.0984.1054-.2011.1584-.3027.0429-.0824.0854-.164.1266-.2423l4.62 1.06c.015.108.022.217.022.328 0 1.434-1.166 2.6-2.6 2.6zm4.351-4.0921c-.113-.325-.385-.569-.721-.646l-5.964-1.369c-.329-.074-.673.019-.916.253-.143.136-.146.14-.796 1.381-2.13-.97-3.87503-2.709-4.87903-4.883 1.239-.649 1.242-.652 1.379-.794.23403-.244.32803-.588.25303-.916l-1.36903-5.964c-.077-.336-.322-.609-.647-.722-.238-.082-.483-.144-.725-.183-.249-.043-.506-.065-.766-.065-2.537 0-4.6 2.063-4.6 4.6 0 8.492 6.908 15.4 15.40003 15.4 2.536 0 4.6-2.063 4.6-4.6 0-.258-.023-.513-.065-.761-.04-.25-.102-.495-.184-.731zm-8.7514-7.90806c1.654 0 3 1.34599 3 2.99996 0 .553.447 1 1 1s1-.447 1-1c0-2.75696-2.243-4.99997-5-4.99997-.552 0-1 .447-1 1.00001 0 .55299.448 1 1 1zm7 3.00006c0-3.859-3.141-7-7-7-.552 0-1-.447-1-1s.448-1 1-1c4.963 0 9 4.037 9 9 0 .553-.447 1-1 1s-1-.447-1-1z" fill="#6b7280" fill-rule="evenodd"/></svg>