<svg fill="none" height="64" viewBox="0 0 64 64" width="64" xmlns="http://www.w3.org/2000/svg"><path clip-rule="evenodd" d="m17.6003 10.667c-3.824 0-6.9333 3.1093-6.9333 6.9333 0 19.7014 16.0293 35.7334 35.7333 35.7334 3.8214 0 6.9334-3.1094 6.9334-6.9334 0-.296-.0187-.5866-.056-.8746l-12.32-2.8267c-.2454.4693-.5147.9787-.76 1.4533-1.216 2.32-2.096 4.0054-4.3414 3.1014-8.816-3.0934-16.0133-10.2934-19.1466-19.216-.952-2.0934.8613-3.0427 3.16-4.2427.4666-.2453.9706-.5093 1.432-.7493l-2.8267-12.3227c-.296-.0373-.584-.056-.8747-.056zm28.8 47.9998c-22.6454 0-41.06668-18.4213-41.06668-41.0666 0-6.7654 5.50138-12.2667 12.26668-12.2667.6933 0 1.3786.05866 2.0427.17333.6479.104 1.2986.26933 1.9333.488.8666.30133 1.52 1.02933 1.7253 1.92533l3.6507 15.90404c.2026.8746-.0507 1.792-.6747 2.4426-.3627.3787-.3707.3867-3.6773 2.1174 2.6773 5.7973 7.3306 10.4346 13.0106 13.0213 1.7334-3.3093 1.744-3.32 2.1227-3.6827.6507-.624 1.5733-.8666 2.4427-.6746l15.9066 3.6506c.8934.2054 1.6214.856 1.92 1.7227.2187.6293.384 1.28.4934 1.9493.112.6587.1706 1.3414.1706 2.0294 0 6.7653-5.504 12.2666-12.2666 12.2666z" fill="#6b7280" fill-rule="evenodd"/></svg>