<svg fill="none" height="24" viewBox="0 0 24 24" width="24" xmlns="http://www.w3.org/2000/svg"><path clip-rule="evenodd" d="m6.69818 14.63c-1.686-2.241-2.698-5.017-2.698-8.03 0-1.434 1.166-2.6 2.599-2.6.11 0 .218.007.328.022l1.061 4.62-.1702.0888-.00039.0002c-.12491.06512-.2527.13173-.37441.196-.871.455-1.5.784-1.178 1.587.376 1.07.921 2.062 1.579 2.97l1.429-1.429c-.302-.446-.572-.916-.799-1.41 1.24-.65 1.244-.653 1.38-.795.23402-.243.32802-.588.25302-.916l-1.36902-5.964c-.077-.336-.321-.609-.646-.721-.238-.083-.484-.144-.727-.183-.249-.043-.505-.066-.766-.066-2.536 0-4.599 2.064-4.599 4.6 0 3.566 1.229 6.843 3.271 9.457zm13.04112-10.36933c-.347-.348-.909-.348-1.257 0l-14.222 14.22203c-.173.174-.26.401-.26.629 0 .227.087.455.26.628.347.347.91.347 1.257 0l14.222-14.22203c.348-.348.348-.91 0-1.257zm2.0112 11.64823c.0819.235.1449.48.1849.73.042.248.064.503.064.762 0 2.536-2.063 4.599-4.599 4.599-3.5669 0-6.8439-1.229-9.45695-3.271l1.427-1.427c2.24105 1.686 5.01595 2.698 8.02995 2.698 1.4331 0 2.599-1.166 2.599-2.599 0-.112-.0059-.221-.021-.328l-4.62-1.061-.2849.545-.0047.0089c-.4526.8654-.7802 1.4919-1.6223 1.1541-1.0531-.369-2.033-.909-2.934-1.561l1.43-1.43c.447.304.918.574 1.412.799.649-1.2413.6529-1.245.7953-1.3814l.0006-.0006c.243-.234.587-.326.9161-.253l5.9639 1.369c.336.077.6081.321.7201.647z" fill="#6b7280" fill-rule="evenodd"/></svg>