<svg fill="none" height="24" viewBox="0 0 24 24" width="24" xmlns="http://www.w3.org/2000/svg"><path clip-rule="evenodd" d="m21.1067 0h-9.4223c-.9264 0-1.6844.736363-1.6844 1.63636v2.45455h1.6844v-1h9.4223v18.90909h-9.4223v-2.0909h-1.6844v2.4545c0 .9.758 1.6364 1.6844 1.6364h9.4223c.9264 0 1.6844-.7364 1.6844-1.6364v-20.72724c0-.899997-.758-1.63636-1.6844-1.63636zm-3.5511 2h-3.1112c-.2444 0-.4444-.225-.4444-.5s.2-.5.4444-.5h3.1112c.2444 0 .4444.225.4444.5s-.2.5-.4444.5zm-4.7556 15.4444c.4416 0 .8-.3484.8-.7777 0-.4294-.3584-.7778-.8-.7778s-.8.3484-.8.7778c0 .4293.3584.7777.8.7777zm-11.2-3.1111h6.4 2.3872l.0128-7.77774h-8.7872zm1.60007 3.1111c.4416 0 .8-.3484.8-.7777 0-.4294-.3584-.7778-.8-.7778s-.8.3484-.8.7778c0 .4293.3584.7777.8.7777zm11.19993-3.111v-1.96l-2.4-1.8659v3.8259zm-2.4-5.81862 3.7 2.87782c.1896.1477.3.371.3.6074v3.1111c0 .4301-.3576.7778-.8.7778h-.148c.0904.2442.148.5032.148.7778 0 1.2864-1.0768 2.3333-2.4 2.3333s-2.4-1.0469-2.4-2.3333c0-.2746.0576-.5336.148-.7778h-2.548-2.548c.0904.2442.148.5032.148.7778 0 1.2864-1.0768 2.3333-2.4 2.3333s-2.4-1.0469-2.4-2.3333c0-.308.0648-.6005.1768-.8696-.5664-.2123-.9768-.7848-.9768-1.4638v-7.77774c0-.85789.6504-1.55556 1.4496-1.55556h9.1c.8 0 1.4504.69767 1.4504 1.55556z" fill="#6b7280" fill-rule="evenodd"/></svg>