<svg width="64" height="64" viewBox="0 0 64 64" fill="none" xmlns="http://www.w3.org/2000/svg">
<path d="M32 5.33301C37.891 5.33302 42.667 10.109 42.667 16V21.333H48C53.891 21.333 58.667 26.109 58.667 32V48C58.6668 53.8909 53.8909 58.666 48 58.666H32C26.1091 58.666 21.3332 53.8909 21.333 48V42.666H16C10.1091 42.666 5.33318 37.8909 5.33301 32V16C5.33301 10.109 10.109 5.33301 16 5.33301H32ZM32 26.666C29.0545 26.666 26.667 29.0545 26.667 32V48C26.6672 50.9454 29.0546 53.333 32 53.333H48C50.9454 53.333 53.3328 50.9454 53.333 48V32C53.333 29.0545 50.9455 26.666 48 26.666H32ZM36.0186 33.6797C36.8546 33.2064 37.8823 33.2186 38.7061 33.7129L45.3721 37.7129C46.1751 38.1949 46.667 39.0634 46.667 40C46.6668 40.9364 46.1749 41.8042 45.3721 42.2861L38.7061 46.2861C37.8824 46.7803 36.8545 46.7934 36.0186 46.3203C35.1833 45.8469 34.6672 44.9602 34.667 44V36C34.667 35.0397 35.1831 34.1532 36.0186 33.6797ZM21.3252 27.7637C19.8569 26.2956 17.4761 26.2956 16.0078 27.7637L10.7627 33.0078C11.2341 35.4712 13.3992 37.333 16 37.333H21.333V32C21.333 30.7354 21.5541 29.5221 21.958 28.3965L21.3252 27.7637ZM16 10.666C13.0545 10.666 10.667 13.0545 10.667 16V25.5625L12.2373 23.9922C15.7666 20.4638 21.4734 20.4435 25.0293 23.9287C26.899 22.3124 29.3346 21.333 32 21.333H37.333V16C37.333 13.0545 34.9455 10.666 32 10.666H16ZM18.667 13.333C20.1396 13.3332 21.333 14.5274 21.333 16V16.0254C21.333 17.498 20.1396 18.6922 18.667 18.6924C17.1942 18.6924 16 17.4981 16 16.0254V16C16 14.5272 17.1942 13.333 18.667 13.333Z" fill="#141414"/>
</svg>
