<svg fill="none" height="64" viewBox="0 0 64 64" width="64" xmlns="http://www.w3.org/2000/svg"><path clip-rule="evenodd" d="m55.5235 37.4874c-1.3946-.496-2.9146.232-3.4026 1.624-3.008 8.5066-11.096 14.2213-20.12 14.2213-11.7627 0-21.3334-9.568-21.3334-21.3333 0-9.024 5.7147-17.112 14.2214-20.12 1.3893-.488 2.1173-2.01071 1.6266-3.40004-.4906-1.38667-2.0133-2.11734-3.4026-1.624-10.6347 3.75734-17.7787 13.86134-17.7787 25.14404 0 14.704 11.9627 26.6666 26.6667 26.6666 11.2826 0 21.3866-7.1413 25.1466-17.7786.4907-1.3867-.2346-2.9094-1.624-3.4zm-18.1901-10.8208v-15.8107c8.1626 1.1733 14.6373 7.6453 15.8106 15.8107zm-2.6667-21.3331c-1.472 0-2.6667 1.192-2.6667 2.66666v21.33334c0 1.4747 1.1947 2.6667 2.6667 2.6667h21.3333c1.472 0 2.6667-1.192 2.6667-2.6667 0-13.2347-10.768-24-24-24z" fill="#6b7280" fill-rule="evenodd"/></svg>