<svg fill="none" height="24" viewBox="0 0 24 24" width="24" xmlns="http://www.w3.org/2000/svg"><path clip-rule="evenodd" d="m20.8214 14.0577c-.523-.186-1.093.087-1.276.609-1.128 3.19-4.161 5.333-7.545 5.333-4.41103 0-8.00003-3.588-8.00003-8 0-3.384 2.143-6.417 5.333-7.545.521-.183.79403-.754.61-1.275-.184-.52-.755-.794-1.276-.609-3.988 1.409-6.667 5.198-6.667 9.429 0 5.514 4.486 10 10.00003 10 4.231 0 8.02-2.678 9.43-6.667.184-.52-.088-1.091-.609-1.275zm-6.8213-4.0578v-5.929c3.061.44 5.489 2.867 5.929 5.929zm-1.0001-7.9999c-.552 0-1 .447-1 1v8c0 .553.448 1 1 1h8c.552 0 1-.447 1-1 0-4.963-4.038-9-9-9z" fill="#6b7280" fill-rule="evenodd"/></svg>