<svg width="24" height="24" viewBox="0 0 24 24" fill="none" xmlns="http://www.w3.org/2000/svg">
<g id="Icon/Outline/pie-chart">
<path id="Mask" fill-rule="evenodd" clip-rule="evenodd" d="M20.8213 14.0576C20.2983 13.8716 19.7283 14.1446 19.5453 14.6666C18.4173 17.8566 15.3843 19.9996 12.0003 19.9996C7.5893 19.9996 4.0003 16.4116 4.0003 11.9996C4.0003 8.6156 6.1433 5.5826 9.3333 4.4546C9.8543 4.2716 10.1273 3.7006 9.9433 3.1796C9.7593 2.6596 9.1883 2.3856 8.6673 2.5706C4.6793 3.9796 2.0003 7.7686 2.0003 11.9996C2.0003 17.5136 6.4863 21.9996 12.0003 21.9996C16.2313 21.9996 20.0203 19.3216 21.4303 15.3326C21.6143 14.8126 21.3423 14.2416 20.8213 14.0576ZM14 10V4.071C17.061 4.511 19.489 6.938 19.929 10H14ZM13 2C12.448 2 12 2.447 12 3V11C12 11.553 12.448 12 13 12H21C21.552 12 22 11.553 22 11C22 6.037 17.962 2 13 2Z" fill="#231F20"/>
<mask id="mask0" mask-type="alpha" maskUnits="userSpaceOnUse" x="2" y="2" width="20" height="20">
<path id="Mask_2" fill-rule="evenodd" clip-rule="evenodd" d="M20.8213 14.0576C20.2983 13.8716 19.7283 14.1446 19.5453 14.6666C18.4173 17.8566 15.3843 19.9996 12.0003 19.9996C7.5893 19.9996 4.0003 16.4116 4.0003 11.9996C4.0003 8.6156 6.1433 5.5826 9.3333 4.4546C9.8543 4.2716 10.1273 3.7006 9.9433 3.1796C9.7593 2.6596 9.1883 2.3856 8.6673 2.5706C4.6793 3.9796 2.0003 7.7686 2.0003 11.9996C2.0003 17.5136 6.4863 21.9996 12.0003 21.9996C16.2313 21.9996 20.0203 19.3216 21.4303 15.3326C21.6143 14.8126 21.3423 14.2416 20.8213 14.0576ZM14 10V4.071C17.061 4.511 19.489 6.938 19.929 10H14ZM13 2C12.448 2 12 2.447 12 3V11C12 11.553 12.448 12 13 12H21C21.552 12 22 11.553 22 11C22 6.037 17.962 2 13 2Z" fill="white"/>
</mask>
<g mask="url(#mask0)">
<g id="&#240;&#159;&#142;&#168; Color">
<rect id="Base" width="24" height="24" fill="#0D1C2E"/>
</g>
</g>
</g>
</svg>
