<svg viewBox="0 0 64 64" fill="none" xmlns="http://www.w3.org/2000/svg">
<path fill-rule="evenodd" clip-rule="evenodd" d="M9.88566 6.11436C8.84426 5.07296 7.15582 5.07296 6.11442 6.11436C5.07302 7.15576 5.07302 8.8442 6.11442 9.8856L19.6708 23.442L17.7303 24.1698C17.3739 24.3035 17.0502 24.5119 16.7811 24.781L12.7811 28.781C11.7397 29.8224 11.7397 31.5109 12.7811 32.5523L20.2288 40L10.1144 50.1144C9.07302 51.1558 9.07302 52.8442 10.1144 53.8856C11.1558 54.927 12.8443 54.927 13.8857 53.8856L24 43.7712L31.4478 51.2189C32.4892 52.2603 34.1776 52.2603 35.219 51.2189L39.219 47.2189C39.4881 46.9498 39.6965 46.6262 39.8302 46.2699L40.5581 44.3293L54.1144 57.8856C55.1558 58.927 56.8443 58.927 57.8857 57.8856C58.9271 56.8442 58.9271 55.1558 57.8857 54.1144L41.5746 37.8033C41.4683 37.6746 41.3493 37.5553 41.2187 37.4474L9.88566 6.11436ZM33.3334 45.5621L18.4379 30.6666L20.1439 28.9607L23.8133 27.5844L36.4157 40.1869L35.0394 43.856L33.3334 45.5621Z M53.885 22.1137L55.219 23.4477C56.2604 24.4891 56.2604 26.1775 55.219 27.2189C54.3699 28.0681 53.0905 28.2248 52.0826 27.6892L45.2193 34.5546C44.178 35.5962 42.4896 35.5965 41.448 34.5552C40.4065 33.514 40.4062 31.8255 41.4475 30.784L48.2291 24.0003L40 15.7712L33.2217 22.5496C32.1803 23.591 30.4918 23.591 29.4504 22.5496C28.409 21.5082 28.409 19.8198 29.4504 18.7784L36.311 11.9178C35.7751 10.9098 35.9319 9.63026 36.7811 8.78103C37.8225 7.73963 39.5109 7.73963 40.5523 8.78103L53.885 22.1137Z" fill="#141414"/>
</svg>