<svg fill="none" height="24" viewBox="0 0 24 24" width="24" xmlns="http://www.w3.org/2000/svg"><path clip-rule="evenodd" d="m12 10.9997c-.827 0-1.5-.673-1.5-1.50004 0-.827.673-1.5 1.5-1.5s1.5.673 1.5 1.5c0 .82704-.673 1.50004-1.5 1.50004zm0-5.0001c-1.93 0-3.5 1.57-3.5 3.5s1.57 3.5 3.5 3.5 3.5-1.57 3.5-3.5-1.57-3.5-3.5-3.5zm0 13.6465c-1.675-1.584-5.99998-6.031-5.99998-9.72404 0-3.265 2.691-5.92199 5.99998-5.92199 3.309 0 6 2.65699 6 5.92199 0 3.69304-4.325 8.14004-6 9.72404zm0-17.6461c-4.411 0-8 3.553-8 7.922 0 5.475 7.049 11.579 7.349 11.836.188.161.419.242.651.242s.463-.081.651-.242c.3-.257 7.349-6.361 7.349-11.836 0-4.369-3.589-7.922-8-7.922z" fill="#6b7280" fill-rule="evenodd"/></svg>