<svg fill="none" height="64" viewBox="0 0 64 64" width="64" xmlns="http://www.w3.org/2000/svg"><path clip-rule="evenodd" d="m32 29.3326c-2.2053 0-4-1.7947-4-4s1.7947-4 4-4 4 1.7947 4 4-1.7947 4-4 4zm0-13.3335c-5.1467 0-9.3334 4.1867-9.3334 9.3333 0 5.1467 4.1867 9.3334 9.3334 9.3334 5.1466 0 9.3333-4.1867 9.3333-9.3334 0-5.1466-4.1867-9.3333-9.3333-9.3333zm0 36.3906c-4.4667-4.224-16-16.0827-16-25.9307 0-8.7067 7.176-15.792 16-15.792s16 7.0853 16 15.792c0 9.848-11.5333 21.7067-16 25.9307zm0-47.0562c-11.7627 0-21.3334 9.4747-21.3334 21.1253 0 14.6 18.7974 30.8774 19.5974 31.5627.5013.4293 1.1173.6453 1.736.6453.6186 0 1.2346-.216 1.736-.6453.8-.6853 19.5973-16.9627 19.5973-31.5627 0-11.6506-9.5707-21.1253-21.3333-21.1253z" fill="#6b7280" fill-rule="evenodd"/></svg>