<svg fill="none" height="64" viewBox="0 0 64 64" width="64" xmlns="http://www.w3.org/2000/svg"><path d="m31.2677 20.0042c1.2796-.0518 2.5113.0279 3.7236.4668h.0029c1.6202.5888 3.0411 1.6171 4.1094 2.958l.4375.5938c.7219 1.0709 1.0944 2.2484 1.3535 3.5029.2527 1.2237.4379 2.7397.6592 4.5488l.917 7.4952c.2227 1.8105.4118 3.3292.4629 4.5781.0522 1.28-.0265 2.5117-.4688 3.7265v.003c-.6747 1.8499-1.9162 3.44-3.5488 4.541-1.0696.721-2.2453 1.0944-3.5 1.3545-1.2247.2537-2.7438.4377-4.5547.6592l.002.0019-7.4942.917c-1.8105.2229-3.329.4103-4.5781.4609-1.279.0518-2.5099-.0242-3.7217-.4638h-.0029c-1.6203-.5897-3.0411-1.6166-4.1094-2.958l-.4375-.5938c-.72173-1.0709-1.09412-2.2489-1.35351-3.5029-.12644-.6115-.23623-1.2969-.34179-2.0547l-.32032-2.4941-.91601-7.4981-.29688-2.4971c-.08118-.7611-.14166-1.4534-.16699-2.0781-.05181-1.2797.02677-2.5112.46582-3.7236l.00293-.0059c.67469-1.8501 1.91705-3.4399 3.54985-4.541l.4062-.2558c.9584-.558 1.9959-.8711 3.0938-1.0987 1.2244-.2536 2.7413-.4397 4.5517-.6611l7.4971-.917c1.8092-.2229 3.3268-.4132 4.5762-.4639zm.2158 5.3311c-.9799.0397-2.2447.1916-4.1377.4248h-.003l-7.5.9189c-1.8945.2317-3.1577.3902-4.1171.5889-.6973.1445-1.1063.2864-1.375.4219l-.2266.1328c-.6996.4719-1.2314 1.1544-1.5205 1.9473l-.0029-.002c-.1051.2923-.1837.7437-.1455 1.6875.0397.9799.1906 2.2446.4238 4.1377v.0029l.9199 7.4971.3066 2.4111c.0934.6721.1821 1.229.2813 1.709.1922.9289.3821 1.3453.5547 1.6016l.1875.2519c.4577.5749 1.0665 1.0158 1.7607 1.2686h-.0029c.2896.1051.739.1867 1.6875.1484.98-.0397 2.246-.1916 4.1406-.4248h.0029l7.4971-.9189 2.4092-.3076c.6723-.0933 1.2284-.182 1.708-.2813.9284-.1924 1.3442-.3813 1.6016-.5547.6998-.472 1.2323-1.1542 1.5215-1.9473.1053-.2898.1891-.738.1503-1.6855-.02-.49-.07-1.0513-.1425-1.7266l-.2842-2.416-.919-7.498c-.2318-1.8957-.3906-3.1591-.5888-4.1192-.1918-.9282-.3793-1.3435-.5518-1.5996-.4737-.7008-1.1585-1.2336-1.9482-1.5205v-.0029c-.2924-.105-.7437-.1837-1.6875-.1455zm-9.9951 6.9844c.2976-.031.5983.0184.8701.1435l7.4658 3.4424c1.1052.5067 1.3121 1.9853.3906 2.7764l-6.2285 5.3671c-.2263.1955-.5025.3244-.7969.377-.2948.0525-.6006.0255-.8808-.0801-.2798-.1055-.5261-.285-.7129-.5185-.1867-.2336-.3083-.5135-.3496-.8096l-1.2364-8.8105c-.0412-.2965-.0043-.599.1114-.875.1155-.2757.3051-.514.5449-.6924.2402-.1784.5247-.2893.8223-.3203zm11.1484-24.08305c1.2494.05065 2.7667.23996 4.5762.46289l-.003.00293 7.5.91406 2.4952.32031c.7582.10566 1.4448.21426 2.0566.34086 1.2537.2594 2.4293.6327 3.5 1.3545l.5937.4375c1.1501.9158 2.0697 2.0891 2.6797 3.4267l.2793.6826c.4396 1.2118.5176 2.4446.4658 3.7237-.0506 1.2492-.238 2.7672-.4609 4.5781l-.9189 7.4951c-.2215 1.8106-.4055 3.3273-.6592 4.5518-.2601 1.2549-.6354 2.4302-1.3565 3.5-1.1012 1.6328-2.6916 2.8752-4.542 3.5498l-.0029-.003c-.2008.0746-.4036.1415-.6094.1954l-.2675.0576c-1.3351.2076-2.6379-.6257-2.9873-1.961-.3727-1.4248.4814-2.8822 1.9062-3.2549l.1065-.0341.0263-.0108c.7925-.2892 1.4765-.8211 1.9483-1.5205l.1328-.2295c.1352-.2687.2777-.6763.4219-1.372.1987-.9595.3561-2.2224.5878-4.1172l.92-7.4971c.2332-1.8949.3841-3.1635.4238-4.1436.0383-.9471-.0436-1.3948-.1484-1.6845-.2526-.694-.6913-1.303-1.2657-1.7608l-.2549-.1875c-.2562-.1725-.6699-.3625-1.5986-.5547-.9608-.1987-2.2262-.3553-4.123-.5888l-7.4971-.919c-1.8933-.2332-3.1607-.385-4.1406-.4248-.9447-.0382-1.3952.0413-1.6875.1465-.7926.2892-1.4736.8239-1.9453 1.5234l-.003.0049c-.1163.1718-.2421.4183-.3672.8438-.4153 1.4126-1.8967 2.2225-3.3095 1.8076-1.4125-.4154-2.2196-1.8979-1.8047-3.3105.2418-.823.573-1.6004 1.0654-2.3282 1.1013-1.6326 2.6908-2.87435 4.541-3.5488l.003-.00293c1.2124-.43913 2.4438-.51762 3.7236-.46582z" fill="#000"/></svg>