<svg fill="none" height="24" viewBox="0 0 24 24" width="24" xmlns="http://www.w3.org/2000/svg"><path clip-rule="evenodd" d="m11.5 14.5996v-5.199l2.809 2.599zm.839-7.14713c-.498-.462-1.225-.582-1.851-.307-.61.266-.988.835-.988 1.484v6.74103c0 .649.378 1.218.988 1.484.223.098.46.145.693.145.423 0 .838-.155 1.157-.451l3.642-3.37c.331-.306.52-.735.52-1.179 0-.443-.189-.873-.52-1.178zm-.339 12.54763c-4.41098 0-7.99998-3.589-7.99998-8 0-4.41104 3.589-8.00003 7.99998-8.00003 4.411 0 8 3.58899 8 8.00003 0 4.411-3.589 8-8 8zm0-18.0001c-5.514 0-10 4.486-10 10s4.486 10 10 10 10-4.486 10-10-4.486-10-10-10z" fill="#6b7280" fill-rule="evenodd"/></svg>