<svg fill="none" height="64" viewBox="0 0 64 64" width="64" xmlns="http://www.w3.org/2000/svg"><path clip-rule="evenodd" d="m30.6667 38.9324v-13.864l7.4907 6.9307zm2.2373-19.059c-1.328-1.232-3.2666-1.552-4.936-.8187-1.6266.7094-2.6346 2.2267-2.6346 3.9574v17.976c0 1.7306 1.008 3.248 2.6346 3.9573.5947.2613 1.2267.3867 1.848.3867 1.128 0 2.2347-.4134 3.0854-1.2027l9.712-8.9867c.8826-.816 1.3866-1.96 1.3866-3.144 0-1.1813-.504-2.328-1.3866-3.1413zm-.9039 33.4603c-11.7627 0-21.3333-9.5707-21.3333-21.3334 0-11.7626 9.5706-21.3333 21.3333-21.3333 11.7626 0 21.3333 9.5707 21.3333 21.3333 0 11.7627-9.5707 21.3334-21.3333 21.3334zm-.0001-48.0002c-14.704 0-26.66663 11.9627-26.66663 26.6667s11.96263 26.6666 26.66663 26.6666 26.6667-11.9626 26.6667-26.6666-11.9627-26.6667-26.6667-26.6667z" fill="#6b7280" fill-rule="evenodd"/></svg>