<svg viewBox="0 0 64 64" fill="none" xmlns="http://www.w3.org/2000/svg">
<path fill-rule="evenodd" clip-rule="evenodd" d="M48 13.3333C48 11.8605 46.8061 10.6666 45.3334 10.6666H18.6667C17.1939 10.6666 16 11.8605 16 13.3333V50.6666C16 52.1393 17.1939 53.3332 18.6667 53.3332H45.3334C46.8061 53.3332 48 52.1393 48 50.6666V13.3333ZM42.7057 45.3332L42.9792 45.3463C44.324 45.4827 45.3724 46.6191 45.3724 47.9999C45.3724 49.3807 44.324 50.5171 42.9792 50.6536L42.7057 50.6666H42.6797C41.2071 50.6664 40.013 49.4726 40.013 47.9999C40.013 46.5273 41.2071 45.3334 42.6797 45.3332H42.7057ZM32 18.6666C32.8394 18.6666 33.6292 19.0628 34.1328 19.7343L42.1328 30.401C42.8435 31.3489 42.8435 32.6509 42.1328 33.5989L34.1328 44.2655C33.6292 44.937 32.8394 45.3332 32 45.3332C31.2654 45.3332 30.5679 45.0309 30.0677 44.5051L29.8672 44.2655L21.8672 33.5989C21.1565 32.6509 21.1565 31.3489 21.8672 30.401L29.8672 19.7343L30.0677 19.4947C30.5679 18.969 31.2654 18.6666 32 18.6666ZM27.3307 31.9999L32 38.2239L36.6667 31.9999L32 25.776L27.3307 31.9999ZM21.3464 13.3333L21.6198 13.3463C22.9643 13.483 24.013 14.6193 24.013 15.9999C24.013 17.3805 22.9643 18.5168 21.6198 18.6536L21.3464 18.6666H21.3203C19.8476 18.6666 18.6537 17.4727 18.6537 15.9999C18.6537 14.5272 19.8476 13.3333 21.3203 13.3333H21.3464ZM53.3334 50.6666C53.3334 55.0849 49.7516 58.6666 45.3334 58.6666H18.6667C14.2484 58.6666 10.6667 55.0849 10.6667 50.6666V13.3333C10.6667 8.91497 14.2484 5.33325 18.6667 5.33325H45.3334C49.7516 5.33325 53.3334 8.91497 53.3334 13.3333V50.6666Z" fill="#141414"/>
</svg>