<svg fill="none" height="64" viewBox="0 0 64 64" width="64" xmlns="http://www.w3.org/2000/svg"><path clip-rule="evenodd" d="m40 29.3335h-5.3333v-5.3333c0-1.4667-1.2-2.6667-2.6667-2.6667-1.4666 0-2.6666 1.2-2.6666 2.6667v5.3333h-5.3334c-1.4666 0-2.6666 1.2-2.6666 2.6667 0 1.4666 1.2 2.6666 2.6666 2.6666h5.3334v5.3334c0 1.4666 1.2 2.6666 2.6666 2.6666 1.4667 0 2.6667-1.2 2.6667-2.6666v-5.3334h5.3333c1.4667 0 2.6667-1.2 2.6667-2.6666 0-1.4667-1.2-2.6667-2.6667-2.6667zm-7.9999 24.0002c-11.7627 0-21.3333-9.5707-21.3333-21.3334 0-11.7626 9.5706-21.3333 21.3333-21.3333 11.7626 0 21.3333 9.5707 21.3333 21.3333 0 11.7627-9.5707 21.3334-21.3333 21.3334zm-.0001-48.0002c-14.704 0-26.66663 11.9627-26.66663 26.6667s11.96263 26.6666 26.66663 26.6666 26.6667-11.9626 26.6667-26.6666-11.9627-26.6667-26.6667-26.6667z" fill="#6b7280" fill-rule="evenodd"/></svg>