<svg fill="none" height="64" viewBox="0 0 64 64" width="64" xmlns="http://www.w3.org/2000/svg"><path clip-rule="evenodd" d="m28.1612 22.5055c1.5627 1.56 1.5627 4.096 0 5.656-1.5626 1.5627-4.0933 1.5627-5.656 0-1.5626-1.56-1.5626-4.096 0-5.656 1.5627-1.5626 4.0934-1.5626 5.656 0zm-12.604 11.872 16.0854 16.088 18.8213-18.8213-16.0853-16.088-20.76-1.936zm16.0854 21.6188c-1.24 0-2.4773-.472-3.424-1.4133l-17.112-17.1147c-.44-.4373-.712-1.0187-.7706-1.6373l-2.32537-24.9174c-.072-.7893.208-1.57065.77067-2.13332s1.3413-.848 2.1333-.768l24.9174 2.32532c.6186.056 1.1973.328 1.6373.768l17.112 17.112c.9147.9147 1.4187 2.1307 1.4187 3.4267s-.504 2.512-1.4187 3.4266l-19.512 19.5094c-.944.944-2.184 1.416-3.4267 1.416z" fill="#6b7280" fill-rule="evenodd"/></svg>