<svg width="24" height="24" viewBox="0 0 24 24" fill="none" xmlns="http://www.w3.org/2000/svg">
<g id="Icon/Outline/pricetag">
<path id="Mask" fill-rule="evenodd" clip-rule="evenodd" d="M10.5605 8.4395C11.1465 9.0245 11.1465 9.9755 10.5605 10.5605C9.9745 11.1465 9.0255 11.1465 8.4395 10.5605C7.8535 9.9755 7.8535 9.0245 8.4395 8.4395C9.0255 7.8535 9.9745 7.8535 10.5605 8.4395ZM5.834 12.8916L11.866 18.9246L18.924 11.8666L12.892 5.83361L5.107 5.1076L5.834 12.8916ZM11.866 20.9986C11.401 20.9986 10.937 20.8216 10.582 20.4686L4.165 14.0506C4 13.8866 3.898 13.6686 3.876 13.4366L3.004 4.0926C2.977 3.7966 3.082 3.5036 3.293 3.2926C3.504 3.0816 3.796 2.9746 4.093 3.0046L13.437 3.8766C13.669 3.89761 13.886 3.99961 14.051 4.16461L20.468 10.5816C20.811 10.9246 21 11.3806 21 11.8666C21 12.3526 20.811 12.8086 20.468 13.1516L13.151 20.4676C12.797 20.8216 12.332 20.9986 11.866 20.9986Z" fill="#231F20"/>
<mask id="mask0" mask-type="alpha" maskUnits="userSpaceOnUse" x="2" y="2" width="19" height="19">
<path id="Mask_2" fill-rule="evenodd" clip-rule="evenodd" d="M10.5605 8.4395C11.1465 9.0245 11.1465 9.9755 10.5605 10.5605C9.9745 11.1465 9.0255 11.1465 8.4395 10.5605C7.8535 9.9755 7.8535 9.0245 8.4395 8.4395C9.0255 7.8535 9.9745 7.8535 10.5605 8.4395ZM5.834 12.8916L11.866 18.9246L18.924 11.8666L12.892 5.83361L5.107 5.1076L5.834 12.8916ZM11.866 20.9986C11.401 20.9986 10.937 20.8216 10.582 20.4686L4.165 14.0506C4 13.8866 3.898 13.6686 3.876 13.4366L3.004 4.0926C2.977 3.7966 3.082 3.5036 3.293 3.2926C3.504 3.0816 3.796 2.9746 4.093 3.0046L13.437 3.8766C13.669 3.89761 13.886 3.99961 14.051 4.16461L20.468 10.5816C20.811 10.9246 21 11.3806 21 11.8666C21 12.3526 20.811 12.8086 20.468 13.1516L13.151 20.4676C12.797 20.8216 12.332 20.9986 11.866 20.9986Z" fill="white"/>
</mask>
<g mask="url(#mask0)">
<g id="&#240;&#159;&#142;&#168; Color">
<rect id="Base" width="24" height="24" fill="#0D1C2E"/>
</g>
</g>
</g>
</svg>
