<svg fill="none" height="64" viewBox="0 0 64 64" width="64" xmlns="http://www.w3.org/2000/svg"><path clip-rule="evenodd" d="m53.3334 43.5547c0 .9813-.76 1.7786-1.6986 1.7786h-2.3014v-5.3333c0-2.9413-2.392-5.3333-5.3333-5.3333h-24c-2.9413 0-5.3333 2.392-5.3333 5.3333v5.3333h-2.3014c-.9386 0-1.6986-.7973-1.6986-1.7786v-17.776c0-.9814.76-1.7787 1.6986-1.7787h3.6347 5.3333 21.3333 5.3334 3.6347c.9386 0 1.6986.7973 1.6986 1.7787zm-33.3334 7.112v-10.6667h24l.0053 10.6667zm1.3707-37.3332h21.296v5.3333h-21.3147zm30.264 5.3332h-3.6347v-5.3334c0-2.9413-2.192-5.3333-4.888-5.3333h-22.224c-2.696 0-4.888 2.392-4.888 5.3333v5.3334h-3.6346c-3.87736 0-7.03203 3.1893-7.03203 7.112v17.776c0 3.9226 3.15467 7.112 7.03203 7.112h2.3013c0 2.9413 2.392 5.3333 5.3333 5.3333h24c2.9414 0 5.3334-2.392 5.3334-5.3333h2.3013c3.8773 0 7.032-3.1894 7.032-7.112v-17.776c0-3.9227-3.1547-7.112-7.032-7.112z" fill="#6b7280" fill-rule="evenodd"/></svg>