<svg width="64" height="64" viewBox="0 0 64 64" fill="none" xmlns="http://www.w3.org/2000/svg">
<path fill-rule="evenodd" clip-rule="evenodd" d="M32.7866 10.6668C20.5701 10.6668 10.6666 20.5703 10.6666 32.7868C10.6666 38.3812 12.7434 43.4904 16.168 47.3858C20.2606 42.529 26.3245 39.6587 32.7866 39.6587C39.2487 39.6587 45.3127 42.529 49.4053 47.3858C52.8299 43.4904 54.9066 38.3812 54.9066 32.7868C54.9066 20.5703 45.0032 10.6668 32.7866 10.6668ZM45.4266 50.9421C42.3376 47.205 37.7156 44.992 32.7866 44.992C27.8577 44.992 23.2357 47.205 20.1467 50.9421C23.7296 53.4412 28.087 54.9068 32.7866 54.9068C37.4863 54.9068 41.8437 53.4412 45.4266 50.9421ZM5.33331 32.7868C5.33331 17.6248 17.6246 5.3335 32.7866 5.3335C47.9487 5.3335 60.24 17.6248 60.24 32.7868C60.24 47.9489 47.9487 60.2402 32.7866 60.2402C17.6246 60.2402 5.33331 47.9489 5.33331 32.7868ZM32.7866 20.2002C28.9943 20.2002 25.92 23.2745 25.92 27.0668C25.92 30.8592 28.9943 33.9335 32.7866 33.9335C36.579 33.9335 39.6533 30.8592 39.6533 27.0668C39.6533 23.2745 36.579 20.2002 32.7866 20.2002ZM20.5866 27.0668C20.5866 20.329 26.0488 14.8668 32.7866 14.8668C39.5245 14.8668 44.9866 20.329 44.9866 27.0668C44.9866 33.8047 39.5245 39.2668 32.7866 39.2668C26.0488 39.2668 20.5866 33.8047 20.5866 27.0668Z" fill="#141416"/>
</svg>
