<svg viewBox="0 0 64 64" fill="none" xmlns="http://www.w3.org/2000/svg">
<path fill-rule="evenodd" clip-rule="evenodd" d="M14.8945 2.01052C15.4438 1.98274 16.0557 2.01567 16.6054 2.04372C19.2225 2.17726 21.7808 2.71754 24.1308 3.85427C26.8649 5.17684 28.9588 7.1979 30.1679 9.91774C30.4494 10.5508 30.5685 10.9796 30.792 11.6179C31.1534 10.3718 31.2416 8.84377 31.3691 7.55153C31.4421 6.81216 31.3559 5.86795 31.4795 5.15505C31.5437 4.7849 32.3243 4.26183 32.6777 4.06813C33.4263 3.65803 35.3011 3.36661 35.8769 4.18434C36.0666 4.49689 35.9143 5.64881 35.8642 6.09841C35.6563 8.03612 35.3077 9.95758 34.8213 11.8484C34.6905 12.3567 34.5266 13.0332 34.3447 13.5115C35.2522 13.6164 36.1037 13.7124 37.0029 13.8836C41.0395 14.6235 44.811 16.3516 47.9541 18.9021C53.259 23.2441 55.9133 29.0416 56.4668 35.6433C57.0574 35.9972 57.4903 35.992 57.8271 36.7586C58.0554 37.278 58.0579 37.864 57.8349 38.3855C57.5258 39.1005 57.0912 39.2272 56.4131 39.49C56.3264 39.7737 56.2424 40.4991 56.1855 40.8338C56.0507 41.6608 55.8712 42.4808 55.6484 43.2898C54.4711 47.493 52.4337 51.0319 49.2353 54.1267C48.55 54.7964 47.8234 55.4255 47.0586 56.0095C46.54 56.432 45.8508 56.8909 45.2822 57.2478C42.4915 58.997 39.355 60.1704 36.0703 60.6941C29.6972 61.6924 23.1728 60.2213 17.9209 56.6013C13.2197 53.3156 9.87747 48.5322 8.48728 43.0984C8.13023 41.7492 8.04895 40.8524 7.8242 39.5466C7.01847 39.3317 6.41382 39.0257 6.11228 38.2175C5.93686 37.7393 5.96809 37.2131 6.19822 36.7566C6.55204 36.0413 7.06247 35.8228 7.77732 35.5779C8.53255 28.3094 11.2103 22.9762 16.9785 18.1912C16.5952 17.9289 16.1176 17.7205 15.7178 17.4685C14.7308 16.8506 13.8282 16.1218 12.9521 15.366C12.7566 15.1973 12.4151 14.8791 12.4638 14.5916C12.4989 14.3866 12.7321 14.2512 12.8984 14.1384C11.8564 11.235 11.2449 7.87226 10.8613 4.82985C10.7834 4.21239 10.6334 3.09018 10.667 2.50759C11.5092 2.15601 13.9317 2.05021 14.8945 2.01052ZM33.6377 15.6648C33.1666 16.8386 32.6795 17.9713 32.0166 19.0613C31.6451 19.6947 31.1589 20.6123 30.4287 20.908C29.6858 21.2087 28.4644 21.024 27.7412 20.741C27.2797 20.5603 26.4764 20.2887 26.7803 19.6707C26.9601 19.3051 27.3306 19.0375 27.6426 18.784C27.492 18.5898 27.3365 18.4186 27.1416 18.2634C26.7171 18.4458 26.3238 18.665 25.8984 18.8367C24.3875 19.4464 22.834 19.5526 21.2187 19.3797C20.9385 19.3497 19.8691 19.1619 19.748 19.1951C19.4501 19.277 18.6113 19.9879 18.3447 20.2058C15.3863 22.625 13.1524 25.5683 11.7568 29.0681C11.2014 30.4766 10.7885 31.9337 10.5234 33.4187C10.4016 34.0867 10.2927 34.8558 10.2168 35.5349C10.0662 36.8799 9.36106 37.2668 8.10057 37.5847C10.5713 38.2561 10.1314 39.4262 10.5986 41.5349C10.7781 42.3154 10.9972 43.0869 11.2558 43.8465C13.3704 50.0446 18.114 55.1273 24.5244 57.3377C24.9937 57.4994 25.4984 57.6889 25.9756 57.8201C26.2854 57.9054 26.5974 57.9829 26.9111 58.0535C32.8019 59.3134 38.5196 58.5439 43.6631 55.3943C48.7766 52.2295 52.3627 47.2242 53.6221 41.4949C53.8389 40.5539 53.875 39.3222 54.3496 38.491C54.6606 37.9466 55.3544 37.7589 55.9404 37.5906C54.2711 37.178 54.1171 36.604 53.9726 35.0017C53.9363 34.5973 53.8704 34.1154 53.8017 33.7136C53.6725 32.9642 53.5056 32.2203 53.3027 31.4861C51.271 24.1298 45.6027 18.4175 37.9502 16.3943C36.3755 15.978 35.2227 15.8595 33.6377 15.6648ZM28.2207 44.7019C28.8235 44.6526 29.6326 44.8326 30.2158 44.9715C31.6011 45.301 32.9147 45.4189 34.3222 45.1492C34.7487 45.0675 35.2261 44.9882 35.6601 44.9451C36.0987 44.9012 36.3693 45.0315 36.3418 45.492C36.3172 46.6828 35.7727 47.6897 34.9219 48.5281C33.5154 49.7646 31.6364 50.1116 29.9521 49.1658C28.8775 48.5606 28.0967 47.5685 27.7822 46.408C27.682 46.0339 27.541 45.2903 27.7763 44.949C27.8992 44.771 28.0248 44.7483 28.2207 44.7019ZM28.9414 45.948C29.0377 46.2815 29.1261 46.5878 29.3125 46.8875C30.4527 48.722 32.5621 49.0457 34.1387 47.5564C34.5485 47.1343 34.7547 46.8393 34.9609 46.2879C33.4667 46.4929 32.3946 46.6115 30.8779 46.3299C30.2482 46.2128 29.5617 46.0495 28.9414 45.948ZM22.8887 28.8924C26.9631 28.6565 30.4632 31.6512 30.7021 35.5779C30.9408 39.5051 27.8273 42.8744 23.7519 43.0984C19.6854 43.322 16.1993 40.3295 15.9609 36.4109C15.7227 32.4924 18.8226 29.1278 22.8887 28.8924ZM40.2363 28.8924C44.2977 28.6611 47.7877 31.6401 48.04 35.5535C48.2922 39.4669 45.2116 42.8394 41.1513 43.0945C37.0741 43.35 33.5561 40.3654 33.3027 36.4353C33.0495 32.5056 36.1575 29.1248 40.2363 28.8924ZM40.3457 30.0916C36.9567 30.2654 34.3577 33.0574 34.5459 36.323C34.7344 39.5888 37.6391 42.0874 41.0273 41.8982C44.4043 41.7092 46.9858 38.9214 46.7978 35.6668C46.6102 32.4121 43.7237 29.9183 40.3457 30.0916ZM23.0078 30.0916C19.6238 30.2638 17.0254 33.0472 17.2051 36.3084C17.3847 39.5692 20.2743 42.0723 23.6582 41.8982C27.0408 41.7243 29.6375 38.9412 29.458 35.6814C29.2784 32.4216 26.3905 29.9195 23.0078 30.0916ZM24.0693 32.0095C24.7011 31.9769 25.3301 32.1121 25.8877 32.4002C26.8455 32.9017 27.5563 33.7505 27.8623 34.7586C28.2089 35.8684 28.0838 37.0657 27.5146 38.0867C26.4981 39.8745 24.3992 40.5967 22.5078 39.5955C22.1378 39.4283 21.599 38.9466 21.3584 38.6297C20.4653 37.4523 20.3626 36.4333 20.5459 35.0652C20.901 35.5395 21.3405 35.9111 21.9883 35.8572C22.7366 35.7947 23.3481 35.0598 23.2344 34.3386C23.0937 33.4484 22.3966 33.1008 21.5283 33.2136C22.2618 32.4472 23.007 32.1062 24.0693 32.0095ZM41.414 32.0086C43.212 31.9041 44.7241 33.1923 45.2129 34.8025C45.5459 35.9082 45.4135 37.0964 44.8437 38.1082C43.8135 39.9061 41.7047 40.5919 39.8135 39.5779C39.463 39.4147 38.9572 38.965 38.7226 38.6629C37.8058 37.4832 37.7071 36.4749 37.8857 35.0906C38.0093 35.2307 38.1453 35.3957 38.289 35.5154C38.8912 36.0169 39.7611 35.9683 40.2676 35.3611C40.5109 35.0747 40.6223 34.7051 40.5762 34.3377C40.464 33.465 39.7203 33.1096 38.876 33.2107C39.6523 32.4324 40.3102 32.1178 41.414 32.0086ZM13.1621 4.40602C13.2228 6.55698 14.0183 10.9703 14.9023 12.8816C15.3213 13.7874 15.8701 14.5991 16.6211 15.283C18.241 16.7582 20.7522 17.3441 22.9336 17.281C23.8607 17.2542 24.8915 17.117 25.7646 16.8084C25.5329 16.4686 25.2087 16.0734 24.9414 15.7527C24.4818 15.2057 24.0092 14.6689 23.5234 14.1433C23.2829 13.8787 22.9769 13.524 22.7207 13.282C21.8075 13.4413 21.0347 13.5287 20.1054 13.323C19.8 13.2553 18.9934 13.0572 19.2851 12.616C19.4058 12.435 20.5117 12.3221 20.7471 12.2761C21.0088 12.2254 21.2671 12.1567 21.5185 12.0701C20.8383 11.3344 20.1473 10.6682 19.4228 9.97048C17.8109 8.42642 16.1491 6.9312 14.4404 5.48708C14.2442 5.32012 13.3037 4.48109 13.1621 4.40602ZM13.8222 4.15895C13.9081 4.31441 15.5267 5.58633 15.7842 5.7947L19.2168 8.57497L21.3213 10.2791C21.5771 10.4862 22.0864 10.9251 22.334 11.0925C22.4331 10.8614 22.4854 10.6566 22.5722 10.4353C22.6855 10.1468 22.7017 9.59396 22.8301 9.35329C23.0731 8.89796 23.4169 9.30625 23.4912 9.6238C23.7031 10.5288 23.6655 11.32 23.5068 12.2156C23.6509 12.3556 23.7971 12.4968 23.9463 12.6316C24.9386 13.529 25.9695 14.4672 26.8974 15.4256C27.0759 15.6044 27.2576 15.7811 27.4424 15.9539C28.242 14.9439 28.7277 13.9888 28.5195 12.6736C28.1494 10.3362 26.6589 8.27175 24.7353 6.87184C21.477 4.50055 17.7685 4.06098 13.8222 4.15895Z" fill="#141414"/>
</svg>