<svg fill="none" height="24" viewBox="0 0 24 24" width="24" xmlns="http://www.w3.org/2000/svg"><path clip-rule="evenodd" d="m8.49997 9.49993c0-1.93 1.57003-3.5 3.50003-3.5s3.5 1.57 3.5 3.5c0 1.57997-1.06 2.90297-2.5 3.33697v1.163c0 .553-.447 1-1 1s-1-.447-1-1v-2c0-.553.447-1 1-1 .827 0 1.5-.673 1.5-1.49997 0-.827-.673-1.5-1.5-1.5s-1.5.673-1.5 1.5c0 .55297-.447.99997-1.00003.99997-.553 0-1-.447-1-.99997zm2.50003 7.49997c0-.553.447-1 1-1s1 .447 1 1-.447 1-1 1-1-.447-1-1zm1 3.0002c-4.41103 0-8.00003-3.589-8.00003-8 0-4.41104 3.589-8.00003 8.00003-8.00003 4.411 0 8 3.58899 8 8.00003 0 4.411-3.589 8-8 8zm0-18.0001c-5.514 0-10 4.486-10 10s4.486 10 10 10 10-4.486 10-10-4.486-10-10-10z" fill="#6b7280" fill-rule="evenodd"/></svg>