<svg fill="none" height="64" viewBox="0 0 64 64" width="64" xmlns="http://www.w3.org/2000/svg"><path clip-rule="evenodd" d="m22.6665 25.3333c0-5.1466 4.1867-9.3333 9.3333-9.3333 5.1467 0 9.3334 4.1867 9.3334 9.3333 0 4.2134-2.8267 7.7414-6.6667 8.8987v3.1013c0 1.4747-1.192 2.6667-2.6667 2.6667-1.4746 0-2.6666-1.192-2.6666-2.6667v-5.3333c0-1.4747 1.192-2.6667 2.6666-2.6667 2.2054 0 4-1.7946 4-4 0-2.2053-1.7946-4-4-4-2.2053 0-4 1.7947-4 4 0 1.4747-1.192 2.6667-2.6666 2.6667-1.4747 0-2.6667-1.192-2.6667-2.6667zm6.6668 19.9999c0-1.4747 1.192-2.6667 2.6666-2.6667 1.4747 0 2.6667 1.192 2.6667 2.6667 0 1.4746-1.192 2.6666-2.6667 2.6666-1.4746 0-2.6666-1.192-2.6666-2.6666zm2.6665 8.0005c-11.7626 0-21.3333-9.5707-21.3333-21.3334 0-11.7626 9.5707-21.3333 21.3333-21.3333 11.7627 0 21.3334 9.5707 21.3334 21.3333 0 11.7627-9.5707 21.3334-21.3334 21.3334zm.0001-48.0002c-14.704 0-26.66665 11.9627-26.66665 26.6667s11.96265 26.6666 26.66665 26.6666 26.6667-11.9626 26.6667-26.6666-11.9627-26.6667-26.6667-26.6667z" fill="#6b7280" fill-rule="evenodd"/></svg>