<svg viewBox="0 0 64 64" fill="none" xmlns="http://www.w3.org/2000/svg">
<path fill-rule="evenodd" clip-rule="evenodd" d="M5.5 32C5.5 17.3645 17.3645 5.5 32 5.5C46.6356 5.5 58.5 17.3645 58.5 32C58.5 46.6356 46.6356 58.5 32 58.5C17.3645 58.5 5.5 46.6356 5.5 32ZM32 10.8333C20.31 10.8333 10.8333 20.31 10.8333 32C10.8333 43.6901 20.31 53.1667 32 53.1667C43.6901 53.1667 53.1667 43.6901 53.1667 32C53.1667 20.31 43.6901 10.8333 32 10.8333ZM23.7641 26.3032C23.7641 21.162 28.5671 17.2203 33.6095 18.2233L33.6095 18.2233C36.8289 18.8637 39.4419 21.4766 40.0823 24.6961C40.4042 26.3144 40.2177 27.8668 39.5079 29.2632C38.8218 30.613 37.7429 31.6304 36.5793 32.4079L36.5792 32.4079C35.5467 33.0979 35.0238 33.4841 34.7318 33.7879C34.704 33.8169 34.6824 33.841 34.666 33.8605C34.599 35.2736 33.432 36.3988 32.0023 36.3988C30.5296 36.3988 29.3357 35.2049 29.3357 33.7321C29.3357 32.1723 30.0257 30.988 30.8865 30.0923C31.6483 29.2996 32.6731 28.6036 33.6162 27.9734C34.2851 27.5265 34.6057 27.1375 34.7535 26.8466C34.8777 26.6024 34.9595 26.2798 34.8514 25.7366L37.4669 25.2163L34.8514 25.7366C34.6319 24.6329 33.6728 23.6738 32.569 23.4542C30.8253 23.1073 29.0975 24.5253 29.0975 26.3032C29.0975 27.7759 27.9036 28.9699 26.4308 28.9699C24.9581 28.9699 23.7641 27.7759 23.7641 26.3032ZM32 39.645C33.4728 39.645 34.6667 40.8389 34.6667 42.3116V43.265C34.6667 44.7377 33.4728 45.9316 32 45.9316C30.5272 45.9316 29.3333 44.7377 29.3333 43.265V42.3116C29.3333 40.8389 30.5272 39.645 32 39.645Z" fill="#141414"/>
</svg>