<svg viewBox="0 0 64 64" fill="none" xmlns="http://www.w3.org/2000/svg">
<path fill-rule="evenodd" clip-rule="evenodd" d="M27.7443 5.35043C26.6793 5.34367 25.6131 5.3369 24.5508 5.36661C24.0226 5.50186 23.7954 5.77187 23.523 6.23307C22.9396 7.2208 22.3752 8.2209 21.8108 9.22084C21.4647 9.83413 21.1185 10.4474 20.7681 11.0576C20.405 11.69 20.0402 12.3217 19.6753 12.9536C18.6994 14.6433 17.7231 16.3338 16.778 18.0398L12.2006 18.033C12.0286 18.0328 11.8331 18.0276 11.6275 18.0221C11.0721 18.0073 10.4429 17.9906 10.0035 18.0662C9.77469 18.1063 9.56313 18.215 9.39639 18.3783C9.07431 18.6968 8.42359 19.8909 7.96769 20.7274C7.82365 20.9917 7.69906 21.2204 7.61043 21.3744L6.25967 23.7236C6.19055 23.8442 6.11974 23.9647 6.04881 24.0853C5.87411 24.3824 5.69868 24.6807 5.5459 24.9872C5.45773 25.164 5.33537 25.421 5.3334 25.6208C5.33121 25.8437 5.45089 26.1134 5.54835 26.3092C5.7154 26.6447 5.90618 26.9714 6.09612 27.2967C6.16365 27.4123 6.23108 27.5278 6.2973 27.6434L7.57993 29.8812C8.07425 30.7441 8.57279 31.6056 9.07148 32.4672C10.198 34.4137 11.3252 36.3614 12.4061 38.3305L12.3864 38.3722C12.2144 38.7325 12.0062 39.0822 11.7995 39.4293C11.71 39.5798 11.6207 39.7297 11.5348 39.8799L9.93203 42.6812C9.85465 42.8154 9.76934 42.9536 9.68225 43.0946C9.42593 43.5096 9.1543 43.9495 9.02462 44.3874C8.95437 44.6247 8.98651 44.8584 9.06602 45.088C9.17831 45.4122 9.36556 45.7241 9.54719 46.0266C9.60137 46.1169 9.65506 46.2063 9.7061 46.2949L10.7564 48.121L12.0591 50.4123C12.1214 50.5217 12.1827 50.6327 12.2442 50.7441C12.4206 51.0634 12.5987 51.3859 12.8051 51.6813C12.9459 51.8829 13.0841 52.0511 13.3085 52.16C13.4504 52.2287 13.5899 52.2734 13.7482 52.2831C14.2516 52.3139 14.7618 52.3081 15.2696 52.3023C15.462 52.3002 15.6541 52.298 15.8453 52.2978L19.5736 52.2965L24.5781 52.3015C24.8305 52.3016 25.0833 52.3029 25.3364 52.3042C26.1013 52.3082 26.8685 52.3121 27.6306 52.2848C28.2416 53.2514 28.8056 54.262 29.3669 55.2677C29.5765 55.6433 29.7858 56.0184 29.997 56.3902C30.0878 56.5499 30.1767 56.7164 30.2664 56.8845C30.5 57.322 30.7396 57.771 31.035 58.1428C31.1951 58.3444 31.3909 58.5303 31.6469 58.5894C32.1008 58.694 33.1423 58.6685 33.9525 58.6487C34.2359 58.6417 34.4909 58.6355 34.6827 58.6358L37.7946 58.6401C37.9458 58.6401 38.0977 58.6415 38.2499 58.643C38.6726 58.6469 39.0976 58.6509 39.5167 58.6244C39.7884 58.5323 40.0245 58.4278 40.207 58.1942C40.4697 57.8576 40.6852 57.4638 40.8953 57.08C40.9604 56.961 41.025 56.843 41.0903 56.7279L42.509 54.2297L45.6874 48.6664C45.8824 48.3258 46.0804 47.9866 46.2783 47.6473C46.6098 47.0791 46.9414 46.5107 47.2598 45.9358C48.2567 45.9837 49.2647 45.9745 50.2691 45.9654C50.6852 45.9616 51.1008 45.9579 51.5146 45.9582C51.6991 45.9583 51.9144 45.9632 52.1434 45.9685C52.789 45.9835 53.5441 46.001 54.0276 45.9184C54.2507 45.8804 54.4468 45.7706 54.6114 45.6161C54.9065 45.3385 55.2073 44.7726 55.4555 44.3057C55.533 44.1601 55.6053 44.0241 55.6707 43.9095L57.9591 39.9042C58.0098 39.8157 58.0618 39.7274 58.1139 39.6388C58.256 39.3973 58.3989 39.1543 58.5182 38.9033C58.6018 38.727 58.661 38.5358 58.6663 38.3392C58.6716 38.1499 58.6289 37.998 58.5469 37.8292C58.3157 37.3533 58.0415 36.891 57.7693 36.4319C57.6647 36.2555 57.5604 36.0796 57.4589 35.9036L55.746 32.9057C55.282 32.096 54.8237 31.2813 54.3653 30.4662C53.4571 28.8517 52.5481 27.2357 51.592 25.6542L53.8745 21.6867C53.9714 21.5173 54.0781 21.3417 54.1872 21.1624C54.4892 20.6657 54.809 20.1398 54.9873 19.6344C55.0567 19.437 55.0617 19.2643 55.0075 19.0625C54.8998 18.6606 54.6533 18.2553 54.4228 17.8761C54.3526 17.7607 54.2839 17.6476 54.221 17.5379L53.0496 15.4995L51.8948 13.4698C51.837 13.3682 51.78 13.2655 51.7229 13.1625C51.577 12.8992 51.4303 12.6346 51.2663 12.3853C51.1417 12.1962 50.98 11.9818 50.784 11.8641C50.6118 11.7608 50.425 11.7244 50.2283 11.7107C49.8309 11.683 49.426 11.6879 49.024 11.6927C48.8789 11.6945 48.7341 11.6963 48.5901 11.6965L45.6619 11.7005L36.3562 11.7012C36.0052 10.9941 35.587 10.2886 35.1736 9.59098C34.9786 9.26214 34.7848 8.93504 34.5995 8.61033C34.4583 8.36307 34.314 8.09816 34.1668 7.8278C33.8201 7.19134 33.457 6.5247 33.0802 5.98706C32.9556 5.80938 32.7542 5.53371 32.5464 5.45879C32.374 5.39666 32.1678 5.37215 31.9857 5.36079C31.3438 5.32074 30.6866 5.33281 30.0334 5.3448C29.7197 5.35055 29.4068 5.3563 29.097 5.35624C28.6466 5.35615 28.1956 5.35329 27.7443 5.35043ZM19.3844 16.0142C19.5929 15.5301 19.8936 15.041 20.1892 14.56C20.3556 14.2893 20.5203 14.0212 20.6662 13.7581C21.439 12.364 22.2369 10.9834 23.0348 9.60285C23.6104 8.60699 24.1861 7.61074 24.7522 6.60992L27.1584 10.8058C27.2936 11.0421 27.4316 11.2779 27.5697 11.5139C27.8496 11.992 28.1304 12.4716 28.3894 12.9585C27.9294 13.8237 27.4338 14.6749 26.9392 15.5245L26.9372 15.5277C26.7145 15.9103 26.4908 16.2946 26.2718 16.6777C26.1199 16.9434 25.9707 17.2148 25.8208 17.4874C25.4783 18.1105 25.1325 18.7397 24.7439 19.3195C26.4168 19.2876 28.0935 19.2961 29.769 19.3045C30.5274 19.3083 31.2865 19.3121 32.044 19.3122L51.1148 19.3136C51.3992 19.3138 51.6855 19.3179 51.9724 19.3221C52.5797 19.3308 53.1899 19.3396 53.7907 19.311C52.8039 20.979 51.8495 22.6699 50.8961 24.3591L50.893 24.3645C50.6497 24.7957 50.4064 25.2267 50.1626 25.6573C46.2358 25.6982 42.3077 25.6859 38.3799 25.6737C36.474 25.6678 34.5673 25.6619 32.6617 25.662L27.6253 25.6667L26.1904 25.6749C26.1257 25.6752 26.0587 25.6771 25.9906 25.679C25.8012 25.6843 25.6037 25.6898 25.4265 25.6632C24.9485 25.5871 24.4533 25.593 23.9605 25.5989C23.6844 25.6022 23.4089 25.6055 23.1378 25.5944C22.8083 25.074 22.5094 24.5262 22.211 23.9795C22.021 23.6313 21.8313 23.2835 21.634 22.9435C20.9753 21.8097 20.3265 20.67 19.6876 19.5248C19.5626 19.3051 19.4354 19.0869 19.3081 18.8687C19.0555 18.4355 18.8029 18.0024 18.5689 17.5578C18.5972 17.508 18.6439 17.4295 18.7009 17.3334C18.9464 16.9202 19.3843 16.1829 19.3844 16.0142ZM41.881 27.5391L47.8818 27.5401C48.1803 27.5402 48.4804 27.5444 48.781 27.5486C49.5444 27.5593 50.3116 27.57 51.0675 27.5132C51.244 27.6115 51.5089 28.1022 51.7063 28.4679C51.7794 28.6034 51.8434 28.722 51.89 28.7968L51.9453 28.7937C52.5655 29.7732 53.1459 30.8157 53.7209 31.8484C53.9749 32.3046 54.2282 32.7595 54.483 33.2056C54.7911 33.7454 55.1043 34.2837 55.4178 34.8225C56.0959 35.9879 56.7751 37.1553 57.4059 38.3424L50.1481 38.349L47.8306 34.3029C47.7012 34.0776 47.5663 33.8518 47.4307 33.6249C47.1083 33.0853 46.7823 32.5395 46.5191 31.9812C45.9808 33.0286 45.3805 34.0543 44.7822 35.0765C44.5277 35.5114 44.2735 35.9457 44.0246 36.3808L34.3983 53.2108C34.1335 53.6727 33.873 54.1391 33.6123 54.606L33.6109 54.6086C33.0879 55.5451 32.5637 56.4838 32.002 57.3913C31.6971 56.8197 31.3716 56.2574 31.0464 55.6959C30.9169 55.4722 30.7869 55.2476 30.6588 55.0235L28.3691 51.0286C28.8817 50.0931 29.4175 49.1687 29.9531 48.2448C30.2102 47.8013 30.4683 47.356 30.7227 46.9116L39.1376 32.2071C39.3435 31.8473 39.5464 31.4842 39.7495 31.1206C40.1602 30.3856 40.5721 29.6483 41.0108 28.9349C41.2119 28.8203 41.7514 27.791 41.881 27.5391ZM17.5026 19.3136L10.2344 19.3142C10.8792 20.3957 11.5004 21.4933 12.1213 22.5902C12.3705 23.0305 12.6201 23.4714 12.8707 23.9105L17.1463 31.3896C18.0205 32.9213 18.9016 34.4499 19.7828 35.9787C21.4497 38.8705 23.117 41.7631 24.7387 44.6786L17.4993 44.6797C16.8721 45.7252 16.2708 46.7889 15.67 47.8519C15.4157 48.3019 15.1613 48.7519 14.9052 49.2002C14.7953 49.3925 14.6873 49.5877 14.5791 49.7834C14.3439 50.2087 14.1075 50.6363 13.8475 51.0406C15.24 51.059 16.6334 51.0544 18.0266 51.0498C18.6811 51.0476 19.3355 51.0454 19.9897 51.0457C20.4561 51.0457 20.9237 51.0501 21.3917 51.0545C22.3133 51.0632 23.2373 51.072 24.1551 51.047C24.3984 50.9136 25.3972 50.9444 26.0039 50.9632C26.1557 50.9679 26.2836 50.9718 26.3682 50.9722C27.4665 49.01 28.5805 47.0567 29.7099 45.1125C29.9482 44.7126 30.1818 44.3097 30.4104 43.904C30.4487 43.8361 30.4864 43.767 30.5242 43.6976C30.6396 43.4858 30.7566 43.2713 30.898 43.0802L30.925 43.0445L30.9478 43.0131C30.9791 42.9712 30.8062 42.6878 30.6141 42.3729C30.3997 42.0215 30.1614 41.6308 30.1564 41.4931C30.1561 41.4825 30.1562 41.4717 30.1564 41.4609L30.1565 41.4448C30.0163 41.1469 29.8452 40.8589 29.6756 40.5734C29.619 40.4782 29.5626 40.3831 29.5076 40.2882L28.5616 38.6384L20.1695 23.9553C19.8961 23.4772 19.6258 22.9957 19.3553 22.5136C18.7516 21.4379 18.1466 20.3599 17.5026 19.3136Z" fill="#141414"/>
</svg>