<svg fill="none" height="64" viewBox="0 0 64 64" width="64" xmlns="http://www.w3.org/2000/svg"><path clip-rule="evenodd" d="m32 40c-4.4107 0-8-3.5893-8-8s3.5893-8 8-8 8 3.5893 8 8-3.5893 8-8 8zm.0001-21.333c-7.352 0-13.3334 5.9813-13.3334 13.3333s5.9814 13.3334 13.3334 13.3334 13.3333-5.9814 13.3333-13.3334-5.9813-13.3333-13.3333-13.3333zm0 34.6667c-11.7627 0-21.3333-9.5707-21.3333-21.3334 0-11.7626 9.5706-21.3333 21.3333-21.3333 11.7626 0 21.3333 9.5707 21.3333 21.3333 0 11.7627-9.5707 21.3334-21.3333 21.3334zm-.0001-48.0002c-14.704 0-26.66663 11.9627-26.66663 26.6667s11.96263 26.6666 26.66663 26.6666 26.6667-11.9626 26.6667-26.6666-11.9627-26.6667-26.6667-26.6667z" fill="#6b7280" fill-rule="evenodd"/></svg>