<svg fill="none" height="24" viewBox="0 0 24 24" width="24" xmlns="http://www.w3.org/2000/svg"><path clip-rule="evenodd" d="m3.5 10.9999c0-1.941.938-3.8 2.644-5.234.422-.357.477-.988.122-1.41-.357-.422-.987-.477-1.41-.122-2.164 1.822-3.356 4.225-3.356 6.766s1.192 4.944 3.356 6.766c.188.157.416.234.643.234.285 0 .568-.121.767-.356.355-.422.3-1.053-.122-1.41-1.706-1.434-2.644-3.293-2.644-5.234zm8.5 1c-.552 0-1-.448-1-1s.448-1 1-1 1 .448 1 1-.448 1-1 1zm0-4.00006c-1.654 0-3 1.346-3 2.99996 0 1.314.855 2.422 2.035 2.826-.0039.021-.0095.0413-.015.0614v.0001c-.0101.0364-.02.0726-.02.1125v6c0 .553.447 1 1 1s1-.447 1-1v-6c0-.0399-.0099-.0761-.02-.1125v-.0001c-.0055-.0201-.0111-.0404-.015-.0614 1.18-.404 2.035-1.512 2.035-2.826 0-1.65396-1.346-2.99996-3-2.99996zm3.2356-1.64347c.354-.422.985-.478 1.408-.121 1.52 1.278 2.356 2.971 2.356 4.76503 0 1.794-.836 3.486-2.356 4.764-.187.159-.416.236-.643.236-.285 0-.568-.121-.765-.357-.357-.422-.302-1.053.121-1.408 1.059-.893 1.643-2.042 1.643-3.235 0-1.19403-.584-2.34303-1.643-3.23603-.423-.355-.478-.986-.121-1.408zm-6.471-.00003c-.354-.423-.984-.479-1.408-.121-1.52 1.27799-2.357 2.971-2.357 4.76496 0 1.793.837 3.486 2.357 4.764.187.158.416.236.642.236.286 0 .569-.122.766-.357.356-.422.302-1.053-.121-1.408-1.06-.893-1.644-2.042-1.644-3.235 0-1.19397.584-2.34297 1.644-3.23597.423-.35499.477-.98599.121-1.40799zm8.97-2.00004c.356-.422.985-.476 1.409-.122 2.164 1.821 3.356 4.225 3.356 6.766s-1.192 4.944-3.356 6.765c-.187.157-.416.235-.643.235-.285 0-.568-.121-.766-.357-.356-.422-.301-1.053.122-1.409 1.705-1.435 2.643-3.293 2.643-5.234 0-1.942-.938-3.8-2.643-5.235-.423-.356-.478-.987-.122-1.409z" fill="#6b7280" fill-rule="evenodd"/></svg>