<svg fill="none" height="64" viewBox="0 0 64 64" width="64" xmlns="http://www.w3.org/2000/svg"><path d="m22.0392 5.34272c5.3346-1.42942 10.8176 1.73663 12.247 7.07128l2.8477 10.625c.452 1.6868.4419 3.388.0517 4.9717 1.0755-.3061 2.2186-.4355 3.3907-.3574l.5127.0478 10.9238 1.2862c5.4848.6457 9.4083 5.6157 8.7627 11.1005l-1.2861 10.9248c-.6458 5.485-5.6166 9.4076-11.1016 8.7618l-10.9238-1.2862-.5098-.0722c-5.2161-.8839-8.8785-5.7148-8.2529-11.0284l1.2861-10.9248c.0491-.4165.1254-.8235.2227-1.2207-.0493.014-.0979.0307-.1475.044l-10.625 2.8476-.501.1211c-5.1728 1.1085-10.36235-2.0246-11.74705-7.1924l-2.84668-10.625c-1.38474-5.1679 1.54285-10.47624 6.57713-12.10249l.4942-.14551zm18.582 26.33108c-3.2909-.3875-6.2735 1.966-6.6611 5.2568l-1.2862 10.9248c-.3875 3.291 1.9669 6.2727 5.2578 6.6602l10.9239 1.2871c3.2909.3875 6.2736-1.9669 6.6611-5.2578l1.2861-10.9248c.3873-3.2909-1.9669-6.2727-5.2578-6.6602zm7.1338 14.081c1.6567.0002 3 1.3433 3 3-.0002 1.6567-1.3434 2.9999-3 3-1.6568 0-2.9999-1.3433-3-3 0-1.6568 1.3431-3 3-3zm-7-10c1.6567.0002 3 1.3433 3 3-.0002 1.6567-1.3434 2.9999-3 3-1.6568 0-2.9999-1.3433-3-3 0-1.6568 1.3431-3 3-3zm-10.3321-22.3056c-.8576-3.2008-4.1478-5.10085-7.3486-4.2432l-10.625 2.8477c-3.20078.8576-5.09982 4.1478-4.24217 7.3486l2.84667 10.625c.8577 3.2007 4.1479 5.0998 7.3486 4.2422l10.625-2.8467c3.2008-.8577 5.0999-4.1479 4.2422-7.3486zm-9.6679 5.3056c1.6567.0002 3 1.3433 3 3-.0002 1.6567-1.3434 2.9999-3 3-1.6568 0-2.9999-1.3433-3-3 0-1.6568 1.3431-3 3-3z" fill="#000"/></svg>