<svg fill="none" height="64" viewBox="0 0 64 64" width="64" xmlns="http://www.w3.org/2000/svg"><path clip-rule="evenodd" d="m47.9998 37.3337c-2.9413 0-5.3333-2.392-5.3333-5.3334 0-2.9413 2.392-5.3333 5.3333-5.3333 2.9414 0 5.3334 2.392 5.3334 5.3333 0 2.9414-2.392 5.3334-5.3334 5.3334zm-37.3333-5.3334c0-2.9413 2.392-5.3333 5.3333-5.3333 2.9414 0 5.3334 2.392 5.3334 5.3333 0 2.9414-2.392 5.3334-5.3334 5.3334-2.9413 0-5.3333-2.392-5.3333-5.3334zm37.3334-10.6668c-5.8827 0-10.6666 4.784-10.6666 10.6667 0 1.9493.5653 3.7573 1.4853 5.3333h-13.6374c.92-1.576 1.4854-3.384 1.4854-5.3333 0-5.8827-4.784-10.6667-10.6667-10.6667-5.8826 0-10.66665 4.784-10.66665 10.6667 0 5.8826 4.78405 10.6666 10.66665 10.6666h32c5.8827 0 10.6667-4.784 10.6667-10.6666 0-5.8827-4.784-10.6667-10.6667-10.6667z" fill="#6b7280" fill-rule="evenodd"/></svg>