<svg viewBox="0 0 64 64" fill="none" xmlns="http://www.w3.org/2000/svg">
<path fill-rule="evenodd" clip-rule="evenodd" d="M38.6086 12.2674C37.639 11.2911 37.639 9.70837 38.6086 8.73216C39.5783 7.75596 41.1504 7.75593 42.1201 8.73216L55.2728 21.9738C55.7384 22.4426 56 23.0784 56 23.7414C56 24.4043 55.7384 25.0402 55.2728 25.509L42.1201 38.7505C41.1504 39.7267 39.5783 39.7267 38.6086 38.7505C37.639 37.7744 37.639 36.1915 38.6086 35.2154L47.8927 25.8685H24.951C23.377 25.8685 21.8185 26.1806 20.3644 26.7869C18.9104 27.3934 17.5892 28.282 16.4761 29.4027C15.3632 30.5231 14.4805 31.8532 13.8782 33.3171C13.2758 34.7809 12.9659 36.35 12.9659 37.9346C12.9659 39.519 13.2758 41.0881 13.8782 42.5519C14.4805 44.0158 15.3632 45.3459 16.4761 46.4666C17.5892 47.587 18.9104 48.4756 20.3644 49.0821C21.8185 49.6885 23.377 50.0005 24.951 50.0005H34.1578C35.5289 50.0005 36.6408 51.1196 36.6408 52.5002C36.6408 53.8809 35.5289 55 34.1578 55H24.951C22.7248 55 20.5206 54.5585 18.464 53.7011C16.4076 52.8435 14.5389 51.5863 12.9647 50.0017C11.3907 48.4169 10.1421 46.5358 9.2904 44.4653C8.43849 42.3947 8 40.1757 8 37.9346C8 35.6933 8.43849 33.4743 9.2904 31.4038C10.1421 29.3334 11.3907 27.4521 12.9647 25.8674C14.5389 24.2827 16.4076 23.0257 18.464 22.1681C20.5206 21.3104 22.7248 20.869 24.951 20.869H47.1525L38.6086 12.2674Z" fill="#141414"/>
</svg>