<svg viewBox="0 0 64 64" fill="none" xmlns="http://www.w3.org/2000/svg">
<path fill-rule="evenodd" clip-rule="evenodd" d="M13.3337 16.7233C18.5447 10.5023 26.6742 7.15839 35.0447 8.23846C45.8964 9.63867 54.4688 18.1278 55.9749 28.9653C56.1777 30.4241 55.1595 31.7709 53.7007 31.9737C52.242 32.1764 50.8951 31.1582 50.6924 29.6995C49.5173 21.2438 42.8289 14.6204 34.3622 13.5279C27.3185 12.6191 20.4936 15.7252 16.5082 21.3324H21.3337C22.8064 21.3324 24.0003 22.5263 24.0003 23.9991C24.0003 25.4718 22.8064 26.6657 21.3337 26.6657H12.06C12.0196 26.6666 11.9791 26.6667 11.9385 26.6657H10.667C9.19423 26.6657 8.00033 25.4718 8.00033 23.9991V13.3324C8.00033 11.8596 9.19423 10.6657 10.667 10.6657C12.1398 10.6657 13.3337 11.8596 13.3337 13.3324V16.7233Z M10.2999 32.0244C11.7587 31.8217 13.1056 32.8399 13.3083 34.2987C14.4834 42.7543 21.1718 49.3777 29.6385 50.4702C36.6821 51.379 43.5071 48.2729 47.4925 42.6657H42.667C41.1942 42.6657 40.0003 41.4718 40.0003 39.9991C40.0003 38.5263 41.1942 37.3324 42.667 37.3324H51.9407C51.9811 37.3315 52.0216 37.3315 52.0621 37.3324H53.3337C54.8064 37.3324 56.0003 38.5263 56.0003 39.9991V50.6657C56.0003 52.1385 54.8064 53.3324 53.3337 53.3324C51.8609 53.3324 50.667 52.1385 50.667 50.6657V47.2748C45.4559 53.4958 37.3265 56.8397 28.9559 55.7597C18.1043 54.3594 9.53181 45.8703 8.02571 35.0328C7.82299 33.574 8.84119 32.2272 10.2999 32.0244Z" fill="#141414"/>
</svg>