<svg fill="none" height="64" viewBox="0 0 64 64" width="64" xmlns="http://www.w3.org/2000/svg"><path clip-rule="evenodd" d="m54.1419 35.8022c-1.4027-.4454-2.9013.3306-3.3493 1.7333-2.4987 7.856-9.8534 13.1307-18.3014 13.1307-10.5653 0-19.1573-8.3734-19.1573-18.6667 0-10.2907 8.592-18.6667 19.1573-18.6667 4.608 0 8.9547 1.6054 12.3867 4.4534l-5.776-.952c-1.4667-.2667-2.8267.744-3.0667 2.1946-.24 1.4534.744 2.8267 2.1973 3.064l11.3227 1.872c.1467.024.296.0347.4373.0347.3174 0 .6267-.056.9147-.1627.0987-.0373.1787-.1066.2747-.1573.176-.0907.36-.1707.512-.2987.096-.0773.1573-.1893.24-.28.1253-.1306.2587-.256.352-.416.0667-.1146.0933-.2506.144-.3786.064-.1574.1493-.304.1813-.4774l2.0107-10.6666c.272-1.44802-.68-2.84535-2.128-3.11469-1.4427-.26133-2.8427.68-3.1147 2.12529l-.7253 3.8427c-4.4374-3.8427-10.1254-6.01599-16.1627-6.01599-13.504 0-24.49065 10.76529-24.49065 23.99999s10.98665 24 24.49065 24c10.7787 0 20.176-6.7707 23.384-16.848.4453-1.4027-.3307-2.9013-1.7333-3.3493z" fill="#6b7280" fill-rule="evenodd"/></svg>