<svg fill="none" height="64" viewBox="0 0 64 64" width="64" xmlns="http://www.w3.org/2000/svg"><path clip-rule="evenodd" d="m46.6667 42.6271-12.8587-10.6213 12.8587-10.4293zm-21.3334 0-12.8587-10.6213 12.8587-10.4293zm23.8667-26.0902c-1.9574-.92-4.2694-.648-5.8907.6933l-12.6427 10.4427v-6.9067c0-1.7946-1.072-3.416-2.8-4.2293-1.9573-.92-4.2693-.648-5.8906.6933l-13.60004 11.232c-1.08533.896-1.70933 2.1894-1.70933 3.5387s.624 2.64 1.712 3.536l13.59737 11.2373c.9813.808 2.2186 1.2293 3.4746 1.2293.8187 0 1.6454-.1786 2.416-.5413 1.728-.8133 2.8-2.4347 2.8-4.2267v-6.9093l12.6427 10.448c.9813.808 2.2187 1.2293 3.4747 1.2293.8186 0 1.6453-.1786 2.416-.5413 1.728-.8133 2.8-2.4347 2.8-4.2267v-22.4693c0-1.7946-1.072-3.416-2.8-4.2293z" fill="#6b7280" fill-rule="evenodd"/></svg>