<svg fill="none" height="24" viewBox="0 0 24 24" width="24" xmlns="http://www.w3.org/2000/svg"><path clip-rule="evenodd" d="m14.5 15.9083v-7.89403l4.822 3.98403zm-7.99998 0v-7.89403l4.82198 3.98403zm14.35798-5.234-5.099-4.21403c-.609-.502-1.477-.604-2.209-.259-.648.306-1.05.913-1.05 1.586v2.59103l-4.741-3.91803c-.609-.502-1.478-.604-2.209-.259-.648.306-1.05.913-1.05 1.586v8.42603c0 .673.402 1.28 1.05 1.586.289.135.599.202.906.202.471 0 .935-.157 1.303-.462l4.741-3.916v2.59c0 .673.402 1.28 1.05 1.586.289.135.599.202.906.202.471 0 .935-.157 1.303-.462l5.1-4.213c.407-.336.641-.82.641-1.326s-.234-.99-.642-1.326z" fill="#6b7280" fill-rule="evenodd"/></svg>