<svg fill="none" height="64" viewBox="0 0 64 64" width="64" xmlns="http://www.w3.org/2000/svg"><path clip-rule="evenodd" d="m38.6666 42.4219v-21.0507l12.8587 10.624zm-21.3332 0v-21.0507l12.8586 10.624zm38.2879-13.9573-13.5973-11.2374c-1.624-1.3386-3.9387-1.6106-5.8907-.6906-1.728.816-2.8 2.4346-2.8 4.2293v6.9093l-12.6426-10.448c-1.624-1.3386-3.9414-1.6106-5.8907-.6906-1.728.816-2.8 2.4346-2.8 4.2293v22.4693c0 1.7947 1.072 3.4134 2.8 4.2294.7707.36 1.5973.5386 2.416.5386 1.256 0 2.4933-.4186 3.4747-1.232l12.6426-10.4426v6.9066c0 1.7947 1.072 3.4134 2.8 4.2294.7707.36 1.5974.5386 2.416.5386 1.256 0 2.4934-.4186 3.4747-1.232l13.6-11.2346c1.0853-.896 1.7093-2.1867 1.7093-3.536 0-1.3494-.624-2.64-1.712-3.536z" fill="#6b7280" fill-rule="evenodd"/></svg>