<svg fill="none" height="24" viewBox="0 0 24 24" width="24" xmlns="http://www.w3.org/2000/svg"><path clip-rule="evenodd" d="m17.5 15.9853-4.822-3.983 4.822-3.91101zm-8.00001 0-4.822-3.983 4.822-3.91101zm8.95001-9.78384c-.734-.345-1.601-.243-2.209.26l-4.741 3.91604v-2.59004c0-.673-.402-1.281-1.05-1.586-.734-.345-1.601-.243-2.209.26l-5.1 4.21204c-.407.336-.641.821-.641 1.327s.234.99.642 1.326l5.099 4.214c.368.303.832.461 1.303.461.307 0 .617-.067.906-.203.648-.305 1.05-.913 1.05-1.585v-2.591l4.741 3.918c.368.303.832.461 1.303.461.307 0 .617-.067.906-.203.648-.305 1.05-.913 1.05-1.585v-8.42604c0-.673-.402-1.281-1.05-1.586z" fill="#6b7280" fill-rule="evenodd"/></svg>