<svg viewBox="0 0 64 64" fill="none" xmlns="http://www.w3.org/2000/svg">
<path fill-rule="evenodd" clip-rule="evenodd" d="M45.1882 8.00396C45.2365 8.00132 45.2849 8 45.3333 8C51.2244 8 56 12.7756 56 18.6667C56 18.7151 55.9987 18.7635 55.9961 18.8118C55.4409 28.9943 49.1381 37.9126 39.853 41.8796C39.1079 47.6141 35.7337 52.7216 30.6652 55.6436C29.8887 56.0912 28.9393 56.1189 28.1381 55.7171C27.3369 55.3154 26.7911 54.5381 26.6853 53.648C26.559 52.5853 26.3444 51.5505 26.049 50.5511C22.012 54.6594 16.2154 56.7454 10.3222 55.9777C9.12269 55.8214 8.17863 54.8773 8.02236 53.6778C7.25459 47.7847 9.34063 41.988 13.4489 37.951C12.4495 37.6556 11.4147 37.441 10.352 37.3147C9.46196 37.2089 8.68461 36.6631 8.28288 35.8619C7.88115 35.0607 7.90879 34.1113 8.35644 33.3348C11.2785 28.2664 16.3859 24.8921 22.1204 24.147C26.0874 14.8619 35.0057 8.55914 45.1882 8.00396ZM18.7174 40.4631C15.3784 42.877 13.3516 46.7003 13.2071 50.7929C17.2997 50.6484 21.123 48.6216 23.537 45.2826C22.2397 43.3954 20.6046 41.7603 18.7174 40.4631ZM45.4009 13.3338C36.8181 13.8329 29.3702 19.4368 26.5156 27.5516C26.1507 28.5887 25.1868 29.2956 24.088 29.3319C20.7945 29.4406 17.7082 30.76 15.3749 32.9625C22.8265 35.3116 28.6884 41.1735 31.0375 48.6251C33.24 46.2918 34.5594 43.2055 34.6681 39.912C34.7044 38.8132 35.4113 37.8493 36.4484 37.4844C44.5633 34.6298 50.1671 27.1819 50.6663 18.5991C50.6304 15.7072 48.2928 13.3696 45.4009 13.3338ZM34.6667 24C34.6667 21.0545 37.0545 18.6667 40 18.6667C42.9455 18.6667 45.3333 21.0545 45.3333 24C45.3333 26.9455 42.9455 29.3333 40 29.3333C37.0545 29.3333 34.6667 26.9455 34.6667 24Z" fill="#141414"/>
</svg>