<svg fill="none" height="64" viewBox="0 0 64 64" width="64" xmlns="http://www.w3.org/2000/svg"><path clip-rule="evenodd" d="m57.67 11.0005c0 4.4185-3.582 8.0004-8.0005 8.0004-3.487 0-6.4529-2.2307-7.5486-5.3429l-.0339-.0009c-.2272-.0059-.5655-.0131-.9992-.0174-.8679-.0086-2.1146-.0057-3.6132.0408-3.0081.0934-6.98.3612-10.9198 1.0485-3.9857.6953-7.7117 1.7827-10.3738 3.3923-2.6025 1.5736-3.8473 3.4031-3.8473 5.6816 0 1.4758.4239 2.3696 1.0132 3.0092.6495.7048 1.7131 1.3269 3.3384 1.8157 3.2878.9887 7.7838 1.1445 12.826 1.3192l.2493.0086c4.8857.1695 10.3169.3706 14.5138 1.7918 2.1501.7281 4.2 1.844 5.7127 3.633 1.554 1.838 2.3492 4.1598 2.3492 6.9113 0 4.6676-2.5061 7.9104-5.8307 10.0012-3.2117 2.0198-7.3071 3.07-11.1163 3.6293-3.8571.5663-7.6773.664-10.5084.6248-.8992-.0125-1.7045-.0389-2.3866-.0692-1.1372 3.0332-4.0634 5.1922-7.4938 5.1922-4.4185 0-8.0005-3.5819-8.0005-8.0005 0-4.4185 3.582-8.0004 8.0005-8.0004 3.5358 0 6.5358 2.2936 7.5935 5.474.6603.0308 1.459.0582 2.3608.0707 2.6693.037 6.1829-.0582 9.6597-.5687 3.5246-.5175 6.763-1.4279 9.0516-2.8672 2.1758-1.3683 3.3365-3.083 3.3365-5.4862 0-1.6658-.4549-2.7182-1.0885-3.4676-.675-.7983-1.7503-1.483-3.3505-2.0249-3.3036-1.1187-7.873-1.3357-12.9879-1.5131l-.6727-.0231c-4.6791-.1599-9.7862-.3344-13.7538-1.5276-2.1249-.639-4.1865-1.6398-5.7247-3.3091-1.59833-1.7346-2.4245-3.9662-2.4245-6.6234 0-4.7895 2.86258-8.094 6.4212-10.2457 3.499-2.1157 7.9879-3.3448 12.217-4.0825 4.275-.74574 8.518-1.02741 11.6709-1.1253 1.5821-.04911 2.9025-.05231 3.8316-.04308.4075.00404.7402.01048.9873.01651 1.1014-3.10171 4.062-5.32283 7.5415-5.32283 4.4185 0 8.0005 3.58193 8.0005 8.0005zm-40.0027 42.6485c-.011-1.4634-1.2008-2.6463-2.6668-2.6463-1.4728 0-2.6668 1.194-2.6668 2.6668 0 1.4729 1.194 2.6669 2.6668 2.6669 1.465 0 2.654-1.1812 2.6668-2.6432-.0001-.0147-.0001-.0294 0-.0442z" fill="#6b7280" fill-rule="evenodd"/></svg>