<svg fill="none" height="24" viewBox="0 0 24 24" width="24" xmlns="http://www.w3.org/2000/svg"><path clip-rule="evenodd" d="m19 18.0001c0 .551-.448 1-1 1h-2v-3c0-.552-.447-1-1-1h-5.99998c-.553 0-1 .448-1 1v3h-2c-.552 0-1-.449-1-1v-12.00003c0-.551.448-1 1-1h2v5.00003c0 .552.447 1 1 1h3.99998c.553 0 1-.448 1-1 0-.55203-.447-1.00003-1-1.00003h-3v-4h3.172c.263 0 .52.107.707.293l4.828 4.82803c.189.189.293.441.293.708zm-9.00002 1h4.00002v-2h-4.00002zm10.12102-10.2931-4.828-4.828c-.566-.567-1.32-.879-2.121-.879h-7.172c-1.654 0-3 1.346-3 3v12c0 1.654 1.346 3 3 3h3 6 3c1.654 0 3-1.346 3-3v-7.171c0-.802-.313-1.556-.879-2.122z" fill="#6b7280" fill-rule="evenodd"/></svg>