<svg fill="none" height="64" viewBox="0 0 64 64" width="64" xmlns="http://www.w3.org/2000/svg"><path clip-rule="evenodd" d="m50.6667 48.0002c0 1.4693-1.1947 2.6666-2.6667 2.6666h-5.3333v-8c0-1.472-1.192-2.6666-2.6667-2.6666h-16c-1.4746 0-2.6666 1.1946-2.6666 2.6666v8h-5.3334c-1.472 0-2.6666-1.1973-2.6666-2.6666v-32c0-1.4694 1.1946-2.6667 2.6666-2.6667h5.3334v13.3333c0 1.472 1.192 2.6667 2.6666 2.6667h10.6667c1.4747 0 2.6667-1.1947 2.6667-2.6667s-1.192-2.6666-2.6667-2.6666h-8v-10.6667h8.4587c.7013 0 1.3866.2853 1.8853.7813l12.8747 12.8747c.504.504.7813 1.176.7813 1.888zm-24.0001 2.6666h10.6667v-5.3333h-10.6667zm26.9894-27.4481-12.8747-12.8747c-1.5093-1.512-3.52-2.344-5.656-2.344h-19.1253c-4.4107 0-8 3.5893-8 8v32c0 4.4107 3.5893 8 8 8h8 16 8c4.4107 0 8-3.5893 8-8v-19.1227c0-2.1386-.8347-4.1493-2.344-5.6586z" fill="#6b7280" fill-rule="evenodd"/></svg>