<svg width="24" height="24" viewBox="0 0 24 24" fill="none" xmlns="http://www.w3.org/2000/svg">
<g id="Icon/Outline/save">
<path id="Mask" fill-rule="evenodd" clip-rule="evenodd" d="M19 18C19 18.551 18.552 19 18 19H16V16C16 15.448 15.553 15 15 15H9C8.447 15 8 15.448 8 16V19H6C5.448 19 5 18.551 5 18V6C5 5.449 5.448 5 6 5H8V10C8 10.552 8.447 11 9 11H13C13.553 11 14 10.552 14 10C14 9.448 13.553 9 13 9H10V5H13.172C13.435 5 13.692 5.107 13.879 5.293L18.707 10.121C18.896 10.31 19 10.562 19 10.829V18ZM10 19H14V17H10V19ZM20.121 8.707L15.293 3.879C14.727 3.312 13.973 3 13.172 3H6C4.346 3 3 4.346 3 6V18C3 19.654 4.346 21 6 21H9H15H18C19.654 21 21 19.654 21 18V10.829C21 10.027 20.687 9.273 20.121 8.707Z" fill="#231F20"/>
<mask id="mask0" mask-type="alpha" maskUnits="userSpaceOnUse" x="3" y="3" width="18" height="18">
<path id="Mask_2" fill-rule="evenodd" clip-rule="evenodd" d="M19 18C19 18.551 18.552 19 18 19H16V16C16 15.448 15.553 15 15 15H9C8.447 15 8 15.448 8 16V19H6C5.448 19 5 18.551 5 18V6C5 5.449 5.448 5 6 5H8V10C8 10.552 8.447 11 9 11H13C13.553 11 14 10.552 14 10C14 9.448 13.553 9 13 9H10V5H13.172C13.435 5 13.692 5.107 13.879 5.293L18.707 10.121C18.896 10.31 19 10.562 19 10.829V18ZM10 19H14V17H10V19ZM20.121 8.707L15.293 3.879C14.727 3.312 13.973 3 13.172 3H6C4.346 3 3 4.346 3 6V18C3 19.654 4.346 21 6 21H9H15H18C19.654 21 21 19.654 21 18V10.829C21 10.027 20.687 9.273 20.121 8.707Z" fill="white"/>
</mask>
<g mask="url(#mask0)">
<g id="&#240;&#159;&#142;&#168; Color">
<rect id="Base" width="24" height="24" fill="#0D1C2E"/>
</g>
</g>
</g>
</svg>
