<svg fill="none" height="64" viewBox="0 0 64 64" width="64" xmlns="http://www.w3.org/2000/svg"><path clip-rule="evenodd" d="m14.6668 48.0002c0 1.4693 1.1946 2.6667 2.6666 2.6667s2.6667-1.1974 2.6667-2.6667c0-1.4694-1.1947-2.6667-2.6667-2.6667s-2.6666 1.1973-2.6666 2.6667zm0-32c0 1.4693 1.1946 2.6666 2.6666 2.6666s2.6667-1.1973 2.6667-2.6666c0-1.4694-1.1947-2.6667-2.6667-2.6667s-2.6666 1.1973-2.6666 2.6667zm39.2159-4.5549c1.0427 1.04 1.048 2.7254.0053 3.7707l-29.3173 29.424c.4773 1.0267.7627 2.1573.7627 3.36 0 4.4107-3.5894 8-8 8-4.4107 0-8.00003-3.5893-8.00003-8s3.58933-8 8.00003-8c1.2613 0 2.4346.32 3.4986.8373l8.768-8.8-8.8186-8.8186c-.0043-.0029-.0063-.0072-.0084-.0118-.0019-.0041-.0039-.0085-.0076-.0122-1.0427.5013-2.1974.8053-3.432.8053-4.4107 0-8.00003-3.5893-8.00003-8s3.58933-8 8.00003-8c4.4106 0 8 3.5893 8 8 0 1.232-.304 2.3893-.8054 3.432.0054.0053.0107.0083.016.0113.0027.0014.0054.0029.008.0047l8.8134 8.8107 16.7466-16.808c1.04-1.04 2.7254-1.0454 3.7707-.0054zm-17.1014 24.0025c1.0427-1.0426 2.728-1.0426 3.7707 0l13.3333 13.3334c1.0427 1.0426 1.0427 2.728 0 3.7706-.52.52-1.2026.7814-1.8853.7814s-1.3653-.2614-1.8853-.7814l-13.3334-13.3333c-1.0427-1.0427-1.0427-2.728 0-3.7707z" fill="#6b7280" fill-rule="evenodd"/></svg>