<svg width="64" height="64" viewBox="0 0 64 64" fill="none" xmlns="http://www.w3.org/2000/svg">
<path d="M48 8C53.891 8.00005 58.667 12.776 58.667 18.667V45.333C58.667 51.224 53.891 56 48 56H16C10.109 56 5.33301 51.224 5.33301 45.333V18.667C5.33301 12.776 10.109 8 16 8H48ZM16 13.333C13.0545 13.333 10.667 15.7215 10.667 18.667V45.333C10.667 48.2785 13.0545 50.667 16 50.667H48C50.9455 50.6669 53.333 48.2785 53.333 45.333V18.667C53.333 15.7215 50.9455 13.3331 48 13.333H16ZM25.333 26.667C28.2785 26.667 30.667 29.0545 30.667 32C30.6669 34.9454 28.2785 37.333 25.333 37.333C22.3877 37.3328 20.0001 34.9453 20 32C20 29.0546 22.3876 26.6672 25.333 26.667ZM38.667 26.667C41.6123 26.6672 44 29.0546 44 32C43.9999 34.9453 41.6123 37.3328 38.667 37.333C35.7215 37.333 33.3331 34.9454 33.333 32C33.333 29.0545 35.7215 26.667 38.667 26.667Z" fill="black"/>
</svg>
