<svg width="64" height="64" viewBox="0 0 64 64" fill="none" xmlns="http://www.w3.org/2000/svg">
<path d="M48 8C53.891 8 58.667 12.776 58.667 18.667V45.333C58.667 51.224 53.891 56 48 56H16C10.109 56 5.33301 51.224 5.33301 45.333V18.667C5.33301 12.776 10.109 8.00002 16 8H48ZM16 13.333C13.0545 13.333 10.667 15.7215 10.667 18.667V45.333C10.667 48.2785 13.0545 50.667 16 50.667H48C50.9455 50.667 53.333 48.2785 53.333 45.333V18.667C53.333 15.7215 50.9455 13.333 48 13.333H16ZM25.333 33.334C28.2785 33.334 30.667 35.7215 30.667 38.667C30.6669 41.6124 28.2785 44 25.333 44C22.3877 43.9998 20.0001 41.6123 20 38.667C20 35.7216 22.3876 33.3342 25.333 33.334ZM38.667 33.334C41.6124 33.3341 44 35.7216 44 38.667C43.9999 41.6123 41.6123 43.9998 38.667 44C35.7215 44 33.3331 41.6124 33.333 38.667C33.333 35.7215 35.7215 33.334 38.667 33.334ZM25.333 20C28.2784 20 30.6668 22.3876 30.667 25.333C30.667 28.2785 28.2785 30.667 25.333 30.667C22.3876 30.6668 20 28.2784 20 25.333C20.0002 22.3877 22.3877 20.0002 25.333 20ZM38.667 20C41.6123 20.0002 43.9998 22.3877 44 25.333C44 28.2784 41.6124 30.6668 38.667 30.667C35.7215 30.667 33.333 28.2785 33.333 25.333C33.3332 22.3876 35.7216 20 38.667 20Z" fill="black"/>
</svg>
