<svg fill="none" height="64" viewBox="0 0 64 64" width="64" xmlns="http://www.w3.org/2000/svg"><path clip-rule="evenodd" d="m13.3332 29.3335c0-8.824 7.176-16 16-16s16 7.176 16 16-7.176 16-16 16-16-7.176-16-16zm41.8855 22.1145-9.0534-9.056c2.808-3.6107 4.5014-8.136 4.5014-13.0587 0-11.7626-9.5707-21.3333-21.3334-21.3333-11.7626 0-21.3333 9.5707-21.3333 21.3333 0 11.7627 9.5707 21.3334 21.3333 21.3334 4.9227 0 9.448-1.6934 13.0587-4.5014l9.056 9.0534c.52.52 1.2027.7813 1.8853.7813.6827 0 1.3654-.2613 1.8854-.7813 1.0426-1.0427 1.0426-2.728 0-3.7707z" fill="#6b7280" fill-rule="evenodd"/></svg>