<svg viewBox="0 0 64 64" fill="none" xmlns="http://www.w3.org/2000/svg">
<path fill-rule="evenodd" clip-rule="evenodd" d="M32.2803 5C47.3467 5.00005 59.5605 17.2138 59.5605 32.2803C59.5604 47.3467 47.3467 59.5605 32.2803 59.5605C17.2139 59.5605 5.00016 47.3467 5 32.2803C5.00009 17.2138 17.2138 5.00009 32.2803 5ZM15.2275 17.9414C11.9658 21.8165 10 26.8187 10 32.2803C10.0002 44.5852 19.9753 54.5605 32.2803 54.5605C32.8056 54.5605 33.3265 54.5397 33.8428 54.5039C41.7182 52.0888 43.2932 45.6062 40.1689 41.9199C37.4907 38.7602 32.8996 36.7855 27.1611 35.6006C21.4468 34.4206 14.3255 30.8699 14.1533 24.54C14.0838 21.9827 14.4859 19.7968 15.2275 17.9414ZM32.2803 10C31.98 10 31.6811 10.0068 31.3838 10.0186C23.3513 11.767 21.9238 16.2986 22.9531 20.1953C23.8133 23.4512 27.4704 26.7463 35.5781 28.4902C44.7603 30.4652 47.8215 33.6256 49.3516 36.3906C50.5778 38.6067 51.0845 42.4434 50.0566 45.71C52.8824 41.9755 54.5605 37.3244 54.5605 32.2803C54.5605 19.9752 44.5853 10 32.2803 10Z" fill="#141414"/>
</svg>