<svg width="64" height="64" viewBox="0 0 64 64" fill="none" xmlns="http://www.w3.org/2000/svg">
<path fill-rule="evenodd" clip-rule="evenodd" d="M7.6543 15C9.13108 15.0002 10.3075 16.1775 10.3076 17.6543V46.6406C10.3075 48.0943 9.13105 49.2938 7.6543 49.2939C6.17739 49.2939 5.00013 48.0944 5 46.6406V17.6543C5.00008 16.1774 6.17736 15 7.6543 15ZM56.8789 15C57.5827 15 58.2582 15.2798 58.7559 15.7773C59.2535 16.275 59.5332 16.9505 59.5332 17.6543V46.6406C59.5331 48.0944 58.3327 49.2939 56.8789 49.2939C55.4252 49.2938 54.2257 48.0943 54.2256 46.6406V17.6543C54.2256 16.9505 54.5053 16.275 55.0029 15.7773C55.5005 15.28 56.1753 15.0001 56.8789 15ZM46.748 18.6465C48.0404 18.6465 49.079 19.6852 49.0791 20.9775V43.3174C49.079 44.6096 48.0403 45.6484 46.748 45.6484H17.7852C16.4929 45.6484 15.4542 44.6096 15.4541 43.3174V20.9775C15.4542 19.6853 16.4929 18.6465 17.7852 18.6465H46.748ZM21.5 23.6484C20.9477 23.6484 20.5 24.0962 20.5 24.6484V39.6484C20.5 40.2007 20.9477 40.6484 21.5 40.6484H42.9629C43.5152 40.6484 43.9629 40.2007 43.9629 39.6484V24.6484C43.9629 24.0962 43.5152 23.6484 42.9629 23.6484H21.5Z" fill="#141414"/>
</svg>
