<svg width="24" height="24" viewBox="0 0 24 24" fill="none" xmlns="http://www.w3.org/2000/svg">
<g id="Icon/Outline/settings">
<path id="Mask" fill-rule="evenodd" clip-rule="evenodd" d="M4.4028 11.6221C5.5188 12.0051 6.4078 12.9391 6.7798 14.1231L6.8198 14.2431C7.2458 15.4991 7.0728 16.8511 6.3588 17.8651C6.2288 18.0491 6.2578 18.2691 6.3948 18.3731L8.4668 19.9471C8.5398 20.0021 8.6108 20.0021 8.6548 19.9971C8.7048 19.9891 8.7778 19.9621 8.8368 19.8781L9.0678 19.5501C9.7568 18.5731 10.8668 17.9701 12.0388 17.9361C13.3548 17.9091 14.5368 18.5121 15.2728 19.5751L15.3908 19.7461C15.4498 19.8301 15.5218 19.8581 15.5728 19.8661C15.6168 19.8751 15.6888 19.8721 15.7608 19.8161L17.8218 18.2611C17.9658 18.1531 17.9978 17.9221 17.8908 17.7671L17.6308 17.3921C16.9608 16.4241 16.7618 15.1681 17.0988 14.0331C17.4648 12.7971 18.3958 11.8191 19.5908 11.4191L19.7918 11.3511C19.9528 11.2981 20.0398 11.0981 19.9828 10.9141L19.1958 8.39312C19.1588 8.27512 19.0828 8.22212 19.0408 8.20012C18.9808 8.16912 18.9158 8.16412 18.8538 8.18512L18.5138 8.29812C17.3508 8.68512 16.0678 8.47512 15.0828 7.73412L14.9748 7.65312C14.0388 6.94912 13.4818 5.81412 13.4858 4.61812L13.4878 4.33812C13.4878 4.20512 13.4248 4.12212 13.3868 4.08412C13.3508 4.04712 13.2898 4.00312 13.2038 4.00312L10.6568 4.00012C10.5008 4.00012 10.3738 4.14912 10.3728 4.33312L10.3718 4.57512C10.3668 5.79012 9.7978 6.94612 8.8498 7.66912L8.7208 7.76712C7.6778 8.56012 6.3178 8.78412 5.0858 8.36412C5.0388 8.34812 4.9948 8.35112 4.9528 8.37312C4.9208 8.38912 4.8628 8.43012 4.8348 8.52112L4.0178 11.1171C3.9588 11.3061 4.0558 11.5031 4.2388 11.5661L4.4028 11.6221ZM8.6138 22.0001C8.1278 22.0001 7.6558 21.8421 7.2578 21.5391L5.1858 19.9661C4.1958 19.2161 3.9768 17.7731 4.6968 16.7501C5.0708 16.2201 5.1478 15.5391 4.9278 14.8931L4.8728 14.7251C4.6898 14.1431 4.2718 13.6911 3.7548 13.5141H3.7538L3.5908 13.4571C2.3728 13.0401 1.7228 11.7491 2.1098 10.5171L2.9258 7.92212C3.1108 7.33512 3.5098 6.86112 4.0498 6.58812C4.5778 6.32212 5.1748 6.28112 5.7328 6.47212C6.3318 6.67612 6.9968 6.56512 7.5098 6.17512L7.6388 6.07712C8.0948 5.72912 8.3698 5.16412 8.3718 4.56712L8.3728 4.32612C8.3778 3.04212 9.4028 2.00012 10.6558 2.00012H10.6598L13.2068 2.00312C13.8088 2.00412 14.3768 2.24212 14.8048 2.67312C15.2478 3.11812 15.4898 3.71312 15.4878 4.34812L15.4858 4.62712C15.4838 5.19312 15.7428 5.72812 16.1798 6.05612L16.2868 6.13712C16.7458 6.48212 17.3438 6.58112 17.8808 6.40112L18.2198 6.28812C18.7968 6.09612 19.4108 6.14312 19.9518 6.42012C20.5068 6.70412 20.9168 7.19312 21.1048 7.79812L21.8918 10.3191C22.2718 11.5371 21.6138 12.8511 20.4268 13.2481L20.2258 13.3151C19.6498 13.5091 19.1968 13.9891 19.0158 14.6011C18.8498 15.1621 18.9458 15.7791 19.2748 16.2531L19.5348 16.6281C20.2488 17.6601 20.0208 19.1081 19.0268 19.8571L16.9658 21.4131C16.4708 21.7871 15.8638 21.9381 15.2548 21.8411C14.6408 21.7421 14.1048 21.4021 13.7458 20.8841L13.6278 20.7121C13.2778 20.2081 12.7178 19.9021 12.1308 19.9351C11.5428 19.9511 11.0348 20.2301 10.7028 20.7021L10.4718 21.0301C10.1098 21.5431 9.5728 21.8781 8.9618 21.9741C8.8448 21.9921 8.7288 22.0001 8.6138 22.0001ZM12 10.5C11.173 10.5 10.5 11.173 10.5 12C10.5 12.827 11.173 13.5 12 13.5C12.827 13.5 13.5 12.827 13.5 12C13.5 11.173 12.827 10.5 12 10.5ZM12 15.5C10.07 15.5 8.5 13.93 8.5 12C8.5 10.07 10.07 8.50002 12 8.50002C13.93 8.50002 15.5 10.07 15.5 12C15.5 13.93 13.93 15.5 12 15.5Z" fill="#231F20"/>
<mask id="mask0" mask-type="alpha" maskUnits="userSpaceOnUse" x="1" y="2" width="21" height="21">
<path id="Mask_2" fill-rule="evenodd" clip-rule="evenodd" d="M4.4028 11.6221C5.5188 12.0051 6.4078 12.9391 6.7798 14.1231L6.8198 14.2431C7.2458 15.4991 7.0728 16.8511 6.3588 17.8651C6.2288 18.0491 6.2578 18.2691 6.3948 18.3731L8.4668 19.9471C8.5398 20.0021 8.6108 20.0021 8.6548 19.9971C8.7048 19.9891 8.7778 19.9621 8.8368 19.8781L9.0678 19.5501C9.7568 18.5731 10.8668 17.9701 12.0388 17.9361C13.3548 17.9091 14.5368 18.5121 15.2728 19.5751L15.3908 19.7461C15.4498 19.8301 15.5218 19.8581 15.5728 19.8661C15.6168 19.8751 15.6888 19.8721 15.7608 19.8161L17.8218 18.2611C17.9658 18.1531 17.9978 17.9221 17.8908 17.7671L17.6308 17.3921C16.9608 16.4241 16.7618 15.1681 17.0988 14.0331C17.4648 12.7971 18.3958 11.8191 19.5908 11.4191L19.7918 11.3511C19.9528 11.2981 20.0398 11.0981 19.9828 10.9141L19.1958 8.39312C19.1588 8.27512 19.0828 8.22212 19.0408 8.20012C18.9808 8.16912 18.9158 8.16412 18.8538 8.18512L18.5138 8.29812C17.3508 8.68512 16.0678 8.47512 15.0828 7.73412L14.9748 7.65312C14.0388 6.94912 13.4818 5.81412 13.4858 4.61812L13.4878 4.33812C13.4878 4.20512 13.4248 4.12212 13.3868 4.08412C13.3508 4.04712 13.2898 4.00312 13.2038 4.00312L10.6568 4.00012C10.5008 4.00012 10.3738 4.14912 10.3728 4.33312L10.3718 4.57512C10.3668 5.79012 9.7978 6.94612 8.8498 7.66912L8.7208 7.76712C7.6778 8.56012 6.3178 8.78412 5.0858 8.36412C5.0388 8.34812 4.9948 8.35112 4.9528 8.37312C4.9208 8.38912 4.8628 8.43012 4.8348 8.52112L4.0178 11.1171C3.9588 11.3061 4.0558 11.5031 4.2388 11.5661L4.4028 11.6221ZM8.6138 22.0001C8.1278 22.0001 7.6558 21.8421 7.2578 21.5391L5.1858 19.9661C4.1958 19.2161 3.9768 17.7731 4.6968 16.7501C5.0708 16.2201 5.1478 15.5391 4.9278 14.8931L4.8728 14.7251C4.6898 14.1431 4.2718 13.6911 3.7548 13.5141H3.7538L3.5908 13.4571C2.3728 13.0401 1.7228 11.7491 2.1098 10.5171L2.9258 7.92212C3.1108 7.33512 3.5098 6.86112 4.0498 6.58812C4.5778 6.32212 5.1748 6.28112 5.7328 6.47212C6.3318 6.67612 6.9968 6.56512 7.5098 6.17512L7.6388 6.07712C8.0948 5.72912 8.3698 5.16412 8.3718 4.56712L8.3728 4.32612C8.3778 3.04212 9.4028 2.00012 10.6558 2.00012H10.6598L13.2068 2.00312C13.8088 2.00412 14.3768 2.24212 14.8048 2.67312C15.2478 3.11812 15.4898 3.71312 15.4878 4.34812L15.4858 4.62712C15.4838 5.19312 15.7428 5.72812 16.1798 6.05612L16.2868 6.13712C16.7458 6.48212 17.3438 6.58112 17.8808 6.40112L18.2198 6.28812C18.7968 6.09612 19.4108 6.14312 19.9518 6.42012C20.5068 6.70412 20.9168 7.19312 21.1048 7.79812L21.8918 10.3191C22.2718 11.5371 21.6138 12.8511 20.4268 13.2481L20.2258 13.3151C19.6498 13.5091 19.1968 13.9891 19.0158 14.6011C18.8498 15.1621 18.9458 15.7791 19.2748 16.2531L19.5348 16.6281C20.2488 17.6601 20.0208 19.1081 19.0268 19.8571L16.9658 21.4131C16.4708 21.7871 15.8638 21.9381 15.2548 21.8411C14.6408 21.7421 14.1048 21.4021 13.7458 20.8841L13.6278 20.7121C13.2778 20.2081 12.7178 19.9021 12.1308 19.9351C11.5428 19.9511 11.0348 20.2301 10.7028 20.7021L10.4718 21.0301C10.1098 21.5431 9.5728 21.8781 8.9618 21.9741C8.8448 21.9921 8.7288 22.0001 8.6138 22.0001ZM12 10.5C11.173 10.5 10.5 11.173 10.5 12C10.5 12.827 11.173 13.5 12 13.5C12.827 13.5 13.5 12.827 13.5 12C13.5 11.173 12.827 10.5 12 10.5ZM12 15.5C10.07 15.5 8.5 13.93 8.5 12C8.5 10.07 10.07 8.50002 12 8.50002C13.93 8.50002 15.5 10.07 15.5 12C15.5 13.93 13.93 15.5 12 15.5Z" fill="white"/>
</mask>
<g mask="url(#mask0)">
<g id="&#240;&#159;&#142;&#168; Color">
<rect id="Base" width="24" height="24" fill="#0D1C2E"/>
</g>
</g>
</g>
</svg>
