<svg fill="none" height="64" viewBox="0 0 64 64" width="64" xmlns="http://www.w3.org/2000/svg"><path clip-rule="evenodd" d="m11.7407 30.9926c2.976 1.0213 5.3467 3.512 6.3387 6.6693l.1066.32c1.136 3.3493.6747 6.9547-1.2293 9.6587-.3467.4906-.2693 1.0773.096 1.3546l5.5253 4.1974c.1947.1466.384.1466.5014.1333.1333-.0213.328-.0933.4853-.3173l.616-.8747c1.8373-2.6053 4.7973-4.2133 7.9227-4.304 3.5093-.072 6.6613 1.536 8.624 4.3707l.3146.456c.1574.224.3494.2986.4854.32.1173.024.3093.016.5013-.1334l5.496-4.1466c.384-.288.4693-.904.184-1.3174l-.6933-1c-1.7867-2.5813-2.3174-5.9306-1.4187-8.9573.976-3.296 3.4587-5.904 6.6453-6.9707l.536-.1813c.4294-.1413.6614-.6747.5094-1.1653l-2.0987-6.7227c-.0987-.3147-.3013-.456-.4133-.5147-.16-.0826-.3334-.096-.4987-.04l-.9067.3014c-3.1013 1.032-6.5226.472-9.1493-1.504l-.288-.216c-2.496-1.8774-3.9813-4.904-3.9707-8.0934l.0054-.7466c0-.3547-.168-.576-.2694-.6774-.096-.0986-.2586-.216-.488-.216l-6.792-.008c-.416 0-.7546.3974-.7573.888l-.0027.6454c-.0133 3.24-1.5306 6.3226-4.0586 8.2506l-.344.2614c-2.7814 2.1146-6.408 2.712-9.6934 1.592-.1253-.0427-.2426-.0347-.3546.024-.0854.0426-.24.152-.3147.3946l-2.1787 6.9227c-.1573.504.1014 1.0293.5894 1.1973zm11.2295 27.6745c-1.296 0-2.5547-.4214-3.616-1.2294l-5.5254-4.1946c-2.64-2-3.224-5.848-1.304-8.576.9974-1.4134 1.2027-3.2294.616-4.952l-.1466-.448c-.488-1.552-1.6027-2.7574-2.9814-3.2294h-.0026l-.43471-.152c-3.248-1.112-4.98134-4.5546-3.94934-7.84l2.176-6.92c.49334-1.5653 1.55734-2.8293 2.99735-3.5573 1.408-.7093 3-.8187 4.488-.3093 1.5973.544 3.3707.248 4.7387-.792l.344-.2614c1.216-.928 1.9493-2.4346 1.9546-4.0266l.0027-.6427c.0133-3.42399 2.7467-6.20266 6.088-6.20266h.0107l6.792.008c1.6053.00267 3.12.63733 4.2613 1.78667 1.1813 1.18666 1.8267 2.77333 1.8213 4.46669l-.0053.744c-.0053 1.5093.6853 2.936 1.8507 3.8106l.2853.216c1.224.92 2.8187 1.184 4.2507.704l.904-.3013c1.5386-.512 3.176-.3867 4.6186.352 1.48.7573 2.5734 2.0613 3.0747 3.6747l2.0987 6.7226c1.0133 3.248-.7414 6.752-3.9067 7.8107l-.536.1787c-1.536.5173-2.744 1.7973-3.2267 3.4293-.4426 1.496-.1866 3.1413.6907 4.4053l.6933 1c1.904 2.752 1.296 6.6134-1.3546 8.6107l-5.496 4.1493c-1.32.9974-2.9387 1.4-4.5627 1.1414-1.6373-.264-3.0667-1.1707-4.024-2.552l-.3147-.4587c-.9333-1.344-2.4266-2.16-3.992-2.072-1.568.0427-2.9226.7867-3.808 2.0453l-.616.8747c-.9653 1.368-2.3973 2.2613-4.0266 2.5173-.312.048-.6214.0694-.928.0694zm9.0298-30.6671c-2.2053 0-4 1.7946-4 4 0 2.2053 1.7947 4 4 4 2.2054 0 4-1.7947 4-4 0-2.2054-1.7946-4-4-4zm-.0002 13.3336c-5.1466 0-9.3333-4.1866-9.3333-9.3333s4.1867-9.3333 9.3333-9.3333c5.1467 0 9.3334 4.1866 9.3334 9.3333s-4.1867 9.3333-9.3334 9.3333z" fill="#6b7280" fill-rule="evenodd"/></svg>