<svg fill="none" height="64" viewBox="0 0 64 64" width="64" xmlns="http://www.w3.org/2000/svg"><path clip-rule="evenodd" d="m48 50.6668c-1.472 0-2.6666-1.1946-2.6666-2.6666s1.1946-2.6667 2.6666-2.6667 2.6667 1.1947 2.6667 2.6667-1.1947 2.6666-2.6667 2.6666zm-34.6666-16c-1.472 0-2.6666-1.1946-2.6666-2.6666s1.1946-2.6667 2.6666-2.6667 2.6667 1.1947 2.6667 2.6667-1.1947 2.6666-2.6667 2.6666zm34.6666-21.3333c1.472 0 2.6667 1.1947 2.6667 2.6667s-1.1947 2.6666-2.6667 2.6666-2.6666-1.1946-2.6666-2.6666 1.1946-2.6667 2.6666-2.6667zm0 26.6665c-2.1786 0-4.152.88-5.5973 2.296l-21.16-9.4027c.0347-.296.0907-.5893.0907-.8933s-.056-.5973-.0907-.8933l21.16-9.4027c1.4453 1.416 3.4187 2.296 5.5973 2.296 4.4107 0 8-3.5893 8-8s-3.5893-8-8-8c-4.4106 0-8 3.5893-8 8 0 .304.056.5973.0907.8933l-21.16 9.4027c-1.4453-1.416-3.4187-2.296-5.5973-2.296-4.41069 0-8.00003 3.5893-8.00003 8s3.58934 8 8.00003 8c2.1786 0 4.152-.88 5.5973-2.296l21.16 9.4027c-.0347.296-.0907.5893-.0907.8933 0 4.4107 3.5894 8 8 8 4.4107 0 8-3.5893 8-8s-3.5893-8-8-8z" fill="#6b7280" fill-rule="evenodd"/></svg>