<svg fill="none" height="24" viewBox="0 0 24 24" width="24" xmlns="http://www.w3.org/2000/svg"><path clip-rule="evenodd" d="m18 19.0001c-.552 0-1-.448-1-1s.448-1 1-1 1 .448 1 1-.448 1-1 1zm-12.99998-6c-.552 0-1-.448-1-1s.448-1 1-1 1 .448 1 1-.448 1-1 1zm12.99998-8.00003c.552 0 1 .448 1 .99999 0 .552-.448 1-1 1s-1-.448-1-1c0-.55199.448-.99999 1-.99999zm0 9.99993c-.817 0-1.557.33-2.099.861l-7.935-3.526c.013-.111.034-.221.034-.335s-.021-.224-.034-.335l7.935-3.526c.542.531 1.282.861 2.099.861 1.654 0 3-1.346 3-3s-1.346-3-3-3-3 1.346-3 3c0 .114.021.224.034.335l-7.935 3.526c-.542-.531-1.282-.861-2.099-.861-1.654 0-3 1.346-3 3s1.346 3 3 3c.817 0 1.557-.33 2.099-.861l7.935 3.526c-.013.111-.034.221-.034.335 0 1.654 1.346 3 3 3s3-1.346 3-3-1.346-3-3-3z" fill="#6b7280" fill-rule="evenodd"/></svg>