<svg fill="none" height="64" viewBox="0 0 64 64" width="64" xmlns="http://www.w3.org/2000/svg"><path clip-rule="evenodd" d="m32 11.0576-18.6666 10.5013v.3867c0 12.64 6.8426 24.344 17.8613 30.544l.8053.4533.8054-.4533c11.0186-6.2 17.8613-17.904 17.8613-30.544v-.3867zm0 47.2102c-.904 0-1.808-.224-2.6107-.6773l-.808-.456c-12.696-7.1387-20.5813-20.624-20.5813-35.1894v-.3866c0-1.9174 1.04-3.6987 2.7147-4.6454l18.672-10.5013c1.6133-.90666 3.616-.90933 5.224-.00266l18.6693 10.50136c1.68.9493 2.72 2.7306 2.72 4.648v.3866c0 14.5654-7.8853 28.0507-20.5813 35.1894l-.8054.4533c-.8053.4533-1.7093.68-2.6133.68z" fill="#6b7280" fill-rule="evenodd"/></svg>