<svg fill="none" height="24" viewBox="0 0 24 24" width="24" xmlns="http://www.w3.org/2000/svg"><path clip-rule="evenodd" d="m12.9795 2.4038 7.001 3.93799c.63.355 1.02 1.023 1.02 1.743v.145c0 2.78701-.775 5.46601-2.162 7.78101l-1.465-1.467c1.045-1.905 1.627-4.069 1.627-6.31401v-.145l-7-3.93799-3.21599 1.809-1.469-1.468 3.70399-2.084c.606-.339 1.357-.34 1.96 0zm-8.27249.88923c-.391-.391-1.023-.391-1.414 0s-.391 1.023 0 1.414l15.99999 15.99997c.195.195.451.293.707.293s.512-.098.707-.293c.391-.391.391-1.023 0-1.414zm7.59479 16.39067-.302.17-.302-.17c-4.13099-2.325-6.69799-6.714-6.69799-11.45398v-.14499l.164-.092-1.432-1.43301c-.451.376-.732.927-.732 1.52501v.14499c0 5.46198 2.957 10.51798 7.71799 13.19598l.303.171c.302.17.64.254.979.254s.678-.085.981-.255l.301-.17c1.123-.631 2.14-1.398 3.047-2.268l-1.414-1.414c-.779.743-1.652 1.399-2.613 1.94z" fill="#6b7280" fill-rule="evenodd"/></svg>