<svg fill="none" height="24" viewBox="0 0 24 24" width="24" xmlns="http://www.w3.org/2000/svg"><path clip-rule="evenodd" d="m12 4.14659-6.99998 3.938v.145c0 4.74001 2.566 9.12901 6.69798 11.45401l.302.17.302-.17c4.132-2.325 6.698-6.714 6.698-11.45401v-.145zm0 17.70381c-.339 0-.678-.084-.979-.254l-.303-.171c-4.761-2.677-7.718-7.734-7.718-13.19597v-.145c0-.719.39-1.387 1.018-1.742l7.002-3.938c.605-.34 1.356-.341 1.959-.001l7.001 3.938c.63.356 1.02 1.024 1.02 1.743v.145c0 5.46197-2.957 10.51897-7.718 13.19597l-.302.17c-.302.17-.641.255-.98.255z" fill="#6b7280" fill-rule="evenodd"/></svg>