<svg fill="none" height="64" viewBox="0 0 64 64" width="64" xmlns="http://www.w3.org/2000/svg"><path clip-rule="evenodd" d="m34.612 6.40996 18.6693 10.50134c1.68.9467 2.72 2.728 2.72 4.648v.3867c0 7.432-2.0666 14.576-5.7653 20.7493l-3.9067-3.912c2.7867-5.08 4.3387-10.8507 4.3387-16.8373v-.3867l-18.6667-10.5013-8.576 4.824-3.9173-3.9147 9.8773-5.55734c1.616-.904 3.6187-.90667 5.2267 0zm-22.06 2.37128c-1.0427-1.04266-2.72802-1.04266-3.77069 0-1.04266 1.04267-1.04266 2.72796 0 3.77066l42.66669 42.6667c.52.52 1.2026.7813 1.8853.7813s1.3653-.2613 1.8853-.7813c1.0427-1.0427 1.0427-2.728 0-3.7707zm20.2527 43.70856-.8053.4533-.8054-.4533c-11.016-6.2-17.8613-17.904-17.8613-30.544v-.3867l.4373-.2453-3.81864-3.8214c-1.20266 1.0027-1.952 2.472-1.952 4.0667v.3867c0 14.5653 7.88534 28.048 20.58134 35.1893l.808.456c.8053.4533 1.7067.6773 2.6107.6773s1.808-.2266 2.616-.68l.8026-.4533c2.9947-1.6827 5.7067-3.728 8.1254-6.048l-3.7707-3.7707c-2.0773 1.9814-4.4053 3.7307-6.968 5.1734z" fill="#6b7280" fill-rule="evenodd"/></svg>