<svg width="24" height="24" viewBox="0 0 24 24" fill="none" xmlns="http://www.w3.org/2000/svg">
<g id="Icon/Outline/shield">
<path id="Mask" fill-rule="evenodd" clip-rule="evenodd" d="M12 4.14649L5 8.08449V8.22949C5 12.9695 7.566 17.3585 11.698 19.6835L12 19.8535L12.302 19.6835C16.434 17.3585 19 12.9695 19 8.22949V8.08449L12 4.14649ZM12 21.8505C11.661 21.8505 11.322 21.7665 11.021 21.5965L10.718 21.4255C5.957 18.7485 3 13.6915 3 8.22949V8.08449C3 7.36549 3.39 6.69749 4.018 6.34249L11.02 2.40449C11.625 2.06449 12.376 2.06349 12.979 2.40349L19.98 6.34149C20.61 6.69749 21 7.36549 21 8.08449V8.22949C21 13.6915 18.043 18.7485 13.282 21.4255L12.98 21.5955C12.678 21.7655 12.339 21.8505 12 21.8505Z" fill="#000000"/>
</g>
</svg>
