<svg fill="none" height="64" viewBox="0 0 64 64" width="64" xmlns="http://www.w3.org/2000/svg"><path clip-rule="evenodd" d="M40.35 29.37C38.9734 29.37 37.98 30.5662 37.98 32.04C37.98 34.9850 35.2822 37.38 32.04 37.38C28.7954 37.38 26.1 34.9850 26.1 32.04C26.1 30.5662 25.1066 29.37 23.73 29.37C22.3534 29.37 21.36 30.5662 21.36 32.04C21.36 37.9300 26.1500 42.72 32.04 42.72C37.9300 42.72 42.72 37.9300 42.72 32.04C42.72 30.5662 41.7266 29.37 40.35 29.37ZM48.06 50.73H16.02C14.5462 50.73 13.35 49.5311 13.35 48.06V24.03H50.73V48.06C50.73 49.5311 49.5338 50.73 48.06 50.73ZM21.6830 14.1324C22.1824 13.6356 22.8686 13.35 23.5708 13.35H40.5092C41.2114 13.35 41.8976 13.6356 42.3970 14.1324L46.9546 18.69H17.1254L21.6830 14.1324ZM53.7230 17.9077L46.1724 10.3570C44.6611 8.8430 42.7479 8.01 40.5092 8.01H23.5708C21.3321 8.01 19.4189 8.8430 17.9077 10.3570L10.3570 17.9077C8.8430 19.4189 8.01 21.3321 8.01 23.5734V48.06C8.01 52.4762 11.6038 56.07 16.02 56.07H48.06C52.4762 56.07 56.07 52.4762 56.07 48.06V23.5734C56.07 21.3321 55.2370 19.4189 53.7230 17.9077Z" fill="#6b7280" fill-rule="evenodd"/></svg>