<svg fill="none" height="24" viewBox="0 0 24 24" width="24" xmlns="http://www.w3.org/2000/svg"><path clip-rule="evenodd" d="m16.3818 14.0001h-7.61798l-1.637-6.00003h12.25498zm4.701-7.0521c-.367-.594-1.003-.948-1.701-.948h-12.79998l-.617-2.263c-.119-.435-.514-.737-.965-.737h-2c-.553 0-1 .448-1 1s.447 1 1 1h1.236l2.799 10.263c.119.435.514.737.965.737h8.99998c.379 0 .725-.214.895-.553l3.276-6.553c.313-.625.279-1.352-.088-1.946zm-13.58279 11.052c-.828 0-1.5.671-1.5 1.5s.672 1.5 1.5 1.5 1.5-.671 1.5-1.5-.672-1.5-1.5-1.5zm8.49999 1.5c0-.829.672-1.5 1.5-1.5s1.5.671 1.5 1.5-.672 1.5-1.5 1.5-1.5-.671-1.5-1.5z" fill="#6b7280" fill-rule="evenodd"/></svg>