<svg width="24" height="24" viewBox="0 0 24 24" fill="none" xmlns="http://www.w3.org/2000/svg">
<g id="Icon/Outline/shopping-bag">
<path id="Mask" fill-rule="evenodd" clip-rule="evenodd" d="M15 11C14.447 11 14 11.448 14 12C14 13.103 13.103 14 12 14C10.897 14 10 13.103 10 12C10 11.448 9.553 11 9 11C8.447 11 8 11.448 8 12C8 14.206 9.794 16 12 16C14.206 16 16 14.206 16 12C16 11.448 15.553 11 15 11ZM18 19H6C5.448 19 5 18.551 5 18V9H19V18C19 18.551 18.552 19 18 19ZM8.121 5.293C8.308 5.107 8.565 5 8.828 5H15.172C15.435 5 15.692 5.107 15.879 5.293L17.586 7H6.414L8.121 5.293ZM20.121 6.707L17.293 3.879C16.727 3.312 15.973 3 15.172 3H8.828C8.027 3 7.273 3.312 6.707 3.879L3.879 6.707C3.312 7.273 3 8.027 3 8.829V18C3 19.654 4.346 21 6 21H18C19.654 21 21 19.654 21 18V8.829C21 8.027 20.688 7.273 20.121 6.707Z" fill="#231F20"/>
<mask id="mask0" mask-type="alpha" maskUnits="userSpaceOnUse" x="3" y="3" width="18" height="18">
<path id="Mask_2" fill-rule="evenodd" clip-rule="evenodd" d="M15 11C14.447 11 14 11.448 14 12C14 13.103 13.103 14 12 14C10.897 14 10 13.103 10 12C10 11.448 9.553 11 9 11C8.447 11 8 11.448 8 12C8 14.206 9.794 16 12 16C14.206 16 16 14.206 16 12C16 11.448 15.553 11 15 11ZM18 19H6C5.448 19 5 18.551 5 18V9H19V18C19 18.551 18.552 19 18 19ZM8.121 5.293C8.308 5.107 8.565 5 8.828 5H15.172C15.435 5 15.692 5.107 15.879 5.293L17.586 7H6.414L8.121 5.293ZM20.121 6.707L17.293 3.879C16.727 3.312 15.973 3 15.172 3H8.828C8.027 3 7.273 3.312 6.707 3.879L3.879 6.707C3.312 7.273 3 8.027 3 8.829V18C3 19.654 4.346 21 6 21H18C19.654 21 21 19.654 21 18V8.829C21 8.027 20.688 7.273 20.121 6.707Z" fill="white"/>
</mask>
<g mask="url(#mask0)">
<g id="&#240;&#159;&#142;&#168; Color">
<rect id="Base" width="24" height="24" fill="#0D1C2E"/>
</g>
</g>
</g>
</svg>
