<svg fill="none" height="64" viewBox="0 0 64 64" width="64" xmlns="http://www.w3.org/2000/svg"><path clip-rule="evenodd" d="m43.6848 37.3335h-20.3146l-4.3654-16h32.68zm12.536-18.8055c-.9786-1.584-2.6746-2.528-4.536-2.528h-34.1333l-1.6453-6.03467c-.3174-1.16-1.3707-1.96533-2.5734-1.96533h-5.33331c-1.47467 0-2.66667 1.19467-2.66667 2.6667 0 1.472 1.192 2.6666 2.66667 2.6666h3.29601l7.464 27.368c.3173 1.16 1.3707 1.9654 2.5733 1.9654h24c1.0107 0 1.9334-.5707 2.3867-1.4747l8.736-17.4747c.8347-1.6666.744-3.6053-.2347-5.1893zm-36.2208 29.472c-2.208 0-4 1.7893-4 4s1.792 4 4 4 4-1.7893 4-4-1.792-4-4-4zm22.6666 4c0-2.2107 1.792-4 4-4s4 1.7893 4 4-1.792 4-4 4-4-1.7893-4-4z" fill="#6b7280" fill-rule="evenodd"/></svg>