<svg fill="none" height="24" viewBox="0 0 24 24" width="24" xmlns="http://www.w3.org/2000/svg"><path clip-rule="evenodd" d="m19 10.308c-.552 0-1-.448-1-1l-.001-1.893-12.29199 12.292c-.195.195-.451.293-.707.293s-.512-.098-.707-.293c-.391-.391-.391-1.024 0-1.414l6.28699-6.287-5.83199-5.831c-.391-.391-.391-1.024 0-1.414.391-.391 1.023-.391 1.414 0l5.83199 5.831 4.582-4.583-1.889-.009c-.552-.003-.998-.453-.995-1.005s.477-.985 1.005-.995l4.305.021c.55.003.995.45.995 1l.003 4.286c0 .552-.447 1-.999 1.001zm-.0001 3.3712h.005c.553.003.998.453.995 1.005l-.021 4.208c.032.291-.048.592-.272.815-.195.195-.451.293-.707.293-.0152 0-.0301-.0042-.0451-.0083-.0116-.0032-.0231-.0064-.0349-.0077l-4.227.003c-.552 0-1-.448-1-1s.447-1 .999-1l1.879-.001-2.778-2.779c-.391-.391-.391-1.024 0-1.414.391-.391 1.024-.391 1.414 0l2.783 2.783.01-1.902c.003-.551.45-.995 1-.995z" fill="#6b7280" fill-rule="evenodd"/></svg>