<svg fill="none" height="24" viewBox="0 0 24 24" width="24" xmlns="http://www.w3.org/2000/svg"><path clip-rule="evenodd" d="m18.709 14.2944c-.39-.392-1.024-.394-1.414-.003-.392.39-.394 1.023-.004 1.414l.293.295h-1.584c-2.206 0-4-1.795-4-4 0-2.20601 1.794-4 4-4h1.588l-.293.291c-.392.39-.394 1.023-.004 1.414.195.19599.452.295.709.295.255 0 .511-.09801.705-.29201l2-1.99099c.189-.187.294-.441.295-.706.001-.266-.104-.52-.291-.708l-2-2.009c-.39-.392-1.024-.394-1.414-.003-.392.39-.394 1.023-.004 1.414l.293.295h-1.584c-2.086 0-3.925 1.06999-5 2.68999-1.075-1.62-2.914-2.68999-5-2.68999h-2c-.553 0-1 .447-1 1 0 .552.447 1 1 1h2c2.206 0 4 1.79399 4 4 0 2.205-1.794 4-4 4h-2c-.553 0-1 .447-1 1 0 .552.447 1 1 1h2c2.086 0 3.925-1.071 5-2.691 1.075 1.62 2.914 2.691 5 2.691h1.588l-.293.291c-.392.39-.394 1.023-.004 1.414.195.196.452.295.709.295.255 0 .511-.098.705-.292l2-1.991c.189-.187.294-.441.295-.706.001-.266-.104-.52-.291-.708z" fill="#6b7280" fill-rule="evenodd"/></svg>