<svg fill="none" height="24" viewBox="0 0 24 24" width="24" xmlns="http://www.w3.org/2000/svg"><path clip-rule="evenodd" d="m8.50002 15.9083v-7.89403l4.82198 3.98403zm7.49998-9.90803c-.552 0-1 .447-1 1v3.81803c-.047-.049-.088-.1-.142-.144l-5.099-4.21403c-.609-.502-1.477-.604-2.209-.259-.648.306-1.05.913-1.05 1.586v8.42603c0 .673.402 1.28 1.05 1.586.289.135.599.202.906.202.471 0 .935-.157 1.303-.462l5.1-4.213c.053-.044.094-.096.141-.145v3.819c0 .553.448 1 1 1s1-.447 1-1v-10.00003c0-.553-.448-1-1-1z" fill="#6b7280" fill-rule="evenodd"/></svg>