<svg fill="none" height="24" viewBox="0 0 24 24" width="24" xmlns="http://www.w3.org/2000/svg"><path clip-rule="evenodd" d="m15.5 15.9853-4.822-3.983 4.822-3.91101zm.95-9.78384c-.734-.345-1.601-.243-2.209.26l-5.1 4.21204c-.053.044-.094.096-.141.145v-3.81804c0-.553-.448-1-1-1s-1 .447-1 1v10.00004c0 .552.448 1 1 1s1-.448 1-1v-3.819c.047.049.088.101.142.145l5.099 4.214c.368.303.832.461 1.303.461.307 0 .617-.067.906-.203.648-.305 1.05-.913 1.05-1.585v-8.42604c0-.673-.402-1.281-1.05-1.586z" fill="#6b7280" fill-rule="evenodd"/></svg>