<svg fill="none" height="64" viewBox="0 0 64 64" width="64" xmlns="http://www.w3.org/2000/svg"><path clip-rule="evenodd" d="m41.3333 42.6271-12.8587-10.6213 12.8587-10.4293zm2.5333-26.0902c-1.9573-.92-4.2693-.648-5.8906.6933l-13.6 11.232c-.1414.1174-.2507.256-.376.3867v-10.1813c0-1.4747-1.1947-2.6667-2.6667-2.6667s-2.6667 1.192-2.6667 2.6667v26.6666c0 1.472 1.1947 2.6667 2.6667 2.6667s2.6667-1.1947 2.6667-2.6667v-10.184c.1253.1307.2346.2694.3786.3867l13.5974 11.2373c.9813.808 2.2186 1.2293 3.4746 1.2293.8187 0 1.6454-.1786 2.416-.5413 1.728-.8133 2.8-2.4347 2.8-4.2267v-22.4693c0-1.7946-1.072-3.416-2.8-4.2293z" fill="#6b7280" fill-rule="evenodd"/></svg>