<svg fill="none" height="64" viewBox="0 0 64 64" width="64" xmlns="http://www.w3.org/2000/svg"><path clip-rule="evenodd" d="m22.6667 42.4219v-21.0507l12.8587 10.624zm20-26.4213c-1.472 0-2.6667 1.192-2.6667 2.6666v10.1814c-.1253-.1307-.2346-.2667-.3786-.384l-13.5974-11.2374c-1.624-1.3386-3.9386-1.6106-5.8906-.6906-1.728.816-2.8 2.4346-2.8 4.2293v22.4693c0 1.7947 1.072 3.4134 2.8 4.2294.7706.36 1.5973.5386 2.416.5386 1.256 0 2.4933-.4186 3.4746-1.232l13.6-11.2346c.1414-.1174.2507-.256.376-.3867v10.184c0 1.4747 1.1947 2.6667 2.6667 2.6667s2.6667-1.192 2.6667-2.6667v-26.6667c0-1.4746-1.1947-2.6666-2.6667-2.6666z" fill="#6b7280" fill-rule="evenodd"/></svg>