<svg fill="none" height="24" viewBox="0 0 24 24" width="24" xmlns="http://www.w3.org/2000/svg"><path clip-rule="evenodd" d="m4.00002 12.0002c0-1.846.635-3.54204 1.688-4.89704l11.20898 11.20904c-1.355 1.054-3.051 1.688-4.897 1.688-4.41098 0-7.99998-3.589-7.99998-8zm15.99998-.0001c0 1.846-.635 3.542-1.688 4.897l-11.20902-11.20903c1.355-1.054 3.05102-1.688 4.89702-1.688 4.411 0 8 3.589 8 8.00003zm-8-10.0001c-5.514 0-10 4.486-10 10s4.486 10 10 10 10-4.486 10-10-4.486-10-10-10z" fill="#6b7280" fill-rule="evenodd"/></svg>