<svg fill="none" height="64" viewBox="0 0 64 64" width="64" xmlns="http://www.w3.org/2000/svg"><path clip-rule="evenodd" d="m25.3333 16h13.3333c1.4747 0 2.6667 1.192 2.6667 2.6667 0 1.4746-1.192 2.6666-2.6667 2.6666h-13.3333c-1.4747 0-2.6667-1.192-2.6667-2.6666 0-1.4747 1.192-2.6667 2.6667-2.6667zm2.6667 28c0-2.208 1.792-4 4-4s4 1.792 4 4-1.792 4-4 4-4-1.792-4-4zm20 6.667c0 1.472-1.1947 2.6667-2.6667 2.6667h-26.6666c-1.472 0-2.6667-1.1947-2.6667-2.6667v-37.3333c0-1.472 1.1947-2.6667 2.6667-2.6667h26.6666c1.472 0 2.6667 1.1947 2.6667 2.6667zm-2.6667-45.3335h-26.6667c-4.4106 0-8 3.58933-8 8v37.3333c0 4.4107 3.5894 8 8 8h26.6667c4.4107 0 8-3.5893 8-8v-37.3333c0-4.41067-3.5893-8-8-8z" fill="#6b7280" fill-rule="evenodd"/></svg>