<svg fill="none" height="24" viewBox="0 0 24 24" width="24" xmlns="http://www.w3.org/2000/svg"><path clip-rule="evenodd" d="m9.5 5.99993h5c.553 0 1 .447 1 1s-.447 1-1 1h-5c-.553 0-1-.447-1-1s.447-1 1-1zm1 10.49997c0-.828.672-1.5 1.5-1.5s1.5.672 1.5 1.5-.672 1.5-1.5 1.5-1.5-.672-1.5-1.5zm7.5 2.5002c0 .552-.448 1-1 1h-9.99998c-.552 0-1-.448-1-1v-14.00004c0-.55199.448-.99999 1-.99999h9.99998c.552 0 1 .448 1 .99999zm-1-17.0001h-10c-1.654 0-3 1.346-3 3v14c0 1.654 1.346 3 3 3h10c1.654 0 3-1.346 3-3v-14c0-1.654-1.346-3-3-3z" fill="#6b7280" fill-rule="evenodd"/></svg>