<svg fill="none" height="64" viewBox="0 0 64 64" width="64" xmlns="http://www.w3.org/2000/svg"><path d="m31.9733 5.33325c-14.72 0-26.63996 11.94665-26.63996 26.66665s11.91996 26.6667 26.63996 26.6667c14.7467 0 26.6934-11.9467 26.6934-26.6667s-11.9467-26.66665-26.6934-26.66665zm.0267 47.99995c-11.7867 0-21.3333-9.5466-21.3333-21.3333 0-11.7866 9.5466-21.3333 21.3333-21.3333s21.3333 9.5467 21.3333 21.3333c0 11.7867-9.5466 21.3333-21.3333 21.3333zm9.3333-23.9999c2.2134 0 4-1.7867 4-4 0-2.2134-1.7866-4-4-4-2.2133 0-4 1.7866-4 4 0 2.2133 1.7867 4 4 4zm-18.6666 0c2.2133 0 4-1.7867 4-4 0-2.2134-1.7867-4-4-4-2.2134 0-4 1.7866-4 4 0 2.2133 1.7866 4 4 4zm9.3333 17.3333c6.2133 0 11.4933-3.8933 13.6267-9.3333h-27.2534c2.1334 5.44 7.4134 9.3333 13.6267 9.3333z" fill="#84818a"/></svg>