<svg width="64" height="64" viewBox="0 0 64 64" fill="none" xmlns="http://www.w3.org/2000/svg">
<path d="M45.2803 5.43945C52.6144 5.43963 58.5595 11.3856 58.5596 18.7197C58.5467 21.1137 57.8731 23.4581 56.6123 25.4932C56.2983 26.3143 55.5276 26.8714 54.6494 26.9131C53.7712 26.9547 52.9518 26.4724 52.5615 25.6846C52.1714 24.8967 52.2844 23.9527 52.8496 23.2793C53.691 21.9075 54.1349 20.329 54.1328 18.7197C54.1305 14.967 51.7628 11.6238 48.2236 10.376C48.0573 10.3197 47.8745 10.3459 47.7305 10.4463C47.5864 10.5467 47.498 10.7092 47.4932 10.8848V49.707C47.3652 54.5425 43.4752 58.4318 38.6396 58.5596C33.7504 58.5594 29.7864 54.5963 29.7861 49.707C29.7861 44.8176 33.7502 40.8537 38.6396 40.8535C39.8957 40.8508 41.1393 41.1064 42.292 41.6055C42.4585 41.6921 42.6568 41.6921 42.8232 41.6055C42.9743 41.4987 43.0647 41.3256 43.0664 41.1406V7.65332C43.0664 6.43093 44.0579 5.43945 45.2803 5.43945Z" fill="#141416"/>
<path d="M31.7695 32C33.0014 32.0002 34 33.1194 34 34.5C34 35.8806 33.0014 36.9998 31.7695 37H7.23047C5.9986 36.9998 5.00003 35.8806 5 34.5C5 33.1194 5.99859 32.0002 7.23047 32H31.7695Z" fill="#141416"/>
<path d="M31.7695 21C33.0014 21.0002 33.9999 22.1195 34 23.5C34 24.8806 33.0014 25.9998 31.7695 26H7.23047C5.99859 25.9998 5 24.8806 5 23.5C5.00008 22.1195 5.99864 21.0002 7.23047 21H31.7695Z" fill="#141416"/>
<path d="M31.7695 10C33.0014 10.0002 34 11.1194 34 12.5C34 13.8806 33.0014 14.9998 31.7695 15H7.23047C5.99861 14.9998 5.00004 13.8806 5 12.5C5 11.1194 5.99859 10.0002 7.23047 10H31.7695Z" fill="#141416"/>
</svg>
