<svg viewBox="0 0 64 64" fill="none" xmlns="http://www.w3.org/2000/svg">
<path fill-rule="evenodd" clip-rule="evenodd" d="M23.8563 7.00879C25.9835 6.13429 28.2993 5.81926 30.5829 6.09277C33.5266 6.43065 36.1507 7.68251 38.454 9.84668C38.4848 9.87615 38.5222 9.89798 38.5634 9.90918C38.6046 9.92037 38.6487 9.92103 38.6903 9.91113C41.8016 9.14716 44.7894 9.416 47.66 10.7188L47.7948 10.7832L48.1376 10.9531C51.1342 12.5056 53.2825 14.8602 54.5809 18.0137C55.1948 19.5153 55.504 21.0791 55.5106 22.7109C55.554 23.9243 55.4202 25.1378 55.1132 26.3125C55.0979 26.3719 55.0977 26.4347 55.1132 26.4941C55.1286 26.5535 55.1597 26.6079 55.202 26.6523C56.9378 28.4131 58.1444 30.6263 58.6844 33.0391C59.5368 37.237 58.6666 41.0198 56.0741 44.3896L55.6747 44.876C53.9578 46.8405 51.7034 48.2601 49.1903 48.9609C49.136 48.9772 49.0864 49.0064 49.0458 49.0459C49.005 49.0855 48.9748 49.1345 48.9569 49.1885C48.3938 50.8138 47.8254 52.2001 46.7743 53.5869C44.1265 57.0805 40.2333 59.0245 35.8475 58.998C32.3519 58.9825 29.2536 57.7036 26.5507 55.1641C26.5099 55.1263 26.4594 55.0999 26.4052 55.0879C26.3511 55.076 26.2948 55.0788 26.2421 55.0957C25.0981 55.4645 23.9449 55.5172 22.6971 55.5039C20.7081 55.4876 18.7488 55.0183 16.9686 54.1309C15.1045 53.2063 13.4816 51.859 12.2294 50.1973C11.7812 49.6012 11.3374 49.0449 11.0106 48.3848C10.5637 47.4746 10.1987 46.5257 9.9198 45.5508C9.33235 43.3347 9.31984 41.0056 9.88269 38.7832C9.90036 38.7306 9.90484 38.6741 9.89734 38.6191C9.88699 38.5654 9.8593 38.5167 9.81824 38.4805C8.45675 37.1037 7.41578 35.4427 6.77039 33.6172C6.34268 32.4928 6.09446 31.308 6.03503 30.1064C5.92856 28.5265 6.0685 26.9392 6.45007 25.4023C7.44381 22.123 9.34113 19.5504 12.1434 17.6865C12.7661 17.2714 13.3558 16.9487 13.91 16.7168C14.5316 16.4586 15.1679 16.2354 15.8143 16.0479C15.8597 16.0345 15.901 16.01 15.9344 15.9766C15.968 15.943 15.9924 15.9011 16.0057 15.8555C16.4874 14.1204 17.3174 12.5012 18.4442 11.0967C19.9458 9.23077 21.7497 7.8678 23.8563 7.00879ZM25.9872 23.8965C23.4388 22.0859 19.9587 22.9849 18.6757 25.8291C18.0111 27.2997 17.8812 28.8499 18.2831 30.4795L18.6034 31.7734L19.1776 33.8711C19.4095 35.048 19.8615 36.1236 20.5282 37.0996L20.5946 37.1953C20.9479 37.6126 21.3345 37.9944 21.7518 38.3389C24.8126 40.8542 28.9847 39.1756 29.8173 35.417L29.9276 34.9473L29.954 34.7705C30.0865 33.8873 30.0465 33.0215 29.8368 32.1758C29.4677 30.6773 29.0653 29.1868 28.6307 27.7061C28.1515 26.0763 27.2702 24.8063 25.9872 23.8965ZM41.6757 20.2617C39.7721 18.4907 36.8375 18.4265 34.9471 20.2041C34.2097 20.8974 33.6974 21.8291 33.4081 22.9971C33.1205 24.1834 33.1205 25.422 33.4081 26.6084L33.4384 26.7275L33.5604 27.125C33.8408 28.0524 34.1012 28.9666 34.3397 29.8652C34.5869 30.7989 34.7853 31.424 34.9354 31.7422C36.203 34.4054 38.9553 36.3225 41.952 35.1035C44.7363 33.9684 45.5756 30.6651 44.9442 27.9932C44.8493 27.589 44.7451 27.1868 44.6346 26.7871C44.3471 25.6219 44.0318 24.4637 43.6893 23.3135C43.3316 22.1917 42.6605 21.1759 41.6757 20.2617ZM25.8046 30.6162C26.0434 30.6163 26.2724 30.7111 26.4413 30.8799C26.6103 31.0489 26.705 31.2786 26.705 31.5176C26.7049 31.7564 26.6102 31.9854 26.4413 32.1543C26.2724 32.3232 26.0434 32.4179 25.8046 32.418C25.5656 32.418 25.3358 32.3233 25.1669 32.1543C24.9981 31.9854 24.9033 31.7563 24.9032 31.5176C24.9032 31.2786 24.9979 31.0488 25.1669 30.8799C25.3358 30.7109 25.5656 30.6162 25.8046 30.6162ZM21.9218 25.3184C22.0211 25.2919 22.1144 25.3255 22.205 25.416C22.6354 25.8575 23.066 26.2944 23.5009 26.7314C23.5389 26.7675 23.5853 26.7939 23.6356 26.8086L25.4247 27.2705C25.5482 27.3014 25.6228 27.3656 25.6493 27.4648C25.678 27.5664 25.6451 27.6636 25.5546 27.752L24.2382 29.0439C24.2199 29.0638 24.2047 29.0864 24.1923 29.1104C24.1781 29.1329 24.1667 29.1571 24.1591 29.1826C24.0045 29.7788 23.8502 30.3755 23.7001 30.9717C23.6692 31.0931 23.6024 31.1708 23.5009 31.1973C23.4016 31.2236 23.3069 31.1902 23.2186 31.0977C22.788 30.6582 22.3568 30.2214 21.9218 29.7842C21.8826 29.7483 21.836 29.7211 21.785 29.7061L19.996 29.2451C19.8725 29.2142 19.7981 29.1474 19.7694 29.0459C19.7452 28.9489 19.7777 28.8541 19.868 28.7637C20.3097 28.3353 20.7472 27.9023 21.1844 27.4717C21.204 27.4523 21.2206 27.4297 21.2333 27.4053C21.2465 27.3833 21.2564 27.3596 21.2635 27.335C21.4181 26.7387 21.5733 26.1421 21.7235 25.5459C21.7544 25.4224 21.8203 25.3471 21.9218 25.3184ZM40.951 26.5596C41.0733 26.5535 41.1957 26.5726 41.3104 26.6152C41.4251 26.6578 41.5304 26.7233 41.619 26.8076C41.7076 26.892 41.7779 26.994 41.826 27.1064C41.8742 27.2188 41.8993 27.3397 41.8993 27.4619C41.8993 27.5843 41.8743 27.7059 41.826 27.8184C41.7779 27.9306 41.7075 28.032 41.619 28.1162C41.5304 28.2006 41.4251 28.266 41.3104 28.3086C41.1957 28.3512 41.0733 28.3703 40.951 28.3643C40.7116 28.3642 40.4817 28.2689 40.3124 28.0996C40.1431 27.9303 40.0478 27.7004 40.0477 27.4609C40.0477 27.2215 40.1431 26.9916 40.3124 26.8223C40.4817 26.6529 40.7116 26.5577 40.951 26.5576V26.5596ZM37.0731 21.2705C37.1747 21.244 37.2719 21.2776 37.3602 21.3682C37.7886 21.8098 38.2177 22.2464 38.6483 22.6836C38.6871 22.7204 38.7338 22.7482 38.785 22.7637L40.5673 23.2275C40.6908 23.2585 40.7661 23.3265 40.7948 23.4258C40.8213 23.5252 40.7879 23.6207 40.6952 23.709L39.3788 24.9961C39.3431 25.0348 39.3163 25.0809 39.2997 25.1309L38.8358 26.915C38.8049 27.0387 38.7382 27.1139 38.6366 27.1426C38.5374 27.1667 38.4426 27.1334 38.3544 27.043C37.926 26.6013 37.4956 26.1638 37.0673 25.7266C37.0479 25.7071 37.0252 25.6913 37.0009 25.6787C36.9789 25.665 36.9545 25.6543 36.9296 25.6475L35.1454 25.1836C35.0221 25.1527 34.9474 25.0866 34.9208 24.9854C34.8943 24.886 34.9269 24.7927 35.0175 24.7021C35.4591 24.2737 35.8966 23.8456 36.3339 23.415C36.3534 23.3956 36.3701 23.3731 36.3827 23.3486C36.3968 23.3268 36.4081 23.3031 36.4159 23.2783L36.8788 21.498C36.9097 21.3723 36.9739 21.2993 37.0731 21.2705Z" fill="#141414"/>
</svg>