<svg fill="none" height="64" viewBox="0 0 64 64" width="64" xmlns="http://www.w3.org/2000/svg"><path clip-rule="evenodd" d="m48 50.667c0 1.472-1.1947 2.6667-2.6667 2.6667h-26.6666c-1.472 0-2.6667-1.1947-2.6667-2.6667v-37.3333c0-1.472 1.1947-2.6667 2.6667-2.6667h26.6666c1.472 0 2.6667 1.1947 2.6667 2.6667zm-2.6667-45.3335h-26.6667c-4.4106 0-8 3.58933-8 8v37.3333c0 4.4107 3.5894 8 8 8h26.6667c4.4107 0 8-3.5893 8-8v-37.3333c0-4.41067-3.5893-8-8-8zm-13.3333 40c-2.2053 0-4-1.7947-4-4s1.7947-4 4-4 4 1.7947 4 4-1.7947 4-4 4zm0-13.3335c-5.1467 0-9.3334 4.1867-9.3334 9.3333 0 5.1467 4.1867 9.3334 9.3334 9.3334 5.1466 0 9.3333-4.1867 9.3333-9.3334 0-5.1466-4.1867-9.3333-9.3333-9.3333zm-.0001-13.333c1.472 0 2.6667 1.1947 2.6667 2.6667s-1.1947 2.6666-2.6667 2.6666-2.6666-1.1946-2.6666-2.6666 1.1946-2.6667 2.6666-2.6667zm.0001 10.6665c4.4107 0 8-3.5893 8-8s-3.5893-8-8-8-8 3.5893-8 8 3.5893 8 8 8z" fill="#6b7280" fill-rule="evenodd"/></svg>