<svg fill="none" height="24" viewBox="0 0 24 24" width="24" xmlns="http://www.w3.org/2000/svg"><path clip-rule="evenodd" d="m18 19.0001c0 .552-.448 1-1 1h-9.99998c-.552 0-1-.448-1-1v-14.00004c0-.55199.448-.99999 1-.99999h9.99998c.552 0 1 .448 1 .99999zm-1-17.0001h-10c-1.654 0-3 1.346-3 3v14c0 1.654 1.346 3 3 3h10c1.654 0 3-1.346 3-3v-14c0-1.654-1.346-3-3-3zm-5 15c-.827 0-1.5-.673-1.5-1.5s.673-1.5 1.5-1.5 1.5.673 1.5 1.5-.673 1.5-1.5 1.5zm0-5.0001c-1.93 0-3.5 1.57-3.5 3.5s1.57 3.5 3.5 3.5 3.5-1.57 3.5-3.5-1.57-3.5-3.5-3.5zm0-4.99984c.552 0 1 .44801 1 1.00001s-.448 1-1 1-1-.448-1-1 .448-1.00001 1-1.00001zm0 3.99994c1.654 0 3-1.346 3-3s-1.346-3-3-3-2.99998 1.346-2.99998 3 1.34598 3 2.99998 3z" fill="#6b7280" fill-rule="evenodd"/></svg>