<svg viewBox="0 0 64 64" fill="none" xmlns="http://www.w3.org/2000/svg">
<path fill-rule="evenodd" clip-rule="evenodd" d="M20.4595 53.3333C30.7941 53.3333 37.5157 47.7416 37.5157 39.3298C37.5157 32.8063 33.4275 28.6611 26.1177 26.9444L21.4245 25.5063C17.3075 24.5621 14.9045 23.4283 15.4706 20.5319C15.9417 18.1223 17.3508 16.7621 20.6276 16.7621C31.0446 16.7621 34.9041 20.5319 34.9041 20.5319V11.4648C34.9041 11.4648 31.1465 8 20.6276 8C10.7132 8 5.33331 13.2116 5.33331 21.2801C5.33331 27.8036 9.06156 31.5973 16.6234 33.3998C17.1526 33.535 17.4231 33.6045 17.4349 33.6082C18.5851 33.9718 20.1372 34.4523 22.0911 35.0496C25.9561 35.9938 26.95 36.9959 26.95 40.0002C26.95 42.7469 24.1564 44.3082 20.4595 44.3082C9.80987 44.3082 5.33331 38.8043 5.33331 38.8043V48.85C5.33331 48.85 8.13272 53.3333 20.4595 53.3333Z M52.4202 52.6546C56.0786 52.6546 58.8029 49.951 58.8029 46.2931C58.8029 42.5557 56.1565 39.9316 52.4202 39.9316C48.7618 39.9316 46.1154 42.5557 46.1154 46.2931C46.1154 50.0305 48.7618 52.6546 52.4202 52.6546Z" fill="#141414"/>
</svg>