<svg fill="none" height="64" viewBox="0 0 64 64" width="64" xmlns="http://www.w3.org/2000/svg"><path d="m29.4541 9.09082c1.2302 0 2.2847.87955 2.5049 2.08988 1.2212 6.718 3.2964 11.2474 6.4541 14.4052 3.1579 3.158 7.6879 5.2338 14.4062 6.4551 1.2103.2203 2.0899 1.2747 2.0899 2.5049-.0002 1.23-.8797 2.2837-2.0899 2.5039-6.7183 1.2213-11.2483 3.2972-14.4062 6.4551-3.1577 3.1579-5.2328 7.6873-6.4541 14.4053-.2202 1.2103-1.2747 2.0898-2.5049 2.0898-1.2301-.0002-2.2837-.8796-2.5039-2.0898-1.2214-6.7183-3.2973-11.2474-6.4551-14.4053s-7.6869-5.2338-14.40526-6.4551c-1.21021-.2202-2.08964-1.2738-2.08984-2.5039 0-1.2302.87949-2.2847 2.08984-2.5049 6.71826-1.2213 11.24746-3.2971 14.40526-6.4551 3.1578-3.1578 5.2337-7.687 6.4551-14.4052.2202-1.21019 1.2739-2.08971 2.5039-2.08988zm0 11.87798c-1.3302 3.2032-3.0759 5.9353-5.3584 8.2177-2.2826 2.2826-5.0152 4.0291-8.2187 5.3594 3.2035 1.3303 5.9361 3.0759 8.2187 5.3584s4.0281 5.0153 5.3584 8.2187c1.3303-3.2034 3.0768-5.9362 5.3594-8.2187 2.2824-2.2824 5.0145-4.0282 8.2177-5.3584-3.2034-1.3303-5.9352-3.0769-8.2177-5.3594s-4.0291-5.0143-5.3594-8.2177zm20.3652-16.9688c.5175.00054.9525.38901 1.0108.90332.3016 2.66466 1.1084 4.58474 2.3965 5.89648 1.2819 1.3056 3.1592 2.1286 5.8457 2.3672.5259.0467.9282.4878.9277 1.0156s-.404.968-.9297 1.0137c-2.6417.2287-4.5596 1.051-5.873 2.3642-1.3132 1.3133-2.1357 3.2307-2.3643 5.8721-.0456.5259-.486.9301-1.0137.9307-.5277.0004-.9679-.4022-1.0146-.9278-.2388-2.6865-1.0626-4.5637-2.3682-5.8457-1.3119-1.2878-3.2318-2.0946-5.8965-2.3964-.5143-.0583-.9027-.4933-.9033-1.0108-.0005-.5176.3872-.9534.9014-1.0127 2.7101-.3126 4.589-1.1193 5.8691-2.3994 1.2801-1.28009 2.0868-3.15896 2.3994-5.86913.0593-.51417.4953-.90187 1.0127-.90137z" fill="#000"/></svg>