<svg fill="none" height="24" viewBox="0 0 24 24" width="24" xmlns="http://www.w3.org/2000/svg"><path clip-rule="evenodd" d="m11.9996 16.0499c.159 0 .318.038.463.113l3.769 1.97-.717-4.157c-.057-.326.052-.658.29-.889l3.036-2.936-4.203-.61203c-.325-.047-.606-.25-.752-.544l-1.886-3.794-1.886 3.794c-.14604.294-.42704.497-.75204.544l-4.203.61203 3.036 2.936c.238.231.347.563.29.889l-.717 4.157 3.76904-1.97c.145-.075.304-.113.463-.113zm5.5619 4.9051c-.159 0-.318-.037-.463-.113l-5.099-2.664-5.09895 2.664c-.338.176-.746.145-1.051-.079-.308-.224-.461-.603-.397-.978l.972-5.628-4.12-3.985c-.275-.265-.373-.663-.256-1.026.116-.363.43-.627.807-.682l5.701-.828 2.54695-5.126c.338-.68 1.454-.68 1.792 0l2.547 5.126 5.701.828c.377.055.691.319.807.682.117.363.019.761-.256 1.026l-4.12 3.985.972 5.628c.064.375-.089.754-.397.978-.173.128-.38.192-.588.192z" fill="#6b7280" fill-rule="evenodd"/></svg>