<svg viewBox="0 0 64 64" fill="none" xmlns="http://www.w3.org/2000/svg">
<path fill-rule="evenodd" clip-rule="evenodd" d="M29.4541 9.09082C30.6843 9.09082 31.7388 9.97037 31.959 11.1807C33.1803 17.8987 35.2554 22.4281 38.4131 25.5859C41.571 28.7439 46.101 30.8197 52.8193 32.041C54.0296 32.2613 54.9092 33.3157 54.9092 34.5459C54.909 35.7759 54.0295 36.8296 52.8193 37.0498C46.101 38.2711 41.571 40.347 38.4131 43.5049C35.2554 46.6628 33.1803 51.1922 31.959 57.9102C31.7388 59.1205 30.6843 60 29.4541 60C28.224 59.9998 27.1704 59.1204 26.9502 57.9102C25.7288 51.1919 23.6529 46.6628 20.4951 43.5049C17.3373 40.347 12.8082 38.2711 6.08984 37.0498C4.87963 36.8296 4.0002 35.7759 4 34.5459C4 33.3157 4.87949 32.2612 6.08984 32.041C12.8081 30.8197 17.3373 28.7439 20.4951 25.5859C23.6529 22.4281 25.7288 17.8989 26.9502 11.1807C27.1704 9.97051 28.2241 9.09099 29.4541 9.09082ZM29.4541 20.9688C28.1239 24.172 26.3782 26.9041 24.0957 29.1865C21.8131 31.4691 19.0805 33.2156 15.877 34.5459C19.0805 35.8762 21.8131 37.6218 24.0957 39.9043C26.3783 42.1868 28.1238 44.9196 29.4541 48.123C30.7844 44.9196 32.5309 42.1868 34.8135 39.9043C37.0959 37.6219 39.828 35.8761 43.0312 34.5459C39.8278 33.2156 37.096 31.469 34.8135 29.1865C32.531 26.904 30.7844 24.1722 29.4541 20.9688ZM49.8193 4C50.3368 4.00053 50.7718 4.38901 50.8301 4.90332C51.1317 7.56798 51.9385 9.48806 53.2266 10.7998C54.5085 12.1054 56.3858 12.9284 59.0723 13.167C59.5982 13.2137 60.0005 13.6548 60 14.1826C59.9995 14.7104 59.596 15.1506 59.0703 15.1963C56.4286 15.4249 54.5107 16.2473 53.1973 17.5605C51.8841 18.8738 51.0616 20.7912 50.833 23.4326C50.7874 23.9585 50.347 24.3627 49.8193 24.3633C49.2916 24.3637 48.8514 23.9611 48.8047 23.4355C48.5659 20.749 47.7421 18.8718 46.4365 17.5898C45.1246 16.3019 43.2047 15.4952 40.54 15.1934C40.0257 15.1351 39.6373 14.7001 39.6367 14.1826C39.6362 13.665 40.0239 13.2292 40.5381 13.1699C43.2482 12.8573 45.1271 12.0506 46.4072 10.7705C47.6873 9.49041 48.494 7.61154 48.8066 4.90137C48.8659 4.3872 49.3019 3.9995 49.8193 4Z" fill="#141414"/>
</svg>