<svg fill="none" height="64" viewBox="0 0 64 64" width="64" xmlns="http://www.w3.org/2000/svg"><path clip-rule="evenodd" d="m31.9989 42.7998c.424 0 .848.1013 1.2346.3013l10.0507 5.2534-1.912-11.0854c-.152-.8693.1387-1.7546.7733-2.3706l8.096-7.8294-11.208-1.632c-.8666-.1253-1.616-.6666-2.0053-1.4506l-5.0293-10.1174-5.0294 10.1174c-.3893.784-1.1386 1.3253-2.0053 1.4506l-11.208 1.632 8.096 7.8294c.6347.616.9253 1.5013.7733 2.3706l-1.912 11.0854 10.0507-5.2534c.3867-.2.8107-.3013 1.2347-.3013zm14.8319 13.0804c-.424 0-.848-.0987-1.2346-.3014l-13.5974-7.104-13.5973 7.104c-.9013.4694-1.9893.3867-2.8027-.2106-.8213-.5974-1.2293-1.608-1.0586-2.608l2.592-15.008-10.9867-10.6267c-.73333-.7067-.99466-1.768-.68266-2.736.30933-.968 1.14666-1.672 2.152-1.8187l15.20266-2.208 6.792-13.6693c.9013-1.81334 3.8773-1.81334 4.7787 0l6.792 13.6693 15.2026 2.208c1.0054.1467 1.8427.8507 2.152 1.8187.312.968.0507 2.0293-.6826 2.736l-10.9867 10.6267 2.592 15.008c.1707 1-.2373 2.0106-1.0587 2.608-.4613.3413-1.0133.512-1.568.512z" fill="#6b7280" fill-rule="evenodd"/></svg>