<svg fill="none" height="64" viewBox="0 0 64 64" width="64" xmlns="http://www.w3.org/2000/svg"><path d="m26.8205 8.52368c2.3929-4.25358 8.5013-4.25358 10.8916 0l5.2159 9.27932c.0881.1571.2091.2934.3545.3994s.312.1792.4882.2148l10.4092 2.1065c4.7753.9682 6.6602 6.7967 3.3653 10.3906l-7.1885 7.8428c-.1213.1328-.2134.2905-.2686.4619-.0551.1712-.0726.3525-.0517.5312l1.2197 10.584c.5576 4.8504-4.3825 8.4521-8.8106 6.4209l-9.6591-4.4345c-.1632-.0749-.3411-.1133-.5205-.1133-.1793 0-.3565.0385-.5196.1133l-9.6562 4.4345c-4.4282 2.0315-9.3716-1.5704-8.8115-6.4209l1.2197-10.584c.0205-.1788.0028-.36-.0528-.5312-.0556-.1714-.1477-.3294-.2695-.4619l-7.18846-7.8428c-3.29502-3.5964-1.40762-9.4224 3.36526-10.3906l10.4121-2.1065c.1759-.0353.342-.1083.4873-.2138.1453-.1056.267-.2409.3555-.3975zm5.4473 1.82422c-.2216 0-.4395.0598-.6309.1719-.1912.1121-.3491.2733-.458.4668l-5.2158 9.2793c-.4404.7848-1.0443 1.4654-1.7705 1.9951-.726.5296-1.5576.8957-2.4375 1.0742l-10.4121 2.1074c-.2175.0436-.4201.1442-.5859.292-.1657.1478-.2887.3374-.3575.5488-.0686.2116-.0803.4379-.0332.6553.0473.2175.1515.4192.3018.583l7.1885 7.8418c.6076.663 1.0653 1.4502 1.3427 2.3067.2775.8564.3678 1.7626.2647 2.6572l-1.2178 10.584c-.0246.2203.0095.4436.0987.6465.0892.2028.2312.3785.4101.5087.1788.1301.3887.2102.6084.2325.22.0222.4423-.0146.6436-.1065l9.6591-4.4336c.816-.3743 1.7024-.5683 2.5997-.5683.8974 0 1.7845.1939 2.6005.5683l9.6592 4.4336c.2015.0927.424.1304.6446.1084s.4319-.1027.6113-.2334c.1793-.1306.32-.3072.4092-.5107.0891-.2036.1231-.4275.0976-.6485l-1.2197-10.5839c-.1027-.894-.0126-1.7995.2646-2.6553.2775-.856.7355-1.643 1.3428-2.3057l7.1885-7.8418c.1503-.1638.2545-.3655.3017-.583.0472-.2174.0355-.4437-.0332-.6553-.0687-.2115-.1925-.401-.3584-.5488-.1657-.1476-.3675-.2484-.5849-.292l-10.4092-2.1074c-.8798-.1782-1.7114-.544-2.4375-1.0732-.7261-.5293-1.3298-1.2098-1.7705-1.9942l-5.2158-9.2812c-.1089-.1936-.2677-.3547-.459-.4668-.1912-.112-.4084-.1719-.6299-.1719z" fill="#000"/></svg>