<svg fill="none" height="64" viewBox="0 0 64 64" width="64" xmlns="http://www.w3.org/2000/svg"><path clip-rule="evenodd" d="m26.6667 37.3337h10.6667v-10.6667h-10.6667zm12.6667-16.0002h-14.6667c-1.8373 0-3.3333 1.496-3.3333 3.3333v14.6667c0 1.8373 1.496 3.3333 3.3333 3.3333h14.6667c1.8373 0 3.3333-1.496 3.3333-3.3333v-14.6667c0-1.8373-1.496-3.3333-3.3333-3.3333zm-7.3333 32.0002c-11.7627 0-21.3333-9.5707-21.3333-21.3334 0-11.7626 9.5706-21.3333 21.3333-21.3333 11.7626 0 21.3333 9.5707 21.3333 21.3333 0 11.7627-9.5707 21.3334-21.3333 21.3334zm-.0001-48.0002c-14.704 0-26.66663 11.9627-26.66663 26.6667s11.96263 26.6666 26.66663 26.6666 26.6667-11.9626 26.6667-26.6666-11.9627-26.6667-26.6667-26.6667z" fill="#6b7280" fill-rule="evenodd"/></svg>