<svg fill="none" height="24" viewBox="0 0 24 24" width="24" xmlns="http://www.w3.org/2000/svg"><path clip-rule="evenodd" d="m10 14.0001h4v-4h-4zm4.75-6.0001h-5.5c-.689 0-1.25.561-1.25 1.25v5.5c0 .689.561 1.25 1.25 1.25h5.5c.689 0 1.25-.561 1.25-1.25v-5.5c0-.689-.561-1.25-1.25-1.25zm-2.75 12.0001c-4.41098 0-7.99998-3.589-7.99998-8 0-4.41104 3.589-8.00003 7.99998-8.00003 4.411 0 8 3.58899 8 8.00003 0 4.411-3.589 8-8 8zm0-18.0001c-5.514 0-10 4.486-10 10s4.486 10 10 10 10-4.486 10-10-4.486-10-10-10z" fill="#6b7280" fill-rule="evenodd"/></svg>