<svg fill="none" height="64" viewBox="0 0 64 64" width="64" xmlns="http://www.w3.org/2000/svg"><path clip-rule="evenodd" d="m45.3333 21.3344h-34.6666c-1.47201 0-2.66668-1.192-2.66668-2.6667s1.19467-2.6667 2.66668-2.6667h34.8853l-4.1546-3.2266c-1.1627-.904-1.3734-2.5814-.4694-3.74138.904-1.16533 2.5813-1.376 3.7413-.472l10.2987 7.99998c.6587.5094 1.0373 1.296 1.032 2.1307-.0053.8293-.4 1.6107-1.0667 2.1093l-10.6666 8c-.48.36-1.0427.5334-1.5974.5334-.8106 0-1.6133-.368-2.136-1.0667-.8826-1.1787-.6453-2.8507.5334-3.7333zm-26.6666 18.6666h34.6667c1.472 0 2.6666 1.192 2.6666 2.6667s-1.1946 2.6667-2.6666 2.6667h-34.8853l4.1546 3.2266c1.1627.904 1.3734 2.5814.4694 3.7414-.5254.6773-1.312 1.032-2.1067 1.032-.5733 0-1.1493-.1814-1.6347-.56l-10.29864-8c-.65867-.5094-1.03734-1.296-1.032-2.1307.00533-.8293.4-1.6107 1.06666-2.1093l10.66668-8c1.1813-.8827 2.8507-.6454 3.7333.5333.8827 1.1787.6454 2.8507-.5333 3.7333z" fill="#6b7280" fill-rule="evenodd"/></svg>