<svg width="24" height="24" viewBox="0 0 24 24" fill="none" xmlns="http://www.w3.org/2000/svg">
<g id="Icon/Outline/Sync">
<path id="Mask" fill-rule="evenodd" clip-rule="evenodd" d="M21.6829 10.3261C21.6756 10.3419 21.6684 10.3578 21.6616 10.374C21.6547 10.3908 21.6493 10.4082 21.6439 10.4257C21.6352 10.454 21.6264 10.4822 21.6116 10.507C21.582 10.556 21.5434 10.5972 21.5046 10.6385C21.4935 10.6502 21.4825 10.662 21.4716 10.674C21.4595 10.6865 21.4488 10.7003 21.4381 10.714C21.4231 10.7331 21.4082 10.7523 21.3896 10.768C21.3336 10.8137 21.2689 10.8455 21.2044 10.8772C21.1998 10.8795 21.1952 10.8817 21.1906 10.884C21.177 10.8906 21.164 10.8989 21.151 10.9073C21.1326 10.9191 21.1141 10.931 21.0936 10.938C20.9856 10.978 20.8706 11 20.7516 11C20.6976 11 20.6416 10.996 20.5866 10.986L16.3366 10.281C15.7916 10.191 15.4236 9.676 15.5136 9.131C15.6036 8.587 16.1176 8.214 16.6636 8.309L18.3076 8.581C17.0626 6.395 14.6856 5 12.0696 5C9.11059 5 6.50359 6.718 5.42659 9.375C5.26959 9.765 4.89459 10 4.49959 10C4.37459 10 4.24759 9.977 4.12459 9.927C3.61259 9.72 3.36559 9.137 3.57359 8.625C4.95759 5.208 8.29259 3 12.0696 3C15.4816 3 18.5826 4.87 20.1476 7.788L20.5166 5.815C20.6186 5.273 21.1426 4.914 21.6836 5.018C22.2266 5.119 22.5846 5.642 22.4826 6.185L21.7336 10.185C21.724 10.236 21.7034 10.281 21.6829 10.3261ZM18.5735 14.6252C18.7805 14.1122 19.3645 13.8662 19.8755 14.0732C20.3875 14.2802 20.6345 14.8632 20.4265 15.3752C19.0425 18.7922 15.7075 21.0002 11.9305 21.0002C8.51849 21.0002 5.41749 19.1302 3.85249 16.2122L3.48249 18.1842C3.39349 18.6652 2.97349 19.0002 2.50049 19.0002C2.43949 19.0002 2.37749 18.9942 2.31549 18.9822C1.77249 18.8812 1.41549 18.3582 1.51749 17.8152L2.26649 13.8152C2.27409 13.7759 2.29092 13.7411 2.30783 13.706C2.31761 13.6858 2.32742 13.6655 2.33549 13.6442C2.34339 13.6243 2.3503 13.6037 2.35722 13.583C2.37217 13.5383 2.38719 13.4935 2.41249 13.4552C2.42724 13.4324 2.44654 13.4142 2.46596 13.3959C2.47811 13.3844 2.49032 13.3729 2.50149 13.3602C2.51029 13.35 2.519 13.3397 2.5277 13.3295C2.57529 13.2734 2.62246 13.2178 2.68249 13.1772C2.68838 13.1729 2.69543 13.1703 2.70239 13.1678C2.70842 13.1656 2.71438 13.1634 2.71949 13.1602C2.81649 13.0972 2.92049 13.0482 3.03549 13.0232C3.04249 13.0216 3.04978 13.022 3.05706 13.0224C3.06328 13.0228 3.06949 13.0231 3.07549 13.0222C3.18549 13.0042 3.29649 12.9932 3.41349 13.0132L7.66349 13.7192C8.20849 13.8082 8.57649 14.3242 8.48649 14.8692C8.40549 15.3582 7.98149 15.7052 7.50049 15.7052C7.44649 15.7052 7.39149 15.7012 7.33649 15.6912L5.69249 15.4192C6.93749 17.6052 9.31449 19.0002 11.9305 19.0002C14.8895 19.0002 17.4965 17.2822 18.5735 14.6252Z" fill="#231F20"/>
<mask id="mask0" mask-type="alpha" maskUnits="userSpaceOnUse" x="1" y="3" width="22" height="19">
<path id="Mask_2" fill-rule="evenodd" clip-rule="evenodd" d="M21.6829 10.3261C21.6756 10.3419 21.6684 10.3578 21.6616 10.374C21.6547 10.3908 21.6493 10.4082 21.6439 10.4257C21.6352 10.454 21.6264 10.4822 21.6116 10.507C21.582 10.556 21.5434 10.5972 21.5046 10.6385C21.4935 10.6502 21.4825 10.662 21.4716 10.674C21.4595 10.6865 21.4488 10.7003 21.4381 10.714C21.4231 10.7331 21.4082 10.7523 21.3896 10.768C21.3336 10.8137 21.2689 10.8455 21.2044 10.8772C21.1998 10.8795 21.1952 10.8817 21.1906 10.884C21.177 10.8906 21.164 10.8989 21.151 10.9073C21.1326 10.9191 21.1141 10.931 21.0936 10.938C20.9856 10.978 20.8706 11 20.7516 11C20.6976 11 20.6416 10.996 20.5866 10.986L16.3366 10.281C15.7916 10.191 15.4236 9.676 15.5136 9.131C15.6036 8.587 16.1176 8.214 16.6636 8.309L18.3076 8.581C17.0626 6.395 14.6856 5 12.0696 5C9.11059 5 6.50359 6.718 5.42659 9.375C5.26959 9.765 4.89459 10 4.49959 10C4.37459 10 4.24759 9.977 4.12459 9.927C3.61259 9.72 3.36559 9.137 3.57359 8.625C4.95759 5.208 8.29259 3 12.0696 3C15.4816 3 18.5826 4.87 20.1476 7.788L20.5166 5.815C20.6186 5.273 21.1426 4.914 21.6836 5.018C22.2266 5.119 22.5846 5.642 22.4826 6.185L21.7336 10.185C21.724 10.236 21.7034 10.281 21.6829 10.3261ZM18.5735 14.6252C18.7805 14.1122 19.3645 13.8662 19.8755 14.0732C20.3875 14.2802 20.6345 14.8632 20.4265 15.3752C19.0425 18.7922 15.7075 21.0002 11.9305 21.0002C8.51849 21.0002 5.41749 19.1302 3.85249 16.2122L3.48249 18.1842C3.39349 18.6652 2.97349 19.0002 2.50049 19.0002C2.43949 19.0002 2.37749 18.9942 2.31549 18.9822C1.77249 18.8812 1.41549 18.3582 1.51749 17.8152L2.26649 13.8152C2.27409 13.7759 2.29092 13.7411 2.30783 13.706C2.31761 13.6858 2.32742 13.6655 2.33549 13.6442C2.34339 13.6243 2.3503 13.6037 2.35722 13.583C2.37217 13.5383 2.38719 13.4935 2.41249 13.4552C2.42724 13.4324 2.44654 13.4142 2.46596 13.3959C2.47811 13.3844 2.49032 13.3729 2.50149 13.3602C2.51029 13.35 2.519 13.3397 2.5277 13.3295C2.57529 13.2734 2.62246 13.2178 2.68249 13.1772C2.68838 13.1729 2.69543 13.1703 2.70239 13.1678C2.70842 13.1656 2.71438 13.1634 2.71949 13.1602C2.81649 13.0972 2.92049 13.0482 3.03549 13.0232C3.04249 13.0216 3.04978 13.022 3.05706 13.0224C3.06328 13.0228 3.06949 13.0231 3.07549 13.0222C3.18549 13.0042 3.29649 12.9932 3.41349 13.0132L7.66349 13.7192C8.20849 13.8082 8.57649 14.3242 8.48649 14.8692C8.40549 15.3582 7.98149 15.7052 7.50049 15.7052C7.44649 15.7052 7.39149 15.7012 7.33649 15.6912L5.69249 15.4192C6.93749 17.6052 9.31449 19.0002 11.9305 19.0002C14.8895 19.0002 17.4965 17.2822 18.5735 14.6252Z" fill="white"/>
</mask>
<g mask="url(#mask0)">
<g id="&#240;&#159;&#142;&#168; Color">
<rect id="Base" width="24" height="24" fill="#0D1C2E"/>
</g>
</g>
</g>
</svg>
