<svg fill="none" height="64" viewBox="0 0 64 64" width="64" xmlns="http://www.w3.org/2000/svg"><path clip-rule="evenodd" d="m57.8211 27.5361c-.0194.0424-.0387.0848-.0568.1279-.0183.0447-.0327.0913-.047.1377-.0234.0756-.0467.1509-.0863.217-.0789.1307-.182.2404-.2854.3505-.0295.0314-.059.0629-.088.0948-.0322.0334-.0608.07-.0893.1066-.0398.0511-.0796.1021-.1293.1441-.1494.1219-.322.2067-.4939.2912-.0123.006-.0246.0121-.0368.0181-.0363.0176-.0709.0398-.1055.062-.0491.0316-.0984.0632-.1532.082-.288.1067-.5946.1653-.912.1653-.144 0-.2933-.0106-.44-.0373l-11.3333-1.88c-1.4533-.24-2.4347-1.6133-2.1947-3.0667.24-1.4506 1.6107-2.4453 3.0667-2.192l4.384.7254c-3.32-5.8294-9.6587-9.5494-16.6347-9.5494-7.8906 0-14.8426 4.5814-17.7146 11.6667-.4187 1.04-1.4187 1.6667-2.472 1.6667-.3334 0-.672-.0614-1-.1947-1.36535-.552-2.02402-2.1067-1.46935-3.472 3.69065-9.112 12.58395-15 22.65595-15 9.0987 0 17.368 4.9867 21.5414 12.768l.984-5.2613c.272-1.4454 1.6693-2.4027 3.112-2.1254 1.448.2694 2.4026 1.664 2.1306 3.112l-1.9973 10.6667c-.0256.136-.0804.256-.1352.3761zm-8.2917 11.464c.552-1.368 2.1093-2.024 3.472-1.472 1.3653.552 2.024 2.1067 1.4693 3.472-3.6907 9.112-12.584 15-22.656 15-9.0987 0-17.368-4.9867-21.5413-12.768l-.98671 5.2587c-.23733 1.2826-1.35733 2.176-2.61867 2.176-.16266 0-.328-.016-.49333-.048-1.448-.2694-2.4-1.664-2.128-3.112l1.99733-10.6667c.02028-.1047.06516-.1977.11025-.2911.02609-.054.05225-.1082.07375-.1649.02109-.0531.0395-.1081.05795-.1632.03989-.1191.07992-.2387.14739-.3408.03935-.0607.09081-.1092.14259-.1581.03242-.0306.06496-.0613.09474-.0952.02349-.0272.04671-.0546.06991-.0819.12691-.1497.25268-.2979.41276-.4061.01572-.0115.0345-.0183.05307-.0251.01607-.0058.03198-.0116.04559-.0203.25867-.168.536-.2986.84267-.3653.01868-.0043.03813-.0032.05752-.0021.0166.001.03316.0019.04915-.0006.29333-.048.58933-.0773.90133-.024l11.33331 1.8827c1.4534.2373 2.4347 1.6133 2.1947 3.0667-.216 1.304-1.3467 2.2293-2.6293 2.2293-.144 0-.2907-.0107-.4374-.0373l-4.384-.7254c3.32 5.8294 9.6587 9.5494 16.6347 9.5494 7.8907 0 14.8427-4.5814 17.7147-11.6667z" fill="#6b7280" fill-rule="evenodd"/></svg>