<svg viewBox="0 0 64 64" fill="none" xmlns="http://www.w3.org/2000/svg">
<path fill-rule="evenodd" clip-rule="evenodd" d="M11.1847 30.553C24.1412 24.9081 32.7809 21.1866 37.1038 19.3886C49.4465 14.2548 52.0112 13.363 53.6828 13.3336C54.0505 13.3271 54.8726 13.4182 55.4051 13.8503C55.8547 14.2151 55.9784 14.708 56.0376 15.0539C56.0968 15.3998 56.1705 16.1878 56.1119 16.8035C55.4431 23.8313 52.5489 40.8857 51.0766 48.7568C50.4536 52.0874 49.2268 53.2041 48.0392 53.3134C45.4582 53.5509 43.4984 51.6077 40.9986 49.9691C37.0869 47.4049 34.877 45.8087 31.08 43.3066C26.692 40.4149 29.5366 38.8256 32.0373 36.2282C32.6918 35.5485 44.0636 25.2049 44.2837 24.2666C44.3112 24.1493 44.3368 23.7118 44.0769 23.4808C43.817 23.2499 43.4335 23.3288 43.1567 23.3917C42.7644 23.4807 36.5154 27.6111 24.4097 35.7827C22.636 37.0007 21.0294 37.5941 19.5899 37.563C18.003 37.5287 14.9504 36.6658 12.6812 35.9281C9.89785 35.0234 7.6857 34.545 7.87833 33.0085C7.97866 32.2081 9.08079 31.3897 11.1847 30.553Z" fill="#141414"/>
</svg>