<svg width="24" height="24" viewBox="0 0 24 24" fill="none" xmlns="http://www.w3.org/2000/svg">
<g id="Icon/Outline/thermometer">
<path id="Mask" fill-rule="evenodd" clip-rule="evenodd" d="M12 4C11.448 4 11 4.449 11 5V13.54C11 13.898 10.809 14.229 10.498 14.407C9.574 14.938 9 15.932 9 17C9 18.654 10.346 20 12 20C13.654 20 15 18.654 15 17C15 15.932 14.426 14.938 13.502 14.407C13.191 14.229 13 13.898 13 13.54V5C13 4.733 12.897 4.487 12.713 4.306C12.514 4.102 12.267 4 12 4ZM12 22C9.243 22 7 19.757 7 17C7 15.42 7.754 13.938 9 13.003V5C9 3.346 10.346 2 12 2C12.812 2 13.566 2.317 14.127 2.892C14.684 3.434 15 4.189 15 5V13.003C16.246 13.938 17 15.42 17 17C17 19.757 14.757 22 12 22Z" fill="#423F3D"/>
</g>
</svg>
