<svg fill="none" height="24" viewBox="0 0 24 24" width="24" xmlns="http://www.w3.org/2000/svg"><path clip-rule="evenodd" d="m13 5.00006c0-.551.448-.99999 1-.99999.267 0 .514.102.713.306.184.181.287.427.287.69399v8.54004c0 .358.191.689.502.867.924.531 1.498 1.525 1.498 2.593 0 1.654-1.346 3-3 3s-3-1.346-3-3c0-1.068.574-2.062 1.498-2.593.311-.178.502-.509.502-.867zm-4.00002 11.99994c0 2.757 2.24302 5 5.00002 5s5-2.243 5-5c0-1.58-.754-3.062-2-3.997v-8.003c0-.811-.316-1.566-.873-2.108-.561-.575-1.315-.892-2.127-.892-1.654 0-3 1.346-3 3v8.003c-1.24602.935-2.00002 2.417-2.00002 3.997zm-5.99998-10h4c.55 0 1-.45 1-1s-.45-1-1-1h-4c-.55 0-1 .45-1 1s.45 1 1 1z" fill="#6b7280" fill-rule="evenodd"/></svg>