<svg fill="none" height="64" viewBox="0 0 64 64" width="64" xmlns="http://www.w3.org/2000/svg"><path clip-rule="evenodd" d="m34.6667 13.3337c0-1.4694 1.1947-2.6667 2.6667-2.6667.712 0 1.3706.272 1.9013.816.4907.4827.7653 1.1387.7653 1.8507v22.7733c0 .9547.5094 1.8373 1.3387 2.312 2.464 1.416 3.9947 4.0667 3.9947 6.9147 0 4.4106-3.5894 8-8 8-4.4107 0-8-3.5894-8-8 0-2.848 1.5306-5.4987 3.9946-6.9147.8294-.4747 1.3387-1.3573 1.3387-2.312zm-10.6667 31.9998c0 7.352 5.9813 13.3333 13.3333 13.3333s13.3334-5.9813 13.3334-13.3333c0-4.2133-2.0107-8.1653-5.3334-10.6587v-21.3413c0-2.1627-.8426-4.176-2.328-5.62134-1.496-1.53333-3.5066-2.37866-5.672-2.37866-4.4106 0-8 3.58933-8 8v21.3413c-3.3226 2.4934-5.3333 6.4454-5.3333 10.6587zm-15.99996-26.6667h10.66666c1.4667 0 2.6667-1.2 2.6667-2.6666 0-1.4667-1.2-2.6667-2.6667-2.6667h-10.66666c-1.46667 0-2.66667 1.2-2.66667 2.6667 0 1.4666 1.2 2.6666 2.66667 2.6666z" fill="#6b7280" fill-rule="evenodd"/></svg>