<svg fill="none" height="24" viewBox="0 0 24 24" width="24" xmlns="http://www.w3.org/2000/svg"><path clip-rule="evenodd" d="m9 13c-.552 0-1-.448-1-1s.448-1 1-1 1 .448 1 1-.448 1-1 1zm-.00002-4.00007c-1.654 0-3 1.34597-3 2.99997s1.346 3 3 3c1.65402 0 3.00002-1.346 3.00002-3s-1.346-2.99997-3.00002-2.99997zm6.00002 8.00017h-5.99998c-2.757 0-5-2.243-5-5 0-2.75704 2.243-5.00004 5-5.00004h5.99998c2.757 0 5 2.243 5 5.00004 0 2.757-2.243 5-5 5zm0-12.0001h-6c-3.859 0-7 3.141-7 7s3.141 7 7 7h6c3.859 0 7-3.141 7-7s-3.141-7-7-7z" fill="#6b7280" fill-rule="evenodd"/></svg>