<svg width="24" height="24" viewBox="0 0 24 24" fill="none" xmlns="http://www.w3.org/2000/svg">
<g id="Icon/Outline/toggle-right">
<path id="Mask" fill-rule="evenodd" clip-rule="evenodd" d="M15 13C14.448 13 14 12.552 14 12C14 11.448 14.448 11 15 11C15.552 11 16 11.448 16 12C16 12.552 15.552 13 15 13ZM15 9C13.346 9 12 10.346 12 12C12 13.654 13.346 15 15 15C16.654 15 18 13.654 18 12C18 10.346 16.654 9 15 9ZM15 17H9C6.243 17 4 14.757 4 12C4 9.243 6.243 7 9 7H15C17.757 7 20 9.243 20 12C20 14.757 17.757 17 15 17ZM15 5H9C5.141 5 2 8.141 2 12C2 15.859 5.141 19 9 19H15C18.859 19 22 15.859 22 12C22 8.141 18.859 5 15 5Z" fill="#231F20"/>
<mask id="mask0" mask-type="alpha" maskUnits="userSpaceOnUse" x="2" y="5" width="20" height="14">
<path id="Mask_2" fill-rule="evenodd" clip-rule="evenodd" d="M15 13C14.448 13 14 12.552 14 12C14 11.448 14.448 11 15 11C15.552 11 16 11.448 16 12C16 12.552 15.552 13 15 13ZM15 9C13.346 9 12 10.346 12 12C12 13.654 13.346 15 15 15C16.654 15 18 13.654 18 12C18 10.346 16.654 9 15 9ZM15 17H9C6.243 17 4 14.757 4 12C4 9.243 6.243 7 9 7H15C17.757 7 20 9.243 20 12C20 14.757 17.757 17 15 17ZM15 5H9C5.141 5 2 8.141 2 12C2 15.859 5.141 19 9 19H15C18.859 19 22 15.859 22 12C22 8.141 18.859 5 15 5Z" fill="white"/>
</mask>
<g mask="url(#mask0)">
<g id="&#240;&#159;&#142;&#168; Color">
<rect id="Base" width="24" height="24" fill="#0D1C2E"/>
</g>
</g>
</g>
</svg>
