<svg width="24" height="24" viewBox="0 0 24 24" fill="none" xmlns="http://www.w3.org/2000/svg">
<g id="Icon/Outline/toggle-left">
<path id="Mask" fill-rule="evenodd" clip-rule="evenodd" d="M9 13C8.448 13 8 12.552 8 12C8 11.448 8.448 11 9 11C9.552 11 10 11.448 10 12C10 12.552 9.552 13 9 13ZM9 9C7.346 9 6 10.346 6 12C6 13.654 7.346 15 9 15C10.654 15 12 13.654 12 12C12 10.346 10.654 9 9 9ZM15 17H9C6.243 17 4 14.757 4 12C4 9.243 6.243 7 9 7H15C17.757 7 20 9.243 20 12C20 14.757 17.757 17 15 17ZM15 5H9C5.141 5 2 8.141 2 12C2 15.859 5.141 19 9 19H15C18.859 19 22 15.859 22 12C22 8.141 18.859 5 15 5Z" fill="#231F20"/>
<mask id="mask0" mask-type="alpha" maskUnits="userSpaceOnUse" x="2" y="5" width="20" height="14">
<path id="Mask_2" fill-rule="evenodd" clip-rule="evenodd" d="M9 13C8.448 13 8 12.552 8 12C8 11.448 8.448 11 9 11C9.552 11 10 11.448 10 12C10 12.552 9.552 13 9 13ZM9 9C7.346 9 6 10.346 6 12C6 13.654 7.346 15 9 15C10.654 15 12 13.654 12 12C12 10.346 10.654 9 9 9ZM15 17H9C6.243 17 4 14.757 4 12C4 9.243 6.243 7 9 7H15C17.757 7 20 9.243 20 12C20 14.757 17.757 17 15 17ZM15 5H9C5.141 5 2 8.141 2 12C2 15.859 5.141 19 9 19H15C18.859 19 22 15.859 22 12C22 8.141 18.859 5 15 5Z" fill="white"/>
</mask>
<g mask="url(#mask0)">
<g id="&#240;&#159;&#142;&#168; Color">
<rect id="Base" width="24" height="24" fill="#0D1C2E"/>
</g>
</g>
</g>
</svg>
