<svg fill="none" height="64" viewBox="0 0 64 64" width="64" xmlns="http://www.w3.org/2000/svg"><path clip-rule="evenodd" d="m24 34.6668c-1.472 0-2.6666-1.1946-2.6666-2.6666s1.1946-2.6667 2.6666-2.6667 2.6667 1.1947 2.6667 2.6667-1.1947 2.6666-2.6667 2.6666zm0-10.6668c-4.4107 0-8 3.5893-8 8s3.5893 8 8 8 8-3.5893 8-8-3.5893-8-8-8zm16.0001 21.3337h-16c-7.352 0-13.3333-5.9814-13.3333-13.3334s5.9813-13.3333 13.3333-13.3333h16c7.352 0 13.3333 5.9813 13.3333 13.3333s-5.9813 13.3334-13.3333 13.3334zm-.0001-32.0002h-16c-10.2906 0-18.66663 8.376-18.66663 18.6667 0 10.2906 8.37603 18.6666 18.66663 18.6666h16c10.2907 0 18.6667-8.376 18.6667-18.6666 0-10.2907-8.376-18.6667-18.6667-18.6667z" fill="#6b7280" fill-rule="evenodd"/></svg>