<svg width="64" height="64" viewBox="0 0 64 64" fill="none" xmlns="http://www.w3.org/2000/svg">
<path d="M29 16.0002C29 14.5282 29.448 13.3335 30 13.3335H41C41.552 13.3335 42 14.5282 42 16.0002C42 17.4722 41.552 18.6668 41 18.6668H30C29.448 18.6668 29 17.4722 29 16.0002ZM41 29.3335H23C22.448 29.3335 22 30.5282 22 32.0002C22 33.4722 22.448 34.6668 23 34.6668H41C41.552 34.6668 42 33.4722 42 32.0002C42 30.5282 41.552 29.3335 41 29.3335ZM34 45.3335H23C22.448 45.3335 22 46.5282 22 48.0002C22 49.4722 22.448 50.6668 23 50.6668H34C34.552 50.6668 35 49.4722 35 48.0002C35 46.5282 34.552 45.3335 34 45.3335Z" fill="#141416"/>
</svg>
