<svg viewBox="0 0 64 64" fill="none" xmlns="http://www.w3.org/2000/svg">
<path fill-rule="evenodd" clip-rule="evenodd" d="M8 14.143C8 10.4843 12.424 8.64964 15.0107 11.2363L31.992 28.2203L28.2213 31.991L13.3333 17.103V46.895L28.2293 31.999L28.2213 31.991L31.992 28.2203L32 28.2283L48.9893 11.239C51.576 8.65231 56 10.4843 56 14.143V49.855C56 53.5137 51.576 55.3483 48.9893 52.7617L32 36.0001L35.7707 31.999L50.6667 46.8977V17.103L35.7707 31.999L35.7893 32.015L32.016 35.7883L32 35.7697L15.0107 52.759C12.424 55.3457 8 53.5137 8 49.855V14.143Z" fill="#141414"/>
</svg>