<svg fill="none" height="64" viewBox="0 0 64 64" width="64" xmlns="http://www.w3.org/2000/svg"><path clip-rule="evenodd" d="m26.6667 42.6668c0 1.4667-1.2 2.6667-2.6667 2.6667-1.4666 0-2.6666-1.2-2.6666-2.6667v-10.6666c0-1.4667 1.2-2.6667 2.6666-2.6667 1.4667 0 2.6667 1.2 2.6667 2.6667zm16 0c0 1.4667-1.2 2.6667-2.6667 2.6667-1.4666 0-2.6666-1.2-2.6666-2.6667v-10.6666c0-1.4667 1.2-2.6667 2.6666-2.6667 1.4667 0 2.6667 1.2 2.6667 2.6667zm5.3333 8c0 1.4694-1.1947 2.6667-2.6667 2.6667h-26.6666c-1.472 0-2.6667-1.1973-2.6667-2.6667v-29.3333h32zm-21.3333-39.1251c0-.4134.5707-.8747 1.3334-.8747h8c.7626 0 1.3333.4613 1.3333.8747v4.4586h-10.6667zm29.3333 4.4585h-2.6666-10.6667v-4.4587c0-3.424-2.9893-6.208-6.6667-6.208h-8c-3.6773 0-6.6666 2.784-6.6666 6.208v4.4587h-10.6667-2.66666c-1.46667 0-2.66667 1.2-2.66667 2.6666 0 1.4667 1.2 2.6667 2.66667 2.6667h2.66666v29.3333c0 4.4107 3.5893 8 8 8h26.6667c4.4106 0 8-3.5893 8-8v-29.3333h2.6666c1.4667 0 2.6667-1.2 2.6667-2.6667 0-1.4666-1.2-2.6666-2.6667-2.6666z" fill="#6b7280" fill-rule="evenodd"/></svg>