<svg fill="none" height="64" viewBox="0 0 64 64" width="64" xmlns="http://www.w3.org/2000/svg"><path d="m35.875 5.33301c1.775-.00022 3.4995.59025 4.9023 1.67773 1.403 1.0877 2.4047 2.61176 2.8467 4.33106l1.1231 4.3701h8.5859c.7072 0 1.3857.2812 1.8858.7813.5.5001.7812 1.1785.7812 1.8857-.0001.7072-.2812 1.3857-.7812 1.8857-.5001.5-1.1787.7803-1.8858.7803h-.2715l-3.2373 30.4668c-.2087 1.9646-1.1374 3.7826-2.6064 5.1035-1.4692 1.321-3.3759 2.0523-5.3516 2.0518h-19.7324c-1.9762.0012-3.8838-.7297-5.3535-2.0508-1.4696-1.321-2.3986-3.1395-2.6074-5.1045l-3.2393-30.4668h-.2666c-.70712 0-1.38568-.2803-1.88575-.7803-.50004-.5-.78119-1.1785-.78125-1.8857 0-.7072.28115-1.3856.78125-1.8857.50009-.5001 1.17852-.7813 1.88575-.7813h8.6103l1.1231-4.3701c.442-1.71928 1.4428-3.24336 2.8457-4.33106 1.4029-1.08769 3.1281-1.67802 4.9033-1.67773zm-16.3975 45.61619c.0699.6554.3797 1.2619.8702 1.7022.4904.4402 1.1271.6827 1.7861.6816h19.7324c.6585.0004 1.2943-.2425 1.7842-.6826.4899-.4402.7993-1.0463.8691-1.7012l3.1817-29.9043h-31.4024zm7.1895-24.2822c.7071.0001 1.3857.2802 1.8857.7803.5001.5.7802 1.1786.7803 1.8857v13.334c-.0001.7071-.2802 1.3857-.7803 1.8857-.5.5001-1.1786.7802-1.8857.7803-.7071 0-1.3857-.2804-1.8858-.7803-.5-.5-.7811-1.1786-.7812-1.8857v-13.334c.0001-.7071.2812-1.3857.7812-1.8857.5001-.4999 1.1787-.7803 1.8858-.7803zm10.666 0c.7071 0 1.3857.2804 1.8858.7803.5.5.7811 1.1786.7812 1.8857v13.334c-.0001.7071-.2812 1.3857-.7812 1.8857-.5001.4999-1.1787.7803-1.8858.7803-.7071-.0001-1.3857-.2802-1.8857-.7803-.5001-.5-.7802-1.1786-.7803-1.8857v-13.334c.0001-.7071.2802-1.3857.7803-1.8857.5-.5001 1.1786-.7802 1.8857-.7803zm-9.1836-16c-.5923-.0009-1.1683.195-1.6367.5576-.4683.3626-.8027.8708-.9502 1.4443l-.7783 3.0401h14.456l-.7812-3.0401c-.1474-.573-.4816-1.0808-.9492-1.4433-.4678-.3625-1.043-.5588-1.6348-.5586z" fill="#000"/></svg>