<svg width="24" height="24" viewBox="0 0 24 24" fill="none" xmlns="http://www.w3.org/2000/svg">
<g id="Icon/Outline/trending-up">
<path id="Mask" fill-rule="evenodd" clip-rule="evenodd" d="M20.9922 6.96288C20.9902 6.89088 20.9692 6.82288 20.9502 6.75388C20.9352 6.69588 20.9282 6.63688 20.9032 6.58388C20.8802 6.53188 20.8412 6.48988 20.8072 6.44188C20.7652 6.38088 20.7272 6.31988 20.6732 6.26988C20.6642 6.26088 20.6602 6.24888 20.6502 6.24088C20.6142 6.20988 20.5702 6.19888 20.5312 6.17388C20.4712 6.13488 20.4122 6.09488 20.3442 6.06888C20.2772 6.04488 20.2112 6.03888 20.1422 6.02888C20.0942 6.02188 20.0512 5.99988 20.0002 5.99988H15.0002C14.4472 5.99988 14.0002 6.44788 14.0002 6.99988C14.0002 7.55188 14.4472 7.99988 15.0002 7.99988H17.8262L13.7902 12.7079L9.51419 10.1429C9.09119 9.88688 8.54719 9.98088 8.23119 10.3599L3.23119 16.3599C2.87819 16.7839 2.93519 17.4149 3.35919 17.7679C3.54719 17.9239 3.77319 17.9999 3.99919 17.9999C4.28619 17.9999 4.57019 17.8779 4.76819 17.6399L9.22019 12.2979L13.4852 14.8579C13.9042 15.1089 14.4422 15.0209 14.7592 14.6509L19.0002 9.70288V11.9999C19.0002 12.5519 19.4472 12.9999 20.0002 12.9999C20.5532 12.9999 21.0002 12.5519 21.0002 11.9999V6.99988C21.0002 6.98688 20.9932 6.97588 20.9922 6.96288Z" fill="#231F20"/>
<mask id="mask0" mask-type="alpha" maskUnits="userSpaceOnUse" x="2" y="5" width="20" height="13">
<path id="Mask_2" fill-rule="evenodd" clip-rule="evenodd" d="M20.9922 6.96288C20.9902 6.89088 20.9692 6.82288 20.9502 6.75388C20.9352 6.69588 20.9282 6.63688 20.9032 6.58388C20.8802 6.53188 20.8412 6.48988 20.8072 6.44188C20.7652 6.38088 20.7272 6.31988 20.6732 6.26988C20.6642 6.26088 20.6602 6.24888 20.6502 6.24088C20.6142 6.20988 20.5702 6.19888 20.5312 6.17388C20.4712 6.13488 20.4122 6.09488 20.3442 6.06888C20.2772 6.04488 20.2112 6.03888 20.1422 6.02888C20.0942 6.02188 20.0512 5.99988 20.0002 5.99988H15.0002C14.4472 5.99988 14.0002 6.44788 14.0002 6.99988C14.0002 7.55188 14.4472 7.99988 15.0002 7.99988H17.8262L13.7902 12.7079L9.51419 10.1429C9.09119 9.88688 8.54719 9.98088 8.23119 10.3599L3.23119 16.3599C2.87819 16.7839 2.93519 17.4149 3.35919 17.7679C3.54719 17.9239 3.77319 17.9999 3.99919 17.9999C4.28619 17.9999 4.57019 17.8779 4.76819 17.6399L9.22019 12.2979L13.4852 14.8579C13.9042 15.1089 14.4422 15.0209 14.7592 14.6509L19.0002 9.70288V11.9999C19.0002 12.5519 19.4472 12.9999 20.0002 12.9999C20.5532 12.9999 21.0002 12.5519 21.0002 11.9999V6.99988C21.0002 6.98688 20.9932 6.97588 20.9922 6.96288Z" fill="white"/>
</mask>
<g mask="url(#mask0)">
<g id="&#240;&#159;&#142;&#168; Color">
<rect id="Base" width="24" height="24" fill="#0D1C2E"/>
</g>
</g>
</g>
</svg>
