<svg fill="none" height="64" viewBox="0 0 64 64" width="64" xmlns="http://www.w3.org/2000/svg"><path clip-rule="evenodd" d="m55.9792 18.5678c-.0053-.192-.0613-.3734-.112-.5574-.04-.1546-.0587-.312-.1253-.4533-.0614-.1387-.1654-.2507-.256-.3787-.112-.1626-.2134-.3253-.3574-.4586-.024-.024-.0346-.056-.0613-.0774-.096-.0826-.2133-.112-.3173-.1786-.16-.104-.3174-.2107-.4987-.28-.1787-.064-.3547-.08-.5387-.1067-.128-.0187-.2426-.0773-.3786-.0773h-13.3334c-1.4746 0-2.6666 1.1946-2.6666 2.6666s1.192 2.6667 2.6666 2.6667h7.536l-10.7626 12.5547-11.4027-6.84c-1.128-.6827-2.5787-.432-3.4213.5786l-13.33337 16c-.94134 1.1307-.78934 2.8134.34133 3.7547.50133.416 1.10404.6187 1.70664.6187.7654 0 1.5227-.3254 2.0507-.96l11.872-14.2454 11.3733 6.8267c1.1174.6693 2.552.4347 3.3974-.552l11.3093-13.1947v6.1254c0 1.472 1.192 2.6666 2.6667 2.6666 1.4746 0 2.6666-1.1946 2.6666-2.6666v-13.3334c0-.0346-.0186-.064-.0213-.0986z" fill="#6b7280" fill-rule="evenodd"/></svg>