<svg fill="none" height="24" viewBox="0 0 24 24" width="24" xmlns="http://www.w3.org/2000/svg"><path clip-rule="evenodd" d="m21 12c0-.552-.447-1-1-1s-1 .448-1 1v2.297l-4.241-4.948c-.316-.37-.854-.458-1.274-.206l-4.26501 2.559-4.451-5.342c-.354-.423-.983-.483-1.41-.128-.423.353-.481.984-.128 1.408l5 6c.317.379.862.472 1.284.217l4.27501-2.565 4.036 4.708h-2.826c-.553 0-1 .448-1 1s.447 1 1 1h5c.124 0 .247-.027.364-.074.049-.019.087-.051.132-.076.052-.031.108-.05.154-.091.01-.008.014-.02.023-.029.055-.05.093-.111.135-.172.033-.048.072-.09.095-.142.025-.053.033-.112.047-.169.019-.07.04-.138.042-.21.001-.013.008-.024.008-.037z" fill="#6b7280" fill-rule="evenodd"/></svg>