<svg width="24" height="24" viewBox="0 0 24 24" fill="none" xmlns="http://www.w3.org/2000/svg">
<g id="Icon/Outline/triangle-down">
<path id="Mask" fill-rule="evenodd" clip-rule="evenodd" d="M8.09178 10L12.0018 14.822L15.9868 10H8.09178ZM11.9998 17C11.4938 17 11.0098 16.767 10.6738 16.358L6.46078 11.26C5.95678 10.649 5.85678 9.782 6.20178 9.049C6.50678 8.402 7.11378 8 7.78678 8H16.2128C16.8858 8 17.4928 8.402 17.7978 9.049C18.1438 9.782 18.0428 10.649 17.5398 11.259L13.3258 16.358C12.9898 16.767 12.5058 17 11.9998 17Z" fill="#231F20"/>
<mask id="mask0" mask-type="alpha" maskUnits="userSpaceOnUse" x="5" y="8" width="14" height="9">
<path id="Mask_2" fill-rule="evenodd" clip-rule="evenodd" d="M8.09178 10L12.0018 14.822L15.9868 10H8.09178ZM11.9998 17C11.4938 17 11.0098 16.767 10.6738 16.358L6.46078 11.26C5.95678 10.649 5.85678 9.782 6.20178 9.049C6.50678 8.402 7.11378 8 7.78678 8H16.2128C16.8858 8 17.4928 8.402 17.7978 9.049C18.1438 9.782 18.0428 10.649 17.5398 11.259L13.3258 16.358C12.9898 16.767 12.5058 17 11.9998 17Z" fill="white"/>
</mask>
<g mask="url(#mask0)">
<g id="&#240;&#159;&#142;&#168; Color">
<rect id="Base" width="24" height="24" fill="#0D1C2E"/>
</g>
</g>
</g>
</svg>
