<svg width="24" height="24" viewBox="0 0 24 24" fill="none" xmlns="http://www.w3.org/2000/svg">
<g id="Icon/Outline/triangle-left">
<path id="Mask" fill-rule="evenodd" clip-rule="evenodd" d="M8.67821 12.002L13.5002 15.985V8.09201L8.67821 12.002ZM13.5442 18.001C13.0732 18.001 12.6092 17.844 12.2412 17.54L7.14121 13.326C6.73421 12.99 6.50021 12.506 6.50021 12C6.50021 11.494 6.73421 11.01 7.14121 10.674L12.2412 6.46101C12.8492 5.95701 13.7162 5.85601 14.4502 6.20101C15.0972 6.50701 15.5002 7.11401 15.5002 7.78701V16.213C15.5002 16.886 15.0972 17.493 14.4502 17.799C14.1612 17.935 13.8512 18.001 13.5442 18.001Z" fill="#231F20"/>
<mask id="mask0" mask-type="alpha" maskUnits="userSpaceOnUse" x="6" y="5" width="10" height="14">
<path id="Mask_2" fill-rule="evenodd" clip-rule="evenodd" d="M8.67821 12.002L13.5002 15.985V8.09201L8.67821 12.002ZM13.5442 18.001C13.0732 18.001 12.6092 17.844 12.2412 17.54L7.14121 13.326C6.73421 12.99 6.50021 12.506 6.50021 12C6.50021 11.494 6.73421 11.01 7.14121 10.674L12.2412 6.46101C12.8492 5.95701 13.7162 5.85601 14.4502 6.20101C15.0972 6.50701 15.5002 7.11401 15.5002 7.78701V16.213C15.5002 16.886 15.0972 17.493 14.4502 17.799C14.1612 17.935 13.8512 18.001 13.5442 18.001Z" fill="white"/>
</mask>
<g mask="url(#mask0)">
<g id="&#240;&#159;&#142;&#168; Color">
<rect id="Base" width="24" height="24" fill="#0D1C2E"/>
</g>
</g>
</g>
</svg>
