<svg fill="none" height="64" viewBox="0 0 64 64" width="64" xmlns="http://www.w3.org/2000/svg"><path clip-rule="evenodd" d="m50.6667 50.6663c0 1.472-1.1947 2.6666-2.6667 2.6666h-32c-1.472 0-2.6666-1.1946-2.6666-2.6666v-26.6667c0-1.472 1.1946-2.6667 2.6666-2.6667h32c1.472 0 2.6667 1.1947 2.6667 2.6667zm-2.6667-34.6667h-9.5627l6.1147-6.11466c1.0427-1.04266 1.0427-2.728 0-3.77066-1.0427-1.04267-2.728-1.04267-3.7707 0l-8.7813 8.78132-8.7813-8.78132c-1.0427-1.04267-2.728-1.04267-3.7707 0-1.0427 1.04266-1.0427 2.728 0 3.77066l6.1147 6.11466h-9.5627c-4.4107 0-8 3.5893-8 8v26.6667c0 4.4106 3.5893 8 8 8h32c4.4107 0 8-3.5894 8-8v-26.6667c0-4.4107-3.5893-8-8-8z" fill="#6b7280" fill-rule="evenodd"/></svg>