<svg fill="none" height="24" viewBox="0 0 24 24" width="24" xmlns="http://www.w3.org/2000/svg"><path clip-rule="evenodd" d="m19 18.9998c0 .552-.448 1-1 1h-11.99998c-.552 0-1-.448-1-1v-10.00004c0-.552.448-1 1-1h11.99998c.552 0 1 .448 1 1zm-1-13.00004h-3.586l2.293-2.293c.391-.391.391-1.023 0-1.414s-1.023-.391-1.414 0l-3.293 3.293-3.293-3.293c-.391-.391-1.023-.391-1.414 0s-.391 1.023 0 1.414l2.293 2.293h-3.586c-1.654 0-3 1.346-3 3v10.00004c0 1.654 1.346 3 3 3h12c1.654 0 3-1.346 3-3v-10.00004c0-1.654-1.346-3-3-3z" fill="#6b7280" fill-rule="evenodd"/></svg>