<svg fill="none" height="24" viewBox="0 0 24 24" width="24" xmlns="http://www.w3.org/2000/svg"><path clip-rule="evenodd" d="m19.0156 6.65455v.002zm-10.50299 11.34305c.024 0 .05.001.074.003 5.69499-.037 9.09399-4.388 9.09399-8.59402 0-.382.196-.629.37-.848.158-.2.403-.508.621-.952-.793-.008-1.501-.36-1.913-.842-.431-.461-1.05-.743-1.718-.763-.644-.026-1.301.222-1.789.685-.65.617-.928 1.548-.726 2.428l.261 1.13902-1.166.082c-3.01599.226-5.10599-1.06502-6.54099-2.40102.006 2.02.677 4.71502 3.727 6.45302l.958.546-.637.901c-.663.939-1.661 1.538-2.677 1.921.671.16 1.361.242 2.049.242h.012zm.00002 2.003c-.026 0-.054-.001-.08-.003-1.603-.011-3.211-.384-4.655-1.083-.543-.264-.85-.842-.763-1.442.088-.607.554-1.083 1.158-1.181 1.045-.172 1.912-.478 2.54-.887-3.877-2.899-3.775-7.23905-3.524-9.07705.074-.538.457-.987.975-1.144.526-.16 1.071 0 1.431.409 1.536 1.741 3.071 2.616 4.87097 2.749.052-1.165.548-2.288 1.409-3.106.877-.833 2.024-1.269 3.228-1.233 1.205.037 2.323.545 3.147 1.43.084.096.398.27.777.1.497-.223 1.062-.149 1.474.195.411.341.586.878.458 1.401-.323 1.331-.961 2.189-1.283 2.6-.168 5.10505-4.316 10.27205-11.16297 10.27205z" fill="#6b7280" fill-rule="evenodd"/></svg>