<svg width="24" height="24" viewBox="0 0 24 24" fill="none" xmlns="http://www.w3.org/2000/svg">
<g id="Icon/Outline/umbrella">
<path id="Mask" fill-rule="evenodd" clip-rule="evenodd" d="M4.0625 11C4.5555 7.06 7.9275 4 11.9995 4C16.0725 4 19.4445 7.06 19.9375 11H4.0625ZM11.9995 2C6.4865 2 1.9995 6.486 1.9995 12C1.9995 12.553 2.4475 13 3.0005 13H10.9995V19C10.9995 20.654 12.3455 22 14.0005 22C15.6545 22 17.0005 20.654 17.0005 19C17.0005 18.447 16.5525 18 16.0005 18C15.4475 18 15.0005 18.447 15.0005 19C15.0005 19.552 14.5515 20 14.0005 20C13.4485 20 13.0005 19.552 13.0005 19V13H20.9995C21.5525 13 21.9995 12.553 21.9995 12C21.9995 6.486 17.5135 2 11.9995 2Z" fill="#231F20"/>
<mask id="mask0" mask-type="alpha" maskUnits="userSpaceOnUse" x="1" y="2" width="21" height="20">
<path id="Mask_2" fill-rule="evenodd" clip-rule="evenodd" d="M4.0625 11C4.5555 7.06 7.9275 4 11.9995 4C16.0725 4 19.4445 7.06 19.9375 11H4.0625ZM11.9995 2C6.4865 2 1.9995 6.486 1.9995 12C1.9995 12.553 2.4475 13 3.0005 13H10.9995V19C10.9995 20.654 12.3455 22 14.0005 22C15.6545 22 17.0005 20.654 17.0005 19C17.0005 18.447 16.5525 18 16.0005 18C15.4475 18 15.0005 18.447 15.0005 19C15.0005 19.552 14.5515 20 14.0005 20C13.4485 20 13.0005 19.552 13.0005 19V13H20.9995C21.5525 13 21.9995 12.553 21.9995 12C21.9995 6.486 17.5135 2 11.9995 2Z" fill="white"/>
</mask>
<g mask="url(#mask0)">
<g id="&#240;&#159;&#142;&#168; Color">
<rect id="Base" width="24" height="24" fill="#0D1C2E"/>
</g>
</g>
</g>
</svg>
