<svg fill="none" height="24" viewBox="0 0 24 24" width="24" xmlns="http://www.w3.org/2000/svg"><path clip-rule="evenodd" d="m10.4541 11.5001c3.563 0 6.777 1.634 8.81 4.259-.935-3.869-4.53-6.75902-8.81-6.75902-.55298 0-.99998-.447-.99998-1v-1.923l-4.824 4.17402 4.824 4.212v-1.963c0-.553.447-1 .99998-1zm9.767 9.4999c-.461 0-.863-.315-.972-.763-.89-3.649-4.021-6.285-7.795-6.684v1.121c0 .706-.419 1.335-1.093 1.64-.73098.333-1.58398.213-2.17698-.304l-5.066-4.424c-.393-.344-.618-.831-.618-1.336 0-.50502.225-.99202.618-1.33602l5.066-4.424c.593-.517 1.446-.637 2.17698-.304.674.305 1.093.934 1.093 1.64v1.218c5.624.493 10.046 5.10602 10.046 10.70602 0 .81-.104 1.646-.308 2.486-.108.449-.509.764-.971.764z" fill="#6b7280" fill-rule="evenodd"/></svg>