<svg width="24" height="24" viewBox="0 0 24 24" fill="none" xmlns="http://www.w3.org/2000/svg">
<g id="Icon/Outline/undo">
<path id="Mask" fill-rule="evenodd" clip-rule="evenodd" d="M10.4541 11.5C14.0171 11.5 17.2311 13.134 19.2641 15.759C18.3291 11.89 14.7341 9 10.4541 9C9.9011 9 9.4541 8.553 9.4541 8V6.077L4.6301 10.251L9.4541 14.463V12.5C9.4541 11.947 9.9011 11.5 10.4541 11.5ZM20.2211 21C19.7601 21 19.3581 20.685 19.2491 20.237C18.3591 16.588 15.2281 13.952 11.4541 13.553V14.674C11.4541 15.38 11.0351 16.009 10.3611 16.314C9.6301 16.647 8.7771 16.527 8.1841 16.01L3.1181 11.586C2.7251 11.242 2.5001 10.755 2.5001 10.25C2.5001 9.745 2.7251 9.258 3.1181 8.914L8.1841 4.49C8.7771 3.973 9.6301 3.853 10.3611 4.186C11.0351 4.491 11.4541 5.12 11.4541 5.826V7.044C17.0781 7.537 21.5001 12.15 21.5001 17.75C21.5001 18.56 21.3961 19.396 21.1921 20.236C21.0841 20.685 20.6831 21 20.2211 21Z" fill="#231F20"/>
<mask id="mask0" mask-type="alpha" maskUnits="userSpaceOnUse" x="2" y="3" width="20" height="18">
<path id="Mask_2" fill-rule="evenodd" clip-rule="evenodd" d="M10.4541 11.5C14.0171 11.5 17.2311 13.134 19.2641 15.759C18.3291 11.89 14.7341 9 10.4541 9C9.9011 9 9.4541 8.553 9.4541 8V6.077L4.6301 10.251L9.4541 14.463V12.5C9.4541 11.947 9.9011 11.5 10.4541 11.5ZM20.2211 21C19.7601 21 19.3581 20.685 19.2491 20.237C18.3591 16.588 15.2281 13.952 11.4541 13.553V14.674C11.4541 15.38 11.0351 16.009 10.3611 16.314C9.6301 16.647 8.7771 16.527 8.1841 16.01L3.1181 11.586C2.7251 11.242 2.5001 10.755 2.5001 10.25C2.5001 9.745 2.7251 9.258 3.1181 8.914L8.1841 4.49C8.7771 3.973 9.6301 3.853 10.3611 4.186C11.0351 4.491 11.4541 5.12 11.4541 5.826V7.044C17.0781 7.537 21.5001 12.15 21.5001 17.75C21.5001 18.56 21.3961 19.396 21.1921 20.236C21.0841 20.685 20.6831 21 20.2211 21Z" fill="white"/>
</mask>
<g mask="url(#mask0)">
<g id="&#240;&#159;&#142;&#168; Color">
<rect id="Base" width="24" height="24" fill="#0D1C2E"/>
</g>
</g>
</g>
</svg>
