<svg viewBox="0 0 64 64" fill="none" xmlns="http://www.w3.org/2000/svg">
<path fill-rule="evenodd" clip-rule="evenodd" d="M53.333 40C54.8058 40 56 41.1942 56 42.667V45.333C56 51.224 51.2239 56 45.333 56H18.667C12.776 56 8 51.224 8 45.333V42.667C8 41.1942 9.19423 40 10.667 40C12.1396 40.0002 13.333 41.1944 13.333 42.667V45.333C13.333 48.2785 15.7215 50.667 18.667 50.667H45.333C48.2786 50.667 50.667 48.2785 50.667 45.333V42.667C50.667 41.1944 51.8604 40.0002 53.333 40Z M32 9C32.5224 9.00009 33.0455 9.16275 33.4951 9.48535L43.8945 16.9893C45.0693 17.8373 45.3529 19.5016 44.5264 20.7041C43.6997 21.9093 42.0793 22.1993 40.9043 21.3516L34.5928 16.7979C34.5976 16.8646 34.5996 16.932 34.5996 17V38.333C34.5996 39.8049 33.4375 40.9998 32 41C30.5624 40.9999 29.4004 39.8049 29.4004 38.333V17L23.1611 21.7998C22.0121 22.6877 20.3821 22.4449 19.5215 21.2666C18.6583 20.0879 18.8919 18.4158 20.041 17.5332L30.4404 9.5332C30.9004 9.17877 31.4516 9.00005 32 9Z" fill="#141414"/>
</svg>