<svg fill="none" height="24" viewBox="0 0 24 24" width="24" xmlns="http://www.w3.org/2000/svg"><path clip-rule="evenodd" d="m5 4h14c.55 0 1 .45 1 1v2c0 .55-.45 1-1 1s-1-.45-1-1v-1h-12v1c0 .55-.45 1-1 1s-1-.45-1-1v-2c0-.51563.39551-.94336.89813-.99481.03351-.00343.06749-.00519.10187-.00519zm3.00103 10.0001c-.305 0-.604-.138-.801-.4-.332-.442-.242-1.069.2-1.4l3.99997-3.00003c.346-.26001.822-.26701 1.175-.018l4 2.81403c.452.318.561.942.243 1.393s-.941.561-1.393.243l-2.4278-1.708c.0018.0251.0028.0503.0028.0758v8c0 .552-.447 1-1 1s-1-.448-1-1v-7.9996l-2.39997 1.7998c-.18.135-.39.2-.599.2z" fill="#6b7280" fill-rule="evenodd"/></svg>