<svg width="64" height="64" viewBox="0 0 64 64" fill="none" xmlns="http://www.w3.org/2000/svg">
<path d="M29.04 8C25.8045 8 23.12 10.6845 23.12 13.92V49.6396C23.12 52.8751 25.8045 55.5596 29.04 55.5596H52.72C55.9555 55.5596 58.64 52.8751 58.64 49.6396V13.92C58.64 10.6845 55.9555 8 52.72 8H29.04ZM20.16 10.96C16.9245 10.96 14.24 13.6445 14.24 16.88V46.6796C14.24 49.9151 16.9245 52.5996 20.16 52.5996V46.6796V16.88V10.96ZM29.04 13.92H52.72V49.6396H29.04V13.92ZM11.28 16.88C8.04452 16.88 5.35999 19.5645 5.35999 22.8L5.35999 40.7596C5.35999 43.9951 8.04452 46.6796 11.28 46.6796V40.7596V22.8V16.88Z" fill="#141414"/>
</svg>
