<svg fill="none" height="64" viewBox="0 0 64 64" width="64" xmlns="http://www.w3.org/2000/svg"><path clip-rule="evenodd" d="m45.3333 41.5624-5.3333-5.3334-17.5627-17.5626-5.3333-5.3334-4.552-4.55198c-1.0427-1.04266-2.72804-1.04266-3.77071 0-1.04266 1.04267-1.04266 2.72798 0 3.77068l1.42131 1.4213 4.6934 4.6934 24.92 24.92 3.88 3.88 7.752 7.752c.52.52 1.2026.7813 1.8853.7813s1.3653-.2613 1.8853-.7813c1.0427-1.0427 1.0427-2.728 0-3.7707zm8-2.6304-7.4907-6.9334 7.4907-6.9306zm2.6984-19.8769c-1.6693-.728-3.6053-.4107-4.936.816l-5.7626 5.3333v-3.872c0-4.4107-3.5894-8-8-8h-16.4587l5.3333 5.3333h11.1254c1.472 0 2.6666 1.1974 2.6666 2.6667v11.1253l12.5814 12.5814c.512.192 1.0533.2933 1.6026.2933.624 0 1.2507-.1253 1.848-.3867 1.624-.7093 2.6347-2.2266 2.6347-3.9573v-17.976c0-1.7307-1.0107-3.248-2.6347-3.9573zm-42.6984 26.2778h23.9999c.0834 0 .1587-.021.2347-.0422.0479-.0134.0961-.0268.1467-.0351l4.0586 4.0587c-1.272.8506-2.7973 1.352-4.44 1.352h-23.9999c-4.41072 0-8.00005-3.5894-8.00005-8v-21.3334c0-2.3226 1.01067-4.3973 2.59733-5.8613l3.79202 3.792c-.6267.488-1.056 1.216-1.056 2.0693v21.3334c0 1.472 1.1947 2.6666 2.6667 2.6666z" fill="#6b7280" fill-rule="evenodd"/></svg>