<svg viewBox="0 0 64 64" fill="none" xmlns="http://www.w3.org/2000/svg">
<path fill-rule="evenodd" clip-rule="evenodd" d="M44.874 34C45.7324 34.0002 46.4767 34.5946 46.667 35.4316L47.6846 39.9062C48.1552 41.9759 49.7712 43.5918 51.8408 44.0625L56.3154 45.0801C57.1526 45.2704 57.7471 46.0154 57.7471 46.874C57.7469 47.7324 57.1524 48.4767 56.3154 48.667L51.8408 49.6846C49.7712 50.1552 48.1552 51.7712 47.6846 53.8408L46.667 58.3154C46.4767 59.1524 45.7324 59.7469 44.874 59.7471C44.0154 59.7471 43.2704 59.1526 43.0801 58.3154L42.0625 53.8408C41.5918 51.7712 39.9759 50.1552 37.9062 49.6846L33.4316 48.667C32.5946 48.4767 32.0002 47.7324 32 46.874C32 46.0154 32.5945 45.2704 33.4316 45.0801L37.9062 44.0625C39.9759 43.5918 41.5919 41.9759 42.0625 39.9062L43.0801 35.4316C43.2704 34.5944 44.0154 34 44.874 34ZM44.874 42.8633C43.9938 44.5881 42.5881 45.9938 40.8633 46.874C42.5879 47.7543 43.9938 49.1592 44.874 50.8838C45.7542 49.1593 47.1593 47.7542 48.8838 46.874C47.1592 45.9938 45.7543 44.5879 44.874 42.8633Z M36.4795 8C39.3861 7.99999 41.7309 7.99969 43.6299 8.15332L44.3564 8.22168C46.0246 8.40453 47.5192 8.75345 48.9141 9.46387C51.4479 10.755 53.5087 12.8146 54.7998 15.3486C55.6117 16.9428 55.9496 18.6677 56.1094 20.6328C56.2089 22.0433 56.2607 23.461 56.2607 24.875C56.2689 24.9895 56.2674 25.1042 56.2607 25.2188C56.2639 26.0351 56.2656 26.9094 56.2656 27.8408V33.333C56.2656 34.8058 55.0714 36 53.5986 36C52.126 35.9998 50.9326 34.8057 50.9326 33.333V27.7344H13.0674V36.5889C13.0674 39.6569 13.068 41.798 13.2061 43.4639C13.3391 45.1005 13.5889 46.0437 13.9531 46.7607C14.733 48.2913 15.9772 49.5357 17.5078 50.3154C18.2249 50.6796 19.168 50.9295 20.8047 51.0625C22.4712 51.1982 24.611 51.2002 27.6797 51.2002H31.335C32.8069 51.2004 34 52.3943 34 53.8662C33.9998 55.338 32.8067 56.5311 31.335 56.5312H27.5322C24.6205 56.5313 22.2717 56.5312 20.3701 56.375C18.4049 56.2153 16.6802 55.8774 15.0859 55.0654C12.5524 53.7749 10.4917 51.7157 9.2002 49.1826C8.38834 47.5884 8.05039 45.8636 7.89063 43.8984C7.73437 41.9968 7.73437 39.6491 7.73438 36.7373V27.8438C7.73438 26.9123 7.73606 26.038 7.73926 25.2217C7.73259 25.1072 7.73408 24.9923 7.74219 24.8779C7.74228 23.4639 7.79111 22.0482 7.89063 20.6377C8.05039 18.6727 8.38841 16.9457 9.2002 15.3516C10.4913 12.8174 12.5519 10.757 15.0859 9.46582C16.6802 8.65388 18.4049 8.316 20.3701 8.15625C22.1879 8.00641 24.411 8 27.1436 8H36.4795ZM23.4893 13.3564C22.4594 13.3748 21.5806 13.4081 20.8047 13.4717C19.1679 13.6047 18.2249 13.8545 17.5078 14.2188C16.1682 14.9013 15.0472 15.9391 14.2656 17.2139L13.9531 17.7734C13.5889 18.4906 13.3391 19.4333 13.2061 21.0703C13.1728 21.4803 13.1492 21.9232 13.1299 22.3984H20.4814L23.4893 13.3564ZM26.0986 22.3984H34.8906L37.9639 13.333H29.1221L26.0986 22.3984ZM40.5234 22.3984H50.8701C50.8513 21.9226 50.8301 21.4798 50.7969 21.0703C50.6805 19.6389 50.476 18.7378 50.1826 18.0547L50.0498 17.7734C49.27 16.2428 48.0256 14.9986 46.4951 14.2188C45.8301 13.8797 44.9674 13.6435 43.5342 13.5049L40.5234 22.3984Z" fill="#141414"/>
</svg>