<svg fill="none" height="24" viewBox="0 0 24 24" width="24" xmlns="http://www.w3.org/2000/svg"><path clip-rule="evenodd" d="m17 15.586-2-2-6.58598-6.58599-2-2-1.707-1.707c-.391-.391-1.023-.391-1.414 0s-.391 1.023 0 1.414l.533.533 1.76 1.76 9.34498 9.34499 1.455 1.455 2.907 2.907c.195.195.451.293.707.293s.512-.098.707-.293c.391-.391.391-1.023 0-1.414zm3-.9864-2.809-2.6 2.809-2.59899zm1.0119-7.45383c-.626-.273-1.352-.154-1.851.306l-2.161 2v-1.452c0-1.654-1.346-3-3-3h-6.17196l2 2h4.17196c.552 0 1 .449 1 1v4.17203l4.718 4.718c.192.072.395.11.601.11.234 0 .469-.047.693-.145.609-.266.988-.835.988-1.484v-6.74103c0-.649-.379-1.218-.988-1.484zm-16.0119 9.85423h9c.0313 0 .0595-.0079.088-.0159.018-.005.036-.01.055-.0131l1.522 1.522c-.477.319-1.049.507-1.665.507h-9c-1.654 0-3-1.346-3-3v-8.00002c0-.871.379-1.649.974-2.198l1.422 1.422c-.235.183-.396.456-.396.776v8.00002c0 .552.448 1 1 1z" fill="#6b7280" fill-rule="evenodd"/></svg>