<svg fill="none" height="64" viewBox="0 0 64 64" width="64" xmlns="http://www.w3.org/2000/svg"><path clip-rule="evenodd" d="m53.3334 38.9316-7.4906-6.9333 7.4906-6.9307zm-13.3333 3.7339c0 1.472-1.1947 2.6667-2.6667 2.6667h-24c-1.472 0-2.6666-1.1947-2.6666-2.6667v-21.3333c0-1.4693 1.1946-2.6667 2.6666-2.6667h24c1.472 0 2.6667 1.1974 2.6667 2.6667zm16.0319-23.6108c-1.6693-.728-3.6053-.4107-4.936.816l-5.7626 5.3333v-3.872c0-4.4106-3.5894-8-8-8h-24c-4.41069 0-8.00003 3.5894-8.00003 8v21.3334c0 4.4133 3.58934 8 8.00003 8h24c4.4106 0 8-3.5867 8-8v-3.8694l5.7626 5.3307c.8534.792 1.96 1.2053 3.088 1.2053.624 0 1.2507-.1253 1.848-.3866 1.624-.7094 2.6347-2.2267 2.6347-3.9574v-17.976c0-1.7306-1.0107-3.248-2.6347-3.9573z" fill="#6b7280" fill-rule="evenodd"/></svg>