<svg fill="none" height="24" viewBox="0 0 24 24" width="24" xmlns="http://www.w3.org/2000/svg"><path clip-rule="evenodd" d="m20 14.5993-2.809-2.6 2.809-2.59895zm-5 1.4003c0 .552-.448 1-1 1h-8.99995c-.552 0-1-.448-1-1v-8.00002c0-.551.448-1 1-1h8.99995c.552 0 1 .449 1 1zm6.012-8.85409c-.626-.273-1.352-.154-1.851.306l-2.161 2v-1.452c0-1.654-1.346-3-3-3h-8.99997c-1.654 0-3 1.346-3 3v7.99999c0 1.655 1.346 3 3 3h8.99997c1.654 0 3-1.345 3-3v-1.451l2.161 1.999c.32.297.735.452 1.158.452.234 0 .469-.047.693-.145.609-.266.988-.835.988-1.484v-6.74099c0-.649-.379-1.218-.988-1.484z" fill="#6b7280" fill-rule="evenodd"/></svg>