<svg fill="none" height="64" viewBox="0 0 64 64" width="64" xmlns="http://www.w3.org/2000/svg"><path d="m36.4219 8c2.9333 0 5.2965-.00132 7.208.15332l.7265.06836c1.6682.18285 3.1628.53177 4.5577 1.24219 2.5338 1.29113 4.5946 3.35073 5.8857 5.88473.8119 1.5942 1.1498 3.3191 1.3096 5.2842.0995 1.4105.1513 2.8282.1513 4.2422.0082.1145.0067.2292 0 .3438.0032.8163.0049 1.6906.0049 2.622v8.8467c0 2.9335.0008 5.2962-.1562 7.208-.1598 1.9652-.4978 3.69-1.3096 5.2842-1.2911 2.5341-3.3517 4.5946-5.8857 5.8857-1.5943.812-3.319 1.1499-5.2842 1.3096-1.9117.1571-4.2749.1563-7.208.1563h-8.8438c-2.9331 0-5.2963.0008-7.208-.1563-1.9652-.1597-3.6899-.4976-5.2842-1.3096-2.5335-1.2905-4.5942-3.3497-5.8857-5.8828-.81186-1.5942-1.14981-3.319-1.30957-5.2842-.1571-1.9118-.15625-4.2745-.15625-7.208v-8.8466c0-.9315.00168-1.8058.00488-2.6221-.00667-.1145-.00518-.2294.00293-.3438.00009-1.414.04892-2.8297.14844-4.2402.15976-1.965.49778-3.692 1.30957-5.2861 1.2911-2.5342 3.3517-4.5946 5.8857-5.88578 1.5943-.81194 3.319-1.14982 5.2842-1.30957 1.8178-.14984 4.0409-.15625 6.7735-.15625zm-23.3545 28.5859c0 3.0698.0006 5.2115.1387 6.878.133 1.6366.3828 2.5798.747 3.2968.7799 1.5306 2.0241 2.775 3.5547 3.5547.7171.3642 1.6602.6141 3.2969.7471 1.6665.1357 3.8063.1377 6.875.1377h8.6406c3.0693 0 5.2088.0004 6.875-.1377 1.6367-.133 2.5798-.3829 3.2969-.7471 1.5306-.7797 2.7748-2.0241 3.5547-3.5547.3642-.717.614-1.6602.747-3.2968.1358-1.6668.1387-3.8086.1387-6.878v-8.8515h-37.8652zm10.4219-23.2295c-1.0299.0184-1.9087.0517-2.6846.1153-1.6368.133-2.5798.3828-3.2969.7471-1.3396.6825-2.4606 1.7203-3.2422 2.9951l-.3125.5595c-.3642.7172-.614 1.6599-.747 3.2969-.0333.41-.0569.8529-.0762 1.3281h7.3515zm2.6093 9.042h8.792l3.0733-9.0654h-8.8418zm14.4248 0h10.3467c-.0188-.4758-.04-.9186-.0732-1.3281-.1164-1.4314-.3209-2.3325-.6143-3.0156l-.1328-.2813c-.7798-1.5306-2.0242-2.7748-3.5547-3.5546-.665-.3391-1.5277-.5753-2.9609-.7139z" fill="#000"/></svg>