<svg width="24" height="24" viewBox="0 0 24 24" fill="none" xmlns="http://www.w3.org/2000/svg">
<g id="Icon/Outline/video">
<path id="Mask" fill-rule="evenodd" clip-rule="evenodd" d="M20 14.5996L17.191 11.9996L20 9.4006V14.5996ZM15 15.9996C15 16.5516 14.552 16.9996 14 16.9996H5C4.448 16.9996 4 16.5516 4 15.9996V7.9996C4 7.4486 4.448 6.9996 5 6.9996H14C14.552 6.9996 15 7.4486 15 7.9996V15.9996ZM21.012 7.1456C20.386 6.8726 19.66 6.9916 19.161 7.4516L17 9.4516V7.9996C17 6.3456 15.654 4.9996 14 4.9996H5C3.346 4.9996 2 6.3456 2 7.9996V15.9996C2 17.6546 3.346 18.9996 5 18.9996H14C15.654 18.9996 17 17.6546 17 15.9996V14.5486L19.161 16.5476C19.481 16.8446 19.896 16.9996 20.319 16.9996C20.553 16.9996 20.788 16.9526 21.012 16.8546C21.621 16.5886 22 16.0196 22 15.3706V8.6296C22 7.9806 21.621 7.4116 21.012 7.1456Z" fill="#231F20"/>
<mask id="mask0" mask-type="alpha" maskUnits="userSpaceOnUse" x="2" y="4" width="20" height="15">
<path id="Mask_2" fill-rule="evenodd" clip-rule="evenodd" d="M20 14.5996L17.191 11.9996L20 9.4006V14.5996ZM15 15.9996C15 16.5516 14.552 16.9996 14 16.9996H5C4.448 16.9996 4 16.5516 4 15.9996V7.9996C4 7.4486 4.448 6.9996 5 6.9996H14C14.552 6.9996 15 7.4486 15 7.9996V15.9996ZM21.012 7.1456C20.386 6.8726 19.66 6.9916 19.161 7.4516L17 9.4516V7.9996C17 6.3456 15.654 4.9996 14 4.9996H5C3.346 4.9996 2 6.3456 2 7.9996V15.9996C2 17.6546 3.346 18.9996 5 18.9996H14C15.654 18.9996 17 17.6546 17 15.9996V14.5486L19.161 16.5476C19.481 16.8446 19.896 16.9996 20.319 16.9996C20.553 16.9996 20.788 16.9526 21.012 16.8546C21.621 16.5886 22 16.0196 22 15.3706V8.6296C22 7.9806 21.621 7.4116 21.012 7.1456Z" fill="white"/>
</mask>
<g mask="url(#mask0)">
<g id="&#240;&#159;&#142;&#168; Color">
<rect id="Base" width="24" height="24" fill="#0D1C2E"/>
</g>
</g>
</g>
</svg>
