<svg viewBox="0 0 64 64" fill="none" xmlns="http://www.w3.org/2000/svg">
<path fill-rule="evenodd" clip-rule="evenodd" d="M32 5.5C33.4728 5.5 34.6667 6.69391 34.6667 8.16667V55.8333C34.6667 57.3061 33.4728 58.5 32 58.5C30.5272 58.5 29.3333 57.3061 29.3333 55.8333V8.16667C29.3333 6.69391 30.5272 5.5 32 5.5Z M43.9167 13.4453C45.3894 13.4453 46.5833 14.6392 46.5833 16.112V47.8906C46.5822 49.3624 45.3887 50.5573 43.9167 50.5573C42.4446 50.5573 41.2511 49.3624 41.25 47.8906V16.112C41.25 14.6392 42.4439 13.4453 43.9167 13.4453Z M20.0469 21.3906C21.519 21.3913 22.7135 22.585 22.7135 24.0573V39.9453C22.7128 41.417 21.5186 42.6113 20.0469 42.612C18.5745 42.612 17.3809 41.4175 17.3802 39.9453V24.0573C17.3802 22.5845 18.5741 21.3906 20.0469 21.3906Z M55.8333 21.3906C57.3061 21.3906 58.5 22.5845 58.5 24.0573V39.9453C58.4993 41.4175 57.3057 42.612 55.8333 42.612C54.361 42.612 53.1674 41.4175 53.1667 39.9453V24.0573C53.1667 22.5845 54.3606 21.3906 55.8333 21.3906Z M8.16667 25.362C9.63943 25.362 10.8333 26.5559 10.8333 28.0286V35.974C10.8322 37.4457 9.63871 38.6406 8.16667 38.6406C6.69462 38.6406 5.50116 37.4457 5.5 35.974V28.0286C5.5 26.5559 6.69391 25.362 8.16667 25.362Z" fill="#141414"/>
</svg>