<svg fill="none" height="64" viewBox="0 0 64 64" width="64" xmlns="http://www.w3.org/2000/svg"><path clip-rule="evenodd" d="m36 48.2713-13.6026-9.328c-.4454-.3013-.9707-.4667-1.5094-.4667h-11.55463v-12.952h11.55463c.5387 0 1.064-.1653 1.5094-.4666l13.6026-9.328zm3.9093-39.96257c-.8773-.464-1.936-.40267-2.7493.15733l-17.0987 11.72534h-13.39463c-1.472 0-2.66667 1.192-2.66667 2.6667v18.2853c0 1.4747 1.19467 2.6667 2.66667 2.6667h13.39463l17.0987 11.7253c.4507.3093.9787.464 1.5067.464.4266 0 .8533-.1013 1.2426-.3067.8747-.4613 1.424-1.368 1.424-2.36v-42.6666c0-.98937-.5493-1.89604-1.424-2.35737zm8.8356 14.01997c-.9253-1.1466-2.6027-1.3253-3.7493-.4053-1.1467.9227-1.3307 2.6-.408 3.7493 2.7626 3.4294 2.7626 9.2267 0 12.656-.9227 1.1494-.7387 2.8267.408 3.7494.4933.3973 1.0826.5893 1.6693.5893.7787 0 1.552-.3413 2.08-.9947 4.3627-5.424 4.3627-13.92 0-19.344zm-.1324-8.0281c.9387-1.136 2.6214-1.2933 3.7547-.3546 5.7813 4.7893 8.9653 11.2026 8.9653 18.056 0 6.8506-3.184 13.264-8.9653 18.0533-.4987.4107-1.1013.6133-1.6987.6133-.768 0-1.528-.3306-2.056-.968-.9386-1.1333-.7813-2.8133.3547-3.7546 4.5333-3.7574 7.032-8.7094 7.032-13.944 0-5.2374-2.4987-10.1894-7.032-13.9467-1.136-.9413-1.2933-2.6213-.3547-3.7547z" fill="#6b7280" fill-rule="evenodd"/></svg>