<svg width="24" height="24" viewBox="0 0 24 24" fill="none" xmlns="http://www.w3.org/2000/svg">
<g id="Icon/Outline/volume">
<path id="Mask" fill-rule="evenodd" clip-rule="evenodd" d="M6 14.4287H10.333C10.535 14.4287 10.732 14.4907 10.899 14.6037L16 18.1017V5.8987L10.899 9.3967C10.732 9.5097 10.535 9.5717 10.333 9.5717H6V14.4287ZM17 20.9997C16.802 20.9997 16.604 20.9417 16.435 20.8247L10.023 16.4287H5C4.448 16.4287 4 15.9817 4 15.4287V8.5717C4 8.0187 4.448 7.5717 5 7.5717H10.023L16.435 3.1747C16.74 2.9647 17.137 2.9417 17.466 3.1157C17.794 3.2877 18 3.6287 18 3.9997V19.9997C18 20.3707 17.794 20.7117 17.466 20.8847C17.32 20.9617 17.16 20.9997 17 20.9997Z" fill="#231F20"/>
<mask id="mask0" mask-type="alpha" maskUnits="userSpaceOnUse" x="4" y="2" width="14" height="19">
<path id="Mask_2" fill-rule="evenodd" clip-rule="evenodd" d="M6 14.4287H10.333C10.535 14.4287 10.732 14.4907 10.899 14.6037L16 18.1017V5.8987L10.899 9.3967C10.732 9.5097 10.535 9.5717 10.333 9.5717H6V14.4287ZM17 20.9997C16.802 20.9997 16.604 20.9417 16.435 20.8247L10.023 16.4287H5C4.448 16.4287 4 15.9817 4 15.4287V8.5717C4 8.0187 4.448 7.5717 5 7.5717H10.023L16.435 3.1747C16.74 2.9647 17.137 2.9417 17.466 3.1157C17.794 3.2877 18 3.6287 18 3.9997V19.9997C18 20.3707 17.794 20.7117 17.466 20.8847C17.32 20.9617 17.16 20.9997 17 20.9997Z" fill="white"/>
</mask>
<g mask="url(#mask0)">
<g id="&#240;&#159;&#142;&#168; Color">
<rect id="Base" width="24" height="24" fill="#0D1C2E"/>
</g>
</g>
</g>
</svg>
