<svg fill="none" height="64" viewBox="0 0 64 64" width="64" xmlns="http://www.w3.org/2000/svg"><path clip-rule="evenodd" d="m36 28.4571v-12.728l-7.552 5.176-3.8373-3.8347 12.5493-8.60531c.8134-.56 1.872-.62134 2.7494-.15734.8746.46134 1.424 1.368 1.424 2.36005v23.1226zm-23.448-19.67487c-1.0427-1.04267-2.72802-1.04267-3.77069 0-1.04266 1.04266-1.04266 2.72797 0 3.77067l42.66669 42.6667c.52.52 1.2026.7813 1.8853.7813s1.3653-.2613 1.8853-.7813c1.0427-1.0427 1.0427-2.728 0-3.7707zm32.5429 28.77007 3.8347 3.8373c4.1546-5.4346 4.1066-13.7253-.184-19.0613-.9254-1.1467-2.6027-1.3253-3.752-.4053-1.1467.9226-1.328 2.6-.4054 3.7493 2.568 3.1893 2.7147 8.4027.5067 11.88zm6.1637 6.1648c3.0614-3.3947 4.7414-7.4533 4.7414-11.7173 0-5.2374-2.4987-10.1867-7.0347-13.944-1.1333-.9414-1.2933-2.624-.352-3.7574.9387-1.1333 2.6187-1.2906 3.7547-.3546 5.7813 4.7893 8.9653 11.2053 8.9653 18.056 0 5.6986-2.232 11.08-6.3013 15.4906zm-15.2586 4.554-13.6027-9.328c-.4453-.3013-.9706-.4666-1.5093-.4666h-11.55467v-12.952h8.64797l-5.3333-5.3334h-5.98133c-1.472 0-2.66667 1.192-2.66667 2.6667v18.2853c0 1.4747 1.19467 2.6667 2.66667 2.6667h13.39463l17.0987 11.7253c.4507.3094.9787.464 1.5067.464.4266 0 .8533-.1013 1.2426-.3066.8747-.4614 1.424-1.368 1.424-2.36v-4.456l-5.3333-5.3334z" fill="#6b7280" fill-rule="evenodd"/></svg>