<svg fill="none" height="64" viewBox="0 0 64 64" width="64" xmlns="http://www.w3.org/2000/svg"><path clip-rule="evenodd" d="m16 38.4766h11.5547c.5386 0 1.064.1654 1.5093.4667l13.6027 9.328v-32.5413l-13.6027 9.328c-.4453.3013-.9707.4666-1.5093.4666h-11.5547zm29.3333 17.5228c-.528 0-1.056-.1547-1.5067-.4667l-17.0986-11.7226h-13.3947c-1.472 0-2.6667-1.192-2.6667-2.6667v-18.2853c0-1.4747 1.1947-2.6667 2.6667-2.6667h13.3947l17.0986-11.72534c.8134-.56 1.872-.62133 2.7494-.15733.8746.45867 1.424 1.368 1.424 2.35737v42.6666c0 .9894-.5494 1.8987-1.424 2.36-.3894.2054-.816.3067-1.2427.3067z" fill="#6b7280" fill-rule="evenodd"/></svg>