<svg fill="none" height="24" viewBox="0 0 24 24" width="24" xmlns="http://www.w3.org/2000/svg"><path clip-rule="evenodd" d="m9.89902 14.6036 5.10098 3.498v-12.20298l-5.10098 3.498c-.167.113-.364.175-.566.175h-4.333v4.85698h4.333c.202 0 .399.062.566.175zm5.53598-11.42895c.306-.21.703-.233 1.031-.059.328.173.534.513.534.884v16.00005c0 .372-.206.712-.534.885-.146.077-.306.115-.466.115-.198 0-.396-.058-.565-.174l-6.412-4.397h-5.023c-.552 0-1-.447-1-1v-6.85705c0-.553.448-1 1-1h5.023zm3.9383 5.0465c.429-.345 1.06-.278 1.406.152 1.636 2.03405 1.636 5.22005 0 7.25405-.198.245-.488.373-.78.373-.22 0-.441-.072-.626-.221-.43-.346-.499-.975-.153-1.406 1.036-1.286 1.036-3.4601 0-4.74605-.346-.431-.277-1.06.153-1.406z" fill="#6b7280" fill-rule="evenodd"/></svg>