<svg fill="none" height="24" viewBox="0 0 24 24" width="24" xmlns="http://www.w3.org/2000/svg"><path clip-rule="evenodd" d="m6.00002 14.4286h4.33298c.202 0 .399.062.566.175l5.101 3.498v-12.20298l-5.101 3.498c-.167.113-.364.175-.566.175h-4.33298zm10.99998 6.5711c-.198 0-.396-.058-.565-.175l-6.412-4.396h-5.023c-.552 0-1-.447-1-1v-6.85705c0-.553.448-1 1-1h5.023l6.412-4.397c.305-.21.702-.233 1.031-.059.328.172.534.513.534.884v16.00005c0 .371-.206.712-.534.885-.146.077-.306.115-.466.115z" fill="#6b7280" fill-rule="evenodd"/></svg>