<svg fill="none" height="24" viewBox="0 0 24 24" width="24" xmlns="http://www.w3.org/2000/svg"><path clip-rule="evenodd" d="m13.5 10.6714v-4.77299l-2.832 1.941-1.43898-1.438 4.70598-3.227c.305-.21.702-.233 1.031-.059.328.173.534.513.534.885v8.67099zm-8.79301-7.37839c-.391-.391-1.023-.391-1.414 0s-.391 1.023 0 1.414l16.00001 15.99999c.195.195.451.293.707.293s.512-.098.707-.293c.391-.391.391-1.023 0-1.414zm12.20361 10.78909 1.438 1.439c1.558-2.038 1.54-5.147-.069-7.14799-.347-.43-.976-.497-1.407-.152-.43.346-.498.975-.152 1.406.963 1.19599 1.018 3.15099.19 4.45499zm2.3114 2.3118c1.148-1.273 1.778-2.795 1.778-4.394 0-1.964-.937-3.81999-2.638-5.22899-.425-.353-.485-.984-.132-1.409.352-.425.982-.484 1.408-.133 2.168 1.796 3.362 4.202 3.362 6.77099 0 2.137-.837 4.155-2.363 5.809zm-5.722 1.7078-5.101-3.498c-.167-.113-.364-.175-.566-.175h-4.333v-4.85703h3.243l-2-2h-2.243c-.552 0-1 .447-1 1v6.85703c0 .553.448 1 1 1h5.023l6.412 4.397c.169.116.367.174.565.174.16 0 .32-.038.466-.115.328-.173.534-.513.534-.885v-1.671l-2-2z" fill="#6b7280" fill-rule="evenodd"/></svg>