<svg fill="none" height="64" viewBox="0 0 64 64" width="64" xmlns="http://www.w3.org/2000/svg"><path clip-rule="evenodd" d="m50.6667 50.667c0 1.472-1.1973 2.6667-2.6667 2.6667h-32c-1.4693 0-2.6666-1.1947-2.6666-2.6667v-29.3333c0-1.472 1.1973-2.6667 2.6666-2.6667h2.6667c0 7.352 5.9813 13.3333 13.3333 13.3333s13.3334-5.9813 13.3334-13.3333h2.6666c1.4694 0 2.6667 1.1947 2.6667 2.6667zm-21.3334-39.5417v4.8747c0 1.4747 1.1947 2.6667 2.6667 2.6667s2.6667-1.192 2.6667-2.6667v-4.8747c2.4613.8694 4.4026 2.92 5.0853 5.5974.168.5893.248 1.2266.248 1.944 0 4.4106-3.5893 8-8 8s-8-3.5894-8-8c0-.6987.0827-1.32.2427-1.8987.008-.032.0106-.0613.0186-.0933l.0107-.04c.672-2.6187 2.608-4.6454 5.0613-5.5094zm18.6667 2.2082h-3.792c-2.0773-4.79734-6.8293-8-12.208-8-5.3947 0-10.1573 3.224-12.2133 8h-3.7867c-4.4107 0-8 3.5893-8 8v29.3333c0 4.4107 3.5893 8 8 8h32c4.4107 0 8-3.5893 8-8v-29.3333c0-4.4107-3.5893-8-8-8z" fill="#6b7280" fill-rule="evenodd"/></svg>