<svg fill="none" height="24" viewBox="0 0 24 24" width="24" xmlns="http://www.w3.org/2000/svg"><path clip-rule="evenodd" d="m11.9996 4.00024c3.648 0 7.101 1.395 9.725 3.929.397.383.408 1.017.025 1.414-.196.203-.458.305-.719.305-.25 0-.501-.093-.695-.281-2.25-2.171-5.21-3.367-8.336-3.367-3.12603 0-6.08603 1.196-8.33603 3.367-.395.385-1.029.374-1.414-.024-.382-.397-.372-1.031.026-1.414 2.624-2.534 6.07699-3.929 9.72403-3.929zm.0004 4.99967c-2.42803 0-4.78803 1.00099-6.47503 2.74799-.382.398-.372 1.031.026 1.414.396.384 1.031.373 1.414-.024 1.311-1.359 3.14603-2.138 5.03503-2.138s3.724.779 5.035 2.138c.196.203.458.305.72.305.25 0 .501-.093.694-.281.398-.383.408-1.016.026-1.414-1.687-1.747-4.047-2.74799-6.475-2.74799zm-3.47303 6.40309c.93699-.904 2.17003-1.403 3.47303-1.403s2.536.499 3.473 1.403c.397.384.408 1.017.025 1.414-.196.204-.458.306-.72.306-.25 0-.501-.094-.694-.281-1.125-1.086-3.043-1.086-4.16803 0-.395.384-1.02901.373-1.414-.025-.383-.397-.372-1.03.025-1.414zm2.47303 3.5969c0-.552.447-1 1-1s1 .448 1 1-.447 1-1 1-1-.448-1-1z" fill="#6b7280" fill-rule="evenodd"/></svg>