<svg width="265" height="265" viewBox="0 0 265 265" xmlns="http://www.w3.org/2000/svg">
<path fill-rule="evenodd" clip-rule="evenodd" d="M233 48.0001C233 37.5066 224.493 29 214 29L52.0001 28.9999C41.5066 28.9999 33 37.5065 33 48C33 58.4934 41.5066 67 52.0001 67L214 67.0001C224.493 67.0001 233 58.4935 233 48.0001ZM228 93.0001C230.761 93.0001 233 95.2388 233 98.0002C233 100.762 230.761 103 228 103L38 103C35.2386 103 33 100.761 33 98.0001C33 95.2386 35.2386 93 38 93L228 93.0001ZM228 135C230.761 135 233 137.239 233 140C233 142.761 230.761 145 228 145L38 145C35.2386 145 33 142.761 33 140C33 137.239 35.2386 135 38 135L228 135ZM228 177C230.761 177 233 179.239 233 182C233 184.762 230.761 187 228 187L38 187C35.2386 187 33 184.761 33 182C33 179.239 35.2386 177 38 177L228 177ZM233 224C233 221.239 230.761 219 228 219L38 219C35.2386 219 33 221.239 33 224C33 226.761 35.2386 229 38 229L228 229C230.761 229 233 226.762 233 224Z"/>
</svg>
