<svg width="265" height="265" viewBox="0 0 265 265" xmlns="http://www.w3.org/2000/svg">
<path fill-rule="evenodd" clip-rule="evenodd" d="M42 25C33.1634 25 26 32.1634 26 41V223C26 231.837 33.1634 239 42 239H224C232.837 239 240 231.837 240 223V41C240 32.1634 232.837 25 224 25H42ZM205.719 51.5355C207.672 49.5829 210.838 49.5829 212.79 51.5355C214.743 53.4882 214.743 56.654 212.79 58.6066L197.354 74.0435L213.029 89.7193C214.982 91.672 214.982 94.8378 213.029 96.7904C211.077 98.743 207.911 98.743 205.958 96.7904L190.282 81.1146L174.607 96.7904C172.654 98.743 169.488 98.743 167.536 96.7904C165.583 94.8378 165.583 91.6719 167.536 89.7193L183.211 74.0435L167.775 58.6066C165.822 56.654 165.822 53.4882 167.775 51.5355C169.727 49.5829 172.893 49.5829 174.846 51.5355L190.282 66.9725L205.719 51.5355Z"/>
</svg>
