<svg width="265" height="265" viewBox="0 0 265 265" fill="none" xmlns="http://www.w3.org/2000/svg">
<path fill-rule="evenodd" clip-rule="evenodd" d="M233 49.0002C233 46.2387 230.761 44.0001 228 44.0001L38 44C35.2386 44 33 46.2386 33 49C33 51.7615 35.2386 54.0001 38 54.0001L228 54.0002C230.761 54.0002 233 51.7616 233 49.0002ZM228 86.0001C230.761 86.0001 233 88.2387 233 91.0002C233 93.7616 230.761 96.0002 228 96.0002L38 96.0001C35.2386 96.0001 33 93.7615 33 91C33 88.2386 35.2386 86 38 86L228 86.0001ZM233 133C233 130.239 230.761 128 228 128L38 128C35.2386 128 33 130.238 33 133C33 135.761 35.2386 138 38 138L228 138C230.761 138 233 135.761 233 133ZM228 170C230.761 170 233 172.239 233 175C233 177.762 230.761 180 228 180L38 180C35.2386 180 33 177.761 33 175C33 172.239 35.2386 170 38 170L228 170ZM228 212C230.761 212 233 214.239 233 217C233 219.762 230.761 222 228 222L38 222C35.2386 222 33 219.761 33 217C33 214.239 35.2386 212 38 212L228 212Z" fill="#232323"/>
</svg>
