<svg width="265" height="265" viewBox="0 0 265 265" fill="none" xmlns="http://www.w3.org/2000/svg">
<path fill-rule="evenodd" clip-rule="evenodd" d="M216 23H48C33.6406 23 22 34.6406 22 49V217C22 231.359 33.6406 243 48 243H216C230.359 243 242 231.359 242 217V49C242 34.6406 230.359 23 216 23ZM32 49C32 40.1634 39.1634 33 48 33H216C224.837 33 232 40.1634 232 49V217C232 225.837 224.837 233 216 233H48C39.1634 233 32 225.837 32 217V49ZM132 197C167.346 197 196 168.346 196 133C196 97.6538 167.346 69 132 69C96.6538 69 68 97.6538 68 133C68 168.346 96.6538 197 132 197Z" fill="#232323"/>
</svg>
