<svg width="265" height="265" viewBox="0 0 265 265" fill="none" xmlns="http://www.w3.org/2000/svg">
<path fill-rule="evenodd" clip-rule="evenodd" d="M88 133C88 150.673 73.6731 165 56 165C38.3269 165 24 150.673 24 133C24 115.327 38.3269 101 56 101C73.6731 101 88 115.327 88 133ZM210 155C222.15 155 232 145.15 232 133C232 120.85 222.15 111 210 111C197.85 111 188 120.85 188 133C188 145.15 197.85 155 210 155ZM210 165C227.673 165 242 150.673 242 133C242 115.327 227.673 101 210 101C192.327 101 178 115.327 178 133C178 150.673 192.327 165 210 165ZM117 133C117 130.239 114.761 128 112 128L102 128C99.2386 128 97 130.239 97 133C97 135.761 99.2386 138 102 138L112 138C114.761 138 117 135.761 117 133ZM138 128C140.761 128 143 130.239 143 133C143 135.761 140.761 138 138 138L128 138C125.239 138 123 135.761 123 133C123 130.239 125.239 128 128 128L138 128ZM169 133C169 130.239 166.761 128 164 128L154 128C151.239 128 149 130.239 149 133C149 135.761 151.239 138 154 138L164 138C166.761 138 169 135.761 169 133Z" fill="#232323"/>
</svg>
