<svg width="265" height="265" viewBox="0 0 265 265" xmlns="http://www.w3.org/2000/svg">
<path fill-rule="evenodd" clip-rule="evenodd" d="M235.564 28.4673C234.659 27.5608 233.408 27 232.026 27L202.026 27C199.265 27 197.026 29.2386 197.026 32C197.026 34.7615 199.265 37.0001 202.026 37.0001L220.163 37.0001L195.28 61.8827C193.328 63.8354 193.328 67.0012 195.28 68.9538C197.233 70.9065 200.399 70.9065 202.352 68.9539L227.108 44.1978L227.192 62.0471C227.206 64.8085 229.455 67.0364 232.216 67.0233C234.978 67.0102 237.206 64.761 237.192 61.9996L237.05 31.9999C237.043 30.6171 236.476 29.3681 235.564 28.4673ZM203.352 42H174C164.059 42 156 50.0589 156 60V92C156 101.941 164.059 110 174 110H206C215.941 110 224 101.941 224 92V60C224 59.7175 223.993 59.4366 223.981 59.1573L214 69.1379V92C214 96.4183 210.418 100 206 100H174C169.582 100 166 96.4183 166 92V60C166 55.5817 169.582 52 174 52H193.352L203.352 42ZM229 133C229 130.239 226.761 128 224 128L34 128C31.2386 128 29 130.239 29 133C29 135.761 31.2386 138 34 138L224 138C226.761 138 229 135.761 229 133ZM130 86C132.761 86 135 88.2386 135 91C135 93.7615 132.761 96.0001 130 96.0001L34 96C31.2386 96 29 93.7614 29 91C29 88.2385 31.2386 85.9999 34 85.9999L130 86ZM135 49.0001C135 46.2387 132.761 44.0001 130 44.0001L34 44C31.2386 44 29 46.2386 29 49C29 51.7615 31.2386 54.0001 34 54.0001L130 54.0001C132.761 54.0001 135 51.7615 135 49.0001ZM224 170C226.761 170 229 172.239 229 175C229 177.762 226.761 180 224 180L34 180C31.2386 180 29 177.761 29 175C29 172.239 31.2386 170 34 170L224 170ZM229 217C229 214.239 226.761 212 224 212L34 212C31.2386 212 29 214.239 29 217C29 219.761 31.2386 222 34 222L224 222C226.761 222 229 219.762 229 217Z"/>
</svg>
