<svg width="265" height="265" viewBox="0 0 265 265" xmlns="http://www.w3.org/2000/svg">
<path fill-rule="evenodd" clip-rule="evenodd" d="M23 38C23 29.1634 30.1634 22 39 22H81C89.8366 22 97 29.1634 97 38V80C97 88.8366 89.8365 96 81 96H39C30.1634 96 23 88.8365 23 80V38ZM119 92H147C161.359 92 173 103.641 173 118V146C173 160.359 161.359 172 147 172H119C104.641 172 93 160.359 93 146V118C93 103.641 104.641 92 119 92ZM119 102C110.163 102 103 109.163 103 118V146C103 154.837 110.163 162 119 162H147C155.837 162 163 154.837 163 146V118C163 109.163 155.837 102 147 102H119ZM220 165H192C177.641 165 166 176.641 166 191V219C166 233.359 177.641 245 192 245H220C234.359 245 246 233.359 246 219V191C246 176.641 234.359 165 220 165ZM176 191C176 182.163 183.163 175 192 175H220C228.837 175 236 182.163 236 191V219C236 227.837 228.837 235 220 235H192C183.163 235 176 227.837 176 219V191Z"/>
</svg>
