<svg width="265" height="265" viewBox="0 0 265 265" fill="none" xmlns="http://www.w3.org/2000/svg">
<path fill-rule="evenodd" clip-rule="evenodd" d="M243 121C243 103.327 228.673 89 211 89L55 89C37.3269 89 23 103.327 23 121L23 146C23 163.673 37.3269 178 55 178L211 178C228.673 178 243 163.673 243 146V121ZM152 121C152 118.239 149.761 116 147 116L51 116C48.2386 116 46 118.239 46 121C46 123.761 48.2386 126 51 126L147 126C149.761 126 152 123.762 152 121ZM152 144C152 141.239 149.761 139 147 139L51 139C48.2386 139 46 141.239 46 144C46 146.761 48.2386 149 51 149L147 149C149.761 149 152 146.762 152 144ZM194 125.353C194 121.844 196.844 119 200.353 119H214.647C218.156 119 221 121.844 221 125.353V139.647C221 143.156 218.156 146 214.647 146H200.353C196.844 146 194 143.156 194 139.647V125.353Z" fill="#232323"/>
</svg>
