<svg width="265" height="265" viewBox="0 0 265 265" xmlns="http://www.w3.org/2000/svg">
<path fill-rule="evenodd" clip-rule="evenodd" d="M133 228C185.467 228 228 185.467 228 133C228 80.533 185.467 38 133 38C80.533 38 38 80.533 38 133C38 185.467 80.533 228 133 228ZM214 133C214 177.735 177.735 214 133 214V174C110.366 173.988 92.0218 155.636 92.0218 133C92.0218 110.364 110.366 92.0118 133 92V52C177.735 52 214 88.2649 214 133ZM174.055 133C174.055 155.644 155.699 174 133.055 174L133.055 92C155.699 92 174.055 110.356 174.055 133Z"/>
</svg>
