<svg width="265" height="265" viewBox="0 0 265 265" xmlns="http://www.w3.org/2000/svg">
<path fill-rule="evenodd" clip-rule="evenodd" d="M49 22H217C231.359 22 243 33.6406 243 48V66C243 80.3594 231.359 92 217 92H49C34.6406 92 23 80.3594 23 66V48C23 33.6406 34.6406 22 49 22ZM49 32C40.1634 32 33 39.1634 33 48V66C33 74.8366 40.1634 82 49 82H217C225.837 82 233 74.8366 233 66V48C233 39.1634 225.837 32 217 32H49Z"/>
<path d="M46 123C46 114.163 53.1634 107 62 107H204C212.837 107 220 114.163 220 123V221C220 229.837 212.837 237 204 237H62C53.1635 237 46 229.837 46 221V123Z"/>
</svg>
