<svg width="265" height="265" viewBox="0 0 265 265" xmlns="http://www.w3.org/2000/svg">
<path fill-rule="evenodd" clip-rule="evenodd" d="M133 23C128.582 23 125 26.5817 125 31L125 65C125 69.4183 128.582 73 133 73C137.418 73 141 69.4183 141 65L141 31C141 26.5817 137.418 23 133 23ZM133 183C128.582 183 125 186.582 125 191L125 225C125 229.418 128.582 233 133 233C137.418 233 141 229.418 141 225L141 191C141 186.582 137.418 183 133 183ZM230 120C234.418 120 238 123.582 238 128C238 132.418 234.418 136 230 136L196 136C191.582 136 188 132.418 188 128C188 123.582 191.582 120 196 120L230 120ZM78 128C78 123.582 74.4183 120 70 120L36 120C31.5817 120 28 123.582 28 128C28 132.418 31.5817 136 36 136L70 136C74.4183 136 78 132.418 78 128ZM195.932 53.7538C199.057 50.6296 204.122 50.6296 207.246 53.7538C210.37 56.878 210.37 61.9433 207.246 65.0675L183.205 89.1091C180.08 92.2333 175.015 92.2333 171.891 89.1091C168.767 85.9849 168.767 80.9196 171.891 77.7954L195.932 53.7538ZM94.1091 166.891C90.9849 163.767 85.9196 163.767 82.7954 166.891L58.7538 190.932C55.6296 194.057 55.6296 199.122 58.7538 202.246C61.878 205.37 66.9433 205.37 70.0675 202.246L94.1091 178.205C97.2333 175.08 97.2333 170.015 94.1091 166.891ZM207.246 190.932C210.37 194.057 210.37 199.122 207.246 202.246C204.122 205.37 199.057 205.37 195.933 202.246L171.891 178.205C168.767 175.08 168.767 170.015 171.891 166.891C175.015 163.767 180.08 163.767 183.205 166.891L207.246 190.932ZM94.1091 89.1091C97.2333 85.9849 97.2333 80.9196 94.1091 77.7954L70.0675 53.7538C66.9433 50.6296 61.878 50.6296 58.7538 53.7538C55.6296 56.878 55.6296 61.9433 58.7538 65.0675L82.7954 89.1091C85.9196 92.2333 90.9849 92.2333 94.1091 89.1091ZM161.091 34.8126C162.71 30.7015 167.355 28.6809 171.466 30.2995C175.577 31.9181 177.598 36.563 175.979 40.6741L163.523 72.3104C161.905 76.4216 157.26 78.4422 153.149 76.8236C149.038 75.205 147.017 70.5601 148.636 66.449L161.091 34.8126ZM112.851 179.176C108.74 177.558 104.095 179.578 102.477 183.69L90.021 215.326C88.4024 219.437 90.423 224.082 94.5341 225.7C98.6452 227.319 103.29 225.298 104.909 221.187L117.364 189.551C118.983 185.44 116.962 180.795 112.851 179.176ZM226.187 156.091C230.299 157.71 232.319 162.355 230.701 166.466C229.082 170.577 224.437 172.598 220.326 170.979L188.69 158.523C184.578 156.905 182.558 152.26 184.176 148.149C185.795 144.038 190.44 142.017 194.551 143.636L226.187 156.091ZM81.8235 107.851C83.4421 103.74 81.4216 99.0953 77.3104 97.4767L45.6741 85.0211C41.563 83.4025 36.9181 85.423 35.2995 89.5342C33.6809 93.6453 35.7015 98.2901 39.8126 99.9088L71.449 112.364C75.5601 113.983 80.2049 111.962 81.8235 107.851ZM218.757 81.9701C222.808 80.2076 227.522 82.0632 229.284 86.1148C231.047 90.1663 229.191 94.8795 225.139 96.642L193.962 110.205C189.91 111.967 185.197 110.112 183.435 106.06C181.672 102.009 183.528 97.2954 187.579 95.5329L218.757 81.9701ZM82.5655 149.94C80.803 145.888 76.0899 144.033 72.0383 145.795L40.8606 159.358C36.8091 161.12 34.9535 165.834 36.7159 169.885C38.4784 173.937 43.1916 175.792 47.2431 174.03L78.4208 160.467C82.4724 158.705 84.328 153.991 82.5655 149.94ZM179.03 213.757C180.792 217.808 178.937 222.522 174.885 224.284C170.834 226.047 166.121 224.191 164.358 220.139L150.795 188.962C149.033 184.91 150.888 180.197 154.94 178.435C158.991 176.672 163.705 178.528 165.467 182.579L179.03 213.757ZM111.06 77.5655C115.112 75.803 116.967 71.0898 115.205 67.0383L101.642 35.8606C99.8796 31.809 95.1664 29.9534 91.1149 31.7159C87.0634 33.4784 85.2077 38.1915 86.9702 42.2431L100.533 73.4208C102.295 77.4723 107.009 79.3279 111.06 77.5655Z"/>
</svg>
