<svg width="265" height="265" viewBox="0 0 265 265" fill="none" xmlns="http://www.w3.org/2000/svg">
<path fill-rule="evenodd" clip-rule="evenodd" d="M72 22C54.3269 22 40 36.3269 40 54V210C40 227.673 54.3269 242 72 242H132C149.673 242 164 227.673 164 210V54C164 36.3269 149.673 22 132 22H72ZM233 216V48C233 33.6406 221.359 22 207 22C192.641 22 181 33.6406 181 48V216C181 230.359 192.641 242 207 242C221.359 242 233 230.359 233 216ZM191 48C191 39.1634 198.163 32 207 32C215.837 32 223 39.1634 223 48V216C223 224.837 215.837 232 207 232C198.163 232 191 224.837 191 216V48Z" fill="#232323"/>
</svg>
