<svg width="265" height="265" viewBox="0 0 265 265" fill="none" xmlns="http://www.w3.org/2000/svg">
<path fill-rule="evenodd" clip-rule="evenodd" d="M216 23H48C33.6406 23 22 34.6406 22 49V217C22 231.359 33.6406 243 48 243H216C230.359 243 242 231.359 242 217V49C242 34.6406 230.359 23 216 23ZM32 49C32 40.1634 39.1634 33 48 33H216C224.837 33 232 40.1634 232 49V217C232 225.837 224.837 233 216 233H48C39.1634 233 32 225.837 32 217V49ZM202 118C211.941 118 220 109.941 220 100C220 90.0589 211.941 82 202 82C192.059 82 184 90.0589 184 100C184 102.906 184.689 105.652 185.912 108.082L154.567 139.427C151.6 137.271 147.948 136 144 136C140.326 136 136.909 137.101 134.061 138.99L124.431 129.36C125.439 127.113 126 124.622 126 122C126 112.059 117.941 104 108 104C98.0589 104 90 112.059 90 122C90 124.945 90.7074 127.725 91.9615 130.18L68.8301 153.311C66.2213 151.84 63.2087 151 60 151C50.0589 151 42 159.059 42 169C42 178.941 50.0589 187 60 187C69.9411 187 78 178.941 78 169C78 165.903 77.2177 162.988 75.84 160.443L98.8055 137.478C101.497 139.08 104.641 140 108 140C111.674 140 115.091 138.899 117.939 137.01L127.569 146.64C126.561 148.887 126 151.378 126 154C126 163.941 134.059 172 144 172C153.941 172 162 163.941 162 154C162 151.666 161.556 149.435 160.747 147.389L192.713 115.422C195.425 117.059 198.602 118 202 118ZM108 130C112.418 130 116 126.418 116 122C116 117.582 112.418 114 108 114C103.582 114 100 117.582 100 122C100 126.418 103.582 130 108 130ZM152 154C152 158.418 148.418 162 144 162C139.582 162 136 158.418 136 154C136 149.582 139.582 146 144 146C148.418 146 152 149.582 152 154ZM202 108C206.418 108 210 104.418 210 100C210 95.5817 206.418 92 202 92C197.582 92 194 95.5817 194 100C194 104.418 197.582 108 202 108ZM68 169C68 173.418 64.4183 177 60 177C55.5817 177 52 173.418 52 169C52 164.582 55.5817 161 60 161C64.4183 161 68 164.582 68 169Z" fill="#232323"/>
</svg>
