<svg width="265" height="265" viewBox="0 0 265 265" fill="none" xmlns="http://www.w3.org/2000/svg">
<path fill-rule="evenodd" clip-rule="evenodd" d="M43.0292 140.664C42.6369 136.263 46.2556 132.674 50.6739 132.674H70.6739C75.0921 132.674 78.6132 136.275 79.2654 140.645C80.4368 148.494 83.3293 156.022 87.7745 162.675C93.7081 171.555 102.142 178.476 112.009 182.563C121.876 186.65 132.734 187.72 143.209 185.636C153.684 183.553 163.306 178.41 170.858 170.858C178.41 163.306 183.553 153.684 185.636 143.209C187.72 132.734 186.65 121.876 182.563 112.009C178.476 102.142 171.555 93.7081 162.675 87.7745C156.022 83.3293 148.494 80.4368 140.645 79.2654C136.275 78.6132 132.674 75.0921 132.674 70.6739V50.6739C132.674 46.2556 136.263 42.6369 140.664 43.0292C155.645 44.3643 170.099 49.4383 182.675 57.8416C197.476 67.7309 209.011 81.787 215.823 98.2324C222.635 114.678 224.417 132.774 220.945 150.232C217.472 167.69 208.9 183.727 196.313 196.313C183.727 208.9 167.69 217.472 150.232 220.945C132.774 224.417 114.678 222.635 98.2324 215.823C81.787 209.011 67.7309 197.476 57.8416 182.675C49.4383 170.099 44.3643 155.645 43.0292 140.664ZM118.821 119.62L105.556 145.87H112.54L125.821 119.48V113.87H103.368V119.401H118.821V119.62ZM135.81 145.089C137.539 145.901 139.508 146.308 141.716 146.308C144.091 146.308 146.174 145.834 147.966 144.886C149.768 143.927 151.169 142.615 152.169 140.948C153.179 139.271 153.679 137.355 153.669 135.198C153.679 133.146 153.247 131.334 152.372 129.761C151.497 128.177 150.304 126.933 148.794 126.026C147.284 125.12 145.565 124.667 143.638 124.667C142.231 124.667 140.961 124.927 139.825 125.448C138.69 125.969 137.841 126.625 137.278 127.417H137.091L137.919 119.401H151.903V113.87H132.341L130.825 130.745L136.841 131.823C137.33 131.157 138.013 130.631 138.888 130.245C139.773 129.86 140.685 129.667 141.622 129.667C142.695 129.677 143.648 129.922 144.481 130.401C145.315 130.881 145.966 131.547 146.435 132.401C146.914 133.256 147.153 134.245 147.153 135.37C147.153 136.474 146.919 137.454 146.45 138.308C145.992 139.151 145.351 139.813 144.528 140.292C143.716 140.761 142.778 140.995 141.716 140.995C140.383 140.995 139.231 140.61 138.263 139.839C137.294 139.068 136.773 138.063 136.7 136.823H130.138C130.179 138.667 130.705 140.302 131.716 141.73C132.726 143.157 134.091 144.276 135.81 145.089Z" />
</svg>
