<svg width="265" height="265" viewBox="0 0 265 265" xmlns="http://www.w3.org/2000/svg">
<path fill-rule="evenodd" clip-rule="evenodd" d="M65 23C65 16.3726 70.3726 11 77 11C83.6275 11 89.0001 16.3726 89.0001 23L89 61C89 67.6274 83.6274 73 77 73C70.3726 73 65 67.6274 65 61L65 23ZM55 23H49C34.6406 23 23 34.6406 23 49V217C23 231.359 34.6406 243 49 243H217C231.359 243 243 231.359 243 217V49C243 34.6406 231.359 23 217 23H211L211 33H217C225.837 33 233 40.1634 233 49V217C233 225.837 225.837 233 217 233H49C40.1634 233 33 225.837 33 217V49C33 40.1634 40.1634 33 49 33H55L55 23ZM99 33H167L167 23H99L99 33ZM63 97H203C215.15 97 225 106.85 225 119L225 203C225 215.15 215.15 225 203 225H62.9999C50.8497 225 40.9999 215.15 40.9999 203L41 119C41 106.85 50.8497 97 63 97ZM189 11C182.373 11 177 16.3726 177 23L177 61C177 67.6274 182.373 73 189 73C195.627 73 201 67.6274 201 61L201 23C201 16.3726 195.627 11 189 11Z"/>
</svg>
