<svg width="265" height="265" viewBox="0 0 265 265" fill="none" xmlns="http://www.w3.org/2000/svg">
<path fill-rule="evenodd" clip-rule="evenodd" d="M114.612 133L228 133C230.761 133 233 135.239 233 138C233 140.762 230.761 143 228 143L114.612 143C112.211 158.298 98.9721 170 83 170C67.0279 170 53.7888 158.298 51.3884 143L38 143C35.2386 143 33 140.761 33 138C33 135.239 35.2386 133 38 133L51.3883 133C53.7887 117.702 67.0278 106 83 106C98.9722 106 112.211 117.702 114.612 133Z" fill="#232323"/>
</svg>
