<svg width="265" height="265" viewBox="0 0 265 265" fill="none" xmlns="http://www.w3.org/2000/svg">
<path fill-rule="evenodd" clip-rule="evenodd" d="M77 133C77 146.255 66.2548 157 53 157C39.7452 157 29 146.255 29 133C29 119.745 39.7452 109 53 109C66.2548 109 77 119.745 77 133ZM133 147C140.732 147 147 140.732 147 133C147 125.268 140.732 119 133 119C125.268 119 119 125.268 119 133C119 140.732 125.268 147 133 147ZM133 157C146.255 157 157 146.255 157 133C157 119.745 146.255 109 133 109C119.745 109 109 119.745 109 133C109 146.255 119.745 157 133 157ZM227 133C227 140.732 220.732 147 213 147C205.268 147 199 140.732 199 133C199 125.268 205.268 119 213 119C220.732 119 227 125.268 227 133ZM237 133C237 146.255 226.255 157 213 157C199.745 157 189 146.255 189 133C189 119.745 199.745 109 213 109C226.255 109 237 119.745 237 133Z" fill="#232323"/>
</svg>
