<svg width="265" height="265" viewBox="0 0 265 265" fill="none" xmlns="http://www.w3.org/2000/svg">
<path fill-rule="evenodd" clip-rule="evenodd" d="M91 83C86.5817 83 83 86.5817 83 91V175C83 179.418 86.5817 183 91 183H175C179.418 183 183 179.418 183 175V91C183 86.5817 179.418 83 175 83H91ZM154.66 113.01C157.341 110.33 161.687 110.33 164.367 113.01C167.048 115.691 167.048 120.037 164.367 122.718L133.548 153.537C131.893 155.192 129.603 155.825 127.462 155.436C126.05 155.23 124.691 154.584 123.604 153.498L107.373 137.267C104.693 134.586 104.693 130.24 107.373 127.56C110.054 124.879 114.4 124.879 117.08 127.56L128.596 139.075L154.66 113.01Z" fill="#232323"/>
</svg>
